<svg xmlns="http://www.w3.org/2000/svg" xmlns:xlink="http://www.w3.org/1999/xlink" width="500" zoomAndPan="magnify" viewBox="0 0 375 374.999991" height="500" preserveAspectRatio="xMidYMid meet" version="1.0"><defs><g/><clipPath id="149b8e6f78"><path d="M 62 77.84375 L 128 77.84375 L 128 99 L 62 99 Z M 62 77.84375 " clip-rule="nonzero"/></clipPath><clipPath id="80012da7fb"><path d="M 246 77.84375 L 312 77.84375 L 312 99 L 246 99 Z M 246 77.84375 " clip-rule="nonzero"/></clipPath></defs><path fill="#9e9e9e" d="M 124.183594 94.726562 L 66.433594 94.726562 L 66.433594 90.445312 C 66.433594 85.5625 70.460938 81.539062 75.347656 81.539062 L 115.273438 81.539062 C 120.15625 81.539062 124.183594 85.5625 124.183594 90.445312 Z M 124.183594 94.726562 " fill-opacity="1" fill-rule="nonzero"/><g clip-path="url(#149b8e6f78)"><path stroke-linecap="round" transform="matrix(0.856794, 0, 0, 0.856372, 6.031548, 77.942479)" fill="none" stroke-linejoin="round" d="M 137.900211 19.599065 L 70.497763 19.599065 L 70.497763 14.599775 C 70.497763 8.898031 75.198245 4.199793 80.901739 4.199793 L 127.500794 4.199793 C 133.199729 4.199793 137.900211 8.898031 137.900211 14.599775 Z M 137.900211 19.599065 " stroke="#000000" stroke-width="8.324" stroke-opacity="1" stroke-miterlimit="10"/></g><path fill="#9e9e9e" d="M 307.792969 94.726562 L 250.046875 94.726562 L 250.046875 90.445312 C 250.046875 85.5625 254.074219 81.539062 258.957031 81.539062 L 298.882812 81.539062 C 303.765625 81.539062 307.792969 85.5625 307.792969 90.445312 Z M 307.792969 94.726562 " fill-opacity="1" fill-rule="nonzero"/><g clip-path="url(#80012da7fb)"><path stroke-linecap="round" transform="matrix(0.856794, 0, 0, 0.856372, 6.031548, 77.942479)" fill="none" stroke-linejoin="round" d="M 352.198418 19.599065 L 284.800529 19.599065 L 284.800529 14.599775 C 284.800529 8.898031 289.501011 4.199793 295.199946 4.199793 L 341.799001 4.199793 C 347.497936 4.199793 352.198418 8.898031 352.198418 14.599775 Z M 352.198418 19.599065 " stroke="#000000" stroke-width="8.324" stroke-opacity="1" stroke-miterlimit="10"/></g><path fill="#374046" d="M 187.328125 93.101562 L 78.945312 93.101562 L 78.945312 211.363281 L 295.800781 211.363281 L 295.800781 93.101562 Z M 187.328125 93.101562 " fill-opacity="1" fill-rule="nonzero"/><path stroke-linecap="round" transform="matrix(0.856794, 0, 0, 0.856372, 6.031548, 77.942479)" fill="none" stroke-linejoin="round" d="M 327.797856 145.3978 L 95.500132 145.3978 " stroke="#000000" stroke-width="14.566" stroke-opacity="0.15" stroke-miterlimit="10"/><path stroke-linecap="round" transform="matrix(0.856794, 0, 0, 0.856372, 6.031548, 77.942479)" fill="none" stroke-linejoin="round" d="M 211.598844 17.701525 L 85.100715 17.701525 L 85.100715 155.797782 L 338.201833 155.797782 L 338.201833 17.701525 Z M 211.598844 17.701525 " stroke="#000000" stroke-width="8.324" stroke-opacity="1" stroke-miterlimit="10"/><path fill="#374046" d="M 131.378906 143.371094 C 130.4375 115.964844 108.074219 93.785156 80.660156 93.101562 C 55.46875 92.414062 34.21875 109.542969 28.566406 132.835938 C 28.566406 132.835938 28.566406 132.835938 28.566406 132.921875 L 27.28125 141.058594 L 10.058594 249.386719 C 7.058594 268.144531 19.398438 285.871094 37.988281 289.636719 C 54.527344 292.976562 71.0625 284.242188 77.574219 268.742188 L 112.789062 185.246094 C 124.613281 175.226562 131.980469 160.152344 131.378906 143.371094 Z M 131.378906 143.371094 " fill-opacity="1" fill-rule="nonzero"/><path stroke-linecap="round" transform="matrix(0.856794, 0, 0, 0.856372, 6.031548, 77.942479)" fill="none" stroke-linejoin="round" d="M 68.199952 28.899751 C 73.698285 27.002211 79.502081 25.998704 85.602221 25.998704 C 86.099168 25.998704 86.600675 25.998704 87.00188 25.998704 C 114.698706 26.701158 137.097801 49.001823 138.100814 76.698618 C 138.301416 83.198607 137.398705 89.598245 135.301497 95.500691 " stroke="#ffffff" stroke-width="8.324" stroke-opacity="0.2" stroke-miterlimit="10"/><path stroke-linecap="round" transform="matrix(0.856794, 0, 0, 0.856372, 6.031548, 77.942479)" fill="none" stroke-linejoin="round" d="M 69.198405 226.399067 C 63.399169 233.300458 54.800615 237.501504 45.499953 237.501504 C 43.398185 237.501504 41.401278 237.300803 39.399812 236.8994 C 23.100857 233.601511 12.400536 218.202238 14.99925 201.799459 L 17.898869 183.59949 " stroke="#000000" stroke-width="14.566" stroke-opacity="0.15" stroke-miterlimit="10"/><path stroke-linecap="round" transform="matrix(0.856794, 0, 0, 0.856372, 6.031548, 77.942479)" fill="none" stroke-linejoin="round" d="M 146.298162 76.402127 C 145.199408 44.399374 119.098284 18.499769 87.102181 17.701525 C 57.700233 16.898719 32.898467 36.900439 26.301379 64.100043 C 26.301379 64.100043 26.301379 64.100043 26.301379 64.200393 L 24.801419 73.701781 L 4.700134 200.198409 C 1.198708 222.102232 15.601058 242.801846 37.298045 247.199031 C 56.601479 251.099025 75.900353 240.899744 83.500454 222.800125 L 124.601176 125.30029 C 138.401718 113.60031 147.000271 95.997883 146.298162 76.402127 Z M 146.298162 76.402127 " stroke="#000000" stroke-width="8.324" stroke-opacity="1" stroke-miterlimit="10"/><path fill="#374046" d="M 243.363281 143.371094 C 244.304688 115.964844 266.667969 93.785156 294.085938 93.101562 C 319.273438 92.414062 340.523438 109.542969 346.179688 132.835938 C 346.179688 132.835938 346.179688 132.835938 346.179688 132.921875 L 347.464844 141.058594 L 364.683594 249.386719 C 367.683594 268.144531 355.347656 285.871094 336.753906 289.636719 C 320.21875 292.976562 303.683594 284.242188 297.171875 268.742188 L 261.957031 185.246094 C 250.132812 175.226562 242.761719 160.152344 243.363281 143.371094 Z M 243.363281 143.371094 " fill-opacity="1" fill-rule="nonzero"/><path stroke-linecap="round" transform="matrix(0.856794, 0, 0, 0.856372, 6.031548, 77.942479)" fill="none" stroke-linejoin="round" d="M 387.600205 111.502068 L 389.100165 120.998894 " stroke="#ffffff" stroke-width="8.324" stroke-opacity="0.45" stroke-miterlimit="10"/><path stroke-linecap="round" transform="matrix(0.856794, 0, 0, 0.856372, 6.031548, 77.942479)" fill="none" stroke-linejoin="round" d="M 380.601912 67.498283 L 385.101791 95.500691 " stroke="#ffffff" stroke-width="8.324" stroke-opacity="0.45" stroke-miterlimit="10"/><path stroke-linecap="round" transform="matrix(0.856794, 0, 0, 0.856372, 6.031548, 77.942479)" fill="none" stroke-linejoin="round" d="M 336.400969 25.998704 C 336.897916 25.998704 337.399423 25.998704 337.800628 25.998704 C 362.000587 25.998704 382.899723 42.301132 388.799261 65.801443 L 406.000927 173.901962 " stroke="#ffffff" stroke-width="8.324" stroke-opacity="0.2" stroke-miterlimit="10"/><path stroke-linecap="round" transform="matrix(0.856794, 0, 0, 0.856372, 6.031548, 77.942479)" fill="none" stroke-linejoin="round" d="M 403.20161 224.300824 C 398.802032 230.600112 392.100084 235.29835 383.898176 236.8994 C 381.901269 237.300803 379.799502 237.501504 377.798036 237.501504 C 365.401712 237.501504 354.199884 230.098359 349.399101 218.59908 L 312.100709 130.098878 " stroke="#000000" stroke-width="14.566" stroke-opacity="0.15" stroke-miterlimit="10"/><path stroke-linecap="round" transform="matrix(0.856794, 0, 0, 0.856372, 6.031548, 77.942479)" fill="none" stroke-linejoin="round" d="M 276.999826 76.402127 C 278.098581 44.399374 304.199705 18.499769 336.200367 17.701525 C 365.597755 16.898719 390.399522 36.900439 397.001169 64.100043 C 397.001169 64.100043 397.001169 64.100043 397.001169 64.200393 L 398.501128 73.701781 L 418.597854 200.198409 C 422.09928 222.102232 407.70149 242.801846 385.999944 247.199031 C 366.701069 251.099025 347.402194 240.899744 339.802094 222.800125 L 298.701372 125.30029 C 284.90083 113.60031 276.297717 95.997883 276.999826 76.402127 Z M 276.999826 76.402127 " stroke="#000000" stroke-width="8.324" stroke-opacity="1" stroke-miterlimit="10"/><path fill="#04a9f4" d="M 222.199219 147.394531 L 152.027344 147.394531 C 147.316406 147.394531 143.546875 143.625 143.546875 138.917969 L 143.546875 96.527344 C 143.546875 91.816406 147.316406 88.046875 152.027344 88.046875 L 222.199219 88.046875 C 226.914062 88.046875 230.683594 91.816406 230.683594 96.527344 L 230.683594 138.917969 C 230.683594 143.625 226.828125 147.394531 222.199219 147.394531 Z M 222.199219 147.394531 " fill-opacity="1" fill-rule="nonzero"/><path stroke-linecap="round" transform="matrix(0.856794, 0, 0, 0.856372, 6.031548, 77.942479)" fill="none" stroke-linejoin="round" d="M 211.29794 28.498348 L 217.899587 28.498348 " stroke="#ffffff" stroke-width="8.324" stroke-opacity="0.45" stroke-miterlimit="10"/><path stroke-linecap="round" transform="matrix(0.856794, 0, 0, 0.856372, 6.031548, 77.942479)" fill="none" stroke-linejoin="round" d="M 232.497979 28.498348 L 245.50067 28.498348 L 245.50067 32.799745 " stroke="#ffffff" stroke-width="8.324" stroke-opacity="0.45" stroke-miterlimit="10"/><path stroke-linecap="round" transform="matrix(0.856794, 0, 0, 0.856372, 6.031548, 77.942479)" fill="none" stroke-linejoin="round" d="M 206.602017 20.100819 L 252.298361 20.100819 C 253.201072 20.100819 253.898622 20.798712 253.898622 21.701869 L 253.898622 38.200437 " stroke="#ffffff" stroke-width="8.324" stroke-opacity="0.2" stroke-miterlimit="10"/><path stroke-linecap="round" transform="matrix(0.856794, 0, 0, 0.856372, 6.031548, 77.942479)" fill="none" stroke-linejoin="round" d="M 217.899587 70.700382 L 170.899327 70.700382 L 170.899327 46.401827 " stroke="#000000" stroke-width="14.566" stroke-opacity="0.15" stroke-miterlimit="10"/><path stroke-linecap="round" transform="matrix(0.856794, 0, 0, 0.856372, 6.031548, 77.942479)" fill="none" stroke-linejoin="round" d="M 252.298361 81.100365 L 170.39782 81.100365 C 164.899487 81.100365 160.499909 76.698618 160.499909 71.202136 L 160.499909 21.701869 C 160.499909 16.200825 164.899487 11.799078 170.39782 11.799078 L 252.298361 11.799078 C 257.801253 11.799078 262.200831 16.200825 262.200831 21.701869 L 262.200831 71.202136 C 262.200831 76.698618 257.700951 81.100365 252.298361 81.100365 Z M 252.298361 81.100365 " stroke="#000000" stroke-width="8.324" stroke-opacity="1" stroke-miterlimit="10"/><path stroke-linecap="round" transform="matrix(0.856794, 0, 0, 0.856372, 6.031548, 77.942479)" fill-opacity="1" fill="#9e9e9e" fill-rule="nonzero" stroke-linejoin="round" d="M 167.899407 148.900952 C 167.899407 150.127967 167.840138 151.354983 167.7216 152.577437 C 167.598503 153.799891 167.420697 155.013222 167.179062 156.217431 C 166.941986 157.421639 166.641082 158.612164 166.285469 159.784442 C 165.929855 160.961282 165.514973 162.115316 165.04538 163.251103 C 164.575788 164.386891 164.051486 165.49531 163.472474 166.576361 C 162.893462 167.661973 162.2643 168.711094 161.580428 169.732847 C 160.896555 170.754599 160.167092 171.739861 159.387477 172.688631 C 158.607863 173.637401 157.787216 174.549681 156.916419 175.416346 C 156.050181 176.283011 155.138351 177.108624 154.190048 177.888622 C 153.241745 178.668621 152.256969 179.398444 151.23572 180.078092 C 150.214471 180.762302 149.161308 181.391774 148.07623 181.971071 C 146.995712 182.550369 145.88328 183.074929 144.752611 183.544753 C 143.617383 184.014577 142.45936 184.429664 141.287658 184.785453 C 140.111398 185.141242 138.92146 185.437732 137.717845 185.679486 C 136.509671 185.92124 135.296938 186.099135 134.075086 186.217731 C 132.853234 186.340889 131.626823 186.400187 130.400412 186.400187 C 129.174001 186.400187 127.94759 186.340889 126.725739 186.217731 C 125.503887 186.099135 124.286594 185.92124 123.082979 185.679486 C 121.879364 185.437732 120.689426 185.141242 119.513166 184.785453 C 118.336906 184.429664 117.183441 184.014577 116.048213 183.544753 C 114.912985 183.074929 113.805112 182.550369 112.724594 181.971071 C 111.639517 181.391774 110.586354 180.762302 109.565105 180.078092 C 108.543855 179.398444 107.559079 178.668621 106.610776 177.888622 C 105.662474 177.108624 104.750644 176.283011 103.884406 175.416346 C 103.013608 174.549681 102.192962 173.637401 101.413347 172.688631 C 100.633733 171.739861 99.904269 170.754599 99.220397 169.732847 C 98.536525 168.711094 97.907362 167.661973 97.32835 166.576361 C 96.749339 165.49531 96.225037 164.386891 95.755444 163.251103 C 95.285852 162.115316 94.87097 160.961282 94.515356 159.784442 C 94.159742 158.612164 93.858839 157.421639 93.621763 156.217431 C 93.380128 155.013222 93.202321 153.799891 93.079224 152.577437 C 92.960686 151.354983 92.901417 150.127967 92.901417 148.900952 C 92.901417 147.673936 92.960686 146.446921 93.079224 145.224467 C 93.202321 144.002013 93.380128 142.788682 93.621763 141.584473 C 93.858839 140.380265 94.159742 139.18974 94.515356 138.0129 C 94.87097 136.840621 95.285852 135.682027 95.755444 134.550801 C 96.225037 133.415013 96.749339 132.306594 97.32835 131.220982 C 97.907362 130.139931 98.536525 129.086249 99.220397 128.064496 C 99.904269 127.042743 100.633733 126.057482 101.413347 125.108711 C 102.192962 124.159941 103.013608 123.252223 103.884406 122.385558 C 104.750644 121.514332 105.662474 120.69328 106.610776 119.913282 C 107.559079 119.133283 108.543855 118.40346 109.565105 117.71925 C 110.586354 117.039602 111.639517 116.405568 112.724594 115.826271 C 113.805112 115.246974 114.912985 114.722413 116.048213 114.252589 C 117.183441 113.782766 118.336906 113.37224 119.513166 113.016451 C 120.689426 112.656101 121.879364 112.35961 123.082979 112.122418 C 124.286594 111.880664 125.503887 111.702769 126.725739 111.579612 C 127.94759 111.461015 129.174001 111.401717 130.400412 111.401717 C 131.626823 111.401717 132.853234 111.461015 134.075086 111.579612 C 135.296938 111.702769 136.509671 111.880664 137.717845 112.122418 C 138.92146 112.35961 140.111398 112.656101 141.287658 113.016451 C 142.45936 113.37224 143.617383 113.782766 144.752611 114.252589 C 145.88328 114.722413 146.995712 115.246974 148.07623 115.826271 C 149.161308 116.405568 150.214471 117.039602 151.23572 117.71925 C 152.256969 118.40346 153.241745 119.133283 154.190048 119.913282 C 155.138351 120.69328 156.050181 121.514332 156.916419 122.385558 C 157.787216 123.252223 158.607863 124.159941 159.387477 125.108711 C 160.167092 126.057482 160.896555 127.042743 161.580428 128.064496 C 162.2643 129.086249 162.893462 130.139931 163.472474 131.220982 C 164.051486 132.306594 164.575788 133.415013 165.04538 134.550801 C 165.514973 135.682027 165.929855 136.840621 166.285469 138.0129 C 166.641082 139.18974 166.941986 140.380265 167.179062 141.584473 C 167.420697 142.788682 167.598503 144.002013 167.7216 145.224467 C 167.840138 146.446921 167.899407 147.673936 167.899407 148.900952 Z M 167.899407 148.900952 " stroke="#000000" stroke-width="8.324" stroke-opacity="1" stroke-miterlimit="10"/><path fill="#374046" d="M 136.691406 205.457031 C 136.691406 206.074219 136.664062 206.695312 136.601562 207.3125 C 136.539062 207.929688 136.449219 208.539062 136.328125 209.148438 C 136.207031 209.757812 136.058594 210.355469 135.878906 210.949219 C 135.695312 211.542969 135.488281 212.125 135.25 212.699219 C 135.015625 213.269531 134.75 213.832031 134.457031 214.378906 C 134.164062 214.925781 133.847656 215.457031 133.5 215.972656 C 133.15625 216.484375 132.789062 216.984375 132.394531 217.460938 C 132 217.941406 131.585938 218.402344 131.148438 218.839844 C 130.707031 219.277344 130.25 219.691406 129.769531 220.085938 C 129.289062 220.480469 128.792969 220.847656 128.277344 221.191406 C 127.761719 221.535156 127.230469 221.855469 126.683594 222.148438 C 126.136719 222.441406 125.578125 222.703125 125.003906 222.941406 C 124.429688 223.179688 123.847656 223.386719 123.253906 223.566406 C 122.660156 223.746094 122.058594 223.898438 121.453125 224.019531 C 120.84375 224.140625 120.230469 224.230469 119.613281 224.289062 C 118.996094 224.351562 118.378906 224.382812 117.757812 224.382812 C 117.136719 224.382812 116.519531 224.351562 115.902344 224.289062 C 115.285156 224.230469 114.671875 224.140625 114.0625 224.019531 C 113.457031 223.898438 112.855469 223.746094 112.261719 223.566406 C 111.667969 223.386719 111.085938 223.179688 110.511719 222.941406 C 109.9375 222.703125 109.378906 222.441406 108.832031 222.148438 C 108.285156 221.855469 107.753906 221.535156 107.238281 221.191406 C 106.722656 220.847656 106.222656 220.480469 105.746094 220.085938 C 105.265625 219.691406 104.808594 219.277344 104.367188 218.839844 C 103.929688 218.402344 103.515625 217.941406 103.121094 217.460938 C 102.726562 216.984375 102.359375 216.484375 102.011719 215.972656 C 101.667969 215.457031 101.351562 214.925781 101.058594 214.378906 C 100.765625 213.832031 100.5 213.269531 100.261719 212.699219 C 100.027344 212.125 99.816406 211.542969 99.636719 210.949219 C 99.457031 210.355469 99.308594 209.757812 99.1875 209.148438 C 99.066406 208.539062 98.972656 207.929688 98.914062 207.3125 C 98.851562 206.695312 98.824219 206.074219 98.824219 205.457031 C 98.824219 204.835938 98.851562 204.21875 98.914062 203.601562 C 98.972656 202.984375 99.066406 202.371094 99.1875 201.765625 C 99.308594 201.15625 99.457031 200.554688 99.636719 199.960938 C 99.816406 199.371094 100.027344 198.785156 100.261719 198.214844 C 100.5 197.640625 100.765625 197.082031 101.058594 196.535156 C 101.351562 195.988281 101.667969 195.457031 102.011719 194.941406 C 102.359375 194.425781 102.726562 193.929688 103.121094 193.449219 C 103.515625 192.96875 103.929688 192.511719 104.367188 192.074219 C 104.808594 191.636719 105.265625 191.21875 105.746094 190.828125 C 106.222656 190.433594 106.722656 190.0625 107.238281 189.71875 C 107.753906 189.375 108.285156 189.058594 108.832031 188.765625 C 109.378906 188.472656 109.9375 188.207031 110.511719 187.972656 C 111.085938 187.734375 111.667969 187.523438 112.261719 187.34375 C 112.855469 187.164062 113.457031 187.015625 114.0625 186.894531 C 114.671875 186.773438 115.285156 186.683594 115.902344 186.621094 C 116.519531 186.5625 117.136719 186.53125 117.757812 186.53125 C 118.378906 186.53125 118.996094 186.5625 119.613281 186.621094 C 120.230469 186.683594 120.84375 186.773438 121.453125 186.894531 C 122.058594 187.015625 122.660156 187.164062 123.253906 187.34375 C 123.847656 187.523438 124.429688 187.734375 125.003906 187.972656 C 125.578125 188.207031 126.136719 188.472656 126.683594 188.765625 C 127.230469 189.058594 127.761719 189.375 128.277344 189.71875 C 128.792969 190.0625 129.289062 190.433594 129.769531 190.828125 C 130.25 191.21875 130.707031 191.636719 131.148438 192.074219 C 131.585938 192.511719 132 192.96875 132.394531 193.449219 C 132.789062 193.929688 133.15625 194.425781 133.5 194.941406 C 133.847656 195.457031 134.164062 195.988281 134.457031 196.535156 C 134.75 197.082031 135.015625 197.640625 135.25 198.214844 C 135.488281 198.785156 135.695312 199.371094 135.878906 199.960938 C 136.058594 200.554688 136.207031 201.15625 136.328125 201.765625 C 136.449219 202.371094 136.539062 202.984375 136.601562 203.601562 C 136.664062 204.21875 136.691406 204.835938 136.691406 205.457031 Z M 136.691406 205.457031 " fill-opacity="1" fill-rule="nonzero"/><path stroke-linecap="round" transform="matrix(0.856794, 0, 0, 0.856372, 6.031548, 77.942479)" fill="none" stroke-linejoin="round" d="M 135.798444 136.297815 C 138.301416 137.301322 140.398625 139.098512 141.898584 141.301667 " stroke="#ffffff" stroke-width="8.324" stroke-opacity="0.2" stroke-miterlimit="10"/><path stroke-linecap="round" transform="matrix(0.856794, 0, 0, 0.856372, 6.031548, 77.942479)" fill="none" stroke-linejoin="round" d="M 126.698384 160.099179 C 124.400573 159.300934 122.399107 157.800235 120.899147 155.898133 " stroke="#000000" stroke-width="14.566" stroke-opacity="0.15" stroke-miterlimit="10"/><path stroke-linecap="round" transform="matrix(0.856794, 0, 0, 0.856372, 6.031548, 77.942479)" fill="none" stroke-linejoin="round" d="M 152.498604 148.900952 C 152.498604 149.621652 152.46669 150.346914 152.393744 151.067615 C 152.320797 151.788315 152.215937 152.499893 152.074603 153.211471 C 151.93327 153.923049 151.760022 154.620942 151.550301 155.314274 C 151.336021 156.007607 151.094386 156.687255 150.816278 157.35778 C 150.542729 158.023744 150.232707 158.680585 149.890771 159.31918 C 149.548835 159.957775 149.179544 160.578125 148.77378 161.180229 C 148.372575 161.777772 147.944015 162.361631 147.483541 162.918121 C 147.023067 163.479173 146.539797 164.017418 146.029173 164.528294 C 145.513989 165.03917 144.980569 165.522678 144.419793 165.983379 C 143.859018 166.44408 143.280006 166.872851 142.678199 167.274254 C 142.076391 167.675657 141.456347 168.049691 140.818066 168.391796 C 140.179785 168.733901 139.527827 169.039514 138.857632 169.31776 C 138.187438 169.596005 137.508124 169.837759 136.815134 170.047583 C 136.122143 170.257407 135.420035 170.435301 134.713367 170.576705 C 134.002139 170.718108 133.286353 170.82302 132.566008 170.891441 C 131.845662 170.964423 131.125317 171.000915 130.400412 171.000915 C 129.675508 171.000915 128.955162 170.964423 128.234817 170.891441 C 127.514471 170.82302 126.798685 170.718108 126.087458 170.576705 C 125.38079 170.435301 124.678681 170.257407 123.985691 170.047583 C 123.2927 169.837759 122.613387 169.596005 121.943192 169.31776 C 121.272997 169.039514 120.621039 168.733901 119.982758 168.391796 C 119.344478 168.049691 118.724433 167.675657 118.122626 167.274254 C 117.520818 166.872851 116.937247 166.44408 116.381031 165.983379 C 115.820256 165.522678 115.286836 165.03917 114.771652 164.528294 C 114.261027 164.017418 113.777758 163.479173 113.317284 162.918121 C 112.85681 162.361631 112.42825 161.777772 112.022485 161.180229 C 111.62128 160.578125 111.251989 159.957775 110.910053 159.31918 C 110.568117 158.680585 110.258095 158.023744 109.979987 157.35778 C 109.706438 156.687255 109.460244 156.007607 109.250523 155.314274 C 109.040802 154.620942 108.867555 153.923049 108.726221 153.211471 C 108.584888 152.499893 108.475468 151.788315 108.407081 151.067615 C 108.334134 150.346914 108.30222 149.621652 108.30222 148.900952 C 108.30222 148.17569 108.334134 147.454989 108.407081 146.734289 C 108.475468 146.013588 108.584888 145.297449 108.726221 144.590433 C 108.867555 143.878855 109.040802 143.1764 109.250523 142.483068 C 109.460244 141.794297 109.706438 141.110088 109.979987 140.444124 C 110.258095 139.773599 110.568117 139.121319 110.910053 138.482724 C 111.251989 137.844129 111.62128 137.223779 112.022485 136.621674 C 112.42825 136.01957 112.85681 135.440273 113.317284 134.879221 C 113.777758 134.31817 114.261027 133.784486 114.771652 133.27361 C 115.286836 132.762734 115.820256 132.274664 116.381031 131.818525 C 116.937247 131.357824 117.520818 130.924491 118.122626 130.523088 C 118.724433 130.121685 119.344478 129.752212 119.982758 129.410108 C 120.621039 129.068003 121.272997 128.757828 121.943192 128.484144 C 122.613387 128.205899 123.2927 127.959584 123.985691 127.74976 C 124.678681 127.539935 125.38079 127.366602 126.087458 127.225199 C 126.798685 127.083796 127.514471 126.978884 128.234817 126.905901 C 128.955162 126.83748 129.675508 126.800989 130.400412 126.800989 C 131.125317 126.800989 131.845662 126.83748 132.566008 126.905901 C 133.286353 126.978884 134.002139 127.083796 134.713367 127.225199 C 135.420035 127.366602 136.122143 127.539935 136.815134 127.74976 C 137.508124 127.959584 138.187438 128.205899 138.857632 128.484144 C 139.527827 128.757828 140.179785 129.068003 140.818066 129.410108 C 141.456347 129.752212 142.076391 130.121685 142.678199 130.523088 C 143.280006 130.924491 143.859018 131.357824 144.419793 131.818525 C 144.980569 132.274664 145.513989 132.762734 146.029173 133.27361 C 146.539797 133.784486 147.023067 134.31817 147.483541 134.879221 C 147.944015 135.440273 148.372575 136.01957 148.77378 136.621674 C 149.179544 137.223779 149.548835 137.844129 149.890771 138.482724 C 150.232707 139.121319 150.542729 139.773599 150.816278 140.444124 C 151.094386 141.110088 151.336021 141.794297 151.550301 142.483068 C 151.760022 143.1764 151.93327 143.878855 152.074603 144.590433 C 152.215937 145.297449 152.320797 146.013588 152.393744 146.734289 C 152.46669 147.454989 152.498604 148.17569 152.498604 148.900952 Z M 152.498604 148.900952 " stroke="#000000" stroke-width="8.324" stroke-opacity="1" stroke-miterlimit="10"/><path stroke-linecap="round" transform="matrix(0.856794, 0, 0, 0.856372, 6.031548, 77.942479)" fill-opacity="1" fill="#9e9e9e" fill-rule="nonzero" stroke-linejoin="round" d="M 329.699021 148.900952 C 329.699021 150.127967 329.639752 151.354983 329.521215 152.577437 C 329.398117 153.799891 329.220311 155.013222 328.978676 156.217431 C 328.7416 157.421639 328.440696 158.612164 328.085083 159.784442 C 327.729469 160.961282 327.314587 162.115316 326.844994 163.251103 C 326.375402 164.386891 325.8511 165.49531 325.272088 166.576361 C 324.693076 167.661973 324.063914 168.711094 323.380042 169.732847 C 322.696169 170.754599 321.966706 171.739861 321.187091 172.688631 C 320.407477 173.637401 319.58683 174.549681 318.716033 175.416346 C 317.849795 176.283011 316.937965 177.108624 315.989662 177.888622 C 315.041359 178.668621 314.056583 179.398444 313.035334 180.078092 C 312.014085 180.762302 310.960922 181.391774 309.875844 181.971071 C 308.795326 182.550369 307.687453 183.074929 306.552225 183.544753 C 305.416997 184.014577 304.258974 184.429664 303.087273 184.785453 C 301.911012 185.141242 300.721075 185.437732 299.51746 185.679486 C 298.309285 185.92124 297.096552 186.099135 295.8747 186.217731 C 294.652848 186.340889 293.426437 186.400187 292.200026 186.400187 C 290.973616 186.400187 289.747205 186.340889 288.525353 186.217731 C 287.303501 186.099135 286.090768 185.92124 284.882593 185.679486 C 283.678978 185.437732 282.489041 185.141242 281.31278 184.785453 C 280.141079 184.429664 278.983056 184.014577 277.847828 183.544753 C 276.7126 183.074929 275.604727 182.550369 274.524208 181.971071 C 273.439131 181.391774 272.385968 180.762302 271.364719 180.078092 C 270.343469 179.398444 269.358693 178.668621 268.410391 177.888622 C 267.462088 177.108624 266.550258 176.283011 265.68402 175.416346 C 264.813223 174.549681 263.992576 173.637401 263.212962 172.688631 C 262.433347 171.739861 261.703883 170.754599 261.020011 169.732847 C 260.336139 168.711094 259.706977 167.661973 259.127965 166.576361 C 258.548953 165.49531 258.024651 164.386891 257.555059 163.251103 C 257.085466 162.115316 256.670584 160.961282 256.31497 159.784442 C 255.959357 158.612164 255.658453 157.421639 255.421377 156.217431 C 255.179742 155.013222 255.001935 153.799891 254.878838 152.577437 C 254.760301 151.354983 254.701032 150.127967 254.701032 148.900952 C 254.701032 147.673936 254.760301 146.446921 254.878838 145.224467 C 255.001935 144.002013 255.179742 142.788682 255.421377 141.584473 C 255.658453 140.380265 255.959357 139.18974 256.31497 138.0129 C 256.670584 136.840621 257.085466 135.682027 257.555059 134.550801 C 258.024651 133.415013 258.548953 132.306594 259.127965 131.220982 C 259.706977 130.139931 260.336139 129.086249 261.020011 128.064496 C 261.703883 127.042743 262.433347 126.057482 263.212962 125.108711 C 263.992576 124.159941 264.813223 123.252223 265.68402 122.385558 C 266.550258 121.514332 267.462088 120.69328 268.410391 119.913282 C 269.358693 119.133283 270.343469 118.40346 271.364719 117.71925 C 272.385968 117.039602 273.439131 116.405568 274.524208 115.826271 C 275.604727 115.246974 276.7126 114.722413 277.847828 114.252589 C 278.983056 113.782766 280.141079 113.37224 281.31278 113.016451 C 282.489041 112.656101 283.678978 112.35961 284.882593 112.122418 C 286.090768 111.880664 287.303501 111.702769 288.525353 111.579612 C 289.747205 111.461015 290.973616 111.401717 292.200026 111.401717 C 293.426437 111.401717 294.652848 111.461015 295.8747 111.579612 C 297.096552 111.702769 298.309285 111.880664 299.51746 112.122418 C 300.721075 112.35961 301.911012 112.656101 303.087273 113.016451 C 304.258974 113.37224 305.416997 113.782766 306.552225 114.252589 C 307.687453 114.722413 308.795326 115.246974 309.875844 115.826271 C 310.960922 116.405568 312.014085 117.039602 313.035334 117.71925 C 314.056583 118.40346 315.041359 119.133283 315.989662 119.913282 C 316.937965 120.69328 317.849795 121.514332 318.716033 122.385558 C 319.58683 123.252223 320.407477 124.159941 321.187091 125.108711 C 321.966706 126.057482 322.696169 127.042743 323.380042 128.064496 C 324.063914 129.086249 324.693076 130.139931 325.272088 131.220982 C 325.8511 132.306594 326.375402 133.415013 326.844994 134.550801 C 327.314587 135.682027 327.729469 136.840621 328.085083 138.0129 C 328.440696 139.18974 328.7416 140.380265 328.978676 141.584473 C 329.220311 142.788682 329.398117 144.002013 329.521215 145.224467 C 329.639752 146.446921 329.699021 147.673936 329.699021 148.900952 Z M 329.699021 148.900952 " stroke="#000000" stroke-width="8.324" stroke-opacity="1" stroke-miterlimit="10"/><path fill="#374046" d="M 275.320312 205.457031 C 275.320312 206.074219 275.292969 206.695312 275.230469 207.3125 C 275.167969 207.929688 275.078125 208.539062 274.957031 209.148438 C 274.835938 209.757812 274.6875 210.355469 274.507812 210.949219 C 274.328125 211.542969 274.117188 212.125 273.878906 212.699219 C 273.644531 213.269531 273.378906 213.832031 273.085938 214.378906 C 272.792969 214.925781 272.476562 215.457031 272.128906 215.972656 C 271.785156 216.484375 271.417969 216.984375 271.023438 217.460938 C 270.628906 217.941406 270.214844 218.402344 269.777344 218.839844 C 269.335938 219.277344 268.878906 219.691406 268.398438 220.085938 C 267.917969 220.480469 267.421875 220.847656 266.90625 221.191406 C 266.390625 221.535156 265.859375 221.855469 265.3125 222.148438 C 264.765625 222.441406 264.207031 222.703125 263.632812 222.941406 C 263.058594 223.179688 262.476562 223.386719 261.882812 223.566406 C 261.289062 223.746094 260.6875 223.898438 260.082031 224.019531 C 259.472656 224.140625 258.859375 224.230469 258.242188 224.289062 C 257.625 224.351562 257.007812 224.382812 256.386719 224.382812 C 255.765625 224.382812 255.148438 224.351562 254.53125 224.289062 C 253.914062 224.230469 253.300781 224.140625 252.691406 224.019531 C 252.085938 223.898438 251.484375 223.746094 250.890625 223.566406 C 250.296875 223.386719 249.714844 223.179688 249.140625 222.941406 C 248.566406 222.703125 248.007812 222.441406 247.460938 222.148438 C 246.914062 221.855469 246.382812 221.535156 245.867188 221.191406 C 245.351562 220.847656 244.855469 220.480469 244.375 220.085938 C 243.894531 219.691406 243.4375 219.277344 242.996094 218.839844 C 242.558594 218.402344 242.144531 217.941406 241.75 217.460938 C 241.355469 216.984375 240.988281 216.484375 240.644531 215.972656 C 240.296875 215.457031 239.980469 214.925781 239.6875 214.378906 C 239.394531 213.832031 239.128906 213.269531 238.894531 212.699219 C 238.65625 212.125 238.445312 211.542969 238.265625 210.949219 C 238.085938 210.355469 237.9375 209.757812 237.816406 209.148438 C 237.695312 208.539062 237.605469 207.929688 237.542969 207.3125 C 237.480469 206.695312 237.453125 206.074219 237.453125 205.457031 C 237.453125 204.835938 237.480469 204.21875 237.542969 203.601562 C 237.605469 202.984375 237.695312 202.371094 237.816406 201.765625 C 237.9375 201.15625 238.085938 200.554688 238.265625 199.960938 C 238.445312 199.371094 238.65625 198.785156 238.894531 198.214844 C 239.128906 197.640625 239.394531 197.082031 239.6875 196.535156 C 239.980469 195.988281 240.296875 195.457031 240.644531 194.941406 C 240.988281 194.425781 241.355469 193.929688 241.75 193.449219 C 242.144531 192.96875 242.558594 192.511719 242.996094 192.074219 C 243.4375 191.636719 243.894531 191.21875 244.375 190.828125 C 244.855469 190.433594 245.351562 190.0625 245.867188 189.71875 C 246.382812 189.375 246.914062 189.058594 247.460938 188.765625 C 248.007812 188.472656 248.566406 188.207031 249.140625 187.972656 C 249.714844 187.734375 250.296875 187.523438 250.890625 187.34375 C 251.484375 187.164062 252.085938 187.015625 252.691406 186.894531 C 253.300781 186.773438 253.914062 186.683594 254.53125 186.621094 C 255.148438 186.5625 255.765625 186.53125 256.386719 186.53125 C 257.007812 186.53125 257.625 186.5625 258.242188 186.621094 C 258.859375 186.683594 259.472656 186.773438 260.082031 186.894531 C 260.6875 187.015625 261.289062 187.164062 261.882812 187.34375 C 262.476562 187.523438 263.058594 187.734375 263.632812 187.972656 C 264.207031 188.207031 264.765625 188.472656 265.3125 188.765625 C 265.859375 189.058594 266.390625 189.375 266.90625 189.71875 C 267.421875 190.0625 267.917969 190.433594 268.398438 190.828125 C 268.878906 191.21875 269.335938 191.636719 269.777344 192.074219 C 270.214844 192.511719 270.628906 192.96875 271.023438 193.449219 C 271.417969 193.929688 271.785156 194.425781 272.128906 194.941406 C 272.476562 195.457031 272.792969 195.988281 273.085938 196.535156 C 273.378906 197.082031 273.644531 197.640625 273.878906 198.214844 C 274.117188 198.785156 274.328125 199.371094 274.507812 199.960938 C 274.6875 200.554688 274.835938 201.15625 274.957031 201.765625 C 275.078125 202.371094 275.167969 202.984375 275.230469 203.601562 C 275.292969 204.21875 275.320312 204.835938 275.320312 205.457031 Z M 275.320312 205.457031 " fill-opacity="1" fill-rule="nonzero"/><path stroke-linecap="round" transform="matrix(0.856794, 0, 0, 0.856372, 6.031548, 77.942479)" fill="none" stroke-linejoin="round" d="M 299.198319 137.100621 C 300.999183 138.099567 302.499142 139.600266 303.698198 141.301667 " stroke="#ffffff" stroke-width="8.324" stroke-opacity="0.2" stroke-miterlimit="10"/><path stroke-linecap="round" transform="matrix(0.856794, 0, 0, 0.856372, 6.031548, 77.942479)" fill="none" stroke-linejoin="round" d="M 287.09834 159.401285 C 285.001131 158.397778 283.300569 156.700939 282.101513 154.698486 " stroke="#000000" stroke-width="14.566" stroke-opacity="0.15" stroke-miterlimit="10"/><path stroke-linecap="round" transform="matrix(0.856794, 0, 0, 0.856372, 6.031548, 77.942479)" fill="none" stroke-linejoin="round" d="M 314.298218 148.900952 C 314.298218 149.621652 314.266304 150.346914 314.193358 151.067615 C 314.120412 151.788315 314.015551 152.499893 313.874218 153.211471 C 313.732884 153.923049 313.559636 154.620942 313.349915 155.314274 C 313.140195 156.007607 312.894001 156.687255 312.615893 157.35778 C 312.342344 158.023744 312.032322 158.680585 311.690385 159.31918 C 311.348449 159.957775 310.979158 160.578125 310.573394 161.180229 C 310.172189 161.777772 309.743629 162.361631 309.283155 162.918121 C 308.822681 163.479173 308.339411 164.017418 307.828787 164.528294 C 307.313603 165.03917 306.780183 165.522678 306.219408 165.983379 C 305.658632 166.44408 305.07962 166.872851 304.477813 167.274254 C 303.876005 167.675657 303.255961 168.049691 302.61768 168.391796 C 301.9794 168.733901 301.327441 169.039514 300.657247 169.31776 C 299.987052 169.596005 299.307739 169.837759 298.614748 170.047583 C 297.921758 170.257407 297.219649 170.435301 296.512981 170.576705 C 295.801754 170.718108 295.085967 170.82302 294.365622 170.891441 C 293.645276 170.964423 292.924931 171.000915 292.200026 171.000915 C 291.475122 171.000915 290.754776 170.964423 290.034431 170.891441 C 289.314086 170.82302 288.598299 170.718108 287.887072 170.576705 C 287.180404 170.435301 286.478295 170.257407 285.785305 170.047583 C 285.092314 169.837759 284.413001 169.596005 283.742806 169.31776 C 283.072612 169.039514 282.420653 168.733901 281.782373 168.391796 C 281.144092 168.049691 280.524048 167.675657 279.92224 167.274254 C 279.320433 166.872851 278.741421 166.44408 278.180645 165.983379 C 277.61987 165.522678 277.08645 165.03917 276.571266 164.528294 C 276.060641 164.017418 275.577372 163.479173 275.116898 162.918121 C 274.656424 162.361631 274.227864 161.777772 273.826659 161.180229 C 273.420895 160.578125 273.051604 159.957775 272.709667 159.31918 C 272.367731 158.680585 272.057709 158.023744 271.78416 157.35778 C 271.506052 156.687255 271.259858 156.007607 271.050137 155.314274 C 270.840417 154.620942 270.667169 153.923049 270.525835 153.211471 C 270.384502 152.499893 270.279641 151.788315 270.206695 151.067615 C 270.133749 150.346914 270.101835 149.621652 270.101835 148.900952 C 270.101835 148.17569 270.133749 147.454989 270.206695 146.734289 C 270.279641 146.013588 270.384502 145.297449 270.525835 144.590433 C 270.667169 143.878855 270.840417 143.1764 271.050137 142.483068 C 271.259858 141.794297 271.506052 141.110088 271.78416 140.444124 C 272.057709 139.773599 272.367731 139.121319 272.709667 138.482724 C 273.051604 137.844129 273.420895 137.223779 273.826659 136.621674 C 274.227864 136.01957 274.656424 135.440273 275.116898 134.879221 C 275.577372 134.31817 276.060641 133.784486 276.571266 133.27361 C 277.08645 132.762734 277.61987 132.274664 278.180645 131.818525 C 278.741421 131.357824 279.320433 130.924491 279.92224 130.523088 C 280.524048 130.121685 281.144092 129.752212 281.782373 129.410108 C 282.420653 129.068003 283.072612 128.757828 283.742806 128.484144 C 284.413001 128.205899 285.092314 127.959584 285.785305 127.74976 C 286.478295 127.539935 287.180404 127.366602 287.887072 127.225199 C 288.598299 127.083796 289.314086 126.978884 290.034431 126.905901 C 290.754776 126.83748 291.475122 126.800989 292.200026 126.800989 C 292.924931 126.800989 293.645276 126.83748 294.365622 126.905901 C 295.085967 126.978884 295.801754 127.083796 296.512981 127.225199 C 297.219649 127.366602 297.921758 127.539935 298.614748 127.74976 C 299.307739 127.959584 299.987052 128.205899 300.657247 128.484144 C 301.327441 128.757828 301.9794 129.068003 302.61768 129.410108 C 303.255961 129.752212 303.876005 130.121685 304.477813 130.523088 C 305.07962 130.924491 305.658632 131.357824 306.219408 131.818525 C 306.780183 132.274664 307.313603 132.762734 307.828787 133.27361 C 308.339411 133.784486 308.822681 134.31817 309.283155 134.879221 C 309.743629 135.440273 310.172189 136.01957 310.573394 136.621674 C 310.979158 137.223779 311.348449 137.844129 311.690385 138.482724 C 312.032322 139.121319 312.342344 139.773599 312.615893 140.444124 C 312.894001 141.110088 313.140195 141.794297 313.349915 142.483068 C 313.559636 143.1764 313.732884 143.878855 313.874218 144.590433 C 314.015551 145.297449 314.120412 146.013588 314.193358 146.734289 C 314.266304 147.454989 314.298218 148.17569 314.298218 148.900952 Z M 314.298218 148.900952 " stroke="#000000" stroke-width="8.324" stroke-opacity="1" stroke-miterlimit="10"/><path stroke-linecap="round" transform="matrix(0.856794, 0, 0, 0.856372, 6.031548, 77.942479)" fill-opacity="1" fill="#9e9e9e" fill-rule="nonzero" stroke-linejoin="round" d="M 116.800473 63.798991 L 94.998626 63.798991 L 94.998626 42.00008 L 76.502161 42.00008 L 76.502161 63.798991 L 54.700314 63.798991 L 54.700314 82.199661 L 76.502161 82.199661 L 76.502161 103.998572 L 94.998626 103.998572 L 94.998626 82.199661 L 116.800473 82.199661 Z M 116.800473 63.798991 " stroke="#000000" stroke-width="8.324" stroke-opacity="1" stroke-miterlimit="10"/><path stroke-linecap="round" transform="matrix(0.856794, 0, 0, 0.856372, 6.031548, 77.942479)" fill-opacity="1" fill="#04a9f4" fill-rule="nonzero" stroke-linejoin="round" d="M 320.197756 76.798969 C 320.197756 77.55616 320.12481 78.304229 319.978917 79.043175 C 319.833024 79.782121 319.614185 80.502822 319.3224 81.200715 C 319.035173 81.898609 318.67956 82.560011 318.260118 83.189484 C 317.840677 83.818957 317.366525 84.398254 316.833105 84.931937 C 316.299684 85.465621 315.716113 85.944567 315.086951 86.359654 C 314.462348 86.779303 313.796712 87.135091 313.099162 87.422459 C 312.401613 87.714389 311.685826 87.933336 310.942685 88.0793 C 310.204103 88.225265 309.456403 88.298247 308.699584 88.298247 C 307.942766 88.298247 307.195065 88.225265 306.456483 88.0793 C 305.717901 87.933336 304.997556 87.714389 304.300006 87.422459 C 303.602456 87.135091 302.936821 86.779303 302.312217 86.359654 C 301.683055 85.944567 301.104043 85.465621 300.566064 84.931937 C 300.032643 84.398254 299.558492 83.818957 299.13905 83.189484 C 298.719609 82.560011 298.363995 81.898609 298.076769 81.200715 C 297.784983 80.502822 297.566144 79.782121 297.420251 79.043175 C 297.274359 78.304229 297.201412 77.55616 297.201412 76.798969 C 297.201412 76.046338 297.274359 75.298269 297.420251 74.554762 C 297.566144 73.815816 297.784983 73.095115 298.076769 72.397222 C 298.363995 71.699328 298.719609 71.037926 299.13905 70.413014 C 299.558492 69.783542 300.032643 69.204245 300.566064 68.666 C 301.104043 68.132317 301.683055 67.657931 302.312217 67.238283 C 302.936821 66.818635 303.602456 66.462846 304.300006 66.175478 C 304.997556 65.88811 305.717901 65.669163 306.456483 65.523198 C 307.195065 65.372672 307.942766 65.29969 308.699584 65.29969 C 309.456403 65.29969 310.204103 65.372672 310.942685 65.523198 C 311.685826 65.669163 312.401613 65.88811 313.099162 66.175478 C 313.796712 66.462846 314.462348 66.818635 315.086951 67.238283 C 315.716113 67.657931 316.299684 68.132317 316.833105 68.666 C 317.366525 69.204245 317.840677 69.783542 318.260118 70.413014 C 318.67956 71.037926 319.035173 71.699328 319.3224 72.397222 C 319.614185 73.095115 319.833024 73.815816 319.978917 74.554762 C 320.12481 75.298269 320.197756 76.046338 320.197756 76.798969 Z M 320.197756 76.798969 " stroke="#000000" stroke-width="8.324" stroke-opacity="1" stroke-miterlimit="10"/><path stroke-linecap="round" transform="matrix(0.856794, 0, 0, 0.856372, 6.031548, 77.942479)" fill-opacity="1" fill="#8bc34a" fill-rule="nonzero" stroke-linejoin="round" d="M 345.099824 49.699716 C 345.099824 50.456908 345.026878 51.204977 344.880985 51.943923 C 344.730533 52.682869 344.511694 53.403569 344.224468 54.101463 C 343.937241 54.799357 343.581628 55.460759 343.162186 56.090232 C 342.742745 56.715143 342.264034 57.299001 341.730614 57.832685 C 341.197193 58.366368 340.618181 58.840753 339.989019 59.260402 C 339.359857 59.68005 338.69878 60.035839 338.00123 60.323207 C 337.303681 60.615136 336.583335 60.829522 335.844753 60.980048 C 335.101612 61.126013 334.353912 61.198995 333.601652 61.198995 C 332.844834 61.198995 332.097133 61.126013 331.358551 60.980048 C 330.61541 60.829522 329.895065 60.615136 329.197515 60.323207 C 328.499965 60.035839 327.838889 59.68005 327.209726 59.260402 C 326.585123 58.840753 326.001552 58.366368 325.468132 57.832685 C 324.934711 57.299001 324.456001 56.715143 324.036559 56.090232 C 323.617117 55.460759 323.266063 54.799357 322.974278 54.101463 C 322.687051 53.403569 322.468212 52.682869 322.322319 51.943923 C 322.171867 51.204977 322.098921 50.456908 322.098921 49.699716 C 322.098921 48.947086 322.171867 48.199017 322.322319 47.455509 C 322.468212 46.716563 322.687051 45.995863 322.974278 45.297969 C 323.266063 44.600076 323.617117 43.938673 324.036559 43.309201 C 324.456001 42.684289 324.934711 42.100431 325.468132 41.566747 C 326.001552 41.033064 326.585123 40.558679 327.209726 40.139031 C 327.838889 39.719382 328.499965 39.363593 329.197515 39.076225 C 329.895065 38.784296 330.61541 38.56991 331.358551 38.419384 C 332.097133 38.27342 332.844834 38.200437 333.601652 38.200437 C 334.353912 38.200437 335.101612 38.27342 335.844753 38.419384 C 336.583335 38.56991 337.303681 38.784296 338.00123 39.076225 C 338.69878 39.363593 339.359857 39.719382 339.989019 40.139031 C 340.618181 40.558679 341.197193 41.033064 341.730614 41.566747 C 342.264034 42.100431 342.742745 42.684289 343.162186 43.309201 C 343.581628 43.938673 343.937241 44.600076 344.224468 45.297969 C 344.511694 45.995863 344.730533 46.716563 344.880985 47.455509 C 345.026878 48.199017 345.099824 48.947086 345.099824 49.699716 Z M 345.099824 49.699716 " stroke="#000000" stroke-width="8.324" stroke-opacity="1" stroke-miterlimit="10"/><path stroke-linecap="round" transform="matrix(0.856794, 0, 0, 0.856372, 6.031548, 77.942479)" fill-opacity="1" fill="#8bc34a" fill-rule="nonzero" stroke-linejoin="round" d="M 351.400567 95.500691 C 351.400567 96.253322 351.327621 97.001391 351.177169 97.744898 C 351.031276 98.483844 350.812437 99.204545 350.525211 99.902438 C 350.233425 100.600332 349.882371 101.261734 349.462929 101.891207 C 349.043488 102.516118 348.564777 103.099977 348.031357 103.63366 C 347.497936 104.167343 346.918924 104.641728 346.289762 105.061377 C 345.6606 105.481025 344.999523 105.836814 344.301973 106.124182 C 343.604424 106.41155 342.884078 106.630497 342.145496 106.781023 C 341.402355 106.926988 340.654655 106.99997 339.897836 106.99997 C 339.145577 106.99997 338.397876 106.926988 337.654735 106.781023 C 336.916153 106.630497 336.195808 106.41155 335.498258 106.124182 C 334.800708 105.836814 334.139632 105.481025 333.510469 105.061377 C 332.881307 104.641728 332.302295 104.167343 331.768875 103.63366 C 331.235454 103.099977 330.756744 102.516118 330.337302 101.891207 C 329.91786 101.261734 329.562247 100.600332 329.27502 99.902438 C 328.987794 99.204545 328.768955 98.483844 328.623062 97.744898 C 328.47261 97.001391 328.399664 96.253322 328.399664 95.500691 C 328.399664 94.7435 328.47261 93.995431 328.623062 93.256485 C 328.768955 92.517538 328.987794 91.796838 329.27502 91.098944 C 329.562247 90.401051 329.91786 89.739648 330.337302 89.110176 C 330.756744 88.485265 331.235454 87.901406 331.768875 87.367723 C 332.302295 86.834039 332.881307 86.359654 333.510469 85.940006 C 334.139632 85.520357 334.800708 85.164568 335.498258 84.8772 C 336.195808 84.585271 336.916153 84.366324 337.654735 84.22036 C 338.397876 84.074395 339.145577 84.001413 339.897836 84.001413 C 340.654655 84.001413 341.402355 84.074395 342.145496 84.22036 C 342.884078 84.366324 343.604424 84.585271 344.301973 84.8772 C 344.999523 85.164568 345.6606 85.520357 346.289762 85.940006 C 346.918924 86.359654 347.497936 86.834039 348.031357 87.367723 C 348.564777 87.901406 349.043488 88.485265 349.462929 89.110176 C 349.882371 89.739648 350.233425 90.401051 350.525211 91.098944 C 350.812437 91.796838 351.031276 92.517538 351.177169 93.256485 C 351.327621 93.995431 351.400567 94.7435 351.400567 95.500691 Z M 351.400567 95.500691 " stroke="#000000" stroke-width="8.324" stroke-opacity="1" stroke-miterlimit="10"/><path stroke-linecap="round" transform="matrix(0.856794, 0, 0, 0.856372, 6.031548, 77.942479)" fill-opacity="1" fill="#f44336" fill-rule="nonzero" stroke-linejoin="round" d="M 376.298076 68.50179 C 376.298076 69.25442 376.22513 70.002489 376.079237 70.741435 C 375.933344 71.484942 375.714505 72.201082 375.42272 72.898975 C 375.135493 73.596869 374.77988 74.262832 374.360438 74.887744 C 373.940996 75.517216 373.466845 76.096514 372.933425 76.630197 C 372.400004 77.16388 371.816433 77.642827 371.187271 78.062475 C 370.562668 78.482124 369.897032 78.837912 369.199482 79.12528 C 368.501933 79.412648 367.786146 79.631595 367.043005 79.77756 C 366.304423 79.928086 365.556723 80.001068 364.799904 80.001068 C 364.043085 80.001068 363.295385 79.928086 362.556803 79.77756 C 361.813662 79.631595 361.097876 79.412648 360.400326 79.12528 C 359.702776 78.837912 359.037141 78.482124 358.412537 78.062475 C 357.783375 77.642827 357.204363 77.16388 356.666384 76.630197 C 356.132963 76.096514 355.658812 75.517216 355.23937 74.887744 C 354.819928 74.262832 354.464315 73.596869 354.177089 72.898975 C 353.885303 72.201082 353.666464 71.484942 353.520571 70.741435 C 353.374678 70.002489 353.301732 69.25442 353.301732 68.50179 C 353.301732 67.744598 353.374678 66.996529 353.520571 66.257583 C 353.666464 65.514075 353.885303 64.797936 354.177089 64.100043 C 354.464315 63.402149 354.819928 62.740747 355.23937 62.111274 C 355.658812 61.481801 356.132963 60.902504 356.666384 60.368821 C 357.204363 59.835138 357.783375 59.356191 358.412537 58.936543 C 359.037141 58.516894 359.702776 58.165667 360.400326 57.873737 C 361.097876 57.586369 361.813662 57.367422 362.556803 57.221458 C 363.295385 57.075493 364.043085 56.997949 364.799904 56.997949 C 365.556723 56.997949 366.304423 57.075493 367.043005 57.221458 C 367.786146 57.367422 368.501933 57.586369 369.199482 57.873737 C 369.897032 58.165667 370.562668 58.516894 371.187271 58.936543 C 371.816433 59.356191 372.400004 59.835138 372.933425 60.368821 C 373.466845 60.902504 373.940996 61.481801 374.360438 62.111274 C 374.77988 62.740747 375.135493 63.402149 375.42272 64.100043 C 375.714505 64.797936 375.933344 65.514075 376.079237 66.257583 C 376.22513 66.996529 376.298076 67.744598 376.298076 68.50179 Z M 376.298076 68.50179 " stroke="#000000" stroke-width="8.324" stroke-opacity="1" stroke-miterlimit="10"/><path stroke-linecap="round" transform="matrix(0.856794, 0, 0, 0.856372, 6.031548, 77.942479)" fill="none" stroke-linejoin="round" d="M 221.89796 116.501358 L 243.002257 116.501358 " stroke="#000000" stroke-width="8.324" stroke-opacity="1" stroke-miterlimit="10"/><path stroke-linecap="round" transform="matrix(0.856794, 0, 0, 0.856372, 6.031548, 77.942479)" fill="none" stroke-linejoin="round" d="M 180.30029 116.501358 L 201.299728 116.501358 " stroke="#000000" stroke-width="8.324" stroke-opacity="1" stroke-miterlimit="10"/><g fill="#ffffff" fill-opacity="1"><g transform="translate(211.291615, 371.349967)"><g><path d="M 1.1875 -0.828125 C 1.1875 -1.179688 1.265625 -1.445312 1.421875 -1.625 C 1.585938 -1.800781 1.816406 -1.890625 2.109375 -1.890625 C 2.410156 -1.890625 2.644531 -1.800781 2.8125 -1.625 C 2.988281 -1.445312 3.078125 -1.179688 3.078125 -0.828125 C 3.078125 -0.492188 2.988281 -0.234375 2.8125 -0.046875 C 2.644531 0.140625 2.410156 0.234375 2.109375 0.234375 C 1.847656 0.234375 1.628906 0.148438 1.453125 -0.015625 C 1.273438 -0.179688 1.1875 -0.453125 1.1875 -0.828125 Z M 1.1875 -0.828125 "/></g></g></g></svg>