<svg xmlns="http://www.w3.org/2000/svg" xmlns:xlink="http://www.w3.org/1999/xlink" width="500" zoomAndPan="magnify" viewBox="0 0 375 374.999991" height="500" preserveAspectRatio="xMidYMid meet" version="1.0"><defs><g/><clipPath id="e0008dfac0"><path d="M 7.378906 173.636719 L 193.449219 173.636719 L 193.449219 345.488281 L 7.378906 345.488281 Z M 7.378906 173.636719 " clip-rule="nonzero"/></clipPath><clipPath id="4737a8b1d3"><path d="M 204.847656 184.820312 L 367.792969 184.820312 L 367.792969 344.886719 L 204.847656 344.886719 Z M 204.847656 184.820312 " clip-rule="nonzero"/></clipPath><clipPath id="d2737a58aa"><path d="M 180 22.253906 L 333 22.253906 L 333 141 L 180 141 Z M 180 22.253906 " clip-rule="nonzero"/></clipPath></defs><path fill="#57c9f4" d="M 114.089844 303.109375 C 107.652344 306.269531 100.535156 307.949219 93.152344 307.980469 C 80.308594 308.035156 68.214844 303.085938 59.09375 294.035156 C 49.972656 284.988281 44.917969 272.929688 44.863281 260.078125 C 44.8125 247.679688 49.460938 235.890625 57.957031 226.875 C 60.265625 224.421875 64.125 224.308594 66.574219 226.621094 C 69.027344 228.933594 69.140625 232.792969 66.832031 235.242188 C 60.488281 241.972656 57.019531 250.773438 57.058594 260.027344 C 57.097656 269.617188 60.871094 278.617188 67.679688 285.371094 C 74.488281 292.125 83.515625 295.820312 93.101562 295.78125 C 102.6875 295.738281 111.6875 291.96875 118.4375 285.152344 C 125.183594 278.34375 128.878906 269.308594 128.839844 259.71875 C 128.753906 239.917969 112.585938 223.878906 92.796875 223.964844 C 86.925781 223.988281 81.121094 225.464844 75.984375 228.21875 C 73.039062 229.832031 69.320312 228.699219 67.726562 225.734375 C 66.132812 222.765625 67.242188 219.066406 70.210938 217.472656 C 77.089844 213.765625 84.882812 211.796875 92.742188 211.761719 C 119.257812 211.648438 140.921875 233.140625 141.035156 259.667969 C 141.089844 272.515625 136.136719 284.621094 127.09375 293.746094 C 123.25 297.625 118.855469 300.773438 114.089844 303.109375 " fill-opacity="1" fill-rule="nonzero"/><path fill="#77d3f1" d="M 113.019531 300.914062 C 106.90625 303.914062 100.148438 305.507812 93.144531 305.539062 C 80.949219 305.59375 69.46875 300.890625 60.808594 292.300781 C 52.152344 283.714844 47.355469 272.265625 47.304688 260.066406 C 47.253906 248.300781 51.667969 237.105469 59.730469 228.546875 C 61.117188 227.074219 63.433594 227.007812 64.902344 228.394531 C 66.375 229.78125 66.441406 232.097656 65.054688 233.570312 C 58.285156 240.753906 54.578125 250.15625 54.617188 260.035156 C 54.664062 270.277344 58.691406 279.890625 65.960938 287.101562 C 73.230469 294.316406 82.875 298.265625 93.113281 298.222656 C 103.351562 298.175781 112.960938 294.148438 120.167969 286.871094 C 127.375 279.597656 131.320312 269.953125 131.277344 259.707031 C 131.1875 238.5625 113.917969 221.433594 92.785156 221.523438 C 86.515625 221.550781 80.296875 223.117188 74.828125 226.070312 C 73.039062 227.003906 70.832031 226.359375 69.875 224.578125 C 68.917969 222.796875 69.585938 220.578125 71.363281 219.621094 C 77.902344 216.109375 85.292969 214.234375 92.753906 214.203125 C 117.921875 214.09375 138.488281 234.496094 138.59375 259.675781 C 138.648438 271.875 133.949219 283.367188 125.363281 292.027344 C 121.710938 295.710938 117.542969 298.695312 113.019531 300.914062 " fill-opacity="1" fill-rule="nonzero"/><path fill="#c6ecf6" d="M 112.214844 299.269531 C 106.347656 302.148438 99.859375 303.679688 93.136719 303.707031 C 81.433594 303.757812 70.410156 299.246094 62.097656 291.003906 C 53.785156 282.757812 49.183594 271.769531 49.132812 260.058594 C 49.085938 248.765625 53.320312 238.015625 61.0625 229.804688 C 61.753906 229.070312 62.910156 229.035156 63.648438 229.726562 C 64.382812 230.421875 64.417969 231.578125 63.722656 232.316406 C 56.628906 239.84375 52.746094 249.691406 52.789062 260.042969 C 52.835938 270.773438 57.054688 280.847656 64.671875 288.402344 C 72.292969 295.960938 82.394531 300.09375 93.121094 300.050781 C 103.847656 300.003906 113.914062 295.78125 121.464844 288.160156 C 129.019531 280.539062 133.152344 270.433594 133.109375 259.699219 C 133.011719 237.546875 114.921875 219.597656 92.777344 219.691406 C 86.210938 219.722656 79.699219 221.375 73.960938 224.457031 C 73.085938 224.945312 71.964844 224.601562 71.484375 223.710938 C 71.007812 222.820312 71.339844 221.710938 72.230469 221.234375 C 78.5 217.851562 85.597656 216.066406 92.761719 216.035156 C 116.921875 215.929688 136.664062 235.511719 136.765625 259.683594 C 136.816406 271.394531 132.304688 282.421875 124.066406 290.738281 C 120.558594 294.277344 116.554688 297.140625 112.214844 299.269531 " fill-opacity="1" fill-rule="nonzero"/><path fill="#e1e1df" d="M 101.335938 258.777344 C 100.613281 259.128906 99.800781 259.332031 98.945312 259.332031 C 95.914062 259.347656 93.449219 256.898438 93.433594 253.867188 L 93.382812 241.488281 L 92.359375 241.492188 L 92.410156 253.875 C 92.425781 256.902344 89.976562 259.371094 86.945312 259.386719 C 83.917969 259.398438 81.449219 256.949219 81.4375 253.917969 L 81.359375 236.050781 C 81.347656 233.019531 83.792969 230.550781 86.824219 230.535156 L 98.824219 230.484375 C 100.277344 230.476562 101.675781 231.050781 102.710938 232.074219 C 103.742188 233.101562 104.328125 234.496094 104.332031 235.953125 L 104.410156 253.820312 C 104.417969 255.996094 103.164062 257.878906 101.335938 258.777344 " fill-opacity="1" fill-rule="nonzero"/><path fill="#e1e1df" d="M 101.464844 288.648438 C 100.726562 289.011719 99.910156 289.203125 99.074219 289.207031 L 87.074219 289.257812 C 84.042969 289.273438 81.578125 286.824219 81.5625 283.792969 L 81.488281 265.921875 C 81.472656 262.890625 83.921875 260.421875 86.953125 260.410156 C 89.980469 260.398438 92.449219 262.84375 92.464844 265.875 L 92.515625 278.257812 L 93.539062 278.253906 L 93.484375 265.871094 C 93.472656 262.839844 95.917969 260.371094 98.949219 260.359375 C 101.980469 260.34375 104.449219 262.792969 104.460938 265.824219 L 104.539062 283.695312 C 104.542969 285.152344 103.972656 286.550781 102.945312 287.582031 C 102.511719 288.023438 102.011719 288.382812 101.464844 288.648438 " fill-opacity="1" fill-rule="nonzero"/><path fill="#e1e1df" d="M 119.25 270.703125 C 118.511719 271.0625 117.695312 271.257812 116.859375 271.261719 L 98.996094 271.339844 C 95.964844 271.351562 93.5 268.902344 93.484375 265.871094 C 93.472656 262.839844 95.917969 260.371094 98.949219 260.355469 L 111.324219 260.308594 L 111.320312 259.28125 L 108.300781 259.292969 C 105.269531 259.304688 102.804688 256.859375 102.792969 253.828125 C 102.777344 250.792969 105.222656 248.328125 108.253906 248.3125 L 116.761719 248.277344 C 119.789062 248.265625 122.257812 250.714844 122.269531 253.742188 L 122.324219 265.75 C 122.328125 267.203125 121.757812 268.605469 120.734375 269.640625 C 120.296875 270.078125 119.796875 270.433594 119.25 270.703125 " fill-opacity="1" fill-rule="nonzero"/><path fill="#e1e1df" d="M 79.53125 270.875 C 78.808594 271.230469 78 271.429688 77.140625 271.433594 L 69.136719 271.46875 C 66.105469 271.480469 63.640625 269.03125 63.625 266 L 63.574219 253.992188 C 63.5625 250.964844 66.007812 248.496094 69.039062 248.480469 L 86.898438 248.40625 C 89.929688 248.390625 92.398438 250.839844 92.410156 253.875 C 92.425781 256.902344 89.976562 259.371094 86.945312 259.386719 L 74.574219 259.4375 L 74.578125 260.464844 L 77.09375 260.453125 C 80.125 260.4375 82.59375 262.886719 82.605469 265.917969 C 82.617188 268.09375 81.359375 269.980469 79.53125 270.875 " fill-opacity="1" fill-rule="nonzero"/><path fill="#efefed" d="M 100.53125 257.132812 C 100.050781 257.367188 99.507812 257.5 98.9375 257.503906 C 96.917969 257.511719 95.273438 255.882812 95.265625 253.859375 L 95.203125 239.648438 L 90.519531 239.667969 L 90.582031 253.878906 C 90.589844 255.902344 88.960938 257.546875 86.9375 257.554688 C 84.917969 257.5625 83.273438 255.933594 83.265625 253.910156 L 83.191406 236.042969 C 83.179688 234.019531 84.8125 232.375 86.832031 232.367188 L 98.832031 232.3125 C 99.800781 232.308594 100.734375 232.691406 101.421875 233.375 C 102.113281 234.058594 102.5 234.988281 102.503906 235.957031 L 102.582031 253.828125 C 102.585938 255.277344 101.75 256.535156 100.53125 257.132812 " fill-opacity="1" fill-rule="nonzero"/><path fill="#efefed" d="M 100.660156 287.003906 C 100.167969 287.246094 99.625 287.375 99.066406 287.378906 L 87.066406 287.429688 C 85.046875 287.4375 83.402344 285.804688 83.394531 283.785156 L 83.316406 265.914062 C 83.308594 263.894531 84.9375 262.246094 86.960938 262.238281 C 88.980469 262.230469 90.625 263.863281 90.632812 265.882812 L 90.695312 280.09375 L 95.375 280.074219 L 95.316406 265.863281 C 95.308594 263.839844 96.9375 262.195312 98.957031 262.1875 C 100.980469 262.179688 102.625 263.808594 102.632812 265.832031 L 102.707031 283.703125 C 102.710938 284.675781 102.332031 285.605469 101.648438 286.292969 C 101.359375 286.589844 101.023438 286.828125 100.660156 287.003906 " fill-opacity="1" fill-rule="nonzero"/><path fill="#efefed" d="M 118.445312 269.058594 C 117.953125 269.300781 117.410156 269.429688 116.851562 269.433594 L 98.988281 269.507812 C 96.96875 269.515625 95.324219 267.882812 95.316406 265.863281 C 95.308594 263.839844 96.9375 262.195312 98.957031 262.1875 L 113.160156 262.128906 L 113.140625 257.441406 L 108.292969 257.460938 C 106.273438 257.472656 104.628906 255.839844 104.621094 253.820312 C 104.613281 251.796875 106.242188 250.148438 108.261719 250.144531 L 116.769531 250.109375 C 118.789062 250.101562 120.433594 251.730469 120.441406 253.753906 L 120.492188 265.757812 C 120.496094 266.726562 120.117188 267.660156 119.433594 268.351562 C 119.144531 268.644531 118.808594 268.878906 118.445312 269.058594 " fill-opacity="1" fill-rule="nonzero"/><path fill="#efefed" d="M 78.726562 269.230469 C 78.246094 269.46875 77.707031 269.601562 77.132812 269.601562 L 69.128906 269.636719 C 67.109375 269.644531 65.464844 268.015625 65.457031 265.992188 L 65.40625 253.988281 C 65.394531 251.964844 67.027344 250.320312 69.046875 250.3125 L 86.90625 250.234375 C 88.929688 250.226562 90.574219 251.859375 90.582031 253.878906 C 90.589844 255.902344 88.960938 257.546875 86.9375 257.554688 L 72.738281 257.617188 L 72.757812 262.300781 L 77.105469 262.28125 C 79.125 262.273438 80.769531 263.90625 80.777344 265.925781 C 80.78125 267.375 79.945312 268.632812 78.726562 269.230469 " fill-opacity="1" fill-rule="nonzero"/><path fill="#ffffff" d="M 99.726562 255.488281 C 99.484375 255.605469 99.214844 255.671875 98.929688 255.671875 C 97.917969 255.675781 97.097656 254.863281 97.09375 253.851562 L 97.023438 237.8125 L 88.683594 237.847656 L 88.753906 253.886719 C 88.757812 254.898438 87.941406 255.722656 86.933594 255.726562 C 85.921875 255.730469 85.097656 254.914062 85.09375 253.902344 L 85.019531 236.035156 C 85.015625 235.023438 85.828125 234.199219 86.839844 234.195312 L 98.839844 234.144531 C 99.324219 234.140625 99.789062 234.332031 100.132812 234.675781 C 100.480469 235.015625 100.675781 235.480469 100.675781 235.964844 L 100.75 253.835938 C 100.753906 254.5625 100.335938 255.1875 99.726562 255.488281 " fill-opacity="1" fill-rule="nonzero"/><path fill="#ffffff" d="M 99.855469 285.363281 C 99.609375 285.484375 99.335938 285.546875 99.058594 285.550781 L 87.058594 285.597656 C 86.046875 285.605469 85.226562 284.789062 85.222656 283.777344 L 85.144531 265.90625 C 85.140625 264.894531 85.957031 264.070312 86.96875 264.070312 C 87.976562 264.066406 88.800781 264.878906 88.804688 265.890625 L 88.871094 281.929688 L 97.214844 281.894531 L 97.144531 265.855469 C 97.140625 264.84375 97.957031 264.019531 98.964844 264.019531 C 99.976562 264.015625 100.800781 264.832031 100.800781 265.839844 L 100.878906 283.710938 C 100.882812 284.195312 100.691406 284.664062 100.347656 285.007812 C 100.203125 285.152344 100.035156 285.273438 99.855469 285.363281 " fill-opacity="1" fill-rule="nonzero"/><path fill="#ffffff" d="M 117.640625 267.414062 C 117.394531 267.535156 117.121094 267.601562 116.84375 267.601562 L 98.980469 267.679688 C 97.972656 267.683594 97.148438 266.867188 97.144531 265.855469 C 97.140625 264.84375 97.957031 264.019531 98.964844 264.019531 L 115 263.949219 L 114.964844 255.605469 L 108.285156 255.632812 C 107.277344 255.636719 106.453125 254.824219 106.449219 253.8125 C 106.445312 252.796875 107.261719 251.972656 108.269531 251.972656 L 116.777344 251.9375 C 117.785156 251.933594 118.609375 252.75 118.613281 253.757812 L 118.664062 265.765625 C 118.667969 266.25 118.476562 266.714844 118.132812 267.058594 C 117.988281 267.207031 117.824219 267.328125 117.640625 267.414062 " fill-opacity="1" fill-rule="nonzero"/><path fill="#ffffff" d="M 77.921875 267.585938 C 77.683594 267.703125 77.414062 267.769531 77.125 267.773438 L 69.121094 267.804688 C 68.113281 267.808594 67.289062 266.996094 67.285156 265.984375 L 67.234375 253.980469 C 67.230469 252.96875 68.046875 252.144531 69.054688 252.140625 L 86.914062 252.066406 C 87.925781 252.0625 88.75 252.878906 88.753906 253.886719 C 88.757812 254.898438 87.941406 255.722656 86.933594 255.726562 L 70.898438 255.792969 L 70.933594 264.140625 L 77.109375 264.113281 C 78.121094 264.109375 78.945312 264.925781 78.949219 265.933594 C 78.949219 266.660156 78.53125 267.289062 77.921875 267.585938 " fill-opacity="1" fill-rule="nonzero"/><path fill="#539ad9" d="M 275.789062 222.296875 C 276.222656 223.414062 276.332031 224.671875 276.03125 225.921875 C 275.917969 226.40625 275.859375 226.910156 275.859375 227.417969 C 275.867188 229.082031 276.523438 230.644531 277.707031 231.816406 C 278.886719 232.988281 280.453125 233.628906 282.117188 233.625 C 283.785156 233.617188 285.34375 232.964844 286.515625 231.777344 C 287.6875 230.597656 288.332031 229.027344 288.324219 227.363281 C 288.308594 223.925781 285.5 221.140625 282.066406 221.15625 C 281.125 221.160156 280.222656 221.363281 279.386719 221.769531 C 278.226562 222.328125 276.972656 222.488281 275.789062 222.296875 Z M 290.191406 243.957031 C 287.726562 245.167969 285 245.8125 282.167969 245.824219 C 277.25 245.84375 272.613281 243.949219 269.117188 240.480469 C 265.621094 237.011719 263.6875 232.394531 263.664062 227.46875 C 263.660156 225.988281 263.828125 224.511719 264.171875 223.082031 C 264.921875 219.960938 267.941406 217.980469 271.054688 218.476562 C 269.921875 215.550781 271.195312 212.199219 274.058594 210.796875 C 274.070312 210.789062 274.082031 210.785156 274.09375 210.777344 C 276.578125 209.582031 279.242188 208.964844 282.011719 208.953125 C 292.175781 208.910156 300.472656 217.144531 300.519531 227.308594 C 300.539062 232.234375 298.640625 236.871094 295.175781 240.367188 C 293.703125 241.855469 292.019531 243.0625 290.191406 243.957031 " fill-opacity="1" fill-rule="nonzero"/><path fill="#72c7f0" d="M 289.121094 241.765625 C 286.980469 242.816406 284.613281 243.371094 282.160156 243.382812 C 277.890625 243.402344 273.867188 241.757812 270.835938 238.75 C 267.804688 235.738281 266.121094 231.730469 266.105469 227.457031 C 266.101562 226.171875 266.246094 224.890625 266.546875 223.648438 C 267.015625 221.683594 268.992188 220.472656 270.953125 220.945312 C 272.921875 221.414062 274.128906 223.390625 273.660156 225.355469 C 273.5 226.027344 273.417969 226.726562 273.421875 227.425781 C 273.429688 229.742188 274.34375 231.917969 275.988281 233.550781 C 277.632812 235.179688 279.8125 236.074219 282.128906 236.0625 C 284.445312 236.050781 286.621094 235.140625 288.25 233.496094 C 289.878906 231.851562 290.769531 229.667969 290.761719 227.351562 C 290.742188 222.570312 286.835938 218.695312 282.054688 218.714844 C 280.75 218.722656 279.496094 219.007812 278.328125 219.570312 C 276.511719 220.449219 274.324219 219.683594 273.445312 217.859375 C 272.570312 216.046875 273.328125 213.871094 275.132812 212.984375 C 275.136719 212.984375 275.148438 212.980469 275.152344 212.976562 C 277.304688 211.9375 279.617188 211.40625 282.023438 211.394531 C 290.839844 211.355469 298.042969 218.5 298.078125 227.320312 C 298.097656 231.59375 296.449219 235.617188 293.441406 238.652344 C 292.164062 239.941406 290.707031 240.988281 289.121094 241.765625 " fill-opacity="1" fill-rule="nonzero"/><path fill="#c5ecfb" d="M 288.316406 240.121094 C 286.421875 241.046875 284.324219 241.542969 282.152344 241.554688 C 278.371094 241.570312 274.808594 240.113281 272.121094 237.449219 C 269.4375 234.785156 267.949219 231.234375 267.933594 227.449219 C 267.929688 226.3125 268.058594 225.175781 268.324219 224.074219 C 268.558594 223.09375 269.546875 222.484375 270.527344 222.722656 C 271.511719 222.957031 272.117188 223.945312 271.882812 224.929688 C 271.6875 225.746094 271.589844 226.589844 271.59375 227.433594 C 271.605469 230.238281 272.707031 232.875 274.699219 234.847656 C 276.691406 236.824219 279.332031 237.90625 282.136719 237.894531 C 284.941406 237.882812 287.574219 236.777344 289.546875 234.785156 C 291.523438 232.792969 292.605469 230.148438 292.589844 227.34375 C 292.566406 221.550781 287.835938 216.859375 282.046875 216.882812 C 280.464844 216.890625 278.949219 217.242188 277.535156 217.921875 C 276.625 218.359375 275.535156 217.976562 275.09375 217.066406 C 274.65625 216.160156 275.035156 215.070312 275.9375 214.628906 C 275.941406 214.628906 275.945312 214.625 275.949219 214.625 C 277.855469 213.703125 279.902344 213.234375 282.03125 213.222656 C 289.839844 213.191406 296.214844 219.519531 296.25 227.328125 C 296.265625 231.113281 294.808594 234.675781 292.144531 237.363281 C 291.011719 238.503906 289.71875 239.429688 288.316406 240.121094 " fill-opacity="1" fill-rule="nonzero"/><path fill="#4fc065" d="M 286.621094 295.453125 C 287.789062 294.882812 289.078125 294.714844 290.304688 294.917969 C 289.25 293.828125 288.597656 292.347656 288.59375 290.710938 C 288.578125 287.273438 285.773438 284.488281 282.335938 284.503906 C 280.667969 284.511719 279.109375 285.164062 277.9375 286.347656 C 276.765625 287.527344 276.121094 289.097656 276.132812 290.761719 C 276.144531 294.203125 278.953125 296.984375 282.386719 296.96875 C 283.636719 296.964844 284.84375 296.59375 285.863281 295.898438 C 286.109375 295.730469 286.363281 295.582031 286.621094 295.453125 Z M 290.460938 307.300781 C 287.976562 308.519531 285.246094 309.160156 282.441406 309.171875 C 272.28125 309.214844 263.976562 300.980469 263.9375 290.816406 C 263.914062 285.890625 265.8125 281.253906 269.277344 277.757812 C 272.742188 274.261719 277.367188 272.324219 282.28125 272.300781 C 292.445312 272.257812 300.746094 280.496094 300.789062 290.65625 C 300.800781 294.03125 298.082031 296.769531 294.714844 296.785156 C 294.367188 296.785156 294.023438 296.757812 293.691406 296.703125 C 293.921875 296.945312 294.140625 297.210938 294.335938 297.5 C 296.234375 300.285156 295.515625 304.078125 292.734375 305.976562 C 292.003906 306.472656 291.246094 306.917969 290.460938 307.300781 " fill-opacity="1" fill-rule="nonzero"/><path fill="#76ce92" d="M 289.386719 305.109375 C 287.230469 306.164062 284.863281 306.722656 282.429688 306.734375 C 273.617188 306.769531 266.414062 299.625 266.375 290.808594 C 266.355469 286.535156 268.003906 282.511719 271.007812 279.476562 C 274.015625 276.441406 278.023438 274.761719 282.292969 274.742188 C 291.109375 274.707031 298.3125 281.851562 298.347656 290.667969 C 298.359375 292.691406 296.726562 294.339844 294.707031 294.34375 C 292.683594 294.351562 291.039062 292.722656 291.03125 290.699219 C 291.011719 285.917969 287.105469 282.042969 282.324219 282.0625 C 280.011719 282.074219 277.835938 282.984375 276.207031 284.628906 C 274.574219 286.273438 273.679688 288.457031 273.691406 290.773438 C 273.710938 295.554688 277.617188 299.429688 282.398438 299.410156 C 284.136719 299.40625 285.808594 298.886719 287.238281 297.910156 C 288.90625 296.777344 291.183594 297.203125 292.320312 298.875 C 293.457031 300.546875 293.027344 302.824219 291.359375 303.960938 C 290.726562 304.390625 290.066406 304.773438 289.386719 305.109375 " fill-opacity="1" fill-rule="nonzero"/><path fill="#c3ead1" d="M 288.582031 303.464844 C 286.675781 304.398438 284.578125 304.894531 282.421875 304.902344 C 274.613281 304.933594 268.238281 298.609375 268.203125 290.796875 C 268.1875 287.011719 269.648438 283.449219 272.308594 280.765625 C 274.96875 278.078125 278.519531 276.589844 282.304688 276.574219 C 290.109375 276.539062 296.484375 282.867188 296.519531 290.675781 C 296.523438 291.6875 295.703125 292.511719 294.699219 292.515625 C 293.6875 292.519531 292.867188 291.703125 292.863281 290.691406 C 292.835938 284.902344 288.105469 280.207031 282.316406 280.234375 C 279.515625 280.246094 276.882812 281.351562 274.90625 283.339844 C 272.929688 285.332031 271.851562 287.976562 271.863281 290.78125 C 271.886719 296.574219 276.617188 301.265625 282.40625 301.242188 C 284.507812 301.230469 286.535156 300.601562 288.269531 299.425781 C 289.105469 298.847656 290.242188 299.070312 290.808594 299.90625 C 291.378906 300.738281 291.164062 301.878906 290.328125 302.449219 C 289.769531 302.832031 289.1875 303.167969 288.582031 303.464844 " fill-opacity="1" fill-rule="nonzero"/><path fill="#fab31a" d="M 307.332031 264.800781 C 308.6875 264.269531 310.234375 264.21875 311.703125 264.769531 C 312.402344 265.035156 313.144531 265.164062 313.910156 265.160156 C 315.574219 265.15625 317.140625 264.496094 318.3125 263.316406 C 319.480469 262.136719 320.125 260.566406 320.113281 258.902344 C 320.109375 257.234375 319.457031 255.671875 318.273438 254.503906 C 317.089844 253.328125 315.523438 252.6875 313.859375 252.691406 C 312.191406 252.699219 310.632812 253.355469 309.460938 254.539062 C 308.285156 255.71875 307.648438 257.289062 307.652344 258.953125 C 307.65625 259.46875 307.71875 259.980469 307.84375 260.46875 C 308.226562 261.988281 308.007812 263.515625 307.332031 264.800781 Z M 321.988281 275.496094 C 319.519531 276.707031 316.792969 277.351562 313.964844 277.359375 C 311.714844 277.371094 309.507812 276.980469 307.414062 276.191406 C 304.261719 275.007812 302.667969 271.492188 303.847656 268.335938 C 303.9375 268.097656 304.042969 267.867188 304.15625 267.648438 C 303.921875 267.738281 303.683594 267.816406 303.433594 267.878906 C 300.167969 268.707031 296.851562 266.730469 296.023438 263.464844 C 295.65625 262.015625 295.464844 260.515625 295.460938 259.007812 C 295.4375 254.082031 297.335938 249.445312 300.800781 245.949219 C 304.269531 242.449219 308.886719 240.515625 313.804688 240.492188 C 318.726562 240.472656 323.363281 242.371094 326.859375 245.835938 C 330.351562 249.304688 332.289062 253.925781 332.308594 258.847656 C 332.332031 263.773438 330.433594 268.410156 326.972656 271.90625 C 325.496094 273.394531 323.8125 274.601562 321.988281 275.496094 " fill-opacity="1" fill-rule="nonzero"/><path fill="#ee1e49" d="M 247.828125 253.597656 C 247.210938 253.898438 246.640625 254.304688 246.144531 254.808594 C 244.96875 255.992188 244.332031 257.558594 244.335938 259.226562 C 244.34375 260.890625 245 262.453125 246.179688 263.625 C 247.363281 264.796875 248.929688 265.441406 250.59375 265.433594 C 252.261719 265.425781 253.820312 264.769531 254.992188 263.589844 C 256.164062 262.40625 256.804688 260.835938 256.800781 259.171875 C 256.792969 257.738281 257.285156 256.417969 258.105469 255.375 C 256.773438 255.417969 255.421875 255.035156 254.265625 254.179688 C 253.183594 253.378906 251.894531 252.957031 250.542969 252.964844 C 249.585938 252.96875 248.664062 253.1875 247.828125 253.597656 Z M 258.671875 275.765625 C 256.203125 276.976562 253.472656 277.621094 250.648438 277.632812 C 245.722656 277.652344 241.089844 275.757812 237.59375 272.289062 C 234.101562 268.820312 232.164062 264.199219 232.144531 259.277344 C 232.121094 254.351562 234.019531 249.714844 237.484375 246.21875 C 240.949219 242.722656 245.570312 240.785156 250.488281 240.765625 C 254.492188 240.746094 258.304688 241.992188 261.515625 244.371094 C 264.226562 246.375 264.796875 250.195312 262.796875 252.902344 C 262.757812 252.953125 262.722656 253 262.683594 253.046875 C 262.746094 253.046875 262.808594 253.046875 262.871094 253.046875 C 266.238281 253.03125 268.976562 255.75 268.992188 259.121094 C 269.015625 264.042969 267.121094 268.679688 263.652344 272.175781 C 262.179688 273.664062 260.496094 274.871094 258.671875 275.765625 " fill-opacity="1" fill-rule="nonzero"/><path fill="#f24d89" d="M 257.597656 273.574219 C 255.457031 274.621094 253.089844 275.183594 250.636719 275.191406 C 246.367188 275.210938 242.34375 273.5625 239.3125 270.558594 C 236.277344 267.550781 234.601562 263.539062 234.582031 259.265625 C 234.5625 254.996094 236.207031 250.972656 239.214844 247.9375 C 242.21875 244.902344 246.230469 243.222656 250.5 243.203125 C 253.972656 243.1875 257.285156 244.269531 260.070312 246.332031 C 261.691406 247.535156 262.035156 249.828125 260.832031 251.453125 C 259.636719 253.078125 257.34375 253.421875 255.714844 252.21875 C 254.207031 251.101562 252.414062 250.515625 250.53125 250.523438 C 248.214844 250.535156 246.042969 251.445312 244.410156 253.089844 C 242.78125 254.738281 241.886719 256.917969 241.898438 259.234375 C 241.910156 261.550781 242.820312 263.726562 244.464844 265.359375 C 246.109375 266.988281 248.289062 267.882812 250.605469 267.875 C 252.921875 267.863281 255.097656 266.953125 256.726562 265.304688 C 258.355469 263.660156 259.25 261.480469 259.238281 259.160156 C 259.230469 257.140625 260.863281 255.492188 262.878906 255.488281 C 264.902344 255.476562 266.546875 257.109375 266.554688 259.128906 C 266.574219 263.402344 264.929688 267.425781 261.921875 270.460938 C 260.644531 271.75 259.179688 272.796875 257.597656 273.574219 " fill-opacity="1" fill-rule="nonzero"/><path fill="#fab5cf" d="M 256.792969 271.929688 C 254.898438 272.859375 252.800781 273.355469 250.628906 273.363281 C 246.847656 273.378906 243.285156 271.921875 240.601562 269.257812 C 237.914062 266.59375 236.429688 263.042969 236.410156 259.257812 C 236.394531 255.476562 237.851562 251.914062 240.515625 249.222656 C 243.175781 246.539062 246.726562 245.050781 250.507812 245.035156 C 253.582031 245.019531 256.515625 245.980469 258.980469 247.804688 C 259.792969 248.40625 259.964844 249.550781 259.363281 250.363281 C 258.761719 251.175781 257.617188 251.347656 256.804688 250.746094 C 254.976562 249.394531 252.804688 248.683594 250.523438 248.695312 C 247.71875 248.707031 245.089844 249.8125 243.113281 251.804688 C 241.136719 253.792969 240.058594 256.4375 240.066406 259.242188 C 240.082031 262.050781 241.183594 264.679688 243.175781 266.660156 C 245.167969 268.632812 247.808594 269.714844 250.613281 269.703125 C 253.417969 269.6875 256.050781 268.589844 258.023438 266.59375 C 260 264.601562 261.078125 261.960938 261.070312 259.152344 C 261.0625 258.140625 261.878906 257.320312 262.890625 257.316406 C 263.898438 257.3125 264.722656 258.128906 264.726562 259.136719 C 264.742188 262.921875 263.285156 266.484375 260.621094 269.171875 C 259.488281 270.3125 258.195312 271.242188 256.792969 271.929688 " fill-opacity="1" fill-rule="nonzero"/><path fill="#e1e1df" d="M 199.71875 255.253906 C 198.28125 255.957031 196.695312 256.332031 195.050781 256.339844 L 191.871094 256.351562 C 188.839844 256.367188 186.371094 253.917969 186.359375 250.886719 C 186.347656 247.855469 188.792969 245.386719 191.824219 245.375 L 194.746094 245.363281 L 194.734375 243.171875 L 180.300781 243.234375 L 180.3125 245.429688 C 183.222656 245.550781 185.550781 247.945312 185.5625 250.890625 C 185.574219 253.921875 183.128906 256.390625 180.097656 256.40625 C 174.191406 256.429688 169.363281 251.640625 169.335938 245.730469 L 169.324219 243.019531 C 169.3125 240.15625 170.414062 237.460938 172.429688 235.425781 C 174.445312 233.394531 177.132812 232.265625 179.996094 232.253906 L 194.949219 232.191406 C 200.855469 232.167969 205.683594 236.953125 205.710938 242.867188 L 205.722656 245.574219 C 205.734375 248.4375 204.628906 251.132812 202.613281 253.167969 C 201.757812 254.03125 200.78125 254.734375 199.71875 255.253906 " fill-opacity="1" fill-rule="nonzero"/><path fill="#efefed" d="M 198.914062 253.609375 C 197.722656 254.191406 196.40625 254.503906 195.042969 254.511719 L 191.863281 254.523438 C 189.839844 254.53125 188.199219 252.898438 188.1875 250.878906 C 188.179688 248.859375 189.8125 247.214844 191.832031 247.203125 L 195.015625 247.191406 C 195.578125 247.191406 195.949219 246.898438 196.121094 246.726562 C 196.289062 246.554688 196.578125 246.179688 196.574219 245.617188 L 196.5625 242.90625 C 196.558594 242.039062 195.851562 241.335938 194.988281 241.339844 L 180.035156 241.40625 C 179.46875 241.410156 179.097656 241.695312 178.925781 241.871094 C 178.753906 242.042969 178.46875 242.417969 178.46875 242.980469 L 178.480469 245.691406 C 178.488281 246.554688 179.191406 247.257812 180.058594 247.253906 C 182.078125 247.246094 183.722656 248.878906 183.734375 250.898438 C 183.742188 252.921875 182.109375 254.566406 180.089844 254.574219 C 175.191406 254.597656 171.1875 250.625 171.164062 245.722656 L 171.15625 243.015625 C 171.144531 240.636719 172.058594 238.402344 173.730469 236.714844 C 175.402344 235.027344 177.628906 234.09375 180.003906 234.085938 L 194.957031 234.019531 C 199.855469 234 203.859375 237.972656 203.882812 242.871094 L 203.890625 245.585938 C 203.902344 247.957031 202.988281 250.195312 201.316406 251.878906 C 200.605469 252.597656 199.792969 253.179688 198.914062 253.609375 " fill-opacity="1" fill-rule="nonzero"/><path fill="#ffffff" d="M 198.109375 251.964844 C 197.164062 252.425781 196.117188 252.675781 195.035156 252.679688 L 191.855469 252.691406 C 190.84375 252.699219 190.023438 251.882812 190.019531 250.871094 C 190.011719 249.859375 190.828125 249.035156 191.839844 249.035156 L 195.019531 249.019531 C 195.929688 249.015625 196.785156 248.660156 197.417969 248.015625 C 198.058594 247.371094 198.410156 246.515625 198.40625 245.605469 L 198.394531 242.894531 C 198.382812 241.023438 196.851562 239.503906 194.980469 239.511719 L 180.027344 239.574219 C 179.117188 239.578125 178.265625 239.933594 177.628906 240.582031 C 176.988281 241.226562 176.636719 242.082031 176.640625 242.992188 L 176.652344 245.699219 C 176.660156 247.574219 178.191406 249.09375 180.066406 249.082031 C 181.078125 249.078125 181.898438 249.894531 181.902344 250.90625 C 181.910156 251.917969 181.089844 252.742188 180.082031 252.742188 C 176.191406 252.761719 173.011719 249.609375 172.996094 245.714844 L 172.984375 243.007812 C 172.976562 241.121094 173.703125 239.34375 175.027344 238.003906 C 176.355469 236.667969 178.125 235.921875 180.011719 235.914062 L 194.964844 235.851562 C 198.855469 235.835938 202.035156 238.988281 202.050781 242.878906 L 202.0625 245.589844 C 202.070312 247.476562 201.34375 249.253906 200.019531 250.589844 C 199.453125 251.160156 198.808594 251.625 198.109375 251.964844 " fill-opacity="1" fill-rule="nonzero"/><path fill="#fab31a" d="M 206.859375 171.632812 C 206.054688 172.027344 205.15625 172.246094 204.203125 172.253906 C 200.835938 172.265625 198.09375 169.546875 198.082031 166.179688 L 198.042969 157.257812 C 198.039062 156.164062 197.144531 155.277344 196.054688 155.285156 L 178.238281 155.359375 C 177.132812 155.363281 176.242188 156.257812 176.246094 157.347656 L 176.257812 160.171875 L 191.375 160.105469 C 194.742188 160.09375 197.484375 162.8125 197.5 166.179688 C 197.511719 169.550781 194.792969 172.292969 191.429688 172.308594 L 170.214844 172.398438 C 166.847656 172.410156 164.105469 169.691406 164.089844 166.324219 L 164.050781 157.402344 C 164.019531 149.582031 170.359375 143.195312 178.1875 143.160156 L 196 143.082031 C 203.816406 143.050781 210.203125 149.382812 210.238281 157.203125 L 210.277344 166.125 C 210.285156 168.542969 208.890625 170.636719 206.859375 171.632812 " fill-opacity="1" fill-rule="nonzero"/><path fill="#fab31a" d="M 190.019531 206.769531 C 189.21875 207.164062 188.316406 207.382812 187.363281 207.390625 L 170.089844 207.464844 C 161.992188 207.496094 154.109375 204.183594 148.46875 198.371094 L 146.835938 196.691406 C 144.492188 194.273438 144.546875 190.414062 146.964844 188.066406 C 149.378906 185.714844 153.238281 185.777344 155.585938 188.191406 L 157.214844 189.871094 C 160.5625 193.320312 165.234375 195.285156 170.035156 195.261719 L 187.3125 195.1875 C 190.679688 195.175781 193.421875 197.894531 193.4375 201.261719 C 193.445312 203.679688 192.050781 205.773438 190.019531 206.769531 " fill-opacity="1" fill-rule="nonzero"/><path fill="#fab31a" d="M 217.710938 204.238281 C 213.671875 206.21875 209.195312 207.296875 204.644531 207.316406 L 187.363281 207.390625 C 183.996094 207.402344 181.257812 204.683594 181.242188 201.316406 C 181.226562 197.945312 183.949219 195.203125 187.3125 195.1875 L 204.589844 195.117188 C 209.394531 195.09375 214.046875 193.089844 217.363281 189.613281 L 218.984375 187.917969 C 221.304688 185.480469 225.167969 185.394531 227.605469 187.722656 C 230.039062 190.050781 230.128906 193.910156 227.800781 196.347656 L 226.183594 198.039062 C 223.734375 200.605469 220.855469 202.695312 217.710938 204.238281 " fill-opacity="1" fill-rule="nonzero"/><path fill="#fcd04f" d="M 320.914062 273.304688 C 318.773438 274.351562 316.40625 274.914062 313.953125 274.921875 C 312 274.933594 310.089844 274.589844 308.273438 273.90625 C 306.378906 273.199219 305.421875 271.089844 306.136719 269.195312 C 306.84375 267.300781 308.953125 266.34375 310.84375 267.054688 C 311.824219 267.421875 312.859375 267.605469 313.917969 267.601562 C 316.238281 267.59375 318.414062 266.679688 320.042969 265.035156 C 321.671875 263.390625 322.566406 261.207031 322.554688 258.890625 C 322.546875 256.574219 321.632812 254.398438 319.988281 252.769531 C 318.34375 251.136719 316.164062 250.246094 313.847656 250.253906 C 311.53125 250.261719 309.359375 251.171875 307.726562 252.820312 C 306.097656 254.464844 305.207031 256.648438 305.214844 258.964844 C 305.21875 259.679688 305.304688 260.386719 305.480469 261.066406 C 305.976562 263.027344 304.792969 265.015625 302.832031 265.515625 C 300.875 266.011719 298.882812 264.824219 298.386719 262.867188 C 298.070312 261.609375 297.90625 260.308594 297.898438 258.996094 C 297.878906 254.722656 299.523438 250.699219 302.53125 247.664062 C 305.539062 244.628906 309.546875 242.953125 313.816406 242.933594 C 318.085938 242.914062 322.109375 244.558594 325.140625 247.570312 C 328.171875 250.578125 329.855469 254.585938 329.871094 258.859375 C 329.890625 263.132812 328.242188 267.152344 325.238281 270.1875 C 323.957031 271.480469 322.5 272.527344 320.914062 273.304688 " fill-opacity="1" fill-rule="nonzero"/><path fill="#fcd04f" d="M 205.785156 169.441406 C 205.304688 169.675781 204.765625 169.808594 204.195312 169.8125 C 202.171875 169.820312 200.527344 168.1875 200.519531 166.167969 L 200.484375 157.246094 C 200.472656 154.808594 198.480469 152.832031 196.042969 152.84375 L 178.230469 152.917969 C 175.78125 152.929688 173.800781 154.921875 173.808594 157.359375 L 173.832031 162.621094 L 191.386719 162.546875 C 193.40625 162.539062 195.050781 164.171875 195.058594 166.191406 C 195.070312 168.214844 193.4375 169.859375 191.417969 169.867188 L 170.203125 169.957031 C 168.183594 169.964844 166.539062 168.332031 166.53125 166.3125 L 166.492188 157.390625 C 166.464844 150.917969 171.714844 145.628906 178.199219 145.601562 L 196.011719 145.523438 C 202.484375 145.496094 207.769531 150.738281 207.796875 157.214844 L 207.835938 166.136719 C 207.84375 167.585938 207.007812 168.84375 205.785156 169.441406 " fill-opacity="1" fill-rule="nonzero"/><path fill="#fcd04f" d="M 188.949219 204.578125 C 188.46875 204.8125 187.925781 204.945312 187.355469 204.949219 L 170.078125 205.023438 C 162.640625 205.054688 155.402344 202.011719 150.21875 196.671875 L 148.585938 194.992188 C 147.179688 193.542969 147.214844 191.226562 148.664062 189.816406 C 150.113281 188.40625 152.425781 188.441406 153.835938 189.890625 L 155.464844 191.570312 C 159.269531 195.492188 164.585938 197.726562 170.046875 197.703125 L 187.324219 197.628906 C 189.34375 197.621094 190.988281 199.25 190.996094 201.273438 C 191.003906 202.722656 190.167969 203.980469 188.949219 204.578125 " fill-opacity="1" fill-rule="nonzero"/><path fill="#fcd04f" d="M 216.636719 202.046875 C 212.925781 203.867188 208.816406 204.859375 204.632812 204.875 L 187.355469 204.949219 C 185.335938 204.957031 183.691406 203.324219 183.679688 201.304688 C 183.671875 199.285156 185.304688 197.636719 187.324219 197.628906 L 204.601562 197.554688 C 210.0625 197.53125 215.359375 195.253906 219.128906 191.300781 L 220.746094 189.605469 C 222.140625 188.144531 224.457031 188.089844 225.917969 189.488281 C 227.378906 190.882812 227.433594 193.199219 226.039062 194.660156 L 224.417969 196.355469 C 222.171875 198.710938 219.527344 200.628906 216.636719 202.046875 " fill-opacity="1" fill-rule="nonzero"/><path fill="#fdeeb9" d="M 320.109375 271.660156 C 318.214844 272.585938 316.117188 273.082031 313.945312 273.09375 C 312.214844 273.101562 310.523438 272.796875 308.917969 272.195312 C 307.96875 271.839844 307.492188 270.78125 307.847656 269.839844 C 308.203125 268.894531 309.257812 268.414062 310.199219 268.769531 C 311.390625 269.214844 312.644531 269.4375 313.929688 269.433594 C 316.734375 269.417969 319.367188 268.316406 321.339844 266.324219 C 323.316406 264.328125 324.398438 261.6875 324.382812 258.882812 C 324.371094 256.078125 323.269531 253.445312 321.277344 251.46875 C 319.289062 249.492188 316.644531 248.410156 313.839844 248.425781 C 311.039062 248.4375 308.40625 249.539062 306.429688 251.53125 C 304.453125 253.523438 303.371094 256.167969 303.382812 258.972656 C 303.386719 259.835938 303.496094 260.691406 303.707031 261.515625 C 303.957031 262.496094 303.367188 263.496094 302.382812 263.742188 C 301.402344 263.988281 300.410156 263.394531 300.160156 262.417969 C 299.878906 261.304688 299.734375 260.152344 299.726562 258.988281 C 299.710938 255.203125 301.167969 251.640625 303.832031 248.953125 C 306.492188 246.265625 310.042969 244.78125 313.824219 244.761719 C 317.605469 244.746094 321.167969 246.203125 323.855469 248.871094 C 326.539062 251.535156 328.027344 255.082031 328.042969 258.867188 C 328.058594 262.648438 326.601562 266.214844 323.9375 268.898438 C 322.808594 270.042969 321.511719 270.96875 320.109375 271.660156 " fill-opacity="1" fill-rule="nonzero"/><path fill="#fdeeb9" d="M 204.980469 167.796875 C 204.742188 167.914062 204.472656 167.980469 204.1875 167.980469 C 203.175781 167.988281 202.355469 167.171875 202.351562 166.160156 L 202.3125 157.238281 C 202.296875 153.792969 199.480469 151 196.035156 151.011719 L 178.222656 151.089844 C 174.765625 151.105469 171.964844 153.921875 171.976562 157.367188 L 172.007812 164.460938 L 191.394531 164.378906 C 192.402344 164.371094 193.226562 165.1875 193.230469 166.199219 C 193.234375 167.210938 192.417969 168.035156 191.410156 168.035156 L 170.195312 168.128906 C 169.1875 168.132812 168.363281 167.316406 168.359375 166.304688 L 168.320312 157.382812 C 168.296875 151.917969 172.734375 147.449219 178.203125 147.429688 L 196.019531 147.351562 C 201.484375 147.328125 205.945312 151.757812 205.96875 157.222656 L 206.007812 166.144531 C 206.011719 166.871094 205.589844 167.496094 204.980469 167.796875 " fill-opacity="1" fill-rule="nonzero"/><path fill="#fdeeb9" d="M 188.144531 202.933594 C 187.902344 203.050781 187.632812 203.117188 187.347656 203.117188 L 170.070312 203.191406 C 163.125 203.222656 156.367188 200.382812 151.53125 195.398438 L 149.898438 193.71875 C 149.195312 192.992188 149.210938 191.832031 149.9375 191.128906 C 150.65625 190.421875 151.816406 190.441406 152.523438 191.167969 L 154.152344 192.847656 C 158.304688 197.121094 164.097656 199.558594 170.054688 199.535156 L 187.332031 199.460938 C 188.34375 199.453125 189.164062 200.269531 189.167969 201.28125 C 189.171875 202.007812 188.753906 202.632812 188.144531 202.933594 " fill-opacity="1" fill-rule="nonzero"/><path fill="#fdeeb9" d="M 215.832031 200.40625 C 212.367188 202.105469 208.53125 203.027344 204.625 203.046875 L 187.347656 203.117188 C 186.335938 203.125 185.515625 202.308594 185.511719 201.296875 C 185.503906 200.285156 186.324219 199.460938 187.332031 199.460938 L 204.609375 199.386719 C 210.566406 199.359375 216.339844 196.875 220.453125 192.5625 L 222.070312 190.867188 C 222.765625 190.144531 223.925781 190.113281 224.65625 190.8125 C 225.386719 191.507812 225.414062 192.667969 224.714844 193.398438 L 223.097656 195.09375 C 221 197.292969 218.527344 199.082031 215.832031 200.40625 " fill-opacity="1" fill-rule="nonzero"/><g clip-path="url(#e0008dfac0)"><path fill="#6441a3" d="M 130.78125 336.773438 C 119.378906 342.371094 106.640625 345.429688 93.320312 345.488281 C 70.457031 345.585938 48.925781 336.769531 32.699219 320.667969 C 16.46875 304.566406 7.476562 283.105469 7.378906 260.238281 C 7.179688 213.042969 45.378906 174.476562 92.550781 174.253906 C 92.5625 174.253906 92.574219 174.253906 92.582031 174.253906 L 187.214844 173.851562 C 190.582031 173.835938 193.324219 176.558594 193.339844 179.925781 C 193.351562 183.296875 190.632812 186.039062 187.269531 186.050781 L 92.664062 186.457031 C 92.65625 186.457031 92.648438 186.457031 92.640625 186.457031 C 52.175781 186.625 19.402344 219.703125 19.574219 260.1875 C 19.660156 279.796875 27.367188 298.199219 41.285156 312.003906 C 55.203125 325.8125 73.664062 333.371094 93.269531 333.285156 C 121.480469 333.167969 146.667969 317.3125 159 291.90625 C 160.46875 288.878906 164.117188 287.613281 167.144531 289.085938 C 170.175781 290.558594 171.4375 294.207031 169.96875 297.238281 C 161.410156 314.867188 147.542969 328.554688 130.78125 336.773438 " fill-opacity="1" fill-rule="nonzero"/></g><path fill="#6441a3" d="M 190.417969 299.953125 C 189.613281 300.347656 188.714844 300.570312 187.761719 300.574219 L 164.507812 300.675781 C 161.140625 300.6875 158.398438 297.96875 158.386719 294.601562 C 158.371094 291.230469 161.089844 288.488281 164.457031 288.472656 L 187.710938 288.375 C 191.078125 288.359375 193.820312 291.078125 193.832031 294.449219 C 193.84375 296.867188 192.449219 298.960938 190.417969 299.953125 " fill-opacity="1" fill-rule="nonzero"/><g clip-path="url(#4737a8b1d3)"><path fill="#6441a3" d="M 319.851562 336.007812 C 308.390625 341.628906 295.722656 344.621094 282.585938 344.679688 C 249.683594 344.820312 220.15625 326.582031 205.527344 297.085938 C 204.03125 294.066406 205.265625 290.40625 208.28125 288.910156 C 208.289062 288.90625 208.296875 288.902344 208.308594 288.898438 C 211.316406 287.417969 214.960938 288.652344 216.453125 291.660156 C 228.996094 316.960938 254.320312 332.601562 282.53125 332.476562 C 302.136719 332.394531 320.53125 324.675781 334.335938 310.753906 C 348.128906 296.824219 355.683594 278.359375 355.597656 258.75 C 355.492188 233.714844 342.035156 209.742188 320.476562 196.183594 C 317.628906 194.394531 316.769531 190.628906 318.558594 187.773438 C 320.355469 184.921875 324.117188 184.0625 326.96875 185.855469 C 352.027344 201.613281 367.671875 229.527344 367.792969 258.695312 C 367.894531 281.5625 359.085938 303.101562 342.992188 319.339844 C 336.148438 326.25 328.332031 331.851562 319.851562 336.007812 " fill-opacity="1" fill-rule="nonzero"/></g><path fill="#6441a3" d="M 310.484375 189.234375 C 309.085938 189.917969 307.425781 190.074219 305.839844 189.53125 C 298.171875 186.925781 290.132812 185.617188 281.945312 185.648438 C 281.925781 185.648438 281.90625 185.648438 281.882812 185.648438 L 187.269531 186.050781 C 183.902344 186.066406 181.160156 183.347656 181.144531 179.976562 C 181.128906 176.609375 183.847656 173.863281 187.214844 173.851562 L 281.871094 173.445312 C 281.878906 173.445312 281.890625 173.445312 281.898438 173.445312 C 291.4375 173.414062 300.8125 174.9375 309.761719 177.980469 C 312.949219 179.066406 314.65625 182.527344 313.574219 185.71875 C 313.03125 187.316406 311.890625 188.546875 310.484375 189.234375 " fill-opacity="1" fill-rule="nonzero"/><path fill="#6441a3" d="M 213.671875 299.855469 C 212.867188 300.25 211.96875 300.472656 211.015625 300.476562 L 187.761719 300.574219 C 184.394531 300.589844 181.652344 297.871094 181.640625 294.5 C 181.625 291.128906 184.34375 288.386719 187.710938 288.375 L 210.964844 288.273438 C 214.332031 288.261719 217.070312 290.980469 217.085938 294.347656 C 217.097656 296.765625 215.703125 298.859375 213.671875 299.855469 " fill-opacity="1" fill-rule="nonzero"/><g clip-path="url(#d2737a58aa)"><path fill="#6441a3" d="M 307.6875 95.253906 C 292.089844 102.90625 271.589844 101.9375 251.613281 100.996094 C 242.707031 100.574219 233.496094 100.140625 225.160156 100.53125 C 205.667969 101.453125 194.792969 113.167969 192.835938 135.355469 C 192.539062 138.710938 189.578125 141.191406 186.226562 140.894531 C 182.871094 140.597656 180.390625 137.636719 180.6875 134.28125 C 183.191406 105.875 198.78125 89.5625 224.585938 88.34375 C 233.496094 87.925781 243 88.375 252.191406 88.808594 C 276.0625 89.933594 298.609375 91 310.671875 78.214844 C 319.332031 69.039062 322.328125 53.039062 319.835938 29.296875 C 319.480469 25.945312 321.914062 22.941406 325.261719 22.589844 C 328.609375 22.242188 331.609375 24.671875 331.960938 28.019531 C 334.847656 55.511719 330.785156 74.671875 319.539062 86.59375 C 316.054688 90.285156 312.0625 93.109375 307.6875 95.253906 " fill-opacity="1" fill-rule="nonzero"/></g><path fill="#8c60b6" d="M 129.703125 334.585938 C 118.625 340.015625 106.25 342.992188 93.308594 343.046875 C 71.097656 343.144531 50.183594 334.578125 34.414062 318.933594 C 18.648438 303.292969 9.914062 282.441406 9.820312 260.226562 C 9.621094 214.371094 46.738281 176.902344 92.570312 176.695312 C 92.578125 176.695312 92.585938 176.695312 92.59375 176.695312 L 187.226562 176.292969 C 189.246094 176.28125 190.890625 177.914062 190.898438 179.9375 C 190.910156 181.957031 189.277344 183.605469 187.257812 183.613281 L 92.652344 184.015625 C 92.644531 184.015625 92.636719 184.015625 92.628906 184.015625 C 50.824219 184.191406 16.957031 218.367188 17.136719 260.195312 C 17.222656 280.457031 25.1875 299.472656 39.566406 313.738281 C 53.945312 328.003906 73.023438 335.816406 93.277344 335.726562 C 122.429688 335.605469 148.453125 319.222656 161.191406 292.976562 C 162.074219 291.152344 164.265625 290.402344 166.082031 291.28125 C 167.898438 292.164062 168.65625 294.355469 167.773438 296.171875 C 159.460938 313.300781 145.984375 326.597656 129.703125 334.585938 " fill-opacity="1" fill-rule="nonzero"/><path fill="#8c60b6" d="M 189.34375 297.761719 C 188.863281 298 188.324219 298.132812 187.753906 298.136719 L 164.496094 298.234375 C 162.476562 298.242188 160.832031 296.609375 160.824219 294.589844 C 160.816406 292.566406 162.445312 290.921875 164.46875 290.914062 L 187.71875 290.8125 C 189.742188 290.804688 191.386719 292.4375 191.394531 294.457031 C 191.402344 295.90625 190.566406 297.164062 189.34375 297.761719 " fill-opacity="1" fill-rule="nonzero"/><path fill="#8c60b6" d="M 318.777344 333.816406 C 307.644531 339.273438 295.335938 342.183594 282.570312 342.238281 C 250.609375 342.375 221.925781 324.660156 207.710938 296 C 206.8125 294.191406 207.554688 291.996094 209.363281 291.097656 C 211.222656 290.191406 213.367188 290.9375 214.265625 292.746094 C 227.230469 318.886719 253.390625 335.042969 282.542969 334.917969 C 302.796875 334.832031 321.804688 326.859375 336.0625 312.472656 C 350.320312 298.082031 358.125 279 358.039062 258.742188 C 357.925781 232.878906 344.03125 208.117188 321.773438 194.121094 C 320.0625 193.046875 319.550781 190.785156 320.625 189.074219 C 321.699219 187.363281 323.957031 186.847656 325.667969 187.921875 C 350.027344 203.242188 365.230469 230.363281 365.351562 258.707031 C 365.449219 280.925781 356.894531 301.847656 341.261719 317.625 C 334.609375 324.335938 327.015625 329.777344 318.777344 333.816406 " fill-opacity="1" fill-rule="nonzero"/><path fill="#8c60b6" d="M 309.410156 187.042969 C 308.570312 187.453125 307.578125 187.546875 306.625 187.222656 C 298.691406 184.527344 290.378906 183.175781 281.914062 183.207031 C 281.90625 183.207031 281.898438 183.207031 281.894531 183.207031 L 187.257812 183.613281 C 185.238281 183.621094 183.589844 181.988281 183.582031 179.96875 C 183.574219 177.945312 185.207031 176.300781 187.226562 176.292969 L 281.878906 175.886719 C 281.925781 175.886719 281.96875 175.886719 282.011719 175.886719 C 291.320312 175.878906 300.351562 177.359375 308.976562 180.289062 C 310.890625 180.941406 311.914062 183.019531 311.261719 184.933594 C 310.9375 185.894531 310.253906 186.628906 309.410156 187.042969 " fill-opacity="1" fill-rule="nonzero"/><path fill="#8c60b6" d="M 212.597656 297.664062 C 212.117188 297.902344 211.578125 298.035156 211.003906 298.035156 L 187.753906 298.136719 C 185.730469 298.144531 184.085938 296.511719 184.078125 294.492188 C 184.066406 292.46875 185.699219 290.824219 187.71875 290.8125 L 210.972656 290.714844 C 212.996094 290.707031 214.640625 292.335938 214.648438 294.359375 C 214.65625 295.808594 213.816406 297.066406 212.597656 297.664062 " fill-opacity="1" fill-rule="nonzero"/><path fill="#8c60b6" d="M 306.640625 93.039062 C 291.550781 100.4375 271.378906 99.484375 251.730469 98.558594 C 242.765625 98.136719 233.496094 97.699219 225.046875 98.09375 C 199.007812 99.320312 191.835938 118.917969 190.40625 135.140625 C 190.226562 137.152344 188.453125 138.640625 186.441406 138.464844 C 184.425781 138.285156 182.9375 136.507812 183.117188 134.496094 C 185.503906 107.460938 200.269531 91.933594 224.699219 90.785156 C 233.496094 90.367188 242.941406 90.8125 252.074219 91.246094 C 276.519531 92.398438 299.617188 93.492188 312.445312 79.890625 C 321.621094 70.167969 324.832031 53.535156 322.257812 29.042969 C 322.046875 27.03125 323.511719 25.226562 325.515625 25.019531 C 327.527344 24.808594 329.324219 26.265625 329.539062 28.277344 C 332.34375 55.019531 328.492188 73.546875 317.761719 84.917969 C 314.511719 88.363281 310.765625 91.015625 306.640625 93.039062 " fill-opacity="1" fill-rule="nonzero"/><path fill="#debbe2" d="M 128.894531 332.941406 C 118.0625 338.253906 105.957031 341.164062 93.300781 341.21875 C 71.578125 341.308594 51.125 332.933594 35.703125 317.636719 C 20.285156 302.335938 11.742188 281.945312 11.648438 260.21875 C 11.457031 215.371094 47.761719 178.726562 92.585938 178.527344 C 92.589844 178.523438 92.597656 178.527344 92.601562 178.527344 L 187.234375 178.121094 C 188.242188 178.117188 189.066406 178.933594 189.070312 179.945312 C 189.074219 180.957031 188.257812 181.78125 187.25 181.78125 L 92.636719 182.183594 C 92.632812 182.183594 92.628906 182.183594 92.625 182.183594 C 49.804688 182.371094 15.125 217.367188 15.304688 260.203125 C 15.394531 280.953125 23.554688 300.425781 38.277344 315.035156 C 53.007812 329.648438 72.542969 337.644531 93.285156 337.558594 C 123.140625 337.429688 149.789062 320.65625 162.835938 293.773438 C 163.28125 292.867188 164.371094 292.488281 165.28125 292.929688 C 166.191406 293.367188 166.570312 294.464844 166.128906 295.375 C 158 312.125 144.820312 325.128906 128.894531 332.941406 " fill-opacity="1" fill-rule="nonzero"/><path fill="#debbe2" d="M 188.539062 296.117188 C 188.300781 296.238281 188.03125 296.304688 187.746094 296.304688 L 164.492188 296.402344 C 163.480469 296.410156 162.65625 295.589844 162.652344 294.582031 C 162.648438 293.570312 163.464844 292.746094 164.472656 292.742188 L 187.726562 292.644531 C 188.738281 292.640625 189.5625 293.457031 189.566406 294.46875 C 189.570312 295.191406 189.148438 295.820312 188.539062 296.117188 " fill-opacity="1" fill-rule="nonzero"/><path fill="#debbe2" d="M 317.972656 332.171875 C 307.085938 337.511719 295.050781 340.355469 282.566406 340.410156 C 251.304688 340.542969 223.25 323.214844 209.351562 295.1875 C 208.902344 294.28125 209.269531 293.183594 210.175781 292.738281 C 210.179688 292.734375 210.179688 292.734375 210.183594 292.734375 C 211.089844 292.289062 212.179688 292.660156 212.628906 293.5625 C 225.902344 320.328125 252.695312 336.875 282.550781 336.75 C 303.296875 336.660156 322.761719 328.496094 337.363281 313.757812 C 351.964844 299.023438 359.953125 279.480469 359.867188 258.730469 C 359.753906 232.25 345.53125 206.898438 322.75 192.570312 C 321.890625 192.03125 321.636719 190.902344 322.171875 190.046875 C 322.710938 189.191406 323.839844 188.933594 324.695312 189.472656 C 348.527344 204.460938 363.40625 230.992188 363.523438 258.71875 C 363.617188 280.445312 355.25 300.90625 339.960938 316.335938 C 333.457031 322.898438 326.03125 328.21875 317.972656 332.171875 " fill-opacity="1" fill-rule="nonzero"/><path fill="#debbe2" d="M 308.605469 185.398438 C 308.1875 185.605469 307.6875 185.652344 307.210938 185.488281 C 299.089844 182.726562 290.574219 181.34375 281.90625 181.378906 C 281.902344 181.375 281.898438 181.375 281.890625 181.375 L 187.25 181.78125 C 186.238281 181.785156 185.417969 180.96875 185.414062 179.960938 C 185.40625 178.949219 186.226562 178.125 187.234375 178.121094 L 281.886719 177.71875 C 281.910156 177.71875 281.933594 177.71875 281.960938 177.71875 C 291.054688 177.695312 299.921875 179.144531 308.390625 182.023438 C 309.34375 182.347656 309.859375 183.390625 309.53125 184.34375 C 309.371094 184.824219 309.027344 185.195312 308.605469 185.398438 " fill-opacity="1" fill-rule="nonzero"/><path fill="#debbe2" d="M 211.792969 296.019531 C 211.554688 296.136719 211.28125 296.203125 210.996094 296.207031 L 187.746094 296.304688 C 186.734375 296.308594 185.910156 295.492188 185.90625 294.484375 C 185.902344 293.472656 186.71875 292.648438 187.726562 292.644531 L 210.980469 292.546875 C 211.992188 292.542969 212.8125 293.355469 212.816406 294.367188 C 212.820312 295.09375 212.402344 295.722656 211.792969 296.019531 " fill-opacity="1" fill-rule="nonzero"/><path fill="#debbe2" d="M 305.847656 91.378906 C 291.148438 98.585938 271.222656 97.648438 251.816406 96.730469 C 242.808594 96.304688 233.496094 95.863281 224.957031 96.265625 C 197.601562 97.558594 190.078125 118.03125 188.582031 134.980469 C 188.496094 135.984375 187.609375 136.730469 186.601562 136.640625 C 185.59375 136.550781 184.851562 135.664062 184.9375 134.65625 C 187.234375 108.648438 201.386719 93.714844 224.785156 92.613281 C 233.496094 92.199219 242.898438 92.644531 251.988281 93.070312 C 275.773438 94.195312 300.367188 95.355469 313.773438 81.148438 C 323.339844 71.007812 326.710938 53.902344 324.078125 28.851562 C 323.972656 27.847656 324.707031 26.945312 325.707031 26.839844 C 326.710938 26.734375 327.609375 27.460938 327.714844 28.46875 C 330.464844 54.648438 326.777344 72.699219 316.433594 83.660156 C 313.355469 86.925781 309.789062 89.445312 305.847656 91.378906 " fill-opacity="1" fill-rule="nonzero"/><g fill="#ffffff" fill-opacity="1"><g transform="translate(211.291615, 371.349967)"><g><path d="M 1.1875 -0.828125 C 1.1875 -1.179688 1.265625 -1.445312 1.421875 -1.625 C 1.585938 -1.800781 1.816406 -1.890625 2.109375 -1.890625 C 2.410156 -1.890625 2.644531 -1.800781 2.8125 -1.625 C 2.988281 -1.445312 3.078125 -1.179688 3.078125 -0.828125 C 3.078125 -0.492188 2.988281 -0.234375 2.8125 -0.046875 C 2.644531 0.140625 2.410156 0.234375 2.109375 0.234375 C 1.847656 0.234375 1.628906 0.148438 1.453125 -0.015625 C 1.273438 -0.179688 1.1875 -0.453125 1.1875 -0.828125 Z M 1.1875 -0.828125 "/></g></g></g></svg>