<svg xmlns="http://www.w3.org/2000/svg" xmlns:xlink="http://www.w3.org/1999/xlink" width="500" zoomAndPan="magnify" viewBox="0 0 375 374.999991" height="500" preserveAspectRatio="xMidYMid meet" version="1.0"><defs><g/><clipPath id="f8bc2ae533"><path d="M 22.320312 35 L 331 35 L 331 261 L 22.320312 261 Z M 22.320312 35 " clip-rule="nonzero"/></clipPath><clipPath id="8ef09a013c"><path d="M 43 26.292969 L 352 26.292969 L 352 253 L 43 253 Z M 43 26.292969 " clip-rule="nonzero"/></clipPath></defs><path fill="#1a1a1a" d="M 245.238281 255.96875 L 256.199219 216.621094 C 166.765625 227.28125 39.609375 169.261719 27.035156 92.6875 L 116.929688 39.558594 C 133.875 116.105469 180.136719 200.164062 257.46875 188.519531 L 245.167969 140.046875 L 326.324219 201.296875 Z M 245.238281 255.96875 " fill-opacity="1" fill-rule="evenodd"/><g clip-path="url(#f8bc2ae533)"><path fill="#1a1a1a" d="M 240.953125 254.78125 L 250.160156 221.714844 C 204.015625 225.476562 149.351562 212.292969 105.191406 188.410156 C 62.167969 165.144531 28.917969 131.605469 22.644531 93.402344 C 22.339844 91.539062 23.242188 89.753906 24.773438 88.847656 L 114.664062 35.714844 C 116.78125 34.460938 119.515625 35.164062 120.765625 37.285156 C 121.0625 37.789062 121.25 38.332031 121.335938 38.878906 C 130.613281 80.636719 148.6875 124.554688 175.820312 153.3125 C 196.035156 174.738281 221.363281 187.675781 251.902344 184.707031 L 240.847656 141.148438 C 240.242188 138.753906 241.683594 136.320312 244.070312 135.710938 C 245.5625 135.332031 247.074219 135.757812 248.140625 136.710938 L 328.988281 197.730469 C 330.953125 199.207031 331.351562 202 329.878906 203.96875 C 329.570312 204.382812 329.203125 204.726562 328.796875 205 L 247.714844 259.671875 C 245.675781 261.042969 242.910156 260.496094 241.542969 258.449219 C 240.796875 257.328125 240.621094 255.988281 240.953125 254.78125 Z M 260.484375 217.808594 L 252.769531 245.519531 L 318.660156 201.089844 L 252.613281 151.242188 L 261.792969 187.417969 C 261.828125 187.5625 261.855469 187.707031 261.878906 187.855469 C 262.246094 190.296875 260.566406 192.574219 258.132812 192.941406 C 222.113281 198.363281 192.585938 184.035156 169.371094 159.425781 C 142.269531 130.703125 123.902344 87.867188 113.96875 46.492188 L 31.984375 94.949219 C 38.996094 128.929688 69.796875 159.125 109.410156 180.550781 C 154.183594 204.761719 209.988281 217.628906 255.675781 212.179688 L 255.675781 212.191406 C 256.234375 212.125 256.8125 212.164062 257.382812 212.320312 C 259.75 212.976562 261.140625 215.433594 260.484375 217.808594 Z M 260.484375 217.808594 " fill-opacity="1" fill-rule="nonzero"/></g><path fill="#f6c336" d="M 266.1875 247.800781 L 277.148438 208.453125 C 187.714844 219.117188 60.558594 161.09375 47.984375 84.519531 L 137.878906 31.390625 C 154.824219 107.9375 201.085938 191.996094 278.417969 180.351562 L 266.117188 131.878906 L 347.269531 193.128906 Z M 266.1875 247.800781 " fill-opacity="1" fill-rule="evenodd"/><g clip-path="url(#8ef09a013c)"><path fill="#ef442a" d="M 261.902344 246.613281 L 271.109375 213.546875 C 224.964844 217.3125 170.300781 204.125 126.140625 180.242188 C 83.117188 156.976562 49.867188 123.4375 43.59375 85.238281 C 43.289062 83.371094 44.191406 81.585938 45.722656 80.679688 L 135.613281 27.546875 C 137.730469 26.292969 140.464844 26.996094 141.714844 29.117188 C 142.011719 29.625 142.199219 30.164062 142.28125 30.710938 C 151.5625 72.46875 169.636719 116.386719 196.769531 145.144531 C 216.980469 166.570312 242.3125 179.507812 272.847656 176.539062 L 261.796875 132.980469 C 261.191406 130.585938 262.632812 128.152344 265.019531 127.546875 C 266.511719 127.164062 268.019531 127.589844 269.089844 128.542969 L 349.9375 189.566406 C 351.902344 191.039062 352.300781 193.835938 350.828125 195.800781 C 350.519531 196.214844 350.148438 196.558594 349.746094 196.832031 L 268.664062 251.503906 C 266.621094 252.875 263.859375 252.328125 262.492188 250.28125 C 261.746094 249.160156 261.570312 247.820312 261.902344 246.613281 Z M 281.433594 209.640625 L 273.714844 237.351562 L 339.609375 192.921875 L 273.5625 143.074219 L 282.742188 179.25 C 282.777344 179.394531 282.804688 179.539062 282.828125 179.6875 C 283.195312 182.128906 281.515625 184.40625 279.082031 184.773438 C 243.0625 190.195312 213.535156 175.867188 190.320312 151.261719 C 163.21875 122.535156 144.851562 79.703125 134.917969 38.324219 L 52.933594 86.78125 C 59.945312 120.761719 90.746094 150.957031 130.359375 172.382812 C 175.132812 196.597656 230.933594 209.460938 276.625 204.011719 L 276.625 204.023438 C 277.179688 203.957031 277.757812 203.996094 278.332031 204.152344 C 280.699219 204.808594 282.089844 207.265625 281.433594 209.640625 Z M 281.433594 209.640625 " fill-opacity="1" fill-rule="nonzero"/></g><path fill="#ef4229" d="M 267.632812 242.609375 L 269.085938 237.402344 C 269.476562 238.507812 269.457031 239.765625 268.929688 240.921875 C 268.621094 241.601562 268.171875 242.167969 267.632812 242.609375 Z M 269.894531 234.488281 L 272.070312 226.6875 C 273.398438 228.015625 273.832031 230.085938 273 231.90625 C 272.390625 233.246094 271.21875 234.160156 269.894531 234.488281 Z M 272.390625 225.53125 L 274.816406 216.8125 L 274.824219 216.816406 C 277.105469 217.863281 278.105469 220.574219 277.058594 222.878906 C 276.210938 224.730469 274.296875 225.75 272.390625 225.53125 Z M 275.03125 216.054688 L 277.148438 208.453125 C 276.042969 208.582031 274.929688 208.699219 273.816406 208.808594 C 275.109375 207.476562 277.140625 207.035156 278.914062 207.847656 C 281.179688 208.886719 282.171875 211.574219 281.128906 213.859375 C 280.089844 216.140625 277.410156 217.148438 275.144531 216.109375 Z M 272.421875 208.941406 C 269.628906 209.199219 266.800781 209.390625 263.945312 209.515625 C 263.527344 208.429688 263.53125 207.175781 264.054688 206.027344 C 265.082031 203.777344 267.722656 202.78125 269.957031 203.804688 C 271.933594 204.710938 272.929688 206.890625 272.421875 208.941406 Z M 258.226562 209.679688 C 256.132812 209.714844 254.03125 209.71875 251.914062 209.6875 C 253.183594 208.386719 255.167969 207.953125 256.902344 208.75 C 257.414062 208.984375 257.855469 209.300781 258.226562 209.679688 Z M 250.375 209.660156 C 247.539062 209.597656 244.683594 209.480469 241.808594 209.304688 C 241.703125 208.507812 241.808594 207.667969 242.167969 206.882812 C 243.175781 204.679688 245.761719 203.703125 247.949219 204.707031 C 249.855469 205.582031 250.828125 207.675781 250.375 209.660156 Z M 228.179688 208.082031 C 225.679688 207.785156 223.171875 207.445312 220.660156 207.070312 C 221.816406 205.394531 224.03125 204.734375 225.9375 205.609375 C 227.03125 206.109375 227.808594 207.023438 228.179688 208.082031 Z M 219.148438 206.851562 C 216.453125 206.433594 213.746094 205.96875 211.042969 205.464844 C 211.035156 204.863281 211.160156 204.253906 211.425781 203.671875 C 212.390625 201.554688 214.871094 200.621094 216.972656 201.582031 C 218.972656 202.5 219.898438 204.804688 219.148438 206.851562 Z M 208.300781 204.9375 C 206.535156 204.589844 204.769531 204.222656 203.003906 203.839844 C 202.117188 202.664062 201.886719 201.042969 202.546875 199.601562 C 203.496094 197.515625 205.945312 196.59375 208.015625 197.539062 C 210.085938 198.488281 210.992188 200.953125 210.039062 203.039062 C 209.660156 203.871094 209.039062 204.519531 208.300781 204.9375 Z M 187.820312 200.105469 C 186.015625 199.609375 184.214844 199.097656 182.417969 198.566406 C 183.492188 197.984375 184.8125 197.894531 186.003906 198.441406 C 186.796875 198.804688 187.417969 199.398438 187.820312 200.105469 Z M 179.339844 197.628906 C 177.023438 196.914062 174.714844 196.175781 172.414062 195.402344 C 173.542969 194.109375 175.417969 193.652344 177.046875 194.402344 C 178.375 195.011719 179.207031 196.265625 179.339844 197.628906 Z M 170.28125 194.671875 C 167.855469 193.835938 165.441406 192.972656 163.042969 192.074219 C 164.015625 190.28125 166.214844 189.519531 168.085938 190.375 C 169.75 191.140625 170.617188 192.9375 170.28125 194.671875 Z M 161.042969 191.316406 C 158.667969 190.40625 156.304688 189.46875 153.957031 188.496094 C 153.988281 188.417969 154.019531 188.335938 154.058594 188.257812 C 154.9375 186.328125 157.207031 185.472656 159.121094 186.351562 C 160.996094 187.210938 161.839844 189.414062 161.042969 191.316406 Z M 151.835938 187.613281 C 149.546875 186.648438 147.28125 185.648438 145.027344 184.628906 C 145.074219 184.480469 145.128906 184.335938 145.195312 184.195312 C 146.058594 182.300781 148.28125 181.464844 150.15625 182.328125 C 152.03125 183.1875 152.855469 185.417969 151.992188 187.308594 C 151.941406 187.414062 151.890625 187.515625 151.835938 187.613281 Z M 142.789062 183.601562 C 140.570312 182.570312 138.371094 181.507812 136.195312 180.425781 C 136.230469 180.324219 136.273438 180.222656 136.316406 180.121094 C 137.164062 178.261719 139.351562 177.4375 141.199219 178.285156 C 143.046875 179.132812 143.855469 181.328125 143.007812 183.191406 C 142.941406 183.335938 142.867188 183.472656 142.789062 183.601562 Z M 133.898438 179.277344 C 131.75 178.183594 129.628906 177.054688 127.527344 175.910156 C 128.40625 174.191406 130.476562 173.453125 132.234375 174.261719 C 134.042969 175.089844 134.835938 177.238281 134.003906 179.0625 C 133.96875 179.136719 133.933594 179.207031 133.898438 179.277344 Z M 125.15625 174.605469 C 123.121094 173.46875 121.113281 172.304688 119.132812 171.121094 C 120.140625 169.960938 121.820312 169.546875 123.28125 170.21875 C 124.949219 170.984375 125.738281 172.894531 125.15625 174.605469 Z M 116.335938 169.433594 C 114.640625 168.390625 112.964844 167.332031 111.3125 166.257812 C 112.222656 165.796875 113.320312 165.734375 114.316406 166.191406 C 115.609375 166.785156 116.363281 168.085938 116.335938 169.433594 Z M 106.589844 163.109375 C 106.0625 162.75 105.542969 162.382812 105.019531 162.015625 C 105.132812 162.054688 105.246094 162.097656 105.359375 162.152344 C 105.855469 162.378906 106.269531 162.710938 106.589844 163.109375 Z M 90.941406 151.246094 C 89.585938 150.109375 88.257812 148.957031 86.953125 147.796875 C 86.984375 147.4375 87.078125 147.078125 87.234375 146.734375 C 87.984375 145.09375 89.90625 144.371094 91.53125 145.117188 C 93.15625 145.863281 93.867188 147.792969 93.121094 149.429688 C 92.6875 150.375 91.871094 151.015625 90.941406 151.246094 Z M 84.160156 145.253906 C 82.691406 143.890625 81.253906 142.511719 79.855469 141.113281 C 80.679688 140.707031 81.675781 140.660156 82.574219 141.074219 C 84.152344 141.796875 84.855469 143.660156 84.160156 145.253906 Z M 69.195312 129.253906 C 67.9375 127.683594 66.726562 126.101562 65.5625 124.5 C 66.421875 123.773438 67.652344 123.558594 68.738281 124.058594 C 70.234375 124.742188 70.890625 126.527344 70.203125 128.039062 C 69.972656 128.542969 69.617188 128.957031 69.195312 129.253906 Z M 56.53125 109.886719 C 56.070312 108.988281 55.628906 108.082031 55.199219 107.175781 C 56.140625 107.75 56.644531 108.816406 56.53125 109.886719 Z M 51.328125 97.6875 C 50.925781 96.5 50.546875 95.308594 50.195312 94.109375 C 51.433594 94.777344 51.957031 96.3125 51.359375 97.625 Z M 55.175781 80.269531 L 59.609375 77.648438 C 59.8125 78.261719 59.792969 78.949219 59.503906 79.585938 C 58.898438 80.910156 57.34375 81.496094 56.027344 80.894531 C 55.695312 80.742188 55.40625 80.527344 55.175781 80.269531 Z M 67.582031 72.9375 L 70.859375 71 C 71 71.039062 71.136719 71.085938 71.273438 71.148438 C 72.605469 71.761719 73.191406 73.347656 72.578125 74.691406 C 71.964844 76.039062 70.386719 76.632812 69.050781 76.023438 C 67.867188 75.476562 67.273438 74.167969 67.582031 72.9375 Z M 86.058594 62.019531 L 89.949219 59.71875 C 89.941406 60.070312 89.863281 60.429688 89.707031 60.773438 C 89.097656 62.109375 87.53125 62.699219 86.207031 62.089844 Z M 97.691406 55.140625 L 101.972656 52.613281 C 102.949219 53.355469 103.316406 54.710938 102.78125 55.878906 C 102.164062 57.238281 100.574219 57.835938 99.230469 57.21875 C 98.367188 56.824219 97.8125 56.023438 97.691406 55.140625 Z M 117.347656 43.527344 L 119.878906 42.03125 C 119.394531 43.019531 118.378906 43.578125 117.347656 43.527344 Z M 128.117188 37.160156 L 132.769531 34.410156 C 133.277344 35.171875 133.394531 36.171875 132.984375 37.070312 C 132.363281 38.433594 130.761719 39.035156 129.40625 38.417969 C 128.820312 38.148438 128.378906 37.699219 128.117188 37.160156 Z M 139.242188 37.277344 C 139.667969 39.042969 140.101562 40.8125 140.558594 42.582031 C 139.863281 42.886719 139.054688 42.902344 138.3125 42.5625 C 136.929688 41.929688 136.324219 40.285156 136.960938 38.890625 C 137.394531 37.945312 138.28125 37.359375 139.242188 37.277344 Z M 142.753906 50.703125 C 143.257812 52.476562 143.777344 54.253906 144.3125 56.027344 C 143.902344 56.035156 143.488281 55.953125 143.089844 55.769531 C 141.648438 55.109375 141.015625 53.394531 141.679688 51.941406 C 141.921875 51.414062 142.300781 50.992188 142.753906 50.703125 Z M 146.90625 64.246094 C 147.453125 65.894531 148.015625 67.539062 148.585938 69.179688 C 148.347656 69.136719 148.109375 69.0625 147.875 68.957031 C 146.382812 68.273438 145.730469 66.503906 146.417969 65 C 146.546875 64.71875 146.710938 64.46875 146.90625 64.246094 Z M 151.578125 77.378906 C 152.214844 79.058594 152.871094 80.730469 153.539062 82.394531 C 153.242188 82.355469 152.945312 82.273438 152.660156 82.140625 C 151.121094 81.4375 150.449219 79.609375 151.152344 78.058594 C 151.269531 77.808594 151.410156 77.582031 151.578125 77.378906 Z M 156.714844 89.96875 C 157.539062 91.863281 158.378906 93.75 159.246094 95.613281 C 158.648438 95.710938 158.015625 95.636719 157.425781 95.367188 C 155.820312 94.628906 155.117188 92.71875 155.855469 91.101562 C 156.0625 90.648438 156.359375 90.269531 156.714844 89.96875 Z M 162.507812 102.402344 C 163.488281 104.363281 164.488281 106.300781 165.511719 108.21875 C 164.582031 108.894531 163.328125 109.0625 162.210938 108.550781 C 160.558594 107.792969 159.832031 105.828125 160.59375 104.160156 C 160.984375 103.304688 161.691406 102.691406 162.507812 102.402344 Z M 169.484375 115.367188 C 170.234375 116.664062 171 117.945312 171.773438 119.214844 C 171.722656 119.5 171.636719 119.777344 171.511719 120.050781 C 170.726562 121.777344 168.699219 122.539062 166.988281 121.757812 C 165.277344 120.972656 164.527344 118.9375 165.3125 117.210938 C 166.046875 115.601562 167.855469 114.832031 169.484375 115.367188 Z M 173.878906 122.597656 C 174.601562 123.738281 175.332031 124.863281 176.074219 125.980469 C 176.011719 125.957031 175.953125 125.933594 175.894531 125.90625 C 174.578125 125.300781 173.824219 123.96875 173.878906 122.597656 Z M 180.644531 132.566406 C 182.03125 134.472656 183.445312 136.339844 184.890625 138.164062 C 183.875 139.359375 182.160156 139.792969 180.671875 139.109375 C 178.875 138.285156 178.085938 136.144531 178.914062 134.332031 C 179.28125 133.527344 179.90625 132.917969 180.644531 132.566406 Z M 194.726562 149.4375 C 196.292969 151.058594 197.886719 152.628906 199.511719 154.148438 C 199.464844 154.296875 199.40625 154.441406 199.339844 154.585938 C 198.472656 156.488281 196.242188 157.328125 194.355469 156.460938 C 192.46875 155.597656 191.644531 153.355469 192.511719 151.453125 C 192.960938 150.464844 193.78125 149.761719 194.726562 149.4375 Z M 201.289062 155.769531 C 203.082031 157.386719 204.910156 158.945312 206.773438 160.429688 C 205.738281 161.039062 204.433594 161.148438 203.265625 160.609375 C 201.429688 159.769531 200.582031 157.644531 201.289062 155.769531 Z M 210.445312 163.230469 C 211.292969 163.847656 212.148438 164.460938 213.007812 165.050781 C 212.722656 164.996094 212.441406 164.902344 212.164062 164.777344 C 211.417969 164.433594 210.835938 163.886719 210.445312 163.230469 Z M 245.792969 179.484375 C 247.953125 179.949219 250.144531 180.332031 252.367188 180.632812 C 251.167969 181.769531 249.363281 182.132812 247.777344 181.40625 C 246.882812 180.996094 246.203125 180.304688 245.792969 179.484375 Z M 254.285156 180.886719 C 257.035156 181.195312 259.839844 181.363281 262.683594 181.410156 C 262.726562 182.089844 262.605469 182.789062 262.300781 183.453125 C 261.324219 185.597656 258.804688 186.546875 256.679688 185.570312 C 254.863281 184.738281 253.917969 182.773438 254.285156 180.886719 Z M 276.085938 180.660156 C 276.863281 180.5625 277.636719 180.46875 278.417969 180.351562 L 277.691406 177.492188 C 278.933594 176.476562 280.683594 176.191406 282.230469 176.902344 C 284.410156 177.898438 285.363281 180.484375 284.363281 182.679688 C 283.359375 184.875 280.785156 185.84375 278.609375 184.84375 C 276.945312 184.082031 275.996094 182.394531 276.085938 180.660156 Z M 276.289062 171.960938 L 274.210938 163.769531 C 275.203125 163.417969 276.328125 163.433594 277.359375 163.910156 C 279.480469 164.878906 280.40625 167.398438 279.433594 169.53125 C 278.824219 170.863281 277.621094 171.730469 276.289062 171.960938 Z M 272.816406 158.269531 L 270.851562 150.523438 C 271.402344 150.53125 271.960938 150.652344 272.496094 150.898438 C 274.566406 151.847656 275.472656 154.308594 274.519531 156.394531 C 274.144531 157.214844 273.539062 157.851562 272.816406 158.269531 Z M 269.179688 143.949219 L 267.652344 137.917969 C 269.644531 138.851562 270.511719 141.230469 269.589844 143.246094 C 269.476562 143.5 269.335938 143.730469 269.179688 143.949219 Z M 266.921875 135.042969 L 266.136719 131.941406 L 266.144531 131.898438 L 271.789062 136.160156 C 270.757812 136.667969 269.519531 136.726562 268.394531 136.210938 C 267.796875 135.9375 267.300781 135.53125 266.921875 135.042969 Z M 275.78125 139.171875 L 277.484375 140.457031 C 277.421875 140.433594 277.359375 140.40625 277.292969 140.375 C 276.679688 140.09375 276.167969 139.675781 275.78125 139.171875 Z M 284.335938 145.628906 L 287.617188 148.105469 C 288.066406 149.152344 288.085938 150.375 287.574219 151.492188 C 286.621094 153.589844 284.160156 154.515625 282.078125 153.5625 C 280 152.609375 279.089844 150.136719 280.046875 148.039062 C 280.820312 146.339844 282.585938 145.410156 284.335938 145.628906 Z M 290.496094 150.277344 L 296.796875 155.03125 C 296.738281 155.230469 296.667969 155.425781 296.578125 155.621094 C 295.605469 157.757812 293.097656 158.699219 290.980469 157.726562 C 288.859375 156.757812 287.933594 154.238281 288.90625 152.105469 C 289.261719 151.324219 289.824219 150.703125 290.496094 150.277344 Z M 297.929688 155.886719 L 304.695312 160.996094 C 303.464844 162.234375 301.558594 162.640625 299.886719 161.878906 C 297.738281 160.894531 296.800781 158.339844 297.785156 156.175781 C 297.832031 156.078125 297.878906 155.980469 297.929688 155.886719 Z M 306.269531 162.183594 L 311.691406 166.273438 C 310.757812 166.519531 309.738281 166.457031 308.792969 166.027344 C 307.242188 165.3125 306.3125 163.792969 306.269531 162.183594 Z M 323.109375 174.894531 L 328.875 179.246094 C 328.875 179.875 328.742188 180.515625 328.460938 181.125 C 327.421875 183.40625 324.742188 184.414062 322.480469 183.378906 C 320.214844 182.339844 319.226562 179.648438 320.265625 177.367188 C 320.835938 176.117188 321.894531 175.253906 323.109375 174.894531 Z M 330.011719 180.101562 L 337.304688 185.605469 C 336.140625 187.691406 333.5625 188.566406 331.367188 187.5625 C 329.058594 186.5 328.046875 183.753906 329.109375 181.421875 C 329.339844 180.917969 329.644531 180.476562 330.011719 180.101562 Z M 337.796875 185.980469 L 344.855469 191.304688 C 343.546875 192.203125 341.820312 192.414062 340.277344 191.710938 C 338.097656 190.707031 337.058594 188.222656 337.796875 185.980469 Z M 346.523438 192.566406 L 347.269531 193.128906 L 346.804688 193.441406 C 346.683594 193.160156 346.589844 192.867188 346.523438 192.566406 Z M 342.816406 196.132812 L 336.046875 200.699219 C 333.761719 199.578125 332.777344 196.824219 333.84375 194.480469 C 334.933594 192.101562 337.726562 191.050781 340.082031 192.132812 C 341.714844 192.878906 342.710938 194.449219 342.816406 196.132812 Z M 335.65625 200.960938 L 329.273438 205.265625 C 329.296875 204.660156 329.4375 204.050781 329.703125 203.46875 C 330.746094 201.183594 333.351562 200.113281 335.65625 200.960938 Z M 325.121094 208.0625 L 317.292969 213.34375 C 316.207031 211.988281 315.910156 210.078125 316.683594 208.386719 C 317.773438 205.996094 320.578125 204.941406 322.945312 206.027344 C 323.910156 206.46875 324.652344 207.195312 325.121094 208.0625 Z M 314.648438 215.125 L 313.824219 215.679688 C 314.082031 215.464844 314.355469 215.28125 314.648438 215.125 Z M 312.410156 216.636719 L 307.488281 219.953125 C 306.976562 219.90625 306.46875 219.773438 305.976562 219.550781 C 303.625 218.472656 302.597656 215.679688 303.679688 213.308594 C 304.757812 210.9375 307.539062 209.890625 309.890625 210.972656 C 312.050781 211.960938 313.097656 214.40625 312.410156 216.636719 Z M 306.703125 220.484375 L 299.261719 225.5 C 298.988281 224.472656 299.058594 223.34375 299.535156 222.296875 C 300.625 219.910156 303.429688 218.851562 305.800781 219.941406 C 306.128906 220.089844 306.429688 220.273438 306.703125 220.484375 Z M 295.375 228.121094 L 288.066406 233.046875 C 286.253906 231.765625 285.550781 229.320312 286.511719 227.214844 C 287.597656 224.832031 290.390625 223.78125 292.753906 224.867188 C 294.136719 225.5 295.066406 226.730469 295.375 228.121094 Z M 287.449219 233.464844 L 282.066406 237.09375 C 282.136719 236.792969 282.238281 236.492188 282.371094 236.199219 C 283.285156 234.199219 285.394531 233.132812 287.449219 233.464844 Z M 277.410156 240.234375 L 269.589844 245.507812 C 268.835938 244.21875 268.699219 242.589844 269.367188 241.125 C 270.453125 238.746094 273.246094 237.695312 275.605469 238.777344 C 276.34375 239.113281 276.953125 239.625 277.410156 240.234375 Z M 125.28125 47.453125 C 126.65625 48.085938 128.28125 47.472656 128.914062 46.089844 C 129.546875 44.703125 128.945312 43.070312 127.570312 42.441406 C 126.195312 41.8125 124.570312 42.421875 123.9375 43.808594 C 123.308594 45.191406 123.90625 46.824219 125.28125 47.453125 Z M 134.191406 51.601562 C 135.59375 52.246094 137.25 51.621094 137.898438 50.207031 C 138.542969 48.792969 137.929688 47.125 136.523438 46.484375 C 135.125 45.839844 133.464844 46.464844 132.816406 47.878906 C 132.171875 49.292969 132.789062 50.960938 134.191406 51.601562 Z M 112.257812 52.328125 C 113.613281 52.949219 115.214844 52.34375 115.839844 50.980469 C 116.460938 49.617188 115.867188 48.007812 114.515625 47.382812 C 113.160156 46.765625 111.558594 47.367188 110.933594 48.734375 C 110.3125 50.097656 110.90625 51.707031 112.257812 52.328125 Z M 121.160156 56.496094 C 122.550781 57.132812 124.199219 56.511719 124.839844 55.109375 C 125.480469 53.703125 124.871094 52.046875 123.480469 51.410156 C 122.085938 50.769531 120.4375 51.390625 119.796875 52.796875 C 119.15625 54.199219 119.765625 55.855469 121.160156 56.496094 Z M 130.066406 60.640625 C 131.488281 61.292969 133.171875 60.660156 133.824219 59.226562 C 134.480469 57.792969 133.855469 56.101562 132.433594 55.453125 C 131.011719 54.800781 129.332031 55.433594 128.675781 56.867188 C 128.023438 58.300781 128.644531 59.988281 130.066406 60.640625 Z M 138.96875 64.808594 C 140.425781 65.476562 142.15625 64.824219 142.828125 63.355469 C 143.5 61.882812 142.859375 60.148438 141.398438 59.476562 C 139.9375 58.808594 138.210938 59.457031 137.539062 60.929688 C 136.867188 62.402344 137.507812 64.136719 138.96875 64.808594 Z M 108.136719 61.367188 C 109.507812 61.996094 111.132812 61.386719 111.765625 60 C 112.398438 58.617188 111.796875 56.984375 110.421875 56.351562 C 109.050781 55.722656 107.425781 56.335938 106.792969 57.71875 C 106.160156 59.105469 106.761719 60.738281 108.136719 61.367188 Z M 117.035156 65.53125 C 118.449219 66.179688 120.117188 65.550781 120.769531 64.128906 C 121.417969 62.703125 120.800781 61.023438 119.386719 60.378906 C 117.976562 59.730469 116.304688 60.359375 115.652344 61.78125 C 115.003906 63.207031 115.625 64.886719 117.035156 65.53125 Z M 125.941406 69.679688 C 127.386719 70.339844 129.089844 69.699219 129.753906 68.246094 C 130.414062 66.792969 129.785156 65.082031 128.34375 64.417969 C 126.902344 63.757812 125.195312 64.402344 124.535156 65.855469 C 123.871094 67.304688 124.503906 69.019531 125.941406 69.679688 Z M 134.84375 73.847656 C 136.324219 74.523438 138.074219 73.867188 138.753906 72.375 C 139.4375 70.882812 138.785156 69.121094 137.308594 68.445312 C 135.828125 67.765625 134.074219 68.425781 133.394531 69.917969 C 132.714844 71.40625 133.363281 73.167969 134.84375 73.847656 Z M 143.75 77.996094 C 145.261719 78.6875 147.046875 78.015625 147.738281 76.492188 C 148.433594 74.972656 147.773438 73.179688 146.265625 72.488281 C 144.753906 71.796875 142.96875 72.46875 142.273438 73.988281 C 141.582031 75.507812 142.242188 77.300781 143.75 77.996094 Z M 95.105469 66.257812 C 96.46875 66.882812 98.082031 66.277344 98.710938 64.898438 C 99.335938 63.523438 98.738281 61.90625 97.375 61.277344 C 96.011719 60.65625 94.398438 61.261719 93.769531 62.636719 C 93.144531 64.011719 93.742188 65.632812 95.105469 66.257812 Z M 104.011719 70.40625 C 105.40625 71.042969 107.054688 70.421875 107.695312 69.019531 C 108.335938 67.617188 107.722656 65.960938 106.332031 65.320312 C 104.941406 64.683594 103.289062 65.304688 102.648438 66.707031 C 102.007812 68.113281 102.621094 69.765625 104.011719 70.40625 Z M 112.910156 74.570312 C 114.34375 75.226562 116.039062 74.589844 116.695312 73.148438 C 117.355469 71.703125 116.726562 70.003906 115.296875 69.347656 C 113.863281 68.6875 112.171875 69.328125 111.511719 70.769531 C 110.851562 72.210938 111.480469 73.914062 112.910156 74.570312 Z M 121.820312 78.71875 C 123.28125 79.390625 125.007812 78.738281 125.679688 77.265625 C 126.351562 75.792969 125.710938 74.058594 124.25 73.386719 C 122.792969 72.71875 121.0625 73.367188 120.390625 74.839844 C 119.71875 76.3125 120.359375 78.050781 121.820312 78.71875 Z M 130.71875 82.886719 C 132.21875 83.574219 133.992188 82.90625 134.683594 81.390625 C 135.371094 79.882812 134.714844 78.101562 133.21875 77.414062 C 131.71875 76.726562 129.941406 77.394531 129.253906 78.902344 C 128.566406 80.414062 129.21875 82.199219 130.71875 82.886719 Z M 139.628906 87.035156 C 141.15625 87.734375 142.964844 87.050781 143.667969 85.511719 C 144.371094 83.972656 143.699219 82.15625 142.171875 81.457031 C 140.644531 80.753906 138.835938 81.433594 138.132812 82.976562 C 137.429688 84.515625 138.097656 86.332031 139.628906 87.035156 Z M 148.527344 91.199219 C 150.09375 91.917969 151.949219 91.21875 152.667969 89.640625 C 153.390625 88.058594 152.703125 86.199219 151.136719 85.480469 C 149.570312 84.761719 147.714844 85.460938 146.996094 87.039062 C 146.273438 88.617188 146.960938 90.480469 148.527344 91.199219 Z M 273.171875 149.414062 C 275.222656 150.355469 277.648438 149.441406 278.59375 147.375 C 279.535156 145.308594 278.636719 142.871094 276.585938 141.929688 C 274.535156 140.988281 272.109375 141.902344 271.164062 143.96875 C 270.222656 146.035156 271.121094 148.476562 273.171875 149.414062 Z M 82.082031 71.128906 C 83.425781 71.746094 85.015625 71.148438 85.636719 69.792969 C 86.253906 68.4375 85.664062 66.839844 84.320312 66.222656 C 82.976562 65.605469 81.386719 66.207031 80.765625 67.558594 C 80.148438 68.914062 80.738281 70.515625 82.082031 71.128906 Z M 90.980469 75.296875 C 92.363281 75.929688 94 75.3125 94.636719 73.917969 C 95.273438 72.527344 94.667969 70.882812 93.285156 70.246094 C 91.902344 69.613281 90.265625 70.230469 89.628906 71.625 C 88.992188 73.015625 89.597656 74.660156 90.980469 75.296875 Z M 99.886719 79.445312 C 101.300781 80.09375 102.972656 79.460938 103.621094 78.039062 C 104.269531 76.617188 103.652344 74.9375 102.242188 74.289062 C 100.828125 73.640625 99.15625 74.269531 98.507812 75.695312 C 97.859375 77.117188 98.476562 78.796875 99.886719 79.445312 Z M 108.789062 83.609375 C 110.238281 84.273438 111.957031 83.628906 112.621094 82.167969 C 113.292969 80.703125 112.65625 78.980469 111.203125 78.3125 C 109.753906 77.648438 108.035156 78.296875 107.371094 79.757812 C 106.703125 81.21875 107.335938 82.945312 108.789062 83.609375 Z M 117.695312 87.757812 C 119.175781 88.4375 120.929688 87.777344 121.609375 86.285156 C 122.289062 84.792969 121.640625 83.035156 120.160156 82.355469 C 118.683594 81.679688 116.929688 82.335938 116.25 83.828125 C 115.566406 85.320312 116.21875 87.078125 117.695312 87.757812 Z M 126.597656 91.925781 C 128.113281 92.621094 129.914062 91.941406 130.609375 90.414062 C 131.308594 88.882812 130.644531 87.078125 129.125 86.378906 C 127.605469 85.683594 125.808594 86.359375 125.109375 87.890625 C 124.414062 89.421875 125.078125 91.226562 126.597656 91.925781 Z M 135.503906 96.074219 C 137.050781 96.78125 138.882812 96.089844 139.59375 94.53125 C 140.304688 92.972656 139.628906 91.132812 138.082031 90.421875 C 136.535156 89.714844 134.703125 90.402344 133.992188 91.960938 C 133.277344 93.523438 133.957031 95.363281 135.503906 96.074219 Z M 144.402344 100.238281 C 145.988281 100.964844 147.867188 100.257812 148.597656 98.660156 C 149.328125 97.0625 148.632812 95.175781 147.046875 94.449219 C 145.460938 93.71875 143.582031 94.425781 142.851562 96.027344 C 142.121094 97.625 142.816406 99.511719 144.402344 100.238281 Z M 153.304688 104.402344 C 154.929688 105.148438 156.851562 104.425781 157.597656 102.789062 C 158.347656 101.148438 157.632812 99.21875 156.007812 98.472656 C 154.382812 97.726562 152.460938 98.449219 151.714844 100.089844 C 150.96875 101.726562 151.679688 103.660156 153.304688 104.402344 Z M 277.957031 162.601562 C 280.054688 163.5625 282.539062 162.628906 283.503906 160.511719 C 284.46875 158.398438 283.550781 155.902344 281.449219 154.941406 C 279.351562 153.976562 276.867188 154.910156 275.902344 157.027344 C 274.9375 159.144531 275.855469 161.640625 277.957031 162.601562 Z M 286.855469 166.765625 C 288.992188 167.746094 291.523438 166.792969 292.503906 164.640625 C 293.488281 162.484375 292.554688 159.945312 290.414062 158.964844 C 288.277344 157.984375 285.746094 158.9375 284.765625 161.089844 C 283.78125 163.246094 284.71875 165.789062 286.855469 166.765625 Z M 295.761719 170.914062 C 297.929688 171.910156 300.492188 170.945312 301.488281 168.757812 C 302.488281 166.574219 301.539062 164 299.371094 163.007812 C 297.207031 162.011719 294.640625 162.980469 293.644531 165.164062 C 292.648438 167.347656 293.597656 169.921875 295.761719 170.914062 Z M 304.671875 175.0625 C 306.867188 176.070312 309.464844 175.09375 310.476562 172.878906 C 311.484375 170.664062 310.523438 168.054688 308.328125 167.050781 C 306.128906 166.042969 303.53125 167.019531 302.523438 169.234375 C 301.515625 171.445312 302.476562 174.054688 304.671875 175.0625 Z M 313.570312 179.230469 C 315.804688 180.253906 318.449219 179.257812 319.476562 177.003906 C 320.503906 174.753906 319.527344 172.097656 317.292969 171.074219 C 315.058594 170.050781 312.414062 171.042969 311.386719 173.296875 C 310.359375 175.546875 311.335938 178.203125 313.570312 179.230469 Z M 77.957031 80.167969 C 79.324219 80.792969 80.9375 80.1875 81.5625 78.8125 C 82.191406 77.4375 81.59375 75.816406 80.230469 75.191406 C 78.863281 74.566406 77.25 75.171875 76.625 76.546875 C 75.996094 77.921875 76.59375 79.542969 77.957031 80.167969 Z M 86.859375 84.335938 C 88.261719 84.976562 89.921875 84.351562 90.566406 82.9375 C 91.210938 81.527344 90.597656 79.859375 89.195312 79.214844 C 87.789062 78.574219 86.132812 79.199219 85.488281 80.609375 C 84.84375 82.023438 85.453125 83.691406 86.859375 84.335938 Z M 95.765625 88.484375 C 97.199219 89.140625 98.890625 88.5 99.550781 87.058594 C 100.207031 85.617188 99.582031 83.914062 98.148438 83.257812 C 96.71875 82.601562 95.023438 83.238281 94.367188 84.683594 C 93.707031 86.125 94.332031 87.828125 95.765625 88.484375 Z M 104.664062 92.648438 C 106.136719 93.324219 107.875 92.667969 108.550781 91.1875 C 109.226562 89.703125 108.585938 87.957031 107.113281 87.28125 C 105.644531 86.609375 103.902344 87.261719 103.226562 88.746094 C 102.550781 90.226562 103.195312 91.976562 104.664062 92.648438 Z M 113.574219 96.796875 C 115.070312 97.484375 116.847656 96.816406 117.535156 95.304688 C 118.226562 93.792969 117.570312 92.011719 116.070312 91.324219 C 114.570312 90.636719 112.796875 91.304688 112.105469 92.816406 C 111.417969 94.328125 112.074219 96.109375 113.574219 96.796875 Z M 122.472656 100.960938 C 124.011719 101.667969 125.832031 100.984375 126.539062 99.433594 C 127.246094 97.882812 126.574219 96.054688 125.035156 95.347656 C 123.496094 94.644531 121.675781 95.328125 120.96875 96.878906 C 120.261719 98.429688 120.933594 100.257812 122.472656 100.960938 Z M 131.378906 105.109375 C 132.945312 105.828125 134.800781 105.128906 135.523438 103.550781 C 136.242188 101.972656 135.558594 100.109375 133.992188 99.390625 C 132.421875 98.671875 130.570312 99.371094 129.847656 100.949219 C 129.128906 102.527344 129.8125 104.394531 131.378906 105.109375 Z M 140.28125 109.277344 C 141.886719 110.011719 143.785156 109.296875 144.523438 107.679688 C 145.261719 106.0625 144.558594 104.152344 142.953125 103.414062 C 141.347656 102.679688 139.449219 103.394531 138.710938 105.011719 C 137.972656 106.632812 138.675781 108.542969 140.28125 109.277344 Z M 149.179688 113.441406 C 150.824219 114.195312 152.769531 113.464844 153.527344 111.808594 C 154.28125 110.148438 153.5625 108.195312 151.917969 107.441406 C 150.273438 106.6875 148.328125 107.417969 147.570312 109.078125 C 146.816406 110.734375 147.535156 112.6875 149.179688 113.441406 Z M 158.089844 117.589844 C 159.761719 118.359375 161.742188 117.613281 162.511719 115.925781 C 163.28125 114.238281 162.546875 112.25 160.875 111.484375 C 159.199219 110.714844 157.222656 111.460938 156.453125 113.148438 C 155.679688 114.835938 156.414062 116.824219 158.089844 117.589844 Z M 282.730469 175.804688 C 284.890625 176.796875 287.441406 175.835938 288.433594 173.660156 C 289.425781 171.484375 288.480469 168.921875 286.324219 167.933594 C 284.167969 166.945312 281.613281 167.90625 280.621094 170.078125 C 279.628906 172.253906 280.574219 174.816406 282.730469 175.804688 Z M 291.640625 179.953125 C 293.828125 180.957031 296.414062 179.984375 297.417969 177.777344 C 298.421875 175.574219 297.464844 172.976562 295.28125 171.976562 C 293.09375 170.972656 290.507812 171.945312 289.5 174.148438 C 288.496094 176.351562 289.453125 178.953125 291.640625 179.953125 Z M 300.546875 184.101562 C 302.761719 185.117188 305.382812 184.132812 306.402344 181.898438 C 307.421875 179.667969 306.453125 177.03125 304.234375 176.019531 C 302.019531 175.003906 299.398438 175.988281 298.382812 178.21875 C 297.363281 180.453125 298.332031 183.085938 300.546875 184.101562 Z M 309.445312 188.269531 C 311.699219 189.300781 314.367188 188.296875 315.40625 186.027344 C 316.441406 183.753906 315.453125 181.074219 313.199219 180.042969 C 310.945312 179.007812 308.277344 180.011719 307.242188 182.285156 C 306.207031 184.554688 307.191406 187.234375 309.445312 188.269531 Z M 318.347656 192.433594 C 320.640625 193.484375 323.351562 192.464844 324.40625 190.152344 C 325.460938 187.84375 324.457031 185.117188 322.164062 184.066406 C 319.871094 183.015625 317.15625 184.035156 316.105469 186.347656 C 315.050781 188.65625 316.054688 191.382812 318.347656 192.433594 Z M 327.246094 196.601562 C 329.578125 197.667969 332.335938 196.628906 333.410156 194.28125 C 334.480469 191.929688 333.460938 189.160156 331.128906 188.089844 C 328.796875 187.023438 326.039062 188.058594 324.96875 190.410156 C 323.894531 192.757812 324.914062 195.53125 327.246094 196.601562 Z M 64.925781 85.058594 C 66.28125 85.679688 67.882812 85.078125 68.507812 83.710938 C 69.128906 82.347656 68.535156 80.738281 67.183594 80.117188 C 65.828125 79.496094 64.226562 80.097656 63.601562 81.464844 C 62.980469 82.828125 63.574219 84.4375 64.925781 85.058594 Z M 73.835938 89.207031 C 75.21875 89.84375 76.855469 89.226562 77.492188 87.832031 C 78.128906 86.4375 77.519531 84.792969 76.136719 84.160156 C 74.753906 83.523438 73.117188 84.140625 72.480469 85.535156 C 71.847656 86.929688 72.453125 88.574219 73.835938 89.207031 Z M 82.734375 93.375 C 84.15625 94.027344 85.839844 93.390625 86.492188 91.957031 C 87.148438 90.527344 86.523438 88.835938 85.101562 88.183594 C 83.679688 87.53125 82 88.164062 81.34375 89.597656 C 80.6875 91.03125 81.3125 92.722656 82.734375 93.375 Z M 91.640625 97.523438 C 93.09375 98.1875 94.808594 97.539062 95.476562 96.078125 C 96.144531 94.613281 95.507812 92.890625 94.058594 92.226562 C 92.609375 91.558594 90.890625 92.207031 90.222656 93.671875 C 89.558594 95.132812 90.191406 96.855469 91.640625 97.523438 Z M 100.542969 101.6875 C 102.03125 102.371094 103.792969 101.707031 104.480469 100.207031 C 105.164062 98.703125 104.511719 96.933594 103.023438 96.25 C 101.53125 95.566406 99.769531 96.230469 99.085938 97.730469 C 98.402344 99.234375 99.054688 101.003906 100.542969 101.6875 Z M 109.449219 105.835938 C 110.96875 106.53125 112.765625 105.855469 113.464844 104.324219 C 114.164062 102.792969 113.496094 100.988281 111.980469 100.292969 C 110.460938 99.597656 108.664062 100.273438 107.964844 101.804688 C 107.265625 103.335938 107.929688 105.140625 109.449219 105.835938 Z M 118.351562 110.003906 C 119.90625 110.714844 121.75 110.023438 122.464844 108.453125 C 123.183594 106.882812 122.5 105.03125 120.941406 104.316406 C 119.386719 103.605469 117.542969 104.296875 116.828125 105.867188 C 116.109375 107.4375 116.792969 109.285156 118.351562 110.003906 Z M 127.25 114.167969 C 128.84375 114.898438 130.734375 114.1875 131.46875 112.578125 C 132.203125 110.972656 131.503906 109.074219 129.90625 108.34375 C 128.3125 107.609375 126.421875 108.320312 125.6875 109.929688 C 124.953125 111.539062 125.652344 113.4375 127.25 114.167969 Z M 136.15625 118.316406 C 137.78125 119.058594 139.707031 118.335938 140.453125 116.699219 C 141.199219 115.0625 140.488281 113.128906 138.863281 112.382812 C 137.238281 111.640625 135.3125 112.363281 134.566406 114 C 133.820312 115.636719 134.53125 117.570312 136.15625 118.316406 Z M 145.058594 122.480469 C 146.71875 123.242188 148.691406 122.503906 149.457031 120.828125 C 150.21875 119.148438 149.492188 117.171875 147.828125 116.410156 C 146.164062 115.644531 144.195312 116.386719 143.429688 118.0625 C 142.664062 119.742188 143.394531 121.71875 145.058594 122.480469 Z M 153.964844 126.628906 C 155.65625 127.40625 157.660156 126.652344 158.4375 124.945312 C 159.21875 123.238281 158.476562 121.226562 156.78125 120.449219 C 155.089844 119.675781 153.085938 120.429688 152.308594 122.136719 C 151.53125 123.839844 152.273438 125.855469 153.964844 126.628906 Z M 162.863281 130.796875 C 164.59375 131.589844 166.644531 130.816406 167.441406 129.074219 C 168.238281 127.328125 167.480469 125.269531 165.75 124.476562 C 164.015625 123.683594 161.964844 124.453125 161.171875 126.199219 C 160.375 127.941406 161.132812 130 162.863281 130.796875 Z M 171.769531 134.945312 C 173.53125 135.75 175.617188 134.96875 176.425781 133.191406 C 177.234375 131.417969 176.464844 129.324219 174.703125 128.515625 C 172.941406 127.710938 170.859375 128.496094 170.050781 130.269531 C 169.242188 132.042969 170.011719 134.136719 171.769531 134.945312 Z M 287.515625 188.992188 C 289.722656 190.003906 292.332031 189.023438 293.347656 186.796875 C 294.359375 184.574219 293.394531 181.953125 291.1875 180.941406 C 288.984375 179.933594 286.375 180.914062 285.359375 183.136719 C 284.34375 185.359375 285.308594 187.980469 287.515625 188.992188 Z M 296.425781 193.140625 C 298.65625 194.167969 301.300781 193.171875 302.332031 190.917969 C 303.355469 188.664062 302.378906 186.007812 300.144531 184.984375 C 297.910156 183.960938 295.265625 184.957031 294.238281 187.207031 C 293.210938 189.460938 294.1875 192.117188 296.425781 193.140625 Z M 305.324219 197.308594 C 307.597656 198.347656 310.285156 197.335938 311.332031 195.046875 C 312.378906 192.753906 311.382812 190.050781 309.109375 189.011719 C 306.835938 187.96875 304.144531 188.980469 303.101562 191.273438 C 302.054688 193.5625 303.050781 196.265625 305.324219 197.308594 Z M 314.222656 201.472656 C 316.535156 202.53125 319.269531 201.503906 320.332031 199.171875 C 321.398438 196.84375 320.382812 194.09375 318.074219 193.035156 C 315.761719 191.976562 313.027344 193.003906 311.960938 195.332031 C 310.898438 197.664062 311.914062 200.414062 314.222656 201.472656 Z M 323.121094 205.640625 C 325.472656 206.71875 328.253906 205.667969 329.335938 203.300781 C 330.417969 200.929688 329.386719 198.136719 327.039062 197.058594 C 324.6875 195.980469 321.90625 197.027344 320.824219 199.398438 C 319.742188 201.765625 320.773438 204.5625 323.121094 205.640625 Z M 51.902344 89.933594 C 53.238281 90.546875 54.816406 89.949219 55.433594 88.605469 C 56.046875 87.257812 55.460938 85.671875 54.125 85.0625 C 52.792969 84.449219 51.214844 85.042969 50.597656 86.386719 C 49.984375 87.734375 50.570312 89.320312 51.902344 89.933594 Z M 60.804688 94.097656 C 62.175781 94.726562 63.804688 94.117188 64.433594 92.734375 C 65.066406 91.347656 64.464844 89.714844 63.089844 89.085938 C 61.71875 88.457031 60.09375 89.066406 59.460938 90.449219 C 58.828125 91.835938 59.429688 93.46875 60.804688 94.097656 Z M 69.710938 98.246094 C 71.113281 98.890625 72.773438 98.265625 73.417969 96.851562 C 74.0625 95.4375 73.449219 93.769531 72.046875 93.128906 C 70.644531 92.484375 68.984375 93.109375 68.339844 94.523438 C 67.695312 95.9375 68.308594 97.605469 69.710938 98.246094 Z M 78.609375 102.414062 C 80.054688 103.074219 81.757812 102.433594 82.421875 100.976562 C 83.082031 99.527344 82.453125 97.8125 81.011719 97.152344 C 79.570312 96.492188 77.863281 97.132812 77.203125 98.585938 C 76.539062 100.039062 77.167969 101.75 78.609375 102.414062 Z M 87.519531 106.558594 C 88.988281 107.234375 90.730469 106.578125 91.40625 105.097656 C 92.082031 103.617188 91.4375 101.867188 89.96875 101.195312 C 88.496094 100.519531 86.757812 101.175781 86.082031 102.65625 C 85.40625 104.136719 86.050781 105.886719 87.519531 106.558594 Z M 96.417969 110.726562 C 97.925781 111.417969 99.714844 110.746094 100.40625 109.222656 C 101.101562 107.703125 100.441406 105.910156 98.929688 105.21875 C 97.421875 104.527344 95.636719 105.199219 94.941406 106.71875 C 94.246094 108.238281 94.910156 110.035156 96.417969 110.726562 Z M 105.324219 114.875 C 106.863281 115.582031 108.683594 114.894531 109.390625 113.34375 C 110.097656 111.792969 109.425781 109.964844 107.886719 109.257812 C 106.351562 108.554688 104.53125 109.242188 103.820312 110.789062 C 103.113281 112.339844 103.789062 114.167969 105.324219 114.875 Z M 114.226562 119.042969 C 115.800781 119.765625 117.667969 119.0625 118.394531 117.472656 C 119.117188 115.882812 118.429688 114.007812 116.851562 113.285156 C 115.277344 112.5625 113.410156 113.265625 112.683594 114.855469 C 111.957031 116.445312 112.648438 118.316406 114.226562 119.042969 Z M 123.125 123.207031 C 124.742188 123.945312 126.652344 123.226562 127.394531 121.597656 C 128.136719 119.96875 127.429688 118.050781 125.816406 117.308594 C 124.199219 116.570312 122.289062 117.289062 121.546875 118.917969 C 120.804688 120.546875 121.511719 122.464844 123.125 123.207031 Z M 132.035156 127.355469 C 133.679688 128.109375 135.625 127.375 136.378906 125.71875 C 137.136719 124.0625 136.414062 122.105469 134.773438 121.351562 C 133.128906 120.597656 131.179688 121.332031 130.425781 122.988281 C 129.667969 124.644531 130.386719 126.601562 132.035156 127.355469 Z M 140.933594 131.519531 C 142.617188 132.292969 144.609375 131.542969 145.382812 129.84375 C 146.15625 128.148438 145.417969 126.148438 143.734375 125.375 C 142.054688 124.605469 140.0625 125.355469 139.285156 127.050781 C 138.511719 128.746094 139.25 130.75 140.933594 131.519531 Z M 149.839844 135.667969 C 151.550781 136.453125 153.578125 135.691406 154.367188 133.964844 C 155.152344 132.238281 154.402344 130.203125 152.691406 129.417969 C 150.980469 128.632812 148.953125 129.394531 148.167969 131.121094 C 147.378906 132.847656 148.128906 134.882812 149.839844 135.667969 Z M 158.742188 139.835938 C 160.492188 140.636719 162.5625 139.855469 163.371094 138.09375 C 164.171875 136.328125 163.40625 134.246094 161.65625 133.445312 C 159.90625 132.640625 157.832031 133.421875 157.027344 135.1875 C 156.222656 136.949219 156.988281 139.03125 158.742188 139.835938 Z M 167.648438 143.984375 C 169.425781 144.800781 171.535156 144.003906 172.351562 142.210938 C 173.171875 140.417969 172.390625 138.300781 170.613281 137.484375 C 168.832031 136.671875 166.726562 137.460938 165.90625 139.257812 C 165.089844 141.050781 165.867188 143.167969 167.648438 143.984375 Z M 176.550781 148.148438 C 178.367188 148.980469 180.519531 148.171875 181.355469 146.339844 C 182.191406 144.503906 181.394531 142.34375 179.578125 141.511719 C 177.757812 140.675781 175.605469 141.484375 174.769531 143.320312 C 173.933594 145.152344 174.730469 147.316406 176.550781 148.148438 Z M 185.457031 152.296875 C 187.300781 153.144531 189.488281 152.320312 190.339844 150.457031 C 191.1875 148.59375 190.378906 146.398438 188.53125 145.554688 C 186.683594 144.707031 184.496094 145.527344 183.648438 147.390625 C 182.800781 149.253906 183.609375 151.449219 185.457031 152.296875 Z M 265.585938 189.71875 C 267.742188 190.707031 270.292969 189.746094 271.289062 187.570312 C 272.277344 185.398438 271.335938 182.832031 269.175781 181.84375 C 267.019531 180.855469 264.46875 181.816406 263.476562 183.992188 C 262.484375 186.164062 263.429688 188.730469 265.585938 189.71875 Z M 274.484375 193.882812 C 276.679688 194.890625 279.28125 193.914062 280.289062 191.699219 C 281.296875 189.484375 280.335938 186.875 278.140625 185.867188 C 275.945312 184.863281 273.347656 185.839844 272.339844 188.054688 C 271.328125 190.265625 272.289062 192.878906 274.484375 193.882812 Z M 283.394531 198.03125 C 285.617188 199.050781 288.25 198.058594 289.273438 195.820312 C 290.296875 193.574219 289.320312 190.929688 287.097656 189.910156 C 284.871094 188.890625 282.238281 189.882812 281.21875 192.125 C 280.191406 194.367188 281.167969 197.011719 283.394531 198.03125 Z M 292.300781 202.179688 C 294.554688 203.214844 297.222656 202.207031 298.257812 199.9375 C 299.292969 197.667969 298.308594 194.988281 296.054688 193.953125 C 293.800781 192.921875 291.132812 193.925781 290.097656 196.195312 C 289.058594 198.46875 290.046875 201.148438 292.300781 202.179688 Z M 301.191406 206.363281 C 303.496094 207.417969 306.21875 206.394531 307.277344 204.074219 C 308.335938 201.753906 307.328125 199.015625 305.027344 197.960938 C 302.722656 196.90625 300 197.929688 298.941406 200.25 C 297.882812 202.570312 298.890625 205.308594 301.191406 206.363281 Z M 310.101562 210.511719 C 312.429688 211.582031 315.1875 210.542969 316.261719 208.191406 C 317.335938 205.84375 316.3125 203.070312 313.980469 202.003906 C 311.652344 200.933594 308.890625 201.972656 307.820312 204.320312 C 306.746094 206.671875 307.769531 209.445312 310.101562 210.511719 Z M 56.679688 103.136719 C 58.074219 103.773438 59.722656 103.15625 60.363281 101.75 C 61 100.347656 60.394531 98.691406 59 98.054688 C 57.605469 97.414062 55.957031 98.035156 55.316406 99.4375 C 54.675781 100.84375 55.289062 102.5 56.679688 103.136719 Z M 65.589844 107.285156 C 67.007812 107.9375 68.691406 107.304688 69.347656 105.871094 C 70 104.4375 69.378906 102.746094 67.953125 102.09375 C 66.535156 101.445312 64.851562 102.078125 64.199219 103.507812 C 63.542969 104.945312 64.167969 106.632812 65.589844 107.285156 Z M 74.488281 111.453125 C 75.949219 112.121094 77.675781 111.472656 78.347656 110 C 79.019531 108.527344 78.382812 106.789062 76.921875 106.117188 C 75.460938 105.449219 73.730469 106.101562 73.058594 107.574219 C 72.386719 109.046875 73.027344 110.78125 74.488281 111.453125 Z M 83.394531 115.601562 C 84.886719 116.28125 86.648438 115.617188 87.332031 114.117188 C 88.015625 112.617188 87.363281 110.84375 85.875 110.160156 C 84.386719 109.480469 82.625 110.144531 81.9375 111.644531 C 81.253906 113.144531 81.90625 114.914062 83.394531 115.601562 Z M 92.292969 119.765625 C 93.824219 120.464844 95.632812 119.785156 96.335938 118.246094 C 97.039062 116.703125 96.367188 114.886719 94.839844 114.1875 C 93.3125 113.484375 91.503906 114.167969 90.800781 115.707031 C 90.097656 117.246094 90.769531 119.0625 92.292969 119.765625 Z M 101.203125 123.914062 C 102.761719 124.628906 104.601562 123.933594 105.320312 122.363281 C 106.035156 120.792969 105.351562 118.945312 103.796875 118.230469 C 102.238281 117.515625 100.394531 118.210938 99.679688 119.777344 C 98.964844 121.347656 99.644531 123.199219 101.203125 123.914062 Z M 110.09375 128.097656 C 111.699219 128.832031 113.601562 128.117188 114.339844 126.5 C 115.078125 124.882812 114.375 122.972656 112.769531 122.234375 C 111.164062 121.5 109.261719 122.214844 108.523438 123.835938 C 107.785156 125.453125 108.488281 127.359375 110.09375 128.097656 Z M 119.003906 132.246094 C 120.636719 132.992188 122.570312 132.265625 123.324219 130.617188 C 124.074219 128.972656 123.359375 127.027344 121.726562 126.277344 C 120.089844 125.527344 118.15625 126.257812 117.402344 127.90625 C 116.652344 129.550781 117.367188 131.496094 119.003906 132.246094 Z M 127.910156 136.390625 C 129.574219 137.15625 131.542969 136.414062 132.308594 134.738281 C 133.070312 133.0625 132.34375 131.082031 130.679688 130.320312 C 129.015625 129.558594 127.046875 130.296875 126.28125 131.976562 C 125.515625 133.652344 126.246094 135.628906 127.910156 136.390625 Z M 136.808594 140.558594 C 138.511719 141.339844 140.527344 140.582031 141.308594 138.867188 C 142.09375 137.148438 141.347656 135.125 139.644531 134.34375 C 137.941406 133.5625 135.925781 134.324219 135.144531 136.039062 C 134.363281 137.753906 135.105469 139.777344 136.808594 140.558594 Z M 145.71875 144.707031 C 147.449219 145.5 149.496094 144.730469 150.292969 142.984375 C 151.089844 141.238281 150.332031 139.179688 148.601562 138.386719 C 146.867188 137.59375 144.820312 138.363281 144.023438 140.109375 C 143.226562 141.855469 143.984375 143.914062 145.71875 144.707031 Z M 154.617188 148.875 C 156.386719 149.683594 158.480469 148.894531 159.296875 147.113281 C 160.109375 145.328125 159.335938 143.222656 157.566406 142.414062 C 155.792969 141.601562 153.699219 142.386719 152.886719 144.171875 C 152.070312 145.957031 152.847656 148.0625 154.617188 148.875 Z M 163.523438 153.023438 C 165.324219 153.847656 167.453125 153.042969 168.28125 151.230469 C 169.109375 149.417969 168.320312 147.277344 166.519531 146.453125 C 164.722656 145.628906 162.59375 146.429688 161.765625 148.242188 C 160.9375 150.058594 161.726562 152.195312 163.523438 153.023438 Z M 172.425781 157.1875 C 174.261719 158.03125 176.4375 157.210938 177.28125 155.359375 C 178.128906 153.507812 177.324219 151.320312 175.484375 150.476562 C 173.648438 149.636719 171.472656 150.453125 170.628906 152.308594 C 169.78125 154.160156 170.585938 156.34375 172.425781 157.1875 Z M 181.332031 161.335938 C 183.199219 162.191406 185.410156 161.359375 186.265625 159.476562 C 187.125 157.59375 186.308594 155.375 184.441406 154.519531 C 182.574219 153.664062 180.363281 154.496094 179.507812 156.378906 C 178.648438 158.261719 179.464844 160.480469 181.332031 161.335938 Z M 190.230469 165.5 C 192.136719 166.375 194.390625 165.527344 195.269531 163.605469 C 196.144531 161.683594 195.3125 159.417969 193.40625 158.546875 C 191.5 157.671875 189.246094 158.519531 188.367188 160.441406 C 187.492188 162.363281 188.328125 164.625 190.230469 165.5 Z M 199.132812 169.667969 C 201.074219 170.558594 203.378906 169.691406 204.269531 167.730469 C 205.164062 165.773438 204.3125 163.460938 202.371094 162.570312 C 200.425781 161.679688 198.125 162.542969 197.230469 164.503906 C 196.335938 166.464844 197.1875 168.773438 199.132812 169.667969 Z M 208.039062 173.816406 C 210.011719 174.71875 212.347656 173.839844 213.253906 171.851562 C 214.164062 169.863281 213.296875 167.515625 211.324219 166.613281 C 209.351562 165.707031 207.019531 166.585938 206.109375 168.574219 C 205.203125 170.5625 206.066406 172.910156 208.039062 173.816406 Z M 216.9375 177.980469 C 218.949219 178.902344 221.332031 178.007812 222.257812 175.980469 C 223.183594 173.949219 222.300781 171.558594 220.289062 170.636719 C 218.277344 169.714844 215.898438 170.609375 214.972656 172.636719 C 214.046875 174.667969 214.925781 177.058594 216.9375 177.980469 Z M 225.847656 182.128906 C 227.890625 183.066406 230.304688 182.15625 231.242188 180.097656 C 232.179688 178.039062 231.285156 175.613281 229.246094 174.679688 C 227.203125 173.742188 224.789062 174.652344 223.851562 176.707031 C 222.910156 178.765625 223.804688 181.191406 225.847656 182.128906 Z M 234.746094 186.292969 C 236.828125 187.246094 239.289062 186.320312 240.242188 184.226562 C 241.199219 182.128906 240.289062 179.65625 238.210938 178.703125 C 236.128906 177.75 233.667969 178.675781 232.710938 180.773438 C 231.757812 182.867188 232.667969 185.339844 234.746094 186.292969 Z M 243.65625 190.441406 C 245.765625 191.410156 248.257812 190.46875 249.226562 188.34375 C 250.195312 186.21875 249.273438 183.710938 247.164062 182.746094 C 245.058594 181.777344 242.5625 182.71875 241.59375 184.84375 C 240.621094 186.96875 241.546875 189.476562 243.65625 190.441406 Z M 252.554688 194.609375 C 254.699219 195.59375 257.242188 194.636719 258.230469 192.472656 C 259.21875 190.308594 258.277344 187.753906 256.128906 186.769531 C 253.984375 185.785156 251.441406 186.742188 250.453125 188.90625 C 249.464844 191.070312 250.40625 193.625 252.554688 194.609375 Z M 261.460938 198.757812 C 263.636719 199.753906 266.214844 198.785156 267.214844 196.589844 C 268.214844 194.398438 267.261719 191.8125 265.085938 190.8125 C 262.910156 189.8125 260.335938 190.785156 259.332031 192.976562 C 258.332031 195.171875 259.285156 197.757812 261.460938 198.757812 Z M 270.363281 202.921875 C 272.578125 203.9375 275.199219 202.953125 276.214844 200.71875 C 277.234375 198.484375 276.265625 195.851562 274.050781 194.835938 C 271.835938 193.820312 269.214844 194.808594 268.195312 197.039062 C 267.175781 199.273438 268.148438 201.90625 270.363281 202.921875 Z M 279.269531 207.070312 C 281.511719 208.097656 284.167969 207.101562 285.199219 204.839844 C 286.234375 202.574219 285.25 199.90625 283.007812 198.878906 C 280.761719 197.851562 278.105469 198.847656 277.074219 201.113281 C 276.042969 203.375 277.023438 206.042969 279.269531 207.070312 Z M 288.167969 211.238281 C 290.453125 212.28125 293.152344 211.265625 294.203125 208.964844 C 295.253906 206.664062 294.253906 203.949219 291.96875 202.90625 C 289.6875 201.859375 286.988281 202.875 285.9375 205.175781 C 284.886719 207.476562 285.886719 210.191406 288.167969 211.238281 Z M 297.070312 215.402344 C 299.390625 216.46875 302.136719 215.433594 303.203125 213.09375 C 304.273438 210.753906 303.257812 207.992188 300.933594 206.929688 C 298.613281 205.863281 295.867188 206.898438 294.796875 209.238281 C 293.730469 211.578125 294.746094 214.339844 297.070312 215.402344 Z M 61.464844 116.324219 C 62.90625 116.984375 64.609375 116.34375 65.273438 114.890625 C 65.9375 113.4375 65.304688 111.722656 63.863281 111.0625 C 62.421875 110.402344 60.71875 111.042969 60.054688 112.496094 C 59.394531 113.949219 60.023438 115.664062 61.464844 116.324219 Z M 70.363281 120.492188 C 71.84375 121.167969 73.597656 120.507812 74.277344 119.019531 C 74.957031 117.527344 74.308594 115.765625 72.828125 115.089844 C 71.347656 114.410156 69.597656 115.070312 68.917969 116.558594 C 68.238281 118.050781 68.882812 119.8125 70.363281 120.492188 Z M 79.273438 124.636719 C 80.78125 125.332031 82.566406 124.660156 83.261719 123.136719 C 83.953125 121.617188 83.292969 119.820312 81.785156 119.128906 C 80.277344 118.4375 78.488281 119.109375 77.796875 120.632812 C 77.101562 122.152344 77.761719 123.945312 79.273438 124.636719 Z M 88.171875 128.804688 C 89.71875 129.511719 91.550781 128.824219 92.261719 127.265625 C 92.972656 125.707031 92.296875 123.863281 90.75 123.15625 C 89.203125 122.445312 87.371094 123.136719 86.65625 124.695312 C 85.945312 126.253906 86.625 128.09375 88.171875 128.804688 Z M 97.070312 132.96875 C 98.65625 133.695312 100.535156 132.992188 101.265625 131.390625 C 101.996094 129.792969 101.296875 127.90625 99.710938 127.179688 C 98.125 126.453125 96.25 127.160156 95.519531 128.757812 C 94.792969 130.355469 95.484375 132.242188 97.070312 132.96875 Z M 105.972656 137.136719 C 107.597656 137.882812 109.519531 137.15625 110.265625 135.519531 C 111.011719 133.882812 110.300781 131.949219 108.675781 131.203125 C 107.050781 130.457031 105.128906 131.183594 104.382812 132.820312 C 103.632812 134.460938 104.347656 136.390625 105.972656 137.136719 Z M 114.878906 141.285156 C 116.535156 142.042969 118.492188 141.304688 119.25 139.636719 C 120.011719 137.972656 119.285156 136.003906 117.632812 135.246094 C 115.980469 134.488281 114.023438 135.222656 113.261719 136.890625 C 112.5 138.558594 113.226562 140.527344 114.878906 141.285156 Z M 123.785156 145.433594 C 125.46875 146.203125 127.460938 145.453125 128.234375 143.757812 C 129.007812 142.0625 128.273438 140.0625 126.589844 139.289062 C 124.90625 138.515625 122.914062 139.265625 122.140625 140.960938 C 121.367188 142.660156 122.105469 144.660156 123.785156 145.433594 Z M 132.683594 149.597656 C 134.40625 150.386719 136.445312 149.621094 137.238281 147.882812 C 138.027344 146.148438 137.273438 144.101562 135.554688 143.3125 C 133.832031 142.523438 131.792969 143.289062 131.003906 145.027344 C 130.210938 146.761719 130.964844 148.808594 132.683594 149.597656 Z M 141.59375 153.746094 C 143.34375 154.546875 145.417969 153.769531 146.222656 152.003906 C 147.027344 150.238281 146.261719 148.15625 144.507812 147.355469 C 142.757812 146.554688 140.6875 147.332031 139.882812 149.097656 C 139.078125 150.863281 139.84375 152.941406 141.59375 153.746094 Z M 150.496094 157.910156 C 152.285156 158.730469 154.398438 157.933594 155.222656 156.132812 C 156.046875 154.328125 155.261719 152.199219 153.476562 151.378906 C 151.683594 150.558594 149.566406 151.355469 148.742188 153.160156 C 147.921875 154.964844 148.703125 157.089844 150.496094 157.910156 Z M 159.402344 162.058594 C 161.21875 162.894531 163.371094 162.082031 164.207031 160.25 C 165.042969 158.417969 164.246094 156.253906 162.429688 155.421875 C 160.609375 154.589844 158.457031 155.398438 157.621094 157.230469 C 156.785156 159.0625 157.582031 161.226562 159.402344 162.058594 Z M 168.300781 166.226562 C 170.15625 167.078125 172.355469 166.25 173.210938 164.378906 C 174.0625 162.507812 173.25 160.296875 171.394531 159.445312 C 169.535156 158.597656 167.339844 159.421875 166.484375 161.292969 C 165.628906 163.167969 166.445312 165.375 168.300781 166.226562 Z M 177.210938 170.375 C 179.097656 171.238281 181.328125 170.398438 182.195312 168.496094 C 183.0625 166.597656 182.238281 164.355469 180.347656 163.488281 C 178.464844 162.625 176.230469 163.464844 175.363281 165.367188 C 174.496094 167.265625 175.324219 169.507812 177.210938 170.375 Z M 186.109375 174.539062 C 188.035156 175.421875 190.3125 174.566406 191.195312 172.625 C 192.082031 170.683594 191.238281 168.394531 189.316406 167.511719 C 187.390625 166.632812 185.109375 167.488281 184.226562 169.429688 C 183.339844 171.367188 184.183594 173.65625 186.109375 174.539062 Z M 195.007812 178.707031 C 196.972656 179.605469 199.296875 178.730469 200.199219 176.75 C 201.101562 174.773438 200.242188 172.4375 198.277344 171.539062 C 196.316406 170.636719 193.992188 171.511719 193.085938 173.492188 C 192.1875 175.472656 193.042969 177.804688 195.007812 178.707031 Z M 203.917969 182.855469 C 205.910156 183.765625 208.265625 182.878906 209.183594 180.871094 C 210.097656 178.863281 209.226562 176.492188 207.234375 175.582031 C 205.242188 174.667969 202.882812 175.554688 201.96875 177.5625 C 201.050781 179.570312 201.921875 181.941406 203.917969 182.855469 Z M 212.816406 187.019531 C 214.847656 187.953125 217.25 187.046875 218.183594 185 C 219.117188 182.949219 218.230469 180.535156 216.199219 179.605469 C 214.167969 178.675781 211.761719 179.578125 210.828125 181.625 C 209.894531 183.675781 210.785156 186.085938 212.816406 187.019531 Z M 221.722656 191.167969 C 223.785156 192.113281 226.222656 191.195312 227.167969 189.117188 C 228.117188 187.039062 227.214844 184.59375 225.15625 183.644531 C 223.09375 182.703125 220.65625 183.621094 219.707031 185.695312 C 218.761719 187.773438 219.664062 190.222656 221.722656 191.167969 Z M 230.621094 195.332031 C 232.722656 196.296875 235.207031 195.359375 236.171875 193.246094 C 237.136719 191.128906 236.21875 188.632812 234.117188 187.671875 C 232.019531 186.707031 229.535156 187.644531 228.570312 189.757812 C 227.605469 191.875 228.523438 194.371094 230.621094 195.332031 Z M 239.53125 199.480469 C 241.660156 200.457031 244.175781 199.507812 245.15625 197.363281 C 246.132812 195.21875 245.203125 192.6875 243.074219 191.714844 C 240.945312 190.738281 238.429688 191.6875 237.449219 193.832031 C 236.472656 195.976562 237.402344 198.503906 239.53125 199.480469 Z M 248.429688 203.648438 C 250.597656 204.640625 253.160156 203.675781 254.15625 201.492188 C 255.15625 199.308594 254.207031 196.730469 252.039062 195.738281 C 249.871094 194.746094 247.308594 195.710938 246.3125 197.894531 C 245.316406 200.078125 246.265625 202.652344 248.429688 203.648438 Z M 257.335938 207.796875 C 259.535156 208.800781 262.132812 207.824219 263.144531 205.609375 C 264.152344 203.398438 263.191406 200.785156 260.996094 199.78125 C 258.800781 198.773438 256.199219 199.75 255.191406 201.964844 C 254.179688 204.179688 255.144531 206.789062 257.335938 207.796875 Z M 284.046875 220.273438 C 286.347656 221.332031 289.070312 220.304688 290.128906 217.984375 C 291.191406 215.664062 290.179688 212.925781 287.878906 211.871094 C 285.578125 210.816406 282.855469 211.84375 281.792969 214.160156 C 280.734375 216.484375 281.746094 219.21875 284.046875 220.273438 Z M 292.945312 224.441406 C 295.285156 225.515625 298.054688 224.472656 299.132812 222.113281 C 300.210938 219.75 299.183594 216.96875 296.84375 215.898438 C 294.503906 214.824219 291.734375 215.867188 290.65625 218.226562 C 289.582031 220.585938 290.605469 223.367188 292.945312 224.441406 Z M 75.148438 133.675781 C 76.675781 134.378906 78.484375 133.695312 79.1875 132.15625 C 79.890625 130.617188 79.222656 128.800781 77.691406 128.097656 C 76.164062 127.398438 74.355469 128.078125 73.652344 129.621094 C 72.953125 131.160156 73.621094 132.976562 75.148438 133.675781 Z M 84.046875 137.84375 C 85.613281 138.5625 87.46875 137.863281 88.191406 136.28125 C 88.910156 134.703125 88.222656 132.839844 86.65625 132.125 C 85.089844 131.402344 83.238281 132.101562 82.515625 133.683594 C 81.792969 135.261719 82.480469 137.125 84.046875 137.84375 Z M 92.949219 142.007812 C 94.554688 142.746094 96.453125 142.03125 97.191406 140.410156 C 97.929688 138.792969 97.226562 136.882812 95.621094 136.148438 C 94.015625 135.410156 92.117188 136.125 91.378906 137.746094 C 90.636719 139.363281 91.34375 141.273438 92.949219 142.007812 Z M 101.847656 146.175781 C 103.492188 146.929688 105.4375 146.195312 106.195312 144.539062 C 106.949219 142.882812 106.230469 140.925781 104.585938 140.171875 C 102.941406 139.417969 100.996094 140.148438 100.238281 141.808594 C 99.484375 143.464844 100.203125 145.421875 101.847656 146.175781 Z M 110.753906 150.324219 C 112.429688 151.089844 114.410156 150.34375 115.179688 148.65625 C 115.949219 146.972656 115.214844 144.980469 113.542969 144.214844 C 111.867188 143.449219 109.886719 144.191406 109.117188 145.878906 C 108.351562 147.566406 109.082031 149.554688 110.753906 150.324219 Z M 119.664062 154.46875 C 121.367188 155.25 123.378906 154.492188 124.164062 152.777344 C 124.945312 151.0625 124.199219 149.039062 122.496094 148.257812 C 120.796875 147.476562 118.78125 148.234375 117.996094 149.949219 C 117.214844 151.667969 117.960938 153.691406 119.664062 154.46875 Z M 128.5625 158.636719 C 130.304688 159.433594 132.363281 158.660156 133.164062 156.902344 C 133.964844 155.148438 133.203125 153.078125 131.460938 152.28125 C 129.722656 151.484375 127.660156 152.257812 126.859375 154.011719 C 126.058594 155.769531 126.820312 157.839844 128.5625 158.636719 Z M 137.46875 162.785156 C 139.242188 163.597656 141.335938 162.808594 142.148438 161.023438 C 142.960938 159.238281 142.1875 157.136719 140.417969 156.324219 C 138.648438 155.511719 136.554688 156.300781 135.738281 158.085938 C 134.925781 159.867188 135.699219 161.972656 137.46875 162.785156 Z M 146.371094 166.949219 C 148.179688 167.78125 150.320312 166.972656 151.152344 165.152344 C 151.984375 163.328125 151.191406 161.175781 149.382812 160.347656 C 147.574219 159.519531 145.433594 160.324219 144.601562 162.148438 C 143.769531 163.96875 144.5625 166.121094 146.371094 166.949219 Z M 155.277344 171.097656 C 157.117188 171.941406 159.289062 171.121094 160.136719 169.269531 C 160.980469 167.417969 160.175781 165.230469 158.339844 164.390625 C 156.5 163.546875 154.324219 164.367188 153.480469 166.21875 C 152.636719 168.070312 153.441406 170.257812 155.277344 171.097656 Z M 164.175781 175.265625 C 166.054688 176.125 168.273438 175.289062 169.136719 173.398438 C 170 171.507812 169.179688 169.273438 167.300781 168.414062 C 165.425781 167.554688 163.203125 168.390625 162.34375 170.28125 C 161.480469 172.171875 162.300781 174.40625 164.175781 175.265625 Z M 173.085938 179.414062 C 174.992188 180.285156 177.246094 179.4375 178.121094 177.515625 C 179 175.59375 178.164062 173.332031 176.257812 172.457031 C 174.355469 171.582031 172.097656 172.433594 171.222656 174.351562 C 170.347656 176.273438 171.179688 178.539062 173.085938 179.414062 Z M 181.976562 183.597656 C 183.929688 184.492188 186.242188 183.621094 187.140625 181.652344 C 188.039062 179.683594 187.183594 177.359375 185.230469 176.464844 C 183.277344 175.566406 180.964844 176.4375 180.066406 178.410156 C 179.167969 180.378906 180.023438 182.699219 181.976562 183.597656 Z M 190.886719 187.746094 C 192.867188 188.652344 195.214844 187.769531 196.125 185.769531 C 197.039062 183.773438 196.171875 181.417969 194.1875 180.507812 C 192.203125 179.597656 189.855469 180.480469 188.945312 182.480469 C 188.035156 184.476562 188.902344 186.835938 190.886719 187.746094 Z M 199.792969 191.890625 C 201.804688 192.816406 204.183594 191.917969 205.113281 189.890625 C 206.035156 187.863281 205.15625 185.472656 203.144531 184.550781 C 201.128906 183.625 198.75 184.523438 197.824219 186.550781 C 196.898438 188.578125 197.78125 190.96875 199.792969 191.890625 Z M 208.691406 196.058594 C 210.742188 196.996094 213.167969 196.085938 214.113281 194.019531 C 215.054688 191.949219 214.15625 189.511719 212.109375 188.574219 C 210.054688 187.632812 207.628906 188.546875 206.6875 190.613281 C 205.742188 192.679688 206.640625 195.117188 208.691406 196.058594 Z M 217.601562 200.207031 C 219.679688 201.160156 222.140625 200.234375 223.097656 198.136719 C 224.054688 196.042969 223.144531 193.570312 221.0625 192.613281 C 218.984375 191.660156 216.523438 192.589844 215.566406 194.683594 C 214.609375 196.78125 215.519531 199.253906 217.601562 200.207031 Z M 226.5 204.371094 C 228.617188 205.34375 231.125 204.398438 232.101562 202.265625 C 233.074219 200.128906 232.144531 197.609375 230.027344 196.640625 C 227.910156 195.667969 225.402344 196.613281 224.429688 198.746094 C 223.453125 200.882812 224.382812 203.402344 226.5 204.371094 Z M 235.40625 208.519531 C 237.554688 209.503906 240.097656 208.546875 241.082031 206.382812 C 242.070312 204.21875 241.132812 201.667969 238.984375 200.679688 C 236.835938 199.699219 234.292969 200.652344 233.308594 202.820312 C 232.320312 204.984375 233.261719 207.535156 235.40625 208.519531 Z M 279.921875 229.3125 C 282.242188 230.378906 284.992188 229.34375 286.058594 227.003906 C 287.125 224.664062 286.109375 221.902344 283.789062 220.839844 C 281.46875 219.777344 278.71875 220.808594 277.652344 223.148438 C 276.585938 225.488281 277.601562 228.25 279.921875 229.3125 Z M 97.726562 155.214844 C 99.386719 155.976562 101.355469 155.234375 102.121094 153.558594 C 102.886719 151.882812 102.160156 149.902344 100.496094 149.140625 C 98.832031 148.378906 96.863281 149.117188 96.097656 150.796875 C 95.332031 152.472656 96.0625 154.449219 97.726562 155.214844 Z M 106.632812 159.363281 C 108.324219 160.136719 110.328125 159.382812 111.105469 157.675781 C 111.886719 155.972656 111.144531 153.957031 109.449219 153.183594 C 107.757812 152.40625 105.753906 153.160156 104.976562 154.867188 C 104.199219 156.574219 104.941406 158.585938 106.632812 159.363281 Z M 115.539062 163.511719 C 117.261719 164.300781 119.300781 163.53125 120.089844 161.796875 C 120.882812 160.0625 120.128906 158.015625 118.40625 157.226562 C 116.6875 156.433594 114.648438 157.203125 113.855469 158.9375 C 113.066406 160.671875 113.816406 162.722656 115.539062 163.511719 Z M 124.441406 167.675781 C 126.199219 168.484375 128.28125 167.699219 129.09375 165.921875 C 129.902344 164.148438 129.132812 162.054688 127.371094 161.25 C 125.609375 160.441406 123.527344 161.226562 122.71875 163 C 121.90625 164.773438 122.679688 166.867188 124.441406 167.675781 Z M 133.347656 171.824219 C 135.136719 172.644531 137.253906 171.847656 138.078125 170.042969 C 138.898438 168.238281 138.117188 166.113281 136.328125 165.292969 C 134.539062 164.472656 132.421875 165.269531 131.597656 167.070312 C 130.773438 168.875 131.558594 171 133.347656 171.824219 Z M 142.246094 175.988281 C 144.074219 176.828125 146.238281 176.015625 147.078125 174.167969 C 147.917969 172.328125 147.117188 170.152344 145.292969 169.316406 C 143.464844 168.476562 141.300781 169.292969 140.460938 171.136719 C 139.621094 172.976562 140.417969 175.152344 142.246094 175.988281 Z M 151.15625 180.136719 C 153.011719 180.988281 155.210938 180.164062 156.0625 178.289062 C 156.917969 176.417969 156.105469 174.210938 154.246094 173.359375 C 152.390625 172.507812 150.191406 173.335938 149.339844 175.207031 C 148.484375 177.078125 149.296875 179.285156 151.15625 180.136719 Z M 160.054688 184.304688 C 161.949219 185.171875 164.195312 184.328125 165.066406 182.417969 C 165.9375 180.507812 165.105469 178.253906 163.210938 177.382812 C 161.316406 176.511719 159.070312 177.359375 158.199219 179.269531 C 157.328125 181.179688 158.160156 183.433594 160.054688 184.304688 Z M 168.953125 188.46875 C 170.890625 189.355469 173.175781 188.496094 174.066406 186.542969 C 174.957031 184.59375 174.109375 182.296875 172.175781 181.40625 C 170.242188 180.519531 167.953125 181.382812 167.0625 183.332031 C 166.171875 185.28125 167.019531 187.582031 168.953125 188.46875 Z M 177.855469 192.636719 C 179.828125 193.539062 182.164062 192.660156 183.070312 190.671875 C 183.976562 188.683594 183.113281 186.335938 181.140625 185.433594 C 179.167969 184.527344 176.832031 185.40625 175.925781 187.394531 C 175.015625 189.382812 175.878906 191.730469 177.855469 192.636719 Z M 186.761719 196.785156 C 188.761719 197.703125 191.132812 196.808594 192.054688 194.789062 C 192.972656 192.773438 192.097656 190.390625 190.097656 189.476562 C 188.09375 188.554688 185.722656 189.449219 184.804688 191.464844 C 183.882812 193.484375 184.757812 195.863281 186.761719 196.785156 Z M 195.667969 200.933594 C 197.699219 201.863281 200.105469 200.957031 201.039062 198.910156 C 201.972656 196.863281 201.082031 194.449219 199.050781 193.515625 C 197.019531 192.585938 194.617188 193.492188 193.683594 195.539062 C 192.75 197.585938 193.636719 200 195.667969 200.933594 Z M 275.800781 238.355469 C 278.136719 239.425781 280.910156 238.382812 281.988281 236.023438 C 283.0625 233.664062 282.035156 230.882812 279.699219 229.808594 C 277.355469 228.734375 274.585938 229.777344 273.507812 232.136719 C 272.433594 234.496094 273.457031 237.28125 275.800781 238.355469 Z M 275.800781 238.355469 " fill-opacity="1" fill-rule="evenodd"/><g fill="#ffffff" fill-opacity="1"><g transform="translate(211.291615, 371.349967)"><g><path d="M 1.1875 -0.828125 C 1.1875 -1.179688 1.265625 -1.445312 1.421875 -1.625 C 1.585938 -1.800781 1.816406 -1.890625 2.109375 -1.890625 C 2.410156 -1.890625 2.644531 -1.800781 2.8125 -1.625 C 2.988281 -1.445312 3.078125 -1.179688 3.078125 -0.828125 C 3.078125 -0.492188 2.988281 -0.234375 2.8125 -0.046875 C 2.644531 0.140625 2.410156 0.234375 2.109375 0.234375 C 1.847656 0.234375 1.628906 0.148438 1.453125 -0.015625 C 1.273438 -0.179688 1.1875 -0.453125 1.1875 -0.828125 Z M 1.1875 -0.828125 "/></g></g></g></svg>