<svg xmlns="http://www.w3.org/2000/svg" xmlns:xlink="http://www.w3.org/1999/xlink" width="500" zoomAndPan="magnify" viewBox="0 0 375 374.999991" height="500" preserveAspectRatio="xMidYMid meet" version="1.0"><defs><g/><clipPath id="d093f9b28c"><path d="M 52.914062 6.210938 L 322.164062 6.210938 L 322.164062 337.710938 L 52.914062 337.710938 Z M 52.914062 6.210938 " clip-rule="nonzero"/></clipPath><clipPath id="bc892e1e4e"><path d="M 52.914062 104 L 322.164062 104 L 322.164062 142 L 52.914062 142 Z M 52.914062 104 " clip-rule="nonzero"/></clipPath><clipPath id="1f1a6134ca"><path d="M 52.914062 210 L 322.164062 210 L 322.164062 248 L 52.914062 248 Z M 52.914062 210 " clip-rule="nonzero"/></clipPath><clipPath id="00dae0f8fe"><path d="M 52.914062 95 L 322.164062 95 L 322.164062 133 L 52.914062 133 Z M 52.914062 95 " clip-rule="nonzero"/></clipPath><clipPath id="97a95d6df2"><path d="M 52.914062 202 L 322.164062 202 L 322.164062 240 L 52.914062 240 Z M 52.914062 202 " clip-rule="nonzero"/></clipPath></defs><g clip-path="url(#d093f9b28c)"><path fill="#000000" d="M 52.953125 239.113281 L 52.953125 104.304688 L 56.945312 104.789062 L 56.945312 238.625 Z M 318.238281 136.695312 L 322.234375 137.183594 L 322.234375 206.234375 L 318.238281 206.722656 Z M 318.238281 211.449219 L 322.234375 210.964844 L 322.234375 335.699219 C 322.234375 336.800781 321.339844 337.695312 320.238281 337.695312 L 54.949219 337.695312 C 53.847656 337.695312 52.953125 336.800781 52.953125 335.699219 L 52.953125 243.84375 L 56.945312 243.355469 L 56.945312 333.699219 L 318.238281 333.699219 Z M 52.953125 99.574219 L 52.953125 8.203125 C 52.953125 7.097656 53.847656 6.203125 54.949219 6.203125 L 320.238281 6.203125 C 321.339844 6.203125 322.234375 7.097656 322.234375 8.203125 L 322.234375 132.453125 L 318.238281 131.96875 L 318.238281 10.199219 L 56.945312 10.199219 L 56.945312 100.0625 Z M 52.953125 99.574219 " fill-opacity="1" fill-rule="evenodd"/></g><g clip-path="url(#bc892e1e4e)"><path fill="#000000" d="M 52.949219 108.328125 L 52.949219 104.304688 L 322.226562 137.1875 L 322.226562 141.210938 Z M 52.949219 108.328125 " fill-opacity="1" fill-rule="evenodd"/></g><g clip-path="url(#1f1a6134ca)"><path fill="#000000" d="M 52.957031 247.867188 L 52.957031 243.84375 L 322.234375 210.960938 L 322.234375 214.984375 Z M 52.957031 247.867188 " fill-opacity="1" fill-rule="evenodd"/></g><g clip-path="url(#00dae0f8fe)"><path fill="#000000" d="M 52.957031 99.574219 L 52.957031 95.542969 L 322.234375 128.425781 L 322.234375 132.449219 Z M 52.957031 99.574219 " fill-opacity="1" fill-rule="evenodd"/></g><g clip-path="url(#97a95d6df2)"><path fill="#000000" d="M 52.949219 239.113281 L 52.949219 235.089844 L 322.226562 202.207031 L 322.226562 206.238281 Z M 52.949219 239.113281 " fill-opacity="1" fill-rule="evenodd"/></g><g fill="#ffffff" fill-opacity="1"><g transform="translate(211.291615, 371.349967)"><g><path d="M 1.1875 -0.828125 C 1.1875 -1.179688 1.265625 -1.445312 1.421875 -1.625 C 1.585938 -1.800781 1.816406 -1.890625 2.109375 -1.890625 C 2.410156 -1.890625 2.644531 -1.800781 2.8125 -1.625 C 2.988281 -1.445312 3.078125 -1.179688 3.078125 -0.828125 C 3.078125 -0.492188 2.988281 -0.234375 2.8125 -0.046875 C 2.644531 0.140625 2.410156 0.234375 2.109375 0.234375 C 1.847656 0.234375 1.628906 0.148438 1.453125 -0.015625 C 1.273438 -0.179688 1.1875 -0.453125 1.1875 -0.828125 Z M 1.1875 -0.828125 "/></g></g></g></svg>