<svg xmlns="http://www.w3.org/2000/svg" xmlns:xlink="http://www.w3.org/1999/xlink" width="500" zoomAndPan="magnify" viewBox="0 0 375 374.999991" height="500" preserveAspectRatio="xMidYMid meet" version="1.0"><defs><g/><clipPath id="1c2b48bb00"><path d="M 30.082031 25.359375 L 33 25.359375 L 33 115 L 30.082031 115 Z M 30.082031 25.359375 " clip-rule="nonzero"/></clipPath><clipPath id="5477a52a19"><path d="M 30.082031 112 L 207 112 L 207 115 L 30.082031 115 Z M 30.082031 112 " clip-rule="nonzero"/></clipPath><clipPath id="246077d3b5"><path d="M 204 25.359375 L 207 25.359375 L 207 115 L 204 115 Z M 204 25.359375 " clip-rule="nonzero"/></clipPath><clipPath id="a7e2ab6c6e"><path d="M 30.082031 25.359375 L 207 25.359375 L 207 28 L 30.082031 28 Z M 30.082031 25.359375 " clip-rule="nonzero"/></clipPath><clipPath id="6cd172014b"><path d="M 226 25.359375 L 229 25.359375 L 229 180 L 226 180 Z M 226 25.359375 " clip-rule="nonzero"/></clipPath><clipPath id="b6586380f7"><path d="M 226 177 L 337.582031 177 L 337.582031 180 L 226 180 Z M 226 177 " clip-rule="nonzero"/></clipPath><clipPath id="43ba55d5c9"><path d="M 335 25.359375 L 337.582031 25.359375 L 337.582031 180 L 335 180 Z M 335 25.359375 " clip-rule="nonzero"/></clipPath><clipPath id="415eecf2bf"><path d="M 226 25.359375 L 337.582031 25.359375 L 337.582031 28 L 226 28 Z M 226 25.359375 " clip-rule="nonzero"/></clipPath><clipPath id="16305898ab"><path d="M 226 199 L 337.582031 199 L 337.582031 202 L 226 202 Z M 226 199 " clip-rule="nonzero"/></clipPath><clipPath id="67e7a7462c"><path d="M 226 199 L 229 199 L 229 288.609375 L 226 288.609375 Z M 226 199 " clip-rule="nonzero"/></clipPath><clipPath id="06e1484698"><path d="M 226 286 L 337.582031 286 L 337.582031 288.609375 L 226 288.609375 Z M 226 286 " clip-rule="nonzero"/></clipPath><clipPath id="2f85329206"><path d="M 335 199 L 337.582031 199 L 337.582031 288.609375 L 335 288.609375 Z M 335 199 " clip-rule="nonzero"/></clipPath><clipPath id="8de2525149"><path d="M 204 134 L 207 134 L 207 288.609375 L 204 288.609375 Z M 204 134 " clip-rule="nonzero"/></clipPath><clipPath id="43ce7d6093"><path d="M 30.082031 286 L 207 286 L 207 288.609375 L 30.082031 288.609375 Z M 30.082031 286 " clip-rule="nonzero"/></clipPath><clipPath id="f5aad9a3f7"><path d="M 30.082031 134 L 33 134 L 33 288.609375 L 30.082031 288.609375 Z M 30.082031 134 " clip-rule="nonzero"/></clipPath><clipPath id="53c5f050c7"><path d="M 30.082031 134 L 207 134 L 207 137 L 30.082031 137 Z M 30.082031 134 " clip-rule="nonzero"/></clipPath></defs><g clip-path="url(#1c2b48bb00)"><path fill="#000000" d="M 32.207031 26.378906 L 32.207031 113.472656 C 32.207031 114.023438 31.757812 114.472656 31.207031 114.472656 C 30.652344 114.472656 30.203125 114.023438 30.203125 113.472656 L 30.203125 26.378906 C 30.203125 25.828125 30.652344 25.378906 31.207031 25.378906 C 31.757812 25.378906 32.207031 25.828125 32.207031 26.378906 Z M 32.207031 26.378906 " fill-opacity="1" fill-rule="nonzero"/></g><g clip-path="url(#5477a52a19)"><path fill="#000000" d="M 31.207031 112.472656 L 205.675781 112.472656 C 206.230469 112.472656 206.679688 112.917969 206.679688 113.472656 C 206.679688 114.023438 206.230469 114.472656 205.675781 114.472656 L 31.207031 114.472656 C 30.652344 114.472656 30.203125 114.023438 30.203125 113.472656 C 30.203125 112.917969 30.652344 112.472656 31.207031 112.472656 Z M 31.207031 112.472656 " fill-opacity="1" fill-rule="nonzero"/></g><g clip-path="url(#246077d3b5)"><path fill="#000000" d="M 204.671875 113.472656 L 204.671875 26.378906 C 204.671875 25.828125 205.121094 25.378906 205.675781 25.378906 C 206.230469 25.378906 206.679688 25.828125 206.679688 26.378906 L 206.679688 113.472656 C 206.679688 114.023438 206.230469 114.472656 205.675781 114.472656 C 205.121094 114.472656 204.671875 114.023438 204.671875 113.472656 Z M 204.671875 113.472656 " fill-opacity="1" fill-rule="nonzero"/></g><g clip-path="url(#a7e2ab6c6e)"><path fill="#000000" d="M 205.675781 27.378906 L 31.207031 27.382812 C 30.652344 27.382812 30.203125 26.933594 30.203125 26.378906 C 30.203125 25.828125 30.652344 25.378906 31.207031 25.378906 L 205.675781 25.378906 C 206.230469 25.378906 206.679688 25.828125 206.679688 26.378906 C 206.679688 26.933594 206.230469 27.378906 205.675781 27.378906 Z M 205.675781 27.378906 " fill-opacity="1" fill-rule="nonzero"/></g><g clip-path="url(#6cd172014b)"><path fill="#000000" d="M 228.488281 26.378906 L 228.488281 178.792969 C 228.488281 179.34375 228.039062 179.792969 227.484375 179.792969 C 226.929688 179.792969 226.480469 179.34375 226.480469 178.792969 L 226.480469 26.378906 C 226.480469 25.828125 226.929688 25.378906 227.484375 25.378906 C 228.039062 25.378906 228.488281 25.828125 228.488281 26.378906 Z M 228.488281 26.378906 " fill-opacity="1" fill-rule="nonzero"/></g><g clip-path="url(#b6586380f7)"><path fill="#000000" d="M 227.484375 177.789062 L 336.527344 177.792969 C 337.082031 177.792969 337.53125 178.238281 337.53125 178.792969 C 337.53125 179.34375 337.082031 179.792969 336.527344 179.792969 L 227.484375 179.792969 C 226.929688 179.792969 226.480469 179.34375 226.480469 178.792969 C 226.480469 178.238281 226.929688 177.789062 227.484375 177.789062 Z M 227.484375 177.789062 " fill-opacity="1" fill-rule="nonzero"/></g><g clip-path="url(#43ba55d5c9)"><path fill="#000000" d="M 335.527344 178.792969 L 335.527344 26.378906 C 335.527344 25.828125 335.976562 25.378906 336.527344 25.378906 C 337.082031 25.378906 337.53125 25.828125 337.53125 26.378906 L 337.53125 178.792969 C 337.53125 179.34375 337.082031 179.792969 336.527344 179.792969 C 335.976562 179.792969 335.527344 179.34375 335.527344 178.792969 Z M 335.527344 178.792969 " fill-opacity="1" fill-rule="nonzero"/></g><g clip-path="url(#415eecf2bf)"><path fill="#000000" d="M 336.527344 27.378906 L 227.484375 27.382812 C 226.929688 27.382812 226.480469 26.933594 226.480469 26.378906 C 226.480469 25.828125 226.929688 25.378906 227.484375 25.378906 L 336.527344 25.378906 C 337.082031 25.378906 337.53125 25.828125 337.53125 26.378906 C 337.53125 26.933594 337.082031 27.378906 336.527344 27.378906 Z M 336.527344 27.378906 " fill-opacity="1" fill-rule="nonzero"/></g><g clip-path="url(#16305898ab)"><path fill="#000000" d="M 336.527344 201.566406 L 227.484375 201.566406 C 226.929688 201.566406 226.480469 201.117188 226.480469 200.566406 C 226.480469 200.011719 226.929688 199.5625 227.484375 199.5625 L 336.527344 199.5625 C 337.082031 199.5625 337.53125 200.011719 337.53125 200.5625 C 337.53125 201.117188 337.082031 201.566406 336.527344 201.566406 Z M 336.527344 201.566406 " fill-opacity="1" fill-rule="nonzero"/></g><g clip-path="url(#67e7a7462c)"><path fill="#000000" d="M 228.488281 200.5625 L 228.488281 287.65625 C 228.488281 288.210938 228.039062 288.65625 227.484375 288.65625 C 226.929688 288.65625 226.480469 288.210938 226.480469 287.65625 L 226.480469 200.5625 C 226.480469 200.011719 226.929688 199.5625 227.484375 199.5625 C 228.039062 199.5625 228.488281 200.011719 228.488281 200.5625 Z M 228.488281 200.5625 " fill-opacity="1" fill-rule="nonzero"/></g><g clip-path="url(#06e1484698)"><path fill="#000000" d="M 227.484375 286.65625 L 336.527344 286.65625 C 337.082031 286.65625 337.53125 287.105469 337.53125 287.65625 C 337.53125 288.210938 337.082031 288.65625 336.527344 288.65625 L 227.484375 288.65625 C 226.929688 288.65625 226.480469 288.210938 226.480469 287.65625 C 226.480469 287.105469 226.929688 286.65625 227.484375 286.65625 Z M 227.484375 286.65625 " fill-opacity="1" fill-rule="nonzero"/></g><g clip-path="url(#2f85329206)"><path fill="#000000" d="M 335.527344 287.65625 L 335.527344 200.5625 C 335.527344 200.011719 335.976562 199.5625 336.527344 199.5625 C 337.082031 199.5625 337.53125 200.011719 337.53125 200.5625 L 337.53125 287.65625 C 337.53125 288.210938 337.082031 288.65625 336.527344 288.65625 C 335.976562 288.65625 335.527344 288.210938 335.527344 287.65625 Z M 335.527344 287.65625 " fill-opacity="1" fill-rule="nonzero"/></g><g clip-path="url(#8de2525149)"><path fill="#000000" d="M 206.679688 135.246094 L 206.679688 287.65625 C 206.679688 288.210938 206.230469 288.65625 205.675781 288.65625 C 205.121094 288.65625 204.671875 288.210938 204.671875 287.65625 L 204.671875 135.246094 C 204.671875 134.691406 205.121094 134.246094 205.675781 134.246094 C 206.230469 134.246094 206.679688 134.691406 206.679688 135.246094 Z M 206.679688 135.246094 " fill-opacity="1" fill-rule="nonzero"/></g><g clip-path="url(#43ce7d6093)"><path fill="#000000" d="M 205.675781 288.65625 L 31.207031 288.65625 C 30.652344 288.65625 30.203125 288.210938 30.203125 287.65625 C 30.203125 287.105469 30.652344 286.65625 31.207031 286.65625 L 205.675781 286.65625 C 206.230469 286.65625 206.679688 287.105469 206.679688 287.65625 C 206.679688 288.210938 206.230469 288.65625 205.675781 288.65625 Z M 205.675781 288.65625 " fill-opacity="1" fill-rule="nonzero"/></g><g clip-path="url(#f5aad9a3f7)"><path fill="#000000" d="M 30.203125 287.65625 L 30.203125 135.246094 C 30.203125 134.691406 30.652344 134.246094 31.207031 134.246094 C 31.757812 134.246094 32.207031 134.691406 32.207031 135.246094 L 32.207031 287.65625 C 32.207031 288.210938 31.757812 288.65625 31.207031 288.65625 C 30.652344 288.65625 30.203125 288.210938 30.203125 287.65625 Z M 30.203125 287.65625 " fill-opacity="1" fill-rule="nonzero"/></g><g clip-path="url(#53c5f050c7)"><path fill="#000000" d="M 31.207031 134.246094 L 205.675781 134.246094 C 206.230469 134.246094 206.679688 134.691406 206.679688 135.246094 C 206.679688 135.796875 206.230469 136.246094 205.675781 136.246094 L 31.207031 136.246094 C 30.652344 136.246094 30.203125 135.796875 30.203125 135.246094 C 30.203125 134.691406 30.652344 134.246094 31.207031 134.246094 Z M 31.207031 134.246094 " fill-opacity="1" fill-rule="nonzero"/></g><g fill="#ffffff" fill-opacity="1"><g transform="translate(211.291615, 371.349967)"><g><path d="M 1.1875 -0.828125 C 1.1875 -1.179688 1.265625 -1.445312 1.421875 -1.625 C 1.585938 -1.800781 1.816406 -1.890625 2.109375 -1.890625 C 2.410156 -1.890625 2.644531 -1.800781 2.8125 -1.625 C 2.988281 -1.445312 3.078125 -1.179688 3.078125 -0.828125 C 3.078125 -0.492188 2.988281 -0.234375 2.8125 -0.046875 C 2.644531 0.140625 2.410156 0.234375 2.109375 0.234375 C 1.847656 0.234375 1.628906 0.148438 1.453125 -0.015625 C 1.273438 -0.179688 1.1875 -0.453125 1.1875 -0.828125 Z M 1.1875 -0.828125 "/></g></g></g></svg>