<svg xmlns="http://www.w3.org/2000/svg" xmlns:xlink="http://www.w3.org/1999/xlink" width="500" zoomAndPan="magnify" viewBox="0 0 375 374.999991" height="500" preserveAspectRatio="xMidYMid meet" version="1.0"><defs><g/><clipPath id="e2a31b9875"><path d="M 15 67.457031 L 370 67.457031 L 370 219.707031 L 15 219.707031 Z M 15 67.457031 " clip-rule="nonzero"/></clipPath></defs><path fill="#ffffff" d="M 219.082031 216.601562 C 218.914062 216.523438 218.75 216.441406 218.59375 216.355469 C 212.53125 213.164062 206.910156 208.976562 201.863281 203.882812 C 197.128906 199.113281 192.976562 193.148438 189.171875 185.648438 C 187.769531 182.898438 186.542969 179.953125 185.515625 176.894531 C 184.980469 175.296875 184.535156 173.804688 184.15625 172.324219 C 183.957031 171.546875 183.773438 170.769531 183.605469 169.984375 L 183.496094 169.464844 L 182.921875 167.683594 C 182.921875 167.683594 181.425781 167.652344 181.421875 167.652344 C 181.230469 167.652344 181.074219 167.667969 180.929688 167.691406 L 177.546875 167.746094 C 172.707031 167.839844 167.082031 167.9375 161.542969 167.9375 C 160.789062 167.9375 160.039062 167.9375 159.285156 167.933594 C 156.917969 167.921875 152.816406 167.683594 149.9375 167.503906 L 149.816406 167.5 L 146.441406 167.679688 C 140.105469 168.035156 133.644531 168.265625 127.394531 168.488281 C 122.996094 168.648438 118.445312 168.8125 113.96875 169.015625 C 102.058594 169.558594 90.296875 169.699219 78.289062 169.808594 C 76.398438 169.824219 74.503906 169.835938 72.609375 169.835938 C 64.722656 169.835938 58.132812 169.675781 51.875 169.332031 C 48.292969 169.128906 41.78125 168.453125 35.960938 167.441406 C 33.011719 166.933594 30.40625 166.363281 28.421875 165.792969 C 28.148438 165.71875 27.898438 165.644531 27.65625 165.566406 C 27.40625 165.492188 27.179688 165.429688 26.957031 165.367188 C 26.800781 165.3125 26.644531 165.246094 26.492188 165.179688 L 26.394531 165.140625 C 25.515625 164.820312 25.050781 164.589844 24.957031 164.53125 L 24.886719 164.488281 C 24.808594 164.441406 24.710938 164.394531 24.628906 164.332031 L 24.492188 164.1875 L 24.285156 164.050781 C 23.011719 163.21875 21.972656 162.117188 21.285156 160.867188 C 20.519531 159.507812 19.921875 157.90625 19.394531 155.808594 C 18.972656 153.917969 18.652344 151.957031 18.449219 150.035156 C 18.199219 147.96875 18.050781 145.9375 17.925781 144.039062 C 17.71875 140.699219 17.578125 137.289062 17.441406 133.992188 L 17.355469 131.957031 C 17.050781 124.238281 17.066406 115.808594 17.402344 105.429688 C 17.554688 101.769531 17.8125 98.5625 18.191406 95.644531 C 18.550781 92.988281 19.101562 89.484375 20.214844 86.03125 C 20.511719 85.074219 21.179688 83.191406 22.386719 81.132812 C 23.054688 80.046875 23.644531 79.230469 24.28125 78.527344 C 25.042969 77.695312 25.890625 76.980469 26.738281 76.464844 C 28.199219 75.558594 29.742188 75.226562 30.78125 75.105469 L 30.960938 75.085938 L 31.234375 75.003906 C 33.347656 74.464844 35.53125 74.132812 37.410156 73.867188 C 39.273438 73.609375 41.292969 73.382812 43.75 73.148438 C 56.859375 71.960938 70.136719 71.484375 81.554688 71.128906 C 95.007812 70.738281 108.261719 70.554688 119.453125 70.425781 C 123.203125 70.386719 126.953125 70.332031 130.707031 70.277344 C 138.722656 70.164062 147.015625 70.050781 155.164062 70.050781 C 157.660156 70.050781 160.15625 70.058594 162.648438 70.085938 C 165.746094 70.097656 168.824219 70.105469 171.90625 70.105469 C 178.664062 70.105469 185.421875 70.078125 192.179688 70.046875 C 198.929688 70.019531 205.683594 69.988281 212.433594 69.988281 C 228.59375 69.988281 240.949219 70.164062 252.5 70.554688 C 260.367188 70.824219 268.359375 70.972656 276.089844 71.113281 C 285.382812 71.285156 294.996094 71.464844 304.421875 71.851562 C 306.664062 71.945312 309.734375 72.023438 313.289062 72.109375 C 320.402344 72.292969 329.253906 72.515625 338.191406 73 L 338.269531 73.003906 L 341.980469 72.921875 C 342.851562 72.894531 343.699219 72.878906 344.550781 72.878906 C 345.164062 72.878906 345.777344 72.886719 346.390625 72.90625 C 349.925781 73.011719 352.609375 73.316406 355.097656 73.90625 C 356.6875 74.28125 358.042969 74.730469 359.238281 75.28125 C 360.640625 75.921875 361.851562 76.726562 362.832031 77.667969 C 363.980469 78.75 364.941406 80.207031 365.546875 81.792969 C 366.078125 83.195312 366.425781 84.800781 366.601562 86.691406 C 366.765625 88.40625 366.78125 90.058594 366.777344 91.742188 C 366.792969 93.433594 366.796875 95.109375 366.777344 96.785156 C 366.769531 102.234375 366.867188 107.742188 366.960938 113.074219 C 367.113281 121.527344 367.269531 130.269531 366.996094 138.839844 C 366.964844 139.71875 366.945312 140.617188 366.925781 141.527344 C 366.902344 142.660156 366.878906 143.832031 366.824219 144.984375 C 366.71875 147.453125 366.554688 149.328125 366.292969 151.074219 C 365.945312 153.425781 365.476562 155.300781 364.824219 156.980469 C 364.28125 158.402344 363.265625 160.398438 361.472656 161.898438 C 360.945312 162.355469 359.871094 163.171875 358.3125 163.769531 C 356.960938 164.289062 355.34375 164.640625 353.484375 164.8125 C 352.535156 164.898438 351.496094 164.941406 350.320312 164.949219 L 350.171875 164.949219 L 349.929688 164.984375 C 341.332031 166.355469 332.609375 166.941406 325.105469 167.382812 C 315.960938 167.894531 306.9375 168.152344 300.097656 168.324219 C 297.835938 168.378906 295.578125 168.441406 293.320312 168.507812 C 287.15625 168.683594 280.785156 168.863281 274.535156 168.863281 C 274.53125 168.863281 274.53125 168.863281 274.53125 168.863281 C 273.550781 168.863281 272.566406 168.859375 271.585938 168.847656 L 269.921875 168.847656 C 264.300781 168.847656 258.589844 168.90625 253.066406 168.964844 C 247.554688 169.019531 241.855469 169.078125 236.253906 169.078125 C 226.921875 169.078125 219.296875 168.914062 212.257812 168.554688 L 208.019531 168.363281 L 205.523438 167.992188 L 205.261719 170.574219 L 205.246094 171.976562 C 205.253906 172.410156 205.28125 172.792969 205.3125 173.175781 C 205.328125 173.347656 205.582031 176.863281 205.582031 176.863281 C 205.660156 177.628906 205.765625 178.316406 205.863281 178.984375 C 205.917969 179.363281 205.976562 179.738281 206.027344 180.117188 C 206.1875 181.570312 206.492188 183.027344 206.78125 184.4375 C 206.921875 185.109375 207.0625 185.785156 207.1875 186.460938 L 207.203125 186.539062 C 207.34375 187.164062 207.503906 187.785156 207.664062 188.40625 C 207.769531 188.824219 207.875 189.242188 207.976562 189.664062 L 208.382812 191.308594 L 208.832031 192.84375 C 209.203125 194.113281 209.714844 195.847656 210.5 197.863281 C 211.1875 199.8125 212.132812 202.042969 213.117188 204.339844 C 214.808594 208.175781 216.886719 212.453125 219.082031 216.601562 Z M 219.082031 216.601562 " fill-opacity="1" fill-rule="nonzero"/><g clip-path="url(#e2a31b9875)"><path fill="#000000" d="M 368.878906 96.804688 C 368.894531 95.117188 368.890625 93.429688 368.878906 91.742188 C 368.878906 90.035156 368.863281 88.289062 368.691406 86.492188 C 368.523438 84.703125 368.195312 82.851562 367.507812 81.039062 C 366.816406 79.230469 365.71875 77.496094 364.285156 76.148438 C 363.039062 74.953125 361.59375 74.042969 360.113281 73.363281 C 358.628906 72.683594 357.101562 72.214844 355.578125 71.855469 C 352.527344 71.136719 349.476562 70.890625 346.453125 70.800781 C 344.941406 70.753906 343.4375 70.769531 341.9375 70.820312 L 338.304688 70.898438 C 324.753906 70.164062 311.09375 70.019531 304.507812 69.75 C 287.21875 69.039062 269.886719 69.039062 252.570312 68.453125 C 222.617188 67.4375 192.640625 68.125 162.671875 67.980469 C 148.253906 67.835938 133.84375 68.160156 119.425781 68.324219 C 106.78125 68.464844 94.136719 68.65625 81.488281 69.027344 C 68.84375 69.417969 56.199219 69.90625 43.550781 71.054688 C 41.40625 71.253906 39.261719 71.488281 37.113281 71.785156 C 34.96875 72.085938 32.828125 72.425781 30.671875 72.976562 C 30.628906 72.988281 30.585938 73.003906 30.539062 73.015625 C 29.0625 73.1875 27.300781 73.640625 25.648438 74.664062 C 24.570312 75.320312 23.578125 76.179688 22.726562 77.113281 C 21.878906 78.054688 21.1875 79.074219 20.578125 80.066406 C 19.40625 82.066406 18.652344 83.984375 18.214844 85.386719 C 17.152344 88.695312 16.558594 92.039062 16.109375 95.371094 C 15.679688 98.707031 15.441406 102.035156 15.304688 105.359375 C 15.011719 114.296875 14.90625 123.152344 15.257812 132.046875 C 15.429688 136.085938 15.578125 140.128906 15.832031 144.179688 C 15.964844 146.199219 16.117188 148.230469 16.359375 150.253906 C 16.574219 152.273438 16.910156 154.308594 17.359375 156.324219 C 17.839844 158.226562 18.460938 160.132812 19.449219 161.890625 C 20.328125 163.476562 21.636719 164.828125 23.136719 165.8125 C 23.328125 166.019531 23.625 166.1875 23.847656 166.320312 C 24.101562 166.480469 24.742188 166.777344 25.671875 167.117188 C 25.890625 167.210938 26.113281 167.304688 26.339844 167.378906 C 26.574219 167.441406 26.804688 167.511719 27.035156 167.578125 C 27.296875 167.660156 27.5625 167.738281 27.847656 167.820312 C 29.953125 168.421875 32.683594 169.011719 35.601562 169.515625 C 41.433594 170.527344 48 171.222656 51.757812 171.433594 C 60.617188 171.917969 69.464844 171.988281 78.308594 171.914062 C 90.238281 171.804688 102.15625 171.660156 114.0625 171.117188 C 124.890625 170.625 135.734375 170.386719 146.558594 169.78125 C 147.640625 169.722656 148.722656 169.664062 149.808594 169.605469 C 153.367188 169.828125 157.042969 170.027344 159.277344 170.039062 C 165.375 170.066406 171.476562 169.96875 177.585938 169.851562 L 180.402344 169.800781 L 181.105469 169.792969 L 181.195312 169.777344 C 181.253906 169.769531 181.324219 169.753906 181.386719 169.757812 L 181.429688 169.898438 L 181.457031 169.980469 L 181.464844 170 L 181.492188 170.128906 L 181.554688 170.433594 C 181.730469 171.242188 181.917969 172.046875 182.125 172.84375 C 182.53125 174.441406 183.003906 176.011719 183.527344 177.5625 C 184.566406 180.667969 185.820312 183.695312 187.300781 186.601562 C 190.769531 193.4375 194.988281 199.941406 200.375 205.367188 C 205.460938 210.496094 211.257812 214.875 217.585938 218.203125 C 218.582031 218.746094 219.667969 219.121094 220.714844 219.550781 C 220.984375 219.660156 221.28125 219.671875 221.507812 219.429688 C 221.742188 219.476562 221.988281 219.429688 222.234375 219.234375 C 222.789062 218.808594 222.410156 218.347656 222.132812 217.847656 C 219.621094 213.234375 217.074219 208.109375 215.046875 203.507812 C 214.054688 201.195312 213.136719 199.027344 212.457031 197.097656 C 211.710938 195.1875 211.214844 193.511719 210.847656 192.253906 L 210.398438 190.71875 L 210.019531 189.171875 C 209.769531 188.136719 209.484375 187.113281 209.253906 186.078125 C 208.871094 183.996094 208.339844 181.9375 208.109375 179.839844 C 207.96875 178.796875 207.785156 177.753906 207.675781 176.710938 L 207.449219 173.566406 C 207.417969 173.042969 207.355469 172.519531 207.347656 172 L 207.359375 170.691406 L 207.390625 170.394531 L 207.609375 170.425781 L 207.71875 170.445312 L 207.777344 170.457031 L 207.792969 170.460938 L 207.914062 170.464844 L 208.164062 170.472656 L 212.152344 170.65625 C 231.941406 171.660156 251.757812 170.914062 271.566406 170.953125 C 281.09375 171.046875 290.621094 170.664062 300.148438 170.425781 C 308.507812 170.21875 316.867188 169.949219 325.230469 169.484375 C 333.589844 168.992188 341.949219 168.390625 350.300781 167.058594 C 350.3125 167.054688 350.320312 167.054688 350.332031 167.050781 C 351.457031 167.046875 352.578125 167.007812 353.675781 166.910156 C 355.601562 166.730469 357.460938 166.355469 359.058594 165.734375 C 360.660156 165.121094 361.957031 164.257812 362.816406 163.515625 C 364.6875 161.949219 365.984375 159.835938 366.78125 157.742188 C 367.601562 155.636719 368.054688 153.496094 368.371094 151.382812 C 368.6875 149.269531 368.832031 147.171875 368.921875 145.085938 C 369.023438 142.992188 369.019531 140.917969 369.097656 138.90625 C 369.539062 124.875 368.855469 110.84375 368.878906 96.804688 Z M 365.410156 149.859375 C 365.214844 152.214844 364.832031 154.550781 364.078125 156.746094 C 363.679688 157.828125 363.214844 158.890625 362.570312 159.828125 C 361.933594 160.769531 361.152344 161.605469 360.234375 162.273438 C 360.089844 162.378906 359.941406 162.472656 359.792969 162.570312 C 359.671875 162.519531 359.546875 162.496094 359.429688 162.496094 C 359.152344 162.503906 358.75 162.589844 358.480469 162.640625 C 357.929688 162.714844 356.09375 163.089844 353.332031 163.28125 C 350.585938 163.5 346.996094 163.636719 343.164062 163.695312 C 335.496094 163.832031 326.859375 163.710938 321.921875 163.835938 C 310.273438 164.128906 298.628906 164.421875 286.96875 164.714844 C 271.230469 165.105469 255.472656 165.132812 239.710938 165.472656 C 233.808594 165.597656 227.90625 165.632812 222 165.640625 L 213.140625 165.632812 L 208.710938 165.625 L 202.703125 165.578125 L 202.792969 171.007812 C 202.78125 172.308594 202.964844 173.597656 203.097656 174.886719 C 203.847656 181.800781 205.566406 188.53125 207.925781 194.984375 C 210.273438 201.445312 213.320312 207.613281 216.835938 213.472656 C 217.617188 214.734375 218.457031 215.949219 219.339844 217.136719 C 218.820312 216.796875 218.296875 216.460938 217.789062 216.101562 C 217.199219 215.710938 216.613281 215.320312 216.039062 214.941406 C 215.472656 214.542969 214.921875 214.152344 214.382812 213.773438 C 212.238281 212.265625 210.441406 210.859375 209.425781 209.9375 C 205.113281 206.066406 201.007812 201.898438 197.808594 197.039062 C 196.449219 194.929688 195.117188 192.8125 193.882812 190.628906 C 192.65625 188.445312 191.496094 186.21875 190.4375 183.941406 C 188.324219 179.386719 186.597656 174.589844 185.625 169.679688 L 185.5 168.972656 C 185.433594 168.605469 185.378906 168.230469 185.328125 167.855469 C 185.21875 167.109375 185.128906 166.335938 185.03125 165.585938 L 182.152344 165.566406 L 180.128906 165.574219 L 176.996094 165.628906 C 174.90625 165.667969 172.820312 165.710938 170.734375 165.753906 C 163.992188 165.847656 157.253906 165.964844 150.515625 166.347656 C 145.253906 166.449219 139.988281 166.582031 134.722656 166.527344 C 119.800781 166.371094 104.894531 167.3125 89.976562 167.292969 C 82.804688 167.222656 75.632812 167.425781 68.46875 167.359375 C 62.183594 167.304688 55.898438 167.179688 49.628906 166.96875 C 43.363281 166.742188 37.09375 166.484375 30.914062 165.824219 C 29.910156 165.707031 28.902344 165.585938 27.90625 165.4375 C 27.378906 165.265625 26.871094 165.105469 26.457031 164.878906 C 25.492188 164.484375 24.832031 163.960938 24.308594 163.609375 C 23.328125 162.726562 22.507812 161.734375 21.886719 160.539062 C 21.308594 159.308594 20.808594 157.984375 20.515625 156.515625 C 19.867188 153.621094 19.613281 150.449219 19.507812 147.308594 C 19.382812 141.792969 19.257812 136.308594 19.128906 130.808594 C 19.023438 125.285156 18.960938 119.742188 19.148438 114.214844 C 19.394531 108.890625 19.367188 103.597656 19.921875 98.367188 C 20.148438 96.070312 20.457031 93.789062 20.871094 91.546875 C 21.28125 89.300781 21.796875 87.082031 22.503906 84.964844 C 23.203125 82.84375 24.109375 80.820312 25.363281 79.117188 C 26.625 77.425781 28.277344 76.148438 30.316406 75.515625 C 30.617188 75.417969 30.925781 75.335938 31.238281 75.261719 C 32.566406 75.125 35.105469 74.90625 38.46875 74.800781 C 42.691406 74.648438 48.167969 74.597656 54.003906 74.601562 C 65.671875 74.609375 78.777344 74.835938 86.277344 74.769531 C 103.949219 74.574219 121.625 74.378906 139.304688 74.183594 C 163.167969 73.898438 187.039062 73.941406 210.910156 73.644531 C 232.628906 73.375 254.367188 73.621094 276.097656 73.496094 C 292.90625 73.402344 309.722656 73.46875 326.539062 73.527344 C 328.476562 73.695312 330.894531 73.886719 333.464844 74.066406 C 336.203125 74.257812 339.148438 74.453125 341.78125 74.582031 C 344.382812 74.667969 346.710938 74.847656 348.382812 75.007812 C 352.296875 75.363281 356.230469 76.050781 359.277344 77.738281 C 360.777344 78.59375 361.988281 79.679688 362.800781 81.089844 C 363.625 82.492188 364.097656 84.210938 364.335938 86.085938 C 364.664062 88.617188 364.570312 91.386719 364.640625 94.203125 L 364.761719 102.609375 C 364.851562 108.210938 364.957031 113.8125 365.140625 119.414062 C 365.304688 124.507812 365.390625 129.605469 365.472656 134.703125 L 365.601562 142.335938 C 365.648438 144.855469 365.617188 147.371094 365.410156 149.859375 Z M 365.410156 149.859375 " fill-opacity="1" fill-rule="nonzero"/></g><g fill="#ffffff" fill-opacity="1"><g transform="translate(211.291615, 371.349967)"><g><path d="M 1.1875 -0.828125 C 1.1875 -1.179688 1.265625 -1.445312 1.421875 -1.625 C 1.585938 -1.800781 1.816406 -1.890625 2.109375 -1.890625 C 2.410156 -1.890625 2.644531 -1.800781 2.8125 -1.625 C 2.988281 -1.445312 3.078125 -1.179688 3.078125 -0.828125 C 3.078125 -0.492188 2.988281 -0.234375 2.8125 -0.046875 C 2.644531 0.140625 2.410156 0.234375 2.109375 0.234375 C 1.847656 0.234375 1.628906 0.148438 1.453125 -0.015625 C 1.273438 -0.179688 1.1875 -0.453125 1.1875 -0.828125 Z M 1.1875 -0.828125 "/></g></g></g></svg>