<svg xmlns="http://www.w3.org/2000/svg" xmlns:xlink="http://www.w3.org/1999/xlink" width="500" zoomAndPan="magnify" viewBox="0 0 375 374.999991" height="500" preserveAspectRatio="xMidYMid meet" version="1.0"><defs><g/><clipPath id="afec11609f"><path d="M 62 25 L 331.890625 25 L 331.890625 316 L 62 316 Z M 62 25 " clip-rule="nonzero"/></clipPath><clipPath id="b8b67bb465"><path d="M 43.140625 5.3125 L 315 5.3125 L 315 317.3125 L 43.140625 317.3125 Z M 43.140625 5.3125 " clip-rule="nonzero"/></clipPath></defs><g clip-path="url(#afec11609f)"><path fill="#999999" d="M 314.539062 114.027344 C 316.269531 114.027344 317.496094 115.398438 317.425781 117.203125 C 317.351562 118.644531 315.765625 120.230469 314.394531 120.160156 C 312.882812 120.085938 311.65625 118.570312 311.65625 116.984375 C 311.726562 115.109375 312.882812 113.957031 314.539062 114.027344 Z M 327.59375 116.984375 C 327.59375 115.542969 326.078125 114.027344 324.636719 114.027344 C 323.121094 114.027344 321.605469 115.46875 321.75 116.984375 C 321.894531 118.570312 322.6875 119.726562 324.492188 119.726562 C 326.222656 119.726562 327.59375 118.5 327.59375 116.984375 Z M 316.703125 122.105469 C 316.921875 123.765625 318 124.921875 319.660156 124.847656 C 321.175781 124.777344 322.472656 123.910156 322.402344 122.035156 C 322.402344 120.230469 321.390625 119.367188 320.238281 119.292969 C 317.859375 119.292969 316.488281 120.59375 316.703125 122.105469 Z M 317.351562 86.976562 C 317.425781 85.386719 316.125 84.019531 314.46875 84.089844 C 312.808594 84.160156 311.726562 84.957031 311.726562 86.757812 C 311.726562 88.5625 312.664062 89.355469 313.964844 89.5 C 316.125 89.570312 317.28125 88.5625 317.351562 86.976562 Z M 317.425781 137.113281 C 317.28125 135.523438 316.488281 134.515625 314.757812 134.441406 C 312.953125 134.371094 312.015625 135.378906 311.800781 137.039062 C 311.582031 138.480469 312.953125 139.78125 314.613281 139.78125 C 316.199219 139.78125 317.570312 138.625 317.425781 137.113281 Z M 324.636719 124.269531 C 323.050781 124.269531 322.039062 125.207031 321.96875 126.867188 C 321.894531 128.671875 322.90625 129.609375 324.5625 129.824219 C 326.007812 130.042969 327.304688 128.671875 327.304688 127.085938 C 327.375 125.28125 326.292969 124.34375 324.636719 124.269531 Z M 324.636719 104.214844 C 322.832031 104.214844 321.96875 105.226562 321.96875 106.957031 C 321.894531 108.832031 323.050781 109.699219 324.707031 109.625 C 326.367188 109.554688 327.375 108.617188 327.304688 106.164062 C 327.015625 105.226562 326.367188 104.214844 324.636719 104.214844 Z M 316.703125 101.835938 C 316.632812 103.207031 318.074219 104.578125 319.515625 104.648438 C 321.101562 104.648438 322.472656 103.421875 322.328125 101.980469 C 322.113281 100.394531 321.390625 99.238281 319.445312 99.382812 C 317.859375 99.3125 316.703125 100.394531 316.703125 101.835938 Z M 314.46875 94.1875 C 313.097656 94.042969 311.582031 95.703125 311.726562 97.003906 C 311.871094 98.660156 312.953125 99.671875 314.394531 99.597656 C 315.984375 99.527344 317.136719 98.660156 316.992188 96.714844 C 317.207031 94.984375 315.984375 94.332031 314.46875 94.1875 Z M 209.761719 270.496094 C 208.464844 270.496094 206.875 272.011719 206.949219 273.382812 C 206.949219 274.753906 208.464844 276.410156 209.832031 276.121094 C 211.277344 275.835938 212.5 275.183594 212.285156 273.453125 C 212.214844 271.722656 211.132812 270.496094 209.761719 270.496094 Z M 309.492188 84.59375 C 311.078125 84.449219 312.015625 83.511719 312.089844 81.925781 C 312.234375 80.484375 310.863281 79.183594 309.277344 79.257812 C 307.617188 79.328125 306.679688 80.121094 306.753906 81.78125 C 306.824219 83.441406 307.976562 84.738281 309.492188 84.59375 Z M 324.78125 134.441406 C 323.195312 134.371094 321.824219 135.597656 321.96875 137.113281 C 322.113281 138.625 322.832031 139.707031 324.636719 139.707031 C 326.367188 139.707031 327.160156 138.769531 327.230469 137.6875 C 327.304688 135.597656 326.292969 134.441406 324.78125 134.441406 Z M 319.589844 134.804688 C 321.03125 135.019531 322.402344 133.648438 322.328125 132.0625 C 322.257812 130.402344 321.320312 129.539062 319.660156 129.539062 C 317.929688 129.539062 317.136719 130.402344 317.0625 132.0625 C 316.921875 133.867188 318.074219 134.585938 319.589844 134.804688 Z M 222.378906 263.136719 C 222.164062 261.625 221.371094 260.542969 219.640625 260.613281 C 217.910156 260.683594 217.117188 261.550781 217.117188 263.210938 C 217.117188 264.941406 218.125 265.664062 219.351562 265.878906 C 221.226562 265.878906 222.597656 264.582031 222.378906 263.136719 Z M 314.757812 149.878906 C 316.34375 149.734375 317.425781 148.726562 317.351562 147.210938 C 317.351562 145.769531 316.558594 144.613281 314.757812 144.613281 C 313.027344 144.613281 312.089844 145.335938 312.089844 147.066406 C 312.089844 148.652344 313.3125 150.023438 314.757812 149.878906 Z M 317.425781 157.167969 C 317.425781 155.507812 316.199219 154.496094 314.757812 154.496094 C 313.3125 154.496094 312.160156 155.289062 312.234375 157.167969 C 312.304688 158.898438 313.097656 159.761719 314.828125 159.761719 C 316.414062 159.761719 317.351562 158.753906 317.425781 157.167969 Z M 314.46875 74.132812 C 313.027344 74.132812 311.726562 75.074219 311.800781 76.730469 C 311.800781 78.390625 312.808594 79.257812 314.46875 79.257812 C 316.125 79.257812 316.777344 78.246094 317.0625 77.09375 C 316.992188 75.144531 315.910156 74.132812 314.46875 74.132812 Z M 294.710938 180.035156 C 296.296875 180.035156 297.304688 178.734375 297.304688 177.292969 C 297.304688 175.921875 296.367188 174.839844 294.78125 174.839844 C 293.050781 174.769531 292.328125 175.851562 292.183594 176.859375 C 292.042969 179.242188 293.265625 180.035156 294.710938 180.035156 Z M 319.15625 94.40625 C 320.8125 94.550781 321.894531 93.902344 322.039062 92.097656 C 322.183594 90.367188 321.101562 89.355469 319.660156 89.210938 C 318.289062 89.140625 317.207031 90.003906 316.992188 91.59375 C 316.921875 93.179688 317.496094 94.261719 319.15625 94.40625 Z M 314.179688 64.179688 C 312.519531 64.324219 311.871094 65.332031 311.726562 66.777344 C 311.582031 68.003906 313.242188 69.660156 314.46875 69.375 C 315.765625 69.085938 316.847656 68.292969 316.992188 66.632812 C 316.558594 65.261719 315.984375 64.105469 314.179688 64.179688 Z M 237.164062 243.082031 C 237.234375 244.597656 238.101562 245.390625 239.6875 245.535156 C 241.417969 245.609375 242.210938 244.527344 242.285156 243.226562 C 242.355469 241.785156 241.417969 240.628906 239.6875 240.558594 C 238.101562 240.558594 237.089844 241.425781 237.164062 243.082031 Z M 287.210938 187.464844 C 287.136719 185.949219 286.273438 185.15625 284.6875 185.082031 C 282.882812 185.011719 282.089844 186.238281 282.089844 187.609375 C 282.089844 188.90625 282.957031 190.132812 284.6875 189.988281 C 286.273438 189.917969 287.28125 189.125 287.210938 187.464844 Z M 229.734375 250.441406 C 228.582031 250.226562 226.851562 251.957031 227.066406 253.183594 C 227.355469 254.554688 228.003906 255.78125 229.664062 255.636719 C 231.105469 255.5625 232.117188 254.699219 232.1875 253.542969 C 232.1875 251.523438 231.179688 250.730469 229.734375 250.441406 Z M 309.78125 149.664062 C 308.484375 149.589844 307.257812 150.386719 307.257812 152.042969 C 307.257812 153.703125 308.121094 154.714844 309.707031 154.714844 C 311.152344 154.714844 312.089844 153.777344 312.160156 152.1875 C 312.304688 150.53125 311.078125 149.734375 309.78125 149.664062 Z M 234.710938 245.535156 C 233.125 245.535156 232.332031 246.472656 232.1875 247.988281 C 232.042969 249.71875 233.054688 250.515625 234.566406 250.515625 C 236.011719 250.515625 237.164062 249.9375 237.089844 248.132812 C 237.019531 246.691406 236.371094 245.609375 234.710938 245.535156 Z M 227.210938 258.234375 C 227.285156 256.863281 226.417969 255.78125 224.761719 255.707031 C 223.101562 255.636719 222.164062 256.71875 222.164062 258.089844 C 222.164062 259.457031 222.957031 260.613281 224.832031 260.613281 C 226.273438 260.757812 227.140625 259.601562 227.210938 258.234375 Z M 197.140625 283.410156 C 197.140625 284.996094 198.078125 285.863281 199.59375 285.863281 C 201.179688 285.863281 201.902344 284.925781 201.972656 283.335938 C 202.046875 281.605469 200.964844 281.027344 199.738281 280.882812 C 198.007812 281.027344 197.140625 281.894531 197.140625 283.410156 Z M 222.164062 268.1875 C 222.164062 269.558594 223.175781 270.710938 224.6875 270.710938 C 226.203125 270.710938 227.140625 269.703125 227.210938 268.1875 C 227.210938 266.601562 226.058594 265.953125 224.6875 265.519531 C 223.316406 265.953125 222.164062 266.816406 222.164062 268.1875 Z M 179.546875 291.054688 C 178.175781 291.054688 177.09375 291.921875 177.09375 293.652344 C 177.09375 295.238281 178.25 296.035156 179.472656 296.035156 C 180.84375 296.105469 181.996094 295.238281 181.996094 293.074219 C 182.070312 291.847656 180.917969 290.984375 179.546875 291.054688 Z M 192.164062 293.4375 C 192.164062 291.921875 191.085938 290.910156 189.640625 290.984375 C 188.199219 291.054688 187.191406 292.066406 187.261719 293.652344 C 187.335938 295.09375 188.414062 295.746094 189.640625 296.105469 C 191.011719 295.671875 192.164062 295.023438 192.164062 293.4375 Z M 252.089844 212.785156 C 252.089844 211.34375 251.152344 210.476562 249.566406 210.40625 C 247.835938 210.332031 247.117188 211.488281 247.117188 212.855469 C 247.117188 214.300781 247.980469 215.308594 250.214844 215.308594 C 251.226562 215.238281 252.089844 214.226562 252.089844 212.785156 Z M 307.113281 157.308594 C 307.113281 156.085938 306.390625 154.929688 304.804688 154.859375 C 303.21875 154.785156 302.28125 155.507812 302.210938 157.167969 C 302.136719 158.753906 302.929688 159.617188 304.445312 159.691406 C 306.320312 159.761719 307.113281 158.609375 307.113281 157.308594 Z M 166.78125 238.179688 C 166.78125 236.878906 165.84375 235.871094 164.402344 235.796875 C 162.816406 235.726562 161.949219 236.808594 161.949219 238.324219 C 161.949219 239.691406 162.671875 240.703125 164.257812 240.628906 C 165.988281 240.703125 166.710938 239.546875 166.78125 238.179688 Z M 304.226562 59.203125 C 305.671875 59.203125 306.753906 58.265625 306.753906 56.75 C 306.753906 55.160156 305.742188 54.367188 304.226562 54.367188 C 302.785156 54.367188 301.847656 55.089844 301.921875 57.398438 C 301.992188 58.121094 302.714844 59.203125 304.226562 59.203125 Z M 311.726562 61.726562 C 311.726562 60.066406 310.863281 59.273438 309.277344 59.347656 C 307.832031 59.347656 306.96875 60.210938 306.894531 61.65625 C 306.824219 63.242188 307.832031 63.964844 309.132812 64.25 C 310.789062 64.035156 311.65625 63.386719 311.726562 61.726562 Z M 184.667969 286.007812 C 183.078125 285.933594 182.140625 287.015625 182.140625 288.457031 C 182.140625 289.902344 183.078125 290.839844 184.738281 290.839844 C 186.324219 290.839844 186.972656 290.046875 186.972656 288.457031 C 186.828125 287.015625 186.109375 286.078125 184.667969 286.007812 Z M 217.261719 273.308594 C 217.261719 274.609375 218.125 275.691406 219.640625 275.691406 C 221.082031 275.691406 221.949219 274.96875 222.019531 273.453125 C 222.09375 271.792969 221.300781 271 219.710938 270.855469 C 218.054688 270.855469 217.261719 271.9375 217.261719 273.308594 Z M 272.136719 192.660156 C 272.210938 191.070312 270.984375 190.207031 269.613281 190.207031 C 268.246094 190.207031 267.234375 191.070312 267.308594 192.730469 C 267.378906 194.316406 268.316406 194.824219 269.6875 194.96875 C 271.054688 194.824219 272.066406 194.101562 272.136719 192.660156 Z M 306.753906 66.847656 C 306.824219 65.332031 305.816406 64.25 304.300781 64.324219 C 303.074219 64.394531 301.921875 65.117188 301.921875 66.703125 C 301.921875 68.21875 302.570312 69.085938 303.796875 69.085938 C 305.742188 69.085938 306.679688 68.292969 306.753906 66.847656 Z M 254.542969 210.1875 C 255.984375 210.1875 256.996094 209.25 256.996094 207.734375 C 256.921875 206.21875 256.058594 205.425781 254.398438 205.425781 C 252.8125 205.5 252.234375 206.4375 252.164062 207.589844 C 252.234375 209.394531 253.316406 210.1875 254.542969 210.1875 Z M 232.1875 207.734375 C 232.117188 209.324219 233.054688 210.1875 234.351562 210.332031 C 235.867188 210.476562 236.949219 209.394531 236.949219 207.953125 C 236.949219 206.652344 236.152344 205.570312 233.847656 205.570312 C 233.054688 205.5 232.261719 206.078125 232.1875 207.734375 Z M 156.613281 238.394531 C 156.613281 236.878906 155.605469 235.796875 154.164062 235.871094 C 152.9375 235.941406 151.710938 236.664062 151.78125 238.25 C 151.855469 239.691406 152.574219 240.558594 154.234375 240.628906 C 155.53125 240.558594 156.613281 239.910156 156.613281 238.394531 Z M 242.066406 207.953125 C 242.066406 209.324219 243.148438 210.332031 244.519531 210.261719 C 245.746094 210.1875 246.828125 209.46875 246.828125 207.878906 C 246.828125 206.292969 246.179688 205.570312 244.734375 205.570312 C 243.003906 205.5 242.066406 206.507812 242.066406 207.953125 Z M 192.238281 288.386719 C 192.238281 289.828125 193.101562 290.695312 194.546875 290.765625 C 196.058594 290.839844 196.925781 289.902344 196.996094 288.53125 C 197.140625 287.015625 196.058594 286.222656 194.402344 285.863281 C 193.390625 286.367188 192.238281 286.871094 192.238281 288.386719 Z M 302.351562 167.195312 C 302.28125 168.78125 303.289062 169.644531 304.515625 169.71875 C 305.957031 169.863281 307.113281 168.851562 307.113281 167.335938 C 307.113281 166.039062 306.246094 165.03125 304.734375 165.03125 C 303.289062 165.03125 302.425781 165.605469 302.351562 167.195312 Z M 154.449219 296.25 C 152.9375 296.25 152.070312 297.257812 152.144531 298.773438 C 152.214844 300.21875 153.082031 301.082031 154.59375 301.011719 C 156.039062 300.9375 156.902344 300.144531 156.757812 298.628906 C 156.757812 297.042969 155.894531 296.25 154.449219 296.25 Z M 321.824219 81.996094 C 321.96875 80.484375 320.957031 79.472656 319.515625 79.402344 C 318.144531 79.328125 317.136719 80.195312 317.0625 81.636719 C 316.992188 83.152344 317.929688 83.875 319.226562 84.160156 C 320.742188 84.160156 321.679688 83.367188 321.824219 81.996094 Z M 299.757812 170.007812 C 298.316406 169.933594 297.378906 170.800781 297.304688 172.242188 C 297.234375 173.832031 298.097656 174.769531 299.613281 174.769531 C 301.054688 174.769531 301.921875 173.972656 301.847656 172.316406 C 302.136719 170.800781 301.199219 170.078125 299.757812 170.007812 Z M 259.589844 200.304688 C 258.21875 200.304688 257.210938 201.242188 257.140625 202.613281 C 257.140625 203.914062 257.859375 204.996094 259.375 205.066406 C 260.960938 205.136719 261.753906 204.273438 261.898438 202.613281 C 261.898438 201.171875 260.960938 200.304688 259.589844 200.304688 Z M 161.589844 233.273438 C 161.589844 231.902344 160.726562 231.035156 159.425781 230.890625 C 157.839844 230.746094 156.902344 231.828125 156.832031 233.273438 C 156.757812 234.644531 157.839844 235.4375 159.5 235.726562 C 160.4375 235.292969 161.589844 234.859375 161.589844 233.273438 Z M 307.328125 142.160156 C 307.328125 143.605469 308.265625 144.542969 309.636719 144.542969 C 311.078125 144.542969 312.015625 143.53125 312.015625 142.160156 C 312.015625 140.863281 311.078125 139.925781 309.492188 139.707031 C 308.339844 140.070312 307.328125 140.644531 307.328125 142.160156 Z M 151.855469 228.222656 C 151.78125 229.808594 152.9375 230.601562 154.164062 230.601562 C 155.460938 230.601562 156.613281 229.738281 156.613281 228.296875 C 156.542969 226.996094 155.75 225.988281 154.089844 225.84375 C 152.792969 226.058594 151.925781 226.78125 151.855469 228.222656 Z M 232.332031 257.945312 C 232.1875 259.457031 233.269531 260.46875 234.710938 260.46875 C 236.011719 260.46875 237.089844 259.675781 237.089844 258.160156 C 237.089844 256.644531 236.226562 255.996094 234.929688 255.707031 C 233.34375 255.78125 232.40625 256.644531 232.332031 257.945312 Z M 272.066406 202.757812 C 272.136719 201.386719 271.199219 200.304688 269.832031 200.304688 C 268.605469 200.304688 267.378906 201.027344 267.378906 202.542969 C 267.308594 204.054688 268.316406 204.707031 269.46875 205.066406 C 271.054688 204.996094 271.992188 204.054688 272.066406 202.757812 Z M 114.066406 226.058594 C 112.625 225.988281 111.6875 226.925781 111.617188 228.367188 C 111.542969 229.808594 112.480469 230.746094 113.851562 230.820312 C 115.367188 230.964844 116.085938 229.953125 116.304688 228.65625 C 116.230469 227.070312 115.4375 226.128906 114.066406 226.058594 Z M 299.757812 184.867188 C 301.128906 184.867188 302.28125 183.714844 302.136719 182.269531 C 302.066406 181.042969 301.199219 180.035156 299.613281 180.105469 C 298.027344 180.179688 297.449219 181.042969 297.378906 182.414062 C 297.449219 184 298.53125 184.867188 299.757812 184.867188 Z M 212.285156 268.261719 C 212.285156 269.703125 213.222656 270.566406 214.664062 270.566406 C 216.035156 270.566406 217.042969 269.703125 217.042969 268.261719 C 217.042969 266.816406 216.035156 266.09375 214.738281 265.878906 C 213.222656 266.09375 212.285156 266.816406 212.285156 268.261719 Z M 141.757812 218.125 C 141.6875 219.492188 142.550781 220.503906 143.996094 220.574219 C 145.4375 220.648438 146.375 219.78125 146.445312 218.339844 C 146.519531 216.898438 145.507812 216.175781 144.210938 215.816406 C 142.839844 215.960938 141.757812 216.753906 141.757812 218.125 Z M 159.570312 295.960938 C 160.867188 295.960938 161.949219 294.878906 161.878906 293.507812 C 161.804688 292.355469 161.15625 291.273438 159.644531 291.273438 C 158.054688 291.273438 157.261719 292.136719 157.121094 293.726562 C 157.191406 295.238281 158.273438 296.035156 159.570312 295.960938 Z M 161.949219 228.367188 C 161.949219 229.808594 162.960938 230.601562 164.1875 230.601562 C 165.484375 230.601562 166.492188 229.808594 166.492188 228.222656 C 166.492188 226.636719 165.773438 225.914062 164.332031 225.914062 C 162.601562 225.914062 161.949219 226.851562 161.949219 228.367188 Z M 249.421875 200.378906 C 248.195312 200.449219 247.1875 201.316406 247.257812 202.902344 C 247.332031 204.5625 248.269531 205.066406 249.710938 204.996094 C 251.226562 204.996094 251.730469 203.984375 251.800781 202.6875 C 251.730469 201.171875 250.722656 200.304688 249.421875 200.378906 Z M 204.714844 290.765625 C 206.011719 290.765625 206.804688 289.972656 206.875 288.53125 C 206.949219 287.015625 206.15625 286.078125 204.714844 286.078125 C 203.269531 286.007812 202.476562 286.945312 202.40625 288.601562 C 202.476562 289.902344 203.269531 290.765625 204.714844 290.765625 Z M 111.253906 223.535156 C 111.183594 222.164062 110.460938 221.007812 108.804688 221.082031 C 107.363281 221.152344 106.640625 222.234375 106.640625 223.390625 C 106.570312 224.761719 107.507812 225.625 109.019531 225.625 C 110.390625 225.699219 111.328125 224.832031 111.253906 223.535156 Z M 276.96875 197.636719 C 276.96875 196.265625 276.03125 195.398438 274.589844 195.328125 C 273.074219 195.253906 272.425781 196.410156 272.28125 197.492188 C 272.136719 198.863281 273.074219 199.800781 274.519531 199.871094 C 276.175781 199.945312 276.96875 199.007812 276.96875 197.636719 Z M 242.429688 237.890625 C 242.429688 239.476562 243.148438 240.199219 244.734375 240.125 C 246.179688 240.125 246.898438 239.40625 246.898438 237.960938 C 246.898438 236.375 246.179688 235.652344 244.664062 235.652344 C 243.148438 235.726562 242.429688 236.445312 242.429688 237.890625 Z M 204.640625 276.121094 C 203.269531 276.121094 202.476562 276.84375 202.40625 278.289062 C 202.40625 279.65625 202.910156 280.523438 204.425781 280.59375 C 205.9375 280.667969 206.804688 280.089844 206.875 278 C 206.949219 276.917969 206.15625 276.121094 204.640625 276.121094 Z M 94.09375 220.578125 C 95.464844 220.433594 96.328125 219.636719 96.183594 218.269531 C 96.039062 216.898438 95.101562 215.960938 93.589844 216.175781 C 92.21875 216.320312 91.640625 217.257812 91.351562 218.554688 C 91.785156 219.925781 92.578125 220.71875 94.09375 220.578125 Z M 279.636719 190.351562 C 278.269531 190.351562 277.472656 191.214844 277.402344 192.585938 C 277.402344 194.027344 278.050781 194.894531 279.636719 194.894531 C 281.222656 194.894531 281.945312 194.171875 281.875 192.585938 C 281.945312 191 281.082031 190.277344 279.636719 190.351562 Z M 311.65625 71.96875 C 311.726562 70.527344 311.007812 69.660156 309.421875 69.589844 C 307.832031 69.519531 307.039062 70.601562 307.039062 71.898438 C 307.039062 73.125 307.90625 74.0625 309.636719 74.0625 C 310.789062 74.132812 311.582031 73.269531 311.65625 71.96875 Z M 314.683594 104.648438 C 313.242188 104.648438 312.304688 105.441406 312.234375 106.886719 C 312.160156 108.257812 313.027344 109.121094 314.394531 109.195312 C 315.910156 109.265625 316.632812 108.328125 316.921875 106.8125 C 316.488281 105.875 316.199219 104.648438 314.683594 104.648438 Z M 141.398438 223.246094 C 141.398438 222.089844 140.605469 221.082031 139.089844 221.082031 C 137.578125 221.082031 136.710938 221.945312 136.710938 223.316406 C 136.710938 224.617188 137.503906 225.480469 138.585938 225.480469 C 140.535156 225.554688 141.472656 224.542969 141.398438 223.246094 Z M 121.710938 218.269531 C 121.710938 219.636719 122.648438 220.503906 124.089844 220.578125 C 125.605469 220.648438 126.328125 219.492188 126.328125 218.410156 C 126.328125 217.1875 125.535156 216.105469 123.804688 216.175781 C 122.359375 216.03125 121.710938 217.042969 121.710938 218.269531 Z M 287.425781 192.441406 C 287.425781 193.667969 288.21875 194.824219 289.804688 194.824219 C 291.246094 194.824219 291.96875 193.742188 292.042969 192.585938 C 292.113281 191.359375 291.246094 190.421875 289.445312 190.421875 C 288.292969 190.277344 287.425781 191.214844 287.425781 192.441406 Z M 247.402344 232.984375 C 247.402344 234.28125 248.339844 235.21875 249.640625 235.21875 C 250.9375 235.21875 251.875 234.355469 251.945312 233.054688 C 252.019531 231.613281 251.082031 230.746094 249.566406 230.601562 C 248.269531 230.746094 247.332031 231.542969 247.402344 232.984375 Z M 327.304688 101.90625 C 327.375 103.351562 328.242188 104.214844 329.757812 104.144531 C 331.199219 104.070312 331.847656 103.132812 331.773438 101.765625 C 331.703125 100.394531 330.835938 99.671875 329.613281 99.671875 C 328.023438 99.742188 327.230469 100.539062 327.304688 101.90625 Z M 324.492188 99.167969 C 325.863281 99.167969 326.800781 98.300781 326.800781 96.785156 C 326.800781 95.34375 325.71875 94.550781 324.5625 94.550781 C 323.265625 94.550781 322.402344 95.414062 322.402344 97.148438 C 322.257812 98.300781 323.195312 99.167969 324.492188 99.167969 Z M 314.828125 165.101562 C 313.386719 165.101562 312.59375 165.75 312.59375 167.195312 C 312.519531 168.707031 313.242188 169.503906 314.828125 169.503906 C 316.34375 169.503906 316.921875 168.707031 317.0625 167.335938 C 316.921875 165.96875 316.34375 165.101562 314.828125 165.101562 Z M 116.230469 208.242188 C 116.304688 206.941406 115.367188 206.078125 113.996094 206.003906 C 112.554688 205.933594 111.6875 206.871094 111.617188 208.097656 C 111.542969 209.46875 112.410156 210.40625 113.851562 210.476562 C 115.511719 210.691406 116.160156 209.609375 116.230469 208.242188 Z M 244.589844 220.144531 C 246.035156 220.144531 246.828125 219.207031 246.828125 217.691406 C 246.828125 216.175781 245.746094 215.597656 244.445312 215.671875 C 243.148438 215.742188 242.285156 216.535156 242.355469 218.050781 C 242.285156 219.566406 243.367188 220.070312 244.589844 220.144531 Z M 83.707031 210.765625 C 85.007812 210.765625 86.089844 209.972656 86.089844 208.457031 C 86.089844 206.871094 84.933594 206.148438 83.707031 206.148438 C 82.554688 206.148438 81.546875 207.015625 81.691406 208.601562 C 81.472656 209.972656 82.410156 210.765625 83.707031 210.765625 Z M 297.089844 51.484375 C 296.945312 52.996094 297.59375 53.9375 299.179688 53.9375 C 300.550781 54.007812 301.414062 53.214844 301.488281 51.84375 C 301.558594 50.546875 300.984375 49.605469 299.46875 49.535156 C 298.097656 49.464844 297.160156 49.96875 297.089844 51.484375 Z M 229.304688 215.164062 C 230.671875 215.238281 231.609375 214.371094 231.683594 212.855469 C 231.828125 211.34375 230.671875 210.621094 229.519531 210.550781 C 228.367188 210.476562 227.355469 211.269531 227.285156 212.496094 C 227.285156 214.15625 228.078125 215.09375 229.304688 215.164062 Z M 101.59375 208.527344 C 101.664062 210.042969 102.746094 210.621094 103.972656 210.550781 C 105.199219 210.476562 106.136719 209.753906 106.0625 208.242188 C 105.917969 206.871094 105.054688 206.21875 103.613281 205.859375 C 102.675781 206.507812 101.519531 207.015625 101.59375 208.527344 Z M 237.453125 232.984375 C 237.453125 234.425781 238.316406 235.363281 239.832031 235.292969 C 241.128906 235.148438 241.996094 234.355469 241.996094 232.984375 C 241.921875 231.613281 241.203125 230.820312 239.253906 230.820312 C 238.246094 230.820312 237.453125 231.613281 237.453125 232.984375 Z M 98.78125 205.5 C 100.152344 205.425781 101.089844 204.707031 101.089844 203.335938 C 101.089844 202.035156 100.222656 201.171875 98.851562 201.097656 C 97.410156 201.027344 96.6875 201.820312 96.6875 203.261719 C 96.6875 204.707031 97.339844 205.570312 98.78125 205.5 Z M 86.59375 213.363281 C 86.519531 214.734375 87.386719 215.597656 88.683594 215.671875 C 89.984375 215.742188 91.0625 215.09375 90.992188 213.433594 C 90.921875 211.992188 90.269531 211.34375 88.539062 211.269531 C 87.316406 211.125 86.664062 211.992188 86.59375 213.363281 Z M 299.324219 59.632812 C 298.097656 59.632812 297.089844 60.285156 297.089844 61.726562 C 297.089844 63.242188 298.097656 63.964844 299.253906 64.035156 C 300.40625 64.035156 301.414062 63.3125 301.488281 61.726562 C 301.488281 60.355469 300.621094 59.632812 299.324219 59.632812 Z M 309.347656 49.535156 C 307.832031 49.464844 307.039062 50.546875 307.039062 51.699219 C 307.039062 52.855469 307.761719 53.9375 309.203125 53.9375 C 310.71875 54.007812 311.152344 52.855469 311.65625 51.699219 C 311.222656 50.617188 310.789062 49.605469 309.347656 49.535156 Z M 162.167969 288.457031 C 162.167969 289.683594 162.886719 290.839844 164.476562 290.839844 C 165.988281 290.839844 166.636719 289.757812 166.710938 288.675781 C 166.78125 287.449219 165.917969 286.582031 165.195312 286.511719 C 163.105469 286.292969 162.238281 287.304688 162.167969 288.457031 Z M 108.804688 201.097656 C 107.433594 201.171875 106.570312 202.035156 106.570312 203.335938 C 106.640625 204.5625 107.507812 205.5 108.875 205.5 C 110.390625 205.5 110.96875 204.632812 110.894531 203.261719 C 110.96875 201.820312 110.246094 201.027344 108.804688 201.097656 Z M 161.519531 243.300781 C 161.445312 242 160.652344 241.136719 159.28125 241.136719 C 157.914062 241.136719 157.121094 241.855469 157.191406 243.371094 C 157.261719 244.816406 157.914062 245.535156 159.355469 245.535156 C 160.652344 245.390625 161.519531 244.671875 161.519531 243.300781 Z M 131.878906 218.269531 C 131.878906 219.636719 132.816406 220.503906 134.042969 220.503906 C 135.269531 220.503906 136.207031 219.636719 136.207031 218.269531 C 136.207031 216.898438 135.484375 216.105469 134.042969 216.175781 C 132.601562 216.105469 131.808594 216.898438 131.878906 218.269531 Z M 234.566406 235.796875 C 233.054688 235.796875 232.332031 236.878906 232.332031 238.035156 C 232.332031 239.1875 233.125 240.199219 234.566406 240.199219 C 236.082031 240.199219 236.515625 239.1875 236.804688 238.035156 C 236.585938 236.734375 236.082031 235.796875 234.566406 235.796875 Z M 121.136719 223.460938 C 121.136719 222.089844 120.34375 221.152344 118.972656 221.152344 C 117.671875 221.152344 116.734375 222.019531 116.734375 223.390625 C 116.808594 224.6875 117.601562 225.480469 119.261719 225.480469 C 120.414062 225.480469 121.136719 224.761719 121.136719 223.460938 Z M 119.117188 231.324219 C 117.746094 231.324219 116.808594 232.117188 116.808594 233.417969 C 116.808594 234.714844 117.746094 235.652344 119.042969 235.652344 C 120.34375 235.652344 121.0625 234.714844 121.136719 233.199219 C 121.0625 232.046875 120.414062 231.253906 119.117188 231.324219 Z M 164.1875 215.960938 C 163.03125 215.960938 161.949219 216.753906 162.023438 218.269531 C 162.09375 219.636719 162.960938 220.289062 164.113281 220.359375 C 165.484375 220.433594 166.277344 219.636719 166.421875 218.269531 C 166.347656 216.753906 165.410156 215.960938 164.1875 215.960938 Z M 221.875 253.109375 C 221.875 251.882812 221.011719 250.800781 219.640625 250.875 C 218.414062 250.945312 217.550781 251.523438 217.550781 252.964844 C 217.550781 254.335938 218.125 255.203125 219.351562 255.273438 C 221.011719 255.273438 221.875 254.410156 221.875 253.109375 Z M 76.425781 193.234375 C 76.351562 194.605469 77.433594 195.617188 78.804688 195.617188 C 79.886719 195.617188 80.898438 195.039062 80.824219 193.523438 C 80.753906 192.082031 80.246094 191.289062 78.300781 191.144531 C 77.148438 191 76.425781 192.007812 76.425781 193.234375 Z M 126.902344 223.246094 C 126.976562 224.6875 127.480469 225.480469 128.921875 225.480469 C 130.367188 225.480469 131.230469 224.617188 131.304688 223.390625 C 131.375 222.164062 130.4375 221.296875 128.996094 221.007812 C 127.984375 221.441406 126.832031 221.585938 126.902344 223.246094 Z M 101.089844 223.390625 C 101.089844 221.945312 99.933594 221.226562 98.78125 221.226562 C 97.625 221.226562 96.761719 222.089844 96.761719 223.390625 C 96.6875 224.90625 97.554688 225.480469 99.285156 225.554688 C 100.511719 225.625 101.089844 224.617188 101.089844 223.390625 Z M 319.730469 150.023438 C 318.363281 150.023438 317.496094 150.816406 317.496094 152.1875 C 317.496094 153.488281 318.21875 154.28125 319.515625 154.351562 C 320.886719 154.425781 321.679688 153.632812 321.894531 152.332031 C 321.824219 150.890625 321.175781 150.023438 319.730469 150.023438 Z M 307.402344 162.214844 C 307.328125 163.441406 308.195312 164.453125 309.566406 164.523438 C 310.933594 164.597656 311.871094 163.660156 311.945312 162.433594 C 312.015625 161.207031 311.222656 160.195312 309.492188 160.195312 C 308.339844 160.050781 307.472656 160.988281 307.402344 162.214844 Z M 179.617188 271.289062 C 178.25 271.289062 177.238281 272.082031 177.3125 273.382812 C 177.3125 274.609375 178.175781 275.691406 179.546875 275.617188 C 180.773438 275.546875 181.855469 274.96875 181.636719 273.671875 C 181.566406 272.082031 180.988281 271.289062 179.617188 271.289062 Z M 118.828125 211.269531 C 117.457031 211.34375 116.808594 211.992188 116.734375 213.289062 C 116.664062 214.804688 117.746094 215.527344 118.898438 215.527344 C 120.054688 215.527344 121.136719 214.804688 121.136719 213 C 120.992188 211.917969 120.269531 211.199219 118.828125 211.269531 Z M 289.515625 180.25 C 288.21875 180.25 287.425781 181.332031 287.425781 182.414062 C 287.425781 183.640625 288.21875 184.578125 289.660156 184.652344 C 291.175781 184.652344 291.679688 183.785156 291.753906 182.847656 C 291.753906 180.898438 290.886719 180.25 289.515625 180.25 Z M 179.472656 261.117188 C 178.105469 261.046875 177.238281 262.128906 177.238281 263.355469 C 177.238281 264.652344 178.175781 265.445312 179.546875 265.519531 C 180.917969 265.519531 181.566406 264.796875 181.636719 263.714844 C 181.566406 262.054688 180.84375 261.191406 179.472656 261.117188 Z M 103.898438 216.246094 C 102.601562 216.246094 101.738281 217.1875 101.738281 218.339844 C 101.738281 219.566406 102.601562 220.648438 103.972656 220.578125 C 105.199219 220.503906 105.847656 219.636719 106.0625 218.339844 C 105.773438 217.1875 105.125 216.246094 103.898438 216.246094 Z M 149.042969 221.152344 C 147.816406 221.152344 146.953125 222.019531 146.953125 223.246094 C 146.953125 224.617188 147.816406 225.480469 149.1875 225.480469 C 150.414062 225.480469 151.0625 224.542969 151.351562 223.390625 C 151.132812 222.019531 150.414062 221.082031 149.042969 221.152344 Z M 159.136719 225.410156 C 160.4375 225.480469 161.445312 224.472656 161.375 223.246094 C 161.300781 222.089844 160.582031 221.007812 159.066406 221.082031 C 157.695312 221.152344 157.121094 221.945312 157.121094 223.460938 C 156.976562 224.761719 157.984375 225.335938 159.136719 225.410156 Z M 174.5 276.265625 C 173.199219 276.265625 172.261719 277.132812 172.261719 278.503906 C 172.335938 279.730469 173.128906 280.523438 174.355469 280.59375 C 175.722656 280.667969 176.375 279.730469 176.589844 278.359375 C 176.375 277.207031 175.722656 276.265625 174.5 276.265625 Z M 189.714844 285.5 C 191.15625 285.429688 191.734375 284.5625 191.660156 283.335938 C 191.660156 281.894531 190.507812 281.101562 189.351562 281.246094 C 188.34375 281.316406 187.261719 282.109375 187.335938 283.554688 C 187.621094 284.78125 188.199219 285.574219 189.714844 285.5 Z M 174.570312 286.4375 C 173.199219 286.511719 172.335938 287.230469 172.335938 288.601562 C 172.40625 289.902344 173.417969 290.839844 174.640625 290.695312 C 175.722656 290.621094 176.589844 289.757812 176.660156 288.457031 C 176.515625 287.230469 175.941406 286.367188 174.570312 286.4375 Z M 93.949219 196.191406 C 92.433594 196.050781 91.714844 197.203125 91.570312 198.285156 C 91.425781 199.582031 92.507812 200.523438 93.804688 200.523438 C 95.03125 200.523438 95.824219 199.726562 95.824219 198.429688 C 95.894531 197.132812 95.320312 196.335938 93.949219 196.191406 Z M 264.710938 205.570312 C 263.339844 205.5 262.476562 206.4375 262.476562 207.808594 C 262.476562 208.960938 263.414062 209.898438 264.636719 209.898438 C 265.863281 209.898438 266.511719 208.960938 266.800781 207.808594 C 266.65625 206.507812 266.007812 205.644531 264.710938 205.570312 Z M 261.828125 212.785156 C 261.828125 211.558594 260.890625 210.621094 259.734375 210.621094 C 258.507812 210.550781 257.5 211.34375 257.5 212.785156 C 257.425781 214.15625 258.21875 214.804688 259.519531 214.878906 C 261.03125 214.878906 261.828125 214.082031 261.828125 212.785156 Z M 78.804688 201.171875 C 77.507812 201.097656 76.570312 201.964844 76.640625 203.335938 C 76.714844 204.632812 77.363281 205.5 78.878906 205.5 C 80.246094 205.425781 80.824219 204.632812 80.824219 203.046875 C 80.898438 201.964844 79.960938 201.242188 78.804688 201.171875 Z M 131.230469 213.289062 C 131.304688 211.992188 130.4375 211.054688 129.066406 211.125 C 127.769531 211.199219 126.902344 211.917969 126.976562 213.363281 C 127.046875 214.734375 127.914062 215.238281 129.5 215.238281 C 130.582031 215.453125 131.160156 214.371094 131.230469 213.289062 Z M 156.253906 218.195312 C 156.253906 216.824219 155.53125 216.246094 154.164062 216.175781 C 152.648438 216.105469 151.925781 217.042969 151.925781 218.339844 C 152 219.492188 152.648438 220.433594 154.164062 220.289062 C 155.386719 220.070312 156.253906 219.566406 156.253906 218.195312 Z M 266.730469 197.707031 C 266.800781 196.335938 265.792969 195.472656 264.496094 195.542969 C 263.339844 195.617188 262.332031 196.335938 262.476562 197.707031 C 262.546875 198.863281 263.195312 199.800781 264.636719 199.726562 C 266.007812 199.800781 266.730469 198.863281 266.730469 197.707031 Z M 90.847656 193.453125 C 90.847656 192.226562 90.34375 191.214844 88.757812 191.214844 C 87.316406 191.214844 86.519531 191.9375 86.519531 193.308594 C 86.519531 194.679688 87.386719 195.183594 88.109375 195.253906 C 89.984375 195.398438 90.847656 194.75 90.847656 193.453125 Z M 171.6875 283.554688 C 171.6875 282.328125 170.964844 281.316406 169.449219 281.390625 C 168.222656 281.460938 167.359375 282.039062 167.359375 283.410156 C 167.359375 284.925781 168.296875 285.429688 169.523438 285.574219 C 170.964844 285.644531 171.6875 284.707031 171.6875 283.554688 Z M 101.738281 228.367188 C 101.738281 229.59375 102.53125 230.601562 103.972656 230.53125 C 105.199219 230.460938 106.136719 229.738281 106.0625 228.296875 C 105.992188 226.925781 105.199219 226.417969 103.898438 226.417969 C 102.53125 226.417969 101.738281 227.214844 101.738281 228.367188 Z M 142.046875 228.511719 C 142.191406 229.882812 142.984375 230.460938 144.28125 230.386719 C 145.652344 230.316406 146.230469 229.234375 146.300781 228.152344 C 146.300781 226.925781 145.363281 226.273438 144.140625 226.058594 C 142.984375 226.5625 141.902344 226.996094 142.046875 228.511719 Z M 299.683594 160.195312 C 298.386719 160.125 297.59375 160.917969 297.523438 162.214844 C 297.449219 163.660156 298.460938 164.453125 299.683594 164.453125 C 300.839844 164.453125 301.632812 163.515625 301.847656 162.214844 C 301.558594 161.207031 300.984375 160.269531 299.683594 160.195312 Z M 306.320312 46.722656 C 306.320312 45.496094 305.742188 44.628906 304.300781 44.628906 C 302.859375 44.628906 301.992188 45.421875 302.066406 46.722656 C 302.136719 47.804688 302.714844 48.8125 304.011719 48.597656 C 305.527344 48.667969 306.320312 48.019531 306.320312 46.722656 Z M 146.375 248.347656 C 146.375 247.265625 145.796875 246.328125 144.355469 246.328125 C 142.839844 246.328125 142.191406 247.125 142.121094 248.421875 C 142.046875 249.71875 142.839844 250.441406 144.425781 250.371094 C 145.726562 250.65625 146.375 249.574219 146.375 248.347656 Z M 131.953125 228.367188 C 131.953125 229.664062 132.890625 230.386719 134.332031 230.386719 C 135.773438 230.386719 136.207031 229.304688 136.277344 228.222656 C 136.277344 226.925781 135.339844 226.347656 133.972656 226.417969 C 132.527344 226.203125 131.953125 227.285156 131.953125 228.367188 Z M 234.421875 215.816406 C 233.054688 215.886719 232.476562 216.898438 232.476562 218.050781 C 232.476562 219.351562 233.484375 220.144531 234.640625 220.070312 C 235.792969 220 236.585938 219.132812 236.660156 217.761719 C 236.441406 216.464844 235.648438 215.742188 234.421875 215.816406 Z M 306.824219 177.222656 C 306.753906 175.996094 306.101562 175.34375 304.949219 175.273438 C 303.507812 175.199219 302.785156 176.140625 302.714844 177.363281 C 302.640625 178.589844 303.507812 179.3125 304.949219 179.457031 C 305.816406 179.167969 306.894531 178.734375 306.824219 177.222656 Z M 103.898438 196.191406 C 102.675781 196.121094 101.808594 196.914062 101.664062 198.140625 C 101.519531 199.441406 102.457031 200.234375 103.613281 200.378906 C 104.980469 200.523438 105.632812 199.582031 105.992188 198.214844 C 105.773438 197.203125 105.125 196.265625 103.898438 196.191406 Z M 314.46875 54.511719 C 313.3125 54.441406 312.304688 55.234375 312.234375 56.460938 C 312.160156 57.832031 312.953125 58.695312 314.324219 58.769531 C 315.621094 58.839844 316.125 57.757812 316.558594 56.75 C 316.34375 55.523438 315.621094 54.65625 314.46875 54.511719 Z M 186.757812 298.558594 C 186.757812 297.257812 185.890625 296.394531 184.449219 296.539062 C 183.296875 296.683594 182.359375 297.332031 182.503906 298.628906 C 182.648438 299.855469 183.296875 300.648438 184.882812 300.578125 C 185.890625 300.507812 186.757812 299.710938 186.757812 298.558594 Z M 171.46875 273.453125 C 171.398438 272.226562 170.820312 271.289062 169.449219 271.363281 C 168.152344 271.433594 167.214844 272.15625 167.359375 273.597656 C 167.503906 274.824219 168.296875 275.472656 169.449219 275.691406 C 170.675781 275.328125 171.542969 274.753906 171.46875 273.453125 Z M 214.664062 276.195312 C 213.367188 276.195312 212.644531 276.917969 212.71875 278.289062 C 212.71875 279.65625 213.65625 280.378906 214.738281 280.378906 C 215.890625 280.378906 216.828125 279.65625 216.683594 278.574219 C 216.613281 276.917969 215.960938 276.195312 214.664062 276.195312 Z M 179.617188 301.515625 C 178.320312 301.515625 177.597656 302.238281 177.597656 303.535156 C 177.597656 304.90625 178.464844 305.554688 179.617188 305.628906 C 180.84375 305.628906 181.710938 305.050781 181.566406 303.535156 C 181.566406 302.308594 180.988281 301.515625 179.617188 301.515625 Z M 196.636719 278.429688 C 196.636719 277.132812 195.84375 276.339844 194.617188 276.265625 C 193.390625 276.195312 192.597656 277.0625 192.597656 278.359375 C 192.527344 279.730469 193.390625 280.308594 194.691406 280.59375 C 195.628906 280.234375 196.636719 279.730469 196.636719 278.429688 Z M 292.617188 187.535156 C 292.691406 188.835938 293.410156 189.484375 294.710938 189.484375 C 296.078125 189.484375 296.800781 188.546875 296.800781 187.390625 C 296.800781 186.238281 296.078125 185.300781 294.566406 185.515625 C 293.410156 185.660156 292.546875 186.164062 292.617188 187.535156 Z M 174.570312 256.210938 C 173.199219 256.210938 172.40625 257.007812 172.261719 258.375 C 172.191406 259.746094 173.273438 260.398438 174.355469 260.46875 C 175.507812 260.542969 176.300781 259.601562 176.589844 258.304688 C 176.15625 257.511719 175.941406 256.210938 174.570312 256.210938 Z M 157.550781 303.824219 C 157.550781 305.265625 158.488281 305.773438 159.5 305.699219 C 160.582031 305.628906 161.589844 304.90625 161.519531 303.535156 C 161.445312 302.238281 160.582031 301.660156 159.28125 301.445312 C 158.128906 301.804688 157.550781 302.453125 157.550781 303.824219 Z M 244.878906 225.914062 C 243.367188 225.84375 242.570312 226.5625 242.5 227.863281 C 242.429688 228.945312 243.292969 229.808594 244.445312 229.882812 C 245.746094 230.027344 246.394531 229.089844 246.828125 227.863281 C 246.394531 227.070312 246.320312 225.988281 244.878906 225.914062 Z M 229.519531 265.085938 C 230.746094 265.085938 231.609375 264.507812 231.683594 263.210938 C 231.753906 261.910156 231.035156 261.117188 229.734375 261.117188 C 228.367188 261.046875 227.789062 261.839844 227.71875 263.136719 C 227.71875 264.363281 228.292969 265.085938 229.519531 265.085938 Z M 181.492188 253.253906 C 181.492188 252.316406 181.058594 251.308594 179.691406 251.234375 C 178.25 251.234375 177.382812 252.027344 177.382812 253.328125 C 177.382812 254.480469 178.175781 255.347656 179.546875 255.273438 C 180.917969 255.417969 181.492188 254.335938 181.492188 253.253906 Z M 272.644531 187.535156 C 272.644531 188.761719 273.292969 189.414062 274.519531 189.484375 C 275.886719 189.484375 276.539062 188.835938 276.539062 187.464844 C 276.539062 186.238281 275.816406 185.589844 274.664062 185.515625 C 273.363281 185.589844 272.644531 186.164062 272.644531 187.535156 Z M 98.78125 191.289062 C 97.410156 191.289062 96.6875 192.007812 96.761719 193.308594 C 96.761719 194.535156 97.410156 195.253906 98.636719 195.253906 C 100.007812 195.253906 100.65625 194.535156 100.726562 193.234375 C 100.65625 192.082031 100.078125 191.359375 98.78125 191.289062 Z M 182.503906 268.402344 C 182.503906 269.703125 183.222656 270.425781 184.523438 270.425781 C 185.746094 270.425781 186.398438 269.773438 186.46875 268.546875 C 186.539062 267.25 185.890625 266.527344 184.59375 266.382812 C 183.222656 266.457031 182.503906 267.035156 182.503906 268.402344 Z M 151.351562 253.542969 C 151.351562 252.171875 150.484375 251.308594 149.1875 251.378906 C 147.890625 251.453125 147.382812 252.316406 147.382812 253.617188 C 147.382812 254.988281 148.105469 255.417969 149.113281 255.347656 C 150.484375 255.273438 151.351562 254.699219 151.351562 253.542969 Z M 314.613281 125.066406 C 313.242188 125.066406 312.59375 125.785156 312.59375 127.085938 C 312.59375 128.3125 313.3125 128.960938 314.539062 128.960938 C 315.910156 128.960938 316.558594 128.238281 316.558594 126.652344 C 316.414062 125.859375 315.910156 125.066406 314.613281 125.066406 Z M 249.566406 224.90625 C 250.722656 224.976562 251.660156 224.039062 251.660156 222.8125 C 251.660156 221.515625 250.648438 220.792969 249.496094 220.71875 C 248.558594 220.71875 247.476562 221.296875 247.765625 222.8125 C 247.402344 224.253906 248.558594 224.90625 249.566406 224.90625 Z M 307.402344 91.878906 C 307.402344 93.035156 308.195312 93.972656 309.492188 93.902344 C 310.71875 93.902344 311.367188 92.960938 311.441406 91.878906 C 311.441406 90.65625 310.789062 89.789062 309.421875 89.933594 C 307.976562 89.933594 307.402344 90.796875 307.402344 91.878906 Z M 162.3125 248.277344 C 162.3125 249.289062 162.960938 250.296875 164.1875 250.371094 C 165.484375 250.441406 166.347656 249.648438 166.421875 248.492188 C 166.492188 247.339844 165.917969 246.328125 164.332031 246.402344 C 162.960938 246.183594 162.3125 247.125 162.3125 248.277344 Z M 214.808594 256.210938 C 213.4375 256.140625 212.644531 256.789062 212.644531 258.089844 C 212.574219 259.316406 213.152344 260.035156 214.449219 260.109375 C 215.820312 260.179688 216.539062 259.53125 216.683594 258.304688 C 216.613281 257.078125 216.105469 256.285156 214.808594 256.210938 Z M 110.96875 213.144531 C 110.824219 211.773438 110.03125 211.199219 108.730469 211.34375 C 107.507812 211.414062 106.929688 212.136719 106.929688 213.363281 C 106.929688 214.734375 107.722656 215.308594 109.308594 215.308594 C 110.316406 215.09375 111.039062 214.515625 110.96875 213.144531 Z M 154.234375 246.402344 C 152.863281 246.402344 152.214844 247.125 152.214844 248.421875 C 152.214844 249.648438 152.863281 250.296875 154.089844 250.371094 C 155.386719 250.441406 156.109375 249.71875 156.183594 248.421875 C 156.183594 247.125 155.605469 246.402344 154.234375 246.402344 Z M 149.476562 301.660156 C 148.25 301.589844 147.457031 302.527344 147.382812 303.753906 C 147.382812 305.050781 148.394531 305.773438 149.546875 305.773438 C 150.558594 305.773438 151.566406 305.195312 151.351562 303.824219 C 151.636719 302.308594 150.558594 301.660156 149.476562 301.660156 Z M 239.761719 251.019531 C 238.605469 251.019531 237.597656 251.882812 237.667969 253.183594 C 237.742188 254.335938 238.679688 255.128906 239.6875 255.128906 C 240.914062 255.128906 241.636719 254.265625 241.707031 253.109375 C 241.636719 251.738281 240.769531 250.945312 239.761719 251.019531 Z M 319.371094 73.703125 C 320.453125 73.703125 321.390625 73.050781 321.390625 71.824219 C 321.464844 70.457031 320.453125 69.734375 319.300781 69.734375 C 318.21875 69.734375 317.351562 70.382812 317.496094 71.753906 C 317.425781 73.125 318.289062 73.703125 319.371094 73.703125 Z M 71.523438 188.257812 C 71.523438 189.414062 72.386719 190.351562 73.613281 190.351562 C 74.910156 190.351562 75.632812 189.339844 75.632812 188.1875 C 75.632812 187.105469 74.839844 186.308594 73.542969 186.453125 C 72.171875 186.308594 71.59375 187.25 71.523438 188.257812 Z M 113.925781 216.320312 C 112.914062 216.320312 111.976562 217.113281 111.90625 218.269531 C 111.832031 219.636719 112.769531 220.289062 113.996094 220.289062 C 115.148438 220.289062 115.941406 219.78125 115.800781 218.410156 C 116.015625 216.898438 115.003906 216.320312 113.925781 216.320312 Z M 172.625 298.558594 C 172.625 299.785156 173.34375 300.648438 174.714844 300.578125 C 176.085938 300.503906 176.660156 299.640625 176.660156 298.414062 C 176.589844 297.257812 175.867188 296.609375 175.148438 296.609375 C 173.273438 296.609375 172.625 297.332031 172.625 298.558594 Z M 324.417969 84.738281 C 323.339844 84.738281 322.472656 85.53125 322.402344 86.6875 C 322.328125 88.058594 323.265625 88.707031 324.492188 88.707031 C 325.574219 88.707031 326.4375 88.128906 326.367188 86.832031 C 326.511719 85.460938 325.644531 84.738281 324.417969 84.738281 Z M 137.144531 243.445312 C 137.070312 244.960938 138.152344 245.464844 139.234375 245.390625 C 140.246094 245.390625 141.183594 244.816406 141.109375 243.445312 C 141.039062 242.074219 140.316406 241.496094 138.945312 241.425781 C 137.863281 241.570312 137.214844 242.21875 137.144531 243.445312 Z M 326.726562 147.210938 C 326.726562 145.984375 325.933594 145.117188 324.707031 145.117188 C 323.554688 145.117188 322.832031 145.839844 322.90625 147.066406 C 322.90625 148.292969 323.625 148.871094 324.78125 149.015625 C 326.007812 149.085938 326.726562 148.367188 326.726562 147.210938 Z M 83.566406 186.382812 C 82.339844 186.453125 81.617188 187.105469 81.691406 188.257812 C 81.761719 189.484375 82.554688 190.277344 83.78125 190.277344 C 84.863281 190.277344 85.726562 189.628906 85.65625 188.332031 C 85.511719 187.105469 84.863281 186.382812 83.566406 186.382812 Z M 309.707031 170.441406 C 308.410156 170.441406 307.761719 171.160156 307.761719 172.316406 C 307.761719 173.542969 308.554688 174.40625 309.851562 174.335938 C 310.933594 174.261719 311.726562 173.613281 311.65625 171.808594 C 311.511719 171.160156 311.007812 170.441406 309.707031 170.441406 Z M 287.714844 172.386719 C 287.714844 173.613281 288.292969 174.335938 289.515625 174.40625 C 290.886719 174.480469 291.609375 173.613281 291.609375 172.386719 C 291.609375 171.234375 290.816406 170.511719 289.375 170.441406 C 288.507812 170.585938 287.714844 171.089844 287.714844 172.386719 Z M 321.605469 142.234375 C 321.679688 141.078125 321.03125 140.285156 319.804688 140.214844 C 318.363281 140.140625 317.640625 141.007812 317.640625 142.160156 C 317.640625 143.242188 318.433594 143.964844 319.730469 144.179688 C 320.8125 144.035156 321.535156 143.316406 321.605469 142.234375 Z M 83.707031 216.609375 C 82.339844 216.535156 81.761719 217.472656 81.761719 218.410156 C 81.761719 219.566406 82.628906 220.578125 83.851562 220.433594 C 84.863281 220.359375 85.800781 219.710938 85.582031 218.484375 C 85.65625 217.113281 85.007812 216.679688 83.707031 216.609375 Z M 139.164062 251.378906 C 138.007812 251.378906 137.144531 252.316406 137.144531 253.617188 C 137.214844 254.84375 138.082031 255.417969 139.234375 255.347656 C 140.460938 255.273438 141.039062 254.554688 141.039062 253.328125 C 141.183594 251.882812 140.171875 251.378906 139.164062 251.378906 Z M 169.378906 231.324219 C 168.152344 231.324219 167.503906 231.902344 167.359375 233.128906 C 167.214844 234.425781 168.007812 235.074219 169.089844 235.21875 C 170.386719 235.363281 170.964844 234.425781 171.324219 233.199219 C 171.035156 232.261719 170.75 231.253906 169.378906 231.324219 Z M 244.519531 246.042969 C 243.292969 246.183594 242.789062 246.980469 242.859375 248.207031 C 242.933594 249.433594 243.726562 249.9375 244.878906 249.9375 C 246.25 249.9375 246.464844 248.925781 246.828125 247.917969 C 246.394531 246.835938 245.816406 245.898438 244.519531 246.042969 Z M 147.3125 243.445312 C 147.238281 244.816406 148.175781 245.390625 149.1875 245.390625 C 150.414062 245.464844 151.351562 244.453125 151.207031 243.226562 C 151.132812 242.289062 150.558594 241.207031 149.402344 241.425781 C 147.890625 241.496094 147.382812 242.144531 147.3125 243.445312 Z M 93.949219 226.492188 C 92.796875 226.417969 92 227.285156 91.929688 228.4375 C 91.859375 229.59375 92.578125 230.386719 93.804688 230.386719 C 95.03125 230.386719 95.679688 229.738281 95.824219 228.726562 C 95.824219 227.214844 94.957031 226.5625 93.949219 226.492188 Z M 296.152344 46.722656 C 296.152344 45.496094 295.359375 44.773438 294.277344 44.703125 C 293.050781 44.628906 292.257812 45.496094 292.257812 46.792969 C 292.257812 48.019531 293.050781 48.597656 294.566406 48.667969 C 295.359375 48.453125 296.152344 48.019531 296.152344 46.722656 Z M 196.636719 298.339844 C 196.566406 297.117188 195.769531 296.539062 194.546875 296.609375 C 193.320312 296.683594 192.671875 297.402344 192.742188 298.558594 C 192.742188 299.855469 193.679688 300.21875 194.691406 300.507812 C 195.84375 300.289062 196.707031 299.710938 196.636719 298.339844 Z M 154.449219 286.582031 C 153.296875 286.582031 152.289062 287.449219 152.359375 288.746094 C 152.433594 289.828125 153.226562 290.621094 154.449219 290.621094 C 155.605469 290.550781 156.398438 289.972656 156.253906 288.601562 C 156.46875 287.230469 155.460938 286.582031 154.449219 286.582031 Z M 186.398438 258.234375 C 186.324219 257.078125 185.605469 256.285156 184.523438 256.210938 C 183.296875 256.210938 182.503906 257.078125 182.503906 258.304688 C 182.503906 259.53125 183.296875 260.109375 184.59375 260.109375 C 185.675781 260.109375 186.46875 259.53125 186.398438 258.234375 Z M 86.953125 223.460938 C 86.953125 224.761719 87.675781 225.410156 88.828125 225.410156 C 89.984375 225.410156 90.777344 224.472656 90.777344 223.460938 C 90.777344 222.378906 89.910156 221.660156 88.613281 221.441406 C 87.746094 221.730469 86.953125 222.234375 86.953125 223.460938 Z M 161.445312 283.625 C 161.445312 282.398438 160.582031 281.535156 159.355469 281.535156 C 158.273438 281.535156 157.625 282.253906 157.625 283.410156 C 157.550781 284.636719 158.199219 285.285156 159.136719 285.429688 C 160.652344 285.5 161.375 284.707031 161.445312 283.625 Z M 191.660156 303.679688 C 191.734375 302.597656 190.941406 301.730469 189.785156 301.660156 C 188.632812 301.589844 187.839844 302.238281 187.839844 303.464844 C 187.765625 304.691406 188.414062 305.339844 189.496094 305.554688 C 190.796875 305.484375 191.589844 304.691406 191.660156 303.679688 Z M 254.757812 225.988281 C 253.390625 225.914062 252.8125 226.78125 252.738281 227.863281 C 252.667969 229.015625 253.535156 229.882812 254.613281 229.882812 C 255.695312 229.882812 256.5625 229.304688 256.632812 227.644531 C 256.488281 226.78125 256.058594 226.058594 254.757812 225.988281 Z M 162.457031 268.476562 C 162.601562 269.703125 163.175781 270.425781 164.402344 270.351562 C 165.554688 270.28125 166.421875 269.484375 166.347656 268.402344 C 166.277344 267.320312 165.410156 266.671875 164.257812 266.382812 C 163.464844 266.890625 162.3125 267.105469 162.457031 268.476562 Z M 284.6875 195.761719 C 283.460938 195.90625 282.882812 196.554688 282.882812 197.78125 C 282.882812 199.152344 283.820312 199.65625 284.828125 199.582031 C 285.910156 199.511719 286.632812 198.71875 286.777344 197.5625 C 286.417969 196.480469 286.054688 195.617188 284.6875 195.761719 Z M 146.085938 238.324219 C 146.15625 236.878906 145.21875 236.375 144.210938 236.375 C 143.058594 236.375 142.121094 237.3125 142.191406 238.539062 C 142.265625 239.40625 142.769531 240.414062 144.140625 240.199219 C 145.21875 240.054688 145.941406 239.621094 146.085938 238.324219 Z M 169.449219 241.351562 C 168.367188 241.28125 167.503906 241.929688 167.429688 243.15625 C 167.359375 244.382812 168.152344 245.101562 169.304688 245.175781 C 170.386719 245.246094 171.179688 244.527344 171.398438 243.445312 C 171.324219 242.144531 170.460938 241.425781 169.449219 241.351562 Z M 167.574219 293.292969 C 167.359375 294.589844 168.367188 295.457031 169.449219 295.527344 C 170.316406 295.601562 171.324219 295.167969 171.324219 293.867188 C 171.324219 292.714844 171.109375 291.847656 169.449219 291.703125 C 168.441406 291.417969 167.71875 292.210938 167.574219 293.292969 Z M 184.378906 276.628906 C 183.222656 276.699219 182.574219 277.347656 182.574219 278.429688 C 182.503906 279.65625 183.511719 280.308594 184.523438 280.378906 C 185.675781 280.453125 186.398438 279.730469 186.46875 278.144531 C 186.179688 277.277344 185.675781 276.554688 184.378906 276.628906 Z M 85.582031 198.5 C 85.65625 197.273438 84.933594 196.554688 83.78125 196.480469 C 82.628906 196.410156 81.761719 197.058594 81.691406 198.214844 C 81.617188 199.296875 82.195312 200.160156 83.851562 200.160156 C 84.644531 200.160156 85.511719 199.726562 85.582031 198.5 Z M 176.230469 268.261719 C 176.15625 267.179688 175.578125 266.457031 174.425781 266.457031 C 173.199219 266.457031 172.480469 267.394531 172.480469 268.402344 C 172.480469 269.414062 173.199219 270.28125 174.570312 270.351562 C 175.722656 270.136719 176.375 269.484375 176.230469 268.261719 Z M 174.355469 246.402344 C 173.199219 246.402344 172.480469 247.125 172.480469 248.132812 C 172.480469 249.359375 173.34375 250.296875 174.570312 250.226562 C 175.507812 250.226562 176.445312 249.574219 176.300781 248.347656 C 176.15625 247.125 175.578125 246.402344 174.355469 246.402344 Z M 197.644531 273.453125 C 197.71875 274.535156 198.511719 275.328125 199.738281 275.257812 C 200.820312 275.183594 201.46875 274.464844 201.46875 273.382812 C 201.46875 272.226562 200.601562 271.652344 199.519531 271.363281 C 198.511719 271.652344 197.574219 272.226562 197.644531 273.453125 Z M 125.964844 228.367188 C 125.894531 227.285156 125.101562 226.492188 123.949219 226.492188 C 122.867188 226.492188 122.074219 227.355469 122.074219 228.4375 C 122.074219 229.59375 122.9375 230.171875 124.089844 230.386719 C 125.101562 230.097656 126.039062 229.449219 125.964844 228.367188 Z M 125.894531 208.3125 C 125.894531 207.445312 125.460938 206.4375 124.234375 206.4375 C 123.011719 206.363281 122.21875 206.871094 122.074219 208.097656 C 121.929688 209.324219 122.722656 209.972656 123.875 210.261719 C 124.957031 210.042969 125.894531 209.394531 125.894531 208.3125 Z M 204.640625 266.457031 C 203.34375 266.457031 202.765625 267.25 202.765625 268.402344 C 202.765625 269.628906 203.703125 270.28125 204.785156 270.207031 C 205.722656 270.136719 206.589844 269.484375 206.371094 268.261719 C 206.300781 267.179688 205.796875 266.457031 204.640625 266.457031 Z M 150.917969 233.199219 C 150.84375 232.117188 150.269531 231.324219 149.1875 231.398438 C 148.03125 231.398438 147.3125 232.046875 147.3125 233.34375 C 147.3125 234.644531 148.03125 235.148438 149.1875 235.363281 C 150.339844 235.074219 150.988281 234.425781 150.917969 233.199219 Z M 297.234375 41.671875 C 297.234375 42.753906 298.097656 43.621094 299.253906 43.546875 C 300.117188 43.476562 301.054688 42.96875 300.984375 41.746094 C 300.910156 40.519531 300.335938 39.867188 299.253906 39.722656 C 297.953125 39.796875 297.234375 40.664062 297.234375 41.671875 Z M 80.609375 183.207031 C 80.535156 182.199219 79.886719 181.332031 78.515625 181.476562 C 77.363281 181.621094 76.785156 182.199219 76.785156 183.28125 C 76.785156 184.578125 77.433594 185.15625 78.589844 185.082031 C 80.03125 185.15625 80.679688 184.289062 80.609375 183.207031 Z M 166.347656 298.414062 C 166.207031 297.402344 165.410156 296.609375 164.402344 296.753906 C 163.320312 296.828125 162.457031 297.691406 162.601562 298.847656 C 162.742188 299.785156 163.539062 300.507812 164.691406 300.648438 C 165.554688 300.144531 166.566406 299.640625 166.347656 298.414062 Z M 73.757812 196.625 C 72.460938 196.625 71.882812 197.203125 71.882812 198.5 C 71.882812 199.871094 72.675781 200.234375 73.828125 200.234375 C 75.128906 200.234375 75.488281 199.511719 75.34375 198.359375 C 75.488281 197.132812 74.910156 196.625 73.757812 196.625 Z M 299.253906 73.703125 C 300.261719 73.773438 301.054688 73.195312 301.128906 71.96875 C 301.128906 70.886719 300.839844 70.09375 299.613281 69.949219 C 298.386719 69.878906 297.664062 70.382812 297.449219 72.113281 C 297.304688 73.050781 298.171875 73.703125 299.253906 73.703125 Z M 207.8125 283.265625 C 207.8125 284.492188 208.605469 285.140625 209.761719 285.140625 C 210.914062 285.140625 211.5625 284.347656 211.5625 283.335938 C 211.5625 282.328125 210.988281 281.390625 209.617188 281.535156 C 208.535156 281.605469 207.8125 282.183594 207.8125 283.265625 Z M 159.425781 251.453125 C 158.417969 251.453125 157.480469 251.957031 157.625 253.328125 C 157.695312 254.480469 158.273438 255.128906 159.355469 255.203125 C 160.582031 255.203125 161.15625 254.410156 161.230469 252.75 C 161.300781 252.027344 160.292969 251.523438 159.425781 251.453125 Z M 68.347656 181.476562 C 67.050781 181.550781 66.617188 182.488281 66.691406 183.351562 C 66.761719 184.433594 67.484375 185.226562 68.78125 185.011719 C 69.933594 184.867188 70.441406 184.21875 70.585938 183.136719 C 70.222656 182.054688 69.574219 181.476562 68.347656 181.476562 Z M 199.808594 291.703125 C 198.65625 291.5625 197.933594 292.210938 197.863281 293.292969 C 197.789062 294.445312 198.296875 295.3125 199.59375 295.3125 C 200.746094 295.3125 201.324219 294.664062 201.539062 293.652344 C 201.46875 292.5 200.964844 291.777344 199.808594 291.703125 Z M 139.089844 231.46875 C 138.082031 231.542969 137.070312 232.261719 137.214844 233.488281 C 137.289062 234.5 138.082031 235.292969 139.164062 235.21875 C 140.316406 235.148438 140.894531 234.355469 141.183594 233.273438 C 140.820312 232.261719 140.101562 231.398438 139.089844 231.46875 Z M 154.449219 306.855469 C 153.371094 306.855469 152.792969 307.574219 152.71875 308.730469 C 152.648438 310.027344 153.371094 310.460938 154.449219 310.53125 C 155.460938 310.53125 156.324219 310.171875 156.253906 309.019531 C 156.253906 307.648438 155.675781 306.855469 154.449219 306.855469 Z M 169.449219 251.523438 C 168.367188 251.453125 167.429688 252.171875 167.429688 253.328125 C 167.359375 254.335938 168.222656 255.128906 169.234375 255.203125 C 170.386719 255.347656 170.964844 254.410156 171.398438 253.398438 C 171.179688 252.316406 170.386719 251.667969 169.449219 251.523438 Z M 142.550781 308.730469 C 142.480469 309.882812 143.347656 310.460938 144.355469 310.53125 C 145.507812 310.605469 146.375 309.8125 146.300781 308.65625 C 146.230469 307.648438 145.4375 307.070312 144.425781 306.925781 C 143.273438 307 142.625 307.71875 142.550781 308.730469 Z M 167.503906 263.136719 C 167.429688 264.074219 167.9375 265.15625 169.304688 265.085938 C 170.460938 265.011719 171.253906 264.507812 171.179688 263.425781 C 171.179688 262.488281 170.605469 261.625 169.378906 261.480469 C 168.441406 261.550781 167.574219 262.199219 167.503906 263.136719 Z M 146.015625 258.59375 C 146.015625 257.367188 145.4375 256.574219 144.210938 256.644531 C 143.128906 256.644531 142.550781 257.367188 142.480469 258.519531 C 142.410156 259.746094 142.984375 260.253906 144.210938 260.179688 C 145.292969 260.253906 146.085938 259.964844 146.015625 258.59375 Z M 241.417969 222.957031 C 241.417969 221.875 240.769531 221.007812 239.472656 221.082031 C 238.316406 221.152344 237.742188 221.800781 237.8125 222.957031 C 237.8125 224.039062 238.246094 224.832031 239.398438 224.617188 C 240.769531 224.6875 241.417969 223.964844 241.417969 222.957031 Z M 164.332031 256.644531 C 163.175781 256.71875 162.527344 257.292969 162.457031 258.375 C 162.457031 259.457031 163.105469 260.179688 164.257812 260.179688 C 165.410156 260.179688 166.0625 259.675781 165.917969 258.449219 C 166.132812 257.152344 165.554688 256.574219 164.332031 256.644531 Z M 91.929688 208.382812 C 91.929688 209.46875 92.867188 210.332031 93.949219 210.261719 C 94.886719 210.1875 95.75 209.394531 95.605469 208.3125 C 95.535156 207.375 94.8125 206.582031 93.734375 206.4375 C 92.796875 206.796875 91.929688 207.300781 91.929688 208.382812 Z M 161.15625 263.425781 C 161.230469 262.199219 160.363281 261.625 159.425781 261.625 C 158.34375 261.550781 157.695312 262.273438 157.625 263.425781 C 157.550781 264.652344 158.128906 265.230469 159.355469 265.085938 C 160.582031 265.230469 161.085938 264.582031 161.15625 263.425781 Z M 237.742188 212.929688 C 237.8125 213.867188 238.535156 214.660156 239.472656 214.660156 C 240.480469 214.660156 241.347656 213.867188 241.347656 212.855469 C 241.347656 211.847656 240.480469 211.199219 239.472656 210.910156 C 238.535156 211.269531 237.742188 211.847656 237.742188 212.929688 Z M 249.640625 241.136719 C 248.628906 241.207031 247.835938 242 247.910156 243.011719 C 247.980469 244.019531 248.703125 244.671875 249.925781 244.597656 C 251.082031 244.527344 251.371094 243.804688 251.515625 242.867188 C 251.296875 241.929688 250.722656 241.0625 249.640625 241.136719 Z M 189.351562 261.550781 C 188.414062 261.695312 187.765625 262.34375 187.839844 263.355469 C 187.910156 264.507812 188.632812 265.085938 189.785156 264.941406 C 190.796875 264.796875 191.300781 264.148438 191.371094 263.066406 C 191.085938 262.128906 190.507812 261.40625 189.351562 261.550781 Z M 157.625 273.527344 C 157.625 274.535156 158.273438 275.183594 159.210938 275.257812 C 160.292969 275.328125 161.011719 274.679688 161.085938 273.597656 C 161.15625 272.445312 160.4375 271.9375 159.425781 271.652344 C 158.34375 271.867188 157.625 272.371094 157.625 273.527344 Z M 117.242188 203.117188 C 117.167969 204.273438 117.746094 204.996094 118.898438 205.066406 C 119.910156 205.136719 120.558594 204.488281 120.703125 203.480469 C 120.847656 202.324219 120.125 201.746094 119.117188 201.53125 C 117.960938 201.53125 117.3125 202.035156 117.242188 203.117188 Z M 139.089844 211.414062 C 138.082031 211.34375 137.289062 212.136719 137.289062 213.144531 C 137.214844 214.226562 138.007812 214.878906 139.089844 214.878906 C 140.101562 214.878906 140.75 214.445312 140.675781 213.289062 C 140.820312 212.136719 140.101562 211.488281 139.089844 211.414062 Z M 98.78125 211.703125 C 97.699219 211.703125 97.121094 212.136719 97.121094 213.289062 C 97.121094 214.445312 97.699219 215.164062 98.78125 215.238281 C 99.863281 215.308594 100.511719 214.515625 100.726562 213.289062 C 100.4375 212.496094 100.007812 211.703125 98.78125 211.703125 Z M 149.476562 312.121094 C 148.539062 312.121094 147.890625 312.480469 147.746094 313.636719 C 147.671875 314.863281 148.464844 315.511719 149.332031 315.582031 C 150.339844 315.726562 150.988281 314.863281 151.277344 313.78125 C 151.132812 312.839844 150.628906 312.046875 149.476562 312.121094 Z M 177.671875 283.480469 C 177.671875 284.417969 178.390625 285.066406 179.402344 285.140625 C 180.410156 285.210938 181.058594 284.707031 181.132812 283.625 C 181.203125 282.472656 180.484375 281.894531 179.472656 281.605469 C 178.535156 281.894531 177.671875 282.472656 177.671875 283.480469 Z M 78.949219 211.773438 C 77.796875 211.703125 77.148438 212.207031 77.074219 213.363281 C 77.003906 214.515625 77.652344 215.164062 78.734375 215.238281 C 79.671875 215.238281 80.320312 214.660156 80.390625 213.363281 C 80.320312 212.640625 80.101562 211.847656 78.949219 211.773438 Z M 281.441406 202.6875 C 281.441406 201.53125 280.792969 200.953125 279.636719 200.953125 C 278.484375 200.953125 277.90625 201.605469 277.980469 202.757812 C 278.050781 203.839844 278.773438 204.199219 279.710938 204.273438 C 280.792969 204.199219 281.441406 203.769531 281.441406 202.6875 Z M 331.269531 122.035156 C 331.269531 120.953125 330.695312 120.304688 329.683594 120.304688 C 328.53125 120.230469 327.882812 121.097656 327.882812 122.105469 C 327.882812 122.972656 328.457031 123.765625 330.1875 123.695312 C 330.695312 123.621094 331.269531 123.117188 331.269531 122.035156 Z M 88.683594 201.675781 C 87.675781 201.746094 86.808594 202.46875 87.027344 203.625 C 87.171875 204.5625 87.890625 205.210938 88.902344 205.066406 C 89.910156 204.921875 90.414062 204.273438 90.488281 203.335938 C 90.34375 202.179688 89.550781 201.605469 88.683594 201.675781 Z M 71.882812 178.519531 C 71.953125 179.601562 72.820312 180.105469 73.683594 180.105469 C 74.695312 180.035156 75.488281 179.3125 75.414062 178.230469 C 75.34375 177.292969 74.695312 176.714844 73.542969 176.644531 C 72.53125 176.859375 71.808594 177.363281 71.882812 178.519531 Z M 97.265625 233.417969 C 97.195312 234.425781 97.84375 235.148438 98.78125 235.21875 C 99.863281 235.363281 100.582031 234.570312 100.65625 233.5625 C 100.65625 232.625 100.007812 231.972656 98.996094 231.828125 C 97.988281 231.902344 97.339844 232.40625 97.265625 233.417969 Z M 309.707031 130.476562 C 308.554688 130.332031 308.050781 131.125 307.90625 131.988281 C 307.832031 132.925781 308.554688 133.722656 309.492188 133.792969 C 310.429688 133.867188 311.152344 133.289062 311.296875 132.277344 C 311.222656 131.269531 310.71875 130.621094 309.707031 130.476562 Z M 319.589844 110.347656 C 318.433594 110.347656 317.859375 110.925781 317.929688 112.078125 C 318 113.234375 318.652344 113.59375 319.660156 113.59375 C 320.667969 113.59375 321.175781 112.875 321.390625 111.933594 C 321.101562 111.070312 320.667969 110.347656 319.589844 110.347656 Z M 134.1875 246.835938 C 133.035156 246.761719 132.527344 247.628906 132.457031 248.421875 C 132.382812 249.359375 133.105469 250.007812 134.1875 250.007812 C 135.195312 250.007812 135.847656 249.648438 135.847656 248.492188 C 135.773438 247.410156 135.339844 246.90625 134.1875 246.835938 Z M 287.355469 41.746094 C 287.355469 42.683594 288.074219 43.332031 289.15625 43.332031 C 290.382812 43.332031 290.816406 42.539062 290.816406 41.457031 C 290.816406 40.375 290.023438 40.15625 289.230469 40.15625 C 288.148438 40.230469 287.355469 40.734375 287.355469 41.746094 Z M 294.277344 34.964844 C 293.195312 34.890625 292.472656 35.46875 292.472656 36.695312 C 292.472656 37.777344 293.050781 38.425781 294.058594 38.425781 C 294.996094 38.425781 295.792969 37.992188 295.71875 36.839844 C 295.863281 35.683594 295.214844 35.035156 294.277344 34.964844 Z M 154.308594 256.71875 C 153.371094 256.644531 152.71875 257.367188 152.71875 258.375 C 152.71875 259.386719 153.296875 260.109375 154.308594 260.109375 C 155.171875 260.109375 156.039062 259.675781 155.820312 258.449219 C 155.964844 257.367188 155.246094 256.71875 154.308594 256.71875 Z M 129.066406 231.757812 C 128.058594 231.828125 127.480469 232.40625 127.410156 233.417969 C 127.335938 234.5 128.128906 235.003906 129.066406 235.003906 C 130.078125 235.003906 130.582031 234.28125 130.796875 233.417969 C 130.507812 232.550781 130.222656 231.613281 129.066406 231.757812 Z M 85.222656 178.230469 C 85.222656 177.148438 84.789062 176.570312 83.636719 176.570312 C 82.484375 176.570312 82.121094 177.078125 82.050781 178.160156 C 82.050781 179.3125 82.769531 179.671875 83.636719 179.960938 C 84.503906 179.746094 85.222656 179.386719 85.222656 178.230469 Z M 324.347656 75.074219 C 323.480469 75.144531 322.6875 75.722656 322.832031 76.804688 C 322.90625 77.886719 323.480469 78.320312 324.5625 78.390625 C 325.71875 78.390625 326.007812 77.597656 326.148438 76.730469 C 325.933594 75.722656 325.285156 75 324.347656 75.074219 Z M 302.859375 86.976562 C 302.929688 88.058594 303.507812 88.632812 304.515625 88.5625 C 305.453125 88.488281 305.957031 87.914062 305.957031 86.976562 C 305.957031 85.894531 305.308594 85.460938 304.300781 85.101562 C 303.507812 85.460938 302.785156 85.820312 302.859375 86.976562 Z M 147.816406 293.652344 C 147.890625 294.808594 148.394531 295.238281 149.476562 295.238281 C 150.558594 295.238281 150.917969 294.664062 150.988281 293.726562 C 151.0625 292.644531 150.414062 292.136719 149.402344 291.921875 C 148.539062 292.210938 147.746094 292.5 147.816406 293.652344 Z M 318.074219 162.289062 C 318.074219 163.226562 318.792969 163.875 319.875 163.804688 C 320.8125 163.804688 321.390625 163.226562 321.390625 162.289062 C 321.390625 161.277344 320.742188 160.699219 319.660156 160.558594 C 318.722656 160.699219 318.074219 161.351562 318.074219 162.289062 Z M 154.449219 266.890625 C 153.296875 266.960938 152.71875 267.609375 152.71875 268.765625 C 152.71875 269.847656 153.511719 270.136719 154.378906 270.136719 C 155.386719 270.136719 155.894531 269.414062 156.039062 268.402344 C 155.75 267.609375 155.53125 266.746094 154.449219 266.890625 Z M 76.929688 173.179688 C 76.929688 173.972656 77.433594 174.914062 78.589844 174.839844 C 79.597656 174.769531 80.320312 174.191406 80.246094 173.253906 C 80.246094 172.460938 79.886719 171.667969 78.734375 171.808594 C 77.652344 171.667969 76.929688 172.242188 76.929688 173.179688 Z M 289.085938 29.984375 C 287.859375 29.914062 287.5 30.921875 287.425781 31.644531 C 287.355469 32.4375 288.074219 33.015625 289.011719 33.085938 C 290.167969 33.230469 290.527344 32.4375 290.886719 31.429688 C 290.527344 30.777344 290.167969 29.984375 289.085938 29.984375 Z M 148.828125 211.703125 C 147.816406 211.847656 147.382812 212.496094 147.457031 213.363281 C 147.601562 214.300781 148.25 214.878906 149.332031 214.804688 C 150.339844 214.734375 150.558594 213.867188 150.773438 213.144531 C 150.484375 212.207031 149.90625 211.558594 148.828125 211.703125 Z M 310.789062 41.457031 C 310.71875 40.375 309.996094 39.941406 309.203125 39.941406 C 308.265625 39.941406 307.617188 40.664062 307.691406 41.746094 C 307.761719 42.828125 308.339844 43.113281 309.277344 43.257812 C 310.214844 43.042969 310.863281 42.539062 310.789062 41.457031 Z M 162.886719 278.429688 C 162.886719 279.511719 163.394531 280.164062 164.402344 280.164062 C 165.410156 280.164062 165.988281 279.441406 165.988281 278.429688 C 165.988281 277.347656 165.269531 277.132812 164.402344 276.988281 C 163.609375 277.0625 162.886719 277.347656 162.886719 278.429688 Z M 159.136719 211.558594 C 158.273438 211.558594 157.480469 212.136719 157.625 213.289062 C 157.695312 214.226562 158.273438 214.804688 159.136719 214.804688 C 160.148438 214.804688 160.726562 214.15625 160.652344 213.074219 C 160.726562 211.992188 159.929688 211.558594 159.136719 211.558594 Z M 72.316406 208.457031 C 72.316406 209.394531 72.746094 209.972656 73.757812 209.898438 C 74.695312 209.828125 75.34375 209.25 75.273438 208.382812 C 75.199219 207.589844 74.621094 206.941406 73.757812 206.871094 C 72.746094 206.941406 72.242188 207.445312 72.316406 208.457031 Z M 231.179688 242.9375 C 231.105469 242.074219 230.53125 241.496094 229.519531 241.570312 C 228.582031 241.640625 228.292969 242.144531 228.292969 243.082031 C 228.292969 244.09375 228.796875 244.527344 229.808594 244.597656 C 230.601562 244.453125 231.25 243.804688 231.179688 242.9375 Z M 65.105469 178.304688 C 65.105469 177.363281 64.453125 176.714844 63.589844 176.714844 C 62.652344 176.714844 62.003906 177.292969 62.003906 178.375 C 62.003906 179.457031 62.652344 179.746094 64.09375 179.816406 C 64.742188 179.816406 65.105469 179.167969 65.105469 178.304688 Z M 132.746094 258.234375 C 132.671875 259.242188 133.25 259.964844 134.1875 260.035156 C 135.054688 260.109375 135.773438 259.457031 135.703125 258.519531 C 135.703125 257.726562 135.195312 257.007812 134.042969 257.007812 C 133.394531 257.078125 132.816406 257.292969 132.746094 258.234375 Z M 282.449219 26.667969 C 282.523438 27.53125 283.097656 28.183594 284.035156 28.109375 C 284.902344 28.039062 285.480469 27.605469 285.480469 26.59375 C 285.480469 25.511719 284.902344 25.152344 283.75 25.082031 C 283.242188 25.367188 282.449219 25.730469 282.449219 26.667969 Z M 87.097656 183.28125 C 87.097656 184.074219 87.746094 184.796875 88.613281 184.796875 C 89.476562 184.796875 90.054688 184.289062 90.125 183.28125 C 90.199219 182.269531 89.550781 181.910156 88.757812 181.621094 C 87.820312 181.835938 87.027344 182.34375 87.097656 183.28125 Z M 68.566406 171.738281 C 67.699219 171.808594 67.050781 172.386719 67.050781 173.253906 C 67.050781 174.117188 67.699219 174.769531 68.636719 174.769531 C 69.574219 174.769531 70.078125 174.117188 70.152344 173.179688 C 70.007812 172.316406 69.503906 171.738281 68.566406 171.738281 Z M 294.710938 165.96875 C 293.699219 165.96875 293.195312 166.472656 293.121094 167.335938 C 293.050781 168.277344 293.84375 168.851562 294.636719 168.851562 C 295.429688 168.851562 296.078125 168.277344 296.078125 167.195312 C 296.078125 166.472656 295.648438 165.96875 294.710938 165.96875 Z M 224.761719 246.472656 C 223.824219 246.328125 223.175781 246.980469 223.03125 247.84375 C 222.886719 248.710938 223.390625 249.359375 224.328125 249.503906 C 225.265625 249.648438 225.84375 249.214844 225.988281 248.207031 C 226.128906 247.265625 225.699219 246.617188 224.761719 246.472656 Z M 284.179688 35.324219 C 283.171875 35.25 282.59375 35.828125 282.523438 36.695312 C 282.449219 37.558594 283.242188 38.28125 284.035156 38.28125 C 284.902344 38.355469 285.40625 37.632812 285.480469 36.910156 C 285.480469 35.757812 285.117188 35.394531 284.179688 35.324219 Z M 73.613281 166.832031 C 72.605469 166.761719 72.027344 167.335938 71.953125 168.132812 C 71.882812 169.070312 72.675781 169.789062 73.542969 169.789062 C 74.335938 169.789062 74.910156 169.140625 74.910156 168.347656 C 74.984375 167.265625 74.550781 166.90625 73.613281 166.832031 Z M 305.742188 36.476562 C 305.742188 35.683594 305.09375 35.035156 304.300781 35.035156 C 303.433594 35.035156 302.785156 35.539062 302.785156 36.550781 C 302.785156 37.488281 303.289062 37.921875 303.941406 37.921875 C 305.164062 37.992188 305.742188 37.34375 305.742188 36.476562 Z M 70.078125 193.523438 C 70.152344 192.515625 69.429688 192.007812 68.636719 191.9375 C 67.917969 191.9375 67.195312 192.515625 67.195312 193.308594 C 67.121094 194.246094 67.773438 194.679688 68.566406 194.824219 C 69.503906 194.824219 70.007812 194.390625 70.078125 193.523438 Z M 92.289062 188.113281 C 92.21875 189.125 92.796875 189.699219 93.589844 189.84375 C 94.453125 189.988281 95.175781 189.269531 95.246094 188.402344 C 95.320312 187.535156 94.671875 186.960938 93.949219 186.886719 C 92.9375 186.816406 92.363281 187.175781 92.289062 188.113281 Z M 279.710938 181.117188 C 278.773438 181.117188 278.269531 181.695312 278.195312 182.414062 C 278.125 183.351562 278.773438 184 279.636719 184 C 280.359375 184 280.9375 183.425781 281.007812 182.703125 C 281.082031 181.621094 280.648438 181.117188 279.710938 181.117188 Z M 271.128906 212.785156 C 271.199219 211.992188 270.625 211.414062 269.757812 211.34375 C 268.894531 211.269531 268.386719 211.917969 268.246094 212.640625 C 268.101562 213.507812 268.75 213.9375 269.832031 214.011719 C 270.550781 214.082031 271.054688 213.578125 271.128906 212.785156 Z M 132.746094 238.464844 C 132.746094 239.261719 133.179688 239.691406 133.972656 239.691406 C 134.835938 239.765625 135.414062 239.332031 135.414062 238.394531 C 135.414062 237.527344 134.980469 237.023438 134.117188 237.023438 C 133.179688 237.097656 132.671875 237.527344 132.746094 238.464844 Z M 112.769531 238.464844 C 112.769531 239.261719 113.203125 239.691406 113.996094 239.691406 C 114.863281 239.691406 115.367188 239.332031 115.367188 238.464844 C 115.367188 237.601562 114.933594 237.167969 114.066406 237.097656 C 113.128906 237.097656 112.699219 237.601562 112.769531 238.464844 Z M 284.6875 176.066406 C 283.820312 176.066406 283.316406 176.5 283.316406 177.4375 C 283.316406 178.304688 283.75 178.808594 284.613281 178.808594 C 285.550781 178.808594 285.910156 178.304688 285.984375 177.507812 C 285.984375 176.570312 285.550781 176.066406 284.6875 176.066406 Z M 259.734375 221.515625 C 258.941406 221.515625 258.4375 221.800781 258.363281 222.597656 C 258.292969 223.460938 258.582031 224.039062 259.519531 224.109375 C 260.382812 224.183594 260.960938 223.824219 261.03125 223.027344 C 261.105469 222.019531 260.671875 221.585938 259.734375 221.515625 Z M 63.515625 166.90625 C 62.722656 166.976562 62.148438 167.554688 62.148438 168.347656 C 62.148438 169.140625 62.652344 169.503906 63.445312 169.503906 C 64.382812 169.503906 64.742188 168.996094 64.742188 167.84375 C 64.671875 167.410156 64.3125 166.761719 63.515625 166.90625 Z M 294.203125 55.378906 C 293.410156 55.304688 293.050781 55.882812 292.980469 56.605469 C 292.90625 57.46875 293.265625 57.976562 294.277344 57.976562 C 295.070312 57.976562 295.429688 57.542969 295.648438 56.675781 C 295.359375 56.171875 295.070312 55.449219 294.203125 55.378906 Z M 167.863281 222.957031 C 167.792969 223.894531 168.367188 224.472656 169.304688 224.542969 C 170.097656 224.617188 170.386719 223.964844 170.460938 223.246094 C 170.460938 222.453125 170.097656 222.019531 169.304688 221.945312 C 168.585938 221.945312 167.9375 222.164062 167.863281 222.957031 Z M 298.460938 192.515625 C 298.53125 193.308594 299.109375 193.957031 299.902344 193.8125 C 300.40625 193.742188 301.199219 193.453125 301.054688 192.515625 C 300.984375 191.578125 300.476562 191.214844 299.46875 191.289062 C 298.890625 191.359375 298.316406 191.71875 298.460938 192.515625 Z M 297.953125 31.574219 C 297.882812 32.582031 298.53125 32.945312 299.253906 32.945312 C 299.902344 32.945312 300.476562 32.367188 300.476562 31.644531 C 300.476562 30.996094 300.117188 30.347656 299.757812 30.417969 C 298.53125 30.417969 298.027344 30.707031 297.953125 31.574219 Z M 273.796875 25.511719 C 273.074219 25.585938 272.644531 25.945312 272.644531 26.59375 C 272.644531 27.390625 273.21875 27.75 274.011719 27.675781 C 274.804688 27.675781 275.238281 27.246094 275.238281 26.449219 C 275.09375 25.730469 274.519531 25.511719 273.796875 25.511719 Z M 63.445312 187.25 C 62.652344 187.25 62.292969 187.824219 62.292969 188.332031 C 62.292969 188.980469 62.722656 189.554688 63.589844 189.484375 C 64.382812 189.414062 64.816406 189.125 64.742188 188.402344 C 64.742188 187.390625 64.167969 187.25 63.445312 187.25 Z M 174.640625 307.359375 C 173.847656 307.359375 173.488281 307.9375 173.488281 308.65625 C 173.488281 309.308594 173.847656 309.8125 174.5 309.882812 C 175.292969 309.957031 175.722656 309.523438 175.796875 308.367188 C 175.867188 307.863281 175.363281 307.359375 174.640625 307.359375 Z M 68.421875 162 C 67.628906 162.070312 67.410156 162.648438 67.410156 163.371094 C 67.410156 164.089844 67.917969 164.523438 68.492188 164.453125 C 68.996094 164.378906 69.863281 164.164062 69.648438 163.296875 C 69.648438 162.433594 69.214844 161.925781 68.421875 162 Z M 184.523438 247.125 C 183.945312 247.050781 183.367188 247.195312 183.367188 248.0625 C 183.367188 248.855469 183.585938 249.433594 184.449219 249.433594 C 185.171875 249.433594 185.53125 249 185.605469 248.132812 C 185.675781 247.554688 185.171875 247.195312 184.523438 247.125 Z M 169.449219 302.382812 C 168.585938 302.453125 168.296875 303.101562 168.367188 303.753906 C 168.441406 304.402344 169.019531 304.617188 169.667969 304.617188 C 170.386719 304.546875 170.75 304.257812 170.820312 303.609375 C 170.460938 303.101562 170.316406 302.308594 169.449219 302.382812 Z M 275.742188 207.734375 C 275.671875 207.085938 275.457031 206.582031 274.804688 206.4375 C 274.15625 206.363281 273.652344 206.726562 273.582031 207.375 C 273.507812 208.167969 274.085938 208.527344 274.589844 208.816406 C 275.238281 208.671875 275.816406 208.527344 275.742188 207.734375 Z M 253.535156 217.835938 C 253.535156 218.554688 253.964844 218.84375 254.6875 218.84375 C 255.410156 218.84375 255.769531 218.484375 255.695312 217.761719 C 255.625 217.113281 255.265625 216.753906 254.542969 216.679688 C 253.964844 216.753906 253.535156 217.113281 253.535156 217.835938 Z M 63.589844 157.09375 C 62.867188 157.167969 62.363281 157.597656 62.4375 158.320312 C 62.4375 158.898438 62.796875 159.332031 63.589844 159.257812 C 64.3125 159.1875 64.597656 158.824219 64.742188 158.175781 C 64.238281 157.886719 64.382812 157.023438 63.589844 157.09375 Z M 274.15625 35.757812 C 273.4375 35.683594 273.003906 35.972656 273.074219 36.765625 C 273.074219 37.414062 273.4375 37.921875 274.085938 37.921875 C 274.804688 37.992188 275.09375 37.488281 275.3125 36.839844 C 275.167969 36.191406 274.804688 35.828125 274.15625 35.757812 Z M 174.28125 237.097656 C 173.5625 237.097656 173.199219 237.601562 173.199219 238.25 C 173.199219 238.828125 173.5625 239.1875 174.136719 239.261719 C 174.859375 239.332031 175.21875 238.898438 175.363281 238.179688 C 175.292969 237.601562 175.003906 237.097656 174.28125 237.097656 Z M 289.660156 201.53125 C 289.085938 201.605469 288.722656 201.964844 288.652344 202.542969 C 288.578125 203.261719 289.011719 203.695312 289.660156 203.695312 C 290.382812 203.695312 290.742188 203.261719 290.816406 202.46875 C 290.671875 201.964844 290.382812 201.460938 289.660156 201.53125 Z M 153.296875 278.648438 C 153.441406 279.226562 153.800781 279.800781 154.523438 279.65625 C 155.171875 279.511719 155.386719 279.007812 155.386719 278.289062 C 155.316406 277.566406 154.882812 277.492188 154.234375 277.492188 C 153.65625 277.636719 153.082031 277.855469 153.296875 278.648438 Z M 304.660156 186.453125 C 304.085938 186.527344 303.722656 186.960938 303.722656 187.535156 C 303.722656 188.257812 304.15625 188.617188 304.878906 188.617188 C 305.597656 188.546875 305.886719 188.113281 305.886719 187.390625 C 305.742188 186.742188 305.382812 186.308594 304.660156 186.453125 Z M 328.675781 131.988281 C 328.746094 132.640625 329.105469 133.070312 329.828125 133 C 330.40625 132.925781 330.765625 132.566406 330.765625 131.988281 C 330.765625 131.339844 330.261719 130.980469 329.539062 130.90625 C 329.105469 131.195312 328.601562 131.339844 328.675781 131.988281 Z M 68.421875 152.1875 C 67.84375 152.261719 67.484375 152.621094 67.484375 153.199219 C 67.484375 153.847656 67.84375 154.425781 68.492188 154.28125 C 68.996094 154.207031 69.648438 153.921875 69.648438 153.125 C 69.429688 152.550781 69.070312 152.117188 68.421875 152.1875 Z M 68.421875 152.1875 " fill-opacity="1" fill-rule="nonzero"/></g><path fill="#ffffff" d="M 149.113281 316.160156 C 148.609375 315.726562 148.03125 315.222656 147.527344 314.789062 C 145.292969 312.625 146.375 310.390625 147.527344 308.296875 C 150.628906 302.8125 153.800781 297.402344 157.121094 291.992188 C 165.269531 278.574219 174.425781 265.734375 181.203125 251.453125 C 182.503906 248.710938 183.367188 245.753906 184.160156 242.867188 C 184.378906 241.929688 184.234375 241.425781 182.863281 241.710938 C 177.742188 242.652344 172.550781 243.371094 167.285156 243.878906 C 164.691406 244.09375 162.238281 243.949219 159.714844 243.734375 C 156.542969 243.445312 152.792969 240.992188 154.449219 236.230469 C 156.324219 230.890625 159.136719 226.128906 162.023438 221.296875 C 162.816406 220 163.679688 218.699219 163.25 216.96875 C 155.964844 217.113281 148.683594 216.898438 141.398438 216.246094 C 132.242188 215.453125 123.296875 213.722656 114.5 211.199219 C 106.136719 208.816406 98.058594 205.570312 90.488281 201.242188 C 84.359375 197.78125 78.660156 193.742188 73.757812 188.761719 C 65.25 180.105469 59.695312 169.863281 57.675781 157.742188 C 56.449219 150.386719 56.882812 143.097656 58.035156 135.742188 C 59.910156 124.199219 64.023438 113.523438 69.285156 103.277344 C 73.757812 94.621094 79.164062 86.542969 85.296875 78.96875 C 90.199219 72.910156 95.390625 67.210938 101.304688 62.160156 C 108.300781 56.171875 115.726562 50.90625 123.730469 46.433594 C 132.382812 41.671875 141.398438 37.777344 150.773438 34.746094 C 159.425781 31.933594 168.296875 29.914062 177.3125 28.328125 C 181.566406 27.605469 185.964844 27.316406 190.363281 26.8125 C 197.503906 26.019531 204.570312 25.945312 211.707031 26.019531 C 221.441406 26.164062 231.035156 27.390625 240.554688 29.410156 C 250.648438 31.574219 260.3125 34.964844 269.46875 39.722656 C 275.457031 42.898438 280.9375 46.792969 286.128906 51.121094 C 294.636719 58.265625 301.128906 66.992188 306.03125 76.875 C 309.636719 84.089844 311.871094 91.808594 313.171875 99.816406 C 314.25 106.234375 314.394531 112.65625 313.820312 118.933594 C 312.953125 129.898438 310.070312 140.429688 305.671875 150.53125 C 302.210938 158.464844 297.738281 165.75 292.402344 172.386719 C 288.074219 177.726562 283.097656 182.488281 277.691406 186.960938 C 269.398438 193.8125 260.238281 199.296875 250.503906 203.769531 C 241.417969 207.953125 232.042969 211.34375 222.164062 213.074219 C 219.28125 213.578125 216.394531 213.578125 213.582031 214.300781 C 212.070312 214.734375 210.050781 219.855469 210.988281 221.082031 C 211.417969 221.660156 212.070312 221.371094 212.644531 221.371094 C 216.179688 221.371094 219.785156 221.226562 223.316406 221.441406 C 226.347656 221.585938 229.160156 222.378906 231.394531 224.761719 C 233.703125 227.214844 234.136719 229.519531 232.765625 232.695312 C 231.324219 236.085938 229.085938 238.972656 226.707031 241.710938 C 220.144531 249.359375 213.511719 257.007812 206.660156 264.4375 C 200.3125 271.289062 193.753906 277.855469 187.191406 284.417969 C 179.691406 291.921875 172.335938 299.566406 164.476562 306.710938 C 160.941406 309.882812 157.625 313.417969 153.65625 316.085938 C 152.070312 316.160156 150.628906 316.160156 149.113281 316.160156 Z M 149.113281 316.160156 " fill-opacity="1" fill-rule="nonzero"/><g clip-path="url(#b8b67bb465)"><path fill="#000000" d="M 211.492188 25.511719 C 227.210938 25.585938 246.683594 28.472656 265 37.199219 C 289.230469 48.667969 305.597656 66.992188 311.945312 93.46875 C 316.558594 112.875 313.890625 131.773438 306.320312 149.953125 C 296.441406 173.6875 278.988281 190.207031 256.5625 201.890625 C 245.457031 207.664062 233.917969 212.136719 221.515625 214.226562 C 219.207031 214.660156 216.828125 214.804688 214.449219 215.09375 C 212.789062 215.238281 210.339844 219.0625 210.84375 220.578125 C 211.132812 221.371094 211.851562 221.152344 212.355469 221.152344 C 214.738281 221.152344 217.117188 221.007812 219.425781 221.007812 C 222.238281 221.007812 225.050781 221.082031 227.71875 222.089844 C 232.691406 223.964844 234.710938 228.4375 232.835938 233.417969 C 231.105469 237.890625 228.003906 241.351562 224.976562 244.886719 C 204.0625 269.199219 181.636719 292.066406 157.914062 313.636719 C 156.324219 315.078125 154.882812 316.664062 152.574219 317.027344 C 150.558594 317.3125 148.753906 317.027344 147.382812 315.367188 C 146.015625 313.707031 145.941406 311.832031 146.734375 309.957031 C 148.898438 305.050781 151.78125 300.578125 154.523438 295.960938 C 161.589844 284.128906 169.449219 272.804688 176.230469 260.828125 C 179.1875 255.636719 181.996094 250.296875 183.800781 244.527344 C 184.378906 242.722656 184.015625 242.363281 182.140625 242.722656 C 176.804688 243.660156 171.46875 244.453125 166.0625 244.742188 C 163.96875 244.886719 161.949219 244.886719 159.859375 244.597656 C 155.101562 243.878906 153.082031 240.773438 154.449219 236.15625 C 155.820312 231.398438 158.488281 227.285156 160.796875 222.957031 C 161.664062 221.296875 163.824219 219.492188 163.105469 218.050781 C 162.601562 217.042969 159.714844 217.90625 157.839844 217.90625 C 135.558594 217.90625 114.066406 214.082031 94.019531 204.054688 C 81.472656 197.78125 70.945312 189.050781 63.949219 176.644531 C 57.242188 164.667969 55.65625 151.753906 57.53125 138.339844 C 60.5625 116.914062 70.078125 98.375 82.988281 81.421875 C 104.765625 52.855469 134.117188 36.839844 168.800781 29.554688 C 181.421875 26.882812 194.183594 25.511719 211.492188 25.511719 Z M 214.664062 210.261719 C 215.242188 210.332031 215.457031 210.40625 215.675781 210.332031 C 216.394531 210.1875 217.117188 210.117188 217.835938 209.898438 C 233.054688 206.148438 247.042969 199.65625 259.953125 191 C 284.542969 174.625 300.046875 152.1875 303.796875 122.613281 C 307.257812 95.34375 298.171875 72.691406 276.539062 55.523438 C 263.84375 45.421875 248.847656 40.230469 232.980469 37.488281 C 211.277344 33.808594 189.640625 34.964844 168.152344 39.722656 C 133.609375 47.441406 105.269531 64.683594 85.367188 94.550781 C 76.496094 107.75 69.71875 121.890625 67.050781 137.761719 C 64.742188 151.683594 66.402344 164.742188 74.695312 176.570312 C 79.886719 184 86.519531 190.0625 94.308594 194.679688 C 116.085938 207.589844 139.957031 212.640625 164.980469 213.21875 C 166.207031 213.21875 166.855469 212.640625 167.429688 211.703125 C 168.945312 209.179688 170.53125 206.652344 172.117188 204.128906 C 172.695312 203.261719 173.34375 202.542969 174.425781 203.117188 C 175.507812 203.695312 175.363281 204.632812 174.859375 205.570312 C 174.5 206.21875 174.210938 206.871094 173.847656 207.519531 C 169.304688 216.609375 164.546875 225.554688 160.726562 234.933594 C 159.425781 238.25 159.570312 238.464844 163.03125 238.25 C 164.042969 238.179688 165.125 238.105469 166.132812 237.960938 C 171.832031 237.3125 177.3125 235.871094 182.933594 234.933594 C 189.640625 233.851562 192.742188 236.953125 191.734375 243.734375 C 191.085938 247.84375 189.714844 251.738281 188.054688 255.5625 C 183.511719 265.878906 177.671875 275.472656 171.902344 285.140625 C 171.46875 285.863281 170.894531 286.4375 170.964844 287.59375 C 171.542969 287.089844 171.902344 286.800781 172.335938 286.4375 C 184.738281 274.753906 196.851562 262.847656 208.679688 250.585938 C 214.160156 244.960938 219.640625 239.40625 224.542969 233.199219 C 227.71875 229.089844 227.066406 227.574219 221.875 226.996094 C 218.632812 226.636719 215.386719 226.707031 212.140625 226.417969 C 205.867188 225.84375 204.0625 222.667969 206.515625 216.824219 C 206.660156 216.464844 206.804688 216.175781 207.019531 215.816406 C 209.328125 210.910156 212.429688 206.4375 215.167969 201.820312 C 215.746094 200.882812 216.324219 199.582031 217.695312 200.304688 C 219.207031 201.097656 218.414062 202.324219 217.910156 203.40625 C 216.898438 205.789062 215.820312 207.878906 214.664062 210.261719 Z M 47.867188 178.808594 C 50.464844 186.308594 54.71875 192.730469 59.910156 198.574219 C 60.632812 199.367188 61.425781 199.945312 62.363281 199.078125 C 63.230469 198.359375 62.867188 197.492188 62.292969 196.699219 C 62.003906 196.335938 61.785156 195.976562 61.5 195.617188 C 57.75 190.207031 54.792969 184.433594 53.132812 178.085938 C 49.3125 163.730469 49.382812 149.160156 51.691406 134.660156 C 54.070312 119.796875 59.550781 105.875 65.175781 91.953125 C 65.464844 91.304688 65.753906 90.582031 65.96875 89.859375 C 66.1875 89.140625 65.96875 88.488281 65.25 88.203125 C 64.453125 87.839844 63.804688 87.984375 63.300781 88.707031 C 63.011719 89.140625 62.796875 89.574219 62.507812 90.078125 C 56.667969 100.824219 51.835938 112.078125 47.941406 123.621094 C 45.058594 132.421875 43.183594 141.511719 43.324219 149.375 C 43.46875 160.414062 44.769531 169.71875 47.867188 178.808594 Z M 189.210938 6.972656 C 188.128906 7.191406 186.828125 7.261719 186.972656 8.847656 C 187.117188 10.363281 188.34375 10.21875 189.496094 10.148438 C 217.695312 8.992188 244.589844 13.753906 269.183594 28.328125 C 270.117188 28.832031 270.984375 29.265625 271.707031 28.253906 C 272.5 27.171875 271.777344 26.449219 270.984375 25.800781 C 268.027344 23.421875 264.925781 21.257812 261.753906 19.238281 C 246.105469 9.355469 228.726562 5.53125 213.007812 5.53125 C 203.269531 5.3125 196.203125 5.746094 189.210938 6.972656 Z M 280.429688 200.378906 C 281.945312 199.367188 283.460938 198.214844 284.972656 197.203125 C 299.109375 188.257812 307.976562 175.273438 313.601562 159.835938 C 313.964844 158.824219 314.394531 157.742188 313.171875 157.09375 C 311.945312 156.445312 311.296875 157.308594 310.789062 158.320312 C 303.507812 174.191406 291.824219 186.453125 278.917969 197.707031 C 278.484375 198.070312 277.90625 198.429688 277.691406 198.933594 C 277.1875 200.015625 277.617188 200.808594 278.628906 200.953125 C 279.492188 201.097656 279.925781 200.664062 280.429688 200.378906 Z M 91.425781 217.546875 C 91.640625 216.679688 91.207031 216.105469 90.414062 215.816406 C 86.519531 214.515625 82.84375 213 79.09375 211.414062 C 78.226562 211.054688 77.507812 211.34375 77.074219 212.207031 C 76.714844 213 76.929688 213.722656 77.652344 214.15625 C 81.402344 216.535156 85.441406 217.980469 89.984375 218.699219 C 90.632812 218.699219 91.28125 218.410156 91.425781 217.546875 Z M 282.738281 73.992188 C 273.21875 62.882812 261.03125 55.59375 247.402344 50.691406 C 247.042969 50.546875 246.683594 50.472656 246.320312 50.402344 C 245.601562 50.257812 244.953125 50.546875 244.664062 51.195312 C 244.375 51.988281 244.589844 52.636719 245.3125 53.070312 C 245.816406 53.359375 246.394531 53.574219 246.898438 53.863281 C 255.695312 57.976562 263.628906 63.242188 270.769531 69.878906 C 284.902344 83.152344 290.023438 99.671875 288.292969 118.570312 C 287.066406 131.558594 281.945312 143.097656 274.804688 153.921875 C 274.230469 154.785156 273.507812 155.722656 274.664062 156.660156 C 275.816406 157.527344 276.539062 156.589844 277.257812 155.796875 C 279.855469 152.765625 282.234375 149.519531 284.398438 146.128906 C 291.609375 134.804688 295.503906 122.46875 295.648438 110.78125 C 295.71875 95.703125 291.390625 84.019531 282.738281 73.992188 Z M 282.738281 73.992188 " fill-opacity="1" fill-rule="nonzero"/></g><g fill="#ffffff" fill-opacity="1"><g transform="translate(211.291615, 371.349967)"><g><path d="M 1.1875 -0.828125 C 1.1875 -1.179688 1.265625 -1.445312 1.421875 -1.625 C 1.585938 -1.800781 1.816406 -1.890625 2.109375 -1.890625 C 2.410156 -1.890625 2.644531 -1.800781 2.8125 -1.625 C 2.988281 -1.445312 3.078125 -1.179688 3.078125 -0.828125 C 3.078125 -0.492188 2.988281 -0.234375 2.8125 -0.046875 C 2.644531 0.140625 2.410156 0.234375 2.109375 0.234375 C 1.847656 0.234375 1.628906 0.148438 1.453125 -0.015625 C 1.273438 -0.179688 1.1875 -0.453125 1.1875 -0.828125 Z M 1.1875 -0.828125 "/></g></g></g></svg>