<svg xmlns="http://www.w3.org/2000/svg" xmlns:xlink="http://www.w3.org/1999/xlink" width="500" zoomAndPan="magnify" viewBox="0 0 375 374.999991" height="500" preserveAspectRatio="xMidYMid meet" version="1.0"><defs><g/><clipPath id="f8005f6c68"><path d="M 17.394531 123 L 278 123 L 278 344.175781 L 17.394531 344.175781 Z M 17.394531 123 " clip-rule="nonzero"/></clipPath><clipPath id="5c024705dc"><path d="M 17.394531 4 L 357 4 L 357 322 L 17.394531 322 Z M 17.394531 4 " clip-rule="nonzero"/></clipPath></defs><path fill="#ecf5f4" d="M 271.921875 338.523438 L 23.050781 338.523438 L 23.050781 10.464844 L 271.921875 10.464844 L 271.921875 338.523438 " fill-opacity="1" fill-rule="nonzero"/><path fill="#d2dbda" d="M 271.921875 259.335938 L 271.921875 338.523438 L 23.050781 338.523438 L 23.050781 10.464844 L 119.203125 10.464844 L 119.203125 157.523438 C 119.203125 213.753906 164.785156 259.335938 221.015625 259.335938 L 271.921875 259.335938 " fill-opacity="1" fill-rule="nonzero"/><path fill="#b5e7ef" d="M 139.621094 33.089844 L 171.367188 137.417969 L 249.296875 117.933594 L 249.296875 33.089844 L 139.621094 33.089844 " fill-opacity="1" fill-rule="nonzero"/><path fill="#b5e7ef" d="M 116.996094 33.089844 L 45.675781 33.089844 L 45.675781 168.835938 L 150.335938 142.675781 L 116.996094 33.089844 " fill-opacity="1" fill-rule="nonzero"/><path fill="#b5e7ef" d="M 249.296875 146.210938 L 249.296875 315.898438 L 45.675781 315.898438 L 45.675781 197.117188 L 249.296875 146.210938 " fill-opacity="1" fill-rule="nonzero"/><path fill="#66cde1" d="M 119.203125 40.335938 L 119.203125 150.453125 L 45.675781 168.835938 L 45.675781 33.089844 L 116.996094 33.089844 L 119.203125 40.335938 " fill-opacity="1" fill-rule="nonzero"/><path fill="#66cde1" d="M 249.296875 259.335938 L 249.296875 315.898438 L 45.675781 315.898438 L 45.675781 197.117188 L 121.347656 178.226562 C 130.847656 224.492188 171.855469 259.335938 221.015625 259.335938 L 249.296875 259.335938 " fill-opacity="1" fill-rule="nonzero"/><path fill="#f8ec08" d="M 222.140625 107.304688 C 222.140625 113.136719 224.460938 118.882812 228.8125 123.035156 L 171.347656 137.398438 L 150.246094 68.109375 C 159.128906 67.644531 167.503906 61.769531 170.109375 52.089844 C 174.351562 67.753906 193.640625 73.410156 205.679688 62.5625 C 204.996094 64.75 204.664062 67.027344 204.664062 69.167969 C 204.664062 82.074219 216.265625 92.8125 230.007812 90.558594 C 224.683594 95.019531 222.140625 101.183594 222.140625 107.304688 " fill-opacity="1" fill-rule="nonzero"/><path fill="#f8ec08" d="M 80.121094 160.242188 C 81.246094 157.523438 81.820312 154.695312 81.820312 151.933594 C 81.820312 141.507812 74.242188 131.675781 62.707031 130.261719 C 71.238281 126.59375 75.832031 118.484375 75.832031 110.242188 C 75.832031 104.121094 73.269531 97.957031 67.96875 93.5625 C 69.203125 93.78125 70.398438 93.828125 71.636719 93.828125 C 85.886719 93.828125 96.757812 79.820312 92.269531 65.546875 C 96.511719 69.390625 101.660156 71.15625 106.765625 71.15625 C 114.121094 71.15625 121.414062 67.425781 125.433594 60.816406 L 150.378906 142.65625 L 80.121094 160.242188 " fill-opacity="1" fill-rule="nonzero"/><path fill="#f8ec08" d="M 249.296875 222.570312 L 249.296875 315.898438 L 147.484375 315.898438 L 120.617188 287.109375 L 170.109375 276.304688 L 113.546875 214.085938 L 181.421875 236.710938 L 164.453125 197.117188 L 215.359375 225.398438 L 221.015625 180.148438 L 249.296875 222.570312 " fill-opacity="1" fill-rule="nonzero"/><path fill="#f8ec08" d="M 101.726562 241.328125 L 75.433594 261.058594 C 79.058594 255.933594 80.671875 249.261719 78.859375 242.167969 C 76.828125 234.171875 70.222656 227.761719 62.179688 225.972656 C 47.417969 222.703125 34.363281 233.839844 34.363281 248.023438 C 34.363281 256.375 38.933594 263.601562 45.675781 267.511719 L 45.675781 315.898438 L 85.265625 315.898438 L 85.265625 286.796875 L 113.746094 254.277344 C 116.816406 250.761719 116.640625 245.460938 113.328125 242.144531 C 110.210938 239.03125 105.261719 238.675781 101.726562 241.328125 " fill-opacity="1" fill-rule="nonzero"/><path fill="#face08" d="M 85.265625 304.472656 L 85.265625 315.898438 L 45.675781 315.898438 L 45.675781 267.53125 C 38.933594 263.578125 34.363281 256.398438 34.363281 248.023438 C 34.363281 233.816406 47.417969 222.679688 62.179688 225.949219 C 62.707031 226.082031 63.152344 226.195312 63.59375 226.414062 C 54.335938 229.175781 47.597656 237.835938 47.597656 248.023438 C 47.597656 256.398438 52.171875 263.578125 58.910156 267.53125 L 58.910156 276.304688 C 58.910156 291.238281 70.550781 303.503906 85.265625 304.472656 " fill-opacity="1" fill-rule="nonzero"/><path fill="#f2556c" d="M 203.582031 127.144531 C 203.582031 127.894531 203.648438 128.558594 203.757812 129.308594 L 171.347656 137.398438 L 160.035156 100.34375 C 164.230469 98.820312 167.746094 95.417969 169.09375 90.558594 C 171.855469 100.898438 184.714844 104.699219 192.667969 97.449219 C 192.226562 98.929688 192.003906 100.457031 192.003906 101.871094 C 192.003906 110.398438 199.695312 117.535156 208.796875 116.007812 C 205.285156 119.015625 203.582031 123.078125 203.582031 127.144531 " fill-opacity="1" fill-rule="nonzero"/><path fill="#face08" d="M 119.203125 67.3125 L 119.203125 150.453125 L 80.121094 160.242188 C 81.246094 157.523438 81.820312 154.695312 81.820312 151.933594 C 81.820312 141.507812 74.242188 131.675781 62.707031 130.261719 C 71.238281 126.59375 75.832031 118.484375 75.832031 110.242188 C 75.832031 104.121094 73.269531 97.957031 67.96875 93.5625 C 69.203125 93.78125 70.398438 93.828125 71.636719 93.828125 C 85.886719 93.828125 96.757812 79.820312 92.269531 65.546875 C 96.511719 69.390625 101.660156 71.15625 106.765625 71.15625 C 111.183594 71.15625 115.535156 69.789062 119.203125 67.3125 " fill-opacity="1" fill-rule="nonzero"/><path fill="#face08" d="M 249.296875 259.335938 L 249.296875 315.898438 L 147.484375 315.898438 L 120.617188 287.109375 L 170.109375 276.304688 L 113.546875 214.085938 L 144.191406 224.316406 C 162.863281 245.746094 190.371094 259.335938 221.015625 259.335938 L 249.296875 259.335938 " fill-opacity="1" fill-rule="nonzero"/><path fill="#f2556c" d="M 232.328125 242.367188 L 249.296875 253.679688 L 249.296875 315.898438 L 198.390625 315.898438 L 175.765625 298.929688 L 204.046875 293.273438 L 181.421875 259.335938 L 221.015625 281.960938 L 209.703125 248.023438 L 232.328125 264.992188 L 232.328125 242.367188 " fill-opacity="1" fill-rule="nonzero"/><path fill="#f2556c" d="M 150.378906 142.65625 L 114.628906 151.582031 C 113.371094 145.660156 108.578125 140.621094 101.839844 139.761719 C 107.671875 137.265625 110.785156 131.742188 110.785156 126.128906 C 110.785156 121.953125 109.085938 117.710938 105.394531 114.707031 C 106.257812 114.882812 107.097656 114.925781 107.957031 114.925781 C 117.679688 114.925781 125.082031 105.316406 122.03125 95.59375 C 124.925781 98.246094 128.417969 99.4375 131.929688 99.4375 C 133.632812 99.4375 135.332031 99.152344 136.96875 98.597656 L 150.378906 142.65625 " fill-opacity="1" fill-rule="nonzero"/><path fill="#ef3a49" d="M 249.296875 259.335938 L 249.296875 315.898438 L 198.390625 315.898438 L 175.765625 298.929688 L 204.046875 293.273438 L 181.421875 259.335938 L 221.015625 281.960938 L 213.371094 259.046875 C 215.933594 259.226562 218.472656 259.335938 221.015625 259.335938 L 224.792969 259.335938 L 232.328125 264.992188 L 232.328125 259.335938 L 249.296875 259.335938 " fill-opacity="1" fill-rule="nonzero"/><path fill="#ef3a49" d="M 119.203125 109.625 L 119.203125 150.453125 L 114.628906 151.582031 C 113.371094 145.660156 108.578125 140.621094 101.839844 139.761719 C 107.671875 137.265625 110.785156 131.742188 110.785156 126.128906 C 110.785156 121.953125 109.085938 117.710938 105.394531 114.707031 C 106.257812 114.882812 107.097656 114.925781 107.957031 114.925781 C 112.464844 114.925781 116.488281 112.828125 119.203125 109.625 " fill-opacity="1" fill-rule="nonzero"/><path fill="#face08" d="M 235.242188 233.019531 L 238.644531 172.195312 L 279.652344 191.308594 Z M 235.242188 233.019531 " fill-opacity="1" fill-rule="nonzero"/><path fill="#ecf5f4" d="M 338.046875 12.585938 C 326.714844 7.304688 313.257812 12.210938 307.976562 23.523438 L 303.183594 33.773438 L 344.191406 52.910156 L 348.984375 42.65625 C 354.265625 31.34375 349.359375 17.867188 338.046875 12.585938 " fill-opacity="1" fill-rule="nonzero"/><path fill="#f2556c" d="M 303.183594 33.773438 L 344.191406 52.910156 L 279.652344 191.308594 L 238.644531 172.195312 L 303.183594 33.773438 " fill-opacity="1" fill-rule="nonzero"/><path fill="#8f9697" d="M 261.890625 207.988281 L 237.296875 196.519531 L 235.242188 233.019531 Z M 261.890625 207.988281 " fill-opacity="1" fill-rule="nonzero"/><path fill="#f9af0b" d="M 243.109375 199.238281 L 261.890625 207.988281 L 279.652344 191.308594 L 257.824219 181.144531 C 253.140625 187.328125 248.257812 193.40625 243.109375 199.238281 " fill-opacity="1" fill-rule="nonzero"/><path fill="#d2dbda" d="M 338.046875 12.585938 C 337.472656 12.320312 336.878906 12.1875 336.304688 11.988281 C 338.710938 17.667969 338.820312 24.316406 335.992188 30.371094 L 328.8125 45.726562 L 344.191406 52.910156 L 348.984375 42.65625 C 354.265625 31.34375 349.359375 17.867188 338.046875 12.585938 " fill-opacity="1" fill-rule="nonzero"/><path fill="#ef3a49" d="M 292.179688 124.339844 L 328.8125 45.726562 L 344.191406 52.910156 L 279.652344 191.308594 L 257.824219 181.144531 C 271.214844 163.492188 282.769531 144.488281 292.179688 124.339844 " fill-opacity="1" fill-rule="nonzero"/><path fill="#5e6574" d="M 236.746094 206.132812 L 235.242188 233.019531 L 261.890625 207.988281 L 243.109375 199.238281 C 241.054688 201.582031 238.890625 203.855469 236.746094 206.132812 " fill-opacity="1" fill-rule="nonzero"/><g clip-path="url(#f8005f6c68)"><path fill="#2d2c2c" d="M 23.050781 123.589844 C 19.933594 123.589844 17.394531 126.128906 17.394531 129.242188 L 17.394531 338.523438 C 17.394531 341.636719 19.933594 344.175781 23.050781 344.175781 L 271.921875 344.175781 C 275.035156 344.175781 277.578125 341.636719 277.578125 338.523438 L 277.578125 227.894531 C 277.578125 224.757812 275.035156 222.238281 271.921875 222.238281 C 268.804688 222.238281 266.265625 224.757812 266.265625 227.894531 L 266.265625 332.867188 L 28.707031 332.867188 L 28.707031 129.242188 C 28.707031 126.128906 26.164062 123.589844 23.050781 123.589844 " fill-opacity="1" fill-rule="nonzero"/></g><path fill="#2d2c2c" d="M 170.109375 64.066406 C 173.511719 68.109375 178.0625 71.136719 183.367188 72.703125 C 188.667969 74.273438 194.171875 74.183594 199.230469 72.617188 C 200.089844 79.332031 203.449219 85.542969 208.730469 90.027344 C 211.78125 92.632812 215.359375 94.488281 219.160156 95.527344 C 217.414062 99.171875 216.484375 103.171875 216.484375 107.304688 C 216.484375 111.589844 217.5 115.789062 219.359375 119.566406 L 211.25 121.597656 C 211.625 121.136719 212.023438 120.695312 212.464844 120.296875 C 214.410156 118.660156 215.003906 115.921875 213.921875 113.625 C 212.839844 111.324219 210.34375 110.023438 207.867188 110.417969 C 205.261719 110.882812 202.742188 110.199219 200.777344 108.519531 C 198.789062 106.839844 197.660156 104.410156 197.660156 101.871094 C 197.660156 101.007812 197.816406 100.011719 198.082031 99.128906 C 198.832031 96.675781 197.859375 94.046875 195.714844 92.679688 C 193.550781 91.332031 190.769531 91.550781 188.867188 93.273438 C 186.570312 95.375 183.519531 96.058594 180.515625 95.175781 C 177.53125 94.289062 175.347656 92.082031 174.550781 89.097656 C 173.886719 86.625 171.679688 84.902344 169.113281 84.902344 L 169.09375 84.902344 C 166.550781 84.902344 164.320312 86.601562 163.636719 89.03125 C 163.503906 89.585938 163.261719 90.070312 163.015625 90.558594 L 157.515625 72.484375 C 162.464844 70.914062 166.816406 67.976562 170.109375 64.066406 Z M 198.058594 124.871094 L 175.214844 130.59375 L 166.839844 103.105469 C 167.636719 102.554688 168.386719 101.933594 169.070312 101.273438 C 171.347656 103.460938 174.152344 105.09375 177.335938 106.023438 C 180.515625 106.949219 183.765625 107.105469 186.878906 106.488281 C 187.875 110.597656 190.148438 114.332031 193.464844 117.136719 C 195.164062 118.574219 197.066406 119.699219 199.074219 120.496094 C 198.566406 121.910156 198.234375 123.390625 198.058594 124.871094 Z M 249.296875 61.371094 C 252.410156 61.371094 254.953125 58.828125 254.953125 55.714844 L 254.953125 33.089844 C 254.953125 29.972656 252.410156 27.433594 249.296875 27.433594 L 139.621094 27.433594 C 137.828125 27.433594 136.128906 28.296875 135.066406 29.730469 C 134.007812 31.167969 133.675781 33.023438 134.207031 34.722656 L 165.957031 139.054688 C 166.683594 141.484375 168.917969 143.074219 171.367188 143.074219 C 171.8125 143.074219 172.273438 143.007812 172.738281 142.898438 L 250.664062 123.410156 C 253.183594 122.792969 254.953125 120.539062 254.953125 117.933594 L 254.953125 78.339844 C 254.953125 75.222656 252.410156 72.683594 249.296875 72.683594 C 246.179688 72.683594 243.640625 75.222656 243.640625 78.339844 L 243.640625 113.511719 L 230.824219 116.714844 C 228.902344 114.019531 227.796875 110.730469 227.796875 107.304688 C 227.796875 102.464844 229.875 98.046875 233.652344 94.886719 C 235.597656 93.253906 236.214844 90.511719 235.15625 88.191406 C 234.074219 85.894531 231.597656 84.523438 229.078125 84.96875 C 224.308594 85.742188 219.6875 84.503906 216.042969 81.410156 C 212.398438 78.316406 210.320312 73.875 210.320312 69.167969 C 210.320312 67.558594 210.585938 65.855469 211.09375 64.21875 C 211.84375 61.789062 210.875 59.160156 208.730469 57.792969 C 206.585938 56.421875 203.78125 56.640625 201.902344 58.367188 C 197.707031 62.144531 191.984375 63.445312 186.546875 61.855469 C 181.15625 60.242188 177.046875 56.046875 175.566406 50.609375 C 174.902344 48.15625 172.671875 46.433594 170.109375 46.433594 C 167.546875 46.433594 165.316406 48.15625 164.652344 50.632812 C 163.0625 56.53125 158.730469 60.109375 154.222656 61.636719 L 147.242188 38.746094 L 243.640625 38.746094 L 243.640625 55.714844 C 243.640625 58.828125 246.179688 61.371094 249.296875 61.371094 " fill-opacity="1" fill-rule="nonzero"/><path fill="#2d2c2c" d="M 74.507812 128.582031 C 78.902344 123.632812 81.488281 117.160156 81.488281 110.242188 C 81.488281 106.113281 80.5625 102.132812 78.835938 98.511719 C 84.671875 96.875 89.929688 93.296875 93.617188 88.28125 C 96.425781 84.457031 98.148438 80.105469 98.746094 75.597656 C 101.308594 76.394531 104.023438 76.8125 106.765625 76.8125 C 112.597656 76.8125 118.210938 74.9375 122.828125 71.667969 L 129.433594 93.40625 C 128.285156 93.097656 127.046875 92.523438 125.855469 91.441406 C 123.976562 89.695312 121.171875 89.429688 119.003906 90.820312 C 116.839844 92.191406 115.867188 94.84375 116.640625 97.273438 C 117.523438 100.101562 117.015625 103.105469 115.269531 105.492188 C 113.214844 108.296875 109.878906 109.867188 106.523438 109.160156 C 103.980469 108.675781 101.394531 109.933594 100.292969 112.296875 C 99.1875 114.640625 99.804688 117.445312 101.816406 119.082031 C 104.6875 121.421875 105.128906 124.492188 105.128906 126.128906 C 105.128906 129.066406 103.671875 132.824219 99.605469 134.570312 C 97.265625 135.5625 95.894531 138.015625 96.25 140.554688 C 96.601562 143.074219 98.589844 145.0625 101.132812 145.371094 C 103.164062 145.636719 104.953125 146.523438 106.34375 147.824219 L 87.410156 152.574219 C 87.410156 152.355469 87.476562 152.132812 87.476562 151.933594 C 87.476562 142.148438 82.328125 133.441406 74.507812 128.582031 Z M 118.054688 144.910156 C 116.664062 142.300781 114.808594 140.027344 112.507812 138.257812 C 115.007812 134.8125 116.441406 130.59375 116.441406 126.128906 C 116.441406 123.742188 116.023438 121.402344 115.25 119.214844 C 118.828125 117.800781 122.03125 115.390625 124.394531 112.1875 C 126.074219 109.910156 127.246094 107.347656 127.863281 104.699219 C 129.523438 105.027344 131.246094 105.140625 132.96875 105.050781 L 143.199219 138.632812 Z M 68.296875 38.746094 C 71.414062 38.746094 73.953125 36.203125 73.953125 33.089844 C 73.953125 29.972656 71.414062 27.433594 68.296875 27.433594 L 45.675781 27.433594 C 42.558594 27.433594 40.019531 29.972656 40.019531 33.089844 L 40.019531 168.835938 C 40.019531 170.582031 40.8125 172.21875 42.207031 173.300781 C 43.199219 174.074219 44.4375 174.492188 45.675781 174.492188 C 46.136719 174.492188 46.601562 174.425781 47.042969 174.316406 L 151.703125 148.15625 C 153.207031 147.78125 154.488281 146.808594 155.261719 145.460938 C 156.035156 144.113281 156.210938 142.5 155.75 141.019531 L 122.40625 31.453125 C 121.679688 29.070312 119.46875 27.433594 116.996094 27.433594 L 90.921875 27.433594 C 87.808594 27.433594 85.265625 29.972656 85.265625 33.089844 C 85.265625 36.203125 87.808594 38.746094 90.921875 38.746094 L 112.796875 38.746094 L 119.160156 59.648438 C 116.15625 63.25 111.648438 65.503906 106.765625 65.503906 C 103.960938 65.503906 99.847656 64.773438 96.070312 61.371094 C 94.191406 59.648438 91.386719 59.425781 89.246094 60.796875 C 87.078125 62.164062 86.128906 64.816406 86.878906 67.246094 C 88.425781 72.195312 87.566406 77.410156 84.515625 81.585938 C 80.871094 86.515625 74.992188 89.054688 68.960938 87.992188 C 66.441406 87.484375 63.925781 88.832031 62.839844 91.175781 C 61.738281 93.496094 62.378906 96.257812 64.34375 97.914062 C 68.101562 101.03125 70.175781 105.40625 70.175781 110.242188 C 70.175781 116.804688 66.441406 122.484375 60.457031 125.066406 C 58.113281 126.085938 56.742188 128.535156 57.097656 131.054688 C 57.449219 133.597656 59.484375 135.5625 62 135.871094 C 71.191406 137 76.164062 144.976562 76.164062 151.933594 C 76.164062 153.128906 75.964844 154.320312 75.699219 155.515625 L 51.332031 161.589844 L 51.332031 38.746094 L 68.296875 38.746094 " fill-opacity="1" fill-rule="nonzero"/><path fill="#2d2c2c" d="M 62.644531 236.710938 C 59.527344 236.710938 56.988281 239.25 56.988281 242.367188 C 56.988281 245.480469 59.527344 248.023438 62.644531 248.023438 C 65.757812 248.023438 68.296875 245.480469 68.296875 242.367188 C 68.296875 239.25 65.757812 236.710938 62.644531 236.710938 " fill-opacity="1" fill-rule="nonzero"/><g clip-path="url(#5c024705dc)"><path fill="#2d2c2c" d="M 243.640625 243.117188 L 236.613281 238.433594 C 237.453125 238.214844 238.269531 237.882812 238.957031 237.285156 L 243.640625 233.21875 Z M 200.269531 310.242188 L 189.289062 302 L 205.152344 298.816406 C 207.007812 298.441406 208.554688 297.183594 209.261719 295.4375 C 209.988281 293.691406 209.789062 291.703125 208.753906 290.136719 L 199.40625 276.128906 L 218.207031 286.863281 C 220.242188 288.035156 222.78125 287.816406 224.59375 286.335938 C 226.40625 284.855469 227.113281 282.402344 226.382812 280.171875 L 220.792969 263.402344 L 228.925781 269.519531 C 230.648438 270.800781 232.945312 271 234.867188 270.050781 C 236.769531 269.078125 237.984375 267.132812 237.984375 264.992188 L 237.984375 252.929688 L 243.640625 256.707031 L 243.640625 310.242188 Z M 51.332031 310.242188 L 51.332031 267.511719 C 51.332031 265.5 50.269531 263.644531 48.523438 262.628906 C 43.199219 259.511719 40.019531 254.078125 40.019531 248.023438 C 40.019531 242.851562 42.339844 238.015625 46.382812 234.765625 C 50.492188 231.472656 55.660156 230.324219 60.941406 231.496094 C 66.886719 232.820312 71.878906 237.660156 73.378906 243.558594 C 74.660156 248.574219 73.757812 253.636719 70.816406 257.789062 C 69.203125 260.066406 69.492188 263.15625 71.480469 265.125 C 73.46875 267.046875 76.605469 267.265625 78.816406 265.589844 L 105.128906 245.859375 C 106.410156 244.886719 108.199219 245.019531 109.328125 246.144531 C 110.519531 247.339844 110.585938 249.28125 109.484375 250.542969 L 81.003906 283.085938 C 80.121094 284.125 79.609375 285.429688 79.609375 286.796875 L 79.609375 310.242188 Z M 51.332031 201.535156 L 240.8125 154.167969 L 231.132812 174.933594 C 230.800781 175.640625 230.625 176.4375 230.605469 177.210938 L 230.472656 184.148438 L 225.722656 177.011719 C 224.417969 175.046875 222.03125 174.117188 219.710938 174.648438 C 217.414062 175.179688 215.691406 177.101562 215.402344 179.441406 L 210.785156 216.382812 L 167.191406 192.167969 C 165.09375 190.996094 162.464844 191.285156 160.675781 192.921875 C 158.863281 194.53125 158.3125 197.117188 159.261719 199.347656 L 171.257812 227.363281 L 115.335938 208.71875 C 112.886719 207.898438 110.210938 208.851562 108.796875 210.992188 C 107.40625 213.160156 107.625 215.988281 109.371094 217.886719 L 136.769531 248.023438 C 137.875 249.261719 139.421875 249.878906 140.945312 249.878906 C 142.316406 249.878906 143.664062 249.394531 144.746094 248.421875 C 147.066406 246.300781 147.242188 242.742188 145.121094 240.421875 L 132.285156 226.304688 L 179.632812 242.078125 C 181.753906 242.785156 184.074219 242.191406 185.574219 240.53125 C 187.101562 238.898438 187.496094 236.535156 186.613281 234.480469 L 176.164062 210.085938 L 212.617188 230.347656 C 214.253906 231.253906 216.242188 231.296875 217.921875 230.4375 C 219.601562 229.597656 220.75 227.960938 220.96875 226.105469 L 224.75 195.925781 L 230.117188 204.011719 L 229.585938 232.910156 C 229.566406 234.414062 230.160156 235.78125 231.15625 236.84375 C 230.648438 236.953125 230.140625 237.128906 229.652344 237.375 C 227.820312 238.367188 226.671875 240.289062 226.671875 242.367188 L 226.671875 253.679688 L 213.105469 243.492188 C 211.117188 242.011719 208.398438 241.992188 206.386719 243.425781 C 204.378906 244.886719 203.558594 247.472656 204.332031 249.8125 L 210.960938 269.699219 L 184.226562 254.429688 C 181.953125 253.125 179.078125 253.546875 177.289062 255.46875 C 175.5 257.390625 175.257812 260.285156 176.714844 262.472656 L 194.65625 289.382812 L 174.660156 293.382812 C 172.472656 293.824219 170.75 295.503906 170.242188 297.667969 C 169.757812 299.855469 170.59375 302.109375 172.363281 303.457031 L 181.421875 310.242188 L 149.9375 310.242188 L 131.53125 290.511719 L 171.324219 281.828125 C 173.289062 281.40625 174.882812 279.949219 175.5 278.027344 C 176.117188 276.105469 175.65625 274.007812 174.285156 272.503906 L 160.367188 257.171875 C 158.265625 254.871094 154.6875 254.695312 152.367188 256.792969 C 150.070312 258.894531 149.894531 262.472656 151.992188 264.792969 L 159.328125 272.878906 L 119.402344 281.585938 C 117.414062 282.027344 115.824219 283.484375 115.226562 285.429688 C 114.609375 287.375 115.09375 289.496094 116.488281 290.972656 L 134.472656 310.242188 L 90.921875 310.242188 L 90.921875 288.941406 L 117.988281 257.988281 C 123.003906 252.242188 122.71875 243.539062 117.324219 238.148438 C 112.265625 233.066406 104.089844 232.492188 98.347656 236.800781 L 85.246094 246.632812 C 85.132812 244.6875 84.847656 242.71875 84.339844 240.753906 C 81.753906 230.679688 73.535156 222.726562 63.414062 220.449219 C 59.351562 219.566406 55.242188 219.566406 51.332031 220.359375 Z M 243.773438 174.582031 L 305.921875 41.308594 L 316.175781 46.082031 L 254.023438 179.355469 Z M 241.539062 198.488281 L 241.761719 186.113281 L 254.378906 192.015625 L 266.992188 197.890625 L 257.648438 206.023438 Z M 241.320312 210.882812 L 248.324219 214.152344 L 241.144531 220.382812 Z M 322.671875 17.160156 C 326.933594 15.589844 331.53125 15.8125 335.640625 17.710938 C 339.75 19.632812 342.863281 23.035156 344.410156 27.300781 C 345.980469 31.542969 345.757812 36.160156 343.859375 40.269531 L 341.449219 45.394531 L 310.71875 31.058594 L 313.105469 25.929688 C 315.003906 21.820312 318.40625 18.707031 322.671875 17.160156 Z M 355.0625 23.414062 C 352.476562 16.320312 347.285156 10.664062 340.433594 7.460938 C 333.585938 4.277344 325.894531 3.945312 318.804688 6.511719 C 311.710938 9.117188 306.035156 14.289062 302.851562 21.136719 L 277.578125 75.332031 L 277.578125 10.464844 C 277.578125 7.351562 275.035156 4.808594 271.921875 4.808594 L 23.050781 4.808594 C 19.933594 4.808594 17.394531 7.351562 17.394531 10.464844 L 17.394531 106.621094 C 17.394531 109.734375 19.933594 112.277344 23.050781 112.277344 C 26.164062 112.277344 28.707031 109.734375 28.707031 106.621094 L 28.707031 16.121094 L 266.265625 16.121094 L 266.265625 99.59375 L 246.976562 140.976562 L 44.304688 191.636719 C 41.785156 192.257812 40.019531 194.511719 40.019531 197.117188 L 40.019531 225.441406 C 39.773438 225.621094 39.53125 225.773438 39.3125 225.949219 C 32.574219 231.34375 28.707031 239.382812 28.707031 248.023438 C 28.707031 256.859375 32.96875 265.210938 40.019531 270.539062 L 40.019531 315.898438 C 40.019531 319.011719 42.558594 321.554688 45.675781 321.554688 L 249.296875 321.554688 C 252.410156 321.554688 254.953125 319.011719 254.953125 315.898438 L 254.953125 223.367188 L 280.980469 200.71875 C 281.574219 200.1875 282.0625 199.546875 282.394531 198.839844 L 310.386719 138.8125 C 311.691406 135.984375 310.476562 132.625 307.648438 131.300781 C 304.820312 129.996094 301.4375 131.210938 300.132812 134.039062 L 274.527344 188.921875 L 264.277344 184.148438 L 326.425781 50.875 L 336.679688 55.648438 L 309.679688 113.535156 C 308.375 116.363281 309.589844 119.722656 312.417969 121.046875 C 315.246094 122.351562 318.628906 121.136719 319.929688 118.308594 L 354.109375 45.042969 C 357.292969 38.214844 357.644531 30.527344 355.0625 23.414062 " fill-opacity="1" fill-rule="nonzero"/></g><g fill="#ffffff" fill-opacity="1"><g transform="translate(211.291615, 371.349967)"><g><path d="M 1.1875 -0.828125 C 1.1875 -1.179688 1.265625 -1.445312 1.421875 -1.625 C 1.585938 -1.800781 1.816406 -1.890625 2.109375 -1.890625 C 2.410156 -1.890625 2.644531 -1.800781 2.8125 -1.625 C 2.988281 -1.445312 3.078125 -1.179688 3.078125 -0.828125 C 3.078125 -0.492188 2.988281 -0.234375 2.8125 -0.046875 C 2.644531 0.140625 2.410156 0.234375 2.109375 0.234375 C 1.847656 0.234375 1.628906 0.148438 1.453125 -0.015625 C 1.273438 -0.179688 1.1875 -0.453125 1.1875 -0.828125 Z M 1.1875 -0.828125 "/></g></g></g></svg>