<svg xmlns="http://www.w3.org/2000/svg" xmlns:xlink="http://www.w3.org/1999/xlink" width="500" zoomAndPan="magnify" viewBox="0 0 375 374.999991" height="500" preserveAspectRatio="xMidYMid meet" version="1.0"><defs><g/><clipPath id="74177e8200"><path d="M 10.335938 14 L 364.335938 14 L 364.335938 322 L 10.335938 322 Z M 10.335938 14 " clip-rule="nonzero"/></clipPath></defs><rect x="-37.5" width="450" fill="#ffffff" y="-37.499999" height="449.999989" fill-opacity="1"/><rect x="-37.5" width="450" fill="#ffffff" y="-37.499999" height="449.999989" fill-opacity="1"/><path fill="#000000" d="M 130.894531 145.394531 C 129.003906 144.761719 127.046875 146.160156 127.046875 148.148438 L 127.046875 203.375 C 127.046875 204.632812 127.855469 205.746094 129.054688 206.128906 C 141.078125 210.0625 153.054688 214.875 164.890625 220.570312 C 166.816406 221.503906 169.046875 220.09375 169.046875 217.949219 L 169.046875 163.070312 C 169.046875 161.96875 168.421875 160.949219 167.425781 160.457031 C 155.367188 154.523438 143.15625 149.503906 130.894531 145.394531 Z M 130.894531 145.394531 " fill-opacity="1" fill-rule="nonzero"/><path fill="#000000" d="M 209.738281 150.839844 C 243.054688 135.445312 278.5625 126.433594 312.675781 124.738281 C 314.230469 124.660156 315.453125 123.394531 315.453125 121.839844 L 315.453125 47.5625 C 315.453125 44.636719 312.988281 42.300781 310.066406 42.476562 C 276.546875 44.503906 241.949219 53.605469 208.480469 69.769531 C 206.730469 70.613281 205.625 72.398438 205.625 74.339844 L 205.625 148.195312 C 205.617188 150.316406 207.8125 151.726562 209.738281 150.839844 Z M 209.738281 150.839844 " fill-opacity="1" fill-rule="nonzero"/><g clip-path="url(#74177e8200)"><path fill="#000000" d="M 351.617188 57.050781 L 350.234375 57.050781 L 350.234375 47.105469 C 350.234375 41.699219 345.828125 37.292969 340.421875 37.292969 L 336.277344 37.292969 L 336.277344 26.777344 C 336.277344 19.761719 330.570312 14.058594 323.558594 14.058594 C 280.039062 14.058594 237.398438 26.042969 200.253906 48.726562 L 187.335938 56.613281 L 174.417969 48.726562 C 137.273438 26.050781 94.636719 14.058594 51.117188 14.058594 C 44.101562 14.058594 38.394531 19.761719 38.394531 26.777344 L 38.394531 37.285156 L 34.25 37.285156 C 28.84375 37.285156 24.4375 41.691406 24.4375 47.097656 L 24.4375 271.441406 C 24.4375 274.277344 25.667969 276.972656 27.804688 278.835938 C 29.941406 280.695312 32.777344 281.546875 35.589844 281.160156 C 80.808594 274.953125 127.671875 279.066406 171.121094 293.050781 C 171.335938 293.183594 171.554688 293.3125 171.773438 293.445312 L 180.707031 298.902344 C 182.75 300.152344 185.046875 300.777344 187.335938 300.777344 C 189.625 300.777344 191.921875 300.152344 193.964844 298.902344 L 202.898438 293.445312 C 239.246094 271.253906 280.96875 259.523438 323.550781 259.523438 C 330.566406 259.523438 336.269531 253.816406 336.269531 246.804688 L 336.269531 42.382812 L 340.414062 42.382812 C 343.015625 42.382812 345.140625 44.503906 345.140625 47.105469 L 345.140625 271.449219 C 345.140625 272.816406 344.550781 274.109375 343.519531 275.011719 C 342.484375 275.90625 341.121094 276.320312 339.765625 276.128906 C 310.609375 272.125 281.171875 272.941406 252.277344 278.550781 C 250.898438 278.820312 249.996094 280.15625 250.265625 281.53125 C 250.496094 282.746094 251.566406 283.589844 252.757812 283.589844 C 252.917969 283.589844 253.085938 283.574219 253.246094 283.542969 C 281.59375 278.042969 310.464844 277.242188 339.078125 281.167969 C 341.882812 281.554688 344.726562 280.710938 346.863281 278.839844 C 349 276.980469 350.226562 274.285156 350.226562 271.449219 L 350.226562 62.136719 L 351.609375 62.136719 C 355.816406 62.136719 359.242188 65.558594 359.242188 69.769531 L 359.242188 289.796875 C 359.242188 294.003906 355.816406 297.425781 351.609375 297.425781 L 217.671875 297.425781 C 214.535156 297.425781 211.542969 298.925781 209.660156 301.425781 L 204.613281 308.132812 C 200.550781 313.535156 194.097656 316.761719 187.335938 316.761719 C 180.578125 316.761719 174.121094 313.535156 170.058594 308.132812 L 165.011719 301.425781 C 163.128906 298.925781 160.136719 297.425781 157.003906 297.425781 L 23.058594 297.425781 C 18.847656 297.425781 15.425781 294.003906 15.425781 289.796875 L 15.425781 69.769531 C 15.425781 68.367188 14.285156 67.226562 12.878906 67.226562 C 11.476562 67.226562 10.335938 68.367188 10.335938 69.769531 L 10.335938 289.796875 C 10.335938 296.808594 16.042969 302.515625 23.058594 302.515625 L 157.003906 302.515625 C 158.542969 302.515625 160.019531 303.25 160.949219 304.484375 L 165.996094 311.191406 C 171.011719 317.867188 178.992188 321.847656 187.34375 321.847656 C 195.695312 321.847656 203.667969 317.867188 208.691406 311.191406 L 213.738281 304.484375 C 214.667969 303.25 216.136719 302.515625 217.683594 302.515625 L 351.617188 302.515625 C 358.628906 302.515625 364.335938 296.808594 364.335938 289.796875 L 364.335938 69.769531 C 364.335938 62.753906 358.628906 57.050781 351.617188 57.050781 Z M 34.898438 276.125 C 33.546875 276.3125 32.179688 275.898438 31.148438 275.003906 C 30.117188 274.109375 29.527344 272.808594 29.527344 271.441406 L 29.527344 47.105469 C 29.527344 44.503906 31.648438 42.382812 34.25 42.382812 L 38.394531 42.382812 L 38.394531 246.808594 C 38.394531 253.824219 44.101562 259.53125 51.117188 259.53125 C 85.695312 259.53125 119.699219 267.261719 150.714844 282.046875 C 112.945312 272.910156 73.335938 270.847656 34.898438 276.125 Z M 331.191406 246.808594 C 331.191406 251.019531 327.765625 254.441406 323.558594 254.441406 C 280.03125 254.441406 237.398438 266.425781 200.253906 289.113281 L 191.320312 294.570312 C 188.863281 296.066406 185.816406 296.066406 183.367188 294.570312 L 174.433594 289.113281 C 137.289062 266.433594 94.648438 254.441406 51.128906 254.441406 C 46.921875 254.441406 43.496094 251.019531 43.496094 246.808594 L 43.496094 26.777344 C 43.496094 22.570312 46.921875 19.144531 51.128906 19.144531 C 93.71875 19.144531 135.4375 30.875 171.78125 53.066406 L 184.800781 61.019531 L 184.800781 250.03125 C 184.800781 251.433594 185.941406 252.574219 187.34375 252.574219 C 188.746094 252.574219 189.886719 251.433594 189.886719 250.03125 L 189.886719 61.019531 L 202.90625 53.066406 C 239.25 30.875 280.976562 19.144531 323.558594 19.144531 C 327.765625 19.144531 331.191406 22.570312 331.191406 26.777344 Z M 331.191406 246.808594 " fill-opacity="1" fill-rule="nonzero"/></g><path fill="#000000" d="M 315.445312 131.128906 C 314.042969 131.128906 312.902344 132.269531 312.902344 133.671875 L 312.902344 228.710938 C 312.902344 230.058594 311.855469 231.167969 310.507812 231.25 C 298.429688 231.945312 286.347656 233.558594 274.296875 236.007812 L 274.296875 187.667969 C 274.296875 187.667969 274.296875 187.660156 274.296875 187.660156 L 274.296875 138.976562 C 274.296875 137.574219 273.152344 136.433594 271.75 136.433594 C 270.347656 136.433594 269.207031 137.574219 269.207031 138.976562 L 269.207031 185.65625 C 251.382812 189.660156 233.589844 195.570312 216.28125 203.242188 C 214.996094 203.8125 214.421875 205.316406 214.988281 206.601562 C 215.410156 207.554688 216.339844 208.113281 217.3125 208.113281 C 217.65625 208.113281 218.011719 208.042969 218.347656 207.894531 C 234.984375 200.519531 252.082031 194.796875 269.207031 190.875 L 269.207031 201.0625 C 267.25 199.195312 264.402344 198.292969 261.507812 199.042969 C 254.878906 200.75 248.257812 202.726562 241.644531 204.972656 C 225.339844 210.511719 213.125 223.515625 208.15625 239.375 L 208.15625 160.441406 C 208.15625 159.039062 207.011719 157.898438 205.609375 157.898438 C 204.207031 157.898438 203.066406 159.039062 203.066406 160.441406 L 203.066406 254.425781 C 203.066406 257.042969 204.382812 259.457031 206.59375 260.867188 C 207.84375 261.667969 209.257812 262.066406 210.683594 262.066406 C 211.765625 262.066406 212.859375 261.832031 213.882812 261.363281 C 245.65625 246.636719 278.257812 238.210938 310.792969 236.328125 C 314.820312 236.097656 317.976562 232.753906 317.976562 228.71875 L 317.976562 133.671875 C 317.988281 132.261719 316.855469 131.128906 315.445312 131.128906 Z M 315.445312 131.128906 " fill-opacity="1" fill-rule="nonzero"/><path fill="#000000" d="M 187.335938 262.132812 C 185.933594 262.132812 184.792969 263.273438 184.792969 264.675781 L 184.792969 283.347656 C 184.792969 284.75 185.933594 285.890625 187.335938 285.890625 C 188.738281 285.890625 189.878906 284.75 189.878906 283.347656 L 189.878906 264.675781 C 189.878906 263.273438 188.738281 262.132812 187.335938 262.132812 Z M 187.335938 262.132812 " fill-opacity="1" fill-rule="nonzero"/><path fill="#000000" d="M 167.324219 67.480469 C 133.835938 51.160156 99.339844 41.75 64.796875 39.511719 C 62.710938 39.371094 60.625 40.121094 59.097656 41.554688 C 57.5625 42.992188 56.683594 45.027344 56.683594 47.128906 L 56.683594 228.269531 C 56.683594 232.289062 59.824219 235.632812 63.835938 235.878906 C 96.378906 237.898438 128.988281 246.453125 160.753906 261.3125 C 161.785156 261.789062 162.882812 262.03125 163.972656 262.03125 C 165.398438 262.03125 166.808594 261.628906 168.058594 260.832031 C 170.277344 259.421875 171.597656 257.015625 171.597656 254.382812 L 171.597656 230.398438 C 171.597656 228.996094 170.457031 227.855469 169.054688 227.855469 C 167.652344 227.855469 166.511719 228.996094 166.511719 230.398438 L 166.511719 254.382812 C 166.511719 255.269531 166.082031 256.054688 165.324219 256.535156 C 164.585938 257.007812 163.703125 257.066406 162.90625 256.695312 C 130.558594 241.570312 97.332031 232.855469 64.140625 230.796875 C 62.8125 230.71875 61.765625 229.605469 61.765625 228.269531 L 61.765625 195.875 C 79.988281 196.847656 98.515625 199.945312 116.894531 205.082031 C 117.125 205.148438 117.351562 205.175781 117.582031 205.175781 C 118.695312 205.175781 119.71875 204.441406 120.03125 203.316406 C 120.410156 201.964844 119.625 200.5625 118.265625 200.183594 C 99.445312 194.914062 80.453125 191.753906 61.765625 190.777344 L 61.765625 134.53125 C 80.679688 135.539062 99.914062 138.832031 118.972656 144.335938 C 119.203125 144.398438 119.445312 144.4375 119.675781 144.4375 C 120.78125 144.4375 121.800781 143.710938 122.117188 142.597656 C 122.511719 141.246094 121.726562 139.835938 120.382812 139.449219 C 114.878906 137.859375 109.355469 136.457031 103.832031 135.234375 L 103.832031 50.320312 C 124.46875 54.984375 144.957031 62.246094 165.09375 72.058594 C 165.949219 72.472656 166.503906 73.375 166.503906 74.339844 L 166.503906 151.972656 C 166.503906 153.375 167.644531 154.515625 169.046875 154.515625 C 170.449219 154.515625 171.589844 153.375 171.589844 151.972656 L 171.589844 74.332031 C 171.597656 71.433594 169.917969 68.742188 167.324219 67.480469 Z M 98.75 81.703125 C 93.71875 68.796875 81.71875 59.289062 67.164062 58.082031 C 67.027344 58.066406 66.890625 58.058594 66.742188 58.046875 C 64.859375 57.890625 63.109375 58.503906 61.765625 59.601562 L 61.765625 47.136719 C 61.765625 46.421875 62.054688 45.761719 62.570312 45.273438 C 63.085938 44.789062 63.761719 44.546875 64.460938 44.589844 C 75.902344 45.332031 87.34375 46.882812 98.742188 49.222656 L 98.742188 81.703125 Z M 98.75 81.703125 " fill-opacity="1" fill-rule="nonzero"/><g fill="#ffffff" fill-opacity="1"><g transform="translate(211.291615, 371.349967)"><g><path d="M 1.1875 -0.828125 C 1.1875 -1.179688 1.265625 -1.445312 1.421875 -1.625 C 1.585938 -1.800781 1.816406 -1.890625 2.109375 -1.890625 C 2.410156 -1.890625 2.644531 -1.800781 2.8125 -1.625 C 2.988281 -1.445312 3.078125 -1.179688 3.078125 -0.828125 C 3.078125 -0.492188 2.988281 -0.234375 2.8125 -0.046875 C 2.644531 0.140625 2.410156 0.234375 2.109375 0.234375 C 1.847656 0.234375 1.628906 0.148438 1.453125 -0.015625 C 1.273438 -0.179688 1.1875 -0.453125 1.1875 -0.828125 Z M 1.1875 -0.828125 "/></g></g></g></svg>