<svg xmlns="http://www.w3.org/2000/svg" xmlns:xlink="http://www.w3.org/1999/xlink" width="500" zoomAndPan="magnify" viewBox="0 0 375 374.999991" height="500" preserveAspectRatio="xMidYMid meet" version="1.0"><defs><g/><clipPath id="6c850b3f16"><path d="M 25.269531 20.265625 L 350 20.265625 L 350 322.515625 L 25.269531 322.515625 Z M 25.269531 20.265625 " clip-rule="nonzero"/></clipPath></defs><g clip-path="url(#6c850b3f16)"><path fill="#000000" d="M 261.867188 43.835938 C 263.921875 45.664062 264.074219 45.992188 263.109375 48.25 C 262.386719 49.941406 261.507812 51.574219 260.597656 53.175781 C 257.210938 59.125 253.792969 65.058594 250.367188 70.984375 C 249.09375 73.179688 247.804688 75.367188 246.457031 77.519531 C 223.75 113.773438 200.710938 149.824219 179.550781 187.023438 C 175.09375 194.859375 171.121094 202.929688 167.335938 211.097656 C 162.058594 222.484375 156.339844 233.636719 150.074219 244.515625 C 149.039062 246.308594 148.214844 248.226562 147.246094 250.0625 C 144.984375 254.34375 142.84375 258.703125 140.351562 262.847656 C 139.105469 264.917969 137.222656 266.613281 135.582031 268.433594 C 134.9375 269.148438 134.113281 269.390625 133.082031 269.277344 C 126.898438 268.601562 120.695312 268.085938 114.523438 267.332031 C 111.328125 266.9375 108.179688 266.152344 105.007812 265.558594 C 101.527344 264.902344 100.527344 261.039062 101.492188 258.5 C 102.390625 256.144531 103.101562 253.695312 103.648438 251.234375 C 107.296875 234.824219 112.386719 218.875 118.332031 203.15625 C 122.683594 191.648438 126.75 180.019531 130.582031 168.328125 C 134.878906 155.210938 140.285156 142.554688 145.628906 129.863281 C 150.609375 118.019531 155.464844 106.117188 161.316406 94.660156 C 163.082031 91.199219 163.984375 87.453125 164.867188 83.710938 C 166.5 76.808594 168.429688 70.023438 171.632812 63.636719 C 172.761719 61.382812 173.460938 58.90625 174.296875 56.511719 C 175.589844 52.8125 176.800781 49.082031 178.109375 45.386719 C 178.671875 43.796875 179.371094 42.253906 180.054688 40.707031 C 181.570312 37.261719 183.191406 33.859375 184.621094 30.378906 C 185.339844 28.636719 186.582031 28.023438 188.304688 27.730469 C 191.984375 27.101562 195.671875 27.414062 199.324219 27.703125 C 207.375 28.335938 215.4375 29 223.445312 30.019531 C 235.789062 31.589844 247.738281 34.777344 259.191406 39.703125 C 259.332031 39.765625 259.472656 39.835938 259.609375 39.898438 C 261.988281 41.019531 261.988281 41.015625 261.867188 43.835938 Z M 191.882812 34.625 C 190.710938 40.070312 188.253906 45.136719 186.1875 50.347656 C 185.363281 52.417969 184.613281 54.519531 183.847656 56.613281 C 180.476562 65.785156 177.113281 74.957031 173.75 84.132812 C 172.164062 88.464844 170.785156 92.886719 168.964844 97.117188 C 163.554688 109.695312 157.964844 122.199219 152.457031 134.734375 C 146.886719 147.417969 141.625 160.214844 137.289062 173.394531 C 134.042969 183.253906 130.378906 192.980469 126.746094 202.707031 C 122.675781 213.589844 118.421875 224.402344 114.277344 235.253906 C 113.816406 236.46875 113.382812 237.738281 113.226562 239.019531 C 112.515625 244.84375 111.195312 250.523438 109.460938 256.121094 C 109.265625 256.757812 109.117188 257.417969 108.898438 258.246094 C 116.988281 259.507812 124.730469 261.796875 132.8125 262.292969 C 133.609375 260.707031 134.335938 259.265625 135.054688 257.824219 C 137.765625 252.386719 140.503906 246.964844 143.179688 241.507812 C 145.144531 237.507812 147.214844 233.539062 148.914062 229.425781 C 160.972656 200.265625 175.429688 172.351562 192.5 145.820312 C 201.378906 132.023438 209.734375 117.945312 217.371094 103.433594 C 220.816406 96.886719 224.683594 90.597656 229.070312 84.636719 C 232.082031 80.546875 234.960938 76.351562 238.136719 72.394531 C 243.890625 65.222656 248.710938 57.457031 253.402344 49.589844 C 253.78125 48.949219 254.109375 48.28125 254.554688 47.449219 C 253.789062 47.230469 253.226562 47.042969 252.648438 46.90625 C 238.964844 43.59375 225.28125 40.277344 211.585938 36.996094 C 209.871094 36.585938 208.117188 36.273438 206.363281 36.082031 C 201.640625 35.558594 196.90625 35.125 191.882812 34.625 Z M 176.402344 53.773438 C 178.976562 50.519531 181.351562 43.898438 180.953125 41.445312 C 179.4375 45.554688 177.921875 49.664062 176.402344 53.773438 Z M 106.683594 256.128906 C 106.820312 256.171875 106.957031 256.214844 107.09375 256.257812 C 107.421875 255.261719 107.765625 254.273438 108.070312 253.277344 C 108.351562 252.359375 108.59375 251.429688 108.851562 250.503906 C 108.710938 250.46875 108.570312 250.433594 108.425781 250.394531 C 107.847656 252.308594 107.265625 254.21875 106.683594 256.128906 Z M 346.308594 86.015625 C 348.667969 85.632812 349.472656 86.308594 349.089844 88.972656 C 348.875 90.457031 348.515625 92.058594 347.738281 93.308594 C 344.246094 98.921875 340.710938 104.515625 336.9375 109.945312 C 333.117188 115.4375 329.164062 120.851562 324.980469 126.070312 C 315.882812 137.414062 306.71875 148.707031 296.714844 159.289062 C 293.660156 162.523438 290.953125 166.105469 288.261719 169.660156 C 283.105469 176.46875 278.167969 183.441406 272.972656 190.21875 C 268.386719 196.199219 263.742188 202.152344 258.828125 207.859375 C 247.933594 220.519531 237.410156 233.464844 227.226562 246.710938 C 220.996094 254.816406 214.195312 262.484375 207.558594 270.273438 C 204.21875 274.195312 200.683594 277.953125 197.238281 281.789062 C 196.929688 282.132812 196.566406 282.457031 196.371094 282.859375 C 195.269531 285.105469 193.355469 285.34375 191.269531 284.832031 C 189.785156 284.46875 188.316406 283.933594 186.929688 283.285156 C 183.289062 281.578125 179.480469 280.414062 175.632812 279.292969 C 172.171875 278.285156 168.777344 277.015625 165.433594 275.667969 C 164.191406 275.167969 163.027344 274.257812 162.074219 273.292969 C 160.171875 271.367188 159.832031 268.660156 161.5 266.554688 C 163.507812 264.019531 164.511719 261.046875 165.886719 258.226562 C 168.140625 253.59375 170.277344 248.890625 172.769531 244.390625 C 182.566406 226.691406 192.351562 208.980469 202.386719 191.421875 C 215.414062 168.628906 229.707031 146.632812 244.984375 125.28125 C 246.59375 123.027344 248.011719 120.640625 249.621094 118.386719 C 255.160156 110.628906 260.695312 102.867188 266.324219 95.175781 C 273.460938 85.429688 280.699219 75.757812 287.84375 66.019531 C 288.648438 64.925781 289.246094 63.644531 289.734375 62.371094 C 290.699219 59.871094 292.335938 58.675781 295.007812 58.804688 C 295.695312 58.839844 296.390625 58.9375 297.058594 59.105469 C 303.582031 60.730469 309.875 62.902344 315.710938 66.34375 C 322.46875 70.324219 329.34375 74.109375 336.144531 78.027344 C 338.140625 79.175781 340.140625 80.363281 341.960938 81.761719 C 343.457031 82.914062 344.6875 84.40625 346.308594 86.015625 Z M 293.546875 67.640625 C 291.773438 69.382812 290.164062 71.09375 289.101562 73.296875 C 288.304688 74.953125 287.285156 76.507812 286.332031 78.089844 C 281.929688 85.410156 277.589844 92.765625 273.082031 100.019531 C 270.363281 104.390625 267.578125 108.753906 264.460938 112.839844 C 258.835938 120.210938 253.917969 128.003906 249.683594 136.230469 C 246.214844 142.960938 242.082031 149.230469 237.484375 155.238281 C 234.589844 159.019531 231.832031 162.945312 229.417969 167.042969 C 217.933594 186.53125 206.523438 206.066406 195.21875 225.660156 C 188.375 237.519531 181.746094 249.503906 175.070312 261.460938 C 173.84375 263.652344 172.855469 265.976562 171.660156 268.4375 C 172.703125 268.902344 173.460938 269.230469 174.210938 269.578125 C 178.402344 271.507812 182.59375 273.433594 186.773438 275.378906 C 187.542969 275.734375 188.261719 276.1875 189.019531 276.566406 C 190.699219 277.398438 190.707031 277.347656 191.878906 275.960938 C 198.386719 268.261719 204.714844 260.402344 211.488281 252.945312 C 220.195312 243.359375 228.179688 233.214844 236.003906 222.917969 C 241.167969 216.117188 246.644531 209.554688 251.960938 202.871094 C 256.890625 196.667969 261.816406 190.460938 266.699219 184.21875 C 274.761719 173.917969 282.664062 163.492188 290.867188 153.304688 C 296.847656 145.871094 303.324219 138.84375 309.363281 131.457031 C 319.640625 118.886719 329.75 106.175781 339.921875 93.519531 C 340.285156 93.0625 340.578125 92.550781 340.949219 92 C 326.164062 81.816406 310.226562 74.242188 293.546875 67.640625 Z M 178.160156 252.324219 C 178.015625 252.234375 177.871094 252.144531 177.726562 252.054688 C 177.183594 253.074219 176.644531 254.09375 176.105469 255.113281 C 176.25 255.191406 176.394531 255.273438 176.539062 255.355469 C 177.078125 254.34375 177.617188 253.335938 178.160156 252.324219 Z M 30.507812 252.820312 C 29.59375 251.636719 29.5 250.09375 29.601562 248.554688 C 29.921875 243.71875 30.144531 238.871094 30.703125 234.0625 C 31.96875 223.210938 33.496094 212.394531 34.746094 201.542969 C 35.335938 196.429688 35.609375 191.273438 35.894531 186.128906 C 36.675781 172.230469 39.429688 158.699219 42.949219 145.269531 C 48.550781 123.894531 55.140625 102.832031 62.324219 81.953125 C 66.003906 71.261719 70.191406 60.746094 73.921875 50.074219 C 76.6875 42.164062 79.09375 34.125 81.640625 26.140625 C 82.332031 23.972656 83.320312 22.0625 85.605469 21.199219 C 86.085938 21.019531 86.710938 20.753906 87.117188 20.914062 C 88.519531 21.464844 89.847656 21.015625 91.214844 20.886719 C 93.96875 20.628906 96.730469 20.265625 99.488281 20.265625 C 112.128906 20.277344 124.71875 20.957031 137.15625 23.464844 C 138.492188 23.734375 139.925781 23.515625 141.265625 23.769531 C 143.605469 24.210938 145.933594 24.757812 148.21875 25.414062 C 151.480469 26.351562 152.070312 27.21875 151.234375 30.414062 C 150.109375 34.71875 149.09375 39.054688 147.257812 43.164062 C 143.398438 51.804688 139.675781 60.503906 135.976562 69.214844 C 134.773438 72.039062 133.691406 74.933594 132.785156 77.867188 C 130.992188 83.6875 128.816406 89.347656 126.269531 94.882812 C 117.355469 114.253906 109.289062 133.984375 102.28125 154.125 C 97.882812 166.765625 94.003906 179.589844 89.6875 192.261719 C 86.367188 202.019531 82.703125 211.660156 79.242188 221.371094 C 77.769531 225.503906 76.398438 229.667969 75.035156 233.835938 C 74.699219 234.851562 74.578125 235.933594 74.355469 236.984375 C 73.308594 241.949219 72.398438 246.949219 71.164062 251.867188 C 70.15625 255.894531 67.933594 257.050781 63.777344 256.695312 C 58.957031 256.28125 54.109375 256.152344 49.277344 255.832031 C 47.132812 255.691406 44.984375 255.484375 42.871094 255.125 C 38.785156 254.433594 34.71875 253.613281 30.507812 252.820312 Z M 88.777344 26.003906 C 87.730469 30.382812 86.816406 34.265625 85.875 38.148438 C 82.316406 52.8125 78.261719 67.332031 72.460938 81.300781 C 69.207031 89.128906 66.515625 97.140625 64.152344 105.273438 C 61.039062 115.984375 57.933594 126.699219 54.761719 137.390625 C 52.660156 144.46875 50.464844 151.519531 48.277344 158.570312 C 43.882812 172.71875 40.96875 187.179688 39.054688 201.847656 C 37.9375 210.390625 37.058594 218.964844 36.035156 227.519531 C 35.367188 233.09375 34.597656 238.65625 33.953125 244.234375 C 33.789062 245.640625 33.929688 247.082031 33.929688 248.394531 C 37.058594 248.859375 40 249.375 42.964844 249.714844 C 45.246094 249.976562 47.566406 250.230469 49.847656 250.101562 C 54.03125 249.863281 58.148438 250.058594 62.234375 250.972656 C 62.96875 251.132812 63.71875 251.207031 64.390625 251.308594 C 64.648438 250.972656 64.839844 250.8125 64.914062 250.609375 C 66.558594 245.972656 68.203125 241.332031 69.816406 236.683594 C 70.015625 236.109375 70.09375 235.480469 70.144531 234.871094 C 70.660156 228.386719 72.210938 222.132812 74.300781 215.988281 C 74.871094 214.316406 75.375 212.613281 75.738281 210.886719 C 77.726562 201.382812 80.535156 192.113281 83.648438 182.921875 C 86.386719 174.835938 89.105469 166.734375 91.585938 158.566406 C 94.144531 150.15625 97.257812 141.988281 100.789062 133.9375 C 104.648438 125.136719 108.199219 116.195312 111.804688 107.28125 C 115.261719 98.722656 118.464844 90.0625 122.039062 81.554688 C 129.011719 64.960938 136.167969 48.441406 143.242188 31.890625 C 143.417969 31.488281 143.515625 31.054688 143.722656 30.414062 C 125.546875 26.042969 107.175781 26.28125 88.777344 26.003906 Z M 54.164062 119.15625 C 54.015625 119.078125 53.867188 119 53.71875 118.921875 C 53.519531 119.5 53.292969 120.066406 53.128906 120.652344 C 50.796875 129.015625 48.339844 137.347656 46.1875 145.753906 C 44.089844 153.941406 42.28125 162.203125 40.417969 170.449219 C 40.015625 172.230469 39.933594 174.082031 39.703125 175.902344 C 39.910156 175.9375 40.113281 175.972656 40.320312 176.007812 C 43.691406 156.753906 48.566406 137.863281 54.164062 119.15625 Z M 62.242188 267.4375 C 63.195312 268.394531 63.113281 269.691406 62.945312 270.871094 C 62.457031 274.289062 61.941406 277.714844 61.203125 281.089844 C 60.332031 285.066406 59.214844 288.992188 58.199219 292.9375 C 57.484375 295.71875 55.78125 296.875 52.960938 297.648438 C 46.71875 299.355469 40.5 299.121094 34.292969 297.957031 C 33.6875 298.976562 33.15625 299.867188 32.628906 300.753906 C 31.304688 300.398438 30.699219 299.570312 30.445312 298.609375 C 30.066406 297.1875 29.238281 296.351562 27.855469 295.996094 C 27.78125 295.976562 27.710938 295.9375 27.644531 295.898438 C 26.660156 295.359375 25.75 294.714844 25.945312 293.429688 C 26.125 292.25 27.070312 291.875 28.125 291.707031 C 28.34375 291.671875 28.554688 291.5625 28.949219 291.421875 C 28.996094 290.808594 29.042969 290.144531 29.097656 289.476562 C 29.539062 284.191406 29.976562 278.90625 30.414062 273.621094 C 30.464844 273.007812 30.597656 272.386719 30.535156 271.785156 C 30.339844 269.941406 31.28125 268.789062 32.859375 268.238281 C 34.511719 267.660156 36.246094 267.042969 37.96875 266.980469 C 45.199219 266.707031 52.425781 266.890625 59.628906 267.722656 C 60.390625 267.808594 61.1875 267.5625 62.242188 267.4375 Z M 36.027344 272.105469 C 35.511719 278.890625 35.027344 285.277344 34.539062 291.703125 C 34.964844 291.84375 35.242188 292 35.53125 292.019531 C 40.589844 292.332031 45.652344 292.578125 50.691406 291.742188 C 52.695312 291.40625 52.691406 291.359375 53.128906 289.316406 C 54.230469 284.21875 55.363281 279.128906 56.472656 274.03125 C 56.578125 273.546875 56.605469 273.046875 56.671875 272.535156 C 56.289062 272.453125 56.070312 272.371094 55.847656 272.363281 C 50.632812 272.210938 45.421875 272.046875 40.207031 271.9375 C 38.847656 271.90625 37.484375 272.042969 36.027344 272.105469 Z M 165.265625 322.539062 C 163.261719 322.035156 161.171875 321.746094 159.269531 320.992188 C 153.84375 318.84375 148.488281 316.515625 143.117188 314.226562 C 142.488281 313.960938 141.871094 313.589844 141.363281 313.136719 C 139.703125 311.648438 140.1875 309.242188 142.382812 308.96875 C 144.382812 308.71875 145.027344 307.570312 145.722656 306.058594 C 147.679688 301.800781 149.710938 297.578125 151.742188 293.359375 C 152.242188 292.324219 152.933594 291.378906 153.40625 290.332031 C 153.695312 289.683594 153.867188 288.921875 153.863281 288.214844 C 153.847656 286.449219 154.527344 285.617188 156.335938 285.761719 C 157.546875 285.855469 158.828125 286.058594 159.90625 286.570312 C 164.28125 288.628906 168.625 290.753906 172.898438 293.011719 C 174.929688 294.082031 176.769531 295.433594 179.101562 295.945312 C 180.980469 296.359375 181.628906 297.738281 181.21875 299.648438 C 181.140625 300.023438 181.039062 300.402344 180.886719 300.75 C 177.890625 307.59375 174.5625 314.246094 169.84375 320.109375 C 168.667969 321.574219 167.296875 322.550781 165.265625 322.539062 Z M 149.308594 310.054688 C 154.398438 312.25 159.003906 314.859375 164.054688 316.496094 C 165.214844 316.871094 165.984375 316.582031 166.542969 315.550781 C 166.800781 315.078125 167.078125 314.617188 167.332031 314.144531 C 169.597656 309.960938 171.863281 305.773438 174.117188 301.582031 C 174.390625 301.074219 174.589844 300.527344 174.769531 300.121094 C 169.386719 297.695312 164.175781 295.347656 158.90625 292.972656 C 158.601562 293.558594 158.328125 294.019531 158.113281 294.5 C 156.253906 298.640625 154.230469 302.671875 151.347656 306.238281 C 150.507812 307.277344 150.054688 308.625 149.308594 310.054688 Z M 110.46875 307.125 C 108.554688 306.746094 105.230469 306.15625 101.941406 305.414062 C 99.46875 304.855469 97.046875 304.089844 94.589844 303.457031 C 93.203125 303.09375 91.882812 302.496094 90.328125 302.917969 C 89.300781 303.195312 88.46875 302.472656 88.3125 301.199219 C 88.132812 299.769531 88.023438 298.253906 88.292969 296.855469 C 89.339844 291.390625 91.234375 286.199219 93.664062 281.195312 C 94.261719 279.964844 94.597656 278.597656 95.269531 277.414062 C 96.289062 275.617188 97.851562 274.332031 99.972656 274.175781 C 101.328125 274.074219 102.742188 274.257812 104.082031 274.539062 C 110.320312 275.863281 116.542969 277.265625 122.769531 278.644531 C 125.820312 279.324219 126.695312 281.113281 125.507812 284.148438 C 123.09375 290.304688 120.65625 296.449219 118.304688 302.625 C 116.785156 306.613281 116.144531 307.132812 110.46875 307.125 Z M 99.234375 280.289062 C 97.355469 285.75 95.5625 290.949219 93.679688 296.410156 C 100.179688 298.925781 106.636719 300.636719 113.292969 302.128906 C 114.167969 298.945312 114.902344 296.046875 115.773438 293.191406 C 116.632812 290.367188 117.628906 287.585938 118.515625 284.9375 C 114.230469 283.707031 110.203125 282.460938 106.121094 281.421875 C 103.984375 280.875 101.753906 280.691406 99.234375 280.289062 Z M 191.882812 34.625 C 196.90625 35.125 201.640625 35.558594 206.363281 36.082031 C 208.117188 36.273438 209.871094 36.585938 211.585938 36.996094 C 225.28125 40.277344 238.964844 43.59375 252.648438 46.90625 C 253.226562 47.042969 253.789062 47.230469 254.554688 47.449219 C 254.109375 48.28125 253.78125 48.949219 253.402344 49.589844 C 248.710938 57.457031 243.890625 65.222656 238.136719 72.394531 C 234.960938 76.351562 232.082031 80.546875 229.070312 84.636719 C 224.683594 90.597656 220.816406 96.886719 217.371094 103.433594 C 209.734375 117.945312 201.378906 132.023438 192.5 145.820312 C 175.429688 172.351562 160.972656 200.265625 148.914062 229.425781 C 147.214844 233.539062 145.144531 237.507812 143.179688 241.507812 C 140.503906 246.964844 137.765625 252.386719 135.054688 257.824219 C 134.335938 259.265625 133.609375 260.707031 132.8125 262.292969 C 124.730469 261.796875 116.988281 259.507812 108.898438 258.246094 C 109.117188 257.417969 109.265625 256.757812 109.460938 256.117188 C 111.195312 250.523438 112.515625 244.84375 113.226562 239.019531 C 113.382812 237.738281 113.816406 236.46875 114.277344 235.253906 C 118.421875 224.402344 122.675781 213.589844 126.746094 202.707031 C 130.378906 192.980469 134.042969 183.253906 137.289062 173.394531 C 141.625 160.214844 146.886719 147.417969 152.457031 134.734375 C 157.964844 122.199219 163.554688 109.695312 168.964844 97.117188 C 170.785156 92.886719 172.164062 88.464844 173.75 84.132812 C 177.113281 74.957031 180.476562 65.785156 183.847656 56.613281 C 184.613281 54.519531 185.363281 52.417969 186.1875 50.347656 C 188.253906 45.136719 190.710938 40.070312 191.882812 34.625 Z M 180.953125 41.445312 C 179.4375 45.554688 177.921875 49.664062 176.402344 53.773438 C 178.976562 50.519531 181.351562 43.898438 180.953125 41.445312 Z M 107.09375 256.257812 C 107.421875 255.261719 107.765625 254.273438 108.070312 253.277344 C 108.351562 252.359375 108.59375 251.429688 108.851562 250.503906 C 108.710938 250.46875 108.570312 250.433594 108.425781 250.394531 C 107.847656 252.308594 107.265625 254.21875 106.683594 256.128906 C 106.820312 256.171875 106.957031 256.214844 107.09375 256.257812 Z M 289.101562 73.296875 C 288.304688 74.953125 287.285156 76.507812 286.332031 78.089844 C 281.929688 85.410156 277.589844 92.765625 273.082031 100.019531 C 270.363281 104.390625 267.578125 108.753906 264.460938 112.839844 C 258.835938 120.210938 253.917969 128.003906 249.683594 136.230469 C 246.214844 142.960938 242.082031 149.230469 237.484375 155.238281 C 234.589844 159.019531 231.832031 162.945312 229.417969 167.042969 C 217.933594 186.53125 206.523438 206.066406 195.21875 225.660156 C 188.375 237.519531 181.746094 249.503906 175.070312 261.460938 C 173.84375 263.652344 172.855469 265.976562 171.660156 268.4375 C 172.703125 268.902344 173.460938 269.230469 174.210938 269.578125 C 178.402344 271.507812 182.59375 273.433594 186.773438 275.378906 C 187.542969 275.734375 188.261719 276.1875 189.019531 276.566406 C 190.699219 277.398438 190.707031 277.347656 191.878906 275.960938 C 198.386719 268.261719 204.714844 260.402344 211.488281 252.945312 C 220.195312 243.359375 228.179688 233.214844 236.003906 222.917969 C 241.167969 216.117188 246.644531 209.554688 251.960938 202.871094 C 256.890625 196.667969 261.816406 190.460938 266.699219 184.21875 C 274.761719 173.917969 282.664062 163.492188 290.867188 153.304688 C 296.847656 145.871094 303.324219 138.84375 309.363281 131.457031 C 319.640625 118.886719 329.75 106.175781 339.921875 93.519531 C 340.285156 93.0625 340.578125 92.550781 340.949219 92 C 326.164062 81.816406 310.226562 74.242188 293.546875 67.640625 C 291.773438 69.382812 290.164062 71.09375 289.101562 73.296875 Z M 177.726562 252.054688 C 177.183594 253.074219 176.644531 254.09375 176.105469 255.113281 C 176.25 255.191406 176.394531 255.273438 176.539062 255.355469 C 177.078125 254.34375 177.617188 253.335938 178.160156 252.324219 C 178.015625 252.234375 177.871094 252.144531 177.726562 252.054688 Z M 85.875 38.148438 C 82.316406 52.8125 78.261719 67.332031 72.460938 81.300781 C 69.207031 89.128906 66.515625 97.140625 64.152344 105.273438 C 61.039062 115.984375 57.933594 126.699219 54.761719 137.390625 C 52.660156 144.46875 50.464844 151.519531 48.277344 158.570312 C 43.882812 172.71875 40.96875 187.179688 39.054688 201.847656 C 37.9375 210.390625 37.058594 218.964844 36.035156 227.519531 C 35.367188 233.09375 34.597656 238.65625 33.953125 244.234375 C 33.789062 245.640625 33.929688 247.082031 33.929688 248.394531 C 37.058594 248.859375 40 249.375 42.964844 249.714844 C 45.246094 249.976562 47.566406 250.230469 49.847656 250.101562 C 54.03125 249.863281 58.148438 250.058594 62.234375 250.972656 C 62.96875 251.132812 63.71875 251.207031 64.390625 251.308594 C 64.648438 250.972656 64.839844 250.8125 64.914062 250.609375 C 66.558594 245.972656 68.203125 241.332031 69.816406 236.683594 C 70.015625 236.109375 70.09375 235.480469 70.144531 234.871094 C 70.660156 228.386719 72.210938 222.132812 74.300781 215.988281 C 74.871094 214.316406 75.375 212.613281 75.738281 210.886719 C 77.726562 201.382812 80.535156 192.113281 83.648438 182.921875 C 86.386719 174.835938 89.105469 166.734375 91.585938 158.566406 C 94.144531 150.15625 97.257812 141.988281 100.789062 133.9375 C 104.648438 125.136719 108.199219 116.195312 111.804688 107.28125 C 115.261719 98.722656 118.464844 90.0625 122.039062 81.554688 C 129.011719 64.960938 136.167969 48.441406 143.242188 31.890625 C 143.417969 31.488281 143.515625 31.054688 143.722656 30.414062 C 125.546875 26.042969 107.175781 26.28125 88.777344 26.003906 C 87.734375 30.382812 86.816406 34.265625 85.875 38.148438 Z M 53.71875 118.921875 C 53.519531 119.5 53.292969 120.066406 53.128906 120.652344 C 50.796875 129.015625 48.339844 137.347656 46.1875 145.753906 C 44.089844 153.941406 42.28125 162.203125 40.417969 170.449219 C 40.015625 172.230469 39.933594 174.082031 39.703125 175.902344 C 39.910156 175.9375 40.113281 175.972656 40.320312 176.007812 C 43.691406 156.753906 48.566406 137.863281 54.164062 119.15625 C 54.015625 119.078125 53.867188 119 53.71875 118.921875 Z M 34.539062 291.703125 C 34.964844 291.84375 35.242188 292 35.53125 292.019531 C 40.589844 292.332031 45.652344 292.578125 50.691406 291.742188 C 52.695312 291.40625 52.691406 291.359375 53.128906 289.316406 C 54.230469 284.21875 55.363281 279.128906 56.472656 274.03125 C 56.578125 273.546875 56.605469 273.046875 56.671875 272.535156 C 56.289062 272.453125 56.070312 272.371094 55.847656 272.363281 C 50.632812 272.210938 45.421875 272.046875 40.207031 271.9375 C 38.847656 271.90625 37.484375 272.042969 36.027344 272.105469 C 35.511719 278.890625 35.027344 285.277344 34.539062 291.703125 Z M 164.054688 316.496094 C 165.214844 316.871094 165.984375 316.582031 166.542969 315.550781 C 166.800781 315.078125 167.078125 314.617188 167.332031 314.144531 C 169.597656 309.960938 171.863281 305.773438 174.117188 301.582031 C 174.390625 301.074219 174.589844 300.527344 174.769531 300.121094 C 169.386719 297.695312 164.175781 295.347656 158.90625 292.972656 C 158.601562 293.558594 158.328125 294.019531 158.113281 294.5 C 156.253906 298.640625 154.230469 302.671875 151.347656 306.238281 C 150.507812 307.277344 150.054688 308.625 149.308594 310.054688 C 154.398438 312.25 159.003906 314.859375 164.054688 316.496094 Z M 93.679688 296.410156 C 100.179688 298.925781 106.636719 300.636719 113.292969 302.128906 C 114.167969 298.945312 114.902344 296.046875 115.773438 293.191406 C 116.632812 290.367188 117.628906 287.585938 118.515625 284.9375 C 114.230469 283.707031 110.203125 282.460938 106.121094 281.421875 C 103.984375 280.875 101.753906 280.691406 99.234375 280.289062 C 97.355469 285.75 95.5625 290.949219 93.679688 296.410156 Z M 93.679688 296.410156 " fill-opacity="1" fill-rule="nonzero"/><path fill="#000000" d="M 261.867188 43.835938 C 263.921875 45.664062 264.074219 45.992188 263.109375 48.25 C 262.386719 49.941406 261.507812 51.574219 260.597656 53.175781 C 257.210938 59.125 253.792969 65.058594 250.367188 70.984375 C 249.09375 73.179688 247.804688 75.367188 246.457031 77.519531 C 223.75 113.773438 200.710938 149.824219 179.550781 187.023438 C 175.09375 194.859375 171.121094 202.929688 167.335938 211.097656 C 162.058594 222.484375 156.339844 233.636719 150.074219 244.515625 C 149.039062 246.308594 148.214844 248.226562 147.246094 250.0625 C 144.984375 254.34375 142.84375 258.703125 140.351562 262.847656 C 139.105469 264.917969 137.222656 266.613281 135.582031 268.433594 C 134.9375 269.148438 134.113281 269.390625 133.082031 269.277344 C 126.898438 268.601562 120.695312 268.085938 114.523438 267.332031 C 111.328125 266.9375 108.179688 266.152344 105.007812 265.558594 C 101.527344 264.902344 100.527344 261.039062 101.492188 258.5 C 102.390625 256.144531 103.101562 253.695312 103.648438 251.234375 C 107.296875 234.824219 112.386719 218.875 118.332031 203.15625 C 122.683594 191.648438 126.75 180.019531 130.582031 168.328125 C 134.878906 155.210938 140.285156 142.554688 145.628906 129.863281 C 150.609375 118.019531 155.464844 106.117188 161.316406 94.660156 C 163.082031 91.199219 163.984375 87.453125 164.867188 83.710938 C 166.5 76.808594 168.429688 70.023438 171.632812 63.636719 C 172.761719 61.382812 173.460938 58.90625 174.296875 56.511719 C 175.589844 52.8125 176.800781 49.082031 178.109375 45.386719 C 178.671875 43.796875 179.371094 42.253906 180.054688 40.707031 C 181.570312 37.261719 183.191406 33.859375 184.621094 30.378906 C 185.339844 28.636719 186.582031 28.023438 188.304688 27.730469 C 191.984375 27.101562 195.671875 27.414062 199.324219 27.703125 C 207.375 28.335938 215.4375 29 223.445312 30.019531 C 235.789062 31.589844 247.738281 34.777344 259.191406 39.703125 C 259.332031 39.765625 259.472656 39.835938 259.609375 39.898438 C 261.988281 41.019531 261.988281 41.015625 261.867188 43.835938 Z M 191.882812 34.625 C 190.710938 40.070312 188.253906 45.136719 186.1875 50.347656 C 185.363281 52.417969 184.613281 54.519531 183.847656 56.613281 C 180.476562 65.785156 177.113281 74.957031 173.75 84.132812 C 172.164062 88.464844 170.785156 92.886719 168.964844 97.117188 C 163.554688 109.695312 157.964844 122.199219 152.457031 134.734375 C 146.886719 147.417969 141.625 160.214844 137.289062 173.394531 C 134.042969 183.253906 130.378906 192.980469 126.746094 202.707031 C 122.675781 213.589844 118.421875 224.402344 114.277344 235.253906 C 113.816406 236.46875 113.382812 237.738281 113.226562 239.019531 C 112.515625 244.84375 111.195312 250.523438 109.460938 256.121094 C 109.265625 256.757812 109.117188 257.417969 108.898438 258.246094 C 116.988281 259.507812 124.730469 261.796875 132.8125 262.292969 C 133.609375 260.707031 134.335938 259.265625 135.054688 257.824219 C 137.765625 252.386719 140.503906 246.964844 143.179688 241.507812 C 145.144531 237.507812 147.214844 233.539062 148.914062 229.425781 C 160.972656 200.265625 175.429688 172.351562 192.5 145.820312 C 201.378906 132.023438 209.734375 117.945312 217.371094 103.433594 C 220.816406 96.886719 224.683594 90.597656 229.070312 84.636719 C 232.082031 80.546875 234.960938 76.351562 238.136719 72.394531 C 243.890625 65.222656 248.710938 57.457031 253.402344 49.589844 C 253.78125 48.949219 254.109375 48.28125 254.554688 47.449219 C 253.789062 47.230469 253.226562 47.042969 252.648438 46.90625 C 238.964844 43.59375 225.28125 40.277344 211.585938 36.996094 C 209.871094 36.585938 208.117188 36.273438 206.363281 36.082031 C 201.640625 35.558594 196.90625 35.125 191.882812 34.625 Z M 176.402344 53.773438 C 178.976562 50.519531 181.351562 43.898438 180.953125 41.445312 C 179.4375 45.554688 177.921875 49.664062 176.402344 53.773438 Z M 106.683594 256.128906 C 106.820312 256.171875 106.957031 256.214844 107.09375 256.257812 C 107.421875 255.261719 107.765625 254.273438 108.070312 253.277344 C 108.351562 252.359375 108.59375 251.429688 108.851562 250.503906 C 108.710938 250.46875 108.570312 250.433594 108.425781 250.394531 C 107.847656 252.308594 107.265625 254.21875 106.683594 256.128906 Z M 346.308594 86.015625 C 348.667969 85.632812 349.472656 86.308594 349.089844 88.972656 C 348.875 90.457031 348.515625 92.058594 347.738281 93.308594 C 344.246094 98.921875 340.710938 104.515625 336.9375 109.945312 C 333.117188 115.4375 329.164062 120.851562 324.980469 126.070312 C 315.882812 137.414062 306.71875 148.707031 296.714844 159.289062 C 293.660156 162.523438 290.953125 166.105469 288.261719 169.660156 C 283.105469 176.46875 278.167969 183.441406 272.972656 190.21875 C 268.386719 196.199219 263.742188 202.152344 258.828125 207.859375 C 247.933594 220.519531 237.410156 233.464844 227.226562 246.710938 C 220.996094 254.816406 214.195312 262.484375 207.558594 270.273438 C 204.21875 274.195312 200.683594 277.953125 197.238281 281.789062 C 196.929688 282.132812 196.566406 282.457031 196.371094 282.859375 C 195.269531 285.105469 193.355469 285.34375 191.269531 284.832031 C 189.785156 284.46875 188.316406 283.933594 186.929688 283.285156 C 183.289062 281.578125 179.480469 280.414062 175.632812 279.292969 C 172.171875 278.285156 168.777344 277.015625 165.433594 275.667969 C 164.191406 275.167969 163.027344 274.257812 162.074219 273.292969 C 160.171875 271.367188 159.832031 268.660156 161.5 266.554688 C 163.507812 264.019531 164.511719 261.046875 165.886719 258.226562 C 168.140625 253.59375 170.277344 248.890625 172.769531 244.390625 C 182.566406 226.691406 192.351562 208.980469 202.386719 191.421875 C 215.414062 168.628906 229.707031 146.632812 244.984375 125.28125 C 246.59375 123.027344 248.011719 120.640625 249.621094 118.386719 C 255.160156 110.628906 260.695312 102.867188 266.324219 95.175781 C 273.460938 85.429688 280.699219 75.757812 287.84375 66.019531 C 288.648438 64.925781 289.246094 63.644531 289.734375 62.371094 C 290.699219 59.871094 292.335938 58.675781 295.007812 58.804688 C 295.695312 58.839844 296.390625 58.9375 297.058594 59.105469 C 303.582031 60.730469 309.875 62.902344 315.710938 66.34375 C 322.46875 70.324219 329.34375 74.109375 336.144531 78.027344 C 338.140625 79.175781 340.140625 80.363281 341.960938 81.761719 C 343.457031 82.914062 344.6875 84.40625 346.308594 86.015625 Z M 293.546875 67.640625 C 291.773438 69.382812 290.164062 71.09375 289.101562 73.296875 C 288.304688 74.953125 287.285156 76.507812 286.332031 78.089844 C 281.929688 85.410156 277.589844 92.765625 273.082031 100.019531 C 270.363281 104.390625 267.578125 108.753906 264.460938 112.839844 C 258.835938 120.210938 253.917969 128.003906 249.683594 136.230469 C 246.214844 142.960938 242.082031 149.230469 237.484375 155.238281 C 234.589844 159.019531 231.832031 162.945312 229.417969 167.042969 C 217.933594 186.53125 206.523438 206.066406 195.21875 225.660156 C 188.375 237.519531 181.746094 249.503906 175.070312 261.460938 C 173.84375 263.652344 172.855469 265.976562 171.660156 268.4375 C 172.703125 268.902344 173.460938 269.230469 174.210938 269.578125 C 178.402344 271.507812 182.59375 273.433594 186.773438 275.378906 C 187.542969 275.734375 188.261719 276.1875 189.019531 276.566406 C 190.699219 277.398438 190.707031 277.347656 191.878906 275.960938 C 198.386719 268.261719 204.714844 260.402344 211.488281 252.945312 C 220.195312 243.359375 228.179688 233.214844 236.003906 222.917969 C 241.167969 216.117188 246.644531 209.554688 251.960938 202.871094 C 256.890625 196.667969 261.816406 190.460938 266.699219 184.21875 C 274.761719 173.917969 282.664062 163.492188 290.867188 153.304688 C 296.847656 145.871094 303.324219 138.84375 309.363281 131.457031 C 319.640625 118.886719 329.75 106.175781 339.921875 93.519531 C 340.285156 93.0625 340.578125 92.550781 340.949219 92 C 326.164062 81.816406 310.226562 74.242188 293.546875 67.640625 Z M 178.160156 252.324219 C 178.015625 252.234375 177.871094 252.144531 177.726562 252.054688 C 177.183594 253.074219 176.644531 254.09375 176.105469 255.113281 C 176.25 255.191406 176.394531 255.273438 176.539062 255.355469 C 177.078125 254.34375 177.617188 253.335938 178.160156 252.324219 Z M 30.507812 252.820312 C 29.59375 251.636719 29.5 250.09375 29.601562 248.554688 C 29.921875 243.71875 30.144531 238.871094 30.703125 234.0625 C 31.96875 223.210938 33.496094 212.394531 34.746094 201.542969 C 35.335938 196.429688 35.609375 191.273438 35.894531 186.128906 C 36.675781 172.230469 39.429688 158.699219 42.949219 145.269531 C 48.550781 123.894531 55.140625 102.832031 62.324219 81.953125 C 66.003906 71.261719 70.191406 60.746094 73.921875 50.074219 C 76.6875 42.164062 79.09375 34.125 81.640625 26.140625 C 82.332031 23.972656 83.320312 22.0625 85.605469 21.199219 C 86.085938 21.019531 86.710938 20.753906 87.117188 20.914062 C 88.519531 21.464844 89.847656 21.015625 91.214844 20.886719 C 93.96875 20.628906 96.730469 20.265625 99.488281 20.265625 C 112.128906 20.277344 124.71875 20.957031 137.15625 23.464844 C 138.492188 23.734375 139.925781 23.515625 141.265625 23.769531 C 143.605469 24.210938 145.933594 24.757812 148.21875 25.414062 C 151.480469 26.351562 152.070312 27.21875 151.234375 30.414062 C 150.109375 34.71875 149.09375 39.054688 147.257812 43.164062 C 143.398438 51.804688 139.675781 60.503906 135.976562 69.214844 C 134.773438 72.039062 133.691406 74.933594 132.785156 77.867188 C 130.992188 83.6875 128.816406 89.347656 126.269531 94.882812 C 117.355469 114.253906 109.289062 133.984375 102.28125 154.125 C 97.882812 166.765625 94.003906 179.589844 89.6875 192.261719 C 86.367188 202.019531 82.703125 211.660156 79.242188 221.371094 C 77.769531 225.503906 76.398438 229.667969 75.035156 233.835938 C 74.699219 234.851562 74.578125 235.933594 74.355469 236.984375 C 73.308594 241.949219 72.398438 246.949219 71.164062 251.867188 C 70.15625 255.894531 67.933594 257.050781 63.777344 256.695312 C 58.957031 256.28125 54.109375 256.152344 49.277344 255.832031 C 47.132812 255.691406 44.984375 255.484375 42.871094 255.125 C 38.785156 254.433594 34.71875 253.613281 30.507812 252.820312 Z M 88.777344 26.003906 C 87.730469 30.382812 86.816406 34.265625 85.875 38.148438 C 82.316406 52.8125 78.261719 67.332031 72.460938 81.300781 C 69.207031 89.128906 66.515625 97.140625 64.152344 105.273438 C 61.039062 115.984375 57.933594 126.699219 54.761719 137.390625 C 52.660156 144.46875 50.464844 151.519531 48.277344 158.570312 C 43.882812 172.71875 40.96875 187.179688 39.054688 201.847656 C 37.9375 210.390625 37.058594 218.964844 36.035156 227.519531 C 35.367188 233.09375 34.597656 238.65625 33.953125 244.234375 C 33.789062 245.640625 33.929688 247.082031 33.929688 248.394531 C 37.058594 248.859375 40 249.375 42.964844 249.714844 C 45.246094 249.976562 47.566406 250.230469 49.847656 250.101562 C 54.03125 249.863281 58.148438 250.058594 62.234375 250.972656 C 62.96875 251.132812 63.71875 251.207031 64.390625 251.308594 C 64.648438 250.972656 64.839844 250.8125 64.914062 250.609375 C 66.558594 245.972656 68.203125 241.332031 69.816406 236.683594 C 70.015625 236.109375 70.09375 235.480469 70.144531 234.871094 C 70.660156 228.386719 72.210938 222.132812 74.300781 215.988281 C 74.871094 214.316406 75.375 212.613281 75.738281 210.886719 C 77.726562 201.382812 80.535156 192.113281 83.648438 182.921875 C 86.386719 174.835938 89.105469 166.734375 91.585938 158.566406 C 94.144531 150.15625 97.257812 141.988281 100.789062 133.9375 C 104.648438 125.136719 108.199219 116.195312 111.804688 107.28125 C 115.261719 98.722656 118.464844 90.0625 122.039062 81.554688 C 129.011719 64.960938 136.167969 48.441406 143.242188 31.890625 C 143.417969 31.488281 143.515625 31.054688 143.722656 30.414062 C 125.546875 26.042969 107.175781 26.28125 88.777344 26.003906 Z M 54.164062 119.15625 C 54.015625 119.078125 53.867188 119 53.71875 118.921875 C 53.519531 119.5 53.292969 120.066406 53.128906 120.652344 C 50.796875 129.015625 48.339844 137.347656 46.1875 145.753906 C 44.089844 153.941406 42.28125 162.203125 40.417969 170.449219 C 40.015625 172.230469 39.933594 174.082031 39.703125 175.902344 C 39.910156 175.9375 40.113281 175.972656 40.320312 176.007812 C 43.691406 156.753906 48.566406 137.863281 54.164062 119.15625 Z M 62.242188 267.4375 C 63.195312 268.394531 63.113281 269.691406 62.945312 270.871094 C 62.457031 274.289062 61.941406 277.714844 61.203125 281.089844 C 60.332031 285.066406 59.214844 288.992188 58.199219 292.9375 C 57.484375 295.71875 55.78125 296.875 52.960938 297.648438 C 46.71875 299.355469 40.5 299.121094 34.292969 297.957031 C 33.6875 298.976562 33.15625 299.867188 32.628906 300.753906 C 31.304688 300.398438 30.699219 299.570312 30.445312 298.609375 C 30.066406 297.1875 29.238281 296.351562 27.855469 295.996094 C 27.78125 295.976562 27.710938 295.9375 27.644531 295.898438 C 26.660156 295.359375 25.75 294.714844 25.945312 293.429688 C 26.125 292.25 27.070312 291.875 28.125 291.707031 C 28.34375 291.671875 28.554688 291.5625 28.949219 291.421875 C 28.996094 290.808594 29.042969 290.144531 29.097656 289.476562 C 29.539062 284.191406 29.976562 278.90625 30.414062 273.621094 C 30.464844 273.007812 30.597656 272.386719 30.535156 271.785156 C 30.339844 269.941406 31.28125 268.789062 32.859375 268.238281 C 34.511719 267.660156 36.246094 267.042969 37.96875 266.980469 C 45.199219 266.707031 52.425781 266.890625 59.628906 267.722656 C 60.390625 267.808594 61.1875 267.5625 62.242188 267.4375 Z M 36.027344 272.105469 C 35.511719 278.890625 35.027344 285.277344 34.539062 291.703125 C 34.964844 291.84375 35.242188 292 35.53125 292.019531 C 40.589844 292.332031 45.652344 292.578125 50.691406 291.742188 C 52.695312 291.40625 52.691406 291.359375 53.128906 289.316406 C 54.230469 284.21875 55.363281 279.128906 56.472656 274.03125 C 56.578125 273.546875 56.605469 273.046875 56.671875 272.535156 C 56.289062 272.453125 56.070312 272.371094 55.847656 272.363281 C 50.632812 272.210938 45.421875 272.046875 40.207031 271.9375 C 38.847656 271.90625 37.484375 272.042969 36.027344 272.105469 Z M 165.265625 322.539062 C 163.261719 322.035156 161.171875 321.746094 159.269531 320.992188 C 153.84375 318.84375 148.488281 316.515625 143.117188 314.226562 C 142.488281 313.960938 141.871094 313.589844 141.363281 313.136719 C 139.703125 311.648438 140.1875 309.242188 142.382812 308.96875 C 144.382812 308.71875 145.027344 307.570312 145.722656 306.058594 C 147.679688 301.800781 149.710938 297.578125 151.742188 293.359375 C 152.242188 292.324219 152.933594 291.378906 153.40625 290.332031 C 153.695312 289.683594 153.867188 288.921875 153.863281 288.214844 C 153.847656 286.449219 154.527344 285.617188 156.335938 285.761719 C 157.546875 285.855469 158.828125 286.058594 159.90625 286.570312 C 164.28125 288.628906 168.625 290.753906 172.898438 293.011719 C 174.929688 294.082031 176.769531 295.433594 179.101562 295.945312 C 180.980469 296.359375 181.628906 297.738281 181.21875 299.648438 C 181.140625 300.023438 181.039062 300.402344 180.886719 300.75 C 177.890625 307.59375 174.5625 314.246094 169.84375 320.109375 C 168.667969 321.574219 167.296875 322.550781 165.265625 322.539062 Z M 149.308594 310.054688 C 154.398438 312.25 159.003906 314.859375 164.054688 316.496094 C 165.214844 316.871094 165.984375 316.582031 166.542969 315.550781 C 166.800781 315.078125 167.078125 314.617188 167.332031 314.144531 C 169.597656 309.960938 171.863281 305.773438 174.117188 301.582031 C 174.390625 301.074219 174.589844 300.527344 174.769531 300.121094 C 169.386719 297.695312 164.175781 295.347656 158.90625 292.972656 C 158.601562 293.558594 158.328125 294.019531 158.113281 294.5 C 156.253906 298.640625 154.230469 302.671875 151.347656 306.238281 C 150.507812 307.277344 150.054688 308.625 149.308594 310.054688 Z M 110.46875 307.125 C 108.554688 306.746094 105.230469 306.15625 101.941406 305.414062 C 99.46875 304.855469 97.046875 304.089844 94.589844 303.457031 C 93.203125 303.09375 91.882812 302.496094 90.328125 302.917969 C 89.300781 303.195312 88.46875 302.472656 88.3125 301.199219 C 88.132812 299.769531 88.023438 298.253906 88.292969 296.855469 C 89.339844 291.390625 91.234375 286.199219 93.664062 281.195312 C 94.261719 279.964844 94.597656 278.597656 95.269531 277.414062 C 96.289062 275.617188 97.851562 274.332031 99.972656 274.175781 C 101.328125 274.074219 102.742188 274.257812 104.082031 274.539062 C 110.320312 275.863281 116.542969 277.265625 122.769531 278.644531 C 125.820312 279.324219 126.695312 281.113281 125.507812 284.148438 C 123.09375 290.304688 120.65625 296.449219 118.304688 302.625 C 116.785156 306.613281 116.144531 307.132812 110.46875 307.125 Z M 99.234375 280.289062 C 97.355469 285.75 95.5625 290.949219 93.679688 296.410156 C 100.179688 298.925781 106.636719 300.636719 113.292969 302.128906 C 114.167969 298.945312 114.902344 296.046875 115.773438 293.191406 C 116.632812 290.367188 117.628906 287.585938 118.515625 284.9375 C 114.230469 283.707031 110.203125 282.460938 106.121094 281.421875 C 103.984375 280.875 101.753906 280.691406 99.234375 280.289062 Z M 99.234375 280.289062 " fill-opacity="1" fill-rule="nonzero"/></g><path fill="#ffffff" d="M 191.882812 34.625 C 196.90625 35.125 201.640625 35.558594 206.363281 36.082031 C 208.117188 36.273438 209.871094 36.585938 211.585938 36.996094 C 225.28125 40.277344 238.964844 43.59375 252.648438 46.90625 C 253.226562 47.042969 253.789062 47.230469 254.554688 47.449219 C 254.109375 48.28125 253.78125 48.949219 253.402344 49.589844 C 248.710938 57.457031 243.890625 65.222656 238.136719 72.394531 C 234.960938 76.351562 232.082031 80.546875 229.070312 84.636719 C 224.683594 90.597656 220.816406 96.886719 217.371094 103.433594 C 209.734375 117.945312 201.378906 132.023438 192.5 145.820312 C 175.429688 172.351562 160.972656 200.265625 148.914062 229.425781 C 147.214844 233.539062 145.144531 237.507812 143.179688 241.507812 C 140.503906 246.964844 137.765625 252.386719 135.054688 257.824219 C 134.335938 259.265625 133.609375 260.707031 132.8125 262.292969 C 124.730469 261.796875 116.988281 259.507812 108.898438 258.246094 C 109.117188 257.417969 109.265625 256.757812 109.460938 256.117188 C 111.195312 250.523438 112.515625 244.84375 113.226562 239.019531 C 113.382812 237.738281 113.816406 236.46875 114.277344 235.253906 C 118.421875 224.402344 122.675781 213.589844 126.746094 202.707031 C 130.378906 192.980469 134.042969 183.253906 137.289062 173.394531 C 141.625 160.214844 146.886719 147.417969 152.457031 134.734375 C 157.964844 122.199219 163.554688 109.695312 168.964844 97.117188 C 170.785156 92.886719 172.164062 88.464844 173.75 84.132812 C 177.113281 74.957031 180.476562 65.785156 183.847656 56.613281 C 184.613281 54.519531 185.363281 52.417969 186.1875 50.347656 C 188.253906 45.136719 190.710938 40.070312 191.882812 34.625 Z M 180.953125 41.445312 C 179.4375 45.554688 177.921875 49.664062 176.402344 53.773438 C 178.976562 50.519531 181.351562 43.898438 180.953125 41.445312 Z M 107.09375 256.257812 C 107.421875 255.261719 107.765625 254.273438 108.070312 253.277344 C 108.351562 252.359375 108.59375 251.429688 108.851562 250.503906 C 108.710938 250.46875 108.570312 250.433594 108.425781 250.394531 C 107.847656 252.308594 107.265625 254.21875 106.683594 256.128906 C 106.820312 256.171875 106.957031 256.214844 107.09375 256.257812 Z M 289.101562 73.296875 C 288.304688 74.953125 287.285156 76.507812 286.332031 78.089844 C 281.929688 85.410156 277.589844 92.765625 273.082031 100.019531 C 270.363281 104.390625 267.578125 108.753906 264.460938 112.839844 C 258.835938 120.210938 253.917969 128.003906 249.683594 136.230469 C 246.214844 142.960938 242.082031 149.230469 237.484375 155.238281 C 234.589844 159.019531 231.832031 162.945312 229.417969 167.042969 C 217.933594 186.53125 206.523438 206.066406 195.21875 225.660156 C 188.375 237.519531 181.746094 249.503906 175.070312 261.460938 C 173.84375 263.652344 172.855469 265.976562 171.660156 268.4375 C 172.703125 268.902344 173.460938 269.230469 174.210938 269.578125 C 178.402344 271.507812 182.59375 273.433594 186.773438 275.378906 C 187.542969 275.734375 188.261719 276.1875 189.019531 276.566406 C 190.699219 277.398438 190.707031 277.347656 191.878906 275.960938 C 198.386719 268.261719 204.714844 260.402344 211.488281 252.945312 C 220.195312 243.359375 228.179688 233.214844 236.003906 222.917969 C 241.167969 216.117188 246.644531 209.554688 251.960938 202.871094 C 256.890625 196.667969 261.816406 190.460938 266.699219 184.21875 C 274.761719 173.917969 282.664062 163.492188 290.867188 153.304688 C 296.847656 145.871094 303.324219 138.84375 309.363281 131.457031 C 319.640625 118.886719 329.75 106.175781 339.921875 93.519531 C 340.285156 93.0625 340.578125 92.550781 340.949219 92 C 326.164062 81.816406 310.226562 74.242188 293.546875 67.640625 C 291.773438 69.382812 290.164062 71.09375 289.101562 73.296875 Z M 177.726562 252.054688 C 177.183594 253.074219 176.644531 254.09375 176.105469 255.113281 C 176.25 255.191406 176.394531 255.273438 176.539062 255.355469 C 177.078125 254.34375 177.617188 253.335938 178.160156 252.324219 C 178.015625 252.234375 177.871094 252.144531 177.726562 252.054688 Z M 85.875 38.148438 C 82.316406 52.8125 78.261719 67.332031 72.460938 81.300781 C 69.207031 89.128906 66.515625 97.140625 64.152344 105.273438 C 61.039062 115.984375 57.933594 126.699219 54.761719 137.390625 C 52.660156 144.46875 50.464844 151.519531 48.277344 158.570312 C 43.882812 172.71875 40.96875 187.179688 39.054688 201.847656 C 37.9375 210.390625 37.058594 218.964844 36.035156 227.519531 C 35.367188 233.09375 34.597656 238.65625 33.953125 244.234375 C 33.789062 245.640625 33.929688 247.082031 33.929688 248.394531 C 37.058594 248.859375 40 249.375 42.964844 249.714844 C 45.246094 249.976562 47.566406 250.230469 49.847656 250.101562 C 54.03125 249.863281 58.148438 250.058594 62.234375 250.972656 C 62.96875 251.132812 63.71875 251.207031 64.390625 251.308594 C 64.648438 250.972656 64.839844 250.8125 64.914062 250.609375 C 66.558594 245.972656 68.203125 241.332031 69.816406 236.683594 C 70.015625 236.109375 70.09375 235.480469 70.144531 234.871094 C 70.660156 228.386719 72.210938 222.132812 74.300781 215.988281 C 74.871094 214.316406 75.375 212.613281 75.738281 210.886719 C 77.726562 201.382812 80.535156 192.113281 83.648438 182.921875 C 86.386719 174.835938 89.105469 166.734375 91.585938 158.566406 C 94.144531 150.15625 97.257812 141.988281 100.789062 133.9375 C 104.648438 125.136719 108.199219 116.195312 111.804688 107.28125 C 115.261719 98.722656 118.464844 90.0625 122.039062 81.554688 C 129.011719 64.960938 136.167969 48.441406 143.242188 31.890625 C 143.417969 31.488281 143.515625 31.054688 143.722656 30.414062 C 125.546875 26.042969 107.175781 26.28125 88.777344 26.003906 C 87.734375 30.382812 86.816406 34.265625 85.875 38.148438 Z M 53.71875 118.921875 C 53.519531 119.5 53.292969 120.066406 53.128906 120.652344 C 50.796875 129.015625 48.339844 137.347656 46.1875 145.753906 C 44.089844 153.941406 42.28125 162.203125 40.417969 170.449219 C 40.015625 172.230469 39.933594 174.082031 39.703125 175.902344 C 39.910156 175.9375 40.113281 175.972656 40.320312 176.007812 C 43.691406 156.753906 48.566406 137.863281 54.164062 119.15625 C 54.015625 119.078125 53.867188 119 53.71875 118.921875 Z M 34.539062 291.703125 C 34.964844 291.84375 35.242188 292 35.53125 292.019531 C 40.589844 292.332031 45.652344 292.578125 50.691406 291.742188 C 52.695312 291.40625 52.691406 291.359375 53.128906 289.316406 C 54.230469 284.21875 55.363281 279.128906 56.472656 274.03125 C 56.578125 273.546875 56.605469 273.046875 56.671875 272.535156 C 56.289062 272.453125 56.070312 272.371094 55.847656 272.363281 C 50.632812 272.210938 45.421875 272.046875 40.207031 271.9375 C 38.847656 271.90625 37.484375 272.042969 36.027344 272.105469 C 35.511719 278.890625 35.027344 285.277344 34.539062 291.703125 Z M 164.054688 316.496094 C 165.214844 316.871094 165.984375 316.582031 166.542969 315.550781 C 166.800781 315.078125 167.078125 314.617188 167.332031 314.144531 C 169.597656 309.960938 171.863281 305.773438 174.117188 301.582031 C 174.390625 301.074219 174.589844 300.527344 174.769531 300.121094 C 169.386719 297.695312 164.175781 295.347656 158.90625 292.972656 C 158.601562 293.558594 158.328125 294.019531 158.113281 294.5 C 156.253906 298.640625 154.230469 302.671875 151.347656 306.238281 C 150.507812 307.277344 150.054688 308.625 149.308594 310.054688 C 154.398438 312.25 159.003906 314.859375 164.054688 316.496094 Z M 93.679688 296.410156 C 100.179688 298.925781 106.636719 300.636719 113.292969 302.128906 C 114.167969 298.945312 114.902344 296.046875 115.773438 293.191406 C 116.632812 290.367188 117.628906 287.585938 118.515625 284.9375 C 114.230469 283.707031 110.203125 282.460938 106.121094 281.421875 C 103.984375 280.875 101.753906 280.691406 99.234375 280.289062 C 97.355469 285.75 95.5625 290.949219 93.679688 296.410156 Z M 93.679688 296.410156 " fill-opacity="1" fill-rule="nonzero"/><g fill="#ffffff" fill-opacity="1"><g transform="translate(211.291615, 371.349967)"><g><path d="M 1.1875 -0.828125 C 1.1875 -1.179688 1.265625 -1.445312 1.421875 -1.625 C 1.585938 -1.800781 1.816406 -1.890625 2.109375 -1.890625 C 2.410156 -1.890625 2.644531 -1.800781 2.8125 -1.625 C 2.988281 -1.445312 3.078125 -1.179688 3.078125 -0.828125 C 3.078125 -0.492188 2.988281 -0.234375 2.8125 -0.046875 C 2.644531 0.140625 2.410156 0.234375 2.109375 0.234375 C 1.847656 0.234375 1.628906 0.148438 1.453125 -0.015625 C 1.273438 -0.179688 1.1875 -0.453125 1.1875 -0.828125 Z M 1.1875 -0.828125 "/></g></g></g></svg>