<svg xmlns="http://www.w3.org/2000/svg" xmlns:xlink="http://www.w3.org/1999/xlink" width="500" zoomAndPan="magnify" viewBox="0 0 375 374.999991" height="500" preserveAspectRatio="xMidYMid meet" version="1.0"><defs><g/><clipPath id="5619affb57"><path d="M 17.203125 42 L 161 42 L 161 252.003906 L 17.203125 252.003906 Z M 17.203125 42 " clip-rule="nonzero"/></clipPath></defs><g clip-path="url(#5619affb57)"><path fill="#000000" d="M 146.953125 123.882812 C 139.367188 124.929688 121.457031 135.507812 93.222656 155.527344 C 89.914062 157.304688 87.734375 157.546875 86.6875 156.253906 L 62.402344 51.140625 C 61.355469 46.539062 60.144531 43.953125 58.691406 43.46875 C 58.691406 40.078125 44.894531 49.6875 17.304688 72.292969 L 21.582031 102.003906 C 27.792969 131.148438 38.121094 163.117188 52.480469 197.996094 C 57.160156 210.75 63.773438 225.203125 72.164062 241.429688 C 75.230469 247.808594 77.8125 251.359375 79.75 252.003906 C 90.960938 249.421875 98.625 245.304688 102.820312 239.574219 L 105.402344 206.957031 C 105.808594 203.566406 106.855469 200.980469 108.550781 199.207031 L 149.613281 179.023438 C 154.050781 176.761719 157.199219 174.582031 158.972656 172.402344 C 160.183594 170.707031 160.746094 169.09375 160.667969 167.476562 C 160.828125 167.558594 160.019531 161.582031 158.40625 149.554688 C 156.390625 130.257812 152.597656 121.703125 147.113281 123.882812 Z M 146.953125 123.882812 " fill-opacity="1" fill-rule="nonzero"/></g><path fill="#000000" d="M 97.980469 94.414062 C 98.789062 100.628906 100.320312 108.542969 102.578125 118.070312 L 130.898438 104.828125 C 132.753906 80.929688 132.429688 63.976562 129.929688 53.964844 C 128.960938 50.171875 127.347656 48.074219 125.167969 47.589844 C 123.3125 47.023438 119.925781 47.910156 115.003906 50.332031 C 102.742188 56.386719 96.207031 61.878906 95.398438 66.722656 C 95.15625 67.609375 95.15625 69.46875 95.398438 72.375 C 96.125 80.285156 96.933594 87.632812 97.898438 94.496094 Z M 97.980469 94.414062 " fill-opacity="1" fill-rule="nonzero"/><path fill="#000000" d="M 173.976562 17.714844 C 164.863281 18.925781 157.601562 20.703125 152.277344 23.046875 C 148.242188 25.0625 145.902344 27.808594 145.339844 31.117188 C 144.046875 39.03125 143.722656 48.394531 144.449219 59.050781 C 144.773438 63.976562 145.902344 73.503906 147.675781 87.550781 C 147.597656 88.117188 148.808594 94.171875 151.226562 105.878906 L 176.640625 103.375 C 178.738281 87.390625 180.996094 61.230469 183.496094 24.820312 C 183.820312 18.925781 180.59375 16.503906 173.898438 17.714844 Z M 173.976562 17.714844 " fill-opacity="1" fill-rule="nonzero"/><path fill="#000000" d="M 284.828125 127.917969 C 279.097656 130.421875 273.613281 132.84375 268.289062 135.34375 C 267.160156 118.714844 266.351562 108.21875 265.867188 103.859375 C 271.515625 101.195312 277.566406 98.371094 284.019531 95.382812 C 285.3125 94.574219 285.714844 93.285156 285.230469 91.425781 C 282.890625 83.59375 280.710938 77.621094 278.777344 73.585938 C 274.984375 64.542969 268.773438 61.714844 260.300781 65.1875 C 259.738281 61.714844 259.171875 58.40625 258.6875 55.257812 C 254.894531 32.492188 250.78125 20.378906 246.425781 18.925781 C 242.714844 17.472656 235.695312 20.300781 225.367188 27.40625 C 219.398438 32.167969 216.574219 37.496094 216.816406 43.46875 C 216.496094 51.867188 218.109375 65.105469 221.738281 83.191406 L 192.453125 98.207031 L 207.136719 128.726562 C 209.71875 128.5625 217.382812 125.65625 230.210938 120.085938 C 232.550781 129.371094 235.128906 139.300781 238.035156 150.039062 C 230.128906 154.074219 222.625 158.113281 215.605469 162.148438 C 210.523438 165.054688 208.75 170.546875 210.28125 178.78125 C 210.847656 183.300781 213.023438 187.984375 216.65625 192.910156 C 218.996094 196.058594 220.929688 198.316406 222.464844 199.691406 C 223.351562 200.417969 224.480469 200.660156 225.933594 200.417969 C 228.113281 200.09375 232.144531 198.398438 238.117188 195.25 C 241.988281 193.152344 245.859375 191.050781 249.734375 188.953125 C 252.234375 195.167969 254.734375 199.527344 257.074219 202.03125 C 259.816406 206.957031 267.238281 205.988281 279.421875 198.964844 L 273.289062 176.035156 C 279.261719 172.726562 285.3125 169.414062 291.28125 166.023438 L 284.90625 128 Z M 284.828125 127.917969 " fill-opacity="1" fill-rule="nonzero"/><path fill="#000000" d="M 331.136719 121.539062 C 330.894531 118.230469 330.570312 115.96875 330.167969 114.757812 C 329.523438 111.285156 326.292969 110.800781 320.484375 113.222656 C 314.191406 115.890625 310.964844 118.554688 310.886719 121.21875 C 310.886719 121.863281 310.886719 122.75 310.964844 123.71875 L 313.304688 139.140625 L 315.644531 151.894531 C 315.644531 152.300781 315.808594 152.703125 315.96875 153.269531 L 332.023438 146.808594 C 331.699219 144.308594 331.378906 135.910156 331.054688 121.621094 Z M 331.136719 121.539062 " fill-opacity="1" fill-rule="nonzero"/><path fill="#000000" d="M 342.1875 147.777344 L 357.679688 138.816406 C 358.644531 129.128906 358.96875 121.460938 358.808594 115.808594 C 358.402344 103.050781 357.679688 95.625 356.628906 93.6875 C 355.902344 91.667969 354.691406 90.941406 353.078125 91.34375 C 348.804688 92.558594 344.769531 94.171875 341.058594 96.269531 C 337.023438 98.289062 335.25 101.839844 335.734375 107.007812 C 335.816406 111.042969 336.539062 117.019531 337.832031 124.929688 C 340.171875 139.300781 341.625 146.972656 342.347656 147.859375 Z M 342.1875 147.777344 " fill-opacity="1" fill-rule="nonzero"/><path fill="#000000" d="M 363.246094 159.96875 C 362.921875 157.949219 362.355469 156.738281 361.550781 156.335938 C 361.066406 155.933594 359.535156 155.851562 356.789062 156.011719 C 350.09375 156.417969 344.042969 156.902344 338.476562 157.464844 C 331.78125 157.871094 327.101562 160.050781 324.4375 164.085938 C 318.144531 173.128906 315.644531 179.585938 316.855469 183.625 L 339.605469 181.039062 C 343.882812 179.828125 351.304688 178.375 361.953125 176.601562 C 364.132812 176.035156 365.101562 174.90625 364.777344 173.289062 C 364.535156 169.414062 364.050781 164.976562 363.246094 159.886719 Z M 363.246094 159.96875 " fill-opacity="1" fill-rule="nonzero"/><g fill="#ffffff" fill-opacity="1"><g transform="translate(211.291615, 371.349967)"><g><path d="M 1.1875 -0.828125 C 1.1875 -1.179688 1.265625 -1.445312 1.421875 -1.625 C 1.585938 -1.800781 1.816406 -1.890625 2.109375 -1.890625 C 2.410156 -1.890625 2.644531 -1.800781 2.8125 -1.625 C 2.988281 -1.445312 3.078125 -1.179688 3.078125 -0.828125 C 3.078125 -0.492188 2.988281 -0.234375 2.8125 -0.046875 C 2.644531 0.140625 2.410156 0.234375 2.109375 0.234375 C 1.847656 0.234375 1.628906 0.148438 1.453125 -0.015625 C 1.273438 -0.179688 1.1875 -0.453125 1.1875 -0.828125 Z M 1.1875 -0.828125 "/></g></g></g></svg>