<svg xmlns="http://www.w3.org/2000/svg" xmlns:xlink="http://www.w3.org/1999/xlink" width="500" zoomAndPan="magnify" viewBox="0 0 375 374.999991" height="500" preserveAspectRatio="xMidYMid meet" version="1.0"><defs><g/></defs><path stroke-linecap="round" transform="matrix(5.811394, 0, 0, 5.819067, -1651.055287, -1871.814717)" fill="none" stroke-linejoin="round" d="M 302.934105 327.403343 C 303.077278 328.531101 304.285841 330.015312 304.814167 330.963166 C 306.64785 334.257159 308.556815 337.510204 310.496028 340.743782 C 316.946181 351.499776 323.548916 362.155077 330.259198 372.751304 " stroke="#980000" stroke-width="5.81" stroke-opacity="1" stroke-miterlimit="1.5"/><path stroke-linecap="round" transform="matrix(5.811394, 0, 0, 5.819067, -1651.055287, -1871.814717)" fill="none" stroke-linejoin="round" d="M 328.73001 327.728916 C 329.482841 332.270157 327.393734 337.906934 325.830936 342.011168 C 321.229926 354.090935 313.637755 366.029732 303.364967 374.040842 " stroke="#980000" stroke-width="5.81" stroke-opacity="1" stroke-miterlimit="1.5"/><path stroke-linecap="round" transform="matrix(5.811394, 0, 0, 5.819067, -1665.127278, -1880.302389)" fill="none" stroke-linejoin="round" d="M 302.933722 327.403238 C 303.076894 328.530997 304.28613 330.015207 304.813784 330.963061 C 306.648138 334.257054 308.557104 337.5101 310.496317 340.743678 C 316.945797 351.499671 323.549205 362.154972 330.258815 372.7512 " stroke="#ff0000" stroke-width="5.81" stroke-opacity="1" stroke-miterlimit="1.5"/><path stroke-linecap="round" transform="matrix(5.811394, 0, 0, 5.819067, -1665.127278, -1880.302389)" fill="none" stroke-linejoin="round" d="M 328.730298 327.728811 C 329.48313 332.270052 327.394023 337.906829 325.831225 342.011063 C 321.230215 354.09083 313.638044 366.030298 303.365256 374.040737 " stroke="#ff0000" stroke-width="5.81" stroke-opacity="1" stroke-miterlimit="1.5"/><g fill="#ffffff" fill-opacity="1"><g transform="translate(211.291615, 371.349967)"><g><path d="M 1.1875 -0.828125 C 1.1875 -1.179688 1.265625 -1.445312 1.421875 -1.625 C 1.585938 -1.800781 1.816406 -1.890625 2.109375 -1.890625 C 2.410156 -1.890625 2.644531 -1.800781 2.8125 -1.625 C 2.988281 -1.445312 3.078125 -1.179688 3.078125 -0.828125 C 3.078125 -0.492188 2.988281 -0.234375 2.8125 -0.046875 C 2.644531 0.140625 2.410156 0.234375 2.109375 0.234375 C 1.847656 0.234375 1.628906 0.148438 1.453125 -0.015625 C 1.273438 -0.179688 1.1875 -0.453125 1.1875 -0.828125 Z M 1.1875 -0.828125 "/></g></g></g></svg>