<svg version="1.1" id="Layer_1" xmlns="http://www.w3.org/2000/svg" xmlns:xlink="http://www.w3.org/1999/xlink" x="0px" y="0px"
	 width="100%" viewBox="0 0 1024 1024" enable-background="new 0 0 1024 1024" xml:space="preserve">
<path fill="#000000" opacity="1.000000" stroke="none" 
	d="
M276.615997,689.795288 
	C238.099915,696.215454 200.007904,702.525940 161.917542,708.846313 
	C151.408600,710.590149 140.914719,712.427490 130.394516,714.099854 
	C123.763702,715.153931 119.520905,712.551575 118.108063,706.851746 
	C116.804962,701.594727 120.163452,695.840759 126.317703,694.512756 
	C136.872330,692.235352 147.560089,690.558044 158.214752,688.764221 
	C192.983444,682.910583 227.765701,677.137695 262.536560,671.296753 
	C299.279785,665.124512 336.013580,658.896423 372.756744,652.723816 
	C381.776337,651.208557 390.834686,649.918640 399.840973,648.330872 
	C407.220825,647.029907 414.456635,647.909119 421.649567,649.389832 
	C429.489288,651.003601 435.540588,655.032654 439.944092,662.044189 
	C451.081421,679.777893 466.871521,691.552551 487.424652,695.989136 
	C504.574646,699.691162 521.463867,698.554688 538.826111,689.777344 
	C534.610657,689.008179 531.804016,689.560120 528.969971,689.742798 
	C501.007507,691.545166 475.460785,686.425354 456.216003,663.819702 
	C453.418610,660.533813 450.831238,657.010315 448.574585,653.333984 
	C442.020874,642.657227 431.925446,638.118286 420.098083,637.466370 
	C390.853088,635.854431 362.044434,639.140686 333.247711,644.529785 
	C292.363678,652.180908 251.221222,658.450928 210.189743,665.314514 
	C206.414154,665.946106 202.518646,666.200012 198.891083,667.317993 
	C184.069946,671.886108 170.776489,665.806519 157.160309,661.760498 
	C154.674332,661.021729 153.760269,659.475525 153.763596,656.971741 
	C153.796814,631.973755 153.842636,606.975464 153.713913,581.978149 
	C153.694427,578.191833 156.016159,577.597473 158.713257,577.120422 
	C170.996506,574.947754 183.289642,572.830933 195.576935,570.680908 
	C197.195923,570.397644 198.801727,570.039062 201.847549,569.427429 
	C197.606735,567.485535 194.548218,566.119141 191.518188,564.692322 
	C154.465424,547.244446 144.083267,503.714355 162.093613,470.244904 
	C174.391891,447.390442 194.304245,435.592957 219.566040,431.729919 
	C237.808487,428.940277 255.976624,425.665222 274.180389,422.621521 
	C279.014282,421.813232 279.810699,419.981964 276.986053,415.914093 
	C276.323914,414.960571 275.636444,413.936615 274.727631,413.256470 
	C268.264679,408.419983 267.907288,402.476196 270.102936,395.098053 
	C277.041779,371.780975 288.590759,350.839233 302.746582,331.355408 
	C332.452179,290.469177 370.364227,259.936951 417.997284,242.106934 
	C426.114777,239.068375 434.896179,237.966873 442.896240,234.880890 
	C450.812225,231.827332 455.118835,223.518738 462.136780,218.689682 
	C485.191376,202.825684 510.695007,197.572601 538.132385,200.421432 
	C563.987488,203.105957 586.049927,213.676086 603.776062,232.885468 
	C605.211182,234.440735 606.961975,235.144623 608.945007,235.668625 
	C668.331604,251.360886 714.687378,284.883606 747.019653,337.251556 
	C750.075378,342.200897 753.484924,343.303314 758.459167,342.470123 
	C764.855591,341.398743 771.213501,339.629578 777.644653,339.313568 
	C806.307678,337.905365 834.129822,330.988251 862.243103,326.226990 
	C873.840149,324.262848 881.270996,327.875519 888.830505,335.175323 
	C900.766724,346.701569 906.783752,360.935364 907.129211,377.120209 
	C907.683899,403.105774 907.583679,429.119629 907.063477,455.107574 
	C906.820801,467.230377 907.739746,479.304565 907.337097,491.423859 
	C906.547363,515.198059 897.080078,534.488403 878.662354,549.455994 
	C875.301941,552.186829 871.906555,554.877380 868.612366,557.686279 
	C864.346313,561.323792 859.151733,562.363037 853.865173,563.258179 
	C823.518066,568.396545 793.176697,573.568970 762.828247,578.699829 
	C745.430664,581.641174 728.011414,584.457275 711.374695,590.687500 
	C709.692871,591.317322 707.794495,591.404053 705.984009,591.649841 
	C675.344299,595.810730 653.699585,613.993164 635.255737,637.098938 
	C622.162903,653.501099 609.207520,670.012878 596.145020,686.439392 
	C584.527283,701.049072 569.295776,709.348572 551.041809,712.829163 
	C524.309875,717.926270 497.842896,719.210815 471.836823,709.251770 
	C458.202637,704.030457 445.568970,696.736816 437.137909,684.814819 
	C426.317535,669.514282 412.394867,666.350281 395.146393,669.454468 
	C357.637421,676.205139 320.042511,682.478333 282.480682,688.934875 
	C280.677399,689.244812 278.854492,689.440430 276.615997,689.795288 
M641.993591,439.500000 
	C641.993591,482.978302 641.993591,526.456604 641.993591,570.221741 
	C650.253967,569.641663 657.210938,567.803162 664.286865,567.020874 
	C669.359070,566.460083 670.944336,564.613892 670.900024,559.497498 
	C670.647339,530.339722 670.727539,501.178925 670.753662,472.019165 
	C670.755188,470.328613 669.989075,468.383850 672.196533,466.397552 
	C686.954102,487.345642 700.188110,509.095581 714.981567,531.249878 
	C729.636475,504.421844 743.629578,478.805359 757.622681,453.188904 
	C758.166199,453.399872 758.709778,453.610870 759.253296,453.821838 
	C759.253296,456.286987 759.259888,458.752167 759.252319,461.217285 
	C759.162415,490.543060 759.109131,519.869080 758.933350,549.194397 
	C758.909424,553.184631 759.655212,555.047119 764.328979,553.952820 
	C770.628967,552.477661 777.076416,551.535034 783.508118,550.755981 
	C787.528931,550.269043 788.741943,548.398010 788.737488,544.513672 
	C788.669922,486.027496 788.676636,427.541107 788.801453,369.055054 
	C788.810486,364.819519 787.132446,363.755096 783.403076,364.403992 
	C777.666748,365.402130 771.943481,366.516388 766.173523,367.263794 
	C762.885132,367.689758 760.781311,369.072327 759.178223,372.022766 
	C745.263245,397.633575 731.237671,423.184296 717.221191,448.739899 
	C716.454529,450.137756 716.057312,451.913422 713.857483,452.501068 
	C711.324280,450.223785 709.724426,447.116882 707.887085,444.215240 
	C696.034302,425.496399 684.284851,406.713257 671.662720,388.491180 
	C669.701355,385.659637 667.758118,384.449341 664.252686,385.202606 
	C658.567322,386.424377 652.810181,387.381073 647.041199,388.121124 
	C643.022095,388.636688 641.857605,390.695892 641.897644,394.511353 
	C642.051575,409.172974 641.982666,423.836914 641.993591,439.500000 
M259.017456,557.344543 
	C266.076721,558.466064 273.236237,559.164307 280.172028,560.807129 
	C290.924103,563.354004 294.120911,574.714417 286.806122,583.044617 
	C283.780579,586.490295 279.816864,588.160767 275.501160,588.935852 
	C263.060059,591.170227 250.593185,593.263306 238.126877,595.355042 
	C221.229248,598.190247 204.321167,600.963196 187.421677,603.787476 
	C184.731140,604.237183 182.238571,604.688904 182.330627,608.523926 
	C182.518509,616.348877 182.426773,624.183044 182.317429,632.011536 
	C182.270737,635.354797 183.938416,635.916809 186.772217,635.447876 
	C220.877640,629.804565 255.012817,624.336548 289.088562,618.520142 
	C307.306396,615.410461 320.079926,602.757019 322.235962,584.614563 
	C323.542786,573.617859 323.823334,562.305115 321.526825,551.279907 
	C319.006744,539.181213 311.839508,531.001099 299.762848,527.625793 
	C295.932251,526.555176 291.963867,525.925781 288.025848,525.299805 
	C267.003479,521.958008 245.955551,518.773804 224.950211,515.329224 
	C218.041077,514.196167 213.884232,509.586823 213.722397,503.829956 
	C213.562042,498.126129 217.158325,494.116821 224.138672,492.253906 
	C225.099609,491.997467 226.083755,491.813171 227.066910,491.656952 
	C248.077042,488.318146 269.088928,484.990234 290.099426,481.653473 
	C292.725861,481.236359 295.376038,480.911682 297.964630,480.322205 
	C311.965851,477.133789 318.458527,468.057770 318.644745,451.543243 
	C318.726044,444.334259 317.893799,443.646210 310.949585,444.829132 
	C297.997192,447.035583 285.025299,449.128387 272.079559,451.372772 
	C253.068756,454.668671 233.821182,456.772034 215.071899,461.351349 
	C197.943100,465.534851 186.423233,476.057739 183.742538,494.198456 
	C182.849792,500.239838 183.232361,506.494873 183.304688,512.648987 
	C183.532043,531.992432 194.955902,545.994995 213.914459,549.618042 
	C228.609360,552.426270 243.416870,554.645203 259.017456,557.344543 
M471.653961,566.486938 
	C471.641602,521.661682 471.630890,476.836456 471.613190,432.011200 
	C471.612061,429.178711 471.538055,426.346283 471.531433,423.513763 
	C471.521362,419.203857 469.478058,417.526398 465.200714,418.329407 
	C459.642578,419.372925 454.063873,420.314911 448.478455,421.202789 
	C441.314972,422.341492 441.287689,422.299591 441.274200,429.645142 
	C441.237518,449.641510 441.151001,469.638214 441.252594,489.633942 
	C441.273071,493.664154 439.951508,495.667236 435.790039,496.336700 
	C415.913330,499.534302 396.078827,502.993134 376.213959,506.265839 
	C369.725128,507.334869 369.673859,507.205933 369.666168,500.373962 
	C369.644623,481.210693 369.661591,462.047424 369.632385,442.884216 
	C369.628174,440.128723 369.869415,437.297699 368.290558,434.513031 
	C361.086853,435.669281 354.021667,436.700653 346.996979,437.958374 
	C339.251221,439.345215 339.251312,439.435669 339.239441,447.460938 
	C339.174377,491.452850 339.048492,535.444885 339.123230,579.436584 
	C339.136505,587.242249 337.849213,595.026245 339.159271,602.870789 
	C340.385132,610.211060 343.997986,614.739990 350.700928,616.248535 
	C355.372925,617.300049 361.911285,613.717834 365.199066,608.363342 
	C368.439697,603.085632 369.638092,597.289917 369.636810,591.188354 
	C369.633545,575.691101 369.633179,560.193787 369.572021,544.696716 
	C369.560822,541.852478 369.665070,539.396179 373.305847,538.802124 
	C394.641876,535.321045 415.970337,531.792603 437.287506,528.197998 
	C440.292328,527.691345 441.257538,528.984070 441.245789,531.668274 
	C441.238495,533.334473 441.263336,535.000854 441.265106,536.667114 
	C441.281525,551.997009 441.128174,567.329651 441.382538,582.655579 
	C441.507874,590.208801 446.419189,596.308105 452.472656,597.564758 
	C458.815338,598.881348 465.102844,595.413391 468.662598,588.471069 
	C469.563080,586.714966 470.151764,584.780212 470.727417,582.880127 
	C472.257477,577.830017 471.485962,572.623291 471.653961,566.486938 
M590.591980,567.099304 
	C606.883545,561.971008 618.524536,548.719788 618.625610,533.841064 
	C618.933594,488.515930 618.849060,443.188202 619.001282,397.861786 
	C619.014343,393.981598 617.312927,392.787140 613.789124,393.378204 
	C607.717651,394.396606 601.674438,395.644897 595.569153,396.380707 
	C590.587402,396.981110 589.162048,399.324860 589.187073,404.282745 
	C589.377808,442.110077 589.294312,479.938904 589.255615,517.767212 
	C589.242798,530.249146 584.856567,535.961792 572.712585,538.336243 
	C560.798706,540.665710 548.777222,542.448975 536.794495,544.420715 
	C524.961365,546.367737 519.108765,541.494568 518.773682,529.478333 
	C518.727234,527.813110 518.759094,526.145630 518.758545,524.479187 
	C518.747131,488.817230 518.752441,453.155243 518.712341,417.493317 
	C518.704102,410.190369 517.764221,409.509857 510.422760,410.802582 
	C505.834534,411.610504 501.239807,412.383118 496.642151,413.135895 
	C489.004028,414.386444 488.988220,414.374329 488.986023,422.200012 
	C488.975342,460.194885 488.983429,498.189758 488.956696,536.184631 
	C488.952240,542.502014 488.509979,548.802795 489.237274,555.132812 
	C490.560211,566.646973 498.009796,575.658020 509.006042,578.224670 
	C513.917603,579.371094 519.046875,579.272095 523.932617,578.488708 
	C545.926880,574.962036 567.866882,571.097107 590.591980,567.099304 
M814.291870,410.499939 
	C814.291687,447.968964 814.290222,485.437958 814.294556,522.906982 
	C814.294861,525.238159 814.226868,527.577148 814.386292,529.899048 
	C814.892517,537.270935 819.867126,543.634399 825.766785,544.596436 
	C832.395386,545.677368 838.226746,542.143127 841.500793,534.947815 
	C843.179749,531.258118 843.713318,527.346130 843.686707,523.287842 
	C843.458435,488.498810 843.192383,453.709473 843.137695,418.919922 
	C843.107056,399.441620 843.339050,379.960480 843.717041,360.485718 
	C843.808594,355.769165 841.982727,354.653259 837.782471,355.435333 
	C831.569824,356.592194 825.340881,357.687195 819.087463,358.590637 
	C815.457092,359.115173 814.166687,360.773010 814.216797,364.538269 
	C814.416260,379.523163 814.294617,394.512329 814.291870,410.499939 
M481.052124,297.383209 
	C486.753387,322.031586 509.481689,337.240082 532.992920,332.139038 
	C562.524536,325.731842 577.705933,292.577698 563.303833,265.944061 
	C553.605713,248.009491 532.528748,239.125778 513.023254,244.751297 
	C490.426636,251.268311 477.158936,272.603333 481.052124,297.383209 
M402.764160,323.365540 
	C395.478790,324.167114 388.297913,325.464264 381.197845,327.342194 
	C356.532288,333.866119 339.022552,357.053894 338.220764,377.663757 
	C338.106720,380.595825 336.666809,382.049835 333.967682,383.009338 
	C323.608276,386.691925 315.314240,393.260193 309.010284,402.167297 
	C305.940704,406.504425 303.056244,411.127838 302.384064,416.794495 
	C307.788910,417.343811 311.094238,416.247375 314.013153,411.547058 
	C328.379333,388.413208 358.627625,383.845947 379.478729,401.222290 
	C384.406982,405.329285 387.411041,405.445862 393.309814,401.565704 
	C382.078583,385.316071 365.595856,379.825745 346.748138,379.273132 
	C346.903809,377.338043 346.891144,376.178406 347.102661,375.061188 
	C351.050903,354.203125 365.922211,339.186066 387.118317,334.897797 
	C393.792297,333.547577 400.591400,332.825592 407.287659,331.572754 
	C414.367218,330.248169 422.072357,330.732117 427.618042,324.702240 
	C434.523743,317.193604 443.307159,313.053650 453.125916,310.903900 
	C454.951935,310.504120 456.928650,310.515961 456.512024,307.744568 
	C456.124329,305.165649 454.742493,304.811218 452.284973,305.035156 
	C441.227997,306.042664 431.730011,310.296417 423.854736,318.092010 
	C421.776093,320.149628 419.570831,321.763214 416.579651,322.054596 
	C412.276031,322.473755 407.973663,322.905884 402.764160,323.365540 
M586.434937,273.136475 
	C587.497070,277.356445 588.655151,280.804291 593.722839,282.708588 
	C619.804626,292.509644 643.654358,306.251038 664.746033,324.624298 
	C669.055115,328.377991 672.944641,332.687531 678.592346,336.231842 
	C676.886169,331.359161 674.143921,328.240234 671.445801,325.150940 
	C651.638184,302.471954 626.085449,288.528046 598.588379,277.672211 
	C595.154297,276.316437 592.797607,274.691925 592.065796,271.047150 
	C590.964661,265.563110 588.392761,260.722504 585.386414,256.098969 
	C571.669312,235.003403 552.374695,222.490936 527.157898,221.700577 
	C503.849060,220.970032 484.289398,230.104233 470.170654,249.292084 
	C468.244354,251.909973 466.274292,253.209290 462.885406,253.502411 
	C446.487335,254.920837 430.715973,258.922119 416.078827,266.616455 
	C407.350281,271.204773 399.006836,276.442108 392.381744,283.923157 
	C398.391083,280.998505 404.120972,277.622620 410.078125,274.711914 
	C427.459229,266.219452 445.855072,261.308350 465.119904,259.568542 
	C468.200989,259.290314 471.068420,259.018188 473.232147,255.770447 
	C488.578705,232.735367 510.672485,224.070053 537.222046,228.979980 
	C561.649475,233.497467 578.213684,248.550323 586.434937,273.136475 
M618.585632,344.827515 
	C624.417969,348.695923 630.092834,352.763611 635.399475,357.350616 
	C641.352722,362.496552 647.916382,362.682281 655.152283,358.097137 
	C654.960449,356.089142 653.349731,355.010834 652.122131,353.726349 
	C647.052185,348.421478 641.609558,343.507874 635.888855,338.923615 
	C622.246277,327.991150 607.118713,319.762115 590.561096,314.108826 
	C586.861694,312.845734 584.701111,313.408020 583.337585,317.394684 
	C581.049683,324.083832 577.087585,329.857330 572.509827,335.215302 
	C571.278625,336.656342 570.174133,338.205688 569.011414,339.705292 
	C573.280701,337.979675 577.137085,335.791260 579.538208,332.200104 
	C582.043335,328.453369 584.818359,328.460724 588.524109,329.806549 
	C598.903381,333.575928 608.757996,338.350739 618.585632,344.827515 
M479.088898,343.670715 
	C459.215607,349.170288 441.979584,359.142487 427.717712,374.096252 
	C423.410187,378.612793 423.651337,379.864929 428.980957,383.114532 
	C429.834290,383.634857 430.795044,384.026825 431.538147,384.671722 
	C434.253296,387.028107 436.274292,386.372375 438.743073,383.922058 
	C453.795288,368.982239 472.026520,359.774292 492.457733,354.617676 
	C494.415924,354.123444 496.730194,354.105621 498.398468,351.739349 
	C494.761414,349.832458 491.433105,348.038666 488.059570,346.334442 
	C485.455353,345.018921 483.242523,342.526825 479.088898,343.670715 
M326.837555,347.398010 
	C331.207092,340.696808 336.146606,334.425690 341.141388,328.185303 
	C345.974884,322.146423 351.869904,316.930786 355.472504,309.953491 
	C328.829041,329.838318 311.665680,356.411987 300.743439,387.386688 
	C305.114349,383.927460 308.229401,379.472565 310.892487,374.740784 
	C315.950867,365.753113 320.575439,356.517365 326.837555,347.398010 
M701.365601,321.142273 
	C699.493530,319.808685 698.411133,317.033203 695.556152,317.593842 
	C694.546204,318.869873 695.093628,319.822510 695.704529,320.556854 
	C702.826660,329.117859 709.513367,338.006775 715.895752,347.128723 
	C717.321045,349.165894 719.078003,349.102814 721.562927,347.656158 
	C716.514771,337.733398 709.531799,329.437012 701.365601,321.142273 
z"/>
<path fill="#000000" opacity="1.000000" stroke="none" 
	d="
M885.572266,633.827087 
	C874.651367,638.446533 863.220581,639.094055 852.119751,641.071411 
	C821.153809,646.587219 790.103333,651.629272 759.084412,656.847046 
	C749.404114,658.475342 739.678284,659.862427 730.042664,661.719727 
	C710.988037,665.392700 697.115295,676.748779 685.539734,691.746155 
	C675.362000,704.932495 664.638672,717.696838 654.203857,730.685791 
	C639.642639,748.811096 622.536865,763.831848 601.492310,774.185242 
	C616.188171,771.226562 629.412415,765.037231 641.659180,756.586060 
	C656.964722,746.024231 668.520874,731.765869 680.107849,717.555664 
	C687.477295,708.517822 694.970215,699.552490 701.819885,690.127380 
	C708.000305,681.622925 715.879517,676.977234 726.222168,675.383545 
	C742.002808,672.951904 757.684021,669.874634 773.408936,667.080139 
	C774.711792,666.848511 776.034485,666.533386 777.293213,667.263611 
	C776.858093,677.471741 766.186584,690.306763 755.475586,692.971008 
	C752.445374,693.724670 750.538635,695.263062 748.717407,697.558411 
	C708.804016,747.863098 659.449707,784.631409 596.983643,802.036316 
	C556.083496,813.432312 514.684265,815.460327 472.904938,806.648804 
	C428.115448,797.202393 387.630219,778.656799 351.848938,750.054810 
	C341.563049,741.832764 331.724640,733.066772 322.633575,723.520630 
	C320.197327,720.962402 317.859802,720.278320 314.261505,720.893982 
	C263.244354,729.622742 212.193573,738.155090 161.150421,746.731812 
	C153.549271,748.009094 147.797684,744.610107 146.114807,737.864807 
	C144.587891,731.744690 148.526108,724.676575 155.056122,722.448364 
	C162.811615,719.801941 171.005753,719.157654 179.029449,717.797058 
	C220.193710,710.817139 261.383270,703.986694 302.556976,697.062317 
	C334.380005,691.710449 366.204010,686.362793 398.004181,680.877502 
	C410.100342,678.791016 419.665680,681.785522 427.215302,692.157043 
	C436.483582,704.889648 449.710907,712.713684 463.947052,718.934265 
	C466.483643,720.042603 469.398407,720.499329 471.360199,722.599609 
	C471.600983,724.459045 470.133575,724.952454 469.174408,725.773315 
	C458.927612,734.542786 452.372040,745.144348 450.598938,758.897583 
	C448.643890,774.062439 456.536926,788.783936 471.455750,794.418152 
	C466.434601,787.198120 461.965698,780.444885 460.400146,772.319519 
	C456.314636,751.115662 466.863556,736.602478 483.255432,727.269592 
	C485.271637,726.121643 487.456207,726.854919 489.600647,727.233032 
	C518.699829,732.363281 546.975891,728.666138 574.481384,718.627502 
	C587.533203,713.864014 597.333130,704.408752 605.884277,693.788452 
	C620.408325,675.750244 634.800232,657.602600 649.032227,639.333069 
	C665.768005,617.849426 687.911987,606.272644 714.455627,601.557434 
	C763.586731,592.830078 812.861572,584.974915 862.046265,576.578735 
	C874.505920,574.451782 886.941895,572.186035 899.392334,570.004822 
	C907.707092,568.548096 913.726562,570.878967 916.160095,576.451416 
	C919.858459,584.920227 914.450256,593.469360 904.221252,595.192200 
	C897.656921,596.297852 891.060364,597.211487 884.492859,598.298889 
	C842.953979,605.176270 801.411072,612.030090 759.887756,619.000244 
	C747.089172,621.148682 734.349792,623.649231 721.579163,625.965637 
	C696.112000,630.584656 676.039856,643.675659 660.255554,664.069153 
	C648.737915,678.950134 636.514526,693.283386 624.694092,707.932068 
	C609.555847,726.692383 590.033813,737.609802 566.276489,741.388123 
	C556.587341,742.929077 546.886230,744.625732 537.448486,747.401306 
	C525.559448,750.897766 515.327087,756.672302 509.792114,768.547607 
	C506.254791,776.136963 505.855377,783.900757 508.358948,791.856995 
	C508.847412,793.409424 509.608856,794.631531 511.456055,794.535461 
	C513.570251,794.425598 513.514832,792.835022 513.655701,791.292358 
	C515.645325,769.501587 523.489807,761.008972 545.138550,756.637024 
	C557.368164,754.167236 569.758789,752.627991 581.922974,749.758789 
	C602.397644,744.929321 618.670898,733.621582 631.969910,717.758545 
	C643.636841,703.842224 655.429504,689.997375 666.402283,675.540710 
	C683.860901,652.538818 706.970154,639.792175 735.023926,634.590576 
	C777.719055,626.674438 820.609680,619.942688 863.419434,612.720703 
	C867.843384,611.974426 872.267029,611.021973 876.727051,610.742432 
	C883.389648,610.324768 888.346313,613.392761 890.469543,618.591675 
	C892.721680,624.106262 891.344238,628.630005 885.572266,633.827087 
M401.216125,733.195862 
	C397.098602,730.972839 393.830170,732.112671 391.553314,735.953674 
	C389.626801,739.203552 390.167480,742.394470 392.975983,744.905212 
	C395.516754,747.176697 398.338745,747.251099 401.057922,745.041931 
	C404.229462,742.465332 404.785736,738.342407 402.512787,734.379517 
	C402.353790,734.102234 402.063232,733.900452 401.216125,733.195862 
M411.062012,752.301941 
	C411.592743,756.423645 414.128082,758.517212 418.090363,758.445618 
	C421.472473,758.384460 424.196198,754.636780 423.933990,751.054260 
	C423.674011,747.501831 421.476501,745.652100 418.200226,745.320435 
	C413.816132,744.876526 411.348785,747.058105 411.062012,752.301941 
M550.191284,778.683228 
	C546.094482,782.665039 543.760315,787.311584 544.887756,793.526062 
	C548.964355,781.100037 558.939392,776.118042 570.422791,772.925781 
	C562.977173,772.001892 556.367126,773.401123 550.191284,778.683228 
M375.644287,727.817383 
	C376.552338,729.585632 377.755066,730.869751 379.901703,729.785706 
	C381.344391,729.057190 382.050354,727.769043 381.644714,726.113220 
	C381.310852,724.750366 380.469177,723.625305 379.027496,723.542480 
	C376.606476,723.403381 375.474823,724.796387 375.644287,727.817383 
z"/>
<path fill="#000000" opacity="1.000000" stroke="none" 
	d="
M346.311859,236.258514 
	C351.609314,233.062759 356.527740,229.929993 361.626495,227.125061 
	C364.516693,225.535080 367.649933,224.046463 371.143555,225.067856 
	C375.552734,226.356873 379.070679,228.838684 380.035919,233.590195 
	C380.972900,238.202957 378.731201,241.738953 375.094818,244.269699 
	C367.994812,249.210953 360.650848,253.805298 353.604645,258.819702 
	C322.546204,280.922394 297.326355,308.500458 277.240784,340.827820 
	C275.686584,343.329254 274.088013,345.458130 270.967560,345.989502 
	C262.941528,347.356232 254.929657,348.806305 246.903320,350.171387 
	C245.956650,350.332397 244.901001,350.469574 243.019791,348.718292 
	C268.135376,303.014679 301.831451,265.018372 346.311859,236.258514 
z"/>
<path fill="#000000" opacity="1.000000" stroke="none" 
	d="
M769.815552,292.296265 
	C770.878540,293.796783 772.041687,294.866943 771.741821,297.002747 
	C766.325195,299.660614 759.963074,299.347900 754.168274,301.160736 
	C746.749390,303.481598 741.778381,301.047943 736.576538,295.186127 
	C709.921936,265.150330 677.529114,243.173920 640.136169,228.534866 
	C637.678467,227.572693 635.224670,226.371811 633.105103,224.822357 
	C628.701599,221.603317 627.514465,215.923447 629.854248,210.947449 
	C632.090332,206.192078 636.880005,203.915802 642.341553,205.432266 
	C659.643982,210.236511 675.469360,218.500198 690.962463,227.254364 
	C720.937744,244.191498 747.129639,265.869690 769.815552,292.296265 
z"/>
<path fill="#000000" opacity="1.000000" stroke="none" 
	d="
M883.454956,291.303162 
	C889.597900,290.182343 895.323425,289.171844 901.049438,288.164276 
	C907.699524,286.994110 913.542725,290.023712 915.163879,295.479614 
	C916.971375,301.562592 913.700562,307.761749 906.907349,309.934418 
	C898.010132,312.779999 888.652466,313.551666 879.488892,315.162842 
	C845.592285,321.122711 811.664490,326.905762 777.747375,332.748749 
	C776.438416,332.974274 775.123779,333.222961 773.801880,333.307587 
	C766.010620,333.806366 760.889709,330.111084 760.037842,323.428772 
	C759.281067,317.492737 763.789429,312.215118 771.073669,310.935394 
	C805.932434,304.811493 840.805298,298.767242 875.673096,292.694885 
	C878.127869,292.267395 880.582825,291.841492 883.454956,291.303162 
z"/>
<path fill="#000000" opacity="1.000000" stroke="none" 
	d="
M170.644882,398.885803 
	C167.421722,399.395721 164.636749,399.922516 161.827133,400.195648 
	C155.431458,400.817322 150.953262,397.673370 149.595428,391.758911 
	C148.297882,386.107086 151.129791,380.718414 156.774429,378.563568 
	C162.403336,376.414673 168.434021,375.903198 174.304382,374.877899 
	C203.264404,369.819916 232.266418,365.002502 261.253540,360.099670 
	C262.886200,359.823517 264.521606,359.418915 266.431671,360.351807 
	C266.363037,363.907013 263.555328,366.440460 262.609924,369.626740 
	C258.866577,382.243134 249.890884,386.160217 237.467575,387.705566 
	C215.220398,390.472839 193.191833,394.997437 170.644882,398.885803 
z"/>
<path fill="#000000" opacity="1.000000" stroke="none" 
	d="
M227.107071,422.274719 
	C209.802750,425.243042 192.928574,428.174103 176.044785,431.048737 
	C174.415695,431.326111 172.726181,431.343323 171.066193,431.327515 
	C165.002090,431.269836 161.062210,428.021332 160.205460,422.457031 
	C159.454147,417.577576 163.028046,412.119965 168.444916,410.930573 
	C175.902649,409.293030 183.465881,408.117279 191.005615,406.875519 
	C208.878601,403.932007 226.764664,401.067963 244.644775,398.167725 
	C250.034073,397.293518 250.351730,398.313477 249.509644,403.687042 
	C247.674408,415.398132 242.159775,422.376434 229.484634,421.819885 
	C228.841721,421.791656 228.184891,422.080536 227.107071,422.274719 
z"/>
<path fill="#000000" opacity="1.000000" stroke="none" 
	d="
M817.909302,280.726562 
	C832.549683,278.107849 846.758179,275.511200 860.979675,272.987549 
	C864.023132,272.447449 867.374695,272.129578 868.115662,276.220184 
	C868.787537,279.929199 866.212280,281.736542 862.983521,282.346619 
	C848.623169,285.059967 834.246094,287.685822 819.863525,290.279663 
	C811.855896,291.723724 803.826660,293.047913 795.805420,294.416046 
	C792.715515,294.943054 789.677124,294.428741 789.076721,291.019379 
	C788.434692,287.373871 791.330933,285.697998 794.476074,285.069244 
	C802.125183,283.540131 809.811035,282.194336 817.909302,280.726562 
z"/>
<path fill="#000000" opacity="1.000000" stroke="none" 
	d="
M938.378296,566.971375 
	C946.114624,570.871582 948.084473,577.021118 943.834656,582.871399 
	C940.678345,587.216370 935.509827,588.918762 931.153137,587.048401 
	C926.835876,585.194763 924.161560,580.169495 925.060608,575.600037 
	C926.128662,570.171509 929.978638,566.874634 935.496033,566.705261 
	C936.322021,566.679932 937.152832,566.808533 938.378296,566.971375 
z"/>
<path fill="#000000" opacity="1.000000" stroke="none" 
	d="
M106.345032,714.420654 
	C102.244621,717.472534 98.230545,718.401489 94.034500,715.621765 
	C90.478661,713.266296 89.242004,709.723022 89.765755,705.636047 
	C90.296371,701.495483 92.566132,698.563232 96.638969,697.286499 
	C101.137192,695.876282 104.890450,697.245850 107.707993,700.859619 
	C110.591553,704.558105 110.097397,709.282349 106.345032,714.420654 
z"/>
<path fill="#000000" opacity="1.000000" stroke="none" 
	d="
M126.416122,400.983215 
	C122.919647,398.372192 121.258598,395.247253 121.978775,391.251343 
	C122.917473,386.042877 127.881111,382.790344 133.143600,383.745270 
	C137.804031,384.590881 140.873123,389.089447 140.268280,394.188293 
	C139.664185,399.280701 135.250473,402.802277 130.070465,402.207306 
	C128.945007,402.078033 127.867401,401.532166 126.416122,400.983215 
z"/>
<path fill="#000000" opacity="1.000000" stroke="none" 
	d="
M926.497437,291.338989 
	C931.391602,289.239685 934.768555,290.216003 936.335388,293.963562 
	C937.872681,297.640472 935.959961,300.227203 933.033875,301.840973 
	C929.721008,303.668152 926.837097,302.206299 924.890564,299.266144 
	C923.021973,296.443634 924.126770,293.874969 926.497437,291.338989 
z"/>
<path fill="#000000" opacity="1.000000" stroke="none" 
	d="
M538.156006,306.300110 
	C525.162170,313.270325 513.747986,311.730865 506.521759,302.274231 
	C499.226379,292.727051 500.490448,278.741760 509.338806,271.107208 
	C518.636414,263.085022 532.607361,263.580109 540.987610,272.228699 
	C549.589844,281.106384 549.619690,294.528809 541.035583,303.744232 
	C540.246155,304.591736 539.327148,305.318542 538.156006,306.300110 
z"/>
</svg>