<svg xmlns="http://www.w3.org/2000/svg" xmlns:xlink="http://www.w3.org/1999/xlink" width="500" zoomAndPan="magnify" viewBox="0 0 375 374.999991" height="500" preserveAspectRatio="xMidYMid meet" version="1.0"><defs><g/><clipPath id="456b1851d6"><path d="M 12.386719 22 L 362 22 L 362 255 L 12.386719 255 Z M 12.386719 22 " clip-rule="nonzero"/></clipPath></defs><path fill="#17161e" d="M 100.671875 38.308594 L 54.34375 49.933594 L 54.34375 35.707031 C 54.34375 33.425781 55.695312 31.382812 57.738281 30.5 C 61.414062 28.917969 67.695312 26.453125 74.71875 24.871094 C 83.460938 22.875 90.578125 22.734375 94.855469 22.921875 C 97.324219 23.011719 99.324219 24.917969 99.554688 27.335938 Z M 271.746094 38.121094 L 318.070312 49.746094 L 318.070312 34.867188 C 318.070312 33.007812 317 31.335938 315.28125 30.589844 C 311.746094 29.011719 305.140625 26.359375 297.652344 24.640625 C 287.140625 22.269531 278.347656 22.640625 274.394531 23.011719 C 273.140625 23.152344 272.164062 24.175781 272.117188 25.429688 Z M 271.746094 38.121094 " fill-opacity="1" fill-rule="nonzero"/><g clip-path="url(#456b1851d6)"><path fill="#d7d9dd" d="M 47.878906 40.402344 C 52.390625 35.242188 58.296875 35.707031 77.414062 33.660156 C 85.878906 32.730469 94.300781 31.429688 102.765625 30.40625 C 125.882812 27.617188 125.554688 27.617188 127.648438 27.382812 C 148.996094 24.917969 202.765625 18.691406 232.300781 25.988281 C 235.511719 26.777344 244.210938 29.148438 256.257812 30.171875 C 262.769531 30.730469 263.511719 30.3125 271.605469 30.871094 C 274.816406 31.101562 284.304688 31.847656 296.488281 34.125 C 303.699219 35.472656 312.023438 37.378906 321.140625 40.167969 C 333.746094 60.390625 340.910156 78.476562 345.09375 91.542969 C 349.46875 105.070312 351.46875 115.71875 354.164062 129.898438 C 356.675781 143.238281 359.980469 160.859375 360.910156 183.828125 C 362.117188 212.882812 362.539062 227.667969 353.003906 239.152344 C 344.304688 249.613281 331.652344 253.238281 328.816406 254.027344 C 323.839844 255.46875 291.28125 157.511719 281.976562 164.300781 C 280.210938 165.601562 93.972656 158.8125 87.832031 171.367188 C 76.34375 194.890625 60.390625 249.238281 54.34375 249.84375 C 47.183594 250.542969 44.625 257.050781 33.460938 251.238281 C 32.25 250.589844 26.808594 247.660156 21.367188 239.152344 C 12.808594 225.714844 12.53125 211.304688 12.53125 201.027344 C 12.484375 171.460938 12.484375 156.675781 15.320312 138.265625 C 16.390625 131.382812 21.878906 95.820312 32.296875 75.128906 C 35.042969 69.738281 39.136719 63.273438 43.226562 51.792969 C 45.832031 44.492188 45.648438 42.957031 47.878906 40.402344 Z M 47.878906 40.402344 " fill-opacity="1" fill-rule="nonzero"/></g><path fill="#333232" d="M 40.113281 253.980469 C 38.761719 251.796875 41.554688 248.21875 44.949219 242.078125 C 45.832031 240.453125 48.902344 232.410156 55.042969 216.371094 C 63.273438 194.753906 62.34375 195.449219 67.925781 181.503906 C 74.53125 164.949219 74.066406 168.484375 78.625 156.535156 C 78.902344 155.746094 83.832031 142.914062 89.789062 133.617188 C 90.34375 132.734375 90.8125 132.082031 91.042969 131.757812 C 95.460938 125.386719 100.066406 121.808594 102.066406 120.132812 C 104.066406 118.460938 113.324219 110.417969 118.019531 99.074219 C 120.859375 92.191406 121.277344 86.101562 122.53125 86.195312 C 123.789062 86.289062 123.042969 92.285156 126.71875 97.679688 C 129.277344 101.351562 132.949219 103.351562 136.019531 104.511719 C 204.488281 103.675781 229.652344 103.863281 232.90625 104.511719 C 233.230469 104.558594 234.675781 104.929688 236.488281 104.511719 C 238.90625 103.953125 240.859375 102.328125 242.675781 99.863281 C 247.371094 93.539062 247.1875 87.3125 248.394531 87.3125 C 249.464844 87.3125 249.558594 92.144531 251.324219 97.398438 C 253.1875 102.839844 256.300781 106.464844 262.488281 113.53125 C 277.09375 130.175781 276.816406 129.804688 277.046875 130.128906 C 279.328125 132.917969 284.023438 138.960938 295.511719 165.136719 C 299.699219 174.714844 302.351562 181.410156 306.816406 192.707031 C 324.535156 237.523438 324.535156 243.984375 328.398438 248.636719 C 328.863281 249.191406 330.628906 251.191406 330.070312 252.867188 C 329.328125 255.003906 325.1875 255.328125 322.722656 255.5625 C 319.558594 255.839844 316.117188 256.167969 312.953125 254.308594 C 310.398438 252.867188 309.09375 250.632812 307 245.9375 C 303.417969 237.847656 288.394531 201.585938 282.347656 184.382812 C 281.1875 181.128906 270.441406 171.738281 257.371094 171.878906 C 252.535156 171.925781 217.183594 173.085938 183.882812 174.015625 C 167 174.480469 135.089844 173.644531 120.765625 172.25 C 112.019531 171.414062 103.324219 174.203125 96.765625 180.0625 C 95.925781 180.804688 95.089844 181.59375 94.253906 182.476562 C 85.972656 190.984375 83.183594 200.5625 78.113281 216.511719 C 75.695312 224.132812 70.902344 236.917969 63.832031 249.9375 C 62.296875 252.820312 59.554688 254.910156 56.390625 255.609375 C 48.671875 257.191406 41.832031 256.816406 40.113281 253.980469 Z M 40.113281 253.980469 " fill-opacity="1" fill-rule="nonzero"/><path fill="#191a1c" d="M 99.136719 89.078125 L 96.160156 86.890625 L 96.207031 91.261719 Z M 99.136719 89.078125 " fill-opacity="1" fill-rule="nonzero"/><path fill="#191a1c" d="M 269.835938 101.117188 C 276.535156 101.117188 281.976562 95.679688 281.976562 88.984375 C 281.976562 82.289062 276.535156 76.851562 269.835938 76.851562 C 263.140625 76.851562 257.699219 82.289062 257.699219 88.984375 C 257.699219 95.679688 263.140625 101.117188 269.835938 101.117188 Z M 269.835938 78.664062 C 275.511719 78.664062 280.117188 83.265625 280.117188 88.9375 C 280.117188 94.609375 275.511719 99.210938 269.835938 99.210938 C 264.164062 99.210938 259.558594 94.609375 259.558594 88.9375 C 259.558594 83.265625 264.164062 78.664062 269.835938 78.664062 Z M 269.835938 78.664062 " fill-opacity="1" fill-rule="nonzero"/><path fill="#191a1c" d="M 100.4375 56.535156 C 100.625 57.695312 101.277344 58.71875 102.253906 59.371094 C 102.996094 59.882812 103.878906 60.160156 104.765625 60.160156 C 105.042969 60.160156 105.277344 60.160156 105.554688 60.066406 C 106.71875 59.882812 107.742188 59.230469 108.390625 58.253906 C 109.089844 57.277344 109.324219 56.113281 109.136719 54.953125 L 107.460938 45.5625 C 107.277344 44.398438 106.625 43.375 105.648438 42.726562 C 104.671875 42.027344 103.507812 41.796875 102.347656 41.980469 C 101.183594 42.167969 100.160156 42.820312 99.507812 43.796875 C 98.8125 44.769531 98.578125 45.933594 98.765625 47.097656 Z M 100.625 44.632812 C 101.089844 43.980469 101.789062 43.515625 102.578125 43.375 C 102.765625 43.328125 102.949219 43.328125 103.136719 43.328125 C 103.742188 43.328125 104.347656 43.515625 104.855469 43.886719 C 105.507812 44.351562 105.972656 45.050781 106.113281 45.839844 L 107.789062 55.230469 C 107.925781 56.023438 107.742188 56.8125 107.277344 57.511719 C 106.8125 58.207031 106.113281 58.625 105.324219 58.765625 C 104.53125 58.90625 103.742188 58.71875 103.042969 58.253906 C 102.390625 57.789062 101.925781 57.089844 101.789062 56.300781 L 100.113281 46.910156 C 99.972656 46.121094 100.160156 45.328125 100.625 44.632812 Z M 100.625 44.632812 " fill-opacity="1" fill-rule="nonzero"/><path fill="#191a1c" d="M 295.511719 55.046875 L 287.28125 67.367188 L 303.046875 67.367188 Z M 295.464844 57.554688 L 300.628906 66.019531 L 289.792969 66.019531 Z M 295.464844 57.554688 " fill-opacity="1" fill-rule="nonzero"/><path fill="#191a1c" d="M 294.90625 126.921875 C 301.605469 126.921875 307.046875 121.480469 307.046875 114.785156 C 307.046875 108.09375 301.605469 102.652344 294.90625 102.652344 C 288.210938 102.652344 282.769531 108.09375 282.769531 114.785156 C 282.769531 121.480469 288.210938 126.921875 294.90625 126.921875 Z M 294.90625 104.464844 C 300.582031 104.464844 305.1875 109.070312 305.1875 114.742188 C 305.1875 120.414062 300.582031 125.015625 294.90625 125.015625 C 289.234375 125.015625 284.628906 120.414062 284.628906 114.742188 C 284.628906 109.070312 289.234375 104.464844 294.90625 104.464844 Z M 294.90625 104.464844 " fill-opacity="1" fill-rule="nonzero"/><path fill="#191a1c" d="M 321.652344 96.933594 C 325.976562 96.933594 329.46875 93.402344 329.46875 89.125 C 329.46875 84.800781 325.933594 81.3125 321.652344 81.3125 C 317.375 81.3125 313.839844 84.847656 313.839844 89.125 C 313.792969 93.402344 317.328125 96.933594 321.652344 96.933594 Z M 321.652344 82.476562 C 325.328125 82.476562 328.304688 85.449219 328.304688 89.125 C 328.304688 92.796875 325.328125 95.773438 321.652344 95.773438 C 317.976562 95.773438 315 92.796875 315 89.125 C 315 85.40625 317.976562 82.476562 321.652344 82.476562 Z M 321.652344 82.476562 " fill-opacity="1" fill-rule="nonzero"/><path fill="#191a1c" d="M 290.117188 119.714844 L 290.953125 120.550781 L 295.28125 115.902344 L 300.210938 120.738281 L 301.046875 119.855469 L 296.117188 115.019531 L 300.582031 110.183594 L 299.699219 109.347656 L 295.234375 114.183594 L 290.816406 109.8125 L 289.976562 110.648438 L 294.441406 115.066406 Z M 290.117188 119.714844 " fill-opacity="1" fill-rule="nonzero"/><path fill="#191a1c" d="M 294.90625 76.105469 C 301.605469 76.105469 307.046875 70.667969 307.046875 63.972656 C 307.046875 57.277344 301.605469 51.839844 294.90625 51.839844 C 288.210938 51.839844 282.769531 57.277344 282.769531 63.972656 C 282.769531 70.667969 288.210938 76.105469 294.90625 76.105469 Z M 294.90625 53.652344 C 300.582031 53.652344 305.1875 58.253906 305.1875 63.925781 C 305.1875 69.597656 300.582031 74.199219 294.90625 74.199219 C 289.234375 74.199219 284.628906 69.597656 284.628906 63.925781 C 284.628906 58.253906 289.234375 53.652344 294.90625 53.652344 Z M 294.90625 53.652344 " fill-opacity="1" fill-rule="nonzero"/><path fill="#191a1c" d="M 266.070312 60.113281 C 266.347656 60.160156 266.582031 60.207031 266.859375 60.207031 C 267.746094 60.207031 268.628906 59.925781 269.371094 59.417969 C 270.347656 58.71875 271 57.742188 271.1875 56.578125 L 272.859375 47.1875 C 273.046875 46.027344 272.816406 44.863281 272.117188 43.886719 C 271.417969 42.910156 270.441406 42.261719 269.28125 42.074219 C 266.90625 41.65625 264.582031 43.238281 264.164062 45.65625 L 262.488281 55.046875 C 262.300781 56.207031 262.535156 57.371094 263.234375 58.347656 C 263.929688 59.324219 264.90625 59.882812 266.070312 60.113281 Z M 263.882812 55.230469 L 265.558594 45.839844 C 265.835938 44.398438 267.09375 43.328125 268.535156 43.328125 C 268.722656 43.328125 268.90625 43.328125 269.09375 43.375 C 269.882812 43.515625 270.582031 43.980469 271.046875 44.632812 C 271.511719 45.28125 271.699219 46.121094 271.558594 46.910156 L 269.882812 56.300781 C 269.746094 57.089844 269.28125 57.789062 268.628906 58.253906 C 267.976562 58.71875 267.140625 58.90625 266.347656 58.765625 C 265.558594 58.625 264.859375 58.160156 264.394531 57.511719 C 263.929688 56.8125 263.746094 56.023438 263.882812 55.230469 Z M 263.882812 55.230469 " fill-opacity="1" fill-rule="nonzero"/><path fill="#191a1c" d="M 320.910156 101.117188 C 327.605469 101.117188 333.046875 95.679688 333.046875 88.984375 C 333.046875 82.289062 327.605469 76.851562 320.910156 76.851562 C 314.210938 76.851562 308.769531 82.242188 308.769531 88.9375 C 308.769531 95.632812 314.210938 101.117188 320.910156 101.117188 Z M 320.910156 78.664062 C 326.582031 78.664062 331.1875 83.265625 331.1875 88.9375 C 331.1875 94.609375 326.582031 99.210938 320.910156 99.210938 C 315.234375 99.210938 310.628906 94.609375 310.628906 88.9375 C 310.628906 83.265625 315.234375 78.664062 320.910156 78.664062 Z M 320.910156 78.664062 " fill-opacity="1" fill-rule="nonzero"/><path fill="#191a1c" d="M 275.324219 83.21875 L 263.558594 83.21875 L 263.558594 94.980469 L 275.324219 94.980469 Z M 274.117188 93.820312 L 264.722656 93.820312 L 264.722656 84.429688 L 274.117188 84.429688 Z M 274.117188 93.820312 " fill-opacity="1" fill-rule="nonzero"/><path fill="#191a1c" d="M 185.089844 116.226562 C 185.089844 116.5 185.039062 116.761719 184.9375 117.011719 C 184.832031 117.261719 184.683594 117.484375 184.492188 117.675781 C 184.300781 117.867188 184.078125 118.015625 183.828125 118.117188 C 183.578125 118.222656 183.316406 118.273438 183.046875 118.273438 C 182.773438 118.273438 182.511719 118.222656 182.261719 118.117188 C 182.011719 118.015625 181.789062 117.867188 181.597656 117.675781 C 181.40625 117.484375 181.257812 117.261719 181.15625 117.011719 C 181.050781 116.761719 181 116.5 181 116.226562 C 181 115.957031 181.050781 115.695312 181.15625 115.445312 C 181.257812 115.195312 181.40625 114.972656 181.597656 114.78125 C 181.789062 114.589844 182.011719 114.441406 182.261719 114.339844 C 182.511719 114.234375 182.773438 114.183594 183.046875 114.183594 C 183.316406 114.183594 183.578125 114.234375 183.828125 114.339844 C 184.078125 114.441406 184.300781 114.589844 184.492188 114.78125 C 184.683594 114.972656 184.832031 115.195312 184.9375 115.445312 C 185.039062 115.695312 185.089844 115.957031 185.089844 116.226562 Z M 185.089844 116.226562 " fill-opacity="1" fill-rule="nonzero"/><path fill="#191a1c" d="M 179.789062 109.441406 C 178.671875 109.441406 177.742188 110.371094 177.742188 111.484375 C 177.742188 112.601562 178.671875 113.53125 179.789062 113.53125 C 180.90625 113.53125 181.835938 112.601562 181.835938 111.484375 C 181.835938 110.371094 180.90625 109.441406 179.789062 109.441406 Z M 179.789062 109.441406 " fill-opacity="1" fill-rule="nonzero"/><path fill="#191a1c" d="M 192.625 151.886719 L 179.835938 151.886719 C 178.066406 151.886719 176.625 153.328125 176.625 155.09375 C 176.625 156.863281 178.066406 158.304688 179.835938 158.304688 L 192.625 158.304688 C 194.394531 158.304688 195.835938 156.863281 195.835938 155.09375 C 195.835938 153.328125 194.394531 151.886719 192.625 151.886719 Z M 192.625 156.863281 L 179.835938 156.863281 C 178.859375 156.863281 178.023438 156.070312 178.023438 155.046875 C 178.023438 154.027344 178.8125 153.234375 179.835938 153.234375 L 192.625 153.234375 C 193.601562 153.234375 194.441406 154.027344 194.441406 155.046875 C 194.441406 156.070312 193.601562 156.863281 192.625 156.863281 Z M 192.625 156.863281 " fill-opacity="1" fill-rule="nonzero"/><path fill="#191a1c" d="M 188.160156 111.484375 C 188.160156 111.757812 188.109375 112.019531 188.003906 112.269531 C 187.902344 112.519531 187.753906 112.742188 187.5625 112.933594 C 187.371094 113.125 187.148438 113.273438 186.898438 113.375 C 186.648438 113.480469 186.386719 113.53125 186.113281 113.53125 C 185.84375 113.53125 185.582031 113.480469 185.332031 113.375 C 185.082031 113.273438 184.859375 113.125 184.667969 112.933594 C 184.476562 112.742188 184.328125 112.519531 184.222656 112.269531 C 184.121094 112.019531 184.070312 111.757812 184.070312 111.484375 C 184.070312 111.214844 184.121094 110.953125 184.222656 110.703125 C 184.328125 110.453125 184.476562 110.230469 184.667969 110.039062 C 184.859375 109.847656 185.082031 109.699219 185.332031 109.597656 C 185.582031 109.492188 185.84375 109.441406 186.113281 109.441406 C 186.386719 109.441406 186.648438 109.492188 186.898438 109.597656 C 187.148438 109.699219 187.371094 109.847656 187.5625 110.039062 C 187.753906 110.230469 187.902344 110.453125 188.003906 110.703125 C 188.109375 110.953125 188.160156 111.214844 188.160156 111.484375 Z M 188.160156 111.484375 " fill-opacity="1" fill-rule="nonzero"/><path fill="#191a1c" d="M 194.394531 111.484375 C 194.394531 111.757812 194.34375 112.019531 194.238281 112.269531 C 194.132812 112.519531 193.988281 112.742188 193.792969 112.933594 C 193.601562 113.125 193.382812 113.273438 193.128906 113.375 C 192.878906 113.480469 192.617188 113.53125 192.347656 113.53125 C 192.078125 113.53125 191.816406 113.480469 191.5625 113.375 C 191.3125 113.273438 191.09375 113.125 190.902344 112.933594 C 190.707031 112.742188 190.5625 112.519531 190.457031 112.269531 C 190.351562 112.019531 190.300781 111.757812 190.300781 111.484375 C 190.300781 111.214844 190.351562 110.953125 190.457031 110.703125 C 190.5625 110.453125 190.707031 110.230469 190.902344 110.039062 C 191.09375 109.847656 191.3125 109.699219 191.5625 109.597656 C 191.816406 109.492188 192.078125 109.441406 192.347656 109.441406 C 192.617188 109.441406 192.878906 109.492188 193.128906 109.597656 C 193.382812 109.699219 193.601562 109.847656 193.792969 110.039062 C 193.988281 110.230469 194.132812 110.453125 194.238281 110.703125 C 194.34375 110.953125 194.394531 111.214844 194.394531 111.484375 Z M 194.394531 111.484375 " fill-opacity="1" fill-rule="nonzero"/><path fill="#191a1c" d="M 191.371094 116.226562 C 191.371094 116.5 191.320312 116.761719 191.214844 117.011719 C 191.109375 117.261719 190.964844 117.484375 190.769531 117.675781 C 190.578125 117.867188 190.359375 118.015625 190.109375 118.117188 C 189.855469 118.222656 189.59375 118.273438 189.324219 118.273438 C 189.054688 118.273438 188.792969 118.222656 188.542969 118.117188 C 188.289062 118.015625 188.070312 117.867188 187.878906 117.675781 C 187.683594 117.484375 187.539062 117.261719 187.433594 117.011719 C 187.328125 116.761719 187.277344 116.5 187.277344 116.226562 C 187.277344 115.957031 187.328125 115.695312 187.433594 115.445312 C 187.539062 115.195312 187.683594 114.972656 187.878906 114.78125 C 188.070312 114.589844 188.289062 114.441406 188.542969 114.339844 C 188.792969 114.234375 189.054688 114.183594 189.324219 114.183594 C 189.59375 114.183594 189.855469 114.234375 190.109375 114.339844 C 190.359375 114.441406 190.578125 114.589844 190.769531 114.78125 C 190.964844 114.972656 191.109375 115.195312 191.214844 115.445312 C 191.320312 115.695312 191.371094 115.957031 191.371094 116.226562 Z M 191.371094 116.226562 " fill-opacity="1" fill-rule="nonzero"/><path fill="#191a1c" d="M 197.882812 116.226562 C 197.882812 116.5 197.832031 116.761719 197.726562 117.011719 C 197.621094 117.261719 197.476562 117.484375 197.28125 117.675781 C 197.089844 117.867188 196.871094 118.015625 196.621094 118.117188 C 196.367188 118.222656 196.109375 118.273438 195.835938 118.273438 C 195.566406 118.273438 195.304688 118.222656 195.054688 118.117188 C 194.800781 118.015625 194.582031 117.867188 194.390625 117.675781 C 194.195312 117.484375 194.050781 117.261719 193.945312 117.011719 C 193.839844 116.761719 193.789062 116.5 193.789062 116.226562 C 193.789062 115.957031 193.839844 115.695312 193.945312 115.445312 C 194.050781 115.195312 194.195312 114.972656 194.390625 114.78125 C 194.582031 114.589844 194.800781 114.441406 195.054688 114.339844 C 195.304688 114.234375 195.566406 114.183594 195.835938 114.183594 C 196.109375 114.183594 196.367188 114.234375 196.621094 114.339844 C 196.871094 114.441406 197.089844 114.589844 197.28125 114.78125 C 197.476562 114.972656 197.621094 115.195312 197.726562 115.445312 C 197.832031 115.695312 197.882812 115.957031 197.882812 116.226562 Z M 197.882812 116.226562 " fill-opacity="1" fill-rule="nonzero"/><path fill="#191a1c" d="M 296.722656 163.277344 C 288.164062 143.75 283.234375 133.242188 273.464844 123.25 C 266.582031 116.136719 263.699219 113.066406 258.722656 106.371094 C 256.535156 103.441406 254.90625 100.980469 253.464844 97.679688 C 251.652344 93.539062 250.535156 89.078125 250.210938 84.429688 L 260.070312 39.144531 L 260.070312 38.960938 C 260.070312 32.40625 254.765625 27.058594 248.210938 27.011719 C 245.882812 26.59375 211.09375 21.0625 187.558594 21.0625 C 187.371094 21.0625 187.136719 21.0625 186.953125 21.0625 C 161.136719 21.152344 125.507812 26.59375 123.136719 26.964844 C 119.414062 27.011719 115.972656 28.683594 113.601562 31.566406 C 111.230469 34.496094 110.347656 38.308594 111.136719 41.980469 L 120.300781 84.011719 C 120.019531 88.796875 118.902344 93.402344 117.042969 97.679688 C 115.601562 100.980469 113.925781 103.441406 111.789062 106.371094 C 106.8125 113.066406 104.390625 116.648438 97.042969 123.25 C 84.484375 134.59375 57.695312 205.539062 52.808594 218.183594 C 46.902344 233.292969 40.808594 246.449219 37.972656 253.097656 L 41.648438 255.375 C 44.484375 248.726562 49.925781 234.546875 55.785156 219.390625 C 60.71875 206.605469 63.367188 198.9375 65.507812 192.800781 C 68.019531 185.546875 69.832031 180.339844 73.878906 171.089844 L 74.671875 169.273438 C 84.671875 146.355469 89.230469 135.894531 99.277344 125.527344 C 106.300781 118.320312 109.183594 115.207031 114.300781 108.324219 C 116.625 105.210938 118.347656 102.605469 119.925781 99.027344 C 120.8125 96.980469 121.554688 94.890625 122.113281 92.703125 C 124.113281 100.46875 131.230469 106.046875 139.324219 106.046875 L 231.140625 106.046875 C 239.140625 106.046875 246.210938 100.5625 248.300781 92.9375 C 248.859375 95.027344 249.558594 97.074219 250.441406 99.027344 C 252.023438 102.605469 253.789062 105.257812 256.070312 108.324219 C 261.1875 115.207031 264.070312 118.320312 271.09375 125.527344 C 281.140625 135.894531 285.746094 146.355469 295.699219 169.273438 L 296.488281 171.089844 C 300.535156 180.339844 302.351562 185.546875 304.863281 192.800781 C 307 198.9375 309.652344 206.605469 314.582031 219.390625 C 320.675781 235.105469 326.957031 249.890625 328.769531 254.121094 L 331.839844 253.144531 C 330.023438 248.867188 323.699219 233.851562 317.652344 218.183594 C 312.769531 205.398438 299.699219 170.53125 296.722656 163.277344 Z M 247.140625 83.917969 L 247.09375 83.917969 C 247.09375 83.964844 247.09375 84.054688 247.09375 84.101562 L 245.511719 91.261719 C 244.070312 97.863281 238.117188 102.699219 231.324219 102.699219 L 139.507812 102.699219 C 132.71875 102.699219 126.765625 97.910156 125.324219 91.261719 L 114.4375 41.238281 C 113.835938 38.542969 114.484375 35.707031 116.253906 33.566406 C 118.019531 31.429688 120.578125 30.171875 123.371094 30.171875 L 123.601562 30.171875 C 123.972656 30.125 160.71875 24.40625 187.046875 24.316406 C 187.230469 24.316406 187.464844 24.316406 187.648438 24.316406 C 211.648438 24.316406 247.605469 30.125 247.976562 30.171875 L 248.253906 30.171875 C 253 30.171875 256.90625 33.984375 256.953125 38.726562 Z M 247.140625 83.917969 " fill-opacity="1" fill-rule="nonzero"/><path fill="#191a1c" d="M 242.765625 115.066406 C 230.347656 115.066406 220.207031 125.15625 220.207031 137.613281 C 220.207031 150.027344 230.300781 160.164062 242.765625 160.164062 C 255.1875 160.164062 265.324219 150.074219 265.324219 137.613281 C 265.324219 125.15625 255.234375 115.066406 242.765625 115.066406 Z M 242.765625 152.445312 C 234.582031 152.445312 227.929688 145.796875 227.929688 137.613281 C 227.929688 129.433594 234.582031 122.785156 242.765625 122.785156 C 250.953125 122.785156 257.605469 129.433594 257.605469 137.613281 C 257.652344 145.796875 250.953125 152.445312 242.765625 152.445312 Z M 242.765625 152.445312 " fill-opacity="1" fill-rule="nonzero"/><path fill="#191a1c" d="M 198.441406 109.441406 C 197.324219 109.441406 196.394531 110.371094 196.394531 111.484375 C 196.394531 112.601562 197.324219 113.53125 198.441406 113.53125 C 199.558594 113.53125 200.488281 112.601562 200.488281 111.484375 C 200.535156 110.371094 199.605469 109.441406 198.441406 109.441406 Z M 198.441406 109.441406 " fill-opacity="1" fill-rule="nonzero"/><path fill="#191a1c" d="M 79.320312 93.355469 C 78.019531 92.097656 75.925781 92.097656 74.625 93.355469 L 68.253906 99.445312 C 66.902344 100.746094 66.113281 102.558594 66.113281 104.417969 L 66.066406 111.8125 C 66.066406 113.71875 66.808594 115.53125 68.160156 116.925781 C 69.507812 118.273438 71.320312 119.0625 73.273438 119.0625 L 80.53125 119.109375 C 80.53125 119.109375 80.53125 119.109375 80.578125 119.109375 C 84.53125 119.109375 87.789062 115.902344 87.789062 111.90625 L 87.832031 104.371094 C 87.832031 102.46875 87.042969 100.652344 85.695312 99.351562 Z M 86.34375 111.90625 C 86.34375 115.113281 83.695312 117.714844 80.484375 117.714844 L 73.230469 117.667969 C 71.648438 117.667969 70.207031 117.066406 69.089844 115.949219 C 67.972656 114.832031 67.367188 113.347656 67.367188 111.8125 L 67.414062 104.417969 C 67.414062 102.933594 68.066406 101.445312 69.136719 100.421875 L 75.507812 94.332031 C 76.296875 93.585938 77.554688 93.585938 78.34375 94.332031 L 84.625 100.328125 C 85.742188 101.398438 86.34375 102.839844 86.34375 104.371094 Z M 86.34375 111.90625 " fill-opacity="1" fill-rule="nonzero"/><path fill="#191a1c" d="M 76.902344 65.785156 L 74.71875 68.761719 L 79.089844 68.714844 Z M 76.902344 65.785156 " fill-opacity="1" fill-rule="nonzero"/><path fill="#191a1c" d="M 68.207031 78.199219 L 74.578125 84.289062 C 75.230469 84.941406 76.066406 85.21875 76.949219 85.21875 C 77.785156 85.21875 78.625 84.894531 79.320312 84.289062 L 85.601562 78.292969 C 86.949219 76.988281 87.742188 75.175781 87.742188 73.269531 L 87.695312 65.738281 C 87.695312 61.785156 84.4375 58.53125 80.484375 58.53125 C 80.484375 58.53125 80.484375 58.53125 80.4375 58.53125 L 73.230469 58.578125 C 71.320312 58.578125 69.507812 59.324219 68.113281 60.71875 C 66.761719 62.066406 66.019531 63.878906 66.019531 65.832031 L 66.066406 73.222656 C 66.066406 75.128906 66.855469 76.941406 68.207031 78.199219 Z M 69.089844 61.695312 C 70.207031 60.578125 71.648438 59.972656 73.230469 59.972656 L 80.4375 59.925781 C 83.648438 59.925781 86.300781 62.53125 86.300781 65.738281 L 86.34375 73.269531 C 86.34375 74.804688 85.742188 76.246094 84.625 77.316406 L 78.34375 83.3125 C 77.554688 84.054688 76.296875 84.054688 75.507812 83.3125 L 69.136719 77.222656 C 68.066406 76.199219 67.414062 74.710938 67.414062 73.222656 L 67.367188 65.832031 C 67.414062 64.296875 68.019531 62.808594 69.089844 61.695312 Z M 69.089844 61.695312 " fill-opacity="1" fill-rule="nonzero"/><path fill="#191a1c" d="M 80.578125 86.800781 C 79.320312 88.101562 79.320312 90.191406 80.578125 91.496094 L 86.578125 97.769531 C 87.878906 99.121094 89.695312 99.910156 91.601562 99.910156 C 91.601562 99.910156 91.601562 99.910156 91.648438 99.910156 L 99.183594 99.863281 C 103.183594 99.863281 106.390625 96.609375 106.390625 92.609375 L 106.347656 85.40625 C 106.347656 83.5 105.601562 81.683594 104.207031 80.289062 C 102.855469 78.941406 101.042969 78.199219 99.136719 78.199219 C 99.136719 78.199219 99.136719 78.199219 99.089844 78.199219 L 91.695312 78.246094 C 89.832031 78.246094 88.019531 79.035156 86.71875 80.382812 Z M 91.648438 79.59375 L 99.042969 79.546875 C 100.578125 79.546875 102.066406 80.152344 103.183594 81.265625 C 104.300781 82.382812 104.902344 83.824219 104.902344 85.40625 L 104.949219 92.609375 C 104.949219 95.820312 102.347656 98.46875 99.136719 98.46875 L 91.601562 98.515625 C 90.113281 98.515625 88.625 97.910156 87.601562 96.796875 L 81.601562 90.519531 C 80.855469 89.726562 80.855469 88.472656 81.601562 87.683594 L 87.695312 81.3125 C 88.71875 80.242188 90.160156 79.640625 91.648438 79.59375 Z M 91.648438 79.59375 " fill-opacity="1" fill-rule="nonzero"/><path fill="#191a1c" d="M 76.902344 111.90625 L 79.089844 108.976562 L 74.71875 108.929688 Z M 76.902344 111.90625 " fill-opacity="1" fill-rule="nonzero"/><path fill="#191a1c" d="M 129.789062 115.066406 C 117.371094 115.066406 107.230469 125.15625 107.230469 137.613281 C 107.230469 150.027344 117.324219 160.164062 129.789062 160.164062 C 142.207031 160.164062 152.347656 150.074219 152.347656 137.613281 C 152.300781 125.15625 142.207031 115.066406 129.789062 115.066406 Z M 129.789062 152.445312 C 121.601562 152.445312 114.949219 145.796875 114.949219 137.613281 C 114.949219 129.433594 121.601562 122.785156 129.789062 122.785156 C 137.972656 122.785156 144.625 129.433594 144.625 137.613281 C 144.625 145.796875 137.972656 152.445312 129.789062 152.445312 Z M 129.789062 152.445312 " fill-opacity="1" fill-rule="nonzero"/><path fill="#191a1c" d="M 56.4375 86.890625 L 53.460938 89.078125 L 56.4375 91.261719 Z M 56.4375 86.890625 " fill-opacity="1" fill-rule="nonzero"/><path fill="#191a1c" d="M 175.882812 111.484375 C 175.882812 110.371094 174.953125 109.441406 173.835938 109.441406 C 172.71875 109.441406 171.789062 110.371094 171.789062 111.484375 C 171.789062 112.601562 172.71875 113.53125 173.835938 113.53125 C 174.953125 113.53125 175.882812 112.648438 175.882812 111.484375 Z M 175.882812 111.484375 " fill-opacity="1" fill-rule="nonzero"/><path fill="#191a1c" d="M 178.90625 116.226562 C 178.90625 116.5 178.855469 116.761719 178.75 117.011719 C 178.644531 117.261719 178.496094 117.484375 178.304688 117.675781 C 178.113281 117.867188 177.894531 118.015625 177.640625 118.117188 C 177.390625 118.222656 177.128906 118.273438 176.859375 118.273438 C 176.585938 118.273438 176.328125 118.222656 176.074219 118.117188 C 175.824219 118.015625 175.605469 117.867188 175.410156 117.675781 C 175.21875 117.484375 175.070312 117.261719 174.96875 117.011719 C 174.863281 116.761719 174.8125 116.5 174.8125 116.226562 C 174.8125 115.957031 174.863281 115.695312 174.96875 115.445312 C 175.070312 115.195312 175.21875 114.972656 175.410156 114.78125 C 175.605469 114.589844 175.824219 114.441406 176.074219 114.339844 C 176.328125 114.234375 176.585938 114.183594 176.859375 114.183594 C 177.128906 114.183594 177.390625 114.234375 177.640625 114.339844 C 177.894531 114.441406 178.113281 114.589844 178.304688 114.78125 C 178.496094 114.972656 178.644531 115.195312 178.75 115.445312 C 178.855469 115.695312 178.90625 115.957031 178.90625 116.226562 Z M 178.90625 116.226562 " fill-opacity="1" fill-rule="nonzero"/><path fill="#191a1c" d="M 53.507812 99.910156 L 60.902344 99.910156 C 62.761719 99.910156 64.578125 99.121094 65.878906 97.769531 L 72.019531 91.402344 C 73.273438 90.101562 73.273438 88.007812 72.019531 86.707031 L 66.066406 80.382812 C 64.761719 78.988281 62.949219 78.246094 61.042969 78.246094 L 53.507812 78.246094 C 49.507812 78.246094 46.296875 81.5 46.296875 85.449219 L 46.296875 92.703125 C 46.296875 96.65625 49.507812 99.910156 53.507812 99.910156 Z M 47.648438 85.449219 C 47.648438 82.242188 50.296875 79.59375 53.507812 79.59375 L 61.042969 79.59375 C 62.578125 79.59375 64.019531 80.242188 65.089844 81.3125 L 71.042969 87.636719 C 71.785156 88.425781 71.785156 89.683594 71.042969 90.472656 L 64.902344 96.839844 C 63.878906 97.910156 62.390625 98.5625 60.902344 98.5625 L 53.507812 98.5625 C 50.296875 98.5625 47.648438 95.910156 47.648438 92.703125 Z M 47.648438 85.449219 " fill-opacity="1" fill-rule="nonzero"/><path fill="#1ba6fd" d="M 126.71875 94.933594 L 122.53125 91.167969 C 121.183594 89.960938 120.765625 86.800781 120.394531 85.078125 L 112.207031 46.722656 C 111.878906 45.234375 111.324219 43.703125 112.113281 42.398438 L 114.253906 38.914062 Z M 244.300781 96.050781 L 248.488281 92.144531 C 249.835938 90.890625 250.722656 89.261719 251.140625 87.449219 L 259.789062 45.886719 C 260.117188 44.351562 259.882812 42.726562 259.09375 41.378906 L 256.953125 37.75 Z M 244.300781 96.050781 " fill-opacity="1" fill-rule="nonzero"/><g fill="#ffffff" fill-opacity="1"><g transform="translate(211.291615, 371.349967)"><g><path d="M 1.1875 -0.828125 C 1.1875 -1.179688 1.265625 -1.445312 1.421875 -1.625 C 1.585938 -1.800781 1.816406 -1.890625 2.109375 -1.890625 C 2.410156 -1.890625 2.644531 -1.800781 2.8125 -1.625 C 2.988281 -1.445312 3.078125 -1.179688 3.078125 -0.828125 C 3.078125 -0.492188 2.988281 -0.234375 2.8125 -0.046875 C 2.644531 0.140625 2.410156 0.234375 2.109375 0.234375 C 1.847656 0.234375 1.628906 0.148438 1.453125 -0.015625 C 1.273438 -0.179688 1.1875 -0.453125 1.1875 -0.828125 Z M 1.1875 -0.828125 "/></g></g></g></svg>