<svg xmlns="http://www.w3.org/2000/svg" xmlns:xlink="http://www.w3.org/1999/xlink" width="500" zoomAndPan="magnify" viewBox="0 0 375 374.999991" height="500" preserveAspectRatio="xMidYMid meet" version="1.0"><defs><g/><clipPath id="7cc5a406df"><path d="M 65 6 L 313 6 L 313 337.851562 L 65 337.851562 Z M 65 6 " clip-rule="nonzero"/></clipPath><clipPath id="ec3c5cf474"><path d="M 35.429688 5.601562 L 339.929688 5.601562 L 339.929688 337.851562 L 35.429688 337.851562 Z M 35.429688 5.601562 " clip-rule="nonzero"/></clipPath></defs><g clip-path="url(#7cc5a406df)"><path fill="#ffffff" d="M 312.230469 118.738281 C 289.316406 121.378906 249.886719 140.574219 241.050781 222.003906 C 232.140625 180.9375 224.105469 124.9375 170.953125 116.394531 C 225.796875 94.089844 239.3125 6.21875 239.3125 6.21875 C 239.3125 6.21875 241.050781 82.679688 312.230469 118.738281 Z M 124.292969 155.65625 C 120.871094 222.003906 84.257812 240.527344 65.253906 242.753906 C 124.285156 262.640625 125.699219 334.105469 125.734375 337.515625 L 125.734375 337.65625 C 125.734375 337.65625 130.273438 260.171875 182.429688 244.730469 C 139.574219 233.964844 127.316406 187.722656 124.292969 155.65625 Z M 124.292969 155.65625 " fill-opacity="1" fill-rule="nonzero"/></g><g clip-path="url(#ec3c5cf474)"><path fill="#141313" d="M 339.027344 122.816406 L 338.714844 122.644531 L 338.304688 122.441406 L 336.660156 121.625 L 333.390625 120.003906 L 326.9375 116.800781 C 322.683594 114.691406 318.445312 112.542969 314.304688 110.449219 L 311.203125 108.878906 L 309.660156 108.09375 C 309.199219 107.835938 308.796875 107.582031 308.367188 107.328125 L 303.292969 104.277344 L 299.519531 101.992188 L 298.894531 101.613281 L 298.578125 101.421875 C 298.464844 101.351562 298.460938 101.339844 298.394531 101.296875 L 295.996094 99.539062 L 294.253906 98.234375 L 293.378906 97.585938 L 292.535156 96.898438 C 291.40625 95.988281 290.269531 95.085938 289.121094 94.191406 C 287.980469 93.285156 286.910156 92.304688 285.789062 91.375 L 284.113281 89.964844 L 282.507812 88.480469 C 278.136719 84.601562 274.105469 80.304688 270.417969 75.710938 C 267.164062 71.691406 264.226562 67.398438 261.476562 62.972656 C 258.71875 58.554688 256.234375 53.9375 253.976562 49.195312 C 249.449219 39.714844 245.828125 29.699219 243.257812 19.355469 C 242.394531 15.847656 241.585938 12.304688 240.9375 8.746094 C 240.746094 7.757812 240.433594 6.460938 239.355469 6.25 C 238.925781 6.164062 238.648438 6.296875 238.457031 6.542969 C 238.132812 6.199219 237.621094 5.9375 236.835938 5.839844 C 235.304688 5.617188 235.257812 6.367188 234.984375 7.054688 C 229.941406 19.636719 225.183594 34.390625 222.320312 40.414062 C 219.292969 46.796875 216.40625 53.15625 213.242188 59.332031 C 210.078125 65.496094 206.605469 71.476562 202.414062 76.824219 C 201.75 77.652344 201.097656 78.488281 200.453125 79.328125 C 199.808594 80.167969 199.113281 80.949219 198.457031 81.773438 C 197.785156 82.574219 197.175781 83.4375 196.476562 84.203125 C 195.796875 84.992188 195.117188 85.78125 194.457031 86.582031 C 193.808594 87.398438 193.089844 88.132812 192.402344 88.902344 L 190.339844 91.203125 L 188.203125 93.402344 L 187.140625 94.515625 L 186.027344 95.550781 L 183.808594 97.644531 C 183.4375 97.996094 183.035156 98.292969 182.652344 98.625 L 182.363281 98.867188 L 181.792969 99.320312 L 180.511719 100.34375 C 180.296875 100.511719 180.09375 100.683594 179.863281 100.847656 L 179.160156 101.335938 L 177.75 102.308594 C 176.875 102.980469 175.722656 103.550781 174.675781 104.15625 L 168.335938 107.722656 L 166.765625 108.609375 L 165.054688 109.46875 L 161.65625 111.175781 L 155.085938 114.492188 L 149.289062 117.410156 C 148.339844 117.890625 147.339844 118.378906 146.449219 118.851562 L 143.917969 120.242188 L 150.640625 121.296875 L 157.640625 122.4375 L 171.09375 124.695312 L 174.300781 125.242188 L 175.898438 125.519531 C 176.347656 125.636719 176.742188 125.773438 177.164062 125.898438 L 182.144531 127.4375 C 183.785156 127.972656 185.53125 128.40625 186.800781 129.128906 L 188.867188 130.101562 C 193.585938 132.5625 198.011719 135.570312 202.101562 139.171875 C 206.195312 142.761719 209.886719 146.996094 213.066406 151.699219 C 218.617188 159.988281 222.847656 169.433594 226.445312 179.199219 C 230.046875 188.984375 233.003906 199.152344 235.945312 209.375 C 236.9375 212.84375 237.976562 216.316406 239.085938 219.761719 C 239.398438 220.71875 239.921875 221.972656 241 221.980469 C 241.425781 221.984375 241.671875 221.804688 241.816406 221.542969 C 242.15625 221.921875 242.707031 222.199219 243.582031 222.277344 C 245.148438 222.417969 245.175781 221.601562 245.414062 220.886719 C 247.523438 214.238281 249.515625 207.136719 251.242188 200.90625 C 251.699219 199.355469 252.132812 197.855469 252.527344 196.425781 C 252.9375 195 253.378906 193.667969 253.761719 192.417969 C 254.503906 189.90625 255.296875 187.828125 255.917969 186.277344 C 258.660156 179.742188 261.34375 173.320312 264.484375 167.214844 C 267.597656 161.109375 271.304688 155.398438 275.800781 150.550781 C 281.054688 144.984375 286.507812 139.953125 292.625 135.902344 L 294.949219 134.4375 L 296.136719 133.753906 L 296.730469 133.40625 L 296.878906 133.320312 L 296.957031 133.273438 L 297.113281 133.199219 L 297.746094 132.898438 L 300.265625 131.691406 C 300.6875 131.492188 301.085938 131.289062 301.53125 131.09375 L 303.097656 130.558594 L 306.210938 129.488281 C 306.476562 129.402344 306.710938 129.300781 307.003906 129.230469 L 307.902344 129.027344 L 309.6875 128.621094 L 311.464844 128.214844 L 312.351562 128.007812 L 312.796875 127.90625 L 313.289062 127.820312 L 317.273438 127.121094 L 325.289062 125.707031 L 332.957031 124.355469 L 339.644531 123.152344 Z M 294.703125 116.167969 L 294.675781 116.1875 C 294.238281 116.304688 293.851562 116.503906 293.316406 116.789062 C 292.796875 117.082031 292.183594 117.441406 291.476562 117.957031 L 291.234375 118.121094 L 290.871094 118.351562 L 290.101562 118.828125 L 286.960938 120.660156 C 285.894531 121.351562 284.804688 122.003906 283.761719 122.726562 L 282.207031 123.816406 C 281.683594 124.171875 281.171875 124.542969 280.675781 124.933594 C 276.640625 127.964844 272.933594 131.367188 269.585938 135.042969 C 266.234375 138.714844 263.242188 142.660156 260.65625 146.8125 C 259.972656 147.832031 259.382812 148.898438 258.769531 149.953125 C 258.164062 151.011719 257.550781 152.0625 257.019531 153.152344 C 256.46875 154.234375 255.914062 155.3125 255.390625 156.402344 L 253.925781 159.71875 C 253.453125 160.757812 253.058594 161.828125 252.636719 162.886719 C 252.230469 163.949219 251.792969 164.996094 251.410156 166.066406 L 250.289062 169.273438 L 249.734375 170.875 L 249.234375 172.492188 L 248.230469 175.722656 C 247.910156 176.800781 247.636719 177.890625 247.335938 178.972656 C 247.046875 180.058594 246.722656 181.132812 246.464844 182.222656 L 245.695312 185.492188 C 243.683594 194.210938 242.332031 203.019531 241.488281 211.839844 C 241.476562 211.957031 241.46875 212.074219 241.457031 212.191406 C 241.148438 208.679688 240.75 204.285156 240.269531 199.59375 C 239.757812 194.625 239.152344 189.328125 238.378906 184.472656 C 237.613281 179.617188 236.75 175.199219 235.859375 172.03125 C 235.382812 170.160156 234.78125 168.304688 234.234375 166.441406 L 233.296875 163.664062 C 232.984375 162.738281 232.667969 161.8125 232.308594 160.894531 L 231.253906 158.136719 C 230.890625 157.21875 230.488281 156.3125 230.101562 155.402344 C 229.359375 153.570312 228.441406 151.785156 227.578125 149.988281 C 225.71875 146.4375 223.757812 142.90625 221.382812 139.570312 L 220.515625 138.3125 C 220.21875 137.894531 219.894531 137.496094 219.585938 137.085938 L 217.699219 134.648438 L 215.667969 132.308594 L 214.644531 131.144531 L 213.550781 130.03125 C 208.304688 124.660156 202.195312 119.933594 195.417969 116.523438 L 194.144531 115.902344 L 193.503906 115.589844 L 193.199219 115.445312 C 193.207031 115.453125 193.210938 115.464844 193.214844 115.476562 C 193.136719 115.460938 192.957031 115.40625 192.8125 115.378906 C 192.507812 115.304688 192.175781 115.226562 191.800781 115.164062 C 191.429688 115.085938 191.015625 115.023438 190.566406 114.964844 C 190.109375 114.894531 189.636719 114.84375 189.113281 114.789062 L 188.683594 114.75 L 188.460938 114.730469 C 188.453125 114.714844 188.5 114.695312 188.515625 114.675781 L 188.816406 114.441406 L 189.15625 114.179688 L 189.515625 113.839844 C 189.777344 113.609375 190.066406 113.351562 190.367188 113.019531 C 190.671875 112.691406 191.023438 112.355469 191.394531 111.933594 L 191.824219 111.445312 L 191.882812 111.382812 L 192.054688 111.238281 L 192.40625 110.9375 L 193.113281 110.34375 C 194.042969 109.542969 194.902344 108.667969 195.800781 107.835938 C 197.621094 106.195312 199.257812 104.394531 200.933594 102.644531 C 201.792969 101.785156 202.542969 100.835938 203.335938 99.929688 C 204.113281 99.007812 204.925781 98.109375 205.671875 97.171875 L 207.878906 94.324219 C 208.242188 93.847656 208.617188 93.378906 208.972656 92.898438 L 210 91.433594 C 215.53125 83.644531 220.121094 75.324219 223.65625 66.648438 C 225.378906 62.558594 226.875 58.398438 228.355469 54.253906 C 229.761719 50.078125 231.136719 45.910156 232.320312 41.6875 C 234.570312 33.890625 236.414062 26.007812 237.863281 18.070312 C 237.988281 21.359375 238.25 25.222656 238.738281 29.285156 C 239.882812 39.574219 242.632812 51.097656 245.144531 57.386719 C 250.820312 72.234375 259.558594 86.132812 270.78125 97.6875 C 272.1875 99.117188 273.550781 100.585938 275.050781 101.917969 L 277.253906 103.960938 L 278.355469 104.984375 C 278.726562 105.320312 279.121094 105.628906 279.5 105.957031 C 281.039062 107.238281 282.554688 108.546875 284.117188 109.796875 L 288.914062 113.402344 L 289.492188 113.832031 L 289.925781 114.054688 L 290.542969 114.371094 C 291 114.625 291.34375 114.75 291.777344 114.941406 C 292.199219 115.125 292.660156 115.332031 293.1875 115.535156 L 294.011719 115.863281 L 294.453125 116.042969 L 294.679688 116.136719 C 294.738281 116.15625 294.707031 116.160156 294.703125 116.167969 Z M 195.304688 240.957031 L 184.992188 238.320312 L 180.105469 237.042969 L 179.496094 236.882812 C 179.289062 236.832031 179.160156 236.765625 178.988281 236.707031 L 178.019531 236.34375 L 176.089844 235.621094 L 172.242188 234.171875 C 171.648438 233.90625 171.074219 233.648438 170.5 233.367188 L 169.183594 232.632812 C 165.175781 230.371094 161.328125 227.792969 157.734375 224.777344 C 154.132812 221.769531 150.8125 218.3125 147.910156 214.460938 C 142.824219 207.691406 138.789062 199.976562 135.503906 191.882812 C 132.21875 183.78125 129.671875 175.277344 127.675781 166.597656 C 126.992188 163.652344 126.367188 160.683594 125.734375 157.714844 C 125.5625 156.890625 125.238281 155.796875 124.332031 155.679688 C 123.949219 155.628906 123.71875 155.773438 123.574219 156.003906 C 123.265625 155.746094 122.808594 155.566406 122.132812 155.546875 C 120.796875 155.5 120.8125 156.191406 120.644531 156.808594 C 119.183594 162.519531 117.757812 168.582031 116.472656 173.871094 C 115.210938 179.175781 113.863281 183.65625 112.867188 186.285156 C 110.652344 191.816406 108.40625 197.210938 105.699219 202.300781 C 105.007812 203.5625 104.351562 204.847656 103.578125 206.050781 L 102.460938 207.875 L 101.257812 209.636719 C 100.484375 210.832031 99.570312 211.910156 98.714844 213.035156 C 98.265625 213.574219 97.792969 214.09375 97.332031 214.621094 C 96.871094 215.152344 96.402344 215.671875 95.894531 216.152344 C 93.664062 218.445312 91.347656 220.589844 88.953125 222.597656 C 86.558594 224.609375 84.074219 226.488281 81.472656 228.175781 C 80.816406 228.59375 80.171875 229.027344 79.496094 229.40625 L 79.246094 229.550781 L 79.121094 229.625 L 78.917969 229.738281 L 78.300781 230.082031 L 77.703125 230.390625 C 76.914062 230.808594 76.066406 231.152344 75.253906 231.535156 L 72.800781 232.65625 C 71.921875 232.988281 70.941406 233.253906 70.023438 233.554688 L 68.625 233.996094 L 67.582031 234.324219 C 67.457031 234.359375 67.292969 234.382812 67.152344 234.410156 L 63.644531 235.058594 C 54.328125 236.769531 42.429688 238.855469 35.710938 240.132812 L 36.308594 240.367188 L 37.160156 240.65625 L 38.859375 241.226562 L 42.230469 242.367188 L 48.882812 244.617188 L 62.359375 249.261719 L 64.019531 249.839844 C 64.3125 249.9375 64.539062 250.03125 64.769531 250.125 L 65.46875 250.40625 L 68.242188 251.535156 L 73.742188 253.785156 L 75.109375 254.347656 C 75.558594 254.535156 75.910156 254.742188 76.316406 254.941406 L 77.492188 255.539062 C 77.867188 255.757812 78.226562 255.992188 78.59375 256.21875 L 81.0625 257.726562 C 85.019531 260.441406 88.894531 263.300781 92.519531 266.550781 C 96.109375 269.828125 99.453125 273.453125 102.421875 277.421875 L 104.324219 280.078125 C 104.933594 280.976562 105.507812 281.910156 106.105469 282.824219 C 106.398438 283.289062 106.707031 283.738281 106.988281 284.210938 L 107.816406 285.632812 C 108.355469 286.589844 108.957031 287.511719 109.449219 288.5 L 110.996094 291.425781 L 112.4375 294.417969 C 112.9375 295.40625 113.355469 296.4375 113.808594 297.453125 L 114.480469 298.980469 L 115.105469 300.53125 C 118.472656 308.789062 121.007812 317.484375 122.804688 326.367188 C 123.410156 329.386719 123.957031 332.425781 124.414062 335.46875 C 124.550781 336.3125 124.789062 337.429688 125.699219 337.628906 C 126.078125 337.714844 126.324219 337.59375 126.492188 337.371094 C 126.792969 337.601562 127.222656 337.761719 127.847656 337.78125 C 129.152344 337.847656 129.132812 337.21875 129.3125 336.621094 C 132.578125 325.691406 135.695312 313.03125 137.808594 307.851562 C 140.03125 302.355469 142.15625 296.902344 144.609375 291.652344 C 147.058594 286.414062 149.84375 281.359375 153.316406 276.921875 C 157.828125 271.25 162.359375 265.847656 167.6875 261.40625 L 169.683594 259.734375 L 170.734375 258.980469 L 171.261719 258.601562 L 171.664062 258.316406 L 172.273438 257.898438 C 173.0625 257.316406 173.957031 256.863281 174.796875 256.351562 C 175.195312 256.089844 175.730469 255.894531 176.195312 255.667969 L 177.636719 255.007812 L 183.34375 252.382812 C 184.238281 251.9375 185.332031 251.542969 186.371094 251.136719 L 189.484375 249.929688 L 195.488281 247.597656 L 200.769531 245.554688 L 203.382812 244.542969 L 205.734375 243.539062 L 200.597656 242.28125 Z M 166.84375 245.105469 C 166.632812 245.222656 166.410156 245.390625 166.160156 245.589844 L 165.75 245.894531 L 165.3125 246.277344 C 165.007812 246.550781 164.636719 246.84375 164.285156 247.222656 L 164.242188 247.265625 C 164.226562 247.285156 164.234375 247.285156 164.164062 247.335938 L 163.84375 247.570312 L 163.207031 248.035156 C 162.785156 248.34375 162.351562 248.644531 161.9375 248.964844 L 159.53125 250.980469 L 158.332031 251.984375 C 157.933594 252.320312 157.570312 252.699219 157.191406 253.050781 L 154.9375 255.199219 C 154.183594 255.910156 153.519531 256.699219 152.808594 257.449219 L 151.757812 258.582031 C 151.402344 258.957031 151.0625 259.34375 150.746094 259.746094 C 149.457031 261.339844 148.109375 262.890625 146.953125 264.570312 C 146.359375 265.398438 145.75 266.214844 145.179688 267.054688 L 143.535156 269.617188 L 142.722656 270.898438 L 141.972656 272.214844 L 140.492188 274.847656 C 138.648438 278.421875 136.941406 282.050781 135.59375 285.796875 C 134.253906 289.320312 133.125 292.898438 132.054688 296.476562 C 131.039062 300.070312 130.085938 303.667969 129.304688 307.296875 C 128.429688 311.265625 127.699219 315.253906 127.109375 319.257812 C 127.085938 318.886719 127.066406 318.519531 127.042969 318.144531 C 126.757812 313.769531 126.265625 309.105469 125.523438 304.859375 C 124.78125 300.617188 123.90625 296.765625 123.003906 294.039062 C 120.972656 287.597656 118.273438 281.296875 114.855469 275.332031 C 111.445312 269.367188 107.289062 263.75 102.453125 258.742188 C 100.003906 256.207031 97.40625 253.8125 94.660156 251.589844 L 93.640625 250.742188 C 93.300781 250.464844 92.933594 250.214844 92.578125 249.953125 L 90.4375 248.390625 C 89.71875 247.882812 89.027344 247.324219 88.265625 246.875 L 87.144531 246.175781 L 86.300781 245.648438 C 86.265625 245.625 86.1875 245.578125 86.179688 245.574219 L 86.15625 245.570312 C 86.03125 245.570312 85.917969 245.476562 85.78125 245.421875 L 85.328125 245.261719 C 85.011719 245.144531 84.660156 245.015625 84.261719 244.898438 C 83.863281 244.78125 83.441406 244.621094 82.945312 244.5 L 82.175781 244.289062 L 81.761719 244.179688 L 81.546875 244.121094 C 81.515625 244.109375 81.460938 244.097656 81.449219 244.089844 L 81.449219 244.074219 L 81.707031 244 L 81.941406 243.894531 C 82.105469 243.816406 82.285156 243.734375 82.476562 243.617188 C 82.867188 243.40625 83.316406 243.113281 83.84375 242.730469 L 84.636719 242.164062 L 85.078125 241.847656 C 85.152344 241.792969 85.234375 241.738281 85.289062 241.6875 C 85.285156 241.679688 85.4375 241.59375 85.546875 241.527344 L 85.894531 241.324219 C 87.746094 240.230469 89.527344 239.039062 91.257812 237.796875 C 94.714844 235.300781 97.917969 232.496094 100.832031 229.449219 C 106.652344 223.355469 111.324219 216.300781 114.59375 208.757812 L 115.738281 206.078125 L 116.773438 203.363281 L 117.285156 202.007812 L 117.746094 200.636719 L 118.664062 197.902344 C 119.761719 194.21875 120.78125 190.53125 121.535156 186.796875 C 122.453125 182.441406 123.132812 178.058594 123.621094 173.667969 C 123.644531 174.023438 123.671875 174.375 123.699219 174.730469 C 124.34375 183.246094 125.992188 192.894531 127.773438 198.238281 C 128.730469 201.398438 129.9375 204.5 131.230469 207.574219 C 132.597656 210.621094 134.027344 213.664062 135.761719 216.570312 C 139.105469 222.4375 143.335938 227.910156 148.25 232.757812 C 152.539062 236.960938 157.417969 240.621094 162.667969 243.597656 L 163.164062 243.875 C 163.277344 243.9375 163.253906 243.921875 163.269531 243.925781 C 163.277344 243.929688 163.289062 243.929688 163.300781 243.925781 C 163.351562 243.90625 163.398438 243.960938 163.449219 243.976562 L 163.796875 244.082031 C 164.039062 244.160156 164.308594 244.234375 164.605469 244.308594 C 165.191406 244.46875 165.917969 244.625 166.710938 244.777344 C 167.53125 244.855469 166.972656 244.980469 166.84375 245.105469 Z M 304.691406 54.65625 C 303.863281 53.828125 303.660156 53.433594 303.699219 53.277344 C 303.824219 52.792969 303.902344 52.261719 304.140625 51.886719 C 305.621094 49.53125 307.203125 47.261719 308.589844 44.757812 C 310.042969 42.101562 312.144531 40.128906 313.773438 37.617188 C 315.566406 34.859375 318.003906 32.804688 320.347656 30.648438 C 322.082031 29.050781 324.019531 27.6875 326.210938 26.652344 C 327.140625 26.210938 329.097656 25.859375 330.8125 25.539062 C 332.542969 25.226562 334.03125 24.9375 334.371094 24.976562 C 334.558594 25.007812 334.777344 24.9375 335.242188 25.605469 C 335.667969 26.210938 335.609375 26.476562 335.53125 26.628906 C 335.25 27.175781 334.941406 27.691406 334.609375 28.175781 C 333.636719 29.609375 332.640625 31 331.613281 32.34375 C 330.582031 33.683594 329.519531 34.972656 328.464844 36.269531 C 327.253906 37.738281 326.335938 39.539062 324.945312 40.777344 C 323.578125 42.160156 322.515625 43.886719 321.378906 45.511719 C 320.238281 47.132812 319.035156 48.664062 317.203125 49.523438 C 315.09375 50.527344 313.742188 52.351562 311.421875 53.148438 C 310.871094 53.339844 310.175781 53.882812 309.226562 54.347656 C 308.277344 54.820312 307.085938 55.234375 305.664062 55.296875 C 305.511719 55.300781 305.457031 55.425781 304.691406 54.65625 Z M 147.589844 33.03125 C 147.578125 32.832031 147.460938 32.621094 148.042969 31.992188 C 148.574219 31.421875 148.859375 31.421875 149.035156 31.46875 C 149.660156 31.648438 150.265625 31.855469 150.839844 32.101562 C 152.539062 32.816406 154.195312 33.589844 155.796875 34.429688 C 157.394531 35.273438 158.941406 36.179688 160.484375 37.09375 C 162.230469 38.144531 164.277344 38.871094 165.792969 40.191406 C 167.453125 41.46875 169.421875 42.40625 171.292969 43.460938 C 173.15625 44.519531 174.933594 45.691406 176.027344 47.582031 C 177.300781 49.769531 179.363281 51.113281 180.363281 53.574219 C 180.601562 54.148438 181.21875 54.878906 181.765625 55.882812 C 182.320312 56.878906 182.800781 58.160156 182.90625 59.667969 C 182.917969 59.828125 183.050781 59.886719 182.25 60.703125 C 181.382812 61.585938 180.972656 61.804688 180.804688 61.765625 C 180.289062 61.644531 179.730469 61.570312 179.332031 61.332031 C 176.820312 59.832031 174.375 58.28125 171.671875 57.015625 C 168.808594 55.691406 166.589844 53.6875 163.824219 52.277344 C 160.785156 50.734375 158.386719 48.5 155.851562 46.417969 C 153.96875 44.875 152.28125 43.128906 150.859375 41.066406 C 150.25 40.203125 149.554688 38.257812 148.890625 36.566406 C 148.242188 34.847656 147.617188 33.394531 147.589844 33.03125 Z M 167.683594 190.863281 C 167.375 190.449219 167.410156 190.261719 167.460938 190.152344 C 167.648438 189.765625 167.851562 189.394531 168.074219 189.050781 C 169.355469 186.988281 170.757812 185.09375 172.175781 183.242188 C 172.984375 182.183594 173.578125 180.902344 174.515625 179.996094 C 175.433594 178.996094 176.125 177.757812 176.871094 176.589844 C 177.617188 175.425781 178.410156 174.316406 179.660156 173.664062 C 181.101562 172.898438 181.988281 171.582031 183.582031 170.949219 C 183.960938 170.796875 184.429688 170.398438 185.074219 170.035156 C 185.71875 169.675781 186.539062 169.347656 187.53125 169.253906 C 187.640625 169.242188 187.671875 169.15625 188.234375 169.664062 C 188.84375 170.214844 189 170.484375 188.980469 170.597656 C 188.910156 170.9375 188.871094 171.3125 188.71875 171.582031 C 187.765625 173.285156 186.734375 174.929688 185.84375 176.726562 C 184.910156 178.636719 183.496094 180.085938 182.425781 181.894531 C 181.25 183.882812 179.59375 185.394531 178.007812 186.964844 C 176.832031 188.136719 175.503906 189.140625 173.992188 189.921875 C 173.347656 190.253906 171.988281 190.550781 170.789062 190.8125 C 169.585938 191.070312 168.546875 191.308594 168.308594 191.285156 C 168.175781 191.269531 168.027344 191.324219 167.683594 190.863281 Z M 320.820312 187.167969 C 321.183594 188.921875 321.523438 190.429688 321.492188 190.777344 C 321.464844 190.964844 321.542969 191.1875 320.878906 191.679688 C 320.269531 192.128906 320 192.078125 319.839844 192.003906 C 319.277344 191.730469 318.742188 191.433594 318.238281 191.109375 C 316.75 190.160156 315.304688 189.183594 313.90625 188.175781 C 312.511719 187.164062 311.167969 186.117188 309.816406 185.078125 C 308.285156 183.886719 306.421875 183.003906 305.121094 181.621094 C 303.675781 180.265625 301.886719 179.230469 300.199219 178.121094 C 298.511719 177.003906 296.917969 175.820312 295.992188 173.980469 C 294.910156 171.859375 293.015625 170.53125 292.136719 168.1875 C 291.925781 167.636719 291.355469 166.941406 290.851562 165.984375 C 290.34375 165.035156 289.890625 163.832031 289.789062 162.382812 C 289.777344 162.226562 289.648438 162.175781 290.410156 161.375 C 291.234375 160.507812 291.628906 160.289062 291.789062 160.324219 C 292.285156 160.4375 292.828125 160.503906 293.21875 160.734375 C 295.660156 162.179688 298.019531 163.726562 300.605469 165.070312 C 303.355469 166.476562 305.425781 168.5625 308.027344 170.148438 C 310.890625 171.898438 313.050781 174.324219 315.3125 176.648438 C 316.992188 178.371094 318.4375 180.308594 319.550781 182.511719 C 320.027344 183.445312 320.441406 185.425781 320.820312 187.167969 Z M 179.625 320.636719 C 179.84375 321.695312 180.074219 322.601562 180.054688 322.816406 C 180.042969 322.933594 180.089844 323.066406 179.691406 323.378906 C 179.328125 323.660156 179.164062 323.632812 179.066406 323.589844 C 178.71875 323.425781 178.386719 323.25 178.074219 323.054688 C 176.21875 321.917969 174.535156 320.609375 172.921875 319.234375 C 172 318.453125 170.878906 317.820312 170.125 316.894531 C 169.28125 315.984375 168.230469 315.226562 167.246094 314.414062 C 166.273438 313.59375 165.355469 312.71875 164.925781 311.492188 C 164.417969 310.078125 163.371094 309.0625 163.066406 307.523438 C 162.988281 307.164062 162.71875 306.667969 162.511719 306.023438 C 162.300781 305.386719 162.175781 304.59375 162.28125 303.710938 C 162.292969 303.613281 162.222656 303.566406 162.777344 303.183594 C 163.375 302.769531 163.640625 302.6875 163.734375 302.730469 C 164.015625 302.859375 164.332031 302.964844 164.535156 303.148438 C 165.820312 304.296875 167.058594 305.472656 168.484375 306.5 C 169.992188 307.582031 171.054688 308.980469 172.507812 310.078125 C 174.101562 311.285156 175.257812 312.8125 176.519531 314.261719 C 177.453125 315.335938 178.269531 316.503906 178.898438 317.835938 C 179.171875 318.394531 179.394531 319.585938 179.625 320.636719 Z M 75.417969 293.558594 C 75.339844 293.96875 75.304688 294.417969 75.128906 294.746094 C 74.023438 296.796875 72.835938 298.785156 71.835938 300.960938 C 70.789062 303.265625 69.164062 305.046875 67.984375 307.246094 C 66.679688 309.664062 64.800781 311.546875 63.015625 313.511719 C 61.691406 314.96875 60.1875 316.25 58.445312 317.28125 C 57.707031 317.722656 56.109375 318.167969 54.707031 318.578125 C 53.289062 318.976562 52.074219 319.347656 51.789062 319.339844 C 51.632812 319.332031 51.453125 319.40625 51.007812 318.890625 C 50.605469 318.421875 50.628906 318.195312 50.679688 318.0625 C 50.871094 317.582031 51.085938 317.125 51.320312 316.691406 C 52.691406 314.121094 54.230469 311.75 55.816406 309.433594 C 56.714844 308.109375 57.351562 306.535156 58.429688 305.394531 C 59.476562 304.136719 60.246094 302.617188 61.089844 301.171875 C 61.9375 299.734375 62.851562 298.363281 64.332031 297.523438 C 66.039062 296.542969 67.0625 294.925781 68.964844 294.117188 C 69.410156 293.921875 69.964844 293.425781 70.734375 292.976562 C 71.5 292.523438 72.476562 292.113281 73.664062 291.980469 C 73.792969 291.964844 73.832031 291.859375 74.511719 292.457031 C 75.25 293.109375 75.445312 293.425781 75.417969 293.558594 Z M 46.988281 180.675781 C 46.980469 180.566406 46.910156 180.449219 47.222656 180.089844 C 47.511719 179.761719 47.671875 179.757812 47.769531 179.78125 C 48.121094 179.863281 48.457031 179.964844 48.78125 180.085938 C 50.699219 180.765625 52.496094 181.558594 54.273438 182.359375 C 55.285156 182.816406 56.441406 183.050781 57.355469 183.632812 C 58.347656 184.179688 59.484375 184.492188 60.578125 184.859375 C 61.671875 185.226562 62.722656 185.636719 63.507812 186.511719 C 64.421875 187.519531 65.667969 187.953125 66.515625 189.101562 C 66.71875 189.375 67.140625 189.664062 67.570312 190.109375 C 68.003906 190.550781 68.445312 191.136719 68.738281 191.921875 C 68.769531 192.003906 68.847656 192.011719 68.5625 192.582031 C 68.25 193.195312 68.070312 193.382812 67.972656 193.390625 C 67.683594 193.410156 67.371094 193.460938 67.117188 193.398438 C 65.527344 193 63.96875 192.519531 62.316406 192.175781 C 60.5625 191.816406 59.082031 190.964844 57.386719 190.457031 C 55.519531 189.894531 53.945312 188.835938 52.34375 187.835938 C 51.152344 187.097656 50.074219 186.191406 49.148438 185.09375 C 48.753906 184.628906 48.257812 183.5625 47.824219 182.628906 C 47.390625 181.6875 47.015625 180.875 46.988281 180.675781 Z M 46.988281 180.675781 " fill-opacity="1" fill-rule="nonzero"/></g><g fill="#ffffff" fill-opacity="1"><g transform="translate(211.291615, 371.349967)"><g><path d="M 1.1875 -0.828125 C 1.1875 -1.179688 1.265625 -1.445312 1.421875 -1.625 C 1.585938 -1.800781 1.816406 -1.890625 2.109375 -1.890625 C 2.410156 -1.890625 2.644531 -1.800781 2.8125 -1.625 C 2.988281 -1.445312 3.078125 -1.179688 3.078125 -0.828125 C 3.078125 -0.492188 2.988281 -0.234375 2.8125 -0.046875 C 2.644531 0.140625 2.410156 0.234375 2.109375 0.234375 C 1.847656 0.234375 1.628906 0.148438 1.453125 -0.015625 C 1.273438 -0.179688 1.1875 -0.453125 1.1875 -0.828125 Z M 1.1875 -0.828125 "/></g></g></g></svg>