<svg xmlns="http://www.w3.org/2000/svg" xmlns:xlink="http://www.w3.org/1999/xlink" width="500" zoomAndPan="magnify" viewBox="0 0 375 374.999991" height="500" preserveAspectRatio="xMidYMid meet" version="1.0"><defs><g/><clipPath id="3045a36b18"><path d="M 7.5 2.441406 L 10 2.441406 L 10 158 L 7.5 158 Z M 7.5 2.441406 " clip-rule="nonzero"/></clipPath><clipPath id="ac6a0011e5"><path d="M 7.5 155 L 366.75 155 L 366.75 158 L 7.5 158 Z M 7.5 155 " clip-rule="nonzero"/></clipPath><clipPath id="688f6e7037"><path d="M 364 2.441406 L 366.75 2.441406 L 366.75 158 L 364 158 Z M 364 2.441406 " clip-rule="nonzero"/></clipPath><clipPath id="74902fcaec"><path d="M 7.5 2.441406 L 366.75 2.441406 L 366.75 5 L 7.5 5 Z M 7.5 2.441406 " clip-rule="nonzero"/></clipPath><clipPath id="32dd28dfcf"><path d="M 7.5 180 L 10 180 L 10 310.691406 L 7.5 310.691406 Z M 7.5 180 " clip-rule="nonzero"/></clipPath><clipPath id="46997e26b5"><path d="M 7.5 308 L 87 308 L 87 310.691406 L 7.5 310.691406 Z M 7.5 308 " clip-rule="nonzero"/></clipPath><clipPath id="c6c95f12c0"><path d="M 84 180 L 240 180 L 240 310.691406 L 84 310.691406 Z M 84 180 " clip-rule="nonzero"/></clipPath><clipPath id="ae94870324"><path d="M 7.5 180 L 240 180 L 240 184 L 7.5 184 Z M 7.5 180 " clip-rule="nonzero"/></clipPath><clipPath id="794f4a85a5"><path d="M 109 180 L 265 180 L 265 310.691406 L 109 310.691406 Z M 109 180 " clip-rule="nonzero"/></clipPath><clipPath id="aefa367249"><path d="M 109 308 L 366.75 308 L 366.75 310.691406 L 109 310.691406 Z M 109 308 " clip-rule="nonzero"/></clipPath><clipPath id="67bdf9bb12"><path d="M 364 180 L 366.75 180 L 366.75 310.691406 L 364 310.691406 Z M 364 180 " clip-rule="nonzero"/></clipPath><clipPath id="dcba13d2db"><path d="M 262 180 L 366.75 180 L 366.75 184 L 262 184 Z M 262 180 " clip-rule="nonzero"/></clipPath></defs><g clip-path="url(#3045a36b18)"><path fill="#000000" d="M 9.867188 3.679688 L 9.867188 156.527344 C 9.867188 157.175781 9.339844 157.699219 8.695312 157.699219 C 8.046875 157.699219 7.523438 157.175781 7.523438 156.527344 L 7.523438 3.679688 C 7.523438 3.035156 8.046875 2.511719 8.695312 2.511719 C 9.339844 2.511719 9.867188 3.035156 9.867188 3.679688 Z M 9.867188 3.679688 " fill-opacity="1" fill-rule="nonzero"/></g><g clip-path="url(#ac6a0011e5)"><path fill="#000000" d="M 8.695312 155.355469 L 365.632812 155.355469 C 366.28125 155.355469 366.804688 155.882812 366.804688 156.527344 C 366.804688 157.175781 366.28125 157.699219 365.632812 157.699219 L 8.695312 157.699219 C 8.046875 157.699219 7.523438 157.175781 7.523438 156.527344 C 7.523438 155.878906 8.046875 155.355469 8.695312 155.355469 Z M 8.695312 155.355469 " fill-opacity="1" fill-rule="nonzero"/></g><g clip-path="url(#688f6e7037)"><path fill="#000000" d="M 364.460938 156.527344 L 364.460938 3.679688 C 364.460938 3.035156 364.988281 2.511719 365.632812 2.511719 C 366.28125 2.511719 366.804688 3.035156 366.804688 3.679688 L 366.804688 156.527344 C 366.804688 157.175781 366.28125 157.699219 365.632812 157.699219 C 364.988281 157.699219 364.460938 157.175781 364.460938 156.527344 Z M 364.460938 156.527344 " fill-opacity="1" fill-rule="nonzero"/></g><g clip-path="url(#74902fcaec)"><path fill="#000000" d="M 365.632812 4.851562 L 8.695312 4.851562 C 8.046875 4.851562 7.523438 4.328125 7.523438 3.683594 C 7.523438 3.035156 8.046875 2.511719 8.695312 2.511719 L 365.632812 2.511719 C 366.28125 2.511719 366.804688 3.035156 366.804688 3.679688 C 366.804688 4.328125 366.28125 4.851562 365.632812 4.851562 Z M 365.632812 4.851562 " fill-opacity="1" fill-rule="nonzero"/></g><g clip-path="url(#32dd28dfcf)"><path fill="#000000" d="M 9.867188 182 L 9.867188 309.375 C 9.867188 310.019531 9.339844 310.542969 8.695312 310.542969 C 8.046875 310.542969 7.523438 310.019531 7.523438 309.375 L 7.523438 182 C 7.523438 181.355469 8.046875 180.832031 8.695312 180.832031 C 9.339844 180.832031 9.867188 181.355469 9.867188 182 Z M 9.867188 182 " fill-opacity="1" fill-rule="nonzero"/></g><g clip-path="url(#46997e26b5)"><path fill="#000000" d="M 8.695312 308.203125 L 85.179688 308.203125 C 85.828125 308.203125 86.351562 308.726562 86.351562 309.375 C 86.351562 310.019531 85.828125 310.542969 85.179688 310.542969 L 8.695312 310.542969 C 8.046875 310.542969 7.523438 310.019531 7.523438 309.375 C 7.523438 308.726562 8.046875 308.203125 8.695312 308.203125 Z M 8.695312 308.203125 " fill-opacity="1" fill-rule="nonzero"/></g><g clip-path="url(#c6c95f12c0)"><path fill="#000000" d="M 84.429688 308.472656 L 237.40625 181.101562 C 237.902344 180.6875 238.640625 180.753906 239.054688 181.253906 C 239.46875 181.75 239.402344 182.488281 238.90625 182.902344 L 85.929688 310.273438 C 85.433594 310.6875 84.695312 310.621094 84.28125 310.121094 C 83.867188 309.625 83.933594 308.886719 84.429688 308.472656 Z M 84.429688 308.472656 " fill-opacity="1" fill-rule="nonzero"/></g><g clip-path="url(#ae94870324)"><path fill="#000000" d="M 238.15625 183.171875 L 8.695312 183.171875 C 8.046875 183.171875 7.523438 182.648438 7.523438 182.003906 C 7.523438 181.355469 8.046875 180.832031 8.695312 180.832031 L 238.15625 180.832031 C 238.800781 180.832031 239.328125 181.355469 239.328125 182 C 239.328125 182.648438 238.800781 183.171875 238.15625 183.171875 Z M 238.15625 183.171875 " fill-opacity="1" fill-rule="nonzero"/></g><g clip-path="url(#794f4a85a5)"><path fill="#000000" d="M 264.402344 182.902344 L 111.425781 310.273438 C 110.929688 310.6875 110.191406 310.621094 109.777344 310.121094 C 109.363281 309.625 109.429688 308.886719 109.925781 308.472656 L 262.902344 181.101562 C 263.398438 180.6875 264.136719 180.753906 264.550781 181.253906 C 264.964844 181.75 264.898438 182.488281 264.402344 182.902344 Z M 264.402344 182.902344 " fill-opacity="1" fill-rule="nonzero"/></g><g clip-path="url(#aefa367249)"><path fill="#000000" d="M 110.675781 308.203125 L 365.632812 308.203125 C 366.28125 308.203125 366.804688 308.726562 366.804688 309.375 C 366.804688 310.019531 366.28125 310.542969 365.632812 310.542969 L 110.675781 310.542969 C 110.03125 310.542969 109.503906 310.019531 109.503906 309.375 C 109.503906 308.726562 110.03125 308.203125 110.675781 308.203125 Z M 110.675781 308.203125 " fill-opacity="1" fill-rule="nonzero"/></g><g clip-path="url(#67bdf9bb12)"><path fill="#000000" d="M 364.460938 309.375 L 364.460938 182 C 364.460938 181.355469 364.988281 180.832031 365.632812 180.832031 C 366.28125 180.832031 366.804688 181.355469 366.804688 182 L 366.804688 309.375 C 366.804688 310.019531 366.28125 310.542969 365.632812 310.542969 C 364.988281 310.542969 364.460938 310.019531 364.460938 309.375 Z M 364.460938 309.375 " fill-opacity="1" fill-rule="nonzero"/></g><g clip-path="url(#dcba13d2db)"><path fill="#000000" d="M 365.632812 183.171875 L 263.652344 183.171875 C 263.003906 183.171875 262.480469 182.648438 262.480469 182.003906 C 262.480469 181.355469 263.003906 180.832031 263.652344 180.832031 L 365.632812 180.832031 C 366.28125 180.832031 366.804688 181.355469 366.804688 182 C 366.804688 182.648438 366.28125 183.171875 365.632812 183.171875 Z M 365.632812 183.171875 " fill-opacity="1" fill-rule="nonzero"/></g><g fill="#ffffff" fill-opacity="1"><g transform="translate(211.291615, 371.349967)"><g><path d="M 1.1875 -0.828125 C 1.1875 -1.179688 1.265625 -1.445312 1.421875 -1.625 C 1.585938 -1.800781 1.816406 -1.890625 2.109375 -1.890625 C 2.410156 -1.890625 2.644531 -1.800781 2.8125 -1.625 C 2.988281 -1.445312 3.078125 -1.179688 3.078125 -0.828125 C 3.078125 -0.492188 2.988281 -0.234375 2.8125 -0.046875 C 2.644531 0.140625 2.410156 0.234375 2.109375 0.234375 C 1.847656 0.234375 1.628906 0.148438 1.453125 -0.015625 C 1.273438 -0.179688 1.1875 -0.453125 1.1875 -0.828125 Z M 1.1875 -0.828125 "/></g></g></g></svg>