<svg xmlns="http://www.w3.org/2000/svg" xmlns:xlink="http://www.w3.org/1999/xlink" width="500" zoomAndPan="magnify" viewBox="0 0 375 374.999991" height="500" preserveAspectRatio="xMidYMid meet" version="1.0"><defs><g/><clipPath id="ec2ca6268f"><path d="M 115 48 L 327.191406 48 L 327.191406 349.074219 L 115 349.074219 Z M 115 48 " clip-rule="nonzero"/></clipPath><clipPath id="2d71a92a83"><path d="M 112 4.824219 L 157 4.824219 L 157 90 L 112 90 Z M 112 4.824219 " clip-rule="nonzero"/></clipPath><clipPath id="67cc1d85ef"><path d="M 95.441406 41 L 136 41 L 136 99 L 95.441406 99 Z M 95.441406 41 " clip-rule="nonzero"/></clipPath></defs><g clip-path="url(#ec2ca6268f)"><path fill="#000000" d="M 162.542969 48.429688 L 238.238281 48.429688 C 264.214844 48.429688 285.417969 69.667969 285.417969 95.589844 L 285.417969 245.023438 L 327.1875 264.203125 L 285.417969 269.492188 L 285.417969 301.871094 C 285.417969 327.835938 264.214844 349.074219 238.238281 349.074219 L 162.542969 349.074219 C 136.609375 349.074219 115.363281 327.835938 115.363281 301.871094 L 115.363281 95.589844 C 115.363281 69.667969 136.609375 48.429688 162.542969 48.429688 Z M 162.542969 48.429688 " fill-opacity="1" fill-rule="evenodd"/></g><path fill="#fbfcf9" d="M 162.988281 57.191406 L 235.007812 57.191406 C 259.6875 57.191406 279.886719 77.378906 279.886719 102.050781 L 279.886719 244.214844 L 319.632812 262.464844 L 279.886719 267.511719 L 279.886719 298.320312 C 279.886719 322.988281 259.6875 343.179688 235.007812 343.179688 L 162.988281 343.179688 C 138.304688 343.179688 118.109375 322.988281 118.109375 298.320312 L 118.109375 102.050781 C 118.109375 77.378906 138.304688 57.191406 162.988281 57.191406 Z M 162.988281 57.191406 " fill-opacity="1" fill-rule="evenodd"/><g clip-path="url(#2d71a92a83)"><path fill="#000000" d="M 145.578125 89.289062 C 123.320312 35.953125 112.210938 9.265625 112.210938 9.265625 C 125.542969 6.316406 132.246094 4.824219 132.246094 4.824219 C 148.527344 58.886719 156.683594 85.941406 156.683594 85.941406 C 149.292969 88.160156 145.578125 89.289062 145.578125 89.289062 Z M 145.578125 89.289062 " fill-opacity="1" fill-rule="evenodd"/></g><path fill="#000000" d="M 153.292969 108.589844 C 150.546875 101.808594 149.210938 98.414062 149.210938 98.414062 C 156.441406 96.640625 160.078125 95.710938 160.078125 95.710938 C 161.855469 102.492188 162.785156 105.886719 162.785156 105.886719 C 156.441406 107.703125 153.292969 108.589844 153.292969 108.589844 Z M 153.292969 108.589844 " fill-opacity="1" fill-rule="evenodd"/><path fill="#000000" d="M 166.582031 85.65625 C 157.453125 34.945312 152.886719 9.546875 152.886719 9.546875 C 165.085938 9.546875 171.1875 9.507812 171.1875 9.507812 C 174.984375 59.777344 176.921875 84.890625 176.921875 84.890625 C 170.015625 85.414062 166.582031 85.65625 166.582031 85.65625 Z M 166.582031 85.65625 " fill-opacity="1" fill-rule="evenodd"/><path fill="#000000" d="M 169.570312 103.988281 C 168.519531 97.566406 167.996094 94.335938 167.996094 94.335938 C 174.660156 94.175781 177.972656 94.054688 177.972656 94.054688 C 178.253906 100.3125 178.375 103.464844 178.375 103.464844 C 172.519531 103.828125 169.570312 103.988281 169.570312 103.988281 Z M 169.570312 103.988281 " fill-opacity="1" fill-rule="evenodd"/><g clip-path="url(#67cc1d85ef)"><path fill="#000000" d="M 128.570312 98.65625 C 106.476562 64.339844 95.449219 47.179688 95.449219 47.179688 C 104.375 43.464844 108.820312 41.605469 108.820312 41.605469 C 126.835938 77.179688 135.882812 94.945312 135.882812 94.945312 C 130.996094 97.40625 128.570312 98.65625 128.570312 98.65625 Z M 128.570312 98.65625 " fill-opacity="1" fill-rule="evenodd"/></g><path fill="#000000" d="M 136.285156 111.132812 C 133.582031 106.773438 132.207031 104.554688 132.207031 104.554688 C 137.011719 102.414062 139.4375 101.324219 139.4375 101.324219 C 141.539062 105.84375 142.589844 108.066406 142.589844 108.066406 C 138.386719 110.125 136.285156 111.132812 136.285156 111.132812 Z M 136.285156 111.132812 " fill-opacity="1" fill-rule="evenodd"/><g fill="#ffffff" fill-opacity="1"><g transform="translate(211.291615, 371.349967)"><g><path d="M 1.1875 -0.828125 C 1.1875 -1.179688 1.265625 -1.445312 1.421875 -1.625 C 1.585938 -1.800781 1.816406 -1.890625 2.109375 -1.890625 C 2.410156 -1.890625 2.644531 -1.800781 2.8125 -1.625 C 2.988281 -1.445312 3.078125 -1.179688 3.078125 -0.828125 C 3.078125 -0.492188 2.988281 -0.234375 2.8125 -0.046875 C 2.644531 0.140625 2.410156 0.234375 2.109375 0.234375 C 1.847656 0.234375 1.628906 0.148438 1.453125 -0.015625 C 1.273438 -0.179688 1.1875 -0.453125 1.1875 -0.828125 Z M 1.1875 -0.828125 "/></g></g></g></svg>