<svg xmlns="http://www.w3.org/2000/svg" xmlns:xlink="http://www.w3.org/1999/xlink" width="500" zoomAndPan="magnify" viewBox="0 0 375 374.999991" height="500" preserveAspectRatio="xMidYMid meet" version="1.0"><defs><g/><clipPath id="d82ba1edc1"><path d="M 8 67 L 370.890625 67 L 370.890625 219 L 8 219 Z M 8 67 " clip-rule="nonzero"/></clipPath></defs><path fill="#ffffff" d="M 167.660156 216.675781 C 150.746094 216.675781 137.824219 216.519531 125.761719 216.175781 C 117.804688 215.945312 109.722656 215.8125 101.90625 215.683594 C 91.859375 215.515625 81.476562 215.34375 71.285156 214.96875 C 69.085938 214.886719 66.125 214.8125 62.699219 214.726562 C 59.421875 214.644531 55.6875 214.550781 51.699219 214.429688 C 47.878906 214.300781 43.773438 214.152344 39.664062 213.953125 L 39.5 213.945312 L 39.332031 213.964844 C 37.273438 214.1875 35.414062 214.296875 33.652344 214.296875 C 33.207031 214.296875 32.765625 214.289062 32.324219 214.273438 C 27.910156 214.132812 24.597656 213.566406 21.574219 212.445312 C 19.757812 211.757812 18.164062 210.835938 16.851562 209.714844 C 15.511719 208.59375 14.375 207.074219 13.550781 205.300781 C 12.84375 203.730469 12.351562 201.925781 12.089844 199.960938 C 11.804688 197.914062 11.746094 195.910156 11.726562 194.394531 L 11.605469 183.273438 C 11.570312 180.238281 11.507812 177.207031 11.441406 174.171875 C 11.328125 168.878906 11.210938 163.40625 11.269531 158.039062 C 11.277344 151.242188 11.140625 144.367188 11.003906 137.714844 C 10.792969 127.15625 10.570312 116.242188 10.945312 105.53125 C 11.042969 102.710938 11.089844 99.960938 11.117188 97.878906 C 11.140625 95.027344 11.25 92.511719 11.445312 90.175781 C 11.714844 87.128906 12.109375 84.78125 12.726562 82.574219 C 13.050781 81.46875 13.460938 80.15625 14.0625 78.933594 L 14.105469 78.835938 C 14.277344 78.4375 14.53125 78.003906 14.796875 77.546875 L 15.007812 77.179688 L 15.183594 76.925781 C 15.503906 76.453125 15.808594 76.007812 16.144531 75.640625 L 16.199219 75.578125 C 16.9375 74.699219 18.191406 73.453125 19.945312 72.511719 C 21.546875 71.625 23.652344 70.996094 26.066406 70.679688 C 27.546875 70.5 29.132812 70.410156 30.902344 70.410156 C 33.796875 70.410156 36.730469 70.65625 39.472656 70.917969 L 39.621094 70.933594 L 39.769531 70.925781 C 41.171875 70.863281 42.570312 70.8125 43.972656 70.757812 C 68.40625 69.890625 93.277344 69.78125 117.328125 69.675781 L 119.726562 69.667969 C 124.273438 69.648438 128.820312 69.617188 133.367188 69.582031 C 139.757812 69.535156 146.367188 69.488281 152.863281 69.488281 C 156.480469 69.488281 159.765625 69.5 162.917969 69.53125 C 167.0625 69.554688 171.195312 69.566406 175.332031 69.566406 C 182.066406 69.566406 188.800781 69.539062 195.535156 69.515625 C 202.265625 69.492188 208.996094 69.46875 215.722656 69.46875 C 230.578125 69.46875 241.996094 69.589844 252.753906 69.867188 C 260.828125 70.074219 269.03125 70.171875 276.960938 70.269531 C 286.050781 70.378906 295.453125 70.492188 304.675781 70.769531 C 306.957031 70.835938 310.097656 70.890625 313.734375 70.949219 C 322.828125 71.101562 335.285156 71.308594 346.585938 71.964844 L 346.675781 71.96875 L 346.769531 71.96875 C 347.066406 71.960938 347.363281 71.953125 347.660156 71.953125 C 348.066406 71.953125 348.46875 71.964844 348.871094 71.984375 C 352.023438 72.160156 354.386719 72.542969 356.535156 73.222656 C 357.824219 73.636719 358.921875 74.132812 359.894531 74.75 C 360.914062 75.394531 361.84375 76.226562 362.582031 77.15625 C 363.929688 78.839844 364.902344 81.046875 365.648438 84.105469 C 366.304688 86.808594 366.660156 89.535156 366.96875 92.097656 C 367.230469 94.539062 367.410156 97.191406 367.542969 100.671875 C 367.660156 103.402344 367.726562 106.175781 367.789062 108.859375 L 367.800781 109.347656 C 367.855469 111.652344 367.898438 113.960938 367.941406 116.269531 C 368.003906 119.699219 368.070312 123.25 368.171875 126.746094 C 368.496094 138.945312 368.40625 151.371094 368.320312 163.390625 L 368.308594 164.886719 C 368.289062 169.207031 368.183594 173.824219 367.992188 179.007812 C 367.851562 183.105469 367.675781 188.199219 367.398438 193.101562 C 367.324219 194.433594 367.125 197.199219 366.652344 200.789062 C 366.410156 202.488281 366.183594 203.941406 365.859375 205.441406 C 365.507812 206.984375 365.125 208.511719 364.375 210.011719 C 364.027344 210.714844 363.574219 211.371094 363.066406 211.917969 C 362.601562 212.382812 361.992188 212.816406 361.394531 213.09375 C 360.078125 213.671875 358.875 213.769531 357.8125 213.855469 C 357.242188 213.886719 356.628906 213.902344 356.042969 213.902344 C 354.753906 213.902344 353.984375 213.820312 353.777344 213.796875 L 353.488281 213.753906 L 351.488281 213.929688 C 349.246094 214.144531 346.953125 214.292969 344.8125 214.421875 C 331.339844 215.230469 317.769531 215.582031 305.113281 215.84375 C 291.085938 216.117188 277.140625 216.25 265.347656 216.34375 C 261.019531 216.375 256.6875 216.421875 252.355469 216.464844 C 244.5 216.546875 236.378906 216.632812 228.394531 216.632812 C 225.605469 216.632812 222.816406 216.621094 220.027344 216.597656 C 216.503906 216.582031 212.992188 216.578125 209.480469 216.578125 C 202.507812 216.578125 195.535156 216.601562 188.5625 216.625 C 181.59375 216.652344 174.628906 216.675781 167.660156 216.675781 Z M 167.660156 216.675781 " fill-opacity="1" fill-rule="nonzero"/><g clip-path="url(#d82ba1edc1)"><path fill="#000000" d="M 370.308594 126.683594 C 370.140625 120.890625 370.070312 115.09375 369.9375 109.296875 C 369.867188 106.394531 369.800781 103.496094 369.679688 100.589844 C 369.566406 97.691406 369.40625 94.769531 369.089844 91.839844 C 368.761719 89.09375 368.390625 86.332031 367.726562 83.59375 C 367.0625 80.875 366.078125 78.101562 364.253906 75.816406 C 363.347656 74.683594 362.25 73.707031 361.039062 72.941406 C 359.828125 72.171875 358.515625 71.605469 357.179688 71.179688 C 354.5 70.332031 351.734375 69.996094 348.992188 69.84375 C 348.230469 69.800781 347.46875 69.804688 346.710938 69.824219 C 330.808594 68.898438 312.660156 68.863281 304.738281 68.625 C 287.453125 68.109375 270.125 68.164062 252.808594 67.722656 C 222.859375 66.953125 192.898438 67.5625 162.9375 67.386719 C 148.527344 67.25 134.121094 67.46875 119.714844 67.523438 C 94.4375 67.632812 69.160156 67.71875 43.894531 68.613281 C 42.488281 68.667969 41.082031 68.722656 39.675781 68.785156 C 35.21875 68.355469 30.40625 67.996094 25.785156 68.550781 C 23.335938 68.875 20.921875 69.519531 18.9375 70.621094 C 16.945312 71.691406 15.492188 73.097656 14.5625 74.195312 C 14.039062 74.773438 13.632812 75.40625 13.199219 76.03125 C 12.835938 76.675781 12.429688 77.320312 12.144531 77.984375 C 11.496094 79.304688 11.0625 80.652344 10.664062 81.996094 C 9.917969 84.683594 9.546875 87.355469 9.316406 89.992188 C 9.09375 92.632812 9 95.25 8.980469 97.847656 C 8.945312 100.402344 8.894531 102.921875 8.808594 105.457031 C 8.199219 122.976562 9.15625 140.492188 9.128906 158.015625 C 9.042969 166.445312 9.371094 174.871094 9.46875 183.296875 L 9.589844 194.421875 C 9.613281 196.316406 9.695312 198.257812 9.96875 200.242188 C 10.230469 202.222656 10.738281 204.261719 11.613281 206.207031 C 12.515625 208.140625 13.820312 209.972656 15.464844 211.347656 C 17.09375 212.742188 18.949219 213.742188 20.832031 214.457031 C 24.617188 215.859375 28.476562 216.296875 32.253906 216.417969 C 34.714844 216.5 37.152344 216.359375 39.5625 216.097656 C 43.695312 216.296875 47.78125 216.441406 51.632812 216.570312 C 59.8125 216.824219 66.929688 216.949219 71.207031 217.113281 C 89.347656 217.78125 107.53125 217.796875 125.699219 218.316406 C 157.125 219.222656 188.570312 218.601562 220.007812 218.742188 C 235.132812 218.871094 250.25 218.597656 265.367188 218.488281 C 278.628906 218.382812 291.894531 218.246094 305.15625 217.984375 C 318.417969 217.714844 331.675781 217.355469 344.9375 216.5625 C 347.1875 216.425781 349.4375 216.28125 351.691406 216.066406 C 352.265625 216.011719 352.84375 215.964844 353.417969 215.910156 C 353.4375 215.914062 353.457031 215.917969 353.476562 215.921875 C 353.984375 215.984375 355.582031 216.125 357.984375 215.992188 C 359.183594 215.894531 360.636719 215.769531 362.28125 215.042969 C 363.101562 214.667969 363.917969 214.097656 364.628906 213.382812 C 365.308594 212.65625 365.867188 211.820312 366.285156 210.972656 C 367.136719 209.269531 367.570312 207.558594 367.949219 205.894531 C 368.308594 204.234375 368.554688 202.617188 368.769531 201.070312 C 369.175781 197.996094 369.417969 195.234375 369.53125 193.222656 C 369.800781 188.492188 369.96875 183.792969 370.128906 179.085938 C 370.300781 174.410156 370.425781 169.617188 370.449219 164.902344 C 370.539062 152.152344 370.648438 139.421875 370.308594 126.683594 Z M 365.332031 104.53125 C 364.902344 120.421875 365.546875 136.386719 365.222656 152.328125 C 364.980469 159.992188 365.117188 167.664062 364.863281 175.292969 L 364.277344 195.472656 C 364.160156 198.808594 364.046875 202.152344 363.664062 205.351562 C 363.464844 206.9375 363.167969 208.488281 362.628906 209.765625 C 362.097656 211.0625 361.292969 211.894531 360.003906 212.472656 C 359.164062 212.832031 358.207031 213.085938 357.199219 213.292969 C 355.652344 213.328125 353.320312 213.386719 350.425781 213.390625 C 345.972656 213.425781 340.210938 213.375 334.082031 213.316406 C 321.816406 213.179688 308.058594 212.910156 300.183594 212.941406 C 281.636719 213 263.082031 213.15625 244.523438 213.328125 C 219.480469 213.558594 194.433594 213.523438 169.386719 213.78125 C 146.605469 214.019531 123.792969 213.804688 101 213.886719 C 79.996094 213.953125 58.984375 213.839844 37.980469 213.585938 C 37.28125 213.511719 36.457031 213.425781 35.53125 213.3125 C 33.109375 213.027344 30 212.566406 26.917969 211.699219 C 25.390625 211.246094 23.875 210.695312 22.519531 210.003906 C 21.160156 209.316406 19.984375 208.492188 19.074219 207.585938 C 17.246094 205.789062 16.496094 203.648438 16.09375 201.867188 C 15.605469 199.796875 15.472656 197.441406 15.453125 194.972656 C 15.460938 192.503906 15.449219 189.84375 15.429688 187.269531 C 15.382812 182.089844 15.296875 176.90625 15.195312 171.726562 C 14.914062 157.742188 14.808594 143.757812 14.300781 129.78125 C 14.070312 123.425781 13.949219 117.0625 13.832031 110.703125 L 13.644531 101.160156 C 13.578125 97.964844 13.457031 94.851562 13.550781 91.722656 C 13.636719 88.769531 13.886719 85.816406 14.539062 82.980469 C 15.214844 80.175781 16.289062 77.414062 18.265625 75.40625 C 20.210938 73.363281 22.992188 72.269531 25.871094 71.746094 C 27.300781 71.476562 28.757812 71.316406 30.226562 71.210938 C 30.277344 71.214844 30.328125 71.21875 30.371094 71.222656 C 31.292969 71.304688 34.324219 71.386719 38.578125 71.472656 C 42.84375 71.589844 48.335938 71.742188 54.179688 71.90625 C 60.03125 72.058594 66.234375 72.222656 71.914062 72.371094 C 77.59375 72.511719 82.75 72.605469 86.503906 72.617188 C 104.183594 72.691406 121.871094 72.617188 139.566406 72.5 C 163.4375 72.351562 187.308594 72.394531 211.183594 72.125 C 232.898438 71.882812 254.636719 72.03125 276.363281 71.859375 C 296.949219 71.691406 317.542969 71.710938 338.128906 71.652344 C 339.855469 71.648438 341.582031 71.609375 343.304688 71.5625 C 343.425781 71.578125 343.550781 71.585938 343.675781 71.601562 C 347.890625 72.066406 352.441406 72.566406 355.941406 73.796875 C 357.683594 74.414062 359.121094 75.203125 360.148438 76.089844 C 361.195312 76.957031 361.863281 77.910156 362.292969 78.6875 C 363.179688 80.351562 363.773438 82.304688 364.175781 84.398438 C 364.59375 86.484375 364.835938 88.699219 365.039062 90.933594 L 365.175781 92.621094 L 365.261719 94.28125 C 365.332031 95.375 365.335938 96.535156 365.363281 97.667969 C 365.398438 99.941406 365.390625 102.238281 365.332031 104.53125 Z M 365.332031 104.53125 " fill-opacity="1" fill-rule="nonzero"/></g><g fill="#ffffff" fill-opacity="1"><g transform="translate(211.291615, 371.349967)"><g><path d="M 1.1875 -0.828125 C 1.1875 -1.179688 1.265625 -1.445312 1.421875 -1.625 C 1.585938 -1.800781 1.816406 -1.890625 2.109375 -1.890625 C 2.410156 -1.890625 2.644531 -1.800781 2.8125 -1.625 C 2.988281 -1.445312 3.078125 -1.179688 3.078125 -0.828125 C 3.078125 -0.492188 2.988281 -0.234375 2.8125 -0.046875 C 2.644531 0.140625 2.410156 0.234375 2.109375 0.234375 C 1.847656 0.234375 1.628906 0.148438 1.453125 -0.015625 C 1.273438 -0.179688 1.1875 -0.453125 1.1875 -0.828125 Z M 1.1875 -0.828125 "/></g></g></g></svg>