<svg xmlns="http://www.w3.org/2000/svg" xmlns:xlink="http://www.w3.org/1999/xlink" width="500" zoomAndPan="magnify" viewBox="0 0 375 374.999991" height="500" preserveAspectRatio="xMidYMid meet" version="1.0"><defs><g/><clipPath id="e8c2f6b9d4"><path d="M 50.792969 6 L 309.542969 6 L 309.542969 350 L 50.792969 350 Z M 50.792969 6 " clip-rule="nonzero"/></clipPath></defs><g clip-path="url(#e8c2f6b9d4)"><path fill="#000000" d="M 298.082031 135.105469 L 211.605469 24.347656 C 211.5625 24.292969 211.503906 24.261719 211.457031 24.210938 C 211.367188 24.113281 211.277344 24.023438 211.171875 23.945312 C 211.082031 23.875 210.988281 23.816406 210.886719 23.761719 C 210.824219 23.722656 210.773438 23.675781 210.707031 23.644531 L 172.160156 6.28125 C 171.828125 6.128906 171.464844 6.058594 171.097656 6.074219 L 100.515625 8.601562 C 100.050781 8.609375 99.585938 8.75 99.1875 9.03125 L 65.160156 32.820312 C 64.554688 33.246094 64.179688 33.925781 64.148438 34.664062 L 50.828125 329.207031 C 50.789062 330.070312 51.222656 330.890625 51.960938 331.339844 L 60.875 336.804688 C 61.175781 336.988281 61.507812 337.105469 61.855469 337.140625 L 176.429688 349.816406 C 176.515625 349.824219 176.601562 349.828125 176.691406 349.828125 C 176.703125 349.828125 176.710938 349.828125 176.722656 349.828125 L 201.335938 349.472656 C 201.542969 349.46875 201.742188 349.429688 201.933594 349.375 C 201.953125 349.371094 201.972656 349.375 201.992188 349.367188 L 307.800781 317.113281 C 308.851562 316.792969 309.546875 315.792969 309.480469 314.695312 L 298.582031 136.425781 C 298.554688 135.945312 298.378906 135.488281 298.082031 135.105469 " fill-opacity="1" fill-rule="nonzero"/></g><path fill="#8d00cc" d="M 100.550781 10.976562 L 62.117188 334.777344 L 53.199219 329.316406 L 54.789062 294.136719 L 66.523438 34.769531 L 100.550781 10.976562 " fill-opacity="1" fill-rule="nonzero"/><path fill="#8d00cc" d="M 209.726562 25.816406 L 201.308594 347.09375 L 189.574219 347.261719 L 176.6875 347.449219 L 171.1875 8.445312 L 207.363281 24.746094 L 209.726562 25.816406 " fill-opacity="1" fill-rule="nonzero"/><path fill="#2201d8" d="M 296.210938 136.570312 L 286.152344 138.164062 L 223.980469 148.03125 L 207.164062 136.75 L 209.726562 25.816406 L 292.46875 131.789062 L 296.210938 136.570312 " fill-opacity="1" fill-rule="nonzero"/><path fill="#2201d8" d="M 307.113281 314.835938 L 249.703125 332.339844 L 201.308594 347.09375 L 201.9375 323.207031 L 202.257812 310.792969 L 216.308594 308.832031 L 221.449219 308.117188 L 270.082031 311.933594 L 307.113281 314.835938 " fill-opacity="1" fill-rule="nonzero"/><path fill="#0f00a0" d="M 223.980469 148.03125 L 223.136719 201.109375 L 221.960938 275.835938 L 221.519531 303.625 L 221.449219 308.117188 L 216.308594 308.832031 L 202.257812 310.792969 L 202.695312 295.121094 L 204.835938 219.3125 L 207.164062 136.75 L 223.980469 148.03125 " fill-opacity="1" fill-rule="nonzero"/><path fill="#2201d8" d="M 307.113281 314.835938 L 270.082031 311.933594 L 221.449219 308.117188 L 221.519531 303.625 L 221.960938 275.835938 L 223.136719 201.109375 L 223.980469 148.03125 L 286.152344 138.164062 L 296.210938 136.570312 L 299.953125 197.753906 L 301.53125 223.558594 L 304.808594 277.167969 L 307.113281 314.835938 " fill-opacity="1" fill-rule="nonzero"/><path fill="#154dff" d="M 176.148438 314.035156 L 172.863281 111.875 L 171.183594 8.445312 L 100.546875 10.976562 L 98.683594 26.683594 L 95.246094 55.597656 L 62.863281 328.113281 L 62.117188 334.78125 L 176.691406 347.453125 L 176.148438 314.035156 " fill-opacity="1" fill-rule="nonzero"/><path fill="#3b27ff" d="M 218.636719 61.007812 L 218.636719 118.28125 C 218.636719 118.28125 232.03125 133.539062 232.160156 132.941406 C 232.292969 132.347656 277.445312 124.480469 277.445312 124.480469 L 218.636719 61.007812 " fill-opacity="1" fill-rule="nonzero"/><path fill="#ba00ff" d="M 93.933594 22.128906 L 70.773438 39.5 L 64.347656 171.839844 L 70.773438 161.242188 L 93.933594 22.128906 " fill-opacity="1" fill-rule="nonzero"/><path fill="#ba00ff" d="M 193.472656 190 L 182.542969 200.941406 L 185.976562 324.132812 Z M 193.472656 190 " fill-opacity="1" fill-rule="nonzero"/><path fill="#ba00ff" d="M 199.59375 80.429688 L 179.738281 100.308594 L 181.203125 152.9375 L 196.390625 137.734375 L 199.59375 80.429688 " fill-opacity="1" fill-rule="nonzero"/><path fill="#ba00ff" d="M 202.253906 32.832031 L 177.476562 19.160156 L 178.542969 57.507812 L 202.199219 33.828125 L 202.253906 32.832031 " fill-opacity="1" fill-rule="nonzero"/><path fill="#3b82ff" d="M 160.441406 119.625 L 90.878906 189.269531 L 85.652344 248.601562 L 160.441406 173.726562 L 160.441406 119.625 " fill-opacity="1" fill-rule="nonzero"/><path fill="#3b82ff" d="M 80.886719 302.714844 L 79.3125 320.566406 L 160.441406 328.871094 L 160.441406 223.070312 L 80.886719 302.714844 " fill-opacity="1" fill-rule="nonzero"/><path fill="#3b82ff" d="M 160.441406 19.160156 L 105.597656 22.128906 L 95.128906 141.023438 L 160.441406 75.632812 L 160.441406 19.160156 " fill-opacity="1" fill-rule="nonzero"/><path fill="#ff0f70" d="M 163.28125 155.796875 C 160.238281 147.9375 155.109375 141.3125 148.648438 136.761719 C 142.734375 132.585938 135.691406 130.175781 128.148438 130.175781 C 107.058594 130.175781 89.957031 149.066406 89.957031 172.394531 C 89.957031 177.398438 90.738281 182.203125 92.1875 186.664062 C 95.203125 195.960938 101.097656 203.734375 108.660156 208.71875 C 114.375 212.464844 121.035156 214.617188 128.148438 214.617188 C 128.578125 214.617188 128.992188 214.605469 129.410156 214.59375 C 148.613281 213.902344 164.242188 197.542969 166.140625 176.699219 C 166.273438 175.285156 166.34375 173.84375 166.34375 172.394531 C 166.34375 166.496094 165.25 160.898438 163.28125 155.796875 Z M 141.511719 202.097656 C 137.105469 205.140625 131.972656 206.886719 126.488281 206.886719 C 121.996094 206.886719 117.734375 205.710938 113.921875 203.617188 C 106.191406 199.375 100.300781 191.335938 97.996094 181.5625 C 97.304688 178.648438 96.9375 175.570312 96.9375 172.394531 C 96.9375 153.335938 110.167969 137.890625 126.488281 137.890625 C 132.082031 137.890625 137.304688 139.710938 141.773438 142.847656 C 148.28125 147.449219 153.148438 154.90625 155.109375 163.714844 C 155.726562 166.484375 156.046875 169.398438 156.046875 172.394531 C 156.046875 180.324219 153.753906 187.636719 149.882812 193.464844 C 147.601562 196.925781 144.753906 199.871094 141.511719 202.097656 " fill-opacity="1" fill-rule="nonzero"/><path fill="#d7fcff" d="M 163.992188 62.863281 C 160.335938 52.59375 152.601562 44.566406 142.996094 41.210938 C 139.8125 40.09375 136.425781 39.5 132.914062 39.5 C 114.445312 39.5 99.480469 56.050781 99.480469 76.453125 C 99.480469 82.101562 100.621094 87.441406 102.664062 92.21875 C 106.144531 100.355469 112.222656 106.867188 119.71875 110.4375 C 123.769531 112.351562 128.222656 113.421875 132.914062 113.421875 C 151.378906 113.421875 166.34375 96.871094 166.34375 76.453125 C 166.34375 71.652344 165.511719 67.074219 163.992188 62.863281 Z M 131.460938 106.65625 C 128.980469 106.65625 126.59375 106.25 124.324219 105.476562 C 116.308594 102.8125 109.882812 95.726562 107.105469 86.621094 C 106.132812 83.445312 105.597656 80.023438 105.597656 76.453125 C 105.597656 59.785156 117.175781 46.265625 131.460938 46.265625 C 133.792969 46.265625 136.035156 46.621094 138.183594 47.300781 C 147.613281 50.25 154.917969 59.261719 156.832031 70.546875 C 157.164062 72.460938 157.332031 74.433594 157.332031 76.453125 C 157.332031 93.136719 145.75 106.65625 131.460938 106.65625 " fill-opacity="1" fill-rule="nonzero"/><path fill="#ffc50b" d="M 164.800781 271.960938 C 164.597656 265.101562 162.996094 258.644531 160.300781 252.914062 C 157.28125 246.515625 152.921875 241.011719 147.613281 236.898438 C 141.046875 231.796875 133.042969 228.800781 124.410156 228.800781 C 102.082031 228.800781 83.992188 248.800781 83.992188 273.484375 C 83.992188 282.601562 86.464844 291.078125 90.703125 298.144531 C 95.074219 305.433594 101.332031 311.222656 108.707031 314.65625 C 113.53125 316.90625 118.839844 318.152344 124.410156 318.152344 C 125.644531 318.152344 126.867188 318.09375 128.078125 317.976562 C 148.671875 315.917969 164.824219 296.789062 164.824219 273.484375 C 164.824219 272.972656 164.8125 272.460938 164.800781 271.960938 Z M 150.691406 289.640625 C 147.984375 296.050781 143.695312 301.390625 138.433594 304.992188 C 133.800781 308.15625 128.410156 309.972656 122.652344 309.972656 C 119.5625 309.972656 116.582031 309.449219 113.753906 308.476562 C 106.261719 305.882812 99.957031 300.105469 95.964844 292.496094 C 93.054688 286.953125 91.390625 280.449219 91.390625 273.484375 C 91.390625 253.316406 105.382812 236.980469 122.652344 236.980469 C 129.527344 236.980469 135.882812 239.574219 141.046875 243.972656 C 146.261719 248.394531 150.261719 254.671875 152.328125 261.972656 C 153.363281 265.589844 153.921875 269.464844 153.921875 273.484375 C 153.921875 279.285156 152.757812 284.765625 150.691406 289.628906 L 150.691406 289.640625 " fill-opacity="1" fill-rule="nonzero"/><path fill="#2201d8" d="M 135.949219 172.390625 C 135.949219 177.539062 132.375 181.710938 127.964844 181.710938 C 123.554688 181.710938 119.980469 177.539062 119.980469 172.390625 C 119.980469 167.242188 123.554688 163.070312 127.964844 163.070312 C 132.375 163.070312 135.949219 167.242188 135.949219 172.390625 " fill-opacity="1" fill-rule="nonzero"/><path fill="#2201d8" d="M 139.742188 76.457031 C 139.742188 80.964844 136.609375 84.617188 132.75 84.617188 C 128.890625 84.617188 125.761719 80.964844 125.761719 76.457031 C 125.761719 71.953125 128.890625 68.300781 132.75 68.300781 C 136.609375 68.300781 139.742188 71.953125 139.742188 76.457031 " fill-opacity="1" fill-rule="nonzero"/><path fill="#2201d8" d="M 132.660156 273.476562 C 132.660156 278.925781 128.878906 283.339844 124.210938 283.339844 C 119.546875 283.339844 115.761719 278.925781 115.761719 273.476562 C 115.761719 268.03125 119.546875 263.613281 124.210938 263.613281 C 128.878906 263.613281 132.660156 268.03125 132.660156 273.476562 " fill-opacity="1" fill-rule="nonzero"/><path fill="#3b27ff" d="M 293.367188 203.652344 C 272.683594 225.519531 246.734375 252.921875 225.210938 275.667969 C 219.179688 282.039062 213.503906 288.046875 208.378906 293.453125 L 210.242188 223.535156 C 215.226562 218.3125 220.632812 212.632812 226.238281 206.746094 C 245.25 186.765625 266.558594 164.328125 281.304688 148.691406 C 283.269531 146.605469 285.117188 144.632812 286.828125 142.8125 L 290.097656 147.222656 L 293.367188 203.652344 " fill-opacity="1" fill-rule="nonzero"/><path fill="#3b27ff" d="M 297.613281 276.894531 L 267.265625 308.960938 L 249.457031 327.777344 L 207.164062 341.386719 L 207.710938 319.355469 C 211.667969 315.179688 215.882812 310.738281 220.269531 306.097656 C 221.765625 304.519531 223.289062 302.917969 224.828125 301.292969 C 248.304688 276.511719 275.617188 247.671875 294.746094 227.449219 L 297.613281 276.894531 " fill-opacity="1" fill-rule="nonzero"/><path fill="#8d00cc" d="M 287.375 185.746094 C 287.339844 185.175781 287.292969 184.605469 287.234375 184.046875 C 286.054688 173.191406 279.785156 164.167969 271.292969 159.777344 C 267.28125 157.6875 262.753906 156.640625 258.039062 156.914062 C 242.828125 157.804688 231.292969 172.167969 232.28125 188.992188 C 232.503906 192.796875 233.351562 196.414062 234.714844 199.707031 C 238.457031 208.824219 246.09375 215.53125 255.128906 217.363281 C 257.222656 217.777344 259.394531 217.945312 261.613281 217.8125 C 276.828125 216.921875 288.359375 202.558594 287.375 185.746094 Z M 260.09375 212.320312 L 259.976562 212.320312 C 250.296875 212.832031 241.699219 205.722656 238.550781 195.507812 C 237.886719 193.367188 237.46875 191.074219 237.328125 188.695312 C 236.519531 174.953125 245.40625 163.25 257.171875 162.5625 C 260.59375 162.359375 263.894531 163.109375 266.851562 164.621094 C 274.085938 168.28125 279.382812 176.4375 279.953125 186.1875 C 280.070312 188.125 279.988281 190.015625 279.726562 191.835938 C 278.195312 202.988281 270.203125 211.714844 260.09375 212.320312 " fill-opacity="1" fill-rule="nonzero"/><path fill="#2201d8" d="M 265.457031 187.035156 C 265.675781 190.75 263.273438 193.910156 260.09375 194.097656 C 256.914062 194.285156 254.15625 191.425781 253.9375 187.714844 C 253.722656 184 256.121094 180.839844 259.300781 180.652344 C 262.484375 180.464844 265.238281 183.324219 265.457031 187.035156 " fill-opacity="1" fill-rule="nonzero"/><path fill="#1cd0f2" d="M 289.679688 256.671875 C 289.347656 250.976562 287.660156 245.71875 284.976562 241.261719 C 279.773438 232.582031 270.832031 226.933594 260.890625 226.992188 C 260.4375 226.992188 259.976562 227.003906 259.523438 227.042969 C 243.894531 227.957031 232.042969 242.722656 233.054688 260.011719 C 233.148438 261.582031 233.335938 263.113281 233.632812 264.601562 L 233.632812 264.613281 C 235.617188 274.851562 242.078125 283.175781 250.5 287.15625 C 254.394531 289 258.707031 289.902344 263.207031 289.640625 C 278.847656 288.714844 290.699219 273.957031 289.679688 256.671875 Z M 261.636719 283.980469 C 258.90625 284.148438 256.246094 283.707031 253.777344 282.78125 C 245.296875 279.617188 238.882812 270.628906 238.242188 259.703125 C 238.21875 259.214844 238.195312 258.726562 238.195312 258.242188 C 238.050781 245.625 245.84375 234.996094 256.402344 233.117188 C 257.136719 232.972656 257.875 232.890625 258.632812 232.84375 C 267.910156 232.296875 276.234375 238.5625 279.988281 247.882812 C 281.128906 250.714844 281.851562 253.828125 282.042969 257.121094 C 282.875 271.25 273.742188 283.269531 261.636719 283.980469 " fill-opacity="1" fill-rule="nonzero"/><path fill="#2201d8" d="M 267.152344 258 C 267.378906 261.816406 264.910156 265.066406 261.640625 265.257812 C 258.371094 265.453125 255.539062 262.515625 255.316406 258.695312 C 255.089844 254.882812 257.558594 251.632812 260.828125 251.4375 C 264.097656 251.246094 266.929688 254.183594 267.152344 258 " fill-opacity="1" fill-rule="nonzero"/><path fill="#5f0091" d="M 209.726562 25.816406 L 201.308594 347.09375 L 189.574219 347.261719 C 193.5625 273.984375 204.0625 81.949219 207.363281 24.746094 L 209.726562 25.816406 " fill-opacity="1" fill-rule="nonzero"/><path fill="#5f0091" d="M 100.550781 10.976562 L 62.117188 334.777344 L 53.199219 329.316406 L 54.789062 294.136719 L 100.550781 10.976562 " fill-opacity="1" fill-rule="nonzero"/><path fill="#fff03b" d="M 147.613281 236.898438 C 145.546875 239.121094 143.351562 241.488281 141.046875 243.972656 C 135.882812 239.574219 129.527344 236.980469 122.652344 236.980469 C 105.382812 236.980469 91.390625 253.316406 91.390625 273.484375 C 91.390625 280.449219 93.054688 286.953125 95.964844 292.496094 C 94.171875 294.421875 92.425781 296.300781 90.703125 298.144531 C 86.464844 291.078125 83.992188 282.601562 83.992188 273.484375 C 83.992188 248.800781 102.082031 228.800781 124.410156 228.800781 C 133.042969 228.800781 141.046875 231.796875 147.613281 236.898438 " fill-opacity="1" fill-rule="nonzero"/><path fill="#fff03b" d="M 122.652344 309.972656 C 128.410156 309.972656 133.800781 308.15625 138.433594 304.992188 L 128.078125 317.976562 C 126.867188 318.09375 125.644531 318.152344 124.410156 318.152344 C 118.839844 318.152344 113.53125 316.90625 108.707031 314.65625 C 110.371094 312.636719 112.046875 310.570312 113.753906 308.476562 C 116.582031 309.449219 119.5625 309.972656 122.652344 309.972656 " fill-opacity="1" fill-rule="nonzero"/><path fill="#fff03b" d="M 150.691406 289.628906 C 152.757812 284.765625 153.921875 279.285156 153.921875 273.484375 C 153.921875 269.464844 153.363281 265.589844 152.328125 261.972656 C 155.488281 258.289062 158.195312 255.195312 160.300781 252.914062 C 162.996094 258.644531 164.597656 265.101562 164.800781 271.960938 L 150.691406 289.628906 " fill-opacity="1" fill-rule="nonzero"/><path fill="#64edff" d="M 253.777344 282.78125 L 250.5 287.15625 C 242.078125 283.175781 235.617188 274.851562 233.632812 264.613281 L 233.632812 264.601562 C 235.144531 262.507812 236.664062 260.378906 238.195312 258.242188 C 238.195312 258.726562 238.21875 259.214844 238.242188 259.703125 C 238.882812 270.628906 245.296875 279.617188 253.777344 282.78125 " fill-opacity="1" fill-rule="nonzero"/><path fill="#64edff" d="M 284.976562 241.261719 L 279.988281 247.882812 C 276.234375 238.5625 267.910156 232.296875 258.632812 232.84375 C 257.875 232.890625 257.136719 232.972656 256.402344 233.117188 C 257.945312 230.988281 259.453125 228.945312 260.890625 226.992188 C 270.832031 226.933594 279.773438 232.582031 284.976562 241.261719 " fill-opacity="1" fill-rule="nonzero"/><path fill="#ffffff" d="M 124.324219 105.476562 L 119.71875 110.4375 C 112.222656 106.867188 106.144531 100.355469 102.664062 92.21875 L 107.105469 86.621094 C 109.882812 95.726562 116.308594 102.8125 124.324219 105.476562 " fill-opacity="1" fill-rule="nonzero"/><path fill="#ffffff" d="M 163.992188 62.863281 L 156.832031 70.546875 C 154.917969 59.261719 147.613281 50.25 138.183594 47.300781 L 142.996094 41.210938 C 152.601562 44.566406 160.335938 52.59375 163.992188 62.863281 " fill-opacity="1" fill-rule="nonzero"/><path fill="#ba00ff" d="M 259.976562 212.320312 L 255.128906 217.363281 C 246.09375 215.53125 238.457031 208.824219 234.714844 199.707031 L 238.550781 195.507812 C 241.699219 205.722656 250.296875 212.832031 259.976562 212.320312 " fill-opacity="1" fill-rule="nonzero"/><path fill="#ba00ff" d="M 279.726562 191.835938 C 279.988281 190.015625 280.070312 188.125 279.953125 186.1875 C 279.382812 176.4375 274.085938 168.28125 266.851562 164.621094 L 271.292969 159.777344 C 279.785156 164.167969 286.054688 173.191406 287.234375 184.046875 L 279.726562 191.835938 " fill-opacity="1" fill-rule="nonzero"/><path fill="#ff71ab" d="M 148.648438 136.761719 C 146.425781 138.722656 144.136719 140.769531 141.773438 142.847656 C 137.304688 139.710938 132.082031 137.890625 126.488281 137.890625 C 110.167969 137.890625 96.9375 153.335938 96.9375 172.394531 C 96.9375 175.570312 97.304688 178.648438 97.996094 181.5625 C 96.023438 183.296875 94.078125 185.011719 92.1875 186.664062 C 90.738281 182.203125 89.957031 177.398438 89.957031 172.394531 C 89.957031 149.066406 107.058594 130.175781 128.148438 130.175781 C 135.691406 130.175781 142.734375 132.585938 148.648438 136.761719 " fill-opacity="1" fill-rule="nonzero"/><path fill="#ff71ab" d="M 126.488281 206.886719 C 131.972656 206.886719 137.105469 205.140625 141.511719 202.097656 L 129.410156 214.59375 C 128.992188 214.605469 128.578125 214.617188 128.148438 214.617188 C 121.035156 214.617188 114.375 212.464844 108.660156 208.71875 L 113.921875 203.617188 C 117.734375 205.710938 121.996094 206.886719 126.488281 206.886719 " fill-opacity="1" fill-rule="nonzero"/><path fill="#ff71ab" d="M 166.34375 172.394531 C 166.34375 173.84375 166.273438 175.285156 166.140625 176.699219 L 149.882812 193.464844 C 153.753906 187.636719 156.046875 180.324219 156.046875 172.394531 C 156.046875 169.398438 155.726562 166.484375 155.109375 163.714844 L 163.28125 155.796875 C 165.25 160.898438 166.34375 166.496094 166.34375 172.394531 " fill-opacity="1" fill-rule="nonzero"/><path fill="#000000" d="M 308.226562 315.207031 C 308.261719 315.097656 308.277344 314.980469 308.28125 314.863281 C 308.28125 314.832031 308.296875 314.800781 308.296875 314.769531 L 297.398438 136.5 C 297.394531 136.488281 297.390625 136.476562 297.386719 136.46875 C 297.375 136.324219 297.335938 136.1875 297.273438 136.054688 C 297.261719 136.03125 297.246094 136.007812 297.234375 135.984375 C 297.203125 135.9375 297.183594 135.882812 297.148438 135.839844 L 210.667969 25.082031 C 210.648438 25.054688 210.617188 25.039062 210.59375 25.011719 C 210.550781 24.964844 210.503906 24.917969 210.453125 24.878906 C 210.40625 24.84375 210.363281 24.816406 210.3125 24.789062 C 210.28125 24.773438 210.253906 24.746094 210.222656 24.730469 L 171.671875 7.363281 C 171.660156 7.359375 171.648438 7.359375 171.636719 7.351562 C 171.605469 7.339844 171.574219 7.332031 171.542969 7.324219 C 171.425781 7.289062 171.308594 7.269531 171.191406 7.265625 C 171.171875 7.265625 171.160156 7.261719 171.140625 7.261719 L 100.507812 9.792969 C 100.5 9.792969 100.496094 9.792969 100.492188 9.792969 C 100.371094 9.800781 100.25 9.828125 100.132812 9.875 C 100.089844 9.890625 100.050781 9.914062 100.011719 9.933594 C 99.964844 9.957031 99.914062 9.976562 99.867188 10.003906 L 65.839844 33.796875 C 65.539062 34.007812 65.351562 34.347656 65.335938 34.71875 L 52.015625 329.257812 C 51.996094 329.691406 52.210938 330.101562 52.582031 330.328125 L 61.496094 335.792969 C 61.507812 335.800781 61.519531 335.800781 61.527344 335.808594 C 61.550781 335.820312 61.578125 335.828125 61.601562 335.839844 C 61.707031 335.890625 61.8125 335.921875 61.925781 335.941406 C 61.945312 335.945312 61.964844 335.957031 61.984375 335.960938 L 176.558594 348.632812 C 176.601562 348.636719 176.644531 348.640625 176.6875 348.640625 C 176.695312 348.640625 176.703125 348.640625 176.707031 348.640625 L 201.320312 348.28125 C 201.335938 348.28125 201.347656 348.273438 201.359375 348.273438 C 201.457031 348.269531 201.554688 348.261719 201.648438 348.230469 L 307.457031 315.976562 C 307.476562 315.972656 307.488281 315.957031 307.507812 315.949219 C 307.5625 315.929688 307.613281 315.898438 307.664062 315.871094 C 307.742188 315.828125 307.816406 315.785156 307.882812 315.726562 C 307.902344 315.710938 307.925781 315.703125 307.941406 315.6875 C 307.964844 315.664062 307.972656 315.632812 307.996094 315.609375 C 308.0625 315.527344 308.121094 315.441406 308.167969 315.34375 C 308.1875 315.296875 308.210938 315.253906 308.226562 315.207031 Z M 222.648438 307.023438 L 225.15625 149.054688 L 295.105469 137.953125 L 305.839844 313.546875 Z M 300.753906 315.535156 L 202.53125 345.476562 L 203.414062 311.828125 L 221.480469 309.316406 L 287.699219 314.511719 Z M 177.859375 346.246094 L 172.402344 10.300781 L 208.523438 26.574219 L 200.144531 345.921875 Z M 208.289062 138.929688 L 222.785156 148.664062 L 220.273438 307.082031 L 203.480469 309.417969 Z M 236.292969 144.878906 L 224.257812 146.789062 L 221.253906 144.769531 L 208.367188 136.117188 L 210.84375 29.167969 L 294.035156 135.714844 Z M 175.480469 346.121094 L 63.429688 333.730469 L 101.605469 12.132812 L 170.015625 9.675781 Z M 99.054688 13.472656 L 61.683594 327.980469 L 61.144531 332.789062 L 54.417969 328.667969 L 67.683594 35.410156 L 99.054688 13.472656 " fill-opacity="1" fill-rule="nonzero"/><path fill="#000000" d="M 128.148438 128.980469 C 106.433594 128.980469 88.765625 148.453125 88.765625 172.390625 C 88.765625 196.328125 106.433594 215.804688 128.148438 215.804688 C 149.863281 215.804688 167.527344 196.328125 167.527344 172.390625 C 167.527344 148.453125 149.863281 128.980469 128.148438 128.980469 Z M 91.140625 172.390625 C 91.140625 149.765625 107.742188 131.359375 128.148438 131.359375 C 148.554688 131.359375 165.152344 149.765625 165.152344 172.390625 C 165.152344 195.019531 148.554688 213.425781 128.148438 213.425781 C 107.742188 213.425781 91.140625 195.019531 91.140625 172.390625 " fill-opacity="1" fill-rule="nonzero"/><path fill="#000000" d="M 126.492188 136.707031 C 109.542969 136.707031 95.753906 152.714844 95.753906 172.390625 C 95.753906 192.070312 109.542969 208.078125 126.492188 208.078125 C 143.4375 208.078125 157.230469 192.070312 157.230469 172.390625 C 157.230469 152.714844 143.4375 136.707031 126.492188 136.707031 Z M 98.128906 172.390625 C 98.128906 154.027344 110.855469 139.082031 126.492188 139.082031 C 142.128906 139.082031 154.851562 154.027344 154.851562 172.390625 C 154.851562 190.757812 142.128906 205.699219 126.492188 205.699219 C 110.855469 205.699219 98.128906 190.757812 98.128906 172.390625 " fill-opacity="1" fill-rule="nonzero"/><path fill="#000000" d="M 137.136719 172.390625 C 137.136719 166.597656 133.023438 161.878906 127.964844 161.878906 C 122.90625 161.878906 118.792969 166.597656 118.792969 172.390625 C 118.792969 178.1875 122.90625 182.902344 127.964844 182.902344 C 133.023438 182.902344 137.136719 178.1875 137.136719 172.390625 Z M 127.964844 164.257812 C 131.714844 164.257812 134.761719 167.90625 134.761719 172.390625 C 134.761719 176.875 131.714844 180.523438 127.964844 180.523438 C 124.214844 180.523438 121.167969 176.875 121.167969 172.390625 C 121.167969 167.90625 124.214844 164.257812 127.964844 164.257812 " fill-opacity="1" fill-rule="nonzero"/><path fill="#000000" d="M 132.910156 38.3125 C 113.824219 38.3125 98.292969 55.425781 98.292969 76.457031 C 98.292969 97.492188 113.824219 114.605469 132.910156 114.605469 C 152 114.605469 167.527344 97.492188 167.527344 76.457031 C 167.527344 55.425781 152 38.3125 132.910156 38.3125 Z M 100.667969 76.457031 C 100.667969 56.734375 115.132812 40.691406 132.910156 40.691406 C 150.691406 40.691406 165.152344 56.734375 165.152344 76.457031 C 165.152344 96.179688 150.691406 112.226562 132.910156 112.226562 C 115.132812 112.226562 100.667969 96.179688 100.667969 76.457031 " fill-opacity="1" fill-rule="nonzero"/><path fill="#000000" d="M 131.460938 45.074219 C 116.546875 45.074219 104.410156 59.152344 104.410156 76.457031 C 104.410156 93.761719 116.546875 107.839844 131.460938 107.839844 C 146.378906 107.839844 158.515625 93.761719 158.515625 76.457031 C 158.515625 59.152344 146.378906 45.074219 131.460938 45.074219 Z M 131.460938 105.460938 C 117.855469 105.460938 106.785156 92.453125 106.785156 76.457031 C 106.785156 60.464844 117.855469 47.453125 131.460938 47.453125 C 145.066406 47.453125 156.136719 60.464844 156.136719 76.457031 C 156.136719 92.453125 145.066406 105.460938 131.460938 105.460938 " fill-opacity="1" fill-rule="nonzero"/><path fill="#000000" d="M 140.929688 76.457031 C 140.929688 71.304688 137.261719 67.109375 132.753906 67.109375 C 128.242188 67.109375 124.574219 71.304688 124.574219 76.457031 C 124.574219 81.613281 128.242188 85.804688 132.753906 85.804688 C 137.261719 85.804688 140.929688 81.613281 140.929688 76.457031 Z M 138.554688 76.457031 C 138.554688 80.300781 135.949219 83.429688 132.753906 83.429688 C 129.554688 83.429688 126.949219 80.300781 126.949219 76.457031 C 126.949219 72.613281 129.554688 69.488281 132.753906 69.488281 C 135.949219 69.488281 138.554688 72.613281 138.554688 76.457031 " fill-opacity="1" fill-rule="nonzero"/><path fill="#000000" d="M 124.40625 227.613281 C 101.46875 227.613281 82.804688 248.1875 82.804688 273.476562 C 82.804688 298.765625 101.46875 319.34375 124.40625 319.34375 C 147.34375 319.34375 166.003906 298.765625 166.003906 273.476562 C 166.003906 248.1875 147.34375 227.613281 124.40625 227.613281 Z M 85.179688 273.476562 C 85.179688 249.5 102.777344 229.988281 124.40625 229.988281 C 146.03125 229.988281 163.628906 249.5 163.628906 273.476562 C 163.628906 297.457031 146.03125 316.964844 124.40625 316.964844 C 102.777344 316.964844 85.179688 297.457031 85.179688 273.476562 " fill-opacity="1" fill-rule="nonzero"/><path fill="#000000" d="M 122.65625 235.789062 C 104.757812 235.789062 90.199219 252.695312 90.199219 273.476562 C 90.199219 294.261719 104.757812 311.167969 122.65625 311.167969 C 140.550781 311.167969 155.109375 294.261719 155.109375 273.476562 C 155.109375 252.695312 140.550781 235.789062 122.65625 235.789062 Z M 122.65625 308.789062 C 106.066406 308.789062 92.574219 292.949219 92.574219 273.476562 C 92.574219 254.007812 106.066406 238.167969 122.65625 238.167969 C 139.238281 238.167969 152.730469 254.007812 152.730469 273.476562 C 152.730469 292.949219 139.238281 308.789062 122.65625 308.789062 " fill-opacity="1" fill-rule="nonzero"/><path fill="#000000" d="M 133.847656 273.476562 C 133.847656 267.382812 129.527344 262.425781 124.210938 262.425781 C 118.898438 262.425781 114.578125 267.382812 114.578125 273.476562 C 114.578125 279.570312 118.898438 284.53125 124.210938 284.53125 C 129.527344 284.53125 133.847656 279.570312 133.847656 273.476562 Z M 124.210938 264.804688 C 128.214844 264.804688 131.472656 268.695312 131.472656 273.476562 C 131.472656 278.261719 128.214844 282.152344 124.210938 282.152344 C 120.207031 282.152344 116.953125 278.261719 116.953125 273.476562 C 116.953125 268.695312 120.207031 264.804688 124.210938 264.804688 " fill-opacity="1" fill-rule="nonzero"/><path fill="#000000" d="M 260.136719 219.050781 C 260.648438 219.050781 261.167969 219.035156 261.6875 219.003906 C 277.53125 218.070312 289.585938 203.121094 288.558594 185.675781 C 287.535156 168.230469 273.8125 154.78125 257.972656 155.730469 C 250.273438 156.179688 243.238281 159.914062 238.160156 166.238281 C 233.113281 172.523438 230.605469 180.628906 231.097656 189.058594 C 232.089844 205.929688 244.957031 219.050781 260.136719 219.050781 Z M 240.011719 167.726562 C 244.664062 161.933594 251.089844 158.515625 258.109375 158.101562 C 258.582031 158.074219 259.054688 158.0625 259.523438 158.0625 C 273.453125 158.0625 285.269531 170.203125 286.1875 185.8125 C 287.136719 201.949219 276.082031 215.773438 261.550781 216.632812 C 247.023438 217.488281 234.417969 205.054688 233.46875 188.917969 C 233.007812 181.082031 235.332031 173.554688 240.011719 167.726562 " fill-opacity="1" fill-rule="nonzero"/><path fill="#000000" d="M 259.011719 213.539062 C 259.394531 213.539062 259.78125 213.527344 260.167969 213.503906 C 266.210938 213.144531 271.722656 210.078125 275.683594 204.863281 C 279.601562 199.699219 281.539062 193.039062 281.128906 186.113281 C 280.726562 179.183594 278.023438 172.796875 273.527344 168.132812 C 268.980469 163.414062 263.144531 161.015625 257.105469 161.371094 C 244.699219 162.101562 235.292969 174.390625 236.140625 188.761719 C 236.957031 202.6875 247.097656 213.539062 259.011719 213.539062 Z M 258.269531 163.714844 C 263.246094 163.714844 268.019531 165.847656 271.816406 169.785156 C 275.921875 174.042969 278.386719 179.890625 278.761719 186.25 C 279.136719 192.613281 277.371094 198.710938 273.792969 203.421875 C 270.257812 208.078125 265.367188 210.816406 260.027344 211.128906 C 248.933594 211.765625 239.277344 201.6875 238.507812 188.621094 C 237.742188 175.558594 246.144531 164.398438 257.242188 163.746094 C 257.585938 163.726562 257.929688 163.714844 258.269531 163.714844 " fill-opacity="1" fill-rule="nonzero"/><path fill="#000000" d="M 259.792969 195.292969 C 259.914062 195.292969 260.039062 195.292969 260.164062 195.285156 C 263.992188 195.058594 266.898438 191.328125 266.644531 186.964844 C 266.386719 182.605469 263.066406 179.234375 259.234375 179.464844 C 257.34375 179.578125 255.628906 180.527344 254.402344 182.140625 C 253.214844 183.699219 252.632812 185.703125 252.753906 187.785156 C 252.875 189.863281 253.691406 191.785156 255.050781 193.195312 C 256.367188 194.558594 258.035156 195.292969 259.792969 195.292969 Z M 259.371094 181.839844 C 259.449219 181.832031 259.523438 181.832031 259.597656 181.832031 C 262.023438 181.832031 264.097656 184.144531 264.269531 187.105469 C 264.449219 190.15625 262.546875 192.761719 260.023438 192.910156 C 258.828125 192.96875 257.675781 192.496094 256.761719 191.542969 C 255.792969 190.539062 255.214844 189.15625 255.125 187.644531 C 255.035156 186.132812 255.449219 184.6875 256.292969 183.582031 C 257.089844 182.527344 258.1875 181.910156 259.371094 181.839844 " fill-opacity="1" fill-rule="nonzero"/><path fill="#000000" d="M 241.816406 282.5 C 247.351562 287.9375 254.339844 290.875 261.664062 290.875 C 262.199219 290.875 262.738281 290.859375 263.277344 290.828125 C 271.179688 290.363281 278.402344 286.53125 283.617188 280.039062 C 288.800781 273.582031 291.375 265.257812 290.867188 256.601562 C 289.816406 238.691406 275.734375 224.875 259.460938 225.855469 C 251.558594 226.320312 244.335938 230.152344 239.125 236.644531 C 233.9375 243.101562 231.363281 251.421875 231.871094 260.078125 C 232.378906 268.734375 235.910156 276.695312 241.816406 282.5 Z M 288.496094 256.742188 C 288.96875 264.808594 286.578125 272.554688 281.765625 278.550781 C 276.976562 284.511719 270.363281 288.027344 263.136719 288.453125 C 255.910156 288.875 248.933594 286.164062 243.480469 280.804688 C 237.996094 275.414062 234.714844 268.003906 234.242188 259.941406 C 233.769531 251.875 236.160156 244.128906 240.976562 238.132812 C 245.761719 232.171875 252.375 228.652344 259.601562 228.226562 C 260.089844 228.199219 260.570312 228.1875 261.054688 228.1875 C 275.386719 228.1875 287.550781 240.683594 288.496094 256.742188 " fill-opacity="1" fill-rule="nonzero"/><path fill="#000000" d="M 242.644531 240.523438 C 238.621094 245.824219 236.632812 252.660156 237.050781 259.773438 C 237.46875 266.886719 240.242188 273.441406 244.859375 278.234375 C 249.222656 282.761719 254.738281 285.207031 260.507812 285.207031 C 260.910156 285.207031 261.3125 285.195312 261.714844 285.171875 C 267.917969 284.808594 273.570312 281.65625 277.636719 276.304688 C 281.664062 271.003906 283.648438 264.167969 283.230469 257.054688 C 282.8125 249.941406 280.039062 243.382812 275.421875 238.59375 C 270.757812 233.75 264.757812 231.285156 258.570312 231.65625 C 252.367188 232.019531 246.710938 235.167969 242.644531 240.523438 Z M 259.769531 233.996094 C 264.890625 233.996094 269.804688 236.191406 273.714844 240.242188 C 277.9375 244.625 280.476562 250.644531 280.859375 257.191406 C 281.246094 263.742188 279.429688 270.015625 275.75 274.863281 C 272.109375 279.65625 267.074219 282.472656 261.574219 282.796875 C 256.078125 283.117188 250.746094 280.914062 246.570312 276.582031 C 242.34375 272.199219 239.808594 266.179688 239.421875 259.632812 C 239.039062 253.085938 240.855469 246.8125 244.535156 241.964844 C 248.175781 237.171875 253.210938 234.351562 258.707031 234.027344 C 259.0625 234.007812 259.414062 233.996094 259.769531 233.996094 " fill-opacity="1" fill-rule="nonzero"/><path fill="#000000" d="M 256.480469 264.308594 C 257.828125 265.703125 259.535156 266.457031 261.332031 266.457031 C 261.457031 266.457031 261.582031 266.453125 261.710938 266.445312 C 265.628906 266.214844 268.601562 262.394531 268.339844 257.929688 C 268.214844 255.800781 267.378906 253.835938 265.988281 252.390625 C 264.546875 250.898438 262.679688 250.136719 260.757812 250.253906 C 258.824219 250.367188 257.070312 251.335938 255.816406 252.988281 C 254.605469 254.585938 254.003906 256.636719 254.128906 258.769531 C 254.253906 260.894531 255.089844 262.863281 256.480469 264.308594 Z M 260.898438 252.625 C 260.976562 252.621094 261.054688 252.621094 261.132812 252.621094 C 262.277344 252.621094 263.386719 253.121094 264.277344 254.042969 C 265.273438 255.078125 265.875 256.507812 265.96875 258.070312 C 266.152344 261.226562 264.179688 263.917969 261.570312 264.074219 C 260.328125 264.140625 259.140625 263.640625 258.191406 262.65625 C 257.191406 261.621094 256.59375 260.191406 256.5 258.628906 C 256.410156 257.066406 256.835938 255.574219 257.707031 254.429688 C 258.535156 253.339844 259.667969 252.699219 260.898438 252.625 " fill-opacity="1" fill-rule="nonzero"/><path fill="#000000" d="M 177.640625 122.003906 C 176.984375 122.015625 176.464844 122.558594 176.476562 123.214844 L 180.234375 341.988281 C 180.246094 342.640625 180.777344 343.15625 181.421875 343.15625 C 181.429688 343.15625 181.4375 343.15625 181.441406 343.15625 C 182.097656 343.148438 182.621094 342.605469 182.609375 341.949219 L 178.847656 123.171875 C 178.835938 122.515625 178.3125 122 177.640625 122.003906 " fill-opacity="1" fill-rule="nonzero"/><path fill="#000000" d="M 226.351562 144 C 226.414062 144 226.476562 143.996094 226.539062 143.988281 L 287.402344 134.476562 C 288.050781 134.375 288.496094 133.765625 288.394531 133.117188 C 288.292969 132.46875 287.679688 132.019531 287.035156 132.125 L 226.171875 141.636719 C 225.523438 141.738281 225.078125 142.347656 225.179688 142.996094 C 225.273438 143.582031 225.777344 144 226.351562 144 " fill-opacity="1" fill-rule="nonzero"/><path fill="#000000" d="M 300.878906 310.050781 C 300.917969 310.683594 301.441406 311.167969 302.066406 311.167969 C 302.089844 311.167969 302.113281 311.167969 302.136719 311.164062 C 302.792969 311.125 303.292969 310.558594 303.25 309.90625 L 297.398438 215.863281 C 297.355469 215.207031 296.785156 214.703125 296.136719 214.75 C 295.484375 214.789062 294.984375 215.355469 295.027344 216.011719 L 300.878906 310.050781 " fill-opacity="1" fill-rule="nonzero"/><path fill="#000000" d="M 206.828125 338.449219 C 206.199219 338.632812 205.839844 339.292969 206.023438 339.921875 C 206.171875 340.441406 206.648438 340.78125 207.160156 340.78125 C 207.269531 340.78125 207.382812 340.765625 207.496094 340.734375 L 281.019531 319.292969 C 281.648438 319.113281 282.011719 318.453125 281.828125 317.820312 C 281.644531 317.191406 280.988281 316.828125 280.355469 317.011719 L 206.828125 338.449219 " fill-opacity="1" fill-rule="nonzero"/><path fill="#000000" d="M 82.199219 207.027344 C 81.550781 206.953125 80.957031 207.414062 80.878906 208.066406 L 66.328125 330.832031 C 66.253906 331.484375 66.71875 332.074219 67.371094 332.152344 C 67.417969 332.15625 67.464844 332.160156 67.511719 332.160156 C 68.105469 332.160156 68.617188 331.714844 68.6875 331.113281 L 83.238281 208.347656 C 83.3125 207.695312 82.847656 207.105469 82.199219 207.027344 " fill-opacity="1" fill-rule="nonzero"/><path fill="#000000" d="M 116.796875 17.667969 C 116.8125 17.667969 116.835938 17.667969 116.855469 17.667969 L 164.875 15.292969 C 165.53125 15.257812 166.035156 14.699219 166.003906 14.046875 C 165.972656 13.386719 165.394531 12.886719 164.757812 12.917969 L 116.738281 15.292969 C 116.082031 15.324219 115.578125 15.886719 115.609375 16.539062 C 115.640625 17.175781 116.164062 17.667969 116.796875 17.667969 " fill-opacity="1" fill-rule="nonzero"/><path fill="#000000" d="M 153.601562 68.148438 C 153.519531 67.496094 152.925781 67.035156 152.273438 67.121094 C 151.621094 67.203125 151.164062 67.800781 151.246094 68.453125 C 154.214844 91.597656 140.257812 98.832031 131.671875 101.082031 C 131.050781 101.246094 130.710938 101.335938 130.445312 101.773438 C 130.105469 102.335938 130.289062 103.066406 130.851562 103.40625 C 131.042969 103.519531 131.253906 103.574219 131.460938 103.574219 C 131.636719 103.574219 131.804688 103.539062 131.964844 103.464844 C 132.035156 103.441406 132.140625 103.417969 132.277344 103.382812 C 139.792969 101.410156 156.917969 94.03125 153.601562 68.148438 " fill-opacity="1" fill-rule="nonzero"/><path fill="#000000" d="M 152.121094 162.960938 C 152.0625 162.308594 151.484375 161.835938 150.832031 161.886719 C 150.179688 161.945312 149.699219 162.523438 149.757812 163.175781 C 151.402344 181.289062 145.492188 190.5 140.246094 195.039062 C 134.894531 199.667969 129.136719 200.488281 126.769531 199.917969 C 126.136719 199.761719 125.492188 200.15625 125.335938 200.792969 C 125.183594 201.433594 125.574219 202.078125 126.214844 202.230469 C 126.78125 202.367188 127.484375 202.445312 128.296875 202.445312 C 131.675781 202.445312 136.902344 201.070312 141.800781 196.835938 C 147.464844 191.933594 153.855469 182.078125 152.121094 162.960938 " fill-opacity="1" fill-rule="nonzero"/><path fill="#000000" d="M 148.246094 258.183594 C 148.117188 257.539062 147.492188 257.113281 146.851562 257.246094 C 146.207031 257.375 145.789062 258 145.914062 258.644531 C 150.480469 281.859375 141.9375 293.519531 136.4375 298.402344 C 130.488281 303.6875 123.925781 304.847656 120.347656 303.683594 C 119.722656 303.480469 119.050781 303.824219 118.851562 304.445312 C 118.648438 305.070312 118.988281 305.742188 119.613281 305.945312 C 120.753906 306.3125 121.996094 306.492188 123.300781 306.492188 C 127.980469 306.492188 133.488281 304.199219 138.015625 300.179688 C 143.894531 294.957031 153.039062 282.5625 148.246094 258.183594 " fill-opacity="1" fill-rule="nonzero"/><path fill="#000000" d="M 258.527344 208.402344 C 258.621094 208.984375 259.125 209.398438 259.695312 209.398438 C 259.761719 209.398438 259.824219 209.390625 259.890625 209.382812 C 260.066406 209.351562 277.59375 206.207031 276.53125 183.480469 C 276.5 182.824219 275.949219 182.339844 275.289062 182.347656 C 274.632812 182.378906 274.125 182.933594 274.15625 183.589844 C 275.121094 204.148438 260.140625 206.925781 259.5 207.035156 C 258.855469 207.140625 258.417969 207.753906 258.527344 208.402344 " fill-opacity="1" fill-rule="nonzero"/><path fill="#000000" d="M 260.195312 279.714844 C 260.277344 280.308594 260.785156 280.734375 261.367188 280.734375 C 261.421875 280.734375 261.480469 280.734375 261.535156 280.722656 C 261.734375 280.695312 281.371094 277.578125 278.304688 251.171875 C 278.230469 250.519531 277.644531 250.050781 276.988281 250.128906 C 276.335938 250.203125 275.871094 250.792969 275.945312 251.445312 C 278.738281 275.496094 261.914062 278.261719 261.199219 278.371094 C 260.550781 278.464844 260.101562 279.066406 260.195312 279.714844 " fill-opacity="1" fill-rule="nonzero"/><g fill="#ffffff" fill-opacity="1"><g transform="translate(211.291615, 371.349967)"><g><path d="M 1.1875 -0.828125 C 1.1875 -1.179688 1.265625 -1.445312 1.421875 -1.625 C 1.585938 -1.800781 1.816406 -1.890625 2.109375 -1.890625 C 2.410156 -1.890625 2.644531 -1.800781 2.8125 -1.625 C 2.988281 -1.445312 3.078125 -1.179688 3.078125 -0.828125 C 3.078125 -0.492188 2.988281 -0.234375 2.8125 -0.046875 C 2.644531 0.140625 2.410156 0.234375 2.109375 0.234375 C 1.847656 0.234375 1.628906 0.148438 1.453125 -0.015625 C 1.273438 -0.179688 1.1875 -0.453125 1.1875 -0.828125 Z M 1.1875 -0.828125 "/></g></g></g></svg>