<svg xmlns="http://www.w3.org/2000/svg" xmlns:xlink="http://www.w3.org/1999/xlink" width="500" zoomAndPan="magnify" viewBox="0 0 375 374.999991" height="500" preserveAspectRatio="xMidYMid meet" version="1.0"><defs><g/><clipPath id="efd64ccdb8"><path d="M 144 13 L 225.316406 13 L 225.316406 260 L 144 260 Z M 144 13 " clip-rule="nonzero"/></clipPath><clipPath id="2b767dcfa6"><path d="M 140.566406 267 L 204 267 L 204 328.609375 L 140.566406 328.609375 Z M 140.566406 267 " clip-rule="nonzero"/></clipPath></defs><g clip-path="url(#efd64ccdb8)"><path fill="#000000" d="M 212.398438 13.113281 C 209.628906 13.152344 206.882812 13.300781 204.121094 13.472656 C 197.109375 13.917969 190.097656 14.515625 183.125 15.394531 C 181.601562 15.585938 180.066406 15.824219 178.546875 16.066406 C 177.6875 16.203125 176.84375 16.402344 175.984375 16.496094 C 174.933594 16.617188 173.867188 16.59375 172.816406 16.617188 C 169.871094 16.679688 166.902344 16.863281 164.332031 18.464844 C 163.679688 18.871094 163.40625 19.109375 162.84375 19.617188 C 162.4375 19.992188 162.070312 20.390625 161.738281 20.839844 C 160.453125 22.636719 159.808594 24.730469 159.753906 26.9375 C 159.707031 28.757812 160.074219 30.566406 160.089844 32.382812 C 160.097656 33.246094 159.96875 34.097656 159.875 34.953125 C 159.746094 36.171875 159.613281 37.402344 159.492188 38.625 C 158.664062 46.601562 157.949219 54.59375 157.453125 62.601562 C 156.992188 69.90625 156.738281 77.199219 156.425781 84.511719 C 156.246094 88.496094 156.117188 92.511719 155.847656 96.488281 C 155.574219 100.46875 155.136719 104.441406 154.789062 108.414062 C 153.347656 125.214844 151.445312 141.964844 150.042969 158.769531 C 149.375 166.816406 148.820312 174.886719 148.5625 182.960938 C 148.421875 187.15625 148.515625 191.367188 148.222656 195.558594 C 147.546875 205.1875 144.964844 214.585938 144.773438 224.261719 C 144.671875 229.117188 145.222656 234.15625 147.3125 238.589844 C 147.847656 239.738281 148.539062 240.78125 149.296875 241.785156 C 148.660156 243.34375 148.96875 245.207031 150.265625 246.4375 C 150.929688 247.078125 150.792969 246.5625 150.929688 247.0625 C 151.023438 247.386719 151.445312 247.519531 151.699219 247.734375 C 152.441406 248.359375 153.234375 248.929688 154.046875 249.464844 C 156.617188 251.136719 159.460938 252.300781 162.414062 253.085938 C 169.074219 254.859375 176.03125 254.683594 182.742188 256.136719 C 183.933594 256.390625 185.121094 256.699219 186.265625 257.09375 C 187.34375 257.46875 188.375 257.976562 189.453125 258.34375 C 191.527344 259.042969 193.789062 259.5625 195.976562 259.664062 C 199.464844 259.824219 202.871094 258.5 204.460938 255.175781 C 205.3125 253.398438 205.402344 251.300781 205.347656 249.367188 C 205.296875 247.390625 205.042969 245.425781 204.820312 243.460938 C 204.695312 242.359375 204.414062 241.121094 204.527344 240.007812 C 204.773438 237.765625 204.996094 235.523438 205.296875 233.285156 C 206.339844 225.53125 207.996094 217.847656 209.253906 210.128906 C 210.839844 200.363281 211.625 190.519531 212.582031 180.679688 C 213.128906 175.160156 213.808594 169.652344 214.453125 164.144531 C 216.511719 146.691406 218.472656 129.230469 220.253906 111.753906 C 221.65625 98.039062 222.953125 84.296875 223.90625 70.542969 C 224.425781 62.875 224.824219 55.214844 224.980469 47.527344 C 225.046875 43.984375 225.0625 40.417969 225.023438 36.871094 C 225.015625 35.636719 224.964844 34.410156 224.980469 33.175781 C 225.003906 31.292969 225.15625 29.398438 225.195312 27.511719 C 225.308594 22.617188 225.132812 15.519531 219.417969 13.761719 C 217.183594 13.074219 214.707031 13.082031 212.398438 13.113281 Z M 211.53125 23.097656 C 212.660156 23.128906 213.808594 23.222656 214.960938 23.3125 C 215.105469 24.398438 215.136719 25.515625 215.128906 26.601562 C 215.105469 29.214844 214.847656 31.8125 214.882812 34.425781 C 215.046875 45.09375 214.707031 55.746094 214.023438 66.390625 C 212.421875 91.441406 209.453125 116.371094 206.785156 141.320312 C 205.824219 150.269531 204.933594 159.242188 204.050781 168.199219 C 203.292969 175.882812 202.566406 183.554688 201.820312 191.238281 C 201.398438 195.621094 201.070312 200.023438 200.507812 204.390625 C 199.648438 210.984375 198.359375 217.515625 197.242188 224.070312 C 196.597656 227.890625 196.050781 231.742188 195.613281 235.589844 C 195.453125 237.007812 195.199219 238.4375 195.160156 239.863281 C 195.132812 240.746094 195.199219 241.625 195.277344 242.503906 C 195.460938 244.503906 195.761719 246.496094 195.90625 248.503906 C 195.953125 249.171875 195.984375 249.847656 195.976562 250.519531 C 195.953125 250.519531 195.921875 250.546875 195.90625 250.546875 C 195.183594 250.644531 194.433594 250.613281 193.71875 250.5 C 191.742188 250.179688 189.90625 249.328125 187.988281 248.769531 C 185.144531 247.941406 182.207031 247.445312 179.269531 247.066406 C 173.707031 246.347656 167.953125 246.210938 162.605469 244.378906 C 161.011719 243.832031 159.476562 243.054688 158.097656 242.074219 C 157.765625 241.839844 157.382812 241.542969 157.070312 241.28125 C 156.898438 241.144531 157.078125 241.28125 156.039062 240.347656 C 155.074219 239.429688 153.808594 239.121094 152.589844 239.292969 C 152.042969 238.246094 151.523438 237.175781 151.191406 236.050781 C 149.582031 230.558594 150.234375 224.582031 151 219.011719 C 152.011719 211.710938 153.679688 204.503906 154.429688 197.171875 C 154.746094 194.125 154.765625 191.0625 154.890625 188.003906 C 155.011719 184.820312 155.203125 181.652344 155.410156 178.476562 C 156.238281 166.113281 157.453125 153.773438 158.863281 141.46875 C 160.246094 129.476562 161.570312 117.488281 162.628906 105.46875 C 162.875 102.644531 163.175781 99.820312 163.375 96.996094 C 163.597656 93.769531 163.703125 90.550781 163.871094 87.324219 C 164.507812 75.59375 164.894531 63.847656 165.890625 52.140625 C 166.25 47.890625 166.671875 43.660156 167.109375 39.421875 C 167.378906 36.910156 167.847656 34.339844 167.761719 31.8125 C 167.707031 30.257812 167.410156 28.714844 167.445312 27.15625 C 167.457031 26.902344 167.46875 25.828125 167.875 25.765625 C 167.898438 25.765625 167.863281 25.839844 167.875 25.835938 C 167.953125 25.835938 168 25.761719 168.070312 25.742188 C 168.445312 25.628906 168.90625 25.664062 169.296875 25.621094 C 169.902344 25.550781 170.5 25.492188 171.113281 25.476562 C 173 25.4375 174.886719 25.597656 176.773438 25.449219 C 178.667969 25.300781 180.578125 24.972656 182.480469 24.800781 C 188.742188 24.226562 195.015625 23.707031 201.300781 23.359375 C 204.703125 23.171875 208.117188 23.042969 211.53125 23.09375 Z M 211.53125 23.097656 " fill-opacity="1" fill-rule="nonzero"/></g><g clip-path="url(#2b767dcfa6)"><path fill="#000000" d="M 149.136719 267.582031 C 148.230469 267.523438 147.328125 267.625 146.542969 267.917969 C 145.691406 268.238281 144.964844 268.757812 144.3125 269.382812 C 141.027344 272.558594 141.804688 277.277344 141.65625 281.40625 C 141.605469 282.886719 141.480469 284.371094 141.367188 285.847656 C 141.191406 288.15625 140.996094 290.472656 140.859375 292.785156 C 140.675781 295.996094 140.5625 299.191406 140.675781 302.40625 C 140.738281 304.222656 140.914062 306.042969 141.058594 307.855469 C 141.320312 311.28125 141.582031 314.707031 142.394531 318.054688 C 142.90625 320.136719 143.527344 322.410156 144.839844 324.152344 C 145.808594 325.429688 147.226562 326.523438 148.675781 327.175781 C 149.902344 327.726562 151.222656 327.960938 152.535156 328.160156 C 153.839844 328.355469 155.136719 328.394531 156.425781 328.375 C 157.707031 328.347656 158.976562 328.261719 160.28125 328.230469 C 162.324219 328.183594 164.378906 328.28125 166.417969 328.203125 C 170.421875 328.058594 174.398438 327.660156 178.402344 327.457031 C 181.148438 327.320312 183.925781 327.085938 186.671875 327.121094 C 186.9375 327.121094 187.175781 327.21875 187.4375 327.265625 C 188.003906 327.375 188.574219 327.460938 189.140625 327.53125 C 191.933594 327.878906 194.863281 328.042969 197.507812 326.90625 C 198.128906 326.640625 198.78125 326.296875 199.328125 325.898438 C 202.074219 323.898438 202.578125 321.265625 202.832031 318.121094 C 203 315.9375 202.988281 313.734375 203.046875 311.546875 C 203.164062 307.21875 203.230469 302.914062 203.214844 298.585938 C 203.203125 296.234375 203.046875 293.832031 203.164062 291.484375 C 203.238281 289.980469 203.570312 288.519531 203.691406 287.019531 C 203.921875 284.203125 203.5 281.148438 201.730469 278.859375 C 199.191406 275.578125 194.363281 275.515625 190.582031 275.140625 C 188.089844 274.890625 185.628906 274.347656 183.148438 273.988281 C 177.511719 273.164062 171.902344 272.265625 166.273438 271.417969 C 163.964844 271.074219 161.640625 270.691406 159.347656 270.265625 C 158.886719 270.183594 158.433594 270.085938 157.980469 270.003906 C 157.519531 269.917969 157.972656 270.003906 155.21875 269.476562 C 154.660156 269.316406 154.121094 269.363281 153.59375 269.503906 C 152.996094 269.007812 152.382812 268.5625 151.675781 268.230469 C 150.925781 267.882812 150.035156 267.644531 149.136719 267.582031 Z M 150.289062 274.039062 C 150.449219 274.039062 150.625 274.070312 150.785156 274.085938 C 151.039062 274.117188 151.285156 274.152344 151.53125 274.183594 C 151.453125 274.183594 151.367188 274.183594 151.292969 274.210938 C 150.878906 274.332031 150.472656 274.625 150.019531 274.523438 C 149.957031 274.523438 149.550781 274.324219 149.589844 274.210938 C 149.660156 274.015625 150.132812 274.035156 150.289062 274.042969 Z M 151.9375 274.519531 C 152.34375 275.015625 152.855469 275.414062 153.515625 275.597656 C 154.890625 276.085938 154.414062 275.824219 154.890625 276.101562 C 155.3125 276.351562 155.832031 276.40625 156.300781 276.558594 C 157.230469 276.867188 158.164062 277.152344 159.109375 277.421875 C 161.449219 278.097656 163.8125 278.726562 166.171875 279.296875 C 169.925781 280.191406 173.714844 280.8125 177.496094 281.550781 C 180.871094 282.210938 184.214844 283.070312 187.605469 283.640625 C 189.402344 283.941406 191.21875 284.035156 193.023438 284.261719 C 193.589844 284.335938 194.234375 284.390625 194.777344 284.550781 C 194.777344 284.601562 194.777344 284.660156 194.777344 284.695312 C 194.746094 285.007812 194.679688 285.320312 194.632812 285.632812 C 194.417969 286.996094 194.117188 288.347656 193.910156 289.710938 C 193.613281 291.675781 193.621094 293.707031 193.550781 295.6875 C 193.472656 298.164062 193.351562 300.628906 193.289062 303.105469 C 193.199219 306.675781 193.097656 310.269531 192.59375 313.808594 C 192.476562 314.621094 192.308594 315.425781 192.140625 316.230469 C 191.511719 316.230469 190.890625 316.179688 190.269531 316.136719 C 189.226562 316.0625 188.175781 316.019531 187.128906 316.0625 C 184.84375 316.164062 182.550781 316.648438 180.296875 316.976562 C 176.03125 317.59375 171.78125 318.03125 167.46875 318.222656 C 165.628906 318.304688 163.804688 318.351562 161.953125 318.320312 C 161.503906 318.320312 161.050781 318.347656 160.589844 318.289062 C 158.886719 318.136719 157.207031 317.613281 155.535156 317.285156 C 155.257812 317.226562 154.972656 317.1875 154.699219 317.136719 C 154.644531 317.046875 154.558594 316.96875 154.507812 316.875 C 153.792969 315.671875 153.484375 314.257812 153.1875 312.914062 C 152.765625 311.046875 152.449219 309.171875 152.203125 307.273438 C 151.4375 301.484375 151.769531 295.644531 151.9375 289.824219 C 152.003906 287.480469 152.027344 285.117188 152.035156 282.769531 C 152.035156 280.558594 151.90625 278.332031 151.984375 276.121094 C 152.003906 275.585938 151.972656 275.050781 151.9375 274.515625 Z M 191.824219 317.503906 C 191.765625 317.710938 191.75 317.925781 191.632812 318.078125 C 191.609375 318.109375 191.601562 318.019531 191.609375 317.984375 C 191.65625 317.863281 191.695312 317.734375 191.757812 317.625 C 191.78125 317.589844 191.800781 317.539062 191.824219 317.503906 Z M 191.824219 317.503906 " fill-opacity="1" fill-rule="nonzero"/></g><path fill="#000000" d="M 150.695312 270.582031 C 149.660156 270.480469 148.753906 271.230469 148.652344 272.261719 C 148.40625 273.734375 148.246094 275.222656 148.078125 276.703125 C 147.839844 278.785156 147.632812 280.847656 147.578125 282.941406 C 147.472656 283.996094 148.246094 284.929688 149.296875 285.03125 C 150.355469 285.132812 151.285156 284.355469 151.382812 283.304688 C 151.730469 281.234375 151.921875 279.179688 152.082031 277.085938 C 152.199219 275.601562 152.335938 274.113281 152.367188 272.625 C 152.472656 271.589844 151.722656 270.683594 150.695312 270.582031 Z M 150.695312 270.582031 " fill-opacity="1" fill-rule="nonzero"/><path fill="#000000" d="M 197.339844 20.648438 C 197.132812 20.726562 196.957031 20.886719 196.859375 21.105469 C 194.21875 26.523438 189.539062 30.433594 185.878906 35.121094 C 181.214844 41.113281 176.421875 46.996094 171.742188 52.976562 C 169.195312 56.226562 166.574219 59.429688 164.210938 62.816406 C 162.898438 64.703125 161.71875 66.695312 160.542969 68.671875 C 160.183594 69.28125 160.390625 70.066406 161.003906 70.425781 C 161.609375 70.785156 162.390625 70.574219 162.753906 69.96875 C 165.214844 65.796875 167.863281 61.695312 170.707031 57.777344 C 174.003906 53.242188 177.566406 48.90625 181.0625 44.53125 C 183.226562 41.824219 185.34375 39.082031 187.46875 36.34375 C 190.230469 32.773438 193.652344 29.738281 196.214844 26 C 197.109375 24.691406 197.832031 23.261719 198.445312 21.800781 C 198.636719 21.367188 198.445312 20.867188 198.007812 20.671875 C 197.792969 20.574219 197.546875 20.570312 197.339844 20.644531 Z M 197.339844 20.648438 " fill-opacity="1" fill-rule="nonzero"/><path fill="#000000" d="M 205.734375 27.464844 C 205.511719 27.46875 205.296875 27.558594 205.132812 27.730469 C 199.695312 33.171875 194.378906 38.726562 189.117188 44.335938 C 183.273438 50.570312 177.480469 56.839844 171.882812 63.296875 C 168.3125 67.414062 164.871094 71.644531 161.386719 75.824219 C 161.148438 76.117188 161.058594 76.46875 161.09375 76.808594 C 161.132812 77.152344 161.308594 77.464844 161.601562 77.695312 C 162.175781 78.160156 163.027344 78.0625 163.488281 77.480469 C 171.910156 66.378906 181.132812 55.917969 190.582031 45.683594 C 195.792969 40.042969 201.128906 34.53125 206.355469 28.90625 C 206.515625 28.734375 206.597656 28.527344 206.59375 28.308594 C 206.59375 28.085938 206.5 27.871094 206.332031 27.707031 C 206.160156 27.542969 205.949219 27.464844 205.734375 27.464844 Z M 205.734375 27.464844 " fill-opacity="1" fill-rule="nonzero"/><path fill="#000000" d="M 212.015625 34.210938 C 211.777344 34.023438 211.433594 34.070312 211.25 34.304688 C 207.933594 37.976562 204.773438 41.75 201.492188 45.441406 C 196.980469 50.5 192.308594 55.421875 187.730469 60.417969 C 185.074219 63.3125 182.503906 66.289062 179.820312 69.152344 C 173.398438 75.992188 166.035156 81.996094 160.972656 90.007812 C 160.511719 90.851562 160.804688 91.917969 161.648438 92.382812 C 162.492188 92.851562 163.550781 92.53125 164.019531 91.6875 C 165.054688 89.507812 166.234375 87.421875 167.660156 85.472656 C 171.652344 80.03125 176.789062 75.527344 181.378906 70.617188 C 183.21875 68.644531 184.96875 66.574219 186.769531 64.570312 C 190.285156 60.664062 193.820312 56.773438 197.316406 52.855469 C 202.472656 47.089844 207.703125 41.347656 212.105469 34.976562 C 212.292969 34.742188 212.246094 34.394531 212.015625 34.207031 Z M 212.015625 34.210938 " fill-opacity="1" fill-rule="nonzero"/><path fill="#000000" d="M 209.976562 50.9375 C 209.707031 50.710938 209.316406 50.761719 209.085938 51.035156 C 207.8125 52.359375 206.5 53.664062 205.226562 54.992188 C 202.15625 58.210938 199.210938 61.519531 196.167969 64.761719 C 192.222656 68.957031 188.21875 73.121094 184.230469 77.265625 C 179.136719 82.550781 174.011719 87.832031 168.933594 93.128906 C 167.839844 94.273438 166.703125 95.378906 165.628906 96.539062 C 162.769531 99.617188 160.128906 102.898438 157.453125 106.136719 C 157.070312 106.601562 156.890625 107.1875 156.945312 107.746094 C 157 108.300781 157.277344 108.824219 157.734375 109.210938 C 158.203125 109.59375 158.785156 109.765625 159.347656 109.714844 C 159.898438 109.660156 160.429688 109.386719 160.804688 108.921875 C 162.140625 107.304688 163.503906 105.6875 164.808594 104.050781 C 166.105469 102.417969 167.332031 100.765625 168.621094 99.128906 C 172.816406 93.8125 177.359375 88.738281 181.898438 83.722656 C 187.53125 77.507812 193.367188 71.480469 198.996094 65.265625 C 201.636719 62.34375 204.34375 59.429688 206.761719 56.3125 C 207.894531 54.855469 208.953125 53.339844 210.042969 51.851562 C 210.273438 51.578125 210.242188 51.164062 209.976562 50.9375 Z M 209.976562 50.9375 " fill-opacity="1" fill-rule="nonzero"/><path fill="#000000" d="M 201.535156 75.007812 C 201.253906 75.007812 200.953125 75.144531 200.746094 75.367188 C 193.773438 82.695312 186.839844 90.050781 179.699219 97.210938 C 176.460938 100.457031 173.140625 103.636719 169.941406 106.929688 C 167.046875 109.910156 164.332031 113.042969 161.570312 116.144531 C 159.40625 118.582031 157.207031 121 155.152344 123.535156 C 154.757812 124.03125 154.605469 124.636719 154.667969 125.214844 C 154.738281 125.796875 155.042969 126.359375 155.535156 126.753906 C 156.023438 127.144531 156.632812 127.300781 157.214844 127.230469 C 157.789062 127.164062 158.355469 126.863281 158.75 126.367188 C 160.710938 123.824219 162.605469 121.226562 164.617188 118.714844 C 166.902344 115.859375 169.328125 113.148438 171.6875 110.359375 C 174.933594 106.535156 178.15625 102.679688 181.515625 98.960938 C 188.3125 91.460938 195.5 84.304688 202.371094 76.882812 C 202.585938 76.65625 202.671875 76.375 202.664062 76.089844 C 202.65625 75.804688 202.550781 75.53125 202.328125 75.320312 C 202.105469 75.109375 201.820312 75 201.535156 75.007812 Z M 201.535156 75.007812 " fill-opacity="1" fill-rule="nonzero"/><path fill="#000000" d="M 199.640625 92.9375 C 199.394531 92.9375 199.152344 93.035156 198.972656 93.222656 C 194.808594 97.433594 190.597656 101.605469 186.265625 105.632812 C 183.171875 108.503906 179.988281 111.257812 176.867188 114.105469 C 174.996094 115.816406 173.191406 117.609375 171.382812 119.382812 C 169.554688 121.164062 167.722656 122.921875 165.957031 124.757812 C 162.390625 128.476562 159.101562 132.46875 155.894531 136.496094 C 155.074219 137.527344 155.25 139.011719 156.277344 139.832031 C 157.304688 140.652344 158.808594 140.503906 159.628906 139.472656 C 162.515625 135.84375 165.515625 132.335938 168.550781 128.839844 C 169.925781 127.257812 171.265625 125.660156 172.648438 124.089844 C 174.304688 122.199219 176.046875 120.386719 177.757812 118.542969 C 181.195312 114.84375 184.476562 110.988281 187.96875 107.335938 C 192.0625 103.046875 196.242188 98.863281 200.339844 94.566406 C 200.523438 94.378906 200.601562 94.140625 200.601562 93.894531 C 200.601562 93.652344 200.5 93.40625 200.308594 93.222656 C 200.125 93.042969 199.886719 92.933594 199.640625 92.9375 Z M 199.640625 92.9375 " fill-opacity="1" fill-rule="nonzero"/><path fill="#000000" d="M 198.445312 105.679688 C 198.101562 105.710938 197.777344 105.859375 197.53125 106.136719 C 188.988281 115.378906 180.792969 124.96875 172.027344 134 C 169.734375 136.363281 167.355469 138.636719 164.953125 140.886719 C 161.511719 144.121094 158.035156 147.351562 155.128906 151.089844 C 154.78125 151.535156 154.628906 152.078125 154.699219 152.601562 C 154.757812 153.121094 155.042969 153.621094 155.488281 153.96875 C 156.378906 154.664062 157.644531 154.5 158.339844 153.609375 C 160.335938 151.039062 162.355469 148.507812 164.59375 146.144531 C 168.152344 142.394531 172.003906 138.9375 175.546875 135.175781 C 183.871094 126.359375 191.792969 117.222656 199.519531 107.890625 C 199.765625 107.609375 199.878906 107.269531 199.855469 106.929688 C 199.832031 106.585938 199.679688 106.261719 199.402344 106.015625 C 199.128906 105.773438 198.78125 105.65625 198.445312 105.679688 Z M 198.445312 105.679688 " fill-opacity="1" fill-rule="nonzero"/><path fill="#000000" d="M 182.621094 137.480469 C 182.246094 137.480469 181.875 137.625 181.59375 137.914062 C 178.339844 141.042969 175.308594 144.449219 172.308594 147.824219 C 170.300781 150.09375 168.320312 152.351562 166.082031 154.398438 C 164.171875 156.148438 162.03125 157.617188 160.066406 159.296875 C 159.453125 159.820312 158.886719 160.386719 158.289062 160.929688 C 157.074219 162.035156 155.808594 163.09375 154.644531 164.265625 C 153.648438 165.269531 152.765625 166.351562 151.914062 167.480469 C 151.53125 167.921875 151.367188 168.476562 151.414062 169.015625 C 151.453125 169.554688 151.714844 170.097656 152.152344 170.480469 C 152.597656 170.863281 153.148438 171.023438 153.683594 170.984375 C 154.230469 170.945312 154.742188 170.683594 155.128906 170.238281 C 156.898438 168.425781 158.71875 166.628906 160.6875 165.03125 C 161.496094 164.378906 162.355469 163.808594 163.183594 163.183594 C 164.234375 162.390625 165.253906 161.546875 166.273438 160.710938 C 168.34375 159.019531 170.40625 157.242188 172.21875 155.265625 C 176.542969 150.53125 179.335938 144.671875 183.679688 139.953125 C 183.960938 139.664062 184.117188 139.296875 184.109375 138.921875 C 184.101562 138.546875 183.941406 138.171875 183.65625 137.886719 C 183.363281 137.605469 182.996094 137.476562 182.621094 137.480469 Z M 182.621094 137.480469 " fill-opacity="1" fill-rule="nonzero"/><path fill="#000000" d="M 184.539062 152.457031 C 184.269531 152.457031 184.007812 152.542969 183.792969 152.742188 C 182.039062 154.410156 180.289062 156.082031 178.476562 157.6875 C 175.960938 159.910156 173.347656 162.039062 170.851562 164.289062 C 164.257812 170.230469 157.957031 176.46875 152.035156 183.078125 C 151.699219 183.453125 151.554688 183.9375 151.574219 184.398438 C 151.605469 184.863281 151.804688 185.3125 152.183594 185.648438 C 152.550781 185.980469 153.035156 186.128906 153.492188 186.105469 C 153.960938 186.074219 154.40625 185.878906 154.742188 185.503906 C 160.597656 178.953125 166.808594 172.78125 173.03125 166.589844 C 175.417969 164.226562 177.703125 161.761719 180.058594 159.367188 C 181.761719 157.636719 183.503906 155.957031 185.234375 154.257812 C 185.441406 154.054688 185.566406 153.78125 185.574219 153.511719 C 185.574219 153.242188 185.457031 152.976562 185.257812 152.769531 C 185.058594 152.558594 184.804688 152.460938 184.539062 152.457031 Z M 184.539062 152.457031 " fill-opacity="1" fill-rule="nonzero"/><path fill="#000000" d="M 199.902344 153.585938 C 199.582031 153.585938 199.242188 153.71875 198.996094 153.96875 C 196.734375 155.742188 194.457031 157.507812 192.308594 159.417969 C 188.304688 162.957031 184.445312 166.660156 180.417969 170.167969 C 174.089844 175.671875 167.800781 181.234375 161.863281 187.160156 C 159.777344 189.246094 157.660156 191.3125 155.726562 193.542969 C 153.148438 196.523438 151.292969 199.984375 148.890625 203.09375 C 148.613281 203.457031 148.507812 203.902344 148.5625 204.320312 C 148.613281 204.738281 148.84375 205.148438 149.207031 205.425781 C 149.925781 205.980469 150.953125 205.832031 151.507812 205.113281 C 152.066406 204.382812 152.664062 203.566406 153.277344 202.878906 C 154.238281 201.808594 155.367188 200.921875 156.402344 199.929688 C 157.429688 198.941406 158.417969 197.917969 159.394531 196.878906 C 163.367188 192.667969 167.378906 188.515625 171.574219 184.519531 C 175.472656 180.804688 179.492188 177.191406 183.433594 173.527344 C 187.382812 169.867188 191.511719 166.359375 195.253906 162.488281 C 197.285156 160.386719 199.066406 158.078125 200.816406 155.746094 C 201.0625 155.492188 201.175781 155.183594 201.175781 154.855469 C 201.175781 154.53125 201.046875 154.191406 200.792969 153.945312 C 200.539062 153.699219 200.234375 153.582031 199.902344 153.585938 Z M 199.902344 153.585938 " fill-opacity="1" fill-rule="nonzero"/><path fill="#000000" d="M 194.703125 171.34375 C 194.417969 171.34375 194.117188 171.476562 193.910156 171.703125 C 190.621094 174.84375 188.058594 178.546875 185.066406 181.953125 C 183.601562 183.621094 182.007812 185.183594 180.394531 186.703125 C 174.40625 192.335938 167.960938 197.480469 161.953125 203.09375 C 156.859375 207.863281 152.035156 212.894531 147.71875 218.382812 C 146.851562 219.492188 147.042969 221.089844 148.148438 221.960938 C 149.257812 222.832031 150.855469 222.636719 151.722656 221.527344 C 153.785156 218.890625 155.941406 216.328125 158.21875 213.871094 C 161.210938 210.648438 164.441406 207.648438 167.617188 204.609375 C 172.089844 200.324219 176.574219 196.03125 180.847656 191.550781 C 183.15625 189.128906 185.480469 186.671875 187.558594 184.039062 C 190.34375 180.519531 192.699219 176.695312 195.546875 173.214844 C 195.753906 172.992188 195.867188 172.710938 195.851562 172.425781 C 195.84375 172.140625 195.722656 171.863281 195.492188 171.65625 C 195.269531 171.445312 194.984375 171.332031 194.703125 171.34375 Z M 194.703125 171.34375 " fill-opacity="1" fill-rule="nonzero"/><path fill="#000000" d="M 195.875 186.25 C 195.570312 186.277344 195.277344 186.425781 195.0625 186.679688 C 189.59375 192.53125 184.375 198.59375 178.929688 204.464844 C 174.121094 209.652344 169.128906 214.671875 164.355469 219.894531 C 159.285156 225.445312 154.316406 231.097656 149.351562 236.742188 C 148.976562 237.167969 148.816406 237.707031 148.84375 238.230469 C 148.882812 238.753906 149.113281 239.273438 149.542969 239.648438 C 149.964844 240.019531 150.503906 240.183594 151.03125 240.152344 C 151.554688 240.121094 152.066406 239.882812 152.441406 239.457031 C 154.914062 236.640625 157.335938 233.808594 159.824219 231.007812 C 163.566406 226.789062 167.386719 222.640625 171.089844 218.382812 C 174.503906 214.46875 177.855469 210.503906 181.277344 206.601562 C 186.578125 200.558594 191.933594 194.566406 196.886719 188.238281 C 197.316406 187.734375 197.273438 186.96875 196.765625 186.535156 C 196.511719 186.320312 196.191406 186.222656 195.875 186.25 Z M 195.875 186.25 " fill-opacity="1" fill-rule="nonzero"/><path fill="#000000" d="M 194.226562 205.6875 C 193.910156 205.789062 193.636719 206.023438 193.480469 206.335938 C 191.816406 208.53125 189.746094 210.382812 187.773438 212.289062 C 185.496094 214.484375 183.289062 216.71875 181.207031 219.105469 C 176.367188 224.65625 171.8125 230.453125 166.824219 235.878906 C 163.671875 239.3125 160.4375 242.613281 156.707031 245.433594 C 155.6875 246.203125 155.503906 247.652344 156.277344 248.671875 C 157.046875 249.691406 158.496094 249.898438 159.515625 249.128906 C 164.648438 245.230469 168.957031 240.515625 173.109375 235.617188 C 177.265625 230.707031 181.214844 225.625 185.449219 220.785156 C 189.171875 216.53125 194.019531 213.089844 195.761719 207.488281 C 196.074219 206.859375 195.835938 206.078125 195.207031 205.761719 C 194.894531 205.601562 194.535156 205.585938 194.226562 205.6875 Z M 194.226562 205.6875 " fill-opacity="1" fill-rule="nonzero"/><path fill="#000000" d="M 192.09375 224.40625 C 191.617188 224.550781 191.1875 224.871094 190.941406 225.34375 C 188.152344 229.503906 184.761719 233.097656 180.992188 236.382812 C 179.144531 237.992188 177.226562 239.523438 175.410156 241.160156 C 174.296875 242.15625 173.253906 243.210938 172.195312 244.253906 C 171.136719 245.296875 170.046875 246.324219 169.128906 247.496094 C 168.503906 248.28125 168.007812 249.078125 167.46875 249.917969 C 167.15625 250.316406 167.03125 250.816406 167.085938 251.289062 C 167.140625 251.757812 167.386719 252.21875 167.785156 252.535156 C 168.183594 252.855469 168.660156 252.972656 169.128906 252.917969 C 169.59375 252.867188 170.054688 252.621094 170.371094 252.222656 C 171.015625 251.589844 171.667969 250.980469 172.308594 250.351562 C 173.300781 249.398438 174.226562 248.398438 175.242188 247.472656 C 176.285156 246.507812 177.417969 245.613281 178.5 244.6875 C 180.742188 242.765625 182.988281 240.855469 185.167969 238.855469 C 188.839844 235.476562 192.410156 231.832031 194.371094 227.167969 C 194.871094 226.222656 194.519531 225.054688 193.574219 224.550781 C 193.105469 224.300781 192.5625 224.265625 192.09375 224.40625 Z M 192.09375 224.40625 " fill-opacity="1" fill-rule="nonzero"/><path fill="#000000" d="M 191.871094 240.128906 C 191.449219 240.128906 191.042969 240.324219 190.722656 240.65625 C 189.417969 241.648438 188.058594 242.601562 186.839844 243.703125 C 185.175781 245.214844 183.679688 246.890625 182.167969 248.550781 C 181.699219 249.015625 181.445312 249.621094 181.445312 250.230469 C 181.445312 250.84375 181.675781 251.46875 182.144531 251.933594 C 182.605469 252.402344 183.210938 252.628906 183.816406 252.632812 C 184.429688 252.632812 185.058594 252.398438 185.519531 251.933594 C 187.246094 250.382812 188.878906 248.792969 190.3125 246.96875 C 191.328125 245.6875 192.203125 244.285156 193.121094 242.9375 C 193.4375 242.605469 193.589844 242.160156 193.574219 241.734375 C 193.566406 241.3125 193.382812 240.898438 193.050781 240.582031 C 192.722656 240.269531 192.300781 240.117188 191.871094 240.128906 Z M 191.871094 240.128906 " fill-opacity="1" fill-rule="nonzero"/><path fill="#000000" d="M 180.417969 28.570312 C 180.21875 28.5 180.003906 28.597656 179.933594 28.785156 C 178.179688 31.75 176.117188 34.535156 173.796875 37.089844 C 171.445312 39.691406 168.933594 42.144531 166.609375 44.769531 C 165.550781 45.957031 164.53125 47.175781 163.632812 48.492188 C 162.828125 49.679688 162.222656 51.046875 161.21875 52.089844 C 160.941406 52.375 160.605469 52.601562 160.304688 52.859375 C 160.074219 53.058594 159.96875 53.34375 159.945312 53.625 C 159.921875 53.90625 160.007812 54.210938 160.207031 54.441406 C 160.414062 54.675781 160.695312 54.78125 160.972656 54.800781 C 161.257812 54.832031 161.53125 54.738281 161.769531 54.539062 C 162.476562 53.917969 163.160156 53.261719 163.710938 52.5 C 164.625 51.226562 165.191406 49.785156 166.011719 48.464844 C 166.402344 47.824219 166.910156 47.261719 167.402344 46.691406 C 170.570312 42.972656 174.152344 39.585938 177.160156 35.722656 C 178.691406 33.75 180.257812 31.574219 180.65625 29.050781 C 180.726562 28.851562 180.617188 28.640625 180.417969 28.570312 Z M 180.417969 28.570312 " fill-opacity="1" fill-rule="nonzero"/><path fill="#000000" d="M 163.082031 282.941406 C 162.785156 282.761719 162.398438 282.859375 162.222656 283.15625 C 160.558594 285.347656 158.902344 287.527344 157.136719 289.636719 C 155.050781 292.144531 152.828125 294.546875 150.761719 297.078125 C 149.214844 298.980469 147.777344 300.984375 146.613281 303.152344 C 146.230469 303.871094 145.800781 304.574219 145.5625 305.359375 C 145.445312 305.753906 145.429688 306.175781 145.371094 306.582031 C 145.203125 307.015625 145.417969 307.492188 145.847656 307.664062 C 146.28125 307.832031 146.757812 307.632812 146.925781 307.207031 C 147.148438 306.882812 147.402344 306.5625 147.601562 306.222656 C 147.785156 305.898438 147.894531 305.527344 148.054688 305.191406 C 148.371094 304.542969 148.769531 303.820312 149.136719 303.199219 C 150.308594 301.183594 151.707031 299.265625 153.164062 297.4375 C 154.675781 295.53125 156.246094 293.6875 157.8125 291.824219 C 159.914062 289.320312 161.910156 286.78125 163.304688 283.804688 C 163.480469 283.503906 163.390625 283.125 163.082031 282.941406 Z M 163.082031 282.941406 " fill-opacity="1" fill-rule="nonzero"/><path fill="#000000" d="M 172.21875 288.488281 C 169.972656 289.699219 167.816406 291.085938 165.84375 292.710938 C 163.613281 294.546875 161.617188 296.652344 159.707031 298.808594 C 157.246094 301.582031 154.980469 304.492188 152.972656 307.613281 C 151.984375 309.144531 151.054688 310.707031 150.164062 312.296875 C 149.710938 313.101562 149.082031 314.148438 148.777344 315.03125 C 148.605469 315.515625 148.539062 316.023438 148.414062 316.519531 C 148.117188 317.113281 148.347656 317.847656 148.945312 318.152344 C 149.535156 318.453125 150.273438 318.195312 150.570312 317.597656 C 150.894531 317.214844 151.238281 316.855469 151.53125 316.445312 C 152.019531 315.761719 152.605469 314.636719 153.019531 313.902344 C 153.5625 312.925781 153.953125 312.269531 154.53125 311.3125 C 155.832031 309.136719 157.253906 307.011719 158.703125 304.925781 C 162.738281 299.089844 167.53125 293.898438 172.480469 288.824219 C 172.578125 288.75 172.601562 288.609375 172.53125 288.511719 C 172.457031 288.414062 172.316406 288.414062 172.21875 288.480469 Z M 172.21875 288.488281 " fill-opacity="1" fill-rule="nonzero"/><path fill="#000000" d="M 183.171875 292.304688 C 183.042969 292.183594 182.835938 292.195312 182.71875 292.332031 C 179.726562 294.769531 177.074219 297.527344 174.449219 300.347656 C 172.316406 302.636719 170.214844 304.9375 168.089844 307.238281 C 166.671875 308.785156 165.277344 310.367188 163.757812 311.820312 C 161.839844 313.652344 159.792969 315.328125 158.21875 317.484375 C 157.765625 318.105469 157.222656 318.851562 157.070312 319.621094 C 157.007812 319.929688 157.023438 320.601562 157.023438 320.917969 C 156.832031 321.402344 157.0625 321.925781 157.550781 322.117188 C 158.027344 322.304688 158.578125 322.074219 158.769531 321.589844 C 159.03125 321.320312 159.308594 321.09375 159.5625 320.820312 C 159.898438 320.464844 160.089844 320.003906 160.351562 319.597656 C 160.605469 319.203125 160.949219 318.722656 161.21875 318.371094 C 161.847656 317.546875 162.539062 316.773438 163.25 316.019531 C 164.269531 314.941406 165.34375 313.929688 166.375 312.851562 C 169.503906 309.550781 172.441406 306.0625 175.410156 302.605469 C 178.132812 299.425781 180.871094 296.253906 183.195312 292.765625 C 183.316406 292.632812 183.304688 292.425781 183.171875 292.308594 Z M 183.171875 292.304688 " fill-opacity="1" fill-rule="nonzero"/><path fill="#000000" d="M 188.972656 296.742188 C 188.847656 296.683594 188.703125 296.742188 188.640625 296.863281 C 183.003906 304.246094 175.417969 309.847656 169.34375 316.828125 C 168.453125 317.855469 167.453125 318.855469 166.65625 319.949219 C 166.171875 320.609375 165.765625 321.363281 165.335938 322.0625 C 165.070312 322.503906 164.816406 322.941406 164.546875 323.382812 C 164.410156 323.601562 164.226562 323.808594 164.140625 324.054688 C 163.996094 324.464844 163.988281 325.371094 163.972656 325.78125 C 163.648438 326.304688 163.835938 327 164.355469 327.316406 C 164.878906 327.636719 165.542969 327.457031 165.867188 326.933594 C 166.226562 326.734375 167.054688 326.339844 167.355469 326.023438 C 167.707031 325.644531 167.875 325.121094 168.144531 324.679688 C 168.644531 323.847656 169.105469 322.941406 169.679688 322.160156 C 170.109375 321.566406 170.660156 321.03125 171.136719 320.476562 C 171.828125 319.675781 172.511719 318.859375 173.199219 318.054688 C 174.21875 316.867188 175.386719 315.804688 176.484375 314.695312 C 179.535156 311.609375 182.683594 308.597656 185.234375 305.070312 C 186.179688 303.765625 187.070312 302.359375 187.753906 300.894531 C 188.320312 299.671875 188.734375 298.398438 189.09375 297.101562 C 189.15625 296.976562 189.101562 296.804688 188.972656 296.742188 Z M 188.972656 296.742188 " fill-opacity="1" fill-rule="nonzero"/><path fill="#000000" d="M 174.011719 20.984375 C 173.578125 21.039062 173.140625 21.253906 172.839844 21.632812 C 172.25 22.394531 172.394531 23.488281 173.15625 24.082031 C 177.265625 27.289062 180.464844 31.558594 183.816406 35.503906 C 189.875 42.625 195.683594 49.9375 201.660156 57.128906 C 203.445312 59.289062 205.234375 61.464844 207.050781 63.609375 C 208.050781 64.796875 209.054688 66.023438 210.167969 67.113281 C 210.832031 67.769531 211.546875 68.363281 212.253906 68.984375 C 212.414062 69.171875 212.691406 69.195312 212.875 69.03125 C 213.058594 68.871094 213.082031 68.59375 212.921875 68.410156 C 212.40625 67.628906 211.898438 66.816406 211.363281 66.054688 C 210.472656 64.792969 209.476562 63.613281 208.507812 62.40625 C 206.960938 60.46875 205.417969 58.515625 203.929688 56.527344 C 200.9375 52.527344 198 48.476562 194.941406 44.527344 C 192.445312 41.304688 189.878906 38.160156 187.246094 35.046875 C 185.582031 33.074219 183.925781 31.082031 182.359375 29.023438 C 181.300781 27.632812 180.28125 26.214844 179.121094 24.894531 C 177.964844 23.574219 176.691406 22.425781 175.308594 21.34375 C 174.933594 21.046875 174.457031 20.929688 174.011719 20.984375 Z M 174.011719 20.984375 " fill-opacity="1" fill-rule="nonzero"/><path fill="#000000" d="M 188.328125 19.519531 C 188.003906 19.488281 187.667969 19.585938 187.390625 19.808594 C 187.125 20.035156 186.96875 20.347656 186.9375 20.671875 C 186.910156 21 187 21.335938 187.222656 21.609375 C 188.664062 23.347656 190.144531 25.042969 191.542969 26.816406 C 194.863281 31.042969 198.015625 35.394531 201.128906 39.777344 C 202.773438 42.09375 204.453125 44.417969 206.164062 46.6875 C 208.058594 49.203125 210.003906 51.640625 212.445312 53.648438 C 212.652344 53.890625 212.996094 53.925781 213.234375 53.722656 C 213.472656 53.515625 213.511719 53.144531 213.304688 52.90625 C 212.136719 50.964844 210.789062 49.1875 209.421875 47.386719 C 207.894531 45.367188 206.386719 43.351562 204.910156 41.289062 C 203.269531 38.976562 201.621094 36.65625 200.003906 34.328125 C 197.886719 31.289062 195.835938 28.175781 193.550781 25.257812 C 192.148438 23.464844 190.636719 21.738281 189.1875 19.976562 C 188.964844 19.703125 188.648438 19.554688 188.328125 19.523438 Z M 188.328125 19.519531 " fill-opacity="1" fill-rule="nonzero"/><path fill="#000000" d="M 166.871094 25.378906 C 166.464844 25.21875 165.988281 25.210938 165.550781 25.40625 C 164.6875 25.785156 164.285156 26.796875 164.671875 27.660156 C 165.398438 28.746094 165.9375 29.863281 166.589844 31 C 167.226562 32.121094 167.914062 33.246094 168.644531 34.308594 C 169.871094 36.09375 171.238281 37.785156 172.53125 39.519531 C 177.367188 45.980469 182.46875 52.222656 187.324219 58.671875 C 189.945312 62.160156 192.570312 65.636719 195.183594 69.132812 C 198.390625 73.433594 201.644531 77.71875 205.417969 81.542969 C 205.511719 81.648438 205.671875 81.65625 205.777344 81.570312 C 205.886719 81.480469 205.894531 81.316406 205.800781 81.210938 C 202.464844 76.71875 198.859375 72.425781 195.546875 67.914062 C 190.613281 61.207031 185.933594 54.320312 180.871094 47.707031 C 178.285156 44.324219 175.523438 41.03125 173.222656 37.4375 C 172.316406 36.011719 171.527344 34.535156 170.730469 33.042969 C 169.957031 31.59375 169.25 30.101562 168.574219 28.605469 C 168.40625 28.234375 168.199219 27.882812 168.070312 27.5 C 167.945312 27.105469 167.898438 26.707031 167.808594 26.300781 C 167.617188 25.867188 167.277344 25.546875 166.871094 25.386719 Z M 166.871094 25.378906 " fill-opacity="1" fill-rule="nonzero"/><path fill="#000000" d="M 165.054688 36.824219 C 164.140625 36.867188 163.425781 37.644531 163.464844 38.550781 C 163.789062 45.253906 168.511719 49.789062 172.457031 54.707031 C 175.300781 58.242188 177.863281 62 180.65625 65.578125 C 182.046875 67.351562 183.523438 69.0625 184.945312 70.808594 C 186.929688 73.246094 188.839844 75.761719 190.699219 78.296875 C 191.949219 80 193.214844 81.703125 194.320312 83.503906 C 196.40625 86.894531 198.054688 90.597656 201.175781 93.175781 C 201.207031 93.21875 201.285156 93.234375 201.320312 93.207031 C 201.359375 93.171875 201.351562 93.101562 201.320312 93.0625 C 199.335938 89.652344 197.800781 86 195.804688 82.597656 C 193.8125 79.183594 191.402344 76.011719 189.1875 72.734375 C 187.167969 69.738281 185.273438 66.664062 183.195312 63.710938 C 181.644531 61.5 180.011719 59.351562 178.402344 57.179688 C 176.796875 55.015625 175.195312 52.84375 173.460938 50.773438 C 170.445312 47.164062 166.972656 43.335938 166.757812 38.390625 C 166.710938 37.480469 165.960938 36.789062 165.054688 36.828125 Z M 165.054688 36.824219 " fill-opacity="1" fill-rule="nonzero"/><path fill="#000000" d="M 162.054688 52.640625 C 161.785156 52.570312 161.496094 52.609375 161.242188 52.761719 C 160.726562 53.0625 160.582031 53.710938 160.878906 54.226562 C 160.949219 54.71875 160.910156 55.238281 161.074219 55.710938 C 161.21875 56.148438 161.554688 56.515625 161.792969 56.914062 C 162.023438 57.308594 162.253906 57.691406 162.484375 58.089844 C 162.960938 58.890625 163.441406 59.691406 163.925781 60.488281 C 166.089844 64.050781 168.28125 67.589844 170.539062 71.097656 C 173.804688 76.167969 177.375 81.015625 180.871094 85.929688 C 183.296875 89.324219 185.636719 92.785156 188.160156 96.105469 C 190.40625 99.0625 192.835938 101.871094 195.277344 104.671875 C 196.496094 106.070312 197.65625 107.523438 198.875 108.921875 C 199.011719 109.101562 199.265625 109.132812 199.449219 108.992188 C 199.632812 108.855469 199.65625 108.597656 199.519531 108.417969 C 198.492188 106.878906 197.378906 105.402344 196.359375 103.855469 C 194.578125 101.152344 192.828125 98.414062 190.988281 95.746094 C 188.375 91.945312 185.574219 88.269531 183.003906 84.441406 C 179.925781 79.851562 177.019531 75.152344 174.042969 70.496094 C 171.558594 66.617188 169.121094 62.722656 166.726562 58.785156 C 166.011719 57.605469 165.316406 56.421875 164.617188 55.234375 C 164.386719 54.835938 164.234375 54.375 163.925781 54.035156 C 163.589844 53.664062 163.121094 53.445312 162.722656 53.144531 C 162.574219 52.890625 162.324219 52.710938 162.054688 52.640625 Z M 162.054688 52.640625 " fill-opacity="1" fill-rule="nonzero"/><path fill="#000000" d="M 159.800781 72.535156 C 159.53125 72.578125 159.253906 72.703125 159.085938 72.945312 C 158.910156 73.183594 158.847656 73.488281 158.886719 73.761719 C 158.933594 74.035156 159.085938 74.28125 159.324219 74.457031 C 159.921875 74.9375 160.496094 75.429688 161.027344 75.992188 C 162.9375 78.054688 164.242188 80.628906 165.84375 82.929688 C 168.851562 87.261719 171.957031 91.515625 175.140625 95.722656 C 177.832031 99.269531 180.449219 102.90625 183.410156 106.234375 C 186.386719 109.570312 189.648438 112.636719 192.738281 115.855469 C 195.253906 118.472656 197.570312 121.21875 199.902344 123.992188 C 200.019531 124.167969 200.253906 124.226562 200.433594 124.113281 C 200.609375 124 200.667969 123.761719 200.554688 123.585938 C 197.378906 116.917969 191.617188 111.871094 186.671875 106.546875 C 182.183594 101.710938 178.332031 96.285156 174.398438 90.992188 C 171.75 87.429688 169.058594 83.867188 166.632812 80.144531 C 164.878906 77.453125 163.304688 74.589844 160.589844 72.730469 C 160.351562 72.550781 160.074219 72.496094 159.800781 72.539062 Z M 159.800781 72.535156 " fill-opacity="1" fill-rule="nonzero"/><path fill="#000000" d="M 160.351562 90.417969 C 159.976562 90.386719 159.585938 90.488281 159.269531 90.753906 C 158.964844 91.015625 158.800781 91.382812 158.769531 91.761719 C 158.742188 92.136719 158.839844 92.527344 159.109375 92.839844 C 160.597656 94.597656 162.09375 96.335938 163.65625 98.023438 C 166.75 101.359375 169.980469 104.558594 172.917969 108.03125 C 178.023438 114.089844 182.613281 120.5625 187.683594 126.65625 C 189.507812 128.855469 191.703125 130.714844 193.652344 132.800781 C 194.992188 134.246094 196.160156 135.828125 197.363281 137.382812 C 197.441406 137.523438 197.609375 137.578125 197.746094 137.503906 C 197.886719 137.429688 197.9375 137.257812 197.871094 137.121094 C 197.0625 134.746094 195.476562 132.851562 193.910156 130.925781 C 192.195312 128.8125 190.460938 126.695312 188.878906 124.472656 C 187.730469 122.855469 186.625 121.214844 185.472656 119.601562 C 182.191406 115.003906 178.777344 110.488281 175.140625 106.160156 C 172.1875 102.640625 168.933594 99.402344 165.820312 96.03125 C 164.285156 94.371094 162.8125 92.644531 161.355469 90.917969 C 161.09375 90.609375 160.726562 90.449219 160.351562 90.417969 Z M 160.351562 90.417969 " fill-opacity="1" fill-rule="nonzero"/><path fill="#000000" d="M 159.683594 103.570312 C 159.394531 103.503906 159.085938 103.570312 158.816406 103.738281 C 158.289062 104.078125 158.140625 104.789062 158.480469 105.320312 C 159.261719 106.414062 160.023438 107.5 160.925781 108.488281 C 162.90625 110.652344 165.285156 112.40625 167.445312 114.367188 C 169.625 116.339844 171.605469 118.570312 173.515625 120.800781 C 178.410156 126.535156 182.734375 132.730469 186.886719 139.015625 C 188.648438 141.683594 190.304688 144.425781 192.164062 147.03125 C 192.347656 147.335938 192.722656 147.429688 193.023438 147.25 C 193.328125 147.070312 193.421875 146.6875 193.246094 146.386719 C 191.558594 143.023438 189.5625 139.820312 187.558594 136.640625 C 183.21875 129.746094 178.386719 123.101562 172.941406 117.035156 C 171.34375 115.257812 169.679688 113.539062 167.875 111.96875 C 165.109375 109.554688 162.261719 107.308594 160.398438 104.074219 C 160.230469 103.808594 159.96875 103.632812 159.683594 103.570312 Z M 159.683594 103.570312 " fill-opacity="1" fill-rule="nonzero"/><path fill="#000000" d="M 159.539062 117.65625 C 159.109375 117.597656 158.6875 117.6875 158.320312 117.96875 C 157.574219 118.53125 157.421875 119.582031 157.980469 120.320312 C 159.453125 122.246094 161.148438 123.980469 162.722656 125.816406 C 164.832031 128.269531 166.765625 130.886719 168.859375 133.351562 C 172.539062 137.675781 176.34375 141.871094 179.890625 146.3125 C 182.894531 150.089844 185.820312 153.9375 188.542969 157.929688 C 190.335938 160.558594 191.964844 163.34375 193.867188 165.894531 C 193.980469 166.09375 194.21875 166.132812 194.417969 166.015625 C 194.609375 165.894531 194.679688 165.660156 194.554688 165.464844 C 193.03125 162.191406 190.949219 159.1875 188.902344 156.222656 C 185.902344 151.890625 182.726562 147.6875 179.527344 143.503906 C 176.566406 139.628906 173.691406 135.695312 170.707031 131.839844 C 168.742188 129.292969 166.59375 126.871094 164.714844 124.253906 C 163.3125 122.300781 162.117188 120.222656 160.664062 118.304688 C 160.382812 117.933594 159.960938 117.714844 159.539062 117.65625 Z M 159.539062 117.65625 " fill-opacity="1" fill-rule="nonzero"/><path fill="#000000" d="M 158.917969 133.113281 C 158.550781 133.027344 158.132812 133.082031 157.789062 133.304688 C 157.097656 133.742188 156.914062 134.65625 157.351562 135.34375 C 157.773438 136.003906 158.164062 136.683594 158.625 137.3125 C 159.339844 138.277344 160.160156 139.128906 160.949219 140.023438 C 162.238281 141.476562 163.519531 142.945312 164.785156 144.414062 C 166.425781 146.3125 167.984375 148.292969 169.601562 150.199219 C 171.167969 152.035156 172.816406 153.8125 174.351562 155.671875 C 178.617188 160.839844 182.550781 166.324219 186.117188 171.992188 C 187.988281 174.957031 189.667969 178.027344 191.417969 181.0625 C 191.542969 181.320312 191.839844 181.425781 192.09375 181.304688 C 192.347656 181.183594 192.453125 180.863281 192.332031 180.609375 C 190.734375 176.414062 188.496094 172.550781 186.050781 168.800781 C 183.519531 164.921875 180.777344 161.179688 177.972656 157.496094 C 174.695312 153.195312 171.597656 148.78125 168.214844 144.5625 C 166.527344 142.449219 164.609375 140.519531 162.945312 138.390625 C 161.792969 136.925781 160.820312 135.332031 159.820312 133.761719 C 159.605469 133.417969 159.285156 133.195312 158.917969 133.113281 Z M 158.917969 133.113281 " fill-opacity="1" fill-rule="nonzero"/><path fill="#000000" d="M 157.304688 146.121094 C 156.890625 146.035156 156.460938 146.121094 156.085938 146.363281 C 155.328125 146.863281 155.128906 147.882812 155.632812 148.640625 C 156.839844 150.199219 157.964844 151.796875 159.246094 153.296875 C 161.449219 155.867188 163.933594 158.164062 166.105469 160.761719 C 168.007812 163.039062 169.769531 165.457031 171.667969 167.746094 C 172.878906 169.203125 174.105469 170.621094 175.332031 172.066406 C 176.964844 173.984375 178.523438 175.984375 180.082031 177.96875 C 182.40625 180.933594 184.660156 183.925781 186.746094 187.066406 C 189.15625 190.699219 191.226562 194.53125 193.246094 198.394531 C 193.359375 198.644531 193.660156 198.753906 193.910156 198.632812 C 194.164062 198.515625 194.273438 198.191406 194.148438 197.9375 C 192.546875 194.160156 190.550781 190.636719 188.375 187.160156 C 185.351562 182.328125 182.007812 177.699219 178.617188 173.121094 C 176.183594 169.832031 173.796875 166.496094 171.359375 163.210938 C 170.316406 161.816406 169.335938 160.398438 168.261719 159.035156 C 166.449219 156.730469 164.394531 154.609375 162.4375 152.433594 C 161.515625 151.410156 160.542969 150.355469 159.753906 149.21875 C 159.222656 148.460938 158.816406 147.625 158.363281 146.816406 C 158.113281 146.4375 157.71875 146.207031 157.304688 146.121094 Z M 157.304688 146.121094 " fill-opacity="1" fill-rule="nonzero"/><path fill="#000000" d="M 156.5625 162.992188 C 156.132812 162.910156 155.664062 162.992188 155.273438 163.257812 C 154.484375 163.78125 154.292969 164.84375 154.8125 165.632812 C 155.128906 166.125 155.402344 166.625 155.75 167.097656 C 157.445312 169.386719 159.699219 171.214844 161.457031 173.457031 C 167.363281 181.015625 173.367188 188.523438 178.785156 196.449219 C 181.300781 200.125 183.53125 204.066406 186.699219 207.25 C 188.265625 208.820312 190.097656 210.195312 192.230469 210.871094 C 192.515625 210.960938 192.816406 210.820312 192.90625 210.535156 C 193 210.25 192.828125 209.929688 192.546875 209.839844 C 190.335938 209.140625 188.824219 207.222656 187.558594 205.375 C 185.234375 201.988281 183.609375 198.21875 181.515625 194.695312 C 180.386719 192.785156 179.070312 190.980469 177.78125 189.175781 C 175.9375 186.605469 174.050781 184.074219 172.125 181.566406 C 170.445312 179.390625 168.765625 177.214844 167.085938 175.039062 C 165.945312 173.5625 164.855469 172.039062 163.65625 170.601562 C 162.375 169.050781 160.867188 167.714844 159.539062 166.207031 C 158.847656 165.425781 158.265625 164.589844 157.667969 163.734375 C 157.40625 163.34375 156.992188 163.078125 156.5625 162.992188 Z M 156.5625 162.992188 " fill-opacity="1" fill-rule="nonzero"/><path fill="#000000" d="M 153.378906 177.152344 C 153.0625 177.046875 152.710938 177.042969 152.398438 177.203125 C 151.761719 177.511719 151.507812 178.273438 151.820312 178.90625 C 155.800781 186.636719 162.101562 192.792969 167.253906 199.710938 C 170.777344 204.4375 174.089844 209.332031 177.328125 214.257812 C 180.570312 219.207031 183.769531 224.203125 187.414062 228.871094 C 187.558594 229.09375 187.867188 229.164062 188.089844 229.019531 C 188.304688 228.871094 188.351562 228.566406 188.203125 228.347656 C 185.328125 223.179688 182.207031 218.15625 179.054688 213.152344 C 175.878906 208.121094 172.640625 203.105469 169.105469 198.324219 C 167.339844 195.941406 165.507812 193.636719 163.613281 191.363281 C 160.058594 187.101562 156.453125 182.847656 154.101562 177.777344 C 153.9375 177.460938 153.6875 177.261719 153.378906 177.152344 Z M 153.378906 177.152344 " fill-opacity="1" fill-rule="nonzero"/><path fill="#000000" d="M 153.019531 198.464844 C 152.742188 198.40625 152.433594 198.433594 152.183594 198.609375 C 151.667969 198.941406 151.507812 199.628906 151.84375 200.144531 C 154.828125 204.757812 158.234375 209.027344 161.886719 213.128906 C 166.3125 218.105469 171.039062 222.78125 175.242188 227.960938 C 177.417969 230.644531 179.46875 233.449219 181.253906 236.410156 C 182.851562 239.042969 184.230469 241.804688 185.644531 244.542969 C 185.757812 244.839844 186.09375 244.972656 186.386719 244.855469 C 186.679688 244.742188 186.839844 244.40625 186.722656 244.113281 C 184.722656 236.847656 179.980469 230.632812 175.21875 224.9375 C 167.976562 216.296875 159.859375 208.457031 153.714844 198.945312 C 153.546875 198.6875 153.292969 198.523438 153.019531 198.464844 Z M 153.019531 198.464844 " fill-opacity="1" fill-rule="nonzero"/><path fill="#000000" d="M 151.507812 214.015625 C 151.144531 214.015625 150.777344 214.148438 150.503906 214.421875 C 150.226562 214.699219 150.09375 215.070312 150.09375 215.433594 C 150.09375 215.792969 150.226562 216.140625 150.503906 216.414062 C 152.996094 218.917969 155.359375 221.53125 157.8125 224.070312 C 161.132812 227.507812 164.464844 231.011719 167.230469 234.917969 C 168.828125 237.175781 170.261719 239.539062 171.574219 241.976562 C 172.578125 243.859375 173.484375 245.796875 174.425781 247.710938 C 174.496094 247.890625 174.695312 247.976562 174.878906 247.902344 C 175.054688 247.832031 175.140625 247.628906 175.070312 247.445312 C 173.539062 242.375 170.722656 237.867188 167.855469 233.457031 C 165.359375 229.609375 162.753906 225.828125 159.851562 222.269531 C 157.589844 219.5 155.027344 216.957031 152.511719 214.421875 C 152.234375 214.148438 151.867188 214.015625 151.507812 214.015625 Z M 151.507812 214.015625 " fill-opacity="1" fill-rule="nonzero"/><path fill="#000000" d="M 151.53125 225.992188 C 151.160156 225.949219 150.785156 226.054688 150.480469 226.304688 C 150.164062 226.554688 149.964844 226.894531 149.925781 227.261719 C 149.878906 227.632812 149.988281 228.007812 150.234375 228.320312 C 151.667969 230.117188 152.917969 232.003906 154.121094 233.960938 C 155.019531 235.425781 155.863281 236.929688 156.898438 238.304688 C 159.054688 241.152344 161.9375 243.324219 164.210938 246.054688 C 164.316406 246.238281 164.554688 246.304688 164.738281 246.199219 C 164.921875 246.09375 164.960938 245.855469 164.863281 245.671875 C 164.425781 244.535156 163.933594 243.414062 163.273438 242.386719 C 162.015625 240.402344 160.40625 238.683594 159.085938 236.746094 C 157.574219 234.53125 156.386719 232.109375 154.9375 229.855469 C 154.183594 228.6875 153.347656 227.605469 152.488281 226.519531 C 152.242188 226.207031 151.898438 226.035156 151.53125 225.992188 Z M 151.53125 225.992188 " fill-opacity="1" fill-rule="nonzero"/><path fill="#000000" d="M 145.078125 295.253906 C 144.855469 295.253906 144.640625 295.332031 144.457031 295.496094 C 144.28125 295.660156 144.179688 295.871094 144.171875 296.097656 C 144.160156 296.320312 144.226562 296.542969 144.386719 296.71875 C 149.082031 301.914062 154.230469 306.660156 158.964844 311.816406 C 162.230469 315.375 165.183594 319.222656 167.976562 323.167969 C 168.054688 323.308594 168.222656 323.363281 168.359375 323.285156 C 168.496094 323.210938 168.550781 323.042969 168.476562 322.902344 C 167.953125 321.550781 167.386719 320.226562 166.65625 318.96875 C 164.65625 315.496094 161.878906 312.472656 159.15625 309.558594 C 154.730469 304.820312 150.019531 300.359375 145.683594 295.542969 C 145.523438 295.363281 145.308594 295.265625 145.078125 295.253906 Z M 145.078125 295.253906 " fill-opacity="1" fill-rule="nonzero"/><path fill="#000000" d="M 149.828125 282.4375 C 149.335938 282.378906 148.816406 282.492188 148.394531 282.824219 C 147.542969 283.484375 147.394531 284.710938 148.054688 285.558594 C 153.640625 292.695312 159.191406 299.984375 165.960938 306.054688 C 170.371094 310.003906 175.824219 312.960938 179.335938 317.839844 C 180.042969 318.8125 180.585938 319.847656 181.085938 320.933594 C 181.277344 321.367188 181.785156 321.5625 182.214844 321.367188 C 182.652344 321.171875 182.84375 320.671875 182.644531 320.238281 C 181.636719 317.902344 180.351562 315.726562 178.738281 313.757812 C 175.65625 310 171.71875 307.03125 168.335938 303.558594 C 162.117188 297.179688 156.601562 290.179688 151.125 283.160156 C 150.792969 282.734375 150.324219 282.5 149.828125 282.4375 Z M 149.828125 282.4375 " fill-opacity="1" fill-rule="nonzero"/><path fill="#000000" d="M 152.34375 271.304688 C 152.027344 271.273438 151.699219 271.371094 151.4375 271.589844 C 150.910156 272.03125 150.832031 272.8125 151.269531 273.34375 C 155.066406 278.3125 159.339844 282.949219 163.589844 287.527344 C 167.203125 291.417969 170.835938 295.289062 174.589844 299.046875 C 179.796875 304.257812 185.3125 309.160156 189.476562 315.292969 C 189.722656 315.679688 190.222656 315.78125 190.605469 315.535156 C 190.988281 315.292969 191.113281 314.792969 190.867188 314.40625 C 188.449219 310.324219 185.335938 306.808594 182.066406 303.390625 C 179.492188 300.683594 176.835938 298.035156 174.257812 295.328125 C 170.285156 291.164062 166.367188 286.96875 162.582031 282.632812 C 160.695312 280.46875 158.785156 278.3125 156.921875 276.128906 C 155.679688 274.664062 154.46875 273.1875 153.1875 271.757812 C 152.964844 271.496094 152.664062 271.332031 152.34375 271.304688 Z M 152.34375 271.304688 " fill-opacity="1" fill-rule="nonzero"/><path fill="#000000" d="M 171.597656 275.167969 C 171.246094 275.136719 170.867188 275.25 170.59375 275.503906 C 170.308594 275.757812 170.148438 276.109375 170.132812 276.464844 C 170.117188 276.816406 170.238281 277.1875 170.492188 277.472656 C 172.519531 279.710938 174.582031 281.902344 176.753906 284 C 180.042969 287.183594 183.496094 290.214844 186.722656 293.480469 C 188.464844 295.242188 190.152344 297.058594 191.757812 298.953125 C 193.007812 300.421875 194.164062 301.964844 195.355469 303.488281 C 195.460938 303.648438 195.628906 303.738281 195.804688 303.773438 C 195.984375 303.808594 196.175781 303.773438 196.335938 303.65625 C 196.65625 303.441406 196.742188 303.015625 196.527344 302.695312 C 193.765625 297.878906 189.929688 293.78125 186.117188 289.785156 C 181.609375 285.046875 176.914062 280.484375 172.53125 275.625 C 172.273438 275.34375 171.949219 275.183594 171.597656 275.167969 Z M 171.597656 275.167969 " fill-opacity="1" fill-rule="nonzero"/><g fill="#ffffff" fill-opacity="1"><g transform="translate(211.291615, 371.349967)"><g><path d="M 1.1875 -0.828125 C 1.1875 -1.179688 1.265625 -1.445312 1.421875 -1.625 C 1.585938 -1.800781 1.816406 -1.890625 2.109375 -1.890625 C 2.410156 -1.890625 2.644531 -1.800781 2.8125 -1.625 C 2.988281 -1.445312 3.078125 -1.179688 3.078125 -0.828125 C 3.078125 -0.492188 2.988281 -0.234375 2.8125 -0.046875 C 2.644531 0.140625 2.410156 0.234375 2.109375 0.234375 C 1.847656 0.234375 1.628906 0.148438 1.453125 -0.015625 C 1.273438 -0.179688 1.1875 -0.453125 1.1875 -0.828125 Z M 1.1875 -0.828125 "/></g></g></g></svg>