<svg xmlns="http://www.w3.org/2000/svg" xmlns:xlink="http://www.w3.org/1999/xlink" width="500" zoomAndPan="magnify" viewBox="0 0 375 374.999991" height="500" preserveAspectRatio="xMidYMid meet" version="1.0"><defs><g/><clipPath id="a2d36a65f4"><path d="M 26.46875 15.433594 L 348 15.433594 L 348 337 L 26.46875 337 Z M 26.46875 15.433594 " clip-rule="nonzero"/></clipPath></defs><g clip-path="url(#a2d36a65f4)"><path fill="#000000" d="M 128.65625 272.660156 C 129.523438 272.660156 130.367188 273.046875 130.9375 273.753906 L 175.164062 329.023438 L 207.988281 279.796875 C 208.855469 278.476562 210.613281 278.085938 211.957031 278.953125 L 255.160156 305.9375 L 265.949219 257.421875 C 266.269531 255.984375 267.59375 255.003906 269.097656 255.164062 L 320.875 260.339844 L 289.832031 218.941406 C 289.285156 218.210938 289.101562 217.296875 289.332031 216.433594 C 289.558594 215.566406 290.175781 214.859375 291.019531 214.492188 L 327.582031 198.824219 L 290.265625 166.84375 C 289.058594 165.816406 288.898438 164.015625 289.902344 162.78125 L 338.554688 103.316406 L 274.640625 103.316406 C 273.796875 103.316406 273 102.953125 272.429688 102.3125 C 271.878906 101.675781 271.628906 100.832031 271.742188 99.988281 L 276.808594 64.632812 L 235.066406 85.503906 C 234.359375 85.84375 233.535156 85.890625 232.785156 85.640625 C 232.054688 85.367188 231.4375 84.816406 231.097656 84.085938 L 203.882812 24.1875 L 160.132812 78.863281 C 159.542969 79.59375 158.539062 80.003906 157.695312 79.960938 C 156.734375 79.890625 155.867188 79.390625 155.390625 78.589844 L 129.316406 36.894531 L 113.875 78.066406 C 113.304688 79.546875 111.664062 80.324219 110.15625 79.777344 L 35.84375 53.25 L 78.632812 128.15625 C 79.363281 129.410156 79.042969 131.054688 77.859375 131.921875 L 35.113281 163.992188 L 83.128906 185.320312 C 83.972656 185.683594 84.585938 186.460938 84.792969 187.371094 C 84.996094 188.261719 84.746094 189.21875 84.132812 189.902344 L 46.289062 233.152344 L 82.738281 243.574219 C 83.582031 243.804688 84.269531 244.421875 84.609375 245.195312 C 84.976562 245.992188 84.953125 246.90625 84.5625 247.683594 L 53.429688 309.929688 L 127.355469 272.957031 C 127.765625 272.75 128.222656 272.660156 128.65625 272.660156 Z M 175.371094 336.890625 C 174.480469 336.890625 173.636719 336.480469 173.089844 335.796875 L 127.859375 279.25 L 48.203125 319.078125 C 47.085938 319.625 45.742188 319.417969 44.828125 318.53125 C 43.941406 317.617188 43.734375 316.273438 44.28125 315.152344 L 77.742188 248.230469 L 40.265625 237.507812 C 39.308594 237.234375 38.554688 236.480469 38.261719 235.523438 C 37.984375 234.566406 38.214844 233.539062 38.875 232.785156 L 77.128906 189.035156 L 28.199219 167.300781 C 27.265625 166.886719 26.605469 165.976562 26.488281 164.949219 C 26.375 163.921875 26.808594 162.917969 27.628906 162.304688 L 72.292969 128.796875 L 26.855469 49.28125 C 26.238281 48.230469 26.351562 46.90625 27.152344 45.972656 C 27.925781 45.035156 29.226562 44.671875 30.367188 45.105469 L 109.40625 73.320312 L 125.917969 29.296875 C 126.308594 28.273438 127.265625 27.542969 128.359375 27.425781 C 129.453125 27.289062 130.550781 27.839844 131.121094 28.773438 L 158.148438 72 L 202.289062 16.820312 C 202.925781 16.023438 203.90625 15.636719 204.933594 15.75 C 205.9375 15.886719 206.804688 16.523438 207.238281 17.4375 L 235.15625 78.910156 L 279.179688 56.898438 C 280.160156 56.417969 281.300781 56.511719 282.191406 57.148438 C 283.082031 57.789062 283.535156 58.859375 283.378906 59.933594 L 278.015625 97.476562 L 344.714844 97.476562 C 345.855469 97.476562 346.859375 98.117188 347.359375 99.140625 C 347.839844 100.167969 347.679688 101.378906 346.972656 102.246094 L 296.21875 164.265625 L 334.929688 197.453125 C 335.703125 198.117188 336.070312 199.121094 335.910156 200.101562 C 335.773438 201.105469 335.109375 201.949219 334.175781 202.359375 L 296.722656 218.417969 L 329.523438 262.144531 C 330.230469 263.078125 330.296875 264.332031 329.726562 265.335938 C 329.179688 266.339844 328.039062 266.886719 326.898438 266.796875 L 271.082031 261.230469 L 259.972656 311.253906 C 259.769531 312.164062 259.128906 312.941406 258.261719 313.304688 C 257.375 313.671875 256.371094 313.601562 255.570312 313.101562 L 211.273438 285.386719 L 177.789062 335.59375 C 177.289062 336.367188 176.421875 336.847656 175.507812 336.890625 C 175.460938 336.890625 175.417969 336.890625 175.371094 336.890625 " fill-opacity="1" fill-rule="nonzero"/></g><path fill="#000000" d="M 178.289062 231.785156 C 171.859375 231.785156 166.613281 237.03125 166.613281 243.460938 C 166.613281 249.894531 171.859375 255.140625 178.289062 255.140625 C 184.722656 255.140625 189.96875 249.894531 189.96875 243.460938 C 189.96875 237.03125 184.722656 231.785156 178.289062 231.785156 Z M 178.289062 260.980469 C 168.621094 260.980469 160.773438 253.132812 160.773438 243.460938 C 160.773438 233.789062 168.621094 225.945312 178.289062 225.945312 C 187.960938 225.945312 195.808594 233.789062 195.808594 243.460938 C 195.808594 253.132812 187.960938 260.980469 178.289062 260.980469 " fill-opacity="1" fill-rule="nonzero"/><path fill="#000000" d="M 160.933594 125.875 L 166.382812 207.671875 L 184.722656 203.089844 L 211.9375 110.570312 Z M 163.691406 214.265625 C 163.078125 214.265625 162.484375 214.082031 161.980469 213.71875 C 161.273438 213.191406 160.839844 212.394531 160.773438 211.527344 L 154.933594 123.9375 C 154.84375 122.589844 155.710938 121.359375 157.007812 120.949219 L 215.402344 103.429688 C 216.453125 103.132812 217.546875 103.40625 218.300781 104.160156 C 219.074219 104.914062 219.347656 106.03125 219.050781 107.058594 L 189.855469 206.328125 C 189.558594 207.332031 188.761719 208.082031 187.757812 208.335938 L 164.398438 214.171875 C 164.171875 214.242188 163.921875 214.265625 163.691406 214.265625 " fill-opacity="1" fill-rule="nonzero"/><g fill="#ffffff" fill-opacity="1"><g transform="translate(211.291615, 371.349967)"><g><path d="M 1.1875 -0.828125 C 1.1875 -1.179688 1.265625 -1.445312 1.421875 -1.625 C 1.585938 -1.800781 1.816406 -1.890625 2.109375 -1.890625 C 2.410156 -1.890625 2.644531 -1.800781 2.8125 -1.625 C 2.988281 -1.445312 3.078125 -1.179688 3.078125 -0.828125 C 3.078125 -0.492188 2.988281 -0.234375 2.8125 -0.046875 C 2.644531 0.140625 2.410156 0.234375 2.109375 0.234375 C 1.847656 0.234375 1.628906 0.148438 1.453125 -0.015625 C 1.273438 -0.179688 1.1875 -0.453125 1.1875 -0.828125 Z M 1.1875 -0.828125 "/></g></g></g></svg>