<svg xmlns="http://www.w3.org/2000/svg" xmlns:xlink="http://www.w3.org/1999/xlink" width="500" zoomAndPan="magnify" viewBox="0 0 375 374.999991" height="500" preserveAspectRatio="xMidYMid meet" version="1.0"><defs><g/><clipPath id="c8f6660e74"><path d="M 272 69.53125 L 319 69.53125 L 319 114 L 272 114 Z M 272 69.53125 " clip-rule="nonzero"/></clipPath></defs><path fill="#000000" d="M 197.902344 125.613281 C 205.019531 131.28125 210.476562 135.625 217.445312 141.171875 C 213.160156 143.84375 210.5625 146.363281 207.496094 147.207031 C 193.675781 151.027344 174.671875 137.945312 173.042969 123.734375 C 172.058594 115.183594 175.648438 108.441406 182.914062 104.382812 C 199.21875 95.292969 216.410156 93.089844 233.714844 101.179688 C 250.027344 108.800781 259.140625 128.074219 254.128906 145.597656 C 251.308594 155.472656 246.21875 164.742188 241.722656 174.074219 C 237.574219 182.675781 233.175781 190.089844 240.46875 200.195312 C 246.382812 208.386719 238.445312 218.101562 227.613281 217.710938 C 217.515625 217.347656 207.984375 209.003906 206.980469 197.671875 C 206.371094 190.714844 207.328125 183.113281 209.664062 176.535156 C 212.820312 167.675781 217.976562 159.523438 222.289062 151.078125 C 226.210938 143.398438 231.613281 135.328125 224.070312 127.414062 C 217.296875 120.304688 208.558594 121.5 197.902344 125.613281 Z M 197.902344 125.613281 " fill-opacity="1" fill-rule="nonzero"/><path fill="#000000" d="M 163.527344 228.515625 C 163.625 234.90625 160.46875 240.039062 154.308594 242.214844 C 148.445312 244.28125 141.421875 242.359375 138.082031 235.777344 C 134.6875 229.070312 131.914062 221.511719 131.164062 214.101562 C 129.1875 194.636719 124.789062 175.832031 119.175781 157.167969 C 116.847656 149.425781 115.359375 141.335938 114.417969 133.292969 C 113.382812 124.386719 117.527344 118.089844 124.378906 116.210938 C 131.304688 114.3125 138.851562 117.261719 141.875 125.515625 C 146.839844 139.03125 151.222656 152.929688 154.039062 167.03125 C 158.011719 186.949219 160.320312 207.1875 163.527344 228.523438 Z M 163.527344 228.515625 " fill-opacity="1" fill-rule="nonzero"/><path fill="#000000" d="M 48.335938 166.195312 C 39.28125 164.300781 30.019531 162.621094 20.90625 160.324219 C 17.515625 159.472656 14.257812 157.507812 11.355469 155.460938 C 6.613281 152.140625 3.644531 147.53125 5.855469 141.574219 C 7.914062 136.050781 13.0625 134.859375 18.167969 135.421875 C 33.375 137.101562 48.554688 139.023438 63.6875 141.207031 C 69.082031 141.980469 72.59375 145.582031 73.132812 151.183594 C 73.675781 156.785156 70.808594 161.175781 65.832031 162.882812 C 60.4375 164.726562 54.53125 165.089844 48.34375 166.1875 Z M 48.335938 166.195312 " fill-opacity="1" fill-rule="nonzero"/><path fill="#000000" d="M 356.199219 258.328125 C 338.03125 255.695312 321.859375 249.144531 306.699219 240.046875 C 301.941406 237.195312 300.222656 232.507812 302.410156 227.199219 C 304.414062 222.332031 308.789062 221.121094 313.589844 221.597656 C 316.230469 221.859375 318.957031 222.433594 321.398438 223.460938 C 334.640625 229.070312 347.808594 234.847656 360.984375 240.621094 C 362.613281 241.335938 364.5625 242.039062 365.558594 243.359375 C 367.328125 245.710938 370.132812 249.085938 369.480469 251.007812 C 368.546875 253.746094 365.128906 255.980469 362.308594 257.625 C 360.566406 258.644531 357.941406 258.171875 356.207031 258.328125 Z M 356.199219 258.328125 " fill-opacity="1" fill-rule="nonzero"/><path fill="#000000" d="M 88.765625 265.730469 C 87.832031 267.585938 86.945312 271.488281 84.523438 273.757812 C 75.015625 282.65625 65.257812 291.320312 55.125 299.496094 C 50.785156 303 45.222656 304.253906 40.257812 299.773438 C 36.230469 296.136719 35.640625 289.371094 40.816406 283.953125 C 50.09375 274.238281 59.828125 264.714844 70.5625 256.703125 C 78.832031 250.527344 88.417969 255.269531 88.765625 265.738281 Z M 88.765625 265.730469 " fill-opacity="1" fill-rule="nonzero"/><path fill="#000000" d="M 38.996094 204.492188 C 48.023438 205.074219 53.929688 205.011719 59.6875 205.933594 C 67.636719 207.203125 71.800781 211.824219 71.523438 218.269531 C 71.226562 225.070312 67.234375 229.078125 60.8125 230.316406 C 46.75 233.011719 32.851562 231.59375 19.832031 225.90625 C 16.515625 224.453125 13.316406 219.441406 12.777344 215.675781 C 11.972656 210.074219 16.773438 206.71875 21.996094 205.890625 C 28.625 204.839844 35.414062 204.753906 39.003906 204.492188 Z M 38.996094 204.492188 " fill-opacity="1" fill-rule="nonzero"/><g clip-path="url(#c8f6660e74)"><path fill="#000000" d="M 310.835938 69.503906 C 311.945312 70.148438 316.40625 71.234375 317.441406 73.730469 C 318.75 76.871094 318.015625 81.453125 316.726562 84.871094 C 315.714844 87.542969 312.476562 89.359375 310.269531 91.605469 C 304.292969 97.683594 298.367188 103.808594 292.382812 109.871094 C 288.035156 114.277344 282.832031 115.15625 277.640625 112.0625 C 272.90625 109.234375 271.609375 104.460938 272.734375 99.101562 C 275.375 86.621094 295.964844 69.539062 310.835938 69.511719 Z M 310.835938 69.503906 " fill-opacity="1" fill-rule="nonzero"/></g><path fill="#000000" d="M 345.21875 160.804688 C 343.964844 170.699219 338.199219 173.589844 332.117188 175.40625 C 322.625 178.242188 312.988281 180.6875 303.28125 182.625 C 294.875 184.304688 288.617188 180.625 287.1875 174.207031 C 285.890625 168.378906 289.453125 162.386719 297.132812 160.230469 C 312.886719 155.800781 328.753906 154.949219 345.210938 160.804688 Z M 345.21875 160.804688 " fill-opacity="1" fill-rule="nonzero"/><path fill="#000000" d="M 233.433594 253.902344 C 226.785156 254.136719 220.851562 248.164062 220.617188 241.003906 C 220.375 233.429688 226.046875 226.929688 233.410156 226.375 C 240.675781 225.816406 246.75 231.011719 247.070312 238.0625 C 247.410156 245.414062 240.300781 253.667969 233.433594 253.902344 Z M 233.433594 253.902344 " fill-opacity="1" fill-rule="nonzero"/><path fill="#000000" d="M 141.707031 273.566406 C 141.96875 266.183594 146.691406 260.441406 152.617188 260.3125 C 158.996094 260.164062 164.894531 267.496094 164.957031 275.636719 C 165.007812 282.492188 159.746094 287.816406 153.089844 287.648438 C 146.300781 287.476562 141.429688 281.441406 141.707031 273.566406 Z M 141.707031 273.566406 " fill-opacity="1" fill-rule="nonzero"/><g fill="#ffffff" fill-opacity="1"><g transform="translate(211.291615, 371.349967)"><g><path d="M 1.1875 -0.828125 C 1.1875 -1.179688 1.265625 -1.445312 1.421875 -1.625 C 1.585938 -1.800781 1.816406 -1.890625 2.109375 -1.890625 C 2.410156 -1.890625 2.644531 -1.800781 2.8125 -1.625 C 2.988281 -1.445312 3.078125 -1.179688 3.078125 -0.828125 C 3.078125 -0.492188 2.988281 -0.234375 2.8125 -0.046875 C 2.644531 0.140625 2.410156 0.234375 2.109375 0.234375 C 1.847656 0.234375 1.628906 0.148438 1.453125 -0.015625 C 1.273438 -0.179688 1.1875 -0.453125 1.1875 -0.828125 Z M 1.1875 -0.828125 "/></g></g></g></svg>