<svg xmlns="http://www.w3.org/2000/svg" xmlns:xlink="http://www.w3.org/1999/xlink" width="500" zoomAndPan="magnify" viewBox="0 0 375 374.999991" height="500" preserveAspectRatio="xMidYMid meet" version="1.0"><defs><g/><clipPath id="d576d7bcee"><path d="M 31.613281 6.910156 L 343.613281 6.910156 L 343.613281 192 L 31.613281 192 Z M 31.613281 6.910156 " clip-rule="nonzero"/></clipPath></defs><path fill="#000000" d="M 314.558594 172.945312 L 215.0625 172.945312 C 214.269531 174.789062 213.476562 176.632812 212.421875 178.214844 L 314.558594 178.214844 C 323.003906 178.214844 330.128906 171.363281 330.128906 162.664062 L 330.128906 35.636719 C 330.128906 27.203125 323.265625 20.085938 314.558594 20.085938 L 60.671875 20.085938 C 51.960938 20.085938 45.101562 26.941406 45.101562 35.636719 L 45.101562 162.664062 C 45.101562 171.097656 51.960938 178.214844 60.671875 178.214844 L 192.628906 178.214844 C 194.210938 176.371094 195.796875 174.789062 197.117188 172.945312 L 60.671875 172.945312 C 55.128906 172.945312 50.378906 168.464844 50.378906 162.664062 L 50.378906 35.636719 C 50.378906 29.839844 54.863281 25.359375 60.671875 25.359375 L 314.558594 25.359375 C 320.101562 25.359375 324.851562 29.839844 324.851562 35.636719 L 324.851562 162.664062 C 324.851562 168.464844 320.363281 172.945312 314.558594 172.945312 Z M 314.558594 172.945312 " fill-opacity="1" fill-rule="nonzero"/><g clip-path="url(#d576d7bcee)"><path fill="#000000" d="M 47.476562 191.390625 L 182.074219 191.390625 C 183.128906 189.546875 184.449219 187.703125 185.503906 186.121094 L 47.476562 186.121094 C 41.667969 186.121094 37.183594 181.640625 37.183594 175.84375 L 37.183594 22.460938 C 37.183594 16.660156 41.667969 12.179688 47.476562 12.179688 L 327.753906 12.179688 C 333.296875 12.179688 338.046875 16.660156 338.046875 22.460938 L 338.046875 175.84375 C 338.046875 181.378906 333.558594 186.121094 327.753906 186.121094 L 206.617188 186.121094 C 205.5625 187.4375 204.242188 188.757812 203.183594 190.074219 C 202.65625 190.601562 202.394531 190.863281 201.867188 191.390625 L 327.753906 191.390625 C 336.460938 191.390625 343.324219 184.539062 343.324219 175.84375 L 343.324219 22.460938 C 343.324219 13.761719 336.460938 6.910156 327.753906 6.910156 L 47.476562 6.910156 C 38.765625 6.910156 31.90625 13.761719 31.90625 22.460938 L 31.90625 175.84375 C 31.90625 184.539062 38.765625 191.390625 47.476562 191.390625 Z M 47.476562 191.390625 " fill-opacity="1" fill-rule="nonzero"/></g><path fill="#000000" d="M 211.367188 300.761719 C 219.019531 300.761719 225.617188 295.230469 226.9375 287.585938 L 228.257812 287.585938 C 231.953125 287.585938 235.121094 289.957031 235.910156 293.648438 L 241.71875 317.894531 C 245.410156 333.441406 259.398438 343.984375 274.96875 343.984375 C 277.609375 343.984375 280.25 343.722656 282.886719 343.195312 C 291.859375 341.085938 299.25 335.816406 304 327.910156 C 308.75 320.265625 310.335938 311.042969 308.222656 302.34375 L 291.332031 231.1875 C 287.109375 213.003906 268.636719 201.671875 250.164062 205.886719 C 243.828125 207.46875 238.285156 210.628906 233.800781 215.109375 C 224.5625 224.335938 211.628906 229.871094 198.171875 230.132812 C 198.171875 229.871094 198.171875 229.605469 198.171875 229.34375 C 198.171875 223.542969 193.421875 218.800781 187.613281 218.539062 C 185.503906 201.671875 192.101562 194.289062 199.226562 186.382812 C 207.671875 177.160156 217.171875 166.617188 211.101562 140.527344 C 210.839844 139.210938 209.253906 138.15625 207.9375 138.417969 C 206.617188 138.683594 205.5625 140.265625 205.824219 141.582031 C 211.101562 164.773438 203.449219 173.472656 195.003906 182.695312 C 187.613281 191.390625 179.695312 200.089844 182.335938 219.589844 C 182.335938 219.589844 182.335938 219.589844 182.335938 219.855469 C 178.90625 221.699219 176.265625 225.125 176.265625 229.34375 C 176.265625 229.605469 176.265625 229.871094 176.265625 230.132812 C 163.070312 229.605469 150.402344 224.335938 141.429688 215.109375 C 136.941406 210.628906 131.136719 207.46875 125.066406 205.886719 C 106.855469 201.671875 88.382812 213.003906 83.894531 231.1875 L 67.003906 302.34375 C 64.894531 311.042969 66.476562 320.265625 71.226562 327.910156 C 75.976562 335.550781 83.632812 341.085938 92.605469 343.195312 C 110.816406 347.410156 129.289062 336.078125 133.777344 317.894531 L 139.582031 293.648438 C 140.375 290.222656 143.539062 287.585938 147.234375 287.585938 L 149.347656 287.585938 C 150.667969 295.230469 157.265625 300.5 164.917969 300.5 C 172.835938 300.5 179.167969 294.964844 180.488281 287.324219 L 196.058594 287.324219 C 196.851562 295.230469 203.449219 300.761719 211.367188 300.761719 Z M 187.351562 223.808594 C 190.515625 223.808594 192.894531 226.179688 192.894531 229.34375 C 192.894531 229.605469 192.894531 229.871094 192.894531 230.398438 L 181.808594 230.398438 C 181.808594 230.132812 181.808594 229.871094 181.808594 229.34375 C 181.808594 226.445312 184.183594 223.808594 187.351562 223.808594 Z M 177.851562 282.578125 C 176.265625 282.578125 175.210938 283.632812 175.210938 285.214844 C 175.210938 291.011719 170.460938 295.753906 164.652344 295.753906 C 159.640625 295.753906 155.152344 292.066406 154.359375 287.058594 C 153.832031 284.421875 151.722656 282.578125 149.082031 282.578125 L 146.972656 282.578125 C 140.902344 282.578125 135.625 286.796875 134.039062 292.59375 L 128.234375 316.839844 C 124.539062 332.125 108.96875 341.875 93.398438 338.1875 C 85.742188 336.339844 79.410156 331.863281 75.449219 325.273438 C 71.492188 318.683594 70.171875 311.042969 72.019531 303.664062 L 88.910156 232.503906 C 92.605469 217.21875 108.175781 207.46875 123.746094 211.15625 C 129.023438 212.476562 133.777344 215.109375 137.734375 218.800781 C 148.292969 229.34375 163.070312 235.402344 178.378906 235.402344 L 196.324219 235.402344 C 211.894531 235.402344 226.675781 229.34375 237.230469 218.800781 C 240.925781 215.109375 245.941406 212.210938 251.21875 211.15625 C 266.789062 207.46875 282.359375 216.957031 286.054688 232.503906 L 302.945312 303.664062 C 304.792969 311.042969 303.472656 318.683594 299.515625 325.273438 C 295.554688 331.863281 288.957031 336.339844 281.570312 338.1875 C 265.996094 341.875 250.425781 332.386719 246.730469 316.839844 L 240.925781 292.59375 C 239.605469 286.796875 234.328125 282.578125 227.992188 282.578125 L 226.675781 282.578125 C 224.035156 282.578125 221.921875 284.421875 221.394531 287.058594 C 220.605469 292.066406 216.117188 295.753906 211.101562 295.753906 C 205.296875 295.753906 200.546875 291.011719 200.546875 285.214844 C 200.546875 283.632812 199.492188 282.578125 197.90625 282.578125 Z M 177.851562 282.578125 " fill-opacity="1" fill-rule="nonzero"/><path fill="#000000" d="M 164.390625 275.988281 C 159.902344 275.988281 156.207031 279.679688 156.207031 284.160156 C 156.207031 288.640625 159.902344 292.328125 164.390625 292.328125 C 168.875 292.328125 172.570312 288.640625 172.570312 284.160156 C 172.570312 279.679688 168.875 275.988281 164.390625 275.988281 Z M 164.390625 287.058594 C 162.804688 287.058594 161.488281 285.742188 161.488281 284.160156 C 161.488281 282.578125 162.804688 281.261719 164.390625 281.261719 C 165.972656 281.261719 167.292969 282.578125 167.292969 284.160156 C 167.292969 285.742188 165.972656 287.058594 164.390625 287.058594 Z M 164.390625 287.058594 " fill-opacity="1" fill-rule="nonzero"/><path fill="#000000" d="M 211.367188 292.328125 C 215.851562 292.328125 219.546875 288.640625 219.546875 284.160156 C 219.546875 279.679688 215.851562 275.988281 211.367188 275.988281 C 206.878906 275.988281 203.183594 279.679688 203.183594 284.160156 C 203.183594 288.640625 206.617188 292.328125 211.367188 292.328125 Z M 211.367188 281.261719 C 212.949219 281.261719 214.269531 282.578125 214.269531 284.160156 C 214.269531 285.742188 212.949219 287.058594 211.367188 287.058594 C 209.785156 287.058594 208.464844 285.742188 208.464844 284.160156 C 208.464844 282.578125 209.519531 281.261719 211.367188 281.261719 Z M 211.367188 281.261719 " fill-opacity="1" fill-rule="nonzero"/><path fill="#000000" d="M 137.734375 238.304688 L 129.816406 238.304688 L 129.816406 230.398438 C 129.816406 228.289062 129.023438 226.179688 127.441406 224.863281 C 125.859375 223.28125 124.011719 222.492188 121.898438 222.492188 C 117.675781 222.492188 113.980469 225.917969 113.980469 230.398438 L 113.980469 238.304688 L 106.066406 238.304688 C 101.84375 238.304688 98.148438 241.730469 98.148438 246.210938 C 98.148438 250.425781 101.578125 254.117188 106.066406 254.117188 L 113.980469 254.117188 L 113.980469 262.023438 C 113.980469 266.238281 117.414062 269.929688 121.898438 269.929688 C 126.386719 269.929688 129.816406 266.503906 129.816406 262.023438 L 129.816406 254.117188 L 137.734375 254.117188 C 141.957031 254.117188 145.652344 250.691406 145.652344 246.210938 C 145.652344 241.730469 141.957031 238.304688 137.734375 238.304688 Z M 140.375 245.945312 C 140.375 247.261719 139.316406 248.582031 137.734375 248.582031 L 127.179688 248.582031 C 125.59375 248.582031 124.539062 249.636719 124.539062 251.214844 L 124.539062 261.757812 C 124.539062 263.078125 123.484375 264.394531 121.898438 264.394531 C 120.316406 264.394531 119.261719 263.339844 119.261719 261.757812 L 119.261719 251.214844 C 119.261719 249.636719 118.203125 248.582031 116.621094 248.582031 L 106.066406 248.582031 C 104.746094 248.582031 103.425781 247.527344 103.425781 245.945312 C 103.425781 244.628906 104.480469 243.308594 106.066406 243.308594 L 116.621094 243.308594 C 118.203125 243.308594 119.261719 242.257812 119.261719 240.675781 L 119.261719 230.132812 C 119.261719 228.816406 120.316406 227.496094 121.898438 227.496094 C 122.691406 227.496094 123.21875 227.761719 123.746094 228.289062 C 124.273438 228.816406 124.539062 229.34375 124.539062 230.132812 L 124.539062 240.675781 C 124.539062 242.257812 125.59375 243.308594 127.179688 243.308594 L 137.734375 243.308594 C 139.054688 243.574219 140.375 244.628906 140.375 245.945312 Z M 140.375 245.945312 " fill-opacity="1" fill-rule="nonzero"/><path fill="#000000" d="M 258.609375 238.304688 C 260.191406 238.304688 261.246094 237.25 261.246094 235.667969 C 261.246094 234.351562 260.191406 233.03125 258.609375 233.03125 C 257.289062 233.03125 255.96875 234.085938 255.96875 235.667969 C 255.96875 236.984375 257.023438 238.304688 258.609375 238.304688 Z M 258.609375 238.304688 " fill-opacity="1" fill-rule="nonzero"/><path fill="#000000" d="M 258.609375 259.121094 C 260.191406 259.121094 261.246094 258.070312 261.246094 256.488281 C 261.246094 255.167969 260.191406 253.851562 258.609375 253.851562 C 257.289062 253.851562 255.96875 254.90625 255.96875 256.488281 C 255.96875 257.804688 257.023438 259.121094 258.609375 259.121094 Z M 258.609375 259.121094 " fill-opacity="1" fill-rule="nonzero"/><path fill="#000000" d="M 268.902344 248.582031 C 270.484375 248.582031 271.539062 247.527344 271.539062 245.945312 C 271.539062 244.628906 270.484375 243.308594 268.902344 243.308594 C 267.582031 243.308594 266.261719 244.363281 266.261719 245.945312 C 266.523438 247.527344 267.582031 248.582031 268.902344 248.582031 Z M 268.902344 248.582031 " fill-opacity="1" fill-rule="nonzero"/><path fill="#000000" d="M 248.050781 248.582031 C 249.632812 248.582031 250.691406 247.527344 250.691406 245.945312 C 250.691406 244.628906 249.632812 243.308594 248.050781 243.308594 C 246.730469 243.308594 245.410156 244.363281 245.410156 245.945312 C 245.410156 247.527344 246.46875 248.582031 248.050781 248.582031 Z M 248.050781 248.582031 " fill-opacity="1" fill-rule="nonzero"/><path fill="#000000" d="M 184.976562 246.738281 L 169.140625 246.738281 C 167.558594 246.738281 166.5 247.789062 166.5 249.371094 C 166.5 250.953125 167.558594 252.007812 169.140625 252.007812 L 184.976562 252.007812 C 186.558594 252.007812 187.613281 250.953125 187.613281 249.371094 C 187.613281 247.789062 186.558594 246.738281 184.976562 246.738281 Z M 184.976562 246.738281 " fill-opacity="1" fill-rule="nonzero"/><path fill="#000000" d="M 207.40625 258.859375 C 207.9375 259.121094 208.199219 259.121094 208.726562 259.121094 C 209.253906 259.121094 209.785156 259.121094 210.046875 258.859375 L 223.242188 250.953125 C 224.035156 250.425781 224.5625 249.636719 224.5625 248.582031 C 224.5625 247.527344 224.035156 246.738281 223.242188 246.210938 L 210.046875 238.304688 C 209.253906 237.777344 208.199219 237.777344 207.40625 238.304688 C 206.617188 238.828125 206.089844 239.882812 206.089844 240.675781 L 206.089844 256.488281 C 206.089844 257.542969 206.351562 258.332031 207.40625 258.859375 Z M 211.367188 245.417969 L 216.644531 248.582031 L 211.367188 251.742188 Z M 211.367188 245.417969 " fill-opacity="1" fill-rule="nonzero"/><g fill="#ffffff" fill-opacity="1"><g transform="translate(211.291615, 371.349967)"><g><path d="M 1.1875 -0.828125 C 1.1875 -1.179688 1.265625 -1.445312 1.421875 -1.625 C 1.585938 -1.800781 1.816406 -1.890625 2.109375 -1.890625 C 2.410156 -1.890625 2.644531 -1.800781 2.8125 -1.625 C 2.988281 -1.445312 3.078125 -1.179688 3.078125 -0.828125 C 3.078125 -0.492188 2.988281 -0.234375 2.8125 -0.046875 C 2.644531 0.140625 2.410156 0.234375 2.109375 0.234375 C 1.847656 0.234375 1.628906 0.148438 1.453125 -0.015625 C 1.273438 -0.179688 1.1875 -0.453125 1.1875 -0.828125 Z M 1.1875 -0.828125 "/></g></g></g></svg>