<svg xmlns="http://www.w3.org/2000/svg" xmlns:xlink="http://www.w3.org/1999/xlink" width="500" zoomAndPan="magnify" viewBox="0 0 375 374.999991" height="500" preserveAspectRatio="xMidYMid meet" version="1.0"><defs><g/><clipPath id="24d181d666"><path d="M 28.15625 22 L 346.90625 22 L 346.90625 337.460938 L 28.15625 337.460938 Z M 28.15625 22 " clip-rule="nonzero"/></clipPath></defs><g clip-path="url(#24d181d666)"><path fill="#141313" d="M 138.191406 173.964844 C 138.28125 176.921875 138.226562 179.867188 137.992188 182.75 C 137.757812 185.628906 137.421875 188.484375 136.9375 191.269531 C 136.71875 192.675781 136.425781 194.046875 136.15625 195.429688 C 135.847656 196.792969 135.5625 198.171875 135.210938 199.515625 C 133.871094 204.925781 132.230469 210.167969 130.363281 215.273438 C 124.84375 230.421875 117.078125 244.226562 107.933594 256.828125 C 104.070312 262.210938 96.097656 270.699219 88.75 277.859375 C 81.402344 285.039062 74.726562 291.003906 73.308594 291.894531 C 72.550781 292.359375 71.503906 293.347656 70.332031 292.007812 C 69.257812 290.800781 69.8125 289.539062 70.320312 288.660156 C 72.152344 285.511719 73.996094 282.363281 75.863281 279.246094 C 81.351562 270.054688 86.554688 260.738281 91.4375 251.347656 C 96.316406 241.957031 100.875 232.46875 104.722656 222.84375 C 106.902344 217.351562 108.6875 211.75 110.152344 206.171875 C 110.882812 203.386719 111.574219 200.617188 112.207031 197.871094 C 112.828125 195.121094 113.402344 192.40625 113.964844 189.722656 C 115.03125 184.125 115.25 178.535156 114.652344 173.40625 C 114.359375 170.84375 113.851562 168.402344 113.144531 166.140625 C 112.441406 163.890625 111.488281 161.601562 110.402344 159.417969 C 108.226562 155.019531 105.375 150.832031 102.140625 146.707031 C 98.917969 142.566406 95.359375 138.449219 91.683594 134.128906 C 87.417969 129.128906 82.171875 124.820312 76.699219 120.738281 C 73.941406 118.714844 71.152344 116.695312 68.316406 114.691406 C 65.5 112.660156 62.65625 110.621094 59.847656 108.453125 C 57.191406 106.421875 52.40625 103.667969 46.917969 100.34375 C 41.429688 97.03125 35.222656 93.101562 29.691406 88.910156 C 29.089844 88.457031 28.339844 88.308594 29.097656 86.09375 C 29.851562 83.671875 30.957031 83.082031 31.871094 83.21875 C 34.667969 83.640625 37.527344 84.011719 40.203125 84.867188 C 48.621094 87.570312 56.910156 90.730469 65.082031 94.289062 C 73.253906 97.855469 81.308594 101.808594 89.253906 106.246094 C 97.636719 110.9375 105.527344 116.714844 112.683594 123.617188 C 119.832031 130.515625 126.277344 138.550781 131.316406 148.007812 C 134.097656 153.191406 136.128906 158.925781 137.230469 165 C 137.75 167.996094 138.082031 171 138.191406 173.964844 Z M 80.523438 42.621094 C 82.917969 45.914062 85.5625 49.363281 88.136719 52.410156 C 89.429688 53.921875 90.679688 55.367188 91.867188 56.632812 C 93.066406 57.882812 94.144531 59.023438 95.132812 59.898438 C 104.28125 68.269531 114.761719 75.453125 126.433594 80.625 C 134.265625 84.160156 142.578125 86.957031 151.230469 88.550781 C 155.542969 89.402344 159.972656 89.785156 164.394531 89.910156 C 165.5 89.945312 166.613281 89.875 167.722656 89.855469 C 168.832031 89.808594 169.933594 89.808594 171.039062 89.707031 L 174.347656 89.339844 L 175.996094 89.132812 C 176.539062 89.070312 177.148438 88.921875 177.71875 88.816406 C 181.960938 88.066406 185.953125 86.761719 189.742188 85.242188 C 193.554688 83.738281 197.09375 81.847656 200.460938 79.800781 C 207.195312 75.683594 213.101562 70.691406 218.265625 65.148438 C 220.695312 62.507812 223.039062 59.828125 225.304688 57.105469 C 227.550781 54.367188 229.757812 51.621094 231.851562 48.800781 C 236.0625 43.183594 239.988281 37.40625 243.582031 31.441406 C 244.71875 29.542969 245.519531 27.417969 246.351562 25.351562 C 246.621094 24.671875 246.367188 23.726562 244.648438 22.703125 C 243.082031 21.730469 242.839844 22.269531 242.378906 22.652344 C 238.164062 26.136719 234.023438 30.179688 230.496094 33.789062 C 226.953125 37.390625 223.988281 40.570312 221.9375 42.222656 C 217.625 45.753906 213.585938 49.410156 209.46875 52.851562 C 205.351562 56.277344 201.105469 59.484375 196.515625 61.753906 C 192.550781 63.707031 188.773438 65.566406 185.066406 67.101562 C 184.140625 67.441406 183.222656 67.863281 182.300781 68.195312 L 180.925781 68.667969 C 180.46875 68.824219 180.007812 69.023438 179.554688 69.125 L 178.183594 69.519531 L 177.496094 69.726562 C 177.269531 69.789062 177.042969 69.820312 176.816406 69.875 L 175.445312 70.171875 C 175.214844 70.222656 175 70.285156 174.75 70.328125 L 173.949219 70.429688 C 172.886719 70.566406 171.816406 70.726562 170.746094 70.882812 C 169.667969 71.011719 168.578125 71.050781 167.488281 71.144531 L 165.847656 71.265625 L 164.199219 71.269531 L 162.539062 71.277344 C 161.984375 71.273438 161.429688 71.296875 160.875 71.242188 C 156.425781 71.078125 151.925781 70.375 147.5 69.230469 C 143.28125 67.988281 139.011719 66.710938 134.71875 65.28125 C 130.441406 63.789062 126.175781 62.089844 122.035156 60.050781 C 114.808594 56.398438 107.757812 52.171875 100.9375 47.496094 C 94.089844 42.851562 87.4375 37.796875 80.988281 32.417969 C 78.804688 30.582031 76.621094 28.746094 74.433594 26.90625 C 73.828125 26.394531 72.933594 25.792969 71.84375 26.445312 C 70.628906 27.152344 71.25 28.117188 71.507812 28.769531 C 71.992188 30.007812 75.730469 36.027344 80.523438 42.621094 Z M 345.898438 194.972656 C 342.515625 191.75 338.582031 188.925781 335.042969 186.65625 C 331.503906 184.371094 328.347656 182.609375 326.617188 181.234375 C 322.949219 178.316406 319.109375 175.867188 315.324219 173.398438 C 311.550781 170.929688 307.84375 168.402344 304.667969 165.339844 C 301.929688 162.691406 299.132812 160.324219 296.386719 158.050781 C 293.621094 155.800781 291 153.582031 288.679688 151.308594 C 286.355469 149.054688 284.355469 146.730469 283.046875 144.375 C 282.671875 143.824219 282.410156 143.082031 282.101562 142.398438 C 281.960938 142.046875 281.777344 141.707031 281.667969 141.34375 L 281.332031 140.242188 L 281 139.132812 L 280.785156 137.972656 L 280.578125 136.808594 C 280.507812 136.421875 280.507812 136.011719 280.472656 135.613281 C 280.324219 132.539062 280.222656 129.296875 280.460938 125.886719 C 280.6875 122.476562 281.253906 118.9375 282.230469 115.4375 C 283.078125 112.367188 284.179688 109.304688 285.410156 106.253906 C 286.644531 103.203125 288.007812 100.15625 289.507812 97.144531 C 292.484375 91.109375 295.84375 85.121094 299.527344 79.273438 C 300.773438 77.273438 302.019531 75.273438 303.269531 73.269531 C 303.613281 72.707031 303.972656 71.871094 303.101562 70.785156 C 302.152344 69.578125 301.382812 70.148438 300.816406 70.367188 C 299.757812 70.796875 294.871094 74.144531 289.507812 78.425781 C 284.160156 82.679688 278.363281 88.023438 275.683594 91.625 C 274.09375 93.722656 272.574219 95.890625 271.1875 98.167969 C 270.492188 99.304688 269.792969 100.441406 269.160156 101.632812 L 268.199219 103.410156 C 267.890625 104.007812 267.605469 104.625 267.308594 105.234375 C 264.953125 110.125 263.089844 115.386719 261.933594 120.972656 C 261.710938 121.898438 261.574219 122.871094 261.414062 123.824219 C 261.269531 124.785156 261.085938 125.730469 261.007812 126.722656 L 260.714844 129.660156 C 260.664062 130.652344 260.636719 131.652344 260.605469 132.648438 C 260.554688 136.648438 260.855469 140.746094 261.847656 144.765625 C 261.964844 145.269531 262.0625 145.773438 262.199219 146.269531 L 262.65625 147.757812 L 263.128906 149.234375 C 263.292969 149.726562 263.429688 150.214844 263.664062 150.71875 C 264.085938 151.714844 264.519531 152.703125 264.964844 153.683594 C 265.453125 154.617188 265.972656 155.519531 266.488281 156.425781 C 266.742188 156.882812 267.007812 157.328125 267.300781 157.734375 L 268.164062 158.980469 L 269.035156 160.214844 C 269.332031 160.617188 269.652344 160.984375 269.960938 161.367188 C 270.59375 162.113281 271.207031 162.890625 271.867188 163.585938 C 272.535156 164.273438 273.207031 164.953125 273.882812 165.621094 C 274.488281 166.246094 275.144531 166.777344 275.761719 167.359375 C 276.394531 167.917969 277 168.519531 277.644531 169.042969 C 278.921875 170.109375 280.164062 171.21875 281.460938 172.207031 C 282.101562 172.710938 282.734375 173.230469 283.378906 173.722656 L 285.324219 175.164062 C 286.605469 176.148438 287.945312 177.007812 289.25 177.925781 C 294.535156 181.476562 300.023438 184.511719 305.761719 186.9375 C 311.195312 189.230469 316.601562 191.390625 322.027344 193.417969 C 327.449219 195.453125 332.898438 197.332031 338.402344 199.003906 C 340.15625 199.527344 342.0625 199.660156 343.917969 199.863281 C 344.527344 199.929688 345.316406 199.378906 346.054688 197.3125 C 346.753906 195.40625 346.273438 195.324219 345.898438 194.972656 Z M 323.8125 256.328125 C 320.109375 253.5 316.105469 250.570312 312.332031 248.015625 C 308.5625 245.460938 305.035156 243.269531 302.355469 241.902344 C 289.78125 235.410156 276.242188 230.367188 261.730469 227.757812 C 256.828125 226.902344 251.859375 226.210938 246.742188 225.960938 L 244.832031 225.84375 C 244.191406 225.816406 243.539062 225.824219 242.894531 225.8125 C 241.601562 225.804688 240.3125 225.785156 239.015625 225.8125 L 235.085938 226.03125 L 234.105469 226.089844 L 233.113281 226.207031 L 231.132812 226.453125 L 229.152344 226.707031 C 228.496094 226.796875 227.828125 226.957031 227.164062 227.082031 L 225.175781 227.492188 C 224.515625 227.640625 223.855469 227.734375 223.195312 227.953125 C 221.875 228.335938 220.554688 228.730469 219.246094 229.136719 C 218.597656 229.316406 217.925781 229.609375 217.265625 229.847656 C 216.601562 230.09375 215.953125 230.363281 215.316406 230.652344 C 212.75 231.761719 210.320312 233.066406 208.054688 234.523438 C 205.78125 235.972656 203.632812 237.542969 201.660156 239.246094 C 194.449219 245.40625 188.457031 252.160156 183.195312 259.261719 C 177.953125 266.371094 173.472656 273.851562 169.828125 281.675781 C 166.375 289.082031 163.1875 296.511719 160.25 304.007812 C 157.3125 311.503906 154.632812 319.0625 152.273438 326.707031 C 151.523438 329.136719 151.210938 331.726562 150.828125 334.261719 C 150.707031 335.09375 151.242188 336.09375 153.429688 336.789062 C 155.441406 337.476562 155.582031 336.785156 155.992188 336.234375 C 159.804688 331.160156 163.308594 325.433594 166.21875 320.335938 C 169.144531 315.242188 171.503906 310.757812 173.273438 308.242188 C 177.019531 302.917969 180.324219 297.449219 183.738281 292.105469 C 187.15625 286.777344 190.714844 281.574219 194.925781 277.046875 C 198.566406 273.148438 201.984375 269.261719 205.398438 265.574219 C 208.804688 261.890625 212.242188 258.425781 215.855469 255.527344 C 217.660156 254.078125 219.496094 252.753906 221.378906 251.640625 C 221.851562 251.363281 222.324219 251.078125 222.800781 250.839844 C 223.277344 250.589844 223.757812 250.328125 224.238281 250.121094 L 224.964844 249.78125 C 225.207031 249.667969 225.488281 249.585938 225.746094 249.484375 L 227.339844 248.894531 C 231.648438 247.375 236.5625 246.574219 241.640625 246.539062 C 246.523438 246.605469 251.582031 246.757812 256.746094 247.207031 C 261.914062 247.652344 267.15625 248.410156 272.367188 249.539062 L 275.792969 250.320312 L 279.214844 251.195312 C 280.355469 251.476562 281.492188 251.796875 282.632812 252.113281 C 283.769531 252.4375 284.917969 252.726562 286.050781 253.078125 C 290.605469 254.410156 295.144531 255.878906 299.679688 257.421875 C 308.738281 260.527344 317.769531 263.96875 326.722656 267.710938 C 329.753906 268.988281 332.8125 270.238281 335.871094 271.488281 C 336.722656 271.832031 337.925781 272.167969 338.875 271.058594 C 339.933594 269.835938 338.914062 269.019531 338.398438 268.398438 C 337.421875 267.234375 331.222656 261.992188 323.8125 256.328125 Z M 323.8125 256.328125 " fill-opacity="1" fill-rule="nonzero"/></g><g fill="#ffffff" fill-opacity="1"><g transform="translate(211.291615, 371.349967)"><g><path d="M 1.1875 -0.828125 C 1.1875 -1.179688 1.265625 -1.445312 1.421875 -1.625 C 1.585938 -1.800781 1.816406 -1.890625 2.109375 -1.890625 C 2.410156 -1.890625 2.644531 -1.800781 2.8125 -1.625 C 2.988281 -1.445312 3.078125 -1.179688 3.078125 -0.828125 C 3.078125 -0.492188 2.988281 -0.234375 2.8125 -0.046875 C 2.644531 0.140625 2.410156 0.234375 2.109375 0.234375 C 1.847656 0.234375 1.628906 0.148438 1.453125 -0.015625 C 1.273438 -0.179688 1.1875 -0.453125 1.1875 -0.828125 Z M 1.1875 -0.828125 "/></g></g></g></svg>