<svg version="1.1" id="Capa_1" xmlns="http://www.w3.org/2000/svg" xmlns:xlink="http://www.w3.org/1999/xlink" x="0px" y="0px"
viewBox="0 0 500 500" style="enable-background:new 0 0 500 500;" xml:space="preserve">
<path class="st0" d="M236,0l2.8,26.4L237.1,0H236z"/>
<path class="st0" d="M191,0h-2.4l16,55.1L191,0z"/>
<path class="st0" d="M165.2,0h-1.9l15.4,39.7L165.2,0z"/>
<path class="st0" d="M137.1,0h-0.5l4.3,8.7L137.1,0z"/>
<path class="st0" d="M111,0h-5.1l55.5,91.6L111,0z"/>
<path class="st0" d="M78.4,0h-4.2l49.9,68.2L78.4,0z"/>
<path class="st0" d="M43.1,0h-7.5l93.5,106.8L43.1,0z"/>
<path class="st0" d="M1.8,0H0v5.9l92.5,88.8L1.8,0z"/>
<path class="st0" d="M0,41.6v4.2l59.4,47.8L0,41.6z"/>
<path class="st0" d="M0,79.3V81l25.9,17.3L0,79.3z"/>
<path class="st0" d="M0,110.3v3l55,30.2L0,110.3z"/>
<path class="st0" d="M0,138.8v3.9L77.9,177L0,138.8z"/>
<path class="st0" d="M0,166.9v0.5l9.9,3.3L0,166.9z"/>
<path class="st0" d="M0,191.4v1.4l31.4,7.7L0,191.4z"/>
<path class="st0" d="M0,238.5v1l23.4,1.6L0,238.5z"/>
<path class="st0" d="M0,283.8v1l24.3-2.5L0,283.8z"/>
<path class="st0" d="M0,306.1v2.3l54.4-10.8L0,306.1z"/>
<path class="st0" d="M0,355.1v1.9l37.6-14.6L0,355.1z"/>
<path class="st0" d="M0,380.1v4.3l84.8-41.8L0,380.1z"/>
<path class="st0" d="M0,410.8v1l19.1-11.5L0,410.8z"/>
<path class="st0" d="M0,441.2v4.1L66,397L0,441.2z"/>
<path class="st0" d="M0,475.7v7.8l109.8-96.1L0,475.7z"/>
<path class="st0" d="M18.1,500h5.3l60.5-63.1L18.1,500z"/>
<path class="st0" d="M56.7,500h5.7l63.9-79.6L56.7,500z"/>
<path class="st0" d="M91.1,500h2.8l30.1-45L91.1,500z"/>
<path class="st0" d="M121,500h2.8l27.5-50.1L121,500z"/>
<path class="st0" d="M148.3,500l3.6-8.2l-4,8.2H148.3z"/>
<path class="st0" d="M171.4,500h2.2l16.2-47.8L171.4,500z"/>
<path class="st0" d="M195.8,500l2.5-10.4l-2.9,10.4H195.8z"/>
<path class="st0" d="M216.6,500h2.3l8.1-52.9L216.6,500z"/>
<path class="st0" d="M259.4,500L259.4,500l0.1-2.3L259.4,500z"/>
<path class="st0" d="M300.4,500h2.3L292,446.1L300.4,500z"/>
<path class="st0" d="M323.1,500h0.5l-3-10.4L323.1,500z"/>
<path class="st0" d="M345.6,500h2.2l-17.9-46.1L345.6,500z"/>
<path class="st0" d="M370.4,500h0.3l-2.6-5.3L370.4,500z"/>
<path class="st0" d="M395.4,500h3.3l-35.8-59.2L395.4,500z"/>
<path class="st0" d="M425,500h2.7l-32.9-45L425,500z"/>
<path class="st0" d="M455.6,500h6.2l-76.4-87.4L455.6,500z"/>
<path class="st0" d="M496.1,500h3.9v-0.9l-59.3-56.8L496.1,500z"/>
<path class="st0" d="M500,466.2v-5.8L418.5,395L500,466.2z"/>
<path class="st0" d="M500,430.9V429l-29.4-19.7L500,430.9z"/>
<path class="st0" d="M500,400.9V400l-15.2-8.3L500,400.9z"/>
<path class="st0" d="M500,375.2v-2.7l-52.9-23.3L500,375.2z"/>
<path class="st0" d="M500,350.6v-2.9l-63.9-21.8L500,350.6z"/>
<path class="st0" d="M500,304.7v-1.5l-33.1-5.1L500,304.7z"/>
<path class="st0" d="M500,261.7v-0.4l-9.9,0.2L500,261.7z"/>
<path class="st0" d="M500,219.6v-0.8l-19.6,3.8L500,219.6z"/>
<path class="st0" d="M500,150.7v-2.5l-49.9,24.6L500,150.7z"/>
<path class="st0" d="M500,123.7v-2l-36.1,21.8L500,123.7z"/>
<path class="st0" d="M500,95.1v-4l-64.9,47.5L500,95.1z"/>
<path class="st0" d="M500,62.3v-2.8l-38.8,34.1L500,62.3z"/>
<path class="st0" d="M500,24.7v-7.3l-88.6,92.3L500,24.7z"/>
<path class="st0" d="M480.5,0h-4.3l-49,61L480.5,0z"/>
<path class="st0" d="M444.3,0h-4.2l-45.2,67.5L444.3,0z"/>
<path class="st0" d="M411.5,0H410l-15.3,27.7L411.5,0z"/>
<path class="st0" d="M382.9,0h-4.2l-36,81.8L382.9,0z"/>
<path class="st0" d="M355.6,0h-1.9l-13.5,39.7L355.6,0z"/>
<path class="st0" d="M329.9,0l-3.2,13l3.8-13H329.9z"/>
<path class="st0" d="M304.1,0l-7.2,47l9.3-47H304.1z"/>
<path class="st0" d="M281.8,0L280,26.4L282.9,0H281.8z"/>
<path class="st0" d="M249.7,0h-5.3l7.9,125.6L249.7,0z"/>
<path class="st0" d="M223.4,0l14.4,95.4L227.4,0H223.4z"/>
<path class="st0" d="M205,0h-5.3l29.2,120.2L205,0z"/>
<path class="st0" d="M179.6,0H175l34.2,101.8L179.6,0z"/>
<path class="st0" d="M153.1,0h-3.8l34.1,77.9L153.1,0z"/>
<path class="st0" d="M127,0h-6.7l68.1,124.9L127,0z"/>
<path class="st0" d="M96.8,0h-7l79.9,120.2L96.8,0z"/>
<path class="st0" d="M64.3,0H54.1l122.8,153.7L64.3,0z"/>
<path class="st0" d="M25.5,0H15.1l131.4,137.9L25.5,0z"/>
<path class="st0" d="M0,18.7v8.9l115.5,101.8L0,18.7z"/>
<path class="st0" d="M0,57.6V66l126.7,93.3L0,57.6z"/>
<path class="st0" d="M0,91v9.5l162.2,98.9L0,91z"/>
<path class="st0" d="M0,123.1v5.9l111,55.1L0,123.1z"/>
<path class="st0" d="M0,152.3v2.6l53.3,20.9L0,152.3z"/>
<path class="st0" d="M0,178.4v2.1l44.8,13.1L0,178.4z"/>
<path class="st0" d="M0,201.7v4.1l94.3,19L0,201.7z"/>
<path class="st0" d="M0,225v4l93.3,10.5L0,225z"/>
<path class="st0" d="M0,247.5v4.9l117.5,2.8L0,247.5z"/>
<path class="st0" d="M0,271.6v2l47.1-3L0,271.6z"/>
<path class="st0" d="M0,292.4v4.7l109.7-16.6L0,292.4z"/>
<path class="st0" d="M0,318v1.5l35.4-8.5L0,318z"/>
<path class="st0" d="M0,340.7v4.6l99.6-33.6L0,340.7z"/>
<path class="st0" d="M0,367.1v3.1L64.6,342L0,367.1z"/>
<path class="st0" d="M0,392.4v7.7l145.3-79.3L0,392.4z"/>
<path class="st0" d="M0,423.8v5.3l91.2-60.6L0,423.8z"/>
<path class="st0" d="M0,455.3v9.9l149.2-119.3L0,455.3z"/>
<path class="st0" d="M0,494.1v5.9h3.6l117.9-112.3L0,494.1z"/>
<path class="st0" d="M35,500h10.6l121.2-137.7L35,500z"/>
<path class="st0" d="M70.4,500h11l121.3-164.7L70.4,500z"/>
<path class="st0" d="M104.5,500h5.2l53.7-88.1L104.5,500z"/>
<path class="st0" d="M133.4,500h3.2l30-60.8L133.4,500z"/>
<path class="st0" d="M158.3,500h4.1l32.7-83.8L158.3,500z"/>
<path class="st0" d="M180.3,500h5.3l34.1-115.9L180.3,500z"/>
<path class="st0" d="M204.6,500h3.3l15.1-74.9L204.6,500z"/>
<path class="st0" d="M228.7,500l5-44.6l-6.8,44.6H228.7z"/>
<path class="st0" d="M250.6,500l2.2-90.9l-6,90.9H250.6z"/>
<path class="st0" d="M266.8,500h5.5l-8.2-130L266.8,500z"/>
<path class="st0" d="M288.8,500h3.3l-11.9-79.1L288.8,500z"/>
<path class="st0" d="M310.8,500h2.4L300,445.6L310.8,500z"/>
<path class="st0" d="M331.9,500h4.8l-35.6-106L331.9,500z"/>
<path class="st0" d="M355.8,500h4.1l-36.5-83.6L355.8,500z"/>
<path class="st0" d="M381.5,500h3.4l-35.4-64.9L381.5,500z"/>
<path class="st0" d="M407.4,500h6.9L335,380.5L407.4,500z"/>
<path class="st0" d="M438.2,500h7.5l-91.6-114.7L438.2,500z"/>
<path class="st0" d="M471.1,500h12.6L327.4,335.9L471.1,500z"/>
<path class="st0" d="M500,486.3v-7.4l-96.6-85L500,486.3z"/>
<path class="st0" d="M500,450.3v-7.2l-107.7-79.4L500,450.3z"/>
<path class="st0" d="M500,418.8v-7l-121.2-73.9L500,418.8z"/>
<path class="st0" d="M500,389v-3.7l-70-34.6L500,389z"/>
<path class="st0" d="M500,363.7v-4.2l-85.8-33.6L500,363.7z"/>
<path class="st0" d="M500,340.3v-5.1l-109.4-32.1L500,340.3z"/>
<path class="st0" d="M500,316.9v-3.4L423,298L500,316.9z"/>
<path class="st0" d="M500,295.1V292l-74.5-8.3L500,295.1z"/>
<path class="st0" d="M500,274.6v-4.4l-106.1-2.5L500,274.6z"/>
<path class="st0" d="M500,253.4v-2.2l-50.2,3.2L500,253.4z"/>
<path class="st0" d="M500,232.3v-4.1l-95.8,14.6L500,232.3z"/>
<path class="st0" d="M500,209.8v-2.3l-53.9,13L500,209.8z"/>
<path class="st0" d="M500,188v-3.7l-80.7,27.2L500,188z"/>
<path class="st0" d="M500,165.7V159l-136.2,59.5L500,165.7z"/>
<path class="st0" d="M500,139.1v-4.8l-91.8,50.1L500,139.1z"/>
<path class="st0" d="M500,111v-4.4l-75.5,50.2L500,111z"/>
<path class="st0" d="M500,81v-7l-107.4,85.8L500,81z"/>
<path class="st0" d="M500,46.9V36.5L363.2,166.7L500,46.9z"/>
<path class="st0" d="M494.6,0L372.8,138.2L500,5.5V0H494.6z"/>
<path class="st0" d="M465.5,0h-9.3L353.6,139.2L465.5,0z"/>
<path class="st0" d="M429.7,0h-6.3l-65.6,107.4L429.7,0z"/>
<path class="st0" d="M399.1,0H393l-56,113.1L399.1,0z"/>
<path class="st0" d="M369.8,0h-6.3l-50.6,129.1L369.8,0z"/>
<path class="st0" d="M344.6,0H340l-29.9,101.9L344.6,0z"/>
<path class="st0" d="M321.1,0h-6.6l-30.1,149.6L321.1,0z"/>
<path class="st0" d="M296.3,0h-4l-10.8,95.5L296.3,0z"/>
<path class="st0" d="M267,102.1L273.7,0h-4.2L267,102.1z"/>
</svg>
