<svg xmlns="http://www.w3.org/2000/svg" xmlns:xlink="http://www.w3.org/1999/xlink" width="500" zoomAndPan="magnify" viewBox="0 0 375 374.999991" height="500" preserveAspectRatio="xMidYMid meet" version="1.0"><defs><g/><clipPath id="e1af05b592"><path d="M 247 10.460938 L 293 10.460938 L 293 65 L 247 65 Z M 247 10.460938 " clip-rule="nonzero"/></clipPath><clipPath id="b140347c0a"><path d="M 281 169 L 293.316406 169 L 293.316406 170 L 281 170 Z M 281 169 " clip-rule="nonzero"/></clipPath><clipPath id="7a9143a697"><path d="M 256 101 L 293.316406 101 L 293.316406 115 L 256 115 Z M 256 101 " clip-rule="nonzero"/></clipPath><clipPath id="078cac3b75"><path d="M 269 91 L 293.316406 91 L 293.316406 103 L 269 103 Z M 269 91 " clip-rule="nonzero"/></clipPath><clipPath id="9851b39521"><path d="M 278 83 L 293.316406 83 L 293.316406 91 L 278 91 Z M 278 83 " clip-rule="nonzero"/></clipPath><clipPath id="d5b3cdafe8"><path d="M 259 21 L 293.316406 21 L 293.316406 60 L 259 60 Z M 259 21 " clip-rule="nonzero"/></clipPath><clipPath id="bd0c446d49"><path d="M 263 50 L 293.316406 50 L 293.316406 73 L 263 73 Z M 263 50 " clip-rule="nonzero"/></clipPath><clipPath id="0dc036f4af"><path d="M 283 57 L 293.316406 57 L 293.316406 64 L 283 64 Z M 283 57 " clip-rule="nonzero"/></clipPath><clipPath id="7401a9244b"><path d="M 270 67 L 293.316406 67 L 293.316406 83 L 270 83 Z M 270 67 " clip-rule="nonzero"/></clipPath><clipPath id="5fb6a42fa8"><path d="M 283 73 L 293.316406 73 L 293.316406 80 L 283 80 Z M 283 73 " clip-rule="nonzero"/></clipPath><clipPath id="1f71a4c90e"><path d="M 276 31 L 293.316406 31 L 293.316406 49 L 276 49 Z M 276 31 " clip-rule="nonzero"/></clipPath><clipPath id="30d91dfd05"><path d="M 182 10.460938 L 184 10.460938 L 184 34 L 182 34 Z M 182 10.460938 " clip-rule="nonzero"/></clipPath><clipPath id="32aa7c6c6b"><path d="M 214 10.460938 L 222 10.460938 L 222 51 L 214 51 Z M 214 10.460938 " clip-rule="nonzero"/></clipPath><clipPath id="124eb9f0e0"><path d="M 213 10.460938 L 216 10.460938 L 216 32 L 213 32 Z M 213 10.460938 " clip-rule="nonzero"/></clipPath><clipPath id="6902283cf8"><path d="M 197 10.460938 L 199 10.460938 L 199 24 L 197 24 Z M 197 10.460938 " clip-rule="nonzero"/></clipPath><clipPath id="7d9eb3830a"><path d="M 187 10.460938 L 189 10.460938 L 189 23 L 187 23 Z M 187 10.460938 " clip-rule="nonzero"/></clipPath><clipPath id="e6d7c5baf2"><path d="M 239 10.460938 L 251 10.460938 L 251 46 L 239 46 Z M 239 10.460938 " clip-rule="nonzero"/></clipPath><clipPath id="bf65243054"><path d="M 248 10.460938 L 259 10.460938 L 259 37 L 248 37 Z M 248 10.460938 " clip-rule="nonzero"/></clipPath><clipPath id="3cbd6eebc5"><path d="M 251 10.460938 L 281 10.460938 L 281 51 L 251 51 Z M 251 10.460938 " clip-rule="nonzero"/></clipPath><clipPath id="a2e531c39a"><path d="M 259 10.460938 L 269 10.460938 L 269 26 L 259 26 Z M 259 10.460938 " clip-rule="nonzero"/></clipPath><clipPath id="c1e497601c"><path d="M 227 10.460938 L 234 10.460938 L 234 39 L 227 39 Z M 227 10.460938 " clip-rule="nonzero"/></clipPath><clipPath id="5ebce94135"><path d="M 275 42 L 293.316406 42 L 293.316406 57 L 275 57 Z M 275 42 " clip-rule="nonzero"/></clipPath><clipPath id="6d47c69a53"><path d="M 269 139 L 293.316406 139 L 293.316406 144 L 269 144 Z M 269 139 " clip-rule="nonzero"/></clipPath><clipPath id="af0d55f654"><path d="M 266 120 L 293.316406 120 L 293.316406 126 L 266 126 Z M 266 120 " clip-rule="nonzero"/></clipPath><clipPath id="8903652de4"><path d="M 273 116 L 293.316406 116 L 293.316406 120 L 273 120 Z M 273 116 " clip-rule="nonzero"/></clipPath><clipPath id="97368bd3a5"><path d="M 273 125 L 293.316406 125 L 293.316406 130 L 273 130 Z M 273 125 " clip-rule="nonzero"/></clipPath><clipPath id="11685901be"><path d="M 276 163 L 293.316406 163 L 293.316406 165 L 276 165 Z M 276 163 " clip-rule="nonzero"/></clipPath><clipPath id="cc7dd20f49"><path d="M 282 159 L 293.316406 159 L 293.316406 161 L 282 161 Z M 282 159 " clip-rule="nonzero"/></clipPath><clipPath id="5f88b8a848"><path d="M 277 145 L 293.316406 145 L 293.316406 148 L 277 148 Z M 277 145 " clip-rule="nonzero"/></clipPath><clipPath id="47dd92d8c2"><path d="M 264 132 L 293.316406 132 L 293.316406 138 L 264 138 Z M 264 132 " clip-rule="nonzero"/></clipPath><clipPath id="b747c50d99"><path d="M 276 110 L 293.316406 110 L 293.316406 115 L 276 115 Z M 276 110 " clip-rule="nonzero"/></clipPath><clipPath id="427467a286"><path d="M 236 10.460938 L 242 10.460938 L 242 33 L 236 33 Z M 236 10.460938 " clip-rule="nonzero"/></clipPath><clipPath id="ed1bdf8466"><path d="M 286 152 L 293.316406 152 L 293.316406 154 L 286 154 Z M 286 152 " clip-rule="nonzero"/></clipPath><clipPath id="69b34a4eef"><path d="M 247 291 L 293.316406 291 L 293.316406 337.460938 L 247 337.460938 Z M 247 291 " clip-rule="nonzero"/></clipPath><clipPath id="393cf136bb"><path d="M 237 318 L 252 318 L 252 337.460938 L 237 337.460938 Z M 237 318 " clip-rule="nonzero"/></clipPath><clipPath id="9d67f2ea77"><path d="M 183 325 L 185 325 L 185 337.460938 L 183 337.460938 Z M 183 325 " clip-rule="nonzero"/></clipPath><clipPath id="c6b39bd50c"><path d="M 195 316 L 197 316 L 197 337.460938 L 195 337.460938 Z M 195 316 " clip-rule="nonzero"/></clipPath><clipPath id="00e91f6059"><path d="M 215 324 L 219 324 L 219 337.460938 L 215 337.460938 Z M 215 324 " clip-rule="nonzero"/></clipPath><clipPath id="57c6a089e8"><path d="M 209 320 L 213 320 L 213 337.460938 L 209 337.460938 Z M 209 320 " clip-rule="nonzero"/></clipPath><clipPath id="87ceb38ae9"><path d="M 202 324 L 204 324 L 204 337.460938 L 202 337.460938 Z M 202 324 " clip-rule="nonzero"/></clipPath><clipPath id="1b46a530ce"><path d="M 235 326 L 243 326 L 243 337.460938 L 235 337.460938 Z M 235 326 " clip-rule="nonzero"/></clipPath><clipPath id="2799114132"><path d="M 233 332 L 237 332 L 237 337.460938 L 233 337.460938 Z M 233 332 " clip-rule="nonzero"/></clipPath><clipPath id="503c501630"><path d="M 250 303 L 285 303 L 285 337.460938 L 250 337.460938 Z M 250 303 " clip-rule="nonzero"/></clipPath><clipPath id="3beba6c614"><path d="M 258 318 L 277 318 L 277 337.460938 L 258 337.460938 Z M 258 318 " clip-rule="nonzero"/></clipPath><clipPath id="5078a95a41"><path d="M 244 314 L 265 314 L 265 337.460938 L 244 337.460938 Z M 244 314 " clip-rule="nonzero"/></clipPath><clipPath id="5701c30bad"><path d="M 270 301 L 293.316406 301 L 293.316406 321 L 270 321 Z M 270 301 " clip-rule="nonzero"/></clipPath><clipPath id="a8a95401b2"><path d="M 285 178 L 293.316406 178 L 293.316406 179 L 285 179 Z M 285 178 " clip-rule="nonzero"/></clipPath><clipPath id="3e8d05b237"><path d="M 263 232 L 293.316406 232 L 293.316406 241 L 263 241 Z M 263 232 " clip-rule="nonzero"/></clipPath><clipPath id="5db9402e21"><path d="M 270 239 L 293.316406 239 L 293.316406 248 L 270 248 Z M 270 239 " clip-rule="nonzero"/></clipPath><clipPath id="c775b867a9"><path d="M 279 249 L 293.316406 249 L 293.316406 255 L 279 255 Z M 279 249 " clip-rule="nonzero"/></clipPath><clipPath id="8bbaa38255"><path d="M 268 262 L 293.316406 262 L 293.316406 276 L 268 276 Z M 268 262 " clip-rule="nonzero"/></clipPath><clipPath id="09d5f54307"><path d="M 283 265 L 293.316406 265 L 293.316406 271 L 283 271 Z M 283 265 " clip-rule="nonzero"/></clipPath><clipPath id="7304dda753"><path d="M 289 262 L 293.316406 262 L 293.316406 265 L 289 265 Z M 289 262 " clip-rule="nonzero"/></clipPath><clipPath id="d3d6385263"><path d="M 276 271 L 293.316406 271 L 293.316406 281 L 276 281 Z M 276 271 " clip-rule="nonzero"/></clipPath><clipPath id="564c63f18b"><path d="M 280 281 L 293.316406 281 L 293.316406 290 L 280 290 Z M 280 281 " clip-rule="nonzero"/></clipPath><clipPath id="d1922ab111"><path d="M 286 291 L 293.316406 291 L 293.316406 296 L 286 296 Z M 286 291 " clip-rule="nonzero"/></clipPath><clipPath id="77e7aac6fb"><path d="M 289 298 L 293.316406 298 L 293.316406 301 L 289 301 Z M 289 298 " clip-rule="nonzero"/></clipPath><clipPath id="978f2e9954"><path d="M 270 291 L 293.316406 291 L 293.316406 309 L 270 309 Z M 270 291 " clip-rule="nonzero"/></clipPath><clipPath id="26b2eaa96b"><path d="M 276 184 L 293.316406 184 L 293.316406 186 L 276 186 Z M 276 184 " clip-rule="nonzero"/></clipPath><clipPath id="6ea44962c9"><path d="M 287 187 L 293.316406 187 L 293.316406 188 L 287 188 Z M 287 187 " clip-rule="nonzero"/></clipPath><clipPath id="91a04fbe3d"><path d="M 270 206 L 293.316406 206 L 293.316406 210 L 270 210 Z M 270 206 " clip-rule="nonzero"/></clipPath><clipPath id="a5a6c3e3b1"><path d="M 282 203 L 293.316406 203 L 293.316406 205 L 282 205 Z M 282 203 " clip-rule="nonzero"/></clipPath><clipPath id="b88afae7cf"><path d="M 278 199 L 293.316406 199 L 293.316406 202 L 278 202 Z M 278 199 " clip-rule="nonzero"/></clipPath><clipPath id="ba7ef32d44"><path d="M 283 196 L 293.316406 196 L 293.316406 198 L 283 198 Z M 283 196 " clip-rule="nonzero"/></clipPath><clipPath id="9ba5f967b9"><path d="M 288 192 L 293.316406 192 L 293.316406 193 L 288 193 Z M 288 192 " clip-rule="nonzero"/></clipPath><clipPath id="f0a936db3b"><path d="M 276 230 L 293.316406 230 L 293.316406 235 L 276 235 Z M 276 230 " clip-rule="nonzero"/></clipPath><clipPath id="2f97679e47"><path d="M 270 219 L 293.316406 219 L 293.316406 224 L 270 224 Z M 270 219 " clip-rule="nonzero"/></clipPath><clipPath id="fb432aaece"><path d="M 277 225 L 293.316406 225 L 293.316406 228 L 277 228 Z M 277 225 " clip-rule="nonzero"/></clipPath><clipPath id="2c1ed19772"><path d="M 281 216 L 293.316406 216 L 293.316406 220 L 281 220 Z M 281 216 " clip-rule="nonzero"/></clipPath><clipPath id="cc90527afb"><path d="M 286 213 L 293.316406 213 L 293.316406 215 L 286 215 Z M 286 213 " clip-rule="nonzero"/></clipPath><clipPath id="e095162a07"><path d="M 224 330 L 227 330 L 227 337.460938 L 224 337.460938 Z M 224 330 " clip-rule="nonzero"/></clipPath><clipPath id="7e4097061f"><path d="M 188 329 L 190 329 L 190 337.460938 L 188 337.460938 Z M 188 329 " clip-rule="nonzero"/></clipPath><clipPath id="13b8f5571f"><path d="M 62.316406 316 L 85 316 L 85 337.460938 L 62.316406 337.460938 Z M 62.316406 316 " clip-rule="nonzero"/></clipPath><clipPath id="b60b310030"><path d="M 67 309 L 100 309 L 100 337.460938 L 67 337.460938 Z M 67 309 " clip-rule="nonzero"/></clipPath><clipPath id="be761c46de"><path d="M 74 322 L 91 322 L 91 337.460938 L 74 337.460938 Z M 74 322 " clip-rule="nonzero"/></clipPath><clipPath id="e822c968f9"><path d="M 101 318 L 114 318 L 114 337.460938 L 101 337.460938 Z M 101 318 " clip-rule="nonzero"/></clipPath><clipPath id="b265eaa6c4"><path d="M 130 324 L 136 324 L 136 337.460938 L 130 337.460938 Z M 130 324 " clip-rule="nonzero"/></clipPath><clipPath id="07c5ba9b1d"><path d="M 157 326 L 160 326 L 160 337.460938 L 157 337.460938 Z M 157 326 " clip-rule="nonzero"/></clipPath><clipPath id="607e29c876"><path d="M 115 316 L 126 316 L 126 337.460938 L 115 337.460938 Z M 115 316 " clip-rule="nonzero"/></clipPath><clipPath id="a7409e3813"><path d="M 111 321 L 121 321 L 121 337.460938 L 111 337.460938 Z M 111 321 " clip-rule="nonzero"/></clipPath><clipPath id="1a2992ffa1"><path d="M 96 322 L 107 322 L 107 337.460938 L 96 337.460938 Z M 96 322 " clip-rule="nonzero"/></clipPath><clipPath id="83ab5b755d"><path d="M 88 316 L 105 316 L 105 337.460938 L 88 337.460938 Z M 88 316 " clip-rule="nonzero"/></clipPath><clipPath id="b10f474665"><path d="M 82 329 L 90 329 L 90 337.460938 L 82 337.460938 Z M 82 329 " clip-rule="nonzero"/></clipPath><clipPath id="b8695564a0"><path d="M 120 328 L 125 328 L 125 337.460938 L 120 337.460938 Z M 120 328 " clip-rule="nonzero"/></clipPath><clipPath id="9f7075e230"><path d="M 126 327 L 131 327 L 131 337.460938 L 126 337.460938 Z M 126 327 " clip-rule="nonzero"/></clipPath><clipPath id="f09046a9c7"><path d="M 135 331 L 138 331 L 138 337.460938 L 135 337.460938 Z M 135 331 " clip-rule="nonzero"/></clipPath><clipPath id="e223efb45f"><path d="M 143 314 L 150 314 L 150 337.460938 L 143 337.460938 Z M 143 314 " clip-rule="nonzero"/></clipPath><clipPath id="5415e0d8fc"><path d="M 146 326 L 150 326 L 150 337.460938 L 146 337.460938 Z M 146 326 " clip-rule="nonzero"/></clipPath><clipPath id="7711765f85"><path d="M 154 330 L 157 330 L 157 337.460938 L 154 337.460938 Z M 154 330 " clip-rule="nonzero"/></clipPath><clipPath id="888c083c32"><path d="M 150 332 L 152 332 L 152 337.460938 L 150 337.460938 Z M 150 332 " clip-rule="nonzero"/></clipPath><clipPath id="5f71b0635e"><path d="M 159 332 L 161 332 L 161 337.460938 L 159 337.460938 Z M 159 332 " clip-rule="nonzero"/></clipPath><clipPath id="8d276d7d4a"><path d="M 173 332 L 174 332 L 174 337.460938 L 173 337.460938 Z M 173 332 " clip-rule="nonzero"/></clipPath><clipPath id="8322ec9ec0"><path d="M 170 330 L 171 330 L 171 337.460938 L 170 337.460938 Z M 170 330 " clip-rule="nonzero"/></clipPath><clipPath id="d3a9764110"><path d="M 164 323 L 166 323 L 166 337.460938 L 164 337.460938 Z M 164 323 " clip-rule="nonzero"/></clipPath><clipPath id="5e579ed8c4"><path d="M 106 327 L 113 327 L 113 337.460938 L 106 337.460938 Z M 106 327 " clip-rule="nonzero"/></clipPath><clipPath id="d4d8dd040d"><path d="M 62.316406 318 L 76 318 L 76 329 L 62.316406 329 Z M 62.316406 318 " clip-rule="nonzero"/></clipPath><clipPath id="cb50bcdb1c"><path d="M 62.316406 318 L 67 318 L 67 322 L 62.316406 322 Z M 62.316406 318 " clip-rule="nonzero"/></clipPath><clipPath id="30408e50e4"><path d="M 62.316406 178 L 65 178 L 65 179 L 62.316406 179 Z M 62.316406 178 " clip-rule="nonzero"/></clipPath><clipPath id="ad9a44c86e"><path d="M 62.316406 180 L 70 180 L 70 182 L 62.316406 182 Z M 62.316406 180 " clip-rule="nonzero"/></clipPath><clipPath id="56601f958d"><path d="M 62.316406 229 L 82 229 L 82 233 L 62.316406 233 Z M 62.316406 229 " clip-rule="nonzero"/></clipPath><clipPath id="b3443bac1d"><path d="M 62.316406 234 L 72 234 L 72 237 L 62.316406 237 Z M 62.316406 234 " clip-rule="nonzero"/></clipPath><clipPath id="cfc78c7e4e"><path d="M 62.316406 240 L 76 240 L 76 244 L 62.316406 244 Z M 62.316406 240 " clip-rule="nonzero"/></clipPath><clipPath id="f127368087"><path d="M 62.316406 244 L 67 244 L 67 246 L 62.316406 246 Z M 62.316406 244 " clip-rule="nonzero"/></clipPath><clipPath id="0a80b319f2"><path d="M 62.316406 255 L 89 255 L 89 262 L 62.316406 262 Z M 62.316406 255 " clip-rule="nonzero"/></clipPath><clipPath id="bf6eed71b8"><path d="M 62.316406 261 L 74 261 L 74 264 L 62.316406 264 Z M 62.316406 261 " clip-rule="nonzero"/></clipPath><clipPath id="f91af68683"><path d="M 62.316406 266 L 68 266 L 68 268 L 62.316406 268 Z M 62.316406 266 " clip-rule="nonzero"/></clipPath><clipPath id="3be986bd09"><path d="M 62.316406 268 L 85 268 L 85 275 L 62.316406 275 Z M 62.316406 268 " clip-rule="nonzero"/></clipPath><clipPath id="b6037805e8"><path d="M 62.316406 274 L 75 274 L 75 278 L 62.316406 278 Z M 62.316406 274 " clip-rule="nonzero"/></clipPath><clipPath id="def7f8b9b8"><path d="M 62.316406 280 L 70 280 L 70 283 L 62.316406 283 Z M 62.316406 280 " clip-rule="nonzero"/></clipPath><clipPath id="53e0969f2d"><path d="M 62.316406 283 L 87 283 L 87 294 L 62.316406 294 Z M 62.316406 283 " clip-rule="nonzero"/></clipPath><clipPath id="873f9c4783"><path d="M 62.316406 291 L 77 291 L 77 299 L 62.316406 299 Z M 62.316406 291 " clip-rule="nonzero"/></clipPath><clipPath id="b3303bf778"><path d="M 62.316406 297 L 74 297 L 74 303 L 62.316406 303 Z M 62.316406 297 " clip-rule="nonzero"/></clipPath><clipPath id="cc0d74b7d1"><path d="M 62.316406 300 L 82 300 L 82 313 L 62.316406 313 Z M 62.316406 300 " clip-rule="nonzero"/></clipPath><clipPath id="ab704b3368"><path d="M 62.316406 309 L 73 309 L 73 316 L 62.316406 316 Z M 62.316406 309 " clip-rule="nonzero"/></clipPath><clipPath id="689e5d7d99"><path d="M 62.316406 303 L 70 303 L 70 308 L 62.316406 308 Z M 62.316406 303 " clip-rule="nonzero"/></clipPath><clipPath id="05d35a386c"><path d="M 62.316406 284 L 74 284 L 74 289 L 62.316406 289 Z M 62.316406 284 " clip-rule="nonzero"/></clipPath><clipPath id="f57c20a4f2"><path d="M 62.316406 253 L 75 253 L 75 256 L 62.316406 256 Z M 62.316406 253 " clip-rule="nonzero"/></clipPath><clipPath id="53b87bbf9c"><path d="M 62.316406 249 L 70 249 L 70 251 L 62.316406 251 Z M 62.316406 249 " clip-rule="nonzero"/></clipPath><clipPath id="9015bf2d5b"><path d="M 62.316406 204 L 78 204 L 78 208 L 62.316406 208 Z M 62.316406 204 " clip-rule="nonzero"/></clipPath><clipPath id="873985b1c6"><path d="M 62.316406 208 L 72 208 L 72 210 L 62.316406 210 Z M 62.316406 208 " clip-rule="nonzero"/></clipPath><clipPath id="01f848f402"><path d="M 62.316406 213 L 87 213 L 87 217 L 62.316406 217 Z M 62.316406 213 " clip-rule="nonzero"/></clipPath><clipPath id="6950863f67"><path d="M 62.316406 218 L 74 218 L 74 221 L 62.316406 221 Z M 62.316406 218 " clip-rule="nonzero"/></clipPath><clipPath id="5d5ce78d96"><path d="M 62.316406 222 L 70 222 L 70 224 L 62.316406 224 Z M 62.316406 222 " clip-rule="nonzero"/></clipPath><clipPath id="b9d5feb96b"><path d="M 62.316406 227 L 65 227 L 65 228 L 62.316406 228 Z M 62.316406 227 " clip-rule="nonzero"/></clipPath><clipPath id="e8cc696ebb"><path d="M 62.316406 211 L 67 211 L 67 212 L 62.316406 212 Z M 62.316406 211 " clip-rule="nonzero"/></clipPath><clipPath id="4dcc73f09f"><path d="M 62.316406 184 L 69 184 L 69 185 L 62.316406 185 Z M 62.316406 184 " clip-rule="nonzero"/></clipPath><clipPath id="c8187808ad"><path d="M 62.316406 189 L 72 189 L 72 190 L 62.316406 190 Z M 62.316406 189 " clip-rule="nonzero"/></clipPath><clipPath id="fbf481d15f"><path d="M 62.316406 202 L 72 202 L 72 204 L 62.316406 204 Z M 62.316406 202 " clip-rule="nonzero"/></clipPath><clipPath id="0b915b6a18"><path d="M 62.316406 196 L 80 196 L 80 199 L 62.316406 199 Z M 62.316406 196 " clip-rule="nonzero"/></clipPath><clipPath id="6798c6c1a1"><path d="M 62.316406 193 L 72 193 L 72 195 L 62.316406 195 Z M 62.316406 193 " clip-rule="nonzero"/></clipPath><clipPath id="533b4cf000"><path d="M 62.316406 10.460938 L 98 10.460938 L 98 48 L 62.316406 48 Z M 62.316406 10.460938 " clip-rule="nonzero"/></clipPath><clipPath id="cfd5b50b6f"><path d="M 62.316406 16 L 77 16 L 77 33 L 62.316406 33 Z M 62.316406 16 " clip-rule="nonzero"/></clipPath><clipPath id="e6e86daa05"><path d="M 62.316406 23 L 81 23 L 81 44 L 62.316406 44 Z M 62.316406 23 " clip-rule="nonzero"/></clipPath><clipPath id="6e9698e899"><path d="M 62.316406 82 L 83 82 L 83 96 L 62.316406 96 Z M 62.316406 82 " clip-rule="nonzero"/></clipPath><clipPath id="76748d38ad"><path d="M 62.316406 78 L 70 78 L 70 84 L 62.316406 84 Z M 62.316406 78 " clip-rule="nonzero"/></clipPath><clipPath id="165b33baf6"><path d="M 62.316406 73 L 77 73 L 77 84 L 62.316406 84 Z M 62.316406 73 " clip-rule="nonzero"/></clipPath><clipPath id="ab6484e72c"><path d="M 62.316406 68 L 83 68 L 83 84 L 62.316406 84 Z M 62.316406 68 " clip-rule="nonzero"/></clipPath><clipPath id="7cae9b02db"><path d="M 62.316406 62 L 76 62 L 76 73 L 62.316406 73 Z M 62.316406 62 " clip-rule="nonzero"/></clipPath><clipPath id="34517ccb64"><path d="M 62.316406 57 L 68 57 L 68 62 L 62.316406 62 Z M 62.316406 57 " clip-rule="nonzero"/></clipPath><clipPath id="bf969c8a89"><path d="M 62.316406 54 L 65 54 L 65 57 L 62.316406 57 Z M 62.316406 54 " clip-rule="nonzero"/></clipPath><clipPath id="f539b25224"><path d="M 62.316406 44 L 82 44 L 82 61 L 62.316406 61 Z M 62.316406 44 " clip-rule="nonzero"/></clipPath><clipPath id="e609b7616f"><path d="M 62.316406 40 L 73 40 L 73 49 L 62.316406 49 Z M 62.316406 40 " clip-rule="nonzero"/></clipPath><clipPath id="2e1ccf8dad"><path d="M 62.316406 34 L 71 34 L 71 42 L 62.316406 42 Z M 62.316406 34 " clip-rule="nonzero"/></clipPath><clipPath id="22ab523491"><path d="M 62.316406 169 L 68 169 L 68 170 L 62.316406 170 Z M 62.316406 169 " clip-rule="nonzero"/></clipPath><clipPath id="efaef1b2a5"><path d="M 62.316406 165 L 69 165 L 69 166 L 62.316406 166 Z M 62.316406 165 " clip-rule="nonzero"/></clipPath><clipPath id="17eef3406b"><path d="M 62.316406 160 L 67 160 L 67 162 L 62.316406 162 Z M 62.316406 160 " clip-rule="nonzero"/></clipPath><clipPath id="ce887b18c2"><path d="M 62.316406 154 L 69 154 L 69 156 L 62.316406 156 Z M 62.316406 154 " clip-rule="nonzero"/></clipPath><clipPath id="befce865cb"><path d="M 62.316406 129 L 73 129 L 73 133 L 62.316406 133 Z M 62.316406 129 " clip-rule="nonzero"/></clipPath><clipPath id="42edcb1b09"><path d="M 62.316406 87 L 75 87 L 75 96 L 62.316406 96 Z M 62.316406 87 " clip-rule="nonzero"/></clipPath><clipPath id="53dcad30da"><path d="M 62.316406 100 L 77 100 L 77 108 L 62.316406 108 Z M 62.316406 100 " clip-rule="nonzero"/></clipPath><clipPath id="089d989884"><path d="M 62.316406 96 L 72 96 L 72 101 L 62.316406 101 Z M 62.316406 96 " clip-rule="nonzero"/></clipPath><clipPath id="a1882fc7c2"><path d="M 62.316406 106 L 78 106 L 78 113 L 62.316406 113 Z M 62.316406 106 " clip-rule="nonzero"/></clipPath><clipPath id="d3680c7e6c"><path d="M 62.316406 111 L 71 111 L 71 115 L 62.316406 115 Z M 62.316406 111 " clip-rule="nonzero"/></clipPath><clipPath id="6a2a1f91c8"><path d="M 62.316406 119 L 78 119 L 78 126 L 62.316406 126 Z M 62.316406 119 " clip-rule="nonzero"/></clipPath><clipPath id="c9cbcfb2be"><path d="M 62.316406 123 L 69 123 L 69 126 L 62.316406 126 Z M 62.316406 123 " clip-rule="nonzero"/></clipPath><clipPath id="196d773dd8"><path d="M 62.316406 116 L 69 116 L 69 119 L 62.316406 119 Z M 62.316406 116 " clip-rule="nonzero"/></clipPath><clipPath id="39cf1fe8cf"><path d="M 62.316406 140 L 75 140 L 75 144 L 62.316406 144 Z M 62.316406 140 " clip-rule="nonzero"/></clipPath><clipPath id="143dc9d1ea"><path d="M 62.316406 143 L 67 143 L 67 145 L 62.316406 145 Z M 62.316406 143 " clip-rule="nonzero"/></clipPath><clipPath id="9d802182b8"><path d="M 62.316406 137 L 67 137 L 67 139 L 62.316406 139 Z M 62.316406 137 " clip-rule="nonzero"/></clipPath><clipPath id="1615cfd5bd"><path d="M 62.316406 149 L 71 149 L 71 151 L 62.316406 151 Z M 62.316406 149 " clip-rule="nonzero"/></clipPath><clipPath id="0c17963990"><path d="M 71 10.460938 L 89 10.460938 L 89 30 L 71 30 Z M 71 10.460938 " clip-rule="nonzero"/></clipPath><clipPath id="75b8240d5b"><path d="M 79 10.460938 L 89 10.460938 L 89 23 L 79 23 Z M 79 10.460938 " clip-rule="nonzero"/></clipPath><clipPath id="21215155e7"><path d="M 98 10.460938 L 112 10.460938 L 112 32 L 98 32 Z M 98 10.460938 " clip-rule="nonzero"/></clipPath><clipPath id="4507a568f7"><path d="M 128 10.460938 L 137 10.460938 L 137 32 L 128 32 Z M 128 10.460938 " clip-rule="nonzero"/></clipPath><clipPath id="39ab507f2a"><path d="M 151 10.460938 L 155 10.460938 L 155 21 L 151 21 Z M 151 10.460938 " clip-rule="nonzero"/></clipPath><clipPath id="675a9ed41e"><path d="M 168 10.460938 L 170 10.460938 L 170 26 L 168 26 Z M 168 10.460938 " clip-rule="nonzero"/></clipPath><clipPath id="1e1dc15f57"><path d="M 172 10.460938 L 174 10.460938 L 174 20 L 172 20 Z M 172 10.460938 " clip-rule="nonzero"/></clipPath><clipPath id="382fd1de05"><path d="M 165 10.460938 L 166 10.460938 L 166 17 L 165 17 Z M 165 10.460938 " clip-rule="nonzero"/></clipPath><clipPath id="0b136d556d"><path d="M 159 10.460938 L 162 10.460938 L 162 21 L 159 21 Z M 159 10.460938 " clip-rule="nonzero"/></clipPath><clipPath id="3a5e517b8e"><path d="M 155 10.460938 L 159 10.460938 L 159 26 L 155 26 Z M 155 10.460938 " clip-rule="nonzero"/></clipPath><clipPath id="735c97eea3"><path d="M 139 10.460938 L 146 10.460938 L 146 29 L 139 29 Z M 139 10.460938 " clip-rule="nonzero"/></clipPath><clipPath id="15dbef6215"><path d="M 134 10.460938 L 140 10.460938 L 140 26 L 134 26 Z M 134 10.460938 " clip-rule="nonzero"/></clipPath><clipPath id="8a7968bc98"><path d="M 144 10.460938 L 153 10.460938 L 153 37 L 144 37 Z M 144 10.460938 " clip-rule="nonzero"/></clipPath><clipPath id="ef830bb51e"><path d="M 123 10.460938 L 130 10.460938 L 130 26 L 123 26 Z M 123 10.460938 " clip-rule="nonzero"/></clipPath><clipPath id="a8f937d7c9"><path d="M 103 10.460938 L 111 10.460938 L 111 23 L 103 23 Z M 103 10.460938 " clip-rule="nonzero"/></clipPath><clipPath id="9c303ff467"><path d="M 111 10.460938 L 127 10.460938 L 127 39 L 111 39 Z M 111 10.460938 " clip-rule="nonzero"/></clipPath><clipPath id="6d6ad19d3a"><path d="M 115 10.460938 L 122 10.460938 L 122 23 L 115 23 Z M 115 10.460938 " clip-rule="nonzero"/></clipPath><clipPath id="75884064ce"><path d="M 85 10.460938 L 90 10.460938 L 90 17 L 85 17 Z M 85 10.460938 " clip-rule="nonzero"/></clipPath><clipPath id="962dceb812"><path d="M 91 10.460938 L 98 10.460938 L 98 20 L 91 20 Z M 91 10.460938 " clip-rule="nonzero"/></clipPath><clipPath id="cddb3f0097"><path d="M 95 10.460938 L 106 10.460938 L 106 26 L 95 26 Z M 95 10.460938 " clip-rule="nonzero"/></clipPath><clipPath id="ec5aa07698"><path d="M 66 10.460938 L 80 10.460938 L 80 24 L 66 24 Z M 66 10.460938 " clip-rule="nonzero"/></clipPath></defs><g clip-path="url(#e1af05b592)"><path fill="#161931" d="M 292.980469 10.46875 L 247.480469 64.804688 L 291.609375 10.46875 Z M 292.980469 10.46875 " fill-opacity="1" fill-rule="nonzero"/></g><g clip-path="url(#b140347c0a)"><path fill="#161931" d="M 293.296875 169.433594 L 293.296875 169.820312 L 281.394531 169.628906 Z M 293.296875 169.433594 " fill-opacity="1" fill-rule="nonzero"/></g><g clip-path="url(#7a9143a697)"><path fill="#161931" d="M 293.296875 101.109375 L 293.296875 102.285156 L 256.730469 114.773438 Z M 293.296875 101.109375 " fill-opacity="1" fill-rule="nonzero"/></g><g clip-path="url(#078cac3b75)"><path fill="#161931" d="M 293.296875 91.289062 L 293.296875 91.878906 L 269.0625 102.445312 Z M 293.296875 91.289062 " fill-opacity="1" fill-rule="nonzero"/></g><g clip-path="url(#9851b39521)"><path fill="#161931" d="M 293.296875 83.15625 L 293.296875 83.769531 L 278.308594 90.773438 Z M 293.296875 83.15625 " fill-opacity="1" fill-rule="nonzero"/></g><g clip-path="url(#d5b3cdafe8)"><path fill="#161931" d="M 293.296875 21.246094 L 293.296875 23.050781 L 259.46875 59.941406 Z M 293.296875 21.246094 " fill-opacity="1" fill-rule="nonzero"/></g><g clip-path="url(#bd0c446d49)"><path fill="#161931" d="M 293.296875 50.203125 L 293.296875 51.671875 L 263.238281 72.257812 Z M 293.296875 50.203125 " fill-opacity="1" fill-rule="nonzero"/></g><g clip-path="url(#0dc036f4af)"><path fill="#161931" d="M 293.296875 57.410156 L 293.296875 58.011719 L 283.277344 63.921875 Z M 293.296875 57.410156 " fill-opacity="1" fill-rule="nonzero"/></g><g clip-path="url(#7401a9244b)"><path fill="#161931" d="M 293.296875 67.976562 L 293.296875 69.324219 L 270.429688 82.085938 Z M 293.296875 67.976562 " fill-opacity="1" fill-rule="nonzero"/></g><g clip-path="url(#5fb6a42fa8)"><path fill="#161931" d="M 293.296875 73.570312 L 293.296875 74.15625 L 283.277344 79.574219 Z M 293.296875 73.570312 " fill-opacity="1" fill-rule="nonzero"/></g><g clip-path="url(#1f71a4c90e)"><path fill="#161931" d="M 293.296875 31.78125 L 293.296875 32.570312 L 276.253906 48.945312 Z M 293.296875 31.78125 " fill-opacity="1" fill-rule="nonzero"/></g><g clip-path="url(#30d91dfd05)"><path fill="#161931" d="M 183.980469 10.46875 L 183.421875 33.964844 L 182.863281 10.46875 Z M 183.980469 10.46875 " fill-opacity="1" fill-rule="nonzero"/></g><g clip-path="url(#32aa7c6c6b)"><path fill="#161931" d="M 221.140625 10.46875 L 214.9375 50.621094 L 219.941406 10.46875 Z M 221.140625 10.46875 " fill-opacity="1" fill-rule="nonzero"/></g><g clip-path="url(#124eb9f0e0)"><path fill="#161931" d="M 215.0625 10.46875 L 213.226562 31.160156 L 214.472656 10.46875 Z M 215.0625 10.46875 " fill-opacity="1" fill-rule="nonzero"/></g><g clip-path="url(#6902283cf8)"><path fill="#161931" d="M 198.089844 10.46875 L 197.8125 23.914062 L 197.535156 10.46875 Z M 198.089844 10.46875 " fill-opacity="1" fill-rule="nonzero"/></g><g clip-path="url(#7d9eb3830a)"><path fill="#161931" d="M 188.492188 10.46875 L 188.21875 22.542969 L 187.945312 10.46875 Z M 188.492188 10.46875 " fill-opacity="1" fill-rule="nonzero"/></g><g clip-path="url(#e6d7c5baf2)"><path fill="#161931" d="M 250.816406 10.46875 L 239.261719 45.019531 L 250.171875 10.46875 Z M 250.816406 10.46875 " fill-opacity="1" fill-rule="nonzero"/></g><g clip-path="url(#bf65243054)"><path fill="#161931" d="M 258.914062 10.46875 L 248.851562 36.257812 L 258.273438 10.46875 Z M 258.914062 10.46875 " fill-opacity="1" fill-rule="nonzero"/></g><g clip-path="url(#3cbd6eebc5)"><path fill="#161931" d="M 280.121094 10.46875 L 251.25 50.621094 L 279.363281 10.46875 Z M 280.121094 10.46875 " fill-opacity="1" fill-rule="nonzero"/></g><g clip-path="url(#a2e531c39a)"><path fill="#161931" d="M 268.09375 10.46875 L 259.46875 25.402344 L 267.449219 10.46875 Z M 268.09375 10.46875 " fill-opacity="1" fill-rule="nonzero"/></g><g clip-path="url(#c1e497601c)"><path fill="#161931" d="M 233.636719 10.46875 L 227.953125 38.199219 L 233.019531 10.46875 Z M 233.636719 10.46875 " fill-opacity="1" fill-rule="nonzero"/></g><g clip-path="url(#5ebce94135)"><path fill="#161931" d="M 293.296875 42.882812 L 293.296875 43.507812 L 275.226562 56.085938 Z M 293.296875 42.882812 " fill-opacity="1" fill-rule="nonzero"/></g><g clip-path="url(#6d47c69a53)"><path fill="#161931" d="M 293.296875 139.863281 L 293.296875 141.042969 L 269.0625 143.117188 Z M 293.296875 139.863281 " fill-opacity="1" fill-rule="nonzero"/></g><g clip-path="url(#af0d55f654)"><path fill="#161931" d="M 293.296875 120.117188 L 293.296875 120.71875 L 266.320312 125.242188 Z M 293.296875 120.117188 " fill-opacity="1" fill-rule="nonzero"/></g><g clip-path="url(#8903652de4)"><path fill="#161931" d="M 293.296875 116.039062 L 293.296875 116.507812 L 273.171875 119.917969 Z M 293.296875 116.039062 " fill-opacity="1" fill-rule="nonzero"/></g><g clip-path="url(#97368bd3a5)"><path fill="#161931" d="M 293.296875 125.277344 L 293.296875 125.808594 L 273.171875 129.609375 Z M 293.296875 125.277344 " fill-opacity="1" fill-rule="nonzero"/></g><g clip-path="url(#11685901be)"><path fill="#161931" d="M 293.296875 163.582031 L 293.296875 164.707031 L 276.253906 164.144531 Z M 293.296875 163.582031 " fill-opacity="1" fill-rule="nonzero"/></g><g clip-path="url(#cc7dd20f49)"><path fill="#161931" d="M 293.296875 159.808594 L 293.296875 160.246094 L 282.59375 160.027344 Z M 293.296875 159.808594 " fill-opacity="1" fill-rule="nonzero"/></g><g clip-path="url(#5f88b8a848)"><path fill="#161931" d="M 293.296875 145.65625 L 293.296875 146.148438 L 277.796875 147.34375 Z M 293.296875 145.65625 " fill-opacity="1" fill-rule="nonzero"/></g><g clip-path="url(#47dd92d8c2)"><path fill="#161931" d="M 293.296875 132.480469 L 293.296875 133.683594 L 264.265625 137.109375 Z M 293.296875 132.480469 " fill-opacity="1" fill-rule="nonzero"/></g><g clip-path="url(#b747c50d99)"><path fill="#161931" d="M 293.296875 110.414062 L 293.296875 110.925781 L 276.253906 114.773438 Z M 293.296875 110.414062 " fill-opacity="1" fill-rule="nonzero"/></g><g clip-path="url(#427467a286)"><path fill="#161931" d="M 241.105469 10.46875 L 236.175781 32.109375 L 240.570312 10.46875 Z M 241.105469 10.46875 " fill-opacity="1" fill-rule="nonzero"/></g><g clip-path="url(#ed1bdf8466)"><path fill="#161931" d="M 293.296875 152.761719 L 293.296875 153.121094 L 286.871094 152.941406 Z M 293.296875 152.761719 " fill-opacity="1" fill-rule="nonzero"/></g><g clip-path="url(#69b34a4eef)"><path fill="#161931" d="M 293.296875 336.101562 L 293.296875 337.453125 L 293.121094 337.453125 L 247.480469 291 Z M 293.296875 336.101562 " fill-opacity="1" fill-rule="nonzero"/></g><g clip-path="url(#393cf136bb)"><path fill="#161931" d="M 251.152344 337.453125 L 250.078125 337.453125 L 237.546875 318.046875 Z M 251.152344 337.453125 " fill-opacity="1" fill-rule="nonzero"/></g><g clip-path="url(#9d67f2ea77)"><path fill="#161931" d="M 184.183594 337.453125 L 183.347656 337.453125 L 183.765625 325.847656 Z M 184.183594 337.453125 " fill-opacity="1" fill-rule="nonzero"/></g><g clip-path="url(#c6b39bd50c)"><path fill="#161931" d="M 196.597656 337.453125 L 195.597656 337.453125 L 196.097656 316.347656 Z M 196.597656 337.453125 " fill-opacity="1" fill-rule="nonzero"/></g><g clip-path="url(#00e91f6059)"><path fill="#161931" d="M 218.230469 337.453125 L 217.792969 337.453125 L 215.96875 324.5625 Z M 218.230469 337.453125 " fill-opacity="1" fill-rule="nonzero"/></g><g clip-path="url(#57c6a089e8)"><path fill="#161931" d="M 212.78125 337.453125 L 211.683594 337.453125 L 209.113281 320.332031 Z M 212.78125 337.453125 " fill-opacity="1" fill-rule="nonzero"/></g><g clip-path="url(#87ceb38ae9)"><path fill="#161931" d="M 203.933594 337.453125 L 203.421875 337.453125 L 202.605469 324.5625 Z M 203.933594 337.453125 " fill-opacity="1" fill-rule="nonzero"/></g><g clip-path="url(#1b46a530ce)"><path fill="#161931" d="M 242.6875 337.453125 L 242.101562 337.453125 L 235.148438 326.339844 Z M 242.6875 337.453125 " fill-opacity="1" fill-rule="nonzero"/></g><g clip-path="url(#2799114132)"><path fill="#161931" d="M 236.472656 337.453125 L 235.960938 337.453125 L 233.4375 332.808594 Z M 236.472656 337.453125 " fill-opacity="1" fill-rule="nonzero"/></g><g clip-path="url(#503c501630)"><path fill="#161931" d="M 284.867188 337.453125 L 283.152344 337.453125 L 250.5625 303.339844 Z M 284.867188 337.453125 " fill-opacity="1" fill-rule="nonzero"/></g><g clip-path="url(#3beba6c614)"><path fill="#161931" d="M 276.679688 337.453125 L 275.925781 337.453125 L 258.101562 318.046875 Z M 276.679688 337.453125 " fill-opacity="1" fill-rule="nonzero"/></g><g clip-path="url(#5078a95a41)"><path fill="#161931" d="M 264.820312 337.453125 L 264.039062 337.453125 L 244.738281 314.238281 Z M 264.820312 337.453125 " fill-opacity="1" fill-rule="nonzero"/></g><g clip-path="url(#5701c30bad)"><path fill="#161931" d="M 293.296875 319.820312 L 293.296875 320.574219 L 270.429688 301.582031 Z M 293.296875 319.820312 " fill-opacity="1" fill-rule="nonzero"/></g><g clip-path="url(#a8a95401b2)"><path fill="#161931" d="M 293.296875 178.304688 L 293.296875 178.78125 L 285.847656 178.542969 Z M 293.296875 178.304688 " fill-opacity="1" fill-rule="nonzero"/></g><g clip-path="url(#3e8d05b237)"><path fill="#161931" d="M 293.296875 239.582031 L 293.296875 240.816406 L 263.238281 232.257812 Z M 293.296875 239.582031 " fill-opacity="1" fill-rule="nonzero"/></g><g clip-path="url(#5db9402e21)"><path fill="#161931" d="M 293.296875 245.902344 L 293.296875 247.015625 L 270.429688 239.570312 Z M 293.296875 245.902344 " fill-opacity="1" fill-rule="nonzero"/></g><g clip-path="url(#c775b867a9)"><path fill="#161931" d="M 293.296875 254.09375 L 293.296875 254.671875 L 279.679688 249.285156 Z M 293.296875 254.09375 " fill-opacity="1" fill-rule="nonzero"/></g><g clip-path="url(#8bbaa38255)"><path fill="#161931" d="M 293.296875 273.851562 L 293.296875 275.152344 L 268.375 262.648438 Z M 293.296875 273.851562 " fill-opacity="1" fill-rule="nonzero"/></g><g clip-path="url(#09d5f54307)"><path fill="#161931" d="M 293.296875 269.839844 L 293.296875 270.402344 L 283.277344 265.613281 Z M 293.296875 269.839844 " fill-opacity="1" fill-rule="nonzero"/></g><g clip-path="url(#7304dda753)"><path fill="#161931" d="M 293.296875 264.113281 L 293.296875 264.515625 L 289.699219 262.648438 Z M 293.296875 264.113281 " fill-opacity="1" fill-rule="nonzero"/></g><g clip-path="url(#d3d6385263)"><path fill="#161931" d="M 293.296875 279.953125 L 293.296875 280.589844 L 276.253906 271.386719 Z M 293.296875 279.953125 " fill-opacity="1" fill-rule="nonzero"/></g><g clip-path="url(#564c63f18b)"><path fill="#161931" d="M 293.296875 289.046875 L 293.296875 289.671875 L 280.195312 281.742188 Z M 293.296875 289.046875 " fill-opacity="1" fill-rule="nonzero"/></g><g clip-path="url(#d1922ab111)"><path fill="#161931" d="M 293.296875 294.683594 L 293.296875 295.214844 L 286.191406 291 Z M 293.296875 294.683594 " fill-opacity="1" fill-rule="nonzero"/></g><g clip-path="url(#77e7aac6fb)"><path fill="#161931" d="M 293.296875 299.953125 L 293.296875 300.363281 L 289.699219 298.332031 Z M 293.296875 299.953125 " fill-opacity="1" fill-rule="nonzero"/></g><g clip-path="url(#978f2e9954)"><path fill="#161931" d="M 293.296875 307.304688 L 293.296875 308.753906 L 270.429688 291 Z M 293.296875 307.304688 " fill-opacity="1" fill-rule="nonzero"/></g><g clip-path="url(#26b2eaa96b)"><path fill="#161931" d="M 293.296875 184.625 L 293.296875 185.75 L 276.253906 185.1875 Z M 293.296875 184.625 " fill-opacity="1" fill-rule="nonzero"/></g><g clip-path="url(#6ea44962c9)"><path fill="#161931" d="M 293.296875 187.167969 L 293.296875 187.609375 L 287.386719 187.390625 Z M 293.296875 187.167969 " fill-opacity="1" fill-rule="nonzero"/></g><g clip-path="url(#91a04fbe3d)"><path fill="#161931" d="M 293.296875 208.664062 L 293.296875 209.832031 L 270.429688 206.777344 Z M 293.296875 208.664062 " fill-opacity="1" fill-rule="nonzero"/></g><g clip-path="url(#a5a6c3e3b1)"><path fill="#161931" d="M 293.296875 204.121094 L 293.296875 204.640625 L 282.25 203.519531 Z M 293.296875 204.121094 " fill-opacity="1" fill-rule="nonzero"/></g><g clip-path="url(#b88afae7cf)"><path fill="#161931" d="M 293.296875 200.652344 L 293.296875 201.207031 L 278.308594 199.800781 Z M 293.296875 200.652344 " fill-opacity="1" fill-rule="nonzero"/></g><g clip-path="url(#ba7ef32d44)"><path fill="#161931" d="M 293.296875 196.601562 L 293.296875 197.109375 L 283.277344 196.140625 Z M 293.296875 196.601562 " fill-opacity="1" fill-rule="nonzero"/></g><g clip-path="url(#9ba5f967b9)"><path fill="#161931" d="M 293.296875 192.304688 L 293.296875 192.667969 L 288.160156 192.488281 Z M 293.296875 192.304688 " fill-opacity="1" fill-rule="nonzero"/></g><g clip-path="url(#f0a936db3b)"><path fill="#161931" d="M 293.296875 233.902344 L 293.296875 234.472656 L 276.253906 230.65625 Z M 293.296875 233.902344 " fill-opacity="1" fill-rule="nonzero"/></g><g clip-path="url(#2f97679e47)"><path fill="#161931" d="M 293.296875 222.867188 L 293.296875 223.945312 L 270.429688 219.671875 Z M 293.296875 222.867188 " fill-opacity="1" fill-rule="nonzero"/></g><g clip-path="url(#fb432aaece)"><path fill="#161931" d="M 293.296875 227.285156 L 293.296875 227.808594 L 277.796875 225.210938 Z M 293.296875 227.285156 " fill-opacity="1" fill-rule="nonzero"/></g><g clip-path="url(#2c1ed19772)"><path fill="#161931" d="M 293.296875 218.746094 L 293.296875 219.25 L 281.21875 216.941406 Z M 293.296875 218.746094 " fill-opacity="1" fill-rule="nonzero"/></g><g clip-path="url(#cc90527afb)"><path fill="#161931" d="M 293.296875 213.640625 L 293.296875 214.113281 L 286.191406 213.058594 Z M 293.296875 213.640625 " fill-opacity="1" fill-rule="nonzero"/></g><g clip-path="url(#e095162a07)"><path fill="#161931" d="M 226.445312 337.453125 L 225.941406 337.453125 L 224.644531 330.695312 Z M 226.445312 337.453125 " fill-opacity="1" fill-rule="nonzero"/></g><g clip-path="url(#7e4097061f)"><path fill="#161931" d="M 189.046875 337.453125 L 188.535156 337.453125 L 188.792969 329.550781 Z M 189.046875 337.453125 " fill-opacity="1" fill-rule="nonzero"/></g><g clip-path="url(#13b8f5571f)"><path fill="#161931" d="M 84.886719 316.828125 L 62.304688 337.199219 L 62.304688 336.550781 Z M 84.886719 316.828125 " fill-opacity="1" fill-rule="nonzero"/></g><g clip-path="url(#b60b310030)"><path fill="#161931" d="M 99.957031 309.054688 L 68.957031 337.453125 L 67.292969 337.453125 Z M 99.957031 309.054688 " fill-opacity="1" fill-rule="nonzero"/></g><g clip-path="url(#be761c46de)"><path fill="#161931" d="M 90.597656 322.921875 L 75.605469 337.453125 L 74.839844 337.453125 Z M 90.597656 322.921875 " fill-opacity="1" fill-rule="nonzero"/></g><g clip-path="url(#e822c968f9)"><path fill="#161931" d="M 113.429688 318.046875 L 101.691406 337.453125 L 101 337.453125 Z M 113.429688 318.046875 " fill-opacity="1" fill-rule="nonzero"/></g><g clip-path="url(#b265eaa6c4)"><path fill="#161931" d="M 135.355469 324.5625 L 131.554688 337.453125 L 130.972656 337.453125 Z M 135.355469 324.5625 " fill-opacity="1" fill-rule="nonzero"/></g><g clip-path="url(#07c5ba9b1d)"><path fill="#161931" d="M 159.5625 326.960938 L 157.953125 337.453125 L 157.402344 337.453125 Z M 159.5625 326.960938 " fill-opacity="1" fill-rule="nonzero"/></g><g clip-path="url(#607e29c876)"><path fill="#161931" d="M 125.761719 316.828125 L 116.722656 337.453125 L 115.421875 337.453125 Z M 125.761719 316.828125 " fill-opacity="1" fill-rule="nonzero"/></g><g clip-path="url(#a7409e3813)"><path fill="#161931" d="M 120.394531 321.515625 L 112.207031 337.453125 L 111.554688 337.453125 Z M 120.394531 321.515625 " fill-opacity="1" fill-rule="nonzero"/></g><g clip-path="url(#1a2992ffa1)"><path fill="#161931" d="M 106.695312 322.492188 L 96.875 337.453125 L 96.148438 337.453125 Z M 106.695312 322.492188 " fill-opacity="1" fill-rule="nonzero"/></g><g clip-path="url(#83ab5b755d)"><path fill="#161931" d="M 104.984375 316.347656 L 89.460938 337.453125 L 88.6875 337.453125 Z M 104.984375 316.347656 " fill-opacity="1" fill-rule="nonzero"/></g><g clip-path="url(#b10f474665)"><path fill="#161931" d="M 89.453125 329.550781 L 83.191406 337.453125 L 82.527344 337.453125 Z M 89.453125 329.550781 " fill-opacity="1" fill-rule="nonzero"/></g><g clip-path="url(#b8695564a0)"><path fill="#161931" d="M 124.621094 328.585938 L 121.523438 337.453125 L 120.964844 337.453125 Z M 124.621094 328.585938 " fill-opacity="1" fill-rule="nonzero"/></g><g clip-path="url(#9f7075e230)"><path fill="#161931" d="M 130.558594 327.558594 L 126.929688 337.453125 L 126.359375 337.453125 Z M 130.558594 327.558594 " fill-opacity="1" fill-rule="nonzero"/></g><g clip-path="url(#f09046a9c7)"><path fill="#161931" d="M 137.410156 331.992188 L 136.191406 337.453125 L 135.707031 337.453125 Z M 137.410156 331.992188 " fill-opacity="1" fill-rule="nonzero"/></g><g clip-path="url(#e223efb45f)"><path fill="#161931" d="M 149.515625 314.238281 L 144.703125 337.453125 L 143.484375 337.453125 Z M 149.515625 314.238281 " fill-opacity="1" fill-rule="nonzero"/></g><g clip-path="url(#5415e0d8fc)"><path fill="#161931" d="M 149.515625 326.960938 L 147.339844 337.453125 L 146.789062 337.453125 Z M 149.515625 326.960938 " fill-opacity="1" fill-rule="nonzero"/></g><g clip-path="url(#7711765f85)"><path fill="#161931" d="M 156.136719 330.695312 L 154.839844 337.453125 L 154.335938 337.453125 Z M 156.136719 330.695312 " fill-opacity="1" fill-rule="nonzero"/></g><g clip-path="url(#888c083c32)"><path fill="#161931" d="M 151.570312 332.808594 L 150.597656 337.453125 L 150.21875 337.453125 Z M 151.570312 332.808594 " fill-opacity="1" fill-rule="nonzero"/></g><g clip-path="url(#5f71b0635e)"><path fill="#161931" d="M 160.929688 332.125 L 160.3125 337.453125 L 159.914062 337.453125 Z M 160.929688 332.125 " fill-opacity="1" fill-rule="nonzero"/></g><g clip-path="url(#8d276d7d4a)"><path fill="#161931" d="M 173.746094 337.453125 L 173.238281 337.453125 L 173.492188 332.808594 Z M 173.746094 337.453125 " fill-opacity="1" fill-rule="nonzero"/></g><g clip-path="url(#8322ec9ec0)"><path fill="#161931" d="M 170.769531 337.453125 L 170.277344 337.453125 L 170.523438 330.695312 Z M 170.769531 337.453125 " fill-opacity="1" fill-rule="nonzero"/></g><g clip-path="url(#d3a9764110)"><path fill="#161931" d="M 165.957031 323.785156 L 165.75 337.453125 L 164.714844 337.453125 Z M 165.957031 323.785156 " fill-opacity="1" fill-rule="nonzero"/></g><g clip-path="url(#5e579ed8c4)"><path fill="#161931" d="M 112.519531 327.558594 L 107.265625 337.453125 L 106.722656 337.453125 Z M 112.519531 327.558594 " fill-opacity="1" fill-rule="nonzero"/></g><g clip-path="url(#d4d8dd040d)"><path fill="#161931" d="M 75.75 318.046875 L 62.304688 328.414062 L 62.304688 327.839844 Z M 75.75 318.046875 " fill-opacity="1" fill-rule="nonzero"/></g><g clip-path="url(#cb50bcdb1c)"><path fill="#161931" d="M 66.160156 318.460938 L 62.304688 321.070312 L 62.304688 320.757812 Z M 66.160156 318.460938 " fill-opacity="1" fill-rule="nonzero"/></g><g clip-path="url(#30408e50e4)"><path fill="#161931" d="M 64.5625 178.542969 L 62.304688 178.699219 L 62.304688 178.390625 Z M 64.5625 178.542969 " fill-opacity="1" fill-rule="nonzero"/></g><g clip-path="url(#ad9a44c86e)"><path fill="#161931" d="M 69.585938 180.90625 L 62.304688 181.148438 L 62.304688 180.664062 Z M 69.585938 180.90625 " fill-opacity="1" fill-rule="nonzero"/></g><g clip-path="url(#56601f958d)"><path fill="#161931" d="M 81.132812 229.054688 L 62.304688 232.015625 L 62.304688 231.007812 Z M 81.132812 229.054688 " fill-opacity="1" fill-rule="nonzero"/></g><g clip-path="url(#b3443bac1d)"><path fill="#161931" d="M 71.414062 234.773438 L 62.304688 236.230469 L 62.304688 235.785156 Z M 71.414062 234.773438 " fill-opacity="1" fill-rule="nonzero"/></g><g clip-path="url(#cfc78c7e4e)"><path fill="#161931" d="M 75.75 240.941406 L 62.304688 243.351562 L 62.304688 242.847656 Z M 75.75 240.941406 " fill-opacity="1" fill-rule="nonzero"/></g><g clip-path="url(#f127368087)"><path fill="#161931" d="M 66.84375 244.828125 L 62.304688 245.773438 L 62.304688 245.351562 Z M 66.84375 244.828125 " fill-opacity="1" fill-rule="nonzero"/></g><g clip-path="url(#0a80b319f2)"><path fill="#161931" d="M 88.082031 255.570312 L 62.304688 261.226562 L 62.304688 260.082031 Z M 88.082031 255.570312 " fill-opacity="1" fill-rule="nonzero"/></g><g clip-path="url(#bf6eed71b8)"><path fill="#161931" d="M 73.011719 261.511719 L 62.304688 263.898438 L 62.304688 263.363281 Z M 73.011719 261.511719 " fill-opacity="1" fill-rule="nonzero"/></g><g clip-path="url(#f91af68683)"><path fill="#161931" d="M 67.761719 266.3125 L 62.304688 267.578125 L 62.304688 267.207031 Z M 67.761719 266.3125 " fill-opacity="1" fill-rule="nonzero"/></g><g clip-path="url(#3be986bd09)"><path fill="#161931" d="M 84.886719 268.5 L 62.304688 274.523438 L 62.304688 273.316406 Z M 84.886719 268.5 " fill-opacity="1" fill-rule="nonzero"/></g><g clip-path="url(#b6037805e8)"><path fill="#161931" d="M 74.839844 274.523438 L 62.304688 277.96875 L 62.304688 277.40625 Z M 74.839844 274.523438 " fill-opacity="1" fill-rule="nonzero"/></g><g clip-path="url(#def7f8b9b8)"><path fill="#161931" d="M 69.585938 280.027344 L 62.304688 282.195312 L 62.304688 281.769531 Z M 69.585938 280.027344 " fill-opacity="1" fill-rule="nonzero"/></g><g clip-path="url(#53e0969f2d)"><path fill="#161931" d="M 86.257812 283.152344 L 62.304688 293.875 L 62.304688 292.675781 Z M 86.257812 283.152344 " fill-opacity="1" fill-rule="nonzero"/></g><g clip-path="url(#873f9c4783)"><path fill="#161931" d="M 76.894531 291 L 62.304688 298.175781 L 62.304688 297.617188 Z M 76.894531 291 " fill-opacity="1" fill-rule="nonzero"/></g><g clip-path="url(#b3303bf778)"><path fill="#161931" d="M 73.011719 297.28125 L 62.304688 302.65625 L 62.304688 302.144531 Z M 73.011719 297.28125 " fill-opacity="1" fill-rule="nonzero"/></g><g clip-path="url(#cc0d74b7d1)"><path fill="#161931" d="M 81.132812 300.882812 L 62.304688 312.34375 L 62.304688 311.121094 Z M 81.132812 300.882812 " fill-opacity="1" fill-rule="nonzero"/></g><g clip-path="url(#ab704b3368)"><path fill="#161931" d="M 72.328125 309.054688 L 62.304688 315.570312 L 62.304688 314.953125 Z M 72.328125 309.054688 " fill-opacity="1" fill-rule="nonzero"/></g><g clip-path="url(#689e5d7d99)"><path fill="#161931" d="M 69.585938 303.339844 L 62.304688 307.867188 L 62.304688 307.304688 Z M 69.585938 303.339844 " fill-opacity="1" fill-rule="nonzero"/></g><g clip-path="url(#05d35a386c)"><path fill="#161931" d="M 73.011719 284.949219 L 62.304688 288.609375 L 62.304688 288.058594 Z M 73.011719 284.949219 " fill-opacity="1" fill-rule="nonzero"/></g><g clip-path="url(#f57c20a4f2)"><path fill="#161931" d="M 74.839844 253.332031 L 62.304688 255.46875 L 62.304688 254.921875 Z M 74.839844 253.332031 " fill-opacity="1" fill-rule="nonzero"/></g><g clip-path="url(#53b87bbf9c)"><path fill="#161931" d="M 69.539062 249.285156 L 62.304688 250.972656 L 62.304688 250.480469 Z M 69.539062 249.285156 " fill-opacity="1" fill-rule="nonzero"/></g><g clip-path="url(#9015bf2d5b)"><path fill="#161931" d="M 77.804688 204.597656 L 62.304688 207.039062 L 62.304688 205.90625 Z M 77.804688 204.597656 " fill-opacity="1" fill-rule="nonzero"/></g><g clip-path="url(#873985b1c6)"><path fill="#161931" d="M 71.414062 208.164062 L 62.304688 209.324219 L 62.304688 208.882812 Z M 71.414062 208.164062 " fill-opacity="1" fill-rule="nonzero"/></g><g clip-path="url(#01f848f402)"><path fill="#161931" d="M 86.257812 213.058594 L 62.304688 216.902344 L 62.304688 215.789062 Z M 86.257812 213.058594 " fill-opacity="1" fill-rule="nonzero"/></g><g clip-path="url(#6950863f67)"><path fill="#161931" d="M 73.011719 218.308594 L 62.304688 220.171875 L 62.304688 219.703125 Z M 73.011719 218.308594 " fill-opacity="1" fill-rule="nonzero"/></g><g clip-path="url(#5d5ce78d96)"><path fill="#161931" d="M 69.539062 222.542969 L 62.304688 223.816406 L 62.304688 223.40625 Z M 69.539062 222.542969 " fill-opacity="1" fill-rule="nonzero"/></g><g clip-path="url(#b9d5feb96b)"><path fill="#161931" d="M 64.5625 227.132812 L 62.304688 227.589844 L 62.304688 227.367188 Z M 64.5625 227.132812 " fill-opacity="1" fill-rule="nonzero"/></g><g clip-path="url(#e8cc696ebb)"><path fill="#161931" d="M 66.386719 211 L 62.304688 211.785156 L 62.304688 211.378906 Z M 66.386719 211 " fill-opacity="1" fill-rule="nonzero"/></g><g clip-path="url(#4dcc73f09f)"><path fill="#161931" d="M 68.785156 184.484375 L 62.304688 184.722656 L 62.304688 184.25 Z M 68.785156 184.484375 " fill-opacity="1" fill-rule="nonzero"/></g><g clip-path="url(#c8187808ad)"><path fill="#161931" d="M 71.414062 189.589844 L 62.304688 189.84375 L 62.304688 189.335938 Z M 71.414062 189.589844 " fill-opacity="1" fill-rule="nonzero"/></g><g clip-path="url(#fbf481d15f)"><path fill="#161931" d="M 71.414062 202.085938 L 62.304688 203.464844 L 62.304688 202.949219 Z M 71.414062 202.085938 " fill-opacity="1" fill-rule="nonzero"/></g><g clip-path="url(#0b915b6a18)"><path fill="#161931" d="M 79.636719 196.601562 L 62.304688 198.902344 L 62.304688 197.757812 Z M 79.636719 196.601562 " fill-opacity="1" fill-rule="nonzero"/></g><g clip-path="url(#6798c6c1a1)"><path fill="#161931" d="M 71.414062 193.628906 L 62.304688 194.613281 L 62.304688 194.097656 Z M 71.414062 193.628906 " fill-opacity="1" fill-rule="nonzero"/></g><g clip-path="url(#533b4cf000)"><path fill="#161931" d="M 97.21875 47.78125 L 62.304688 10.65625 L 62.304688 10.46875 L 63.679688 10.46875 Z M 97.21875 47.78125 " fill-opacity="1" fill-rule="nonzero"/></g><g clip-path="url(#cfd5b50b6f)"><path fill="#161931" d="M 76.207031 32.109375 L 62.304688 17.621094 L 62.304688 16.894531 Z M 76.207031 32.109375 " fill-opacity="1" fill-rule="nonzero"/></g><g clip-path="url(#e6e86daa05)"><path fill="#161931" d="M 80.546875 43.570312 L 62.304688 24.511719 L 62.304688 23.722656 Z M 80.546875 43.570312 " fill-opacity="1" fill-rule="nonzero"/></g><g clip-path="url(#6e9698e899)"><path fill="#161931" d="M 82.832031 95.847656 L 62.304688 83.71875 L 62.304688 82.519531 Z M 82.832031 95.847656 " fill-opacity="1" fill-rule="nonzero"/></g><g clip-path="url(#76748d38ad)"><path fill="#161931" d="M 69.585938 83.457031 L 62.304688 78.792969 L 62.304688 78.269531 Z M 69.585938 83.457031 " fill-opacity="1" fill-rule="nonzero"/></g><g clip-path="url(#165b33baf6)"><path fill="#161931" d="M 76.207031 83.457031 L 62.304688 73.652344 L 62.304688 73.011719 Z M 76.207031 83.457031 " fill-opacity="1" fill-rule="nonzero"/></g><g clip-path="url(#ab6484e72c)"><path fill="#161931" d="M 82.832031 83.457031 L 62.304688 69.515625 L 62.304688 68.085938 Z M 82.832031 83.457031 " fill-opacity="1" fill-rule="nonzero"/></g><g clip-path="url(#7cae9b02db)"><path fill="#161931" d="M 75.523438 72.257812 L 62.304688 63.300781 L 62.304688 62.699219 Z M 75.523438 72.257812 " fill-opacity="1" fill-rule="nonzero"/></g><g clip-path="url(#34517ccb64)"><path fill="#161931" d="M 67.417969 61.515625 L 62.304688 58.148438 L 62.304688 57.71875 Z M 67.417969 61.515625 " fill-opacity="1" fill-rule="nonzero"/></g><g clip-path="url(#bf969c8a89)"><path fill="#161931" d="M 64.5625 56.085938 L 62.304688 54.5625 L 62.304688 54.25 Z M 64.5625 56.085938 " fill-opacity="1" fill-rule="nonzero"/></g><g clip-path="url(#f539b25224)"><path fill="#161931" d="M 81.460938 60.601562 L 62.304688 46.328125 L 62.304688 44.9375 Z M 81.460938 60.601562 " fill-opacity="1" fill-rule="nonzero"/></g><g clip-path="url(#e609b7616f)"><path fill="#161931" d="M 72.097656 48.945312 L 62.304688 41.433594 L 62.304688 40.824219 Z M 72.097656 48.945312 " fill-opacity="1" fill-rule="nonzero"/></g><g clip-path="url(#2e1ccf8dad)"><path fill="#161931" d="M 70.042969 41.859375 L 62.304688 34.90625 L 62.304688 34.300781 Z M 70.042969 41.859375 " fill-opacity="1" fill-rule="nonzero"/></g><g clip-path="url(#22ab523491)"><path fill="#161931" d="M 67.417969 169.628906 L 62.304688 169.847656 L 62.304688 169.40625 Z M 67.417969 169.628906 " fill-opacity="1" fill-rule="nonzero"/></g><g clip-path="url(#efaef1b2a5)"><path fill="#161931" d="M 68.785156 165.570312 L 62.304688 165.804688 L 62.304688 165.335938 Z M 68.785156 165.570312 " fill-opacity="1" fill-rule="nonzero"/></g><g clip-path="url(#17eef3406b)"><path fill="#161931" d="M 66.386719 161.171875 L 62.304688 161.375 L 62.304688 160.96875 Z M 66.386719 161.171875 " fill-opacity="1" fill-rule="nonzero"/></g><g clip-path="url(#ce887b18c2)"><path fill="#161931" d="M 68.785156 155.683594 L 62.304688 155.261719 L 62.304688 154.792969 Z M 68.785156 155.683594 " fill-opacity="1" fill-rule="nonzero"/></g><g clip-path="url(#befce865cb)"><path fill="#161931" d="M 72.097656 132.695312 L 62.304688 130.019531 L 62.304688 129.546875 Z M 72.097656 132.695312 " fill-opacity="1" fill-rule="nonzero"/></g><g clip-path="url(#42edcb1b09)"><path fill="#161931" d="M 74.152344 95.847656 L 62.304688 88.410156 L 62.304688 87.765625 Z M 74.152344 95.847656 " fill-opacity="1" fill-rule="nonzero"/></g><g clip-path="url(#53dcad30da)"><path fill="#161931" d="M 76.207031 107.054688 L 62.304688 101.453125 L 62.304688 100.910156 Z M 76.207031 107.054688 " fill-opacity="1" fill-rule="nonzero"/></g><g clip-path="url(#089d989884)"><path fill="#161931" d="M 71.414062 100.832031 L 62.304688 97.207031 L 62.304688 96.652344 Z M 71.414062 100.832031 " fill-opacity="1" fill-rule="nonzero"/></g><g clip-path="url(#a1882fc7c2)"><path fill="#161931" d="M 77.804688 112.089844 L 62.304688 106.640625 L 62.304688 106.039062 Z M 77.804688 112.089844 " fill-opacity="1" fill-rule="nonzero"/></g><g clip-path="url(#d3680c7e6c)"><path fill="#161931" d="M 70.042969 114.773438 L 62.304688 112.371094 L 62.304688 111.902344 Z M 70.042969 114.773438 " fill-opacity="1" fill-rule="nonzero"/></g><g clip-path="url(#6a2a1f91c8)"><path fill="#161931" d="M 77.582031 125.242188 L 62.304688 120.488281 L 62.304688 119.371094 Z M 77.582031 125.242188 " fill-opacity="1" fill-rule="nonzero"/></g><g clip-path="url(#c9cbcfb2be)"><path fill="#161931" d="M 68.785156 125.242188 L 62.304688 123.570312 L 62.304688 123.082031 Z M 68.785156 125.242188 " fill-opacity="1" fill-rule="nonzero"/></g><g clip-path="url(#196d773dd8)"><path fill="#161931" d="M 68.101562 118.65625 L 62.304688 117.144531 L 62.304688 116.664062 Z M 68.101562 118.65625 " fill-opacity="1" fill-rule="nonzero"/></g><g clip-path="url(#39cf1fe8cf)"><path fill="#161931" d="M 74.152344 143.117188 L 62.304688 141.210938 L 62.304688 140.109375 Z M 74.152344 143.117188 " fill-opacity="1" fill-rule="nonzero"/></g><g clip-path="url(#143dc9d1ea)"><path fill="#161931" d="M 66.730469 144.484375 L 62.304688 143.824219 L 62.304688 143.398438 Z M 66.730469 144.484375 " fill-opacity="1" fill-rule="nonzero"/></g><g clip-path="url(#9d802182b8)"><path fill="#161931" d="M 66.730469 138.542969 L 62.304688 137.839844 L 62.304688 137.417969 Z M 66.730469 138.542969 " fill-opacity="1" fill-rule="nonzero"/></g><g clip-path="url(#1615cfd5bd)"><path fill="#161931" d="M 70.042969 150.429688 L 62.304688 149.816406 L 62.304688 149.320312 Z M 70.042969 150.429688 " fill-opacity="1" fill-rule="nonzero"/></g><g clip-path="url(#0c17963990)"><path fill="#161931" d="M 88.769531 29.382812 L 71.292969 10.46875 L 72.074219 10.46875 Z M 88.769531 29.382812 " fill-opacity="1" fill-rule="nonzero"/></g><g clip-path="url(#75b8240d5b)"><path fill="#161931" d="M 88.769531 22.199219 L 79.269531 10.46875 L 79.957031 10.46875 Z M 88.769531 22.199219 " fill-opacity="1" fill-rule="nonzero"/></g><g clip-path="url(#21215155e7)"><path fill="#161931" d="M 111.605469 31.160156 L 98.320312 10.46875 L 99.015625 10.46875 Z M 111.605469 31.160156 " fill-opacity="1" fill-rule="nonzero"/></g><g clip-path="url(#4507a568f7)"><path fill="#161931" d="M 136.042969 31.886719 L 128.722656 10.46875 L 129.34375 10.46875 Z M 136.042969 31.886719 " fill-opacity="1" fill-rule="nonzero"/></g><g clip-path="url(#39ab507f2a)"><path fill="#161931" d="M 154.082031 20.195312 L 151.410156 10.46875 L 151.953125 10.46875 Z M 154.082031 20.195312 " fill-opacity="1" fill-rule="nonzero"/></g><g clip-path="url(#675a9ed41e)"><path fill="#161931" d="M 169.210938 10.46875 L 168.925781 25.402344 L 168.640625 10.46875 Z M 169.210938 10.46875 " fill-opacity="1" fill-rule="nonzero"/></g><g clip-path="url(#1e1dc15f57)"><path fill="#161931" d="M 173.066406 10.46875 L 172.804688 19.007812 L 172.546875 10.46875 Z M 173.066406 10.46875 " fill-opacity="1" fill-rule="nonzero"/></g><g clip-path="url(#382fd1de05)"><path fill="#161931" d="M 165.507812 10.46875 L 165.269531 16.773438 L 165.03125 10.46875 Z M 165.507812 10.46875 " fill-opacity="1" fill-rule="nonzero"/></g><g clip-path="url(#0b136d556d)"><path fill="#161931" d="M 161.160156 20.195312 L 159.789062 10.46875 L 160.316406 10.46875 Z M 161.160156 20.195312 " fill-opacity="1" fill-rule="nonzero"/></g><g clip-path="url(#3a5e517b8e)"><path fill="#161931" d="M 158.191406 25.730469 L 155.527344 10.46875 L 156.101562 10.46875 Z M 158.191406 25.730469 " fill-opacity="1" fill-rule="nonzero"/></g><g clip-path="url(#735c97eea3)"><path fill="#161931" d="M 145.859375 28.523438 L 139.996094 10.46875 L 140.636719 10.46875 Z M 145.859375 28.523438 " fill-opacity="1" fill-rule="nonzero"/></g><g clip-path="url(#15dbef6215)"><path fill="#161931" d="M 139.921875 25.402344 L 134.769531 10.46875 L 135.402344 10.46875 Z M 139.921875 25.402344 " fill-opacity="1" fill-rule="nonzero"/></g><g clip-path="url(#8a7968bc98)"><path fill="#161931" d="M 152.597656 36.507812 L 144.785156 10.46875 L 146.027344 10.46875 Z M 152.597656 36.507812 " fill-opacity="1" fill-rule="nonzero"/></g><g clip-path="url(#ef830bb51e)"><path fill="#161931" d="M 129.644531 25.730469 L 123.210938 10.46875 L 123.867188 10.46875 Z M 129.644531 25.730469 " fill-opacity="1" fill-rule="nonzero"/></g><g clip-path="url(#a8f937d7c9)"><path fill="#161931" d="M 110.464844 22.199219 L 103.863281 10.46875 L 104.480469 10.46875 Z M 110.464844 22.199219 " fill-opacity="1" fill-rule="nonzero"/></g><g clip-path="url(#9c303ff467)"><path fill="#161931" d="M 126.335938 38.199219 L 111.554688 10.46875 L 112.953125 10.46875 Z M 126.335938 38.199219 " fill-opacity="1" fill-rule="nonzero"/></g><g clip-path="url(#6d6ad19d3a)"><path fill="#161931" d="M 121.652344 22.199219 L 115.355469 10.46875 L 116.019531 10.46875 Z M 121.652344 22.199219 " fill-opacity="1" fill-rule="nonzero"/></g><g clip-path="url(#75884064ce)"><path fill="#161931" d="M 89.679688 16.773438 L 85.898438 10.46875 L 86.445312 10.46875 Z M 89.679688 16.773438 " fill-opacity="1" fill-rule="nonzero"/></g><g clip-path="url(#962dceb812)"><path fill="#161931" d="M 97.21875 19.007812 L 91.710938 10.46875 L 92.308594 10.46875 Z M 97.21875 19.007812 " fill-opacity="1" fill-rule="nonzero"/></g><g clip-path="url(#cddb3f0097)"><path fill="#161931" d="M 105.441406 25.402344 L 95.625 10.46875 L 96.335938 10.46875 Z M 105.441406 25.402344 " fill-opacity="1" fill-rule="nonzero"/></g><g clip-path="url(#ec5aa07698)"><path fill="#161931" d="M 79.179688 23.683594 L 66.757812 10.46875 L 67.507812 10.46875 Z M 79.179688 23.683594 " fill-opacity="1" fill-rule="nonzero"/></g><g fill="#ffffff" fill-opacity="1"><g transform="translate(211.291615, 371.349967)"><g><path d="M 1.1875 -0.828125 C 1.1875 -1.179688 1.265625 -1.445312 1.421875 -1.625 C 1.585938 -1.800781 1.816406 -1.890625 2.109375 -1.890625 C 2.410156 -1.890625 2.644531 -1.800781 2.8125 -1.625 C 2.988281 -1.445312 3.078125 -1.179688 3.078125 -0.828125 C 3.078125 -0.492188 2.988281 -0.234375 2.8125 -0.046875 C 2.644531 0.140625 2.410156 0.234375 2.109375 0.234375 C 1.847656 0.234375 1.628906 0.148438 1.453125 -0.015625 C 1.273438 -0.179688 1.1875 -0.453125 1.1875 -0.828125 Z M 1.1875 -0.828125 "/></g></g></g></svg>